%TF.GenerationSoftware,Altium Limited,Altium Designer,20.1.12 (249)*%
G04 Layer_Physical_Order=2*
G04 Layer_Color=36540*
%FSLAX45Y45*%
%MOMM*%
%TF.SameCoordinates,4EE8302A-A9A8-49E0-93C5-14594FCB678D*%
%TF.FilePolarity,Positive*%
%TF.FileFunction,Copper,L2,Inr,Signal*%
%TF.Part,Single*%
G01*
G75*
%TA.AperFunction,NonConductor*%
%ADD56C,0.20000*%
%TA.AperFunction,ComponentPad*%
%ADD65C,1.40000*%
%ADD66C,0.70000*%
%ADD67C,1.60000*%
%TA.AperFunction,WasherPad*%
%ADD68C,3.00000*%
%TA.AperFunction,ViaPad*%
%ADD69C,0.50000*%
G36*
X3367293Y5536798D02*
X3349535Y5525916D01*
X3308840Y5491159D01*
X3274084Y5450465D01*
X3246121Y5404834D01*
X3225641Y5355391D01*
X3213148Y5303352D01*
X3208949Y5250000D01*
X3213148Y5196648D01*
X3225641Y5144609D01*
X3246121Y5095166D01*
X3274084Y5049535D01*
X3308840Y5008840D01*
X3349535Y4974084D01*
X3395166Y4946121D01*
X3444609Y4925641D01*
X3496648Y4913148D01*
X3550000Y4908949D01*
X3603352Y4913148D01*
X3655391Y4925641D01*
X3704834Y4946121D01*
X3750465Y4974084D01*
X3791160Y5008840D01*
X3825916Y5049535D01*
X3836796Y5067289D01*
X3849019Y5063842D01*
X3849022Y50978D01*
X536154Y50979D01*
X532707Y63202D01*
X550465Y74084D01*
X591160Y108841D01*
X625916Y149535D01*
X653879Y195166D01*
X674359Y244609D01*
X686852Y296648D01*
X691051Y350000D01*
X686852Y403352D01*
X674359Y455391D01*
X653879Y504834D01*
X625916Y550465D01*
X591160Y591160D01*
X550465Y625916D01*
X504834Y653879D01*
X455391Y674359D01*
X403352Y686852D01*
X350000Y691051D01*
X296648Y686852D01*
X244609Y674359D01*
X195166Y653879D01*
X149535Y625916D01*
X108841Y591160D01*
X74084Y550465D01*
X63202Y532707D01*
X50978Y536154D01*
X50976Y5063850D01*
X63199Y5067297D01*
X74084Y5049535D01*
X108841Y5008840D01*
X149535Y4974084D01*
X195166Y4946121D01*
X244609Y4925641D01*
X296648Y4913148D01*
X350000Y4908949D01*
X403352Y4913148D01*
X455391Y4925641D01*
X504834Y4946121D01*
X550465Y4974084D01*
X591160Y5008840D01*
X625916Y5049535D01*
X653879Y5095166D01*
X674359Y5144609D01*
X686852Y5196648D01*
X691051Y5250000D01*
X686852Y5303352D01*
X674359Y5355391D01*
X653879Y5404834D01*
X625916Y5450465D01*
X591160Y5491159D01*
X550465Y5525916D01*
X532707Y5536798D01*
X536154Y5549022D01*
X3363846D01*
X3367293Y5536798D01*
D02*
G37*
%LPC*%
G36*
X725000Y5470882D02*
X707442Y5467389D01*
X692557Y5457443D01*
X682611Y5442558D01*
X679119Y5425000D01*
X682611Y5407442D01*
X692557Y5392557D01*
X707442Y5382611D01*
X725000Y5379119D01*
X742558Y5382611D01*
X757443Y5392557D01*
X767389Y5407442D01*
X770882Y5425000D01*
X767389Y5442558D01*
X757443Y5457443D01*
X742558Y5467389D01*
X725000Y5470882D01*
D02*
G37*
G36*
X975000Y5365882D02*
X957442Y5362389D01*
X945000Y5354076D01*
X932558Y5362389D01*
X915000Y5365882D01*
X897442Y5362389D01*
X885000Y5354076D01*
X872558Y5362389D01*
X855000Y5365882D01*
X837442Y5362389D01*
X825000Y5354076D01*
X812558Y5362389D01*
X795000Y5365882D01*
X777442Y5362389D01*
X762557Y5352443D01*
X752611Y5337558D01*
X749118Y5320000D01*
X752611Y5302442D01*
X762557Y5287557D01*
X777442Y5277611D01*
X795000Y5274118D01*
X812558Y5277611D01*
X825000Y5285924D01*
X837442Y5277611D01*
X855000Y5274118D01*
X872558Y5277611D01*
X885000Y5285924D01*
X897442Y5277611D01*
X915000Y5274118D01*
X932558Y5277611D01*
X945000Y5285924D01*
X957442Y5277611D01*
X975000Y5274118D01*
X992558Y5277611D01*
X1007443Y5287557D01*
X1017389Y5302442D01*
X1020882Y5320000D01*
X1017389Y5337558D01*
X1007443Y5352443D01*
X992558Y5362389D01*
X975000Y5365882D01*
D02*
G37*
G36*
X3176652Y5509978D02*
X3030000D01*
Y5330000D01*
X3176652D01*
Y5509978D01*
D02*
G37*
G36*
X390008Y4631081D02*
X368548Y4626812D01*
X350356Y4614657D01*
X338200Y4596464D01*
X333931Y4575004D01*
X338200Y4553544D01*
X350356Y4535351D01*
X368548Y4523195D01*
X390008Y4518926D01*
X411468Y4523195D01*
X429661Y4535351D01*
X441817Y4553544D01*
X446086Y4575004D01*
X441817Y4596464D01*
X429661Y4614657D01*
X411468Y4626812D01*
X390008Y4631081D01*
D02*
G37*
G36*
X1762500Y4238381D02*
X1744942Y4234889D01*
X1730057Y4224943D01*
X1720111Y4210058D01*
X1716619Y4192500D01*
X1720111Y4174942D01*
X1730057Y4160056D01*
X1744942Y4150111D01*
X1762500Y4146618D01*
X1780058Y4150111D01*
X1794943Y4160056D01*
X1804889Y4174942D01*
X1808382Y4192500D01*
X1804889Y4210058D01*
X1794943Y4224943D01*
X1780058Y4234889D01*
X1762500Y4238381D01*
D02*
G37*
G36*
X390008Y4216096D02*
X368548Y4211827D01*
X350356Y4199671D01*
X338200Y4181479D01*
X333931Y4160019D01*
X338200Y4138559D01*
X350356Y4120366D01*
X368548Y4108210D01*
X390008Y4103941D01*
X411468Y4108210D01*
X429661Y4120366D01*
X441817Y4138559D01*
X446086Y4160019D01*
X441817Y4181479D01*
X429661Y4199671D01*
X411468Y4211827D01*
X390008Y4216096D01*
D02*
G37*
G36*
X3310000Y4020863D02*
X3283895Y4017426D01*
X3259569Y4007350D01*
X3238679Y3991321D01*
X3222650Y3970431D01*
X3212574Y3946105D01*
X3209137Y3920000D01*
X3212574Y3893895D01*
X3222650Y3869569D01*
X3238679Y3848679D01*
X3259569Y3832650D01*
X3283895Y3822574D01*
X3310000Y3819137D01*
X3336105Y3822574D01*
X3360431Y3832650D01*
X3381321Y3848679D01*
X3397350Y3869569D01*
X3407426Y3893895D01*
X3410863Y3920000D01*
X3407426Y3946105D01*
X3397350Y3970431D01*
X3381321Y3991321D01*
X3360431Y4007350D01*
X3336105Y4017426D01*
X3310000Y4020863D01*
D02*
G37*
G36*
X3010000D02*
X2983895Y4017426D01*
X2959569Y4007350D01*
X2938679Y3991321D01*
X2922650Y3970431D01*
X2912574Y3946105D01*
X2909137Y3920000D01*
X2912574Y3893895D01*
X2922650Y3869569D01*
X2938679Y3848679D01*
X2959569Y3832650D01*
X2983895Y3822574D01*
X3010000Y3819137D01*
X3036105Y3822574D01*
X3060431Y3832650D01*
X3081321Y3848679D01*
X3097350Y3869569D01*
X3107426Y3893895D01*
X3110863Y3920000D01*
X3107426Y3946105D01*
X3097350Y3970431D01*
X3081321Y3991321D01*
X3060431Y4007350D01*
X3036105Y4017426D01*
X3010000Y4020863D01*
D02*
G37*
G36*
X2710000D02*
X2683895Y4017426D01*
X2659569Y4007350D01*
X2638679Y3991321D01*
X2622650Y3970431D01*
X2612574Y3946105D01*
X2609137Y3920000D01*
X2612574Y3893895D01*
X2622650Y3869569D01*
X2638679Y3848679D01*
X2659569Y3832650D01*
X2683895Y3822574D01*
X2710000Y3819137D01*
X2736105Y3822574D01*
X2760431Y3832650D01*
X2781321Y3848679D01*
X2797349Y3869569D01*
X2807426Y3893895D01*
X2810863Y3920000D01*
X2807426Y3946105D01*
X2797349Y3970431D01*
X2781321Y3991321D01*
X2760431Y4007350D01*
X2736105Y4017426D01*
X2710000Y4020863D01*
D02*
G37*
G36*
X2767500Y3698381D02*
X2749942Y3694889D01*
X2735057Y3684943D01*
X2725111Y3670058D01*
X2721618Y3652500D01*
X2725111Y3634942D01*
X2735057Y3620057D01*
Y3619943D01*
X2725111Y3605058D01*
X2721618Y3587500D01*
X2725111Y3569942D01*
X2735057Y3555057D01*
X2749942Y3545111D01*
X2767500Y3541618D01*
X2785058Y3545111D01*
X2799943Y3555057D01*
X2809889Y3569942D01*
X2813381Y3587500D01*
X2809889Y3605058D01*
X2799943Y3619943D01*
Y3620057D01*
X2809889Y3634942D01*
X2813381Y3652500D01*
X2809889Y3670058D01*
X2799943Y3684943D01*
X2785058Y3694889D01*
X2767500Y3698381D01*
D02*
G37*
G36*
X3710000Y3563381D02*
X3692442Y3559889D01*
X3677557Y3549943D01*
X3667611Y3535058D01*
X3664119Y3517500D01*
X3667611Y3499942D01*
X3677557Y3485057D01*
X3692442Y3475111D01*
X3710000Y3471618D01*
X3727558Y3475111D01*
X3742444Y3485057D01*
X3752389Y3499942D01*
X3755882Y3517500D01*
X3752389Y3535058D01*
X3742444Y3549943D01*
X3727558Y3559889D01*
X3710000Y3563381D01*
D02*
G37*
G36*
X2627500Y3568381D02*
X2609942Y3564889D01*
X2595057Y3554943D01*
X2585111Y3540058D01*
X2581618Y3522500D01*
X2583169Y3514705D01*
X2575000Y3503381D01*
X2557442Y3499889D01*
X2542557Y3489943D01*
X2532611Y3475058D01*
X2529118Y3457500D01*
X2532611Y3439942D01*
X2542557Y3425057D01*
X2557442Y3415111D01*
X2575000Y3411618D01*
X2592558Y3415111D01*
X2607443Y3425057D01*
X2617389Y3439942D01*
X2620881Y3457500D01*
X2619331Y3465294D01*
X2627500Y3476618D01*
X2645058Y3480111D01*
X2659943Y3490057D01*
X2669889Y3504942D01*
X2673381Y3522500D01*
X2669889Y3540058D01*
X2659943Y3554943D01*
X2645058Y3564889D01*
X2627500Y3568381D01*
D02*
G37*
G36*
X2272500Y3470881D02*
X2254942Y3467389D01*
X2240057Y3457443D01*
X2230111Y3442558D01*
X2226619Y3424999D01*
X2230111Y3407441D01*
X2240057Y3392556D01*
X2254942Y3382610D01*
X2272500Y3379118D01*
X2290058Y3382610D01*
X2304943Y3392556D01*
X2314889Y3407441D01*
X2318382Y3424999D01*
X2314889Y3442558D01*
X2304943Y3457443D01*
X2290058Y3467389D01*
X2272500Y3470881D01*
D02*
G37*
G36*
X652500Y3475776D02*
X629005Y3472683D01*
X607112Y3463615D01*
X588311Y3449189D01*
X573886Y3430388D01*
X564817Y3408495D01*
X561724Y3385000D01*
X564817Y3361505D01*
X573886Y3339612D01*
X588311Y3320811D01*
X607112Y3306386D01*
X629005Y3297317D01*
X652500Y3294224D01*
X675995Y3297317D01*
X697888Y3306386D01*
X716689Y3320811D01*
X731115Y3339612D01*
X740183Y3361505D01*
X743276Y3385000D01*
X740183Y3408495D01*
X731115Y3430388D01*
X716689Y3449189D01*
X697888Y3463615D01*
X675995Y3472683D01*
X652500Y3475776D01*
D02*
G37*
G36*
X252500D02*
X229005Y3472683D01*
X207112Y3463615D01*
X188311Y3449189D01*
X173885Y3430388D01*
X164817Y3408495D01*
X161724Y3385000D01*
X164817Y3361505D01*
X173885Y3339612D01*
X188311Y3320811D01*
X207112Y3306386D01*
X229005Y3297317D01*
X252500Y3294224D01*
X275995Y3297317D01*
X297888Y3306386D01*
X316688Y3320811D01*
X331114Y3339612D01*
X340183Y3361505D01*
X343276Y3385000D01*
X340183Y3408495D01*
X331114Y3430388D01*
X316688Y3449189D01*
X297888Y3463615D01*
X275995Y3472683D01*
X252500Y3475776D01*
D02*
G37*
G36*
X2527500Y3338381D02*
X2509942Y3334889D01*
X2495057Y3324943D01*
X2485111Y3310058D01*
X2481618Y3292500D01*
X2485111Y3274942D01*
X2495057Y3260057D01*
X2509942Y3250111D01*
X2527500Y3246618D01*
X2545058Y3250111D01*
X2559943Y3260057D01*
X2569889Y3274942D01*
X2573381Y3292500D01*
X2569889Y3310058D01*
X2559943Y3324943D01*
X2545058Y3334889D01*
X2527500Y3338381D01*
D02*
G37*
G36*
X3095000Y3635562D02*
X3077442Y3632070D01*
X3062557Y3622124D01*
X3052611Y3607239D01*
X3049118Y3589681D01*
X3052611Y3572123D01*
X3062557Y3557237D01*
X3077442Y3547292D01*
X3095000Y3543799D01*
X3112558Y3547292D01*
X3122801Y3554136D01*
X3127443Y3557237D01*
X3135965Y3548820D01*
X3133402Y3544984D01*
X3130111Y3540058D01*
X3126618Y3522500D01*
X3130111Y3504942D01*
X3140057Y3490057D01*
X3154942Y3480111D01*
X3163802Y3478349D01*
X3172535Y3475808D01*
X3173021Y3464552D01*
X3171618Y3457500D01*
X3175111Y3439942D01*
X3185057Y3425057D01*
X3199942Y3415111D01*
X3207894Y3400580D01*
X3206287Y3392500D01*
X3209779Y3374942D01*
X3219725Y3360057D01*
X3232970Y3351207D01*
X3228861Y3345058D01*
X3225369Y3327500D01*
X3228861Y3309942D01*
X3238807Y3295057D01*
X3253692Y3285111D01*
X3271250Y3281619D01*
X3272523Y3281872D01*
X3283323Y3271071D01*
X3281619Y3262500D01*
X3285111Y3244942D01*
X3295057Y3230057D01*
X3309942Y3220111D01*
X3327500Y3216618D01*
X3345058Y3220111D01*
X3359943Y3230057D01*
X3369889Y3244942D01*
X3373382Y3262500D01*
X3369889Y3280058D01*
X3359943Y3294943D01*
X3345058Y3304889D01*
X3327500Y3308381D01*
X3326228Y3308128D01*
X3315427Y3318929D01*
X3317132Y3327500D01*
X3313639Y3345058D01*
X3303693Y3359943D01*
X3290449Y3368793D01*
X3294558Y3374942D01*
X3298050Y3392500D01*
X3294558Y3410058D01*
X3284612Y3424943D01*
X3269727Y3434888D01*
X3261774Y3449420D01*
X3263382Y3457500D01*
X3259889Y3475058D01*
X3249943Y3489943D01*
X3235058Y3499889D01*
X3226198Y3501652D01*
X3217465Y3504193D01*
X3216979Y3515449D01*
X3218381Y3522500D01*
X3214889Y3540058D01*
X3204943Y3554943D01*
X3190058Y3564889D01*
X3172500Y3568382D01*
X3154942Y3564889D01*
X3144699Y3558045D01*
X3140057Y3554944D01*
X3131535Y3563360D01*
X3134098Y3567197D01*
X3137389Y3572123D01*
X3140881Y3589681D01*
X3137389Y3607239D01*
X3127443Y3622124D01*
X3112558Y3632070D01*
X3095000Y3635562D01*
D02*
G37*
G36*
X3785000Y3290881D02*
X3767442Y3287389D01*
X3752557Y3277443D01*
X3742611Y3262558D01*
X3739119Y3245000D01*
X3742611Y3227442D01*
X3752557Y3212557D01*
X3767442Y3202611D01*
X3785000Y3199118D01*
X3802558Y3202611D01*
X3817443Y3212557D01*
X3827389Y3227442D01*
X3830882Y3245000D01*
X3827389Y3262558D01*
X3817443Y3277443D01*
X3802558Y3287389D01*
X3785000Y3290881D01*
D02*
G37*
G36*
X2882500Y3065882D02*
X2864942Y3062390D01*
X2850057Y3052444D01*
X2840111Y3037559D01*
X2836619Y3020001D01*
X2840111Y3002443D01*
X2850057Y2987557D01*
X2864942Y2977612D01*
X2882500Y2974119D01*
X2900058Y2977612D01*
X2914944Y2987557D01*
X2924890Y3002443D01*
X2928382Y3020001D01*
X2924890Y3037559D01*
X2914944Y3052444D01*
X2900058Y3062390D01*
X2882500Y3065882D01*
D02*
G37*
G36*
X2267500Y3053382D02*
X2249942Y3049889D01*
X2235056Y3039943D01*
X2225111Y3025058D01*
X2221618Y3007500D01*
X2225111Y2989942D01*
X2235056Y2975057D01*
X2249942Y2965111D01*
X2267500Y2961619D01*
X2285058Y2965111D01*
X2299943Y2975057D01*
X2309889Y2989942D01*
X2313381Y3007500D01*
X2309889Y3025058D01*
X2299943Y3039943D01*
X2285058Y3049889D01*
X2267500Y3053382D01*
D02*
G37*
G36*
X3322500Y3040881D02*
X3304942Y3037389D01*
X3290057Y3027443D01*
X3280111Y3012558D01*
X3276619Y2995000D01*
X3280111Y2977442D01*
X3290057Y2962557D01*
X3304942Y2952611D01*
X3322500Y2949118D01*
X3340058Y2952611D01*
X3354944Y2962557D01*
X3364889Y2977442D01*
X3368382Y2995000D01*
X3364889Y3012558D01*
X3354944Y3027443D01*
X3340058Y3037389D01*
X3322500Y3040881D01*
D02*
G37*
G36*
X1415000Y2895881D02*
X1397442Y2892389D01*
X1389581Y2887136D01*
X1380000Y2883432D01*
X1370419Y2887136D01*
X1362558Y2892389D01*
X1345000Y2895881D01*
X1327442Y2892389D01*
X1319581Y2887136D01*
X1310000Y2883432D01*
X1300419Y2887136D01*
X1292558Y2892389D01*
X1275000Y2895881D01*
X1257442Y2892389D01*
X1242557Y2882443D01*
X1232611Y2867558D01*
X1229118Y2850000D01*
X1232611Y2832442D01*
X1242557Y2817557D01*
X1257442Y2807611D01*
X1275000Y2804118D01*
X1292558Y2807611D01*
X1300419Y2812863D01*
X1310000Y2816568D01*
X1319581Y2812863D01*
X1327442Y2807611D01*
X1345000Y2804118D01*
X1362558Y2807611D01*
X1370419Y2812863D01*
X1380000Y2816568D01*
X1389581Y2812863D01*
X1397442Y2807611D01*
X1415000Y2804118D01*
X1432558Y2807611D01*
X1447443Y2817557D01*
X1457389Y2832442D01*
X1460882Y2850000D01*
X1457389Y2867558D01*
X1447443Y2882443D01*
X1432558Y2892389D01*
X1415000Y2895881D01*
D02*
G37*
G36*
X2790000Y2845882D02*
X2772442Y2842389D01*
X2757557Y2832443D01*
X2747611Y2817558D01*
X2744118Y2800000D01*
X2747611Y2782442D01*
X2757557Y2767557D01*
X2772442Y2757611D01*
X2790000Y2754118D01*
X2807558Y2757611D01*
X2822443Y2767557D01*
X2832389Y2782442D01*
X2835881Y2800000D01*
X2832389Y2817558D01*
X2822443Y2832443D01*
X2807558Y2842389D01*
X2790000Y2845882D01*
D02*
G37*
G36*
X2127500Y2785882D02*
X2109942Y2782389D01*
X2095057Y2772443D01*
X2085111Y2757558D01*
X2081618Y2740000D01*
X2085111Y2722442D01*
X2095057Y2707557D01*
X2109942Y2697611D01*
X2127500Y2694119D01*
X2145058Y2697611D01*
X2159943Y2707557D01*
X2169889Y2722442D01*
X2173381Y2740000D01*
X2169889Y2757558D01*
X2159943Y2772443D01*
X2145058Y2782389D01*
X2127500Y2785882D01*
D02*
G37*
G36*
X3192500Y2710882D02*
X3174942Y2707389D01*
X3160057Y2697443D01*
X3150111Y2682558D01*
X3146619Y2665000D01*
X3150111Y2647442D01*
X3160057Y2632557D01*
Y2632443D01*
X3150111Y2617558D01*
X3146619Y2600000D01*
X3150111Y2582442D01*
X3160057Y2567557D01*
Y2567443D01*
X3150111Y2552558D01*
X3146619Y2535000D01*
X3150111Y2517442D01*
X3160057Y2502557D01*
X3174942Y2492611D01*
X3192500Y2489118D01*
X3210058Y2492611D01*
X3224943Y2502557D01*
X3225057D01*
X3239942Y2492611D01*
X3257500Y2489118D01*
X3275058Y2492611D01*
X3289943Y2502557D01*
X3299889Y2517442D01*
X3303382Y2535000D01*
X3299889Y2552558D01*
X3289943Y2567443D01*
Y2567557D01*
X3299889Y2582442D01*
X3303382Y2600000D01*
X3299889Y2617558D01*
X3289943Y2632443D01*
X3275058Y2642389D01*
X3257500Y2645882D01*
X3246495Y2643693D01*
X3236193Y2653996D01*
X3238382Y2665000D01*
X3234889Y2682558D01*
X3224943Y2697443D01*
X3210058Y2707389D01*
X3192500Y2710882D01*
D02*
G37*
G36*
X867500Y2450882D02*
X849942Y2447389D01*
X835057Y2437443D01*
X825111Y2422558D01*
X821618Y2405000D01*
X825111Y2387442D01*
X835057Y2372557D01*
X849942Y2362611D01*
X867500Y2359118D01*
X885058Y2362611D01*
X899943Y2372557D01*
X909889Y2387442D01*
X913381Y2405000D01*
X909889Y2422558D01*
X899943Y2437443D01*
X885058Y2447389D01*
X867500Y2450882D01*
D02*
G37*
G36*
X1800000Y2791051D02*
X1746648Y2786852D01*
X1694609Y2774359D01*
X1645166Y2753879D01*
X1599535Y2725916D01*
X1558840Y2691159D01*
X1524084Y2650465D01*
X1496121Y2604834D01*
X1475641Y2555391D01*
X1463148Y2503352D01*
X1458949Y2450000D01*
X1463148Y2396648D01*
X1475641Y2344609D01*
X1496121Y2295166D01*
X1524084Y2249535D01*
X1558840Y2208840D01*
X1599535Y2174084D01*
X1645166Y2146121D01*
X1694609Y2125641D01*
X1746648Y2113148D01*
X1800000Y2108949D01*
X1853352Y2113148D01*
X1905391Y2125641D01*
X1954834Y2146121D01*
X2000465Y2174084D01*
X2041159Y2208840D01*
X2075916Y2249535D01*
X2103879Y2295166D01*
X2124359Y2344609D01*
X2136852Y2396648D01*
X2141051Y2450000D01*
X2136852Y2503352D01*
X2124359Y2555391D01*
X2103879Y2604834D01*
X2075916Y2650465D01*
X2041159Y2691159D01*
X2000465Y2725916D01*
X1954834Y2753879D01*
X1905391Y2774359D01*
X1853352Y2786852D01*
X1800000Y2791051D01*
D02*
G37*
G36*
X2930000Y2067132D02*
X2912442Y2063639D01*
X2897557Y2053693D01*
X2887611Y2038808D01*
X2884119Y2021250D01*
X2887611Y2003692D01*
X2897557Y1988807D01*
X2912442Y1978861D01*
X2930000Y1975369D01*
X2947558Y1978861D01*
X2962443Y1988807D01*
X2972389Y2003692D01*
X2975882Y2021250D01*
X2972389Y2038808D01*
X2962443Y2053693D01*
X2947558Y2063639D01*
X2930000Y2067132D01*
D02*
G37*
G36*
X3180000Y1963382D02*
X3162442Y1959889D01*
X3147557Y1949943D01*
X3147443D01*
X3132558Y1959889D01*
X3115000Y1963382D01*
X3097442Y1959889D01*
X3082557Y1949943D01*
X3072611Y1935058D01*
X3069119Y1917500D01*
X3072611Y1899942D01*
X3082557Y1885057D01*
Y1882443D01*
X3072611Y1867558D01*
X3069119Y1850000D01*
X3072611Y1832442D01*
X3082557Y1817557D01*
X3097442Y1807611D01*
X3115000Y1804119D01*
X3132558Y1807611D01*
X3147443Y1817557D01*
X3157389Y1832442D01*
X3160882Y1850000D01*
X3158119Y1863888D01*
X3165605Y1872505D01*
X3168073Y1873991D01*
X3180000Y1871619D01*
X3197558Y1875111D01*
X3212443Y1885057D01*
X3222389Y1899942D01*
X3225882Y1917500D01*
X3222389Y1935058D01*
X3212443Y1949943D01*
X3197558Y1959889D01*
X3180000Y1963382D01*
D02*
G37*
G36*
X3385000Y1895882D02*
X3367442Y1892389D01*
X3352557Y1882443D01*
X3342611Y1867558D01*
X3339119Y1850000D01*
X3342611Y1832442D01*
X3352557Y1817557D01*
X3367442Y1807611D01*
X3385000Y1804119D01*
X3402558Y1807611D01*
X3417443Y1817557D01*
X3427389Y1832442D01*
X3430882Y1850000D01*
X3427389Y1867558D01*
X3417443Y1882443D01*
X3402558Y1892389D01*
X3385000Y1895882D01*
D02*
G37*
G36*
X2631193Y1807075D02*
X2613635Y1803582D01*
X2598750Y1793636D01*
X2588804Y1778751D01*
X2585312Y1761193D01*
X2588804Y1743635D01*
X2598750Y1728750D01*
X2613635Y1718804D01*
X2631193Y1715312D01*
X2648751Y1718804D01*
X2663636Y1728750D01*
X2673582Y1743635D01*
X2677075Y1761193D01*
X2673582Y1778751D01*
X2663636Y1793636D01*
X2648751Y1803582D01*
X2631193Y1807075D01*
D02*
G37*
G36*
X1997500Y1795882D02*
X1979942Y1792389D01*
X1965057Y1782443D01*
X1955111Y1767558D01*
X1951618Y1750000D01*
X1955111Y1732442D01*
X1965057Y1717557D01*
X1979942Y1707611D01*
X1997500Y1704119D01*
X2015058Y1707611D01*
X2029943Y1717557D01*
X2039889Y1732442D01*
X2043381Y1750000D01*
X2039889Y1767558D01*
X2029943Y1782443D01*
X2015058Y1792389D01*
X1997500Y1795882D01*
D02*
G37*
G36*
X1722500Y1740882D02*
X1704942Y1737389D01*
X1690057Y1727443D01*
X1680111Y1712558D01*
X1676619Y1695000D01*
X1680111Y1677442D01*
X1690057Y1662557D01*
X1704942Y1652611D01*
X1722500Y1649119D01*
X1740058Y1652611D01*
X1754943Y1662557D01*
X1764889Y1677442D01*
X1768382Y1695000D01*
X1764889Y1712558D01*
X1754943Y1727443D01*
X1740058Y1737389D01*
X1722500Y1740882D01*
D02*
G37*
G36*
X2066214Y1487732D02*
X2048656Y1484239D01*
X2033770Y1474293D01*
X2023825Y1459408D01*
X2023003Y1455278D01*
X2011054Y1454831D01*
X2010002Y1455018D01*
X2000204Y1469683D01*
X1985319Y1479628D01*
X1967761Y1483121D01*
X1950203Y1479628D01*
X1935317Y1469683D01*
X1925372Y1454797D01*
X1921879Y1437239D01*
X1925372Y1419681D01*
X1935317Y1404796D01*
X1950203Y1394850D01*
X1967761Y1391358D01*
X1985319Y1394850D01*
X2000204Y1404796D01*
X2010150Y1419681D01*
X2010971Y1423812D01*
X2022920Y1424258D01*
X2023972Y1424072D01*
X2033770Y1409407D01*
X2048656Y1399461D01*
X2066214Y1395969D01*
X2083772Y1399461D01*
X2098657Y1409407D01*
X2108603Y1424292D01*
X2112095Y1441850D01*
X2108603Y1459408D01*
X2098657Y1474293D01*
X2083772Y1484239D01*
X2066214Y1487732D01*
D02*
G37*
G36*
X3032500Y1650863D02*
X3006395Y1647426D01*
X2982068Y1637350D01*
X2961179Y1621321D01*
X2945150Y1600431D01*
X2935074Y1576105D01*
X2931637Y1550000D01*
X2935074Y1523895D01*
X2945150Y1499569D01*
X2961179Y1478679D01*
X2982068Y1462650D01*
X3006395Y1452574D01*
X3032500Y1449137D01*
X3058605Y1452574D01*
X3082931Y1462650D01*
X3103821Y1478679D01*
X3119849Y1499569D01*
X3129926Y1523895D01*
X3133363Y1550000D01*
X3129926Y1576105D01*
X3119849Y1600431D01*
X3103821Y1621321D01*
X3082931Y1637350D01*
X3058605Y1647426D01*
X3032500Y1650863D01*
D02*
G37*
G36*
X2785136Y1585957D02*
X2767578Y1582464D01*
X2752693Y1572518D01*
X2742747Y1557633D01*
X2739254Y1540075D01*
X2742747Y1522517D01*
X2750423Y1511029D01*
X2745057Y1507443D01*
X2735111Y1492558D01*
X2731618Y1475000D01*
X2735111Y1457442D01*
X2745057Y1442557D01*
X2759942Y1432611D01*
X2777500Y1429119D01*
X2795058Y1432611D01*
X2809943Y1442557D01*
X2819889Y1457442D01*
X2823381Y1475000D01*
X2819889Y1492558D01*
X2812213Y1504046D01*
X2817579Y1507632D01*
X2827525Y1522517D01*
X2831017Y1540075D01*
X2827525Y1557633D01*
X2817579Y1572518D01*
X2802694Y1582464D01*
X2785136Y1585957D01*
D02*
G37*
G36*
X1710000Y1483966D02*
X1692442Y1480473D01*
X1677557Y1470527D01*
X1667611Y1455642D01*
X1664118Y1438084D01*
X1667611Y1420526D01*
X1677557Y1405641D01*
X1692442Y1395695D01*
X1710000Y1392203D01*
X1727558Y1395695D01*
X1742443Y1405641D01*
X1752389Y1420526D01*
X1755881Y1438084D01*
X1752389Y1455642D01*
X1742443Y1470527D01*
X1727558Y1480473D01*
X1710000Y1483966D01*
D02*
G37*
G36*
X1327500Y1458382D02*
X1309942Y1454889D01*
X1295057Y1444943D01*
X1285111Y1430058D01*
X1281619Y1412500D01*
X1285111Y1394942D01*
X1295057Y1380057D01*
X1309942Y1370111D01*
X1327500Y1366619D01*
X1345058Y1370111D01*
X1359943Y1380057D01*
X1369889Y1394942D01*
X1373382Y1412500D01*
X1369889Y1430058D01*
X1359943Y1444943D01*
X1345058Y1454889D01*
X1327500Y1458382D01*
D02*
G37*
G36*
X835000D02*
X817442Y1454889D01*
X802557Y1444943D01*
X792611Y1430058D01*
X789119Y1412500D01*
X792611Y1394942D01*
X802557Y1380057D01*
X817442Y1370111D01*
X835000Y1366619D01*
X852558Y1370111D01*
X867443Y1380057D01*
X877389Y1394942D01*
X880882Y1412500D01*
X877389Y1430058D01*
X867443Y1444943D01*
X852558Y1454889D01*
X835000Y1458382D01*
D02*
G37*
G36*
X1615000Y1430401D02*
X1597442Y1426908D01*
X1582557Y1416962D01*
X1572611Y1402077D01*
X1569119Y1384519D01*
X1572611Y1366961D01*
X1582557Y1352076D01*
X1597442Y1342130D01*
X1615000Y1338638D01*
X1632558Y1342130D01*
X1647443Y1352076D01*
X1657389Y1366961D01*
X1660882Y1384519D01*
X1657389Y1402077D01*
X1647443Y1416962D01*
X1632558Y1426908D01*
X1615000Y1430401D01*
D02*
G37*
G36*
X2262500Y1365881D02*
X2244942Y1362389D01*
X2230057Y1352443D01*
X2220111Y1337558D01*
X2216618Y1320000D01*
X2220111Y1302442D01*
X2230057Y1287557D01*
X2244942Y1277611D01*
X2262500Y1274118D01*
X2280058Y1277611D01*
X2294943Y1287557D01*
X2304889Y1302442D01*
X2308381Y1320000D01*
X2304889Y1337558D01*
X2294943Y1352443D01*
X2280058Y1362389D01*
X2262500Y1365881D01*
D02*
G37*
G36*
X2485000Y1470863D02*
X2458895Y1467426D01*
X2434569Y1457350D01*
X2413679Y1441321D01*
X2397651Y1420431D01*
X2387574Y1396105D01*
X2384137Y1370000D01*
X2387574Y1343895D01*
X2397651Y1319569D01*
X2413679Y1298679D01*
X2434569Y1282650D01*
X2458895Y1272574D01*
X2485000Y1269137D01*
X2511105Y1272574D01*
X2535431Y1282650D01*
X2556321Y1298679D01*
X2572350Y1319569D01*
X2582426Y1343895D01*
X2585863Y1370000D01*
X2582426Y1396105D01*
X2572350Y1420431D01*
X2556321Y1441321D01*
X2535431Y1457350D01*
X2511105Y1467426D01*
X2485000Y1470863D01*
D02*
G37*
G36*
X3095000Y1280882D02*
X3077442Y1277389D01*
X3062557Y1267443D01*
X3052611Y1252558D01*
X3049118Y1235000D01*
X3052611Y1217442D01*
X3062557Y1202557D01*
Y1202443D01*
X3052611Y1187558D01*
X3049118Y1170000D01*
X3052611Y1152442D01*
X3062557Y1137557D01*
X3077442Y1127611D01*
X3095000Y1124119D01*
X3112558Y1127611D01*
X3127443Y1137557D01*
X3137389Y1152442D01*
X3140881Y1170000D01*
X3137389Y1187558D01*
X3127443Y1202443D01*
Y1202557D01*
X3137389Y1217442D01*
X3140881Y1235000D01*
X3137389Y1252558D01*
X3127443Y1267443D01*
X3112558Y1277389D01*
X3095000Y1280882D01*
D02*
G37*
G36*
X1477825Y1193382D02*
X1460267Y1189889D01*
X1445382Y1179943D01*
X1435436Y1165058D01*
X1431943Y1147500D01*
X1435436Y1129942D01*
X1445382Y1115057D01*
X1460267Y1105111D01*
X1477825Y1101619D01*
X1495383Y1105111D01*
X1510268Y1115057D01*
X1520214Y1129942D01*
X1523706Y1147500D01*
X1520214Y1165058D01*
X1510268Y1179943D01*
X1495383Y1189889D01*
X1477825Y1193382D01*
D02*
G37*
G36*
X2355000Y1093382D02*
X2337442Y1089889D01*
X2322557Y1079943D01*
X2312611Y1065058D01*
X2309119Y1047500D01*
X2312611Y1029942D01*
X2322557Y1015057D01*
X2337442Y1005111D01*
X2355000Y1001619D01*
X2372558Y1005111D01*
X2387444Y1015057D01*
X2397389Y1029942D01*
X2400882Y1047500D01*
X2397389Y1065058D01*
X2387444Y1079943D01*
X2372558Y1089889D01*
X2355000Y1093382D01*
D02*
G37*
G36*
X2696146Y1004736D02*
X2678588Y1001243D01*
X2663703Y991297D01*
X2653757Y976412D01*
X2650264Y958854D01*
X2653757Y941296D01*
X2663703Y926411D01*
X2678588Y916465D01*
X2696146Y912973D01*
X2713704Y916465D01*
X2728589Y926411D01*
X2738535Y941296D01*
X2742028Y958854D01*
X2738535Y976412D01*
X2728589Y991297D01*
X2713704Y1001243D01*
X2696146Y1004736D01*
D02*
G37*
G36*
X2355000Y943382D02*
X2337442Y939889D01*
X2322557Y929943D01*
X2312611Y915058D01*
X2309119Y897500D01*
X2312611Y879942D01*
X2322557Y865057D01*
X2337442Y855111D01*
X2355000Y851619D01*
X2372558Y855111D01*
X2387443Y865057D01*
X2397389Y879942D01*
X2400882Y897500D01*
X2397389Y915058D01*
X2387443Y929943D01*
X2372558Y939889D01*
X2355000Y943382D01*
D02*
G37*
G36*
X1502677Y945316D02*
X1485119Y941823D01*
X1470234Y931877D01*
X1460288Y916992D01*
X1456795Y899434D01*
X1460288Y881876D01*
X1470218Y867015D01*
X1470013Y866878D01*
X1460067Y851993D01*
X1456574Y834435D01*
X1460067Y816877D01*
X1470013Y801992D01*
X1484898Y792046D01*
X1502456Y788553D01*
X1520014Y792046D01*
X1534899Y801992D01*
X1544845Y816877D01*
X1548337Y834435D01*
X1544845Y851993D01*
X1534915Y866854D01*
X1535120Y866991D01*
X1545066Y881876D01*
X1548558Y899434D01*
X1545066Y916992D01*
X1535120Y931877D01*
X1520235Y941823D01*
X1502677Y945316D01*
D02*
G37*
G36*
X2162500Y760882D02*
X2144942Y757389D01*
X2130057Y747443D01*
X2120111Y732558D01*
X2116619Y715000D01*
X2120111Y697442D01*
X2130057Y682557D01*
X2144942Y672611D01*
X2162500Y669119D01*
X2180058Y672611D01*
X2194943Y682557D01*
X2204889Y697442D01*
X2208382Y715000D01*
X2204889Y732558D01*
X2194943Y747443D01*
X2180058Y757389D01*
X2162500Y760882D01*
D02*
G37*
G36*
X2035000Y753382D02*
X2017442Y749889D01*
X2002557Y739943D01*
X1992611Y725058D01*
X1989118Y707500D01*
X1992611Y689942D01*
X2002557Y675057D01*
X2017442Y665111D01*
X2035000Y661619D01*
X2052558Y665111D01*
X2067443Y675057D01*
X2077389Y689942D01*
X2080882Y707500D01*
X2077389Y725058D01*
X2067443Y739943D01*
X2052558Y749889D01*
X2035000Y753382D01*
D02*
G37*
G36*
X1335000Y760882D02*
X1317442Y757389D01*
X1302557Y747443D01*
X1292611Y732558D01*
X1289119Y715000D01*
X1292611Y697442D01*
X1302557Y682557D01*
X1304363Y681350D01*
Y668650D01*
X1302557Y667443D01*
X1292611Y652558D01*
X1289119Y635000D01*
X1292611Y617442D01*
X1302557Y602557D01*
X1317442Y592611D01*
X1335000Y589118D01*
X1352558Y592611D01*
X1367443Y602557D01*
X1373359Y611411D01*
X1374883Y611869D01*
X1387996Y610625D01*
X1395057Y600057D01*
X1409942Y590111D01*
X1427500Y586619D01*
X1445058Y590111D01*
X1459943Y600057D01*
X1469889Y614942D01*
X1473382Y632500D01*
X1469889Y650058D01*
X1459943Y664944D01*
X1445058Y674889D01*
X1427500Y678382D01*
X1409942Y674889D01*
X1395057Y664944D01*
X1389141Y656090D01*
X1387617Y655632D01*
X1374504Y656876D01*
X1367443Y667443D01*
X1365637Y668650D01*
Y681350D01*
X1367443Y682557D01*
X1377389Y697442D01*
X1380882Y715000D01*
X1377389Y732558D01*
X1367443Y747443D01*
X1352558Y757389D01*
X1335000Y760882D01*
D02*
G37*
G36*
X1760000Y598382D02*
X1742442Y594889D01*
X1727557Y584943D01*
X1717611Y570058D01*
X1714119Y552500D01*
X1717611Y534942D01*
X1727557Y520057D01*
X1742442Y510111D01*
X1760000Y506619D01*
X1777558Y510111D01*
X1792443Y520057D01*
X1802389Y534942D01*
X1805882Y552500D01*
X1802389Y570058D01*
X1792443Y584943D01*
X1777558Y594889D01*
X1760000Y598382D01*
D02*
G37*
G36*
X1960000Y598382D02*
X1942442Y594889D01*
X1927557Y584943D01*
X1917611Y570058D01*
X1914119Y552500D01*
X1917611Y534942D01*
X1927557Y520057D01*
X1942442Y510111D01*
X1960000Y506618D01*
X1977558Y510111D01*
X1992444Y520057D01*
X2002389Y534942D01*
X2005882Y552500D01*
X2002389Y570058D01*
X1992444Y584943D01*
X1977558Y594889D01*
X1960000Y598382D01*
D02*
G37*
G36*
X2100000Y583382D02*
X2082442Y579889D01*
X2067557Y569943D01*
X2057611Y555058D01*
X2054119Y537500D01*
X2057611Y519942D01*
X2067557Y505057D01*
X2082442Y495111D01*
X2100000Y491619D01*
X2117558Y495111D01*
X2132443Y505057D01*
X2142389Y519942D01*
X2145882Y537500D01*
X2142389Y555058D01*
X2132443Y569943D01*
X2117558Y579889D01*
X2100000Y583382D01*
D02*
G37*
G36*
X2422500Y643381D02*
X2404942Y639889D01*
X2390057Y629943D01*
X2380111Y615058D01*
X2376619Y597500D01*
X2380111Y579942D01*
X2390057Y565057D01*
Y564943D01*
X2380111Y550058D01*
X2376619Y532500D01*
X2380111Y514942D01*
X2390057Y500057D01*
X2404942Y490111D01*
X2422500Y486619D01*
X2440058Y490111D01*
X2454944Y500057D01*
X2464889Y514942D01*
X2468382Y532500D01*
X2464889Y550058D01*
X2454944Y564943D01*
Y565057D01*
X2464889Y579942D01*
X2468382Y597500D01*
X2464889Y615058D01*
X2454944Y629943D01*
X2440058Y639889D01*
X2422500Y643381D01*
D02*
G37*
G36*
X1417500Y525882D02*
X1399942Y522389D01*
X1385057Y512443D01*
X1375111Y497558D01*
X1371618Y480000D01*
X1375111Y462442D01*
X1385057Y447557D01*
X1399942Y437611D01*
X1417500Y434119D01*
X1435058Y437611D01*
X1449943Y447557D01*
X1459889Y462442D01*
X1463381Y480000D01*
X1459889Y497558D01*
X1449943Y512443D01*
X1435058Y522389D01*
X1417500Y525882D01*
D02*
G37*
G36*
X1772441Y490467D02*
X1754883Y486975D01*
X1739998Y477029D01*
X1730052Y462144D01*
X1726559Y444586D01*
X1726825Y443250D01*
X1710026Y439908D01*
X1695141Y429963D01*
X1685195Y415077D01*
X1681703Y397519D01*
X1685195Y379961D01*
X1695141Y365076D01*
X1710026Y355130D01*
X1727584Y351638D01*
X1745142Y355130D01*
X1760027Y365076D01*
X1769973Y379961D01*
X1773466Y397519D01*
X1773200Y398855D01*
X1789999Y402197D01*
X1804884Y412143D01*
X1814830Y427028D01*
X1818323Y444586D01*
X1814830Y462144D01*
X1804884Y477029D01*
X1789999Y486975D01*
X1772441Y490467D01*
D02*
G37*
G36*
X1960000Y390882D02*
X1942442Y387389D01*
X1927557Y377443D01*
X1917611Y362558D01*
X1914118Y345000D01*
X1917611Y327442D01*
X1927557Y312557D01*
X1942442Y302611D01*
X1960000Y299119D01*
X1977558Y302611D01*
X1992443Y312557D01*
X2002389Y327442D01*
X2005881Y345000D01*
X2002389Y362558D01*
X1992443Y377443D01*
X1977558Y387389D01*
X1960000Y390882D01*
D02*
G37*
G36*
X910000Y315882D02*
X892442Y312389D01*
X877557Y302443D01*
X867611Y287558D01*
X864118Y270000D01*
X867611Y252442D01*
X877557Y237557D01*
X892442Y227611D01*
X910000Y224118D01*
X927558Y227611D01*
X942443Y237557D01*
X952389Y252442D01*
X955881Y270000D01*
X952389Y287558D01*
X942443Y302443D01*
X927558Y312389D01*
X910000Y315882D01*
D02*
G37*
G36*
X1190000Y315881D02*
X1172442Y312389D01*
X1157556Y302443D01*
X1147611Y287558D01*
X1144118Y270000D01*
X1147611Y252442D01*
X1157556Y237557D01*
X1172442Y227611D01*
X1190000Y224118D01*
X1207558Y227611D01*
X1222443Y237557D01*
X1232389Y252442D01*
X1235881Y270000D01*
X1232389Y287558D01*
X1222443Y302443D01*
X1207558Y312389D01*
X1190000Y315881D01*
D02*
G37*
G36*
X2032500Y175881D02*
X2014942Y172389D01*
X2000057Y162443D01*
X1990111Y147558D01*
X1986619Y130000D01*
X1990111Y112442D01*
X2000057Y97557D01*
X2014942Y87611D01*
X2032500Y84118D01*
X2050058Y87611D01*
X2064944Y97557D01*
X2074889Y112442D01*
X2078382Y130000D01*
X2074889Y147558D01*
X2064944Y162443D01*
X2050058Y172389D01*
X2032500Y175881D01*
D02*
G37*
%LPD*%
D56*
X3074761Y5446174D02*
Y5450935D01*
X3079522Y5460456D01*
X3084283Y5465217D01*
X3093804Y5469978D01*
X3112848D01*
X3122370Y5465217D01*
X3127131Y5460456D01*
X3131891Y5450935D01*
Y5441413D01*
X3127131Y5431891D01*
X3117609Y5417609D01*
X3070000Y5370000D01*
X3136652D01*
D65*
X652500Y3385000D02*
D03*
X252500D02*
D03*
D66*
X390008Y4160019D02*
D03*
Y4575004D02*
D03*
D67*
X3310000Y3920000D02*
D03*
X3010000D02*
D03*
X2710000D02*
D03*
X3610000D02*
D03*
X3032500Y1550000D02*
D03*
X2485000Y1370000D02*
D03*
D68*
X3550000Y5250000D02*
D03*
X350000D02*
D03*
X1800000Y2450000D02*
D03*
X350000Y350000D02*
D03*
D69*
X867500Y2405000D02*
D03*
X835000Y1412500D02*
D03*
X2357500Y502500D02*
D03*
Y625000D02*
D03*
X1722500Y1695000D02*
D03*
X2422500Y532500D02*
D03*
Y597500D02*
D03*
X3095000Y1235000D02*
D03*
Y1170000D02*
D03*
X1866500Y792500D02*
D03*
Y904000D02*
D03*
Y1041000D02*
D03*
Y1152500D02*
D03*
X2003500Y792500D02*
D03*
Y904000D02*
D03*
Y1041000D02*
D03*
Y1152500D02*
D03*
X1755000Y904000D02*
D03*
Y1041000D02*
D03*
X2115000Y904000D02*
D03*
Y1041000D02*
D03*
X1920000Y4732500D02*
D03*
X1970000Y4682500D02*
D03*
X1870000Y4682499D02*
D03*
X1870000Y4782499D02*
D03*
X1970000Y4782500D02*
D03*
X2075000Y4372500D02*
D03*
Y4440000D02*
D03*
Y4507500D02*
D03*
Y4575000D02*
D03*
X2777500Y1475000D02*
D03*
X1765001Y5397499D02*
D03*
X152500Y2555000D02*
D03*
X655000Y2935000D02*
D03*
X402500D02*
D03*
X827500Y2787500D02*
D03*
X1000000Y2935000D02*
D03*
X1275000Y2850000D02*
D03*
X627500Y2555000D02*
D03*
X457500Y1675000D02*
D03*
X462500Y2720000D02*
D03*
X330000Y900000D02*
D03*
X332500Y1897500D02*
D03*
X2272500Y3424999D02*
D03*
X2930000Y2021250D02*
D03*
X627500Y1807500D02*
D03*
X152500D02*
D03*
X762500Y1990000D02*
D03*
Y995000D02*
D03*
X627500Y807500D02*
D03*
X152500D02*
D03*
X627500Y1555000D02*
D03*
X152500Y1555000D02*
D03*
X1415000Y2850000D02*
D03*
X1345000D02*
D03*
X3252169Y3392500D02*
D03*
X3271250Y3327500D02*
D03*
X3327500Y3262500D02*
D03*
X3042500Y3100000D02*
D03*
X3217500Y3457500D02*
D03*
X3172500Y3522500D02*
D03*
X3095000Y3589681D02*
D03*
X2790000Y2710000D02*
D03*
X2631193Y1761193D02*
D03*
X2785136Y1540075D02*
D03*
X2152500Y1515000D02*
D03*
X2882500Y3020001D02*
D03*
X2527500Y3292500D02*
D03*
X2575000Y3457500D02*
D03*
X2767500Y3652500D02*
D03*
Y3587500D02*
D03*
X2627500Y3522500D02*
D03*
X3192500Y2665000D02*
D03*
X3257500Y2600000D02*
D03*
X3322500Y2995000D02*
D03*
X3562500D02*
D03*
X2162500Y715000D02*
D03*
X2100000Y537500D02*
D03*
X2035000Y707500D02*
D03*
X2790000Y2800000D02*
D03*
X1335000Y715000D02*
D03*
X2696146Y958854D02*
D03*
X2695000Y1050000D02*
D03*
X2262500Y1320000D02*
D03*
X3582500Y3652500D02*
D03*
X3785000Y3245000D02*
D03*
X3785000Y3345000D02*
D03*
X3710000Y3517500D02*
D03*
X3710000Y3075000D02*
D03*
X2892500Y1850000D02*
D03*
X3257500Y2535000D02*
D03*
X3192500Y2600000D02*
D03*
Y2535000D02*
D03*
X3385000Y450000D02*
D03*
Y750000D02*
D03*
X3115000Y450000D02*
D03*
X3385000Y1050000D02*
D03*
X3115000Y750000D02*
D03*
X2282500Y350000D02*
D03*
X2032500Y130000D02*
D03*
X1727584Y397519D02*
D03*
X1732500Y142500D02*
D03*
X1772441Y444586D02*
D03*
X1760000Y552500D02*
D03*
X1615000Y1384519D02*
D03*
X1997500Y1750000D02*
D03*
X1715000Y1605000D02*
D03*
X2267500Y3007500D02*
D03*
X2202500Y2585000D02*
D03*
X2127500Y2740000D02*
D03*
X1190000Y270000D02*
D03*
X1017500Y805000D02*
D03*
X897500Y562500D02*
D03*
X910000Y270000D02*
D03*
X1205000Y382500D02*
D03*
X1552500Y487500D02*
D03*
X1335000Y635000D02*
D03*
X1427500Y632500D02*
D03*
X3089999Y2097501D02*
D03*
X3180000Y1917500D02*
D03*
X3115000Y1850000D02*
D03*
Y1917500D02*
D03*
X3385000Y1850000D02*
D03*
X1502456Y834435D02*
D03*
X1502677Y899434D02*
D03*
X2010000Y390000D02*
D03*
X1960000Y345000D02*
D03*
X1327500Y480000D02*
D03*
X1477825Y1147500D02*
D03*
X1305000Y857500D02*
D03*
X1685000Y715000D02*
D03*
X1467500Y1645000D02*
D03*
X1327500Y1412500D02*
D03*
X2066214Y1441850D02*
D03*
X1967761Y1437239D02*
D03*
X3385000Y1350000D02*
D03*
X3115000D02*
D03*
Y1050000D02*
D03*
X1940000Y2997500D02*
D03*
Y2932500D02*
D03*
Y3062500D02*
D03*
X1955000Y3735000D02*
D03*
Y3670000D02*
D03*
Y3605000D02*
D03*
Y3540000D02*
D03*
X2355000Y1047500D02*
D03*
X2355000Y897500D02*
D03*
X1710000Y1438084D02*
D03*
X1960000Y552500D02*
D03*
X1814000Y5027499D02*
D03*
X1765001Y5257500D02*
D03*
X960000Y4157500D02*
D03*
Y4082500D02*
D03*
Y4232500D02*
D03*
X1127500Y3495000D02*
D03*
Y3320000D02*
D03*
X1127500Y3405000D02*
D03*
X402500Y3715000D02*
D03*
X1417500Y480000D02*
D03*
X795000Y5320000D02*
D03*
X725000Y5425000D02*
D03*
X975000Y5320000D02*
D03*
X915000D02*
D03*
X855000D02*
D03*
X3177500Y2335001D02*
D03*
X3022500Y2327501D02*
D03*
X1385000Y4287500D02*
D03*
X1640000Y4334999D02*
D03*
X1762500Y4192500D02*
D03*
X1740000Y5104999D02*
D03*
X1590000Y4810000D02*
D03*
%TF.MD5,0f96d2e8174488ed96b3578e7612d98a*%
M02*
