%TF.GenerationSoftware,Altium Limited,Altium Designer,20.1.12 (249)*%
G04 Layer_Physical_Order=3*
G04 Layer_Color=16440176*
%FSLAX45Y45*%
%MOMM*%
%TF.SameCoordinates,4EE8302A-A9A8-49E0-93C5-14594FCB678D*%
%TF.FilePolarity,Positive*%
%TF.FileFunction,Copper,L3,Inr,Signal*%
%TF.Part,Single*%
G01*
G75*
%TA.AperFunction,NonConductor*%
%ADD56C,0.20000*%
%TA.AperFunction,Conductor*%
%ADD58C,0.50000*%
%TA.AperFunction,ComponentPad*%
%ADD65C,1.40000*%
%ADD66C,0.70000*%
%ADD67C,1.60000*%
%TA.AperFunction,WasherPad*%
%ADD68C,3.00000*%
%TA.AperFunction,ViaPad*%
%ADD69C,0.50000*%
%TA.AperFunction,Conductor*%
%ADD70C,0.12500*%
G36*
X1194999Y3959999D02*
X3007500Y2147500D01*
X3060972Y2147500D01*
X3064824Y2134800D01*
X3057556Y2129944D01*
X3047610Y2115059D01*
X3044118Y2097501D01*
X3047610Y2079942D01*
X3057556Y2065057D01*
X3072441Y2055111D01*
X3089999Y2051619D01*
X3107557Y2055111D01*
X3122443Y2065057D01*
X3132388Y2079942D01*
X3135881Y2097501D01*
X3132388Y2115059D01*
X3122443Y2129944D01*
X3115175Y2134800D01*
X3119027Y2147500D01*
X3177500Y2147500D01*
X3442500Y1882500D01*
X3442500Y1822500D01*
X3420000Y1799999D01*
X3297500Y1800000D01*
X2921527D01*
X2917674Y1812700D01*
X2924943Y1817557D01*
X2934889Y1832442D01*
X2938381Y1850000D01*
X2934889Y1867558D01*
X2924943Y1882443D01*
X2910058Y1892389D01*
X2892500Y1895882D01*
X2874942Y1892389D01*
X2860057Y1882443D01*
X2850111Y1867558D01*
X2846618Y1850000D01*
X2850111Y1832442D01*
X2860057Y1817557D01*
X2867326Y1812700D01*
X2863473Y1800000D01*
X2654112D01*
X2648751Y1803582D01*
X2631193Y1807075D01*
X2613635Y1803582D01*
X2608274Y1800000D01*
X1230000D01*
Y434028D01*
X1217300Y425935D01*
X1205000Y428382D01*
X1187442Y424889D01*
X1172557Y414943D01*
X1162611Y400058D01*
X1159118Y382500D01*
X1162611Y364942D01*
X1172557Y350057D01*
X1187442Y340111D01*
X1205000Y336619D01*
X1217300Y339065D01*
X1230000Y330972D01*
Y50979D01*
X536154D01*
X532707Y63202D01*
X550465Y74084D01*
X591160Y108841D01*
X625916Y149535D01*
X653879Y195166D01*
X674359Y244609D01*
X686852Y296648D01*
X691051Y350000D01*
X686852Y403352D01*
X674359Y455391D01*
X653879Y504834D01*
X625916Y550465D01*
X591160Y591160D01*
X550465Y625916D01*
X504834Y653879D01*
X455391Y674359D01*
X403352Y686852D01*
X350000Y691051D01*
X296648Y686852D01*
X244609Y674359D01*
X195166Y653879D01*
X149535Y625916D01*
X108841Y591160D01*
X74084Y550465D01*
X63202Y532707D01*
X50978Y536154D01*
X50976Y5063850D01*
X63199Y5067297D01*
X74084Y5049535D01*
X108841Y5008840D01*
X149535Y4974084D01*
X195166Y4946121D01*
X244609Y4925641D01*
X296648Y4913148D01*
X350000Y4908949D01*
X403352Y4913148D01*
X455391Y4925641D01*
X504834Y4946121D01*
X550465Y4974084D01*
X591160Y5008840D01*
X625916Y5049535D01*
X653879Y5095166D01*
X674359Y5144609D01*
X686852Y5196648D01*
X691051Y5250000D01*
X686852Y5303352D01*
X674359Y5355391D01*
X653879Y5404834D01*
X625916Y5450465D01*
X591160Y5491159D01*
X550465Y5525916D01*
X532707Y5536798D01*
X536154Y5549022D01*
X1195000D01*
X1194999Y3959999D01*
D02*
G37*
G36*
X3367293Y5536798D02*
X3349535Y5525916D01*
X3308840Y5491159D01*
X3274084Y5450465D01*
X3246121Y5404834D01*
X3225641Y5355391D01*
X3213148Y5303352D01*
X3208949Y5250000D01*
X3213148Y5196648D01*
X3225641Y5144609D01*
X3246121Y5095166D01*
X3274084Y5049535D01*
X3308840Y5008840D01*
X3349535Y4974084D01*
X3395166Y4946121D01*
X3444609Y4925641D01*
X3496648Y4913148D01*
X3550000Y4908949D01*
X3603352Y4913148D01*
X3655391Y4925641D01*
X3704834Y4946121D01*
X3750465Y4974084D01*
X3791160Y5008840D01*
X3825916Y5049535D01*
X3836796Y5067289D01*
X3849019Y5063842D01*
X3849020Y3757891D01*
X3523446Y3757892D01*
X3477892Y3803446D01*
X3477892Y3980000D01*
X3476340Y3987803D01*
X3471919Y3994419D01*
X3405562Y4060777D01*
X3398946Y4065197D01*
X3391142Y4066749D01*
X3233859Y4066750D01*
X3233858Y4066750D01*
X3226055Y4065198D01*
X3219439Y4060778D01*
X3219438Y4060777D01*
X3153081Y3994420D01*
X3148661Y3987804D01*
X3147109Y3980001D01*
X3147107Y3798446D01*
X3106554Y3757892D01*
X2772501Y3757892D01*
X2772500Y3757892D01*
X2764697Y3756340D01*
X2758081Y3751919D01*
X2721122Y3714960D01*
X2719457Y3712468D01*
X2717557Y3710154D01*
X2717263Y3709186D01*
X2716701Y3708344D01*
X2716117Y3705407D01*
X2715762Y3704238D01*
X2714594Y3703883D01*
X2711655Y3703299D01*
X2710814Y3702737D01*
X2709846Y3702443D01*
X2707532Y3700543D01*
X2705040Y3698878D01*
X2599138Y3592976D01*
X2598576Y3592135D01*
X2597794Y3591493D01*
X2596381Y3588851D01*
X2594717Y3586361D01*
X2594520Y3585369D01*
X2594043Y3584476D01*
X2593749Y3581493D01*
X2593165Y3578557D01*
X2593362Y3577565D01*
X2593263Y3576558D01*
X2594133Y3573691D01*
X2594717Y3570753D01*
X2595280Y3569912D01*
X2595573Y3568944D01*
X2600952Y3558882D01*
X2595057Y3554943D01*
X2585111Y3540058D01*
X2581618Y3522500D01*
X2583169Y3514705D01*
X2575000Y3503381D01*
X2558838Y3500167D01*
X2558814Y3500227D01*
X2556694Y3502346D01*
X2554794Y3504661D01*
X2544930Y3512756D01*
X2542289Y3514168D01*
X2539797Y3515833D01*
X2538804Y3516030D01*
X2537913Y3516507D01*
X2534931Y3516801D01*
X2531993Y3517385D01*
X2531002Y3517188D01*
X2529994Y3517287D01*
X2527127Y3516417D01*
X2524190Y3515833D01*
X2523349Y3515271D01*
X2522381Y3514977D01*
X2520066Y3513077D01*
X2517574Y3511413D01*
X2095000Y3088839D01*
X2086540Y3097298D01*
X1215391Y3968446D01*
X1215392Y5549022D01*
X3363846D01*
X3367293Y5536798D01*
D02*
G37*
G36*
X3391142Y4046357D02*
X3457500Y3980000D01*
X3457500Y3794999D01*
X3515000Y3737500D01*
X3849020Y3737500D01*
X3849022Y50978D01*
X1263092Y50979D01*
X1250392Y50979D01*
Y330972D01*
X1249958Y333156D01*
X1249909Y335384D01*
X1249189Y337022D01*
X1248840Y338776D01*
X1247602Y340628D01*
X1246705Y342667D01*
X1245414Y343904D01*
X1244420Y345391D01*
X1243078Y358491D01*
X1247389Y364942D01*
X1250881Y382500D01*
X1247389Y400058D01*
X1243078Y406509D01*
X1244420Y419609D01*
X1245414Y421097D01*
X1246705Y422334D01*
X1247602Y424372D01*
X1248840Y426224D01*
X1249189Y427979D01*
X1249909Y429617D01*
X1249957Y431844D01*
X1250392Y434028D01*
Y833323D01*
X1262156Y839370D01*
X1263092Y839222D01*
X1272557Y825057D01*
X1287442Y815111D01*
X1305000Y811619D01*
X1322558Y815111D01*
X1337443Y825057D01*
X1347389Y839942D01*
X1350882Y857500D01*
X1347389Y875058D01*
X1337443Y889943D01*
X1322558Y899889D01*
X1305000Y903382D01*
X1287442Y899889D01*
X1272557Y889943D01*
X1263092Y875778D01*
X1262156Y875630D01*
X1250392Y881677D01*
Y1779608D01*
X2576026D01*
X2586448Y1766908D01*
X2585312Y1761193D01*
X2588804Y1743635D01*
X2598750Y1728750D01*
X2613635Y1718804D01*
X2631193Y1715312D01*
X2648751Y1718804D01*
X2663636Y1728750D01*
X2673582Y1743635D01*
X2677075Y1761193D01*
X2675938Y1766908D01*
X2686361Y1779608D01*
X2863473D01*
X2864465Y1779805D01*
X2865472Y1779706D01*
X2868339Y1780576D01*
X2871277Y1781160D01*
X2872117Y1781722D01*
X2873086Y1782016D01*
X2875402Y1783916D01*
X2877892Y1785581D01*
X2878454Y1786422D01*
X2879236Y1787063D01*
X2880648Y1789705D01*
X2882313Y1792196D01*
X2882510Y1793188D01*
X2882987Y1794080D01*
X2886400Y1805332D01*
X2892500Y1804119D01*
X2898600Y1805332D01*
X2902013Y1794080D01*
X2902490Y1793188D01*
X2902687Y1792196D01*
X2904352Y1789705D01*
X2905764Y1787063D01*
X2906545Y1786422D01*
X2907107Y1785581D01*
X2909598Y1783916D01*
X2911914Y1782016D01*
X2912882Y1781722D01*
X2913723Y1781160D01*
X2916661Y1780576D01*
X2919528Y1779706D01*
X2920535Y1779805D01*
X2921527Y1779608D01*
X3297500D01*
X3420000Y1779608D01*
X3427803Y1781160D01*
X3434419Y1785580D01*
X3434419Y1785581D01*
X3456919Y1808080D01*
X3461339Y1814696D01*
X3462891Y1822499D01*
X3462892Y1882499D01*
X3462892Y1882500D01*
X3461340Y1890304D01*
X3456919Y1896919D01*
X3191919Y2161919D01*
X3185304Y2166339D01*
X3177500Y2167892D01*
X3119027Y2167892D01*
X3118035Y2167694D01*
X3117028Y2167794D01*
X3114160Y2166924D01*
X3111224Y2166340D01*
X3110383Y2165778D01*
X3109414Y2165484D01*
X3107098Y2163583D01*
X3104608Y2161919D01*
X3104046Y2161078D01*
X3103264Y2160436D01*
X3101852Y2157795D01*
X3100188Y2155304D01*
X3099990Y2154311D01*
X3099513Y2153419D01*
X3096101Y2142168D01*
X3089999Y2143382D01*
X3083899Y2142168D01*
X3080486Y2153419D01*
X3080009Y2154311D01*
X3079812Y2155304D01*
X3078147Y2157795D01*
X3076735Y2160437D01*
X3075953Y2161078D01*
X3075391Y2161919D01*
X3072900Y2163584D01*
X3070585Y2165484D01*
X3069617Y2165778D01*
X3068776Y2166340D01*
X3065838Y2166924D01*
X3062971Y2167794D01*
X3061964Y2167695D01*
X3060972Y2167892D01*
X3015947Y2167892D01*
X2109419Y3074419D01*
X2531993Y3496993D01*
X2541858Y3488898D01*
X2532611Y3475058D01*
X2529118Y3457500D01*
X2532611Y3439942D01*
X2542557Y3425057D01*
X2557442Y3415111D01*
X2575000Y3411618D01*
X2592558Y3415111D01*
X2607443Y3425057D01*
X2617389Y3439942D01*
X2620881Y3457500D01*
X2619331Y3465294D01*
X2627500Y3476618D01*
X2645058Y3480111D01*
X2659943Y3490057D01*
X2669889Y3504942D01*
X2673381Y3522500D01*
X2669889Y3540058D01*
X2659943Y3554943D01*
X2645058Y3564889D01*
X2627500Y3568381D01*
X2619813Y3566852D01*
X2613557Y3578557D01*
X2719459Y3684459D01*
X2729324Y3676363D01*
X2725111Y3670058D01*
X2721618Y3652500D01*
X2725111Y3634942D01*
X2735057Y3620057D01*
Y3619943D01*
X2725111Y3605058D01*
X2721618Y3587500D01*
X2725111Y3569942D01*
X2735057Y3555057D01*
X2749942Y3545111D01*
X2767500Y3541618D01*
X2785058Y3545111D01*
X2799943Y3555057D01*
X2809889Y3569942D01*
X2813381Y3587500D01*
X2809889Y3605058D01*
X2799943Y3619943D01*
Y3620057D01*
X2809889Y3634942D01*
X2813381Y3652500D01*
X2809889Y3670058D01*
X2799943Y3684943D01*
X2785058Y3694889D01*
X2767500Y3698381D01*
X2749942Y3694889D01*
X2743637Y3690676D01*
X2735541Y3700541D01*
X2772500Y3737500D01*
X3115001Y3737500D01*
X3167499Y3789999D01*
X3167500Y3980000D01*
X3233858Y4046358D01*
X3391142Y4046357D01*
D02*
G37*
%LPC*%
G36*
X390008Y4631081D02*
X368548Y4626812D01*
X350356Y4614657D01*
X338200Y4596464D01*
X333931Y4575004D01*
X338200Y4553544D01*
X350356Y4535351D01*
X368548Y4523195D01*
X390008Y4518926D01*
X411468Y4523195D01*
X429661Y4535351D01*
X441817Y4553544D01*
X446086Y4575004D01*
X441817Y4596464D01*
X429661Y4614657D01*
X411468Y4626812D01*
X390008Y4631081D01*
D02*
G37*
G36*
Y4216096D02*
X368548Y4211827D01*
X350356Y4199671D01*
X338200Y4181479D01*
X333931Y4160019D01*
X338200Y4138559D01*
X350356Y4120366D01*
X368548Y4108210D01*
X390008Y4103941D01*
X411468Y4108210D01*
X429661Y4120366D01*
X441817Y4138559D01*
X446086Y4160019D01*
X441817Y4181479D01*
X429661Y4199671D01*
X411468Y4211827D01*
X390008Y4216096D01*
D02*
G37*
G36*
X960000Y4278382D02*
X942442Y4274889D01*
X927557Y4264943D01*
X917611Y4250058D01*
X914119Y4232500D01*
X917611Y4214942D01*
X927557Y4200057D01*
Y4189943D01*
X917611Y4175058D01*
X914119Y4157500D01*
X917611Y4139942D01*
X927557Y4125057D01*
Y4114943D01*
X917611Y4100058D01*
X914119Y4082500D01*
X917611Y4064942D01*
X927557Y4050057D01*
X942442Y4040111D01*
X960000Y4036619D01*
X977558Y4040111D01*
X992443Y4050057D01*
X1002389Y4064942D01*
X1005882Y4082500D01*
X1002389Y4100058D01*
X992443Y4114943D01*
Y4125057D01*
X1002389Y4139942D01*
X1005882Y4157500D01*
X1002389Y4175058D01*
X992443Y4189943D01*
Y4200057D01*
X1002389Y4214942D01*
X1005882Y4232500D01*
X1002389Y4250058D01*
X992443Y4264943D01*
X977558Y4274889D01*
X960000Y4278382D01*
D02*
G37*
G36*
X402500Y3760882D02*
X384942Y3757389D01*
X370057Y3747443D01*
X360111Y3732558D01*
X356618Y3715000D01*
X360111Y3697442D01*
X370057Y3682557D01*
X384942Y3672611D01*
X402500Y3669119D01*
X420058Y3672611D01*
X434943Y3682557D01*
X444889Y3697442D01*
X448381Y3715000D01*
X444889Y3732558D01*
X434943Y3747443D01*
X420058Y3757389D01*
X402500Y3760882D01*
D02*
G37*
G36*
X652500Y3475776D02*
X629005Y3472683D01*
X607112Y3463615D01*
X588311Y3449189D01*
X573886Y3430388D01*
X564817Y3408495D01*
X561724Y3385000D01*
X564817Y3361505D01*
X573886Y3339612D01*
X588311Y3320811D01*
X607112Y3306386D01*
X629005Y3297317D01*
X652500Y3294224D01*
X675995Y3297317D01*
X697888Y3306386D01*
X716689Y3320811D01*
X731115Y3339612D01*
X740183Y3361505D01*
X743276Y3385000D01*
X740183Y3408495D01*
X731115Y3430388D01*
X716689Y3449189D01*
X697888Y3463615D01*
X675995Y3472683D01*
X652500Y3475776D01*
D02*
G37*
G36*
X252500D02*
X229005Y3472683D01*
X207112Y3463615D01*
X188311Y3449189D01*
X173885Y3430388D01*
X164817Y3408495D01*
X161724Y3385000D01*
X164817Y3361505D01*
X173885Y3339612D01*
X188311Y3320811D01*
X207112Y3306386D01*
X229005Y3297317D01*
X252500Y3294224D01*
X275995Y3297317D01*
X297888Y3306386D01*
X316688Y3320811D01*
X331114Y3339612D01*
X340183Y3361505D01*
X343276Y3385000D01*
X340183Y3408495D01*
X331114Y3430388D01*
X316688Y3449189D01*
X297888Y3463615D01*
X275995Y3472683D01*
X252500Y3475776D01*
D02*
G37*
G36*
X1127500Y3540882D02*
X1109942Y3537389D01*
X1095057Y3527443D01*
X1085111Y3512558D01*
X1081618Y3495000D01*
X1085111Y3477442D01*
X1095057Y3462557D01*
X1102420Y3457637D01*
Y3442363D01*
X1095057Y3437443D01*
X1085111Y3422558D01*
X1081619Y3405000D01*
X1085111Y3387442D01*
X1095057Y3372557D01*
X1098679Y3370138D01*
Y3354863D01*
X1095057Y3352443D01*
X1085111Y3337558D01*
X1081618Y3320000D01*
X1085111Y3302442D01*
X1095057Y3287557D01*
X1109942Y3277611D01*
X1127500Y3274118D01*
X1145058Y3277611D01*
X1159943Y3287557D01*
X1169889Y3302442D01*
X1173381Y3320000D01*
X1169889Y3337558D01*
X1159943Y3352443D01*
X1156322Y3354863D01*
Y3370137D01*
X1159944Y3372557D01*
X1169889Y3387442D01*
X1173382Y3405000D01*
X1169889Y3422558D01*
X1159944Y3437443D01*
X1152581Y3442363D01*
Y3457637D01*
X1159943Y3462557D01*
X1169889Y3477442D01*
X1173381Y3495000D01*
X1169889Y3512558D01*
X1159943Y3527443D01*
X1145058Y3537389D01*
X1127500Y3540882D01*
D02*
G37*
G36*
X1000000Y2980882D02*
X982442Y2977389D01*
X967557Y2967443D01*
X957611Y2952558D01*
X954118Y2935000D01*
X957611Y2917442D01*
X967557Y2902557D01*
X982442Y2892611D01*
X1000000Y2889119D01*
X1017558Y2892611D01*
X1032443Y2902557D01*
X1042389Y2917442D01*
X1045881Y2935000D01*
X1042389Y2952558D01*
X1032443Y2967443D01*
X1017558Y2977389D01*
X1000000Y2980882D01*
D02*
G37*
G36*
X655000D02*
X637442Y2977389D01*
X622557Y2967443D01*
X612611Y2952558D01*
X609119Y2935000D01*
X612611Y2917442D01*
X622557Y2902557D01*
X637442Y2892611D01*
X655000Y2889119D01*
X672558Y2892611D01*
X687443Y2902557D01*
X697389Y2917442D01*
X700882Y2935000D01*
X697389Y2952558D01*
X687443Y2967443D01*
X672558Y2977389D01*
X655000Y2980882D01*
D02*
G37*
G36*
X402500D02*
X384942Y2977389D01*
X370057Y2967443D01*
X360111Y2952558D01*
X356618Y2935000D01*
X360111Y2917442D01*
X370057Y2902557D01*
X384942Y2892611D01*
X402500Y2889119D01*
X420058Y2892611D01*
X434943Y2902557D01*
X444889Y2917442D01*
X448381Y2935000D01*
X444889Y2952558D01*
X434943Y2967443D01*
X420058Y2977389D01*
X402500Y2980882D01*
D02*
G37*
G36*
X1940000Y3108382D02*
X1922442Y3104889D01*
X1907557Y3094943D01*
X1897611Y3080058D01*
X1894118Y3062500D01*
X1897611Y3044942D01*
X1907557Y3030057D01*
Y3029943D01*
X1897611Y3015058D01*
X1894118Y2997500D01*
X1897611Y2979942D01*
X1907557Y2965057D01*
Y2964943D01*
X1897611Y2950058D01*
X1894118Y2932500D01*
X1897611Y2914942D01*
X1907557Y2900057D01*
X1922442Y2890111D01*
X1940000Y2886618D01*
X1957558Y2890111D01*
X1972443Y2900057D01*
X1982389Y2914942D01*
X1985881Y2932500D01*
X1982389Y2950058D01*
X1972443Y2964943D01*
Y2965057D01*
X1982389Y2979942D01*
X1985881Y2997500D01*
X1982389Y3015058D01*
X1972443Y3029943D01*
Y3030057D01*
X1982389Y3044942D01*
X1985881Y3062500D01*
X1982389Y3080058D01*
X1972443Y3094943D01*
X1957558Y3104889D01*
X1940000Y3108382D01*
D02*
G37*
G36*
X1415000Y2895881D02*
X1397442Y2892389D01*
X1389581Y2887136D01*
X1380000Y2883432D01*
X1370419Y2887136D01*
X1362558Y2892389D01*
X1345000Y2895881D01*
X1327442Y2892389D01*
X1319581Y2887136D01*
X1310000Y2883432D01*
X1300419Y2887136D01*
X1292558Y2892389D01*
X1275000Y2895881D01*
X1257442Y2892389D01*
X1242557Y2882443D01*
X1232611Y2867558D01*
X1229118Y2850000D01*
X1232611Y2832442D01*
X1242557Y2817557D01*
X1257442Y2807611D01*
X1275000Y2804118D01*
X1292558Y2807611D01*
X1300419Y2812863D01*
X1310000Y2816568D01*
X1319581Y2812863D01*
X1327442Y2807611D01*
X1345000Y2804118D01*
X1362558Y2807611D01*
X1370419Y2812863D01*
X1380000Y2816568D01*
X1389581Y2812863D01*
X1397442Y2807611D01*
X1415000Y2804118D01*
X1432558Y2807611D01*
X1447443Y2817557D01*
X1457389Y2832442D01*
X1460882Y2850000D01*
X1457389Y2867558D01*
X1447443Y2882443D01*
X1432558Y2892389D01*
X1415000Y2895881D01*
D02*
G37*
G36*
X827500Y2833381D02*
X809942Y2829889D01*
X795057Y2819943D01*
X785111Y2805058D01*
X781618Y2787500D01*
X785111Y2769942D01*
X795057Y2755057D01*
X809942Y2745111D01*
X827500Y2741618D01*
X845058Y2745111D01*
X859943Y2755057D01*
X869889Y2769942D01*
X873382Y2787500D01*
X869889Y2805058D01*
X859943Y2819943D01*
X845058Y2829889D01*
X827500Y2833381D01*
D02*
G37*
G36*
X462500Y2765882D02*
X444942Y2762389D01*
X430057Y2752443D01*
X420111Y2737558D01*
X416618Y2720000D01*
X420111Y2702442D01*
X430057Y2687557D01*
X444942Y2677611D01*
X462500Y2674119D01*
X480058Y2677611D01*
X494943Y2687557D01*
X504889Y2702442D01*
X508381Y2720000D01*
X504889Y2737558D01*
X494943Y2752443D01*
X480058Y2762389D01*
X462500Y2765882D01*
D02*
G37*
G36*
X2202500Y2630881D02*
X2184942Y2627389D01*
X2170057Y2617443D01*
X2160111Y2602558D01*
X2156618Y2585000D01*
X2160111Y2567442D01*
X2170057Y2552557D01*
X2184942Y2542611D01*
X2202500Y2539118D01*
X2220058Y2542611D01*
X2234943Y2552557D01*
X2244889Y2567442D01*
X2248381Y2585000D01*
X2244889Y2602558D01*
X2234943Y2617443D01*
X2220058Y2627389D01*
X2202500Y2630881D01*
D02*
G37*
G36*
X627500Y2600882D02*
X609942Y2597389D01*
X595057Y2587443D01*
X585111Y2572558D01*
X581618Y2555000D01*
X585111Y2537442D01*
X595057Y2522557D01*
X609942Y2512611D01*
X627500Y2509119D01*
X645058Y2512611D01*
X659943Y2522557D01*
X669889Y2537442D01*
X673381Y2555000D01*
X669889Y2572558D01*
X659943Y2587443D01*
X645058Y2597389D01*
X627500Y2600882D01*
D02*
G37*
G36*
X152500D02*
X134942Y2597389D01*
X120057Y2587443D01*
X110111Y2572558D01*
X106619Y2555000D01*
X110111Y2537442D01*
X120057Y2522557D01*
X134942Y2512611D01*
X152500Y2509119D01*
X170058Y2512611D01*
X184943Y2522557D01*
X194889Y2537442D01*
X198382Y2555000D01*
X194889Y2572558D01*
X184943Y2587443D01*
X170058Y2597389D01*
X152500Y2600882D01*
D02*
G37*
G36*
X867500Y2450882D02*
X849942Y2447389D01*
X835057Y2437443D01*
X825111Y2422558D01*
X821618Y2405000D01*
X825111Y2387442D01*
X835057Y2372557D01*
X849942Y2362611D01*
X867500Y2359118D01*
X885058Y2362611D01*
X899943Y2372557D01*
X909889Y2387442D01*
X913381Y2405000D01*
X909889Y2422558D01*
X899943Y2437443D01*
X885058Y2447389D01*
X867500Y2450882D01*
D02*
G37*
G36*
X1800000Y2791051D02*
X1746648Y2786852D01*
X1694609Y2774359D01*
X1645166Y2753879D01*
X1599535Y2725916D01*
X1558840Y2691159D01*
X1524084Y2650465D01*
X1496121Y2604834D01*
X1475641Y2555391D01*
X1463148Y2503352D01*
X1458949Y2450000D01*
X1463148Y2396648D01*
X1475641Y2344609D01*
X1496121Y2295166D01*
X1524084Y2249535D01*
X1558840Y2208840D01*
X1599535Y2174084D01*
X1645166Y2146121D01*
X1694609Y2125641D01*
X1746648Y2113148D01*
X1800000Y2108949D01*
X1853352Y2113148D01*
X1905391Y2125641D01*
X1954834Y2146121D01*
X2000465Y2174084D01*
X2041159Y2208840D01*
X2075916Y2249535D01*
X2103879Y2295166D01*
X2124359Y2344609D01*
X2136852Y2396648D01*
X2141051Y2450000D01*
X2136852Y2503352D01*
X2124359Y2555391D01*
X2103879Y2604834D01*
X2075916Y2650465D01*
X2041159Y2691159D01*
X2000465Y2725916D01*
X1954834Y2753879D01*
X1905391Y2774359D01*
X1853352Y2786852D01*
X1800000Y2791051D01*
D02*
G37*
G36*
X762500Y2035882D02*
X744942Y2032389D01*
X730057Y2022443D01*
X720111Y2007558D01*
X716619Y1990000D01*
X720111Y1972442D01*
X730057Y1957557D01*
X744942Y1947611D01*
X762500Y1944119D01*
X780058Y1947611D01*
X794943Y1957557D01*
X804889Y1972442D01*
X808382Y1990000D01*
X804889Y2007558D01*
X794943Y2022443D01*
X780058Y2032389D01*
X762500Y2035882D01*
D02*
G37*
G36*
X332500Y1943381D02*
X314942Y1939889D01*
X300057Y1929943D01*
X290111Y1915058D01*
X286618Y1897500D01*
X290111Y1879942D01*
X300057Y1865057D01*
X314942Y1855111D01*
X332500Y1851618D01*
X350058Y1855111D01*
X364943Y1865057D01*
X374889Y1879942D01*
X378382Y1897500D01*
X374889Y1915058D01*
X364943Y1929943D01*
X350058Y1939889D01*
X332500Y1943381D01*
D02*
G37*
G36*
X627500Y1853382D02*
X609942Y1849889D01*
X595057Y1839943D01*
X585111Y1825058D01*
X581618Y1807500D01*
X585111Y1789942D01*
X595057Y1775057D01*
X609942Y1765111D01*
X627500Y1761619D01*
X645058Y1765111D01*
X659943Y1775057D01*
X669889Y1789942D01*
X673381Y1807500D01*
X669889Y1825058D01*
X659943Y1839943D01*
X645058Y1849889D01*
X627500Y1853382D01*
D02*
G37*
G36*
X152500D02*
X134942Y1849889D01*
X120057Y1839943D01*
X110111Y1825058D01*
X106619Y1807500D01*
X110111Y1789942D01*
X120057Y1775057D01*
X134942Y1765111D01*
X152500Y1761619D01*
X170058Y1765111D01*
X184943Y1775057D01*
X194889Y1789942D01*
X198382Y1807500D01*
X194889Y1825058D01*
X184943Y1839943D01*
X170058Y1849889D01*
X152500Y1853382D01*
D02*
G37*
G36*
X457500Y1720881D02*
X439942Y1717389D01*
X425057Y1707443D01*
X415111Y1692558D01*
X411618Y1675000D01*
X415111Y1657442D01*
X425057Y1642557D01*
X439942Y1632611D01*
X457500Y1629118D01*
X475058Y1632611D01*
X489943Y1642557D01*
X499889Y1657442D01*
X503382Y1675000D01*
X499889Y1692558D01*
X489943Y1707443D01*
X475058Y1717389D01*
X457500Y1720881D01*
D02*
G37*
G36*
X152500Y1600882D02*
X134942Y1597389D01*
X120057Y1587443D01*
X110111Y1572558D01*
X106619Y1555000D01*
X110111Y1537442D01*
X120057Y1522557D01*
X134942Y1512611D01*
X152500Y1509119D01*
X170058Y1512611D01*
X184943Y1522557D01*
X194889Y1537442D01*
X198382Y1555000D01*
X194889Y1572558D01*
X184943Y1587443D01*
X170058Y1597389D01*
X152500Y1600882D01*
D02*
G37*
G36*
X627500Y1600881D02*
X609942Y1597389D01*
X595057Y1587443D01*
X585111Y1572558D01*
X581618Y1555000D01*
X585111Y1537442D01*
X595057Y1522557D01*
X609942Y1512611D01*
X627500Y1509118D01*
X645058Y1512611D01*
X659943Y1522557D01*
X669889Y1537442D01*
X673381Y1555000D01*
X669889Y1572558D01*
X659943Y1587443D01*
X645058Y1597389D01*
X627500Y1600881D01*
D02*
G37*
G36*
X835000Y1458382D02*
X817442Y1454889D01*
X802557Y1444943D01*
X792611Y1430058D01*
X789119Y1412500D01*
X792611Y1394942D01*
X802557Y1380057D01*
X817442Y1370111D01*
X835000Y1366619D01*
X852558Y1370111D01*
X867443Y1380057D01*
X877389Y1394942D01*
X880882Y1412500D01*
X877389Y1430058D01*
X867443Y1444943D01*
X852558Y1454889D01*
X835000Y1458382D01*
D02*
G37*
G36*
X762500Y1040882D02*
X744942Y1037389D01*
X730057Y1027443D01*
X720111Y1012558D01*
X716619Y995000D01*
X720111Y977442D01*
X730057Y962557D01*
X744942Y952611D01*
X762500Y949118D01*
X780058Y952611D01*
X794943Y962557D01*
X804889Y977442D01*
X808382Y995000D01*
X804889Y1012558D01*
X794943Y1027443D01*
X780058Y1037389D01*
X762500Y1040882D01*
D02*
G37*
G36*
X330000Y945881D02*
X312442Y942389D01*
X297557Y932443D01*
X287611Y917558D01*
X284118Y900000D01*
X287611Y882442D01*
X297557Y867557D01*
X312442Y857611D01*
X330000Y854118D01*
X347558Y857611D01*
X362443Y867557D01*
X372389Y882442D01*
X375881Y900000D01*
X372389Y917558D01*
X362443Y932443D01*
X347558Y942389D01*
X330000Y945881D01*
D02*
G37*
G36*
X627500Y853382D02*
X609942Y849889D01*
X595057Y839943D01*
X585111Y825058D01*
X581618Y807500D01*
X585111Y789942D01*
X595057Y775057D01*
X609942Y765111D01*
X627500Y761618D01*
X645058Y765111D01*
X659943Y775057D01*
X669889Y789942D01*
X673381Y807500D01*
X669889Y825058D01*
X659943Y839943D01*
X645058Y849889D01*
X627500Y853382D01*
D02*
G37*
G36*
X152500D02*
X134942Y849889D01*
X120057Y839943D01*
X110111Y825058D01*
X106619Y807500D01*
X110111Y789942D01*
X120057Y775057D01*
X134942Y765111D01*
X152500Y761618D01*
X170058Y765111D01*
X184943Y775057D01*
X194889Y789942D01*
X198382Y807500D01*
X194889Y825058D01*
X184943Y839943D01*
X170058Y849889D01*
X152500Y853382D01*
D02*
G37*
G36*
X1017500Y850881D02*
X999942Y847389D01*
X985057Y837443D01*
X975111Y822558D01*
X971619Y805000D01*
X975111Y787442D01*
X985057Y772557D01*
X999942Y762611D01*
X1017500Y759118D01*
X1035058Y762611D01*
X1049943Y772557D01*
X1059889Y787442D01*
X1063382Y805000D01*
X1059889Y822558D01*
X1049943Y837443D01*
X1035058Y847389D01*
X1017500Y850881D01*
D02*
G37*
G36*
X897500Y608382D02*
X879942Y604889D01*
X865057Y594943D01*
X855111Y580058D01*
X851619Y562500D01*
X855111Y544942D01*
X865057Y530057D01*
X879942Y520111D01*
X897500Y516618D01*
X915058Y520111D01*
X929943Y530057D01*
X939889Y544942D01*
X943382Y562500D01*
X939889Y580058D01*
X929943Y594943D01*
X915058Y604889D01*
X897500Y608382D01*
D02*
G37*
G36*
X3176652Y5509978D02*
X3030000D01*
Y5330000D01*
X3176652D01*
Y5509978D01*
D02*
G37*
G36*
X1762500Y4238381D02*
X1744942Y4234889D01*
X1730057Y4224943D01*
X1720111Y4210058D01*
X1716619Y4192500D01*
X1720111Y4174942D01*
X1730057Y4160056D01*
X1744942Y4150111D01*
X1762500Y4146618D01*
X1780058Y4150111D01*
X1794943Y4160056D01*
X1804889Y4174942D01*
X1808382Y4192500D01*
X1804889Y4210058D01*
X1794943Y4224943D01*
X1780058Y4234889D01*
X1762500Y4238381D01*
D02*
G37*
G36*
X3619999Y4024993D02*
Y3930000D01*
X3714993D01*
X3712687Y3947515D01*
X3702067Y3973155D01*
X3685172Y3995172D01*
X3663154Y4012067D01*
X3637515Y4022687D01*
X3619999Y4024993D01*
D02*
G37*
G36*
X3599999D02*
X3582485Y4022687D01*
X3556845Y4012067D01*
X3534828Y3995172D01*
X3517933Y3973155D01*
X3507313Y3947515D01*
X3505007Y3930000D01*
X3599999D01*
Y4024993D01*
D02*
G37*
G36*
X3010000Y4020863D02*
X2983895Y4017426D01*
X2959569Y4007350D01*
X2938679Y3991321D01*
X2922650Y3970431D01*
X2912574Y3946105D01*
X2909137Y3920000D01*
X2912574Y3893895D01*
X2922650Y3869569D01*
X2938679Y3848679D01*
X2959569Y3832650D01*
X2983895Y3822574D01*
X3010000Y3819137D01*
X3036105Y3822574D01*
X3060431Y3832650D01*
X3081321Y3848679D01*
X3097350Y3869569D01*
X3107426Y3893895D01*
X3110863Y3920000D01*
X3107426Y3946105D01*
X3097350Y3970431D01*
X3081321Y3991321D01*
X3060431Y4007350D01*
X3036105Y4017426D01*
X3010000Y4020863D01*
D02*
G37*
G36*
X2710000D02*
X2683895Y4017426D01*
X2659569Y4007350D01*
X2638679Y3991321D01*
X2622650Y3970431D01*
X2612574Y3946105D01*
X2609137Y3920000D01*
X2612574Y3893895D01*
X2622650Y3869569D01*
X2638679Y3848679D01*
X2659569Y3832650D01*
X2683895Y3822574D01*
X2710000Y3819137D01*
X2736105Y3822574D01*
X2760431Y3832650D01*
X2781321Y3848679D01*
X2797349Y3869569D01*
X2807426Y3893895D01*
X2810863Y3920000D01*
X2807426Y3946105D01*
X2797349Y3970431D01*
X2781321Y3991321D01*
X2760431Y4007350D01*
X2736105Y4017426D01*
X2710000Y4020863D01*
D02*
G37*
G36*
X3599999Y3910000D02*
X3505007D01*
X3507313Y3892485D01*
X3517933Y3866845D01*
X3534828Y3844828D01*
X3556845Y3827933D01*
X3582485Y3817313D01*
X3599999Y3815007D01*
Y3910000D01*
D02*
G37*
G36*
X3714993D02*
X3619999D01*
Y3815007D01*
X3637515Y3817313D01*
X3663154Y3827933D01*
X3685172Y3844828D01*
X3702067Y3866845D01*
X3712687Y3892485D01*
X3714993Y3910000D01*
D02*
G37*
G36*
X2272500Y3470881D02*
X2254942Y3467389D01*
X2240057Y3457443D01*
X2230111Y3442558D01*
X2226619Y3424999D01*
X2230111Y3407441D01*
X2240057Y3392556D01*
X2254942Y3382610D01*
X2272500Y3379118D01*
X2290058Y3382610D01*
X2304943Y3392556D01*
X2314889Y3407441D01*
X2318382Y3424999D01*
X2314889Y3442558D01*
X2304943Y3457443D01*
X2290058Y3467389D01*
X2272500Y3470881D01*
D02*
G37*
G36*
X3320000Y4024993D02*
Y3930001D01*
X3414993D01*
X3412687Y3947515D01*
X3402067Y3973155D01*
X3385172Y3995172D01*
X3363155Y4012067D01*
X3337515Y4022687D01*
X3320000Y4024993D01*
D02*
G37*
G36*
X3300000D02*
X3282485Y4022687D01*
X3256845Y4012067D01*
X3234828Y3995172D01*
X3217933Y3973155D01*
X3207313Y3947515D01*
X3205007Y3930001D01*
X3300000D01*
Y4024993D01*
D02*
G37*
G36*
Y3910001D02*
X3205007D01*
X3207313Y3892485D01*
X3217933Y3866845D01*
X3234828Y3844828D01*
X3256845Y3827933D01*
X3282485Y3817313D01*
X3300000Y3815007D01*
Y3910001D01*
D02*
G37*
G36*
X3414993D02*
X3320000D01*
Y3815007D01*
X3337515Y3817313D01*
X3363155Y3827933D01*
X3385172Y3844828D01*
X3402067Y3866845D01*
X3412687Y3892485D01*
X3414993Y3910001D01*
D02*
G37*
G36*
X3582500Y3698381D02*
X3564942Y3694889D01*
X3550057Y3684943D01*
X3540111Y3670058D01*
X3536619Y3652500D01*
X3540111Y3634942D01*
X3550057Y3620057D01*
X3564942Y3610111D01*
X3582500Y3606618D01*
X3600058Y3610111D01*
X3614943Y3620057D01*
X3624889Y3634942D01*
X3628382Y3652500D01*
X3624889Y3670058D01*
X3614943Y3684943D01*
X3600058Y3694889D01*
X3582500Y3698381D01*
D02*
G37*
G36*
X3785000Y3390881D02*
X3767442Y3387389D01*
X3752557Y3377443D01*
X3742611Y3362558D01*
X3739119Y3345000D01*
X3742611Y3327442D01*
X3752557Y3312556D01*
X3767442Y3302611D01*
X3785000Y3299118D01*
X3802558Y3302611D01*
X3817443Y3312556D01*
X3827389Y3327442D01*
X3830882Y3345000D01*
X3827389Y3362558D01*
X3817443Y3377443D01*
X3802558Y3387389D01*
X3785000Y3390881D01*
D02*
G37*
G36*
X3095000Y3635562D02*
X3077442Y3632070D01*
X3062557Y3622124D01*
X3052611Y3607239D01*
X3049118Y3589681D01*
X3052611Y3572123D01*
X3062557Y3557237D01*
X3077442Y3547292D01*
X3095000Y3543799D01*
X3112558Y3547292D01*
X3122801Y3554136D01*
X3127443Y3557237D01*
X3135965Y3548820D01*
X3133402Y3544984D01*
X3130111Y3540058D01*
X3126618Y3522500D01*
X3130111Y3504942D01*
X3140057Y3490057D01*
X3154942Y3480111D01*
X3163802Y3478349D01*
X3172535Y3475808D01*
X3173021Y3464552D01*
X3171618Y3457500D01*
X3175111Y3439942D01*
X3185057Y3425057D01*
X3199942Y3415111D01*
X3207894Y3400580D01*
X3206287Y3392500D01*
X3209779Y3374942D01*
X3219725Y3360057D01*
X3232970Y3351207D01*
X3228861Y3345058D01*
X3225369Y3327500D01*
X3228861Y3309942D01*
X3238807Y3295057D01*
X3253692Y3285111D01*
X3271250Y3281619D01*
X3272523Y3281872D01*
X3283323Y3271071D01*
X3281619Y3262500D01*
X3285111Y3244942D01*
X3295057Y3230057D01*
X3309942Y3220111D01*
X3327500Y3216618D01*
X3345058Y3220111D01*
X3359943Y3230057D01*
X3369889Y3244942D01*
X3373382Y3262500D01*
X3369889Y3280058D01*
X3359943Y3294943D01*
X3345058Y3304889D01*
X3327500Y3308381D01*
X3326228Y3308128D01*
X3315427Y3318929D01*
X3317132Y3327500D01*
X3313639Y3345058D01*
X3303693Y3359943D01*
X3290449Y3368793D01*
X3294558Y3374942D01*
X3298050Y3392500D01*
X3294558Y3410058D01*
X3284612Y3424943D01*
X3269727Y3434888D01*
X3261774Y3449420D01*
X3263382Y3457500D01*
X3259889Y3475058D01*
X3249943Y3489943D01*
X3235058Y3499889D01*
X3226198Y3501652D01*
X3217465Y3504193D01*
X3216979Y3515449D01*
X3218381Y3522500D01*
X3214889Y3540058D01*
X3204943Y3554943D01*
X3190058Y3564889D01*
X3172500Y3568382D01*
X3154942Y3564889D01*
X3144699Y3558045D01*
X3140057Y3554944D01*
X3131535Y3563360D01*
X3134098Y3567197D01*
X3137389Y3572123D01*
X3140881Y3589681D01*
X3137389Y3607239D01*
X3127443Y3622124D01*
X3112558Y3632070D01*
X3095000Y3635562D01*
D02*
G37*
G36*
X3042500Y3145881D02*
X3024942Y3142389D01*
X3010057Y3132443D01*
X3000111Y3117558D01*
X2996619Y3100000D01*
X3000111Y3082442D01*
X3010057Y3067557D01*
X3024942Y3057611D01*
X3042500Y3054118D01*
X3060058Y3057611D01*
X3074944Y3067557D01*
X3084889Y3082442D01*
X3088382Y3100000D01*
X3084889Y3117558D01*
X3074944Y3132443D01*
X3060058Y3142389D01*
X3042500Y3145881D01*
D02*
G37*
G36*
X3710000Y3120881D02*
X3692442Y3117389D01*
X3677557Y3107443D01*
X3667611Y3092558D01*
X3664119Y3075000D01*
X3667611Y3057442D01*
X3677557Y3042557D01*
X3692442Y3032611D01*
X3710000Y3029118D01*
X3727558Y3032611D01*
X3742443Y3042557D01*
X3752389Y3057442D01*
X3755882Y3075000D01*
X3752389Y3092558D01*
X3742443Y3107443D01*
X3727558Y3117389D01*
X3710000Y3120881D01*
D02*
G37*
G36*
X3562500Y3040881D02*
X3544942Y3037389D01*
X3530057Y3027443D01*
X3520111Y3012558D01*
X3516619Y2995000D01*
X3520111Y2977442D01*
X3530057Y2962557D01*
X3544942Y2952611D01*
X3562500Y2949118D01*
X3580058Y2952611D01*
X3594944Y2962557D01*
X3604889Y2977442D01*
X3608382Y2995000D01*
X3604889Y3012558D01*
X3594944Y3027443D01*
X3580058Y3037389D01*
X3562500Y3040881D01*
D02*
G37*
G36*
X2790000Y2755882D02*
X2772442Y2752389D01*
X2757557Y2742443D01*
X2747611Y2727558D01*
X2744118Y2710000D01*
X2747611Y2692442D01*
X2757557Y2677557D01*
X2772442Y2667611D01*
X2790000Y2664119D01*
X2807558Y2667611D01*
X2822443Y2677557D01*
X2832389Y2692442D01*
X2835882Y2710000D01*
X2832389Y2727558D01*
X2822443Y2742443D01*
X2807558Y2752389D01*
X2790000Y2755882D01*
D02*
G37*
G36*
X3177500Y2380882D02*
X3159942Y2377390D01*
X3145057Y2367444D01*
X3135111Y2352559D01*
X3131619Y2335001D01*
X3135111Y2317443D01*
X3145057Y2302557D01*
X3159942Y2292612D01*
X3177500Y2289119D01*
X3195058Y2292612D01*
X3209944Y2302557D01*
X3219889Y2317443D01*
X3223382Y2335001D01*
X3219889Y2352559D01*
X3209944Y2367444D01*
X3195058Y2377390D01*
X3177500Y2380882D01*
D02*
G37*
G36*
X3022500Y2373382D02*
X3004942Y2369890D01*
X2990057Y2359944D01*
X2980111Y2345059D01*
X2976619Y2327501D01*
X2980111Y2309943D01*
X2990057Y2295057D01*
X3004942Y2285112D01*
X3022500Y2281619D01*
X3040058Y2285112D01*
X3054943Y2295057D01*
X3064889Y2309943D01*
X3068382Y2327501D01*
X3064889Y2345059D01*
X3054943Y2359944D01*
X3040058Y2369890D01*
X3022500Y2373382D01*
D02*
G37*
G36*
X1467500Y1690882D02*
X1449942Y1687389D01*
X1435057Y1677443D01*
X1425111Y1662558D01*
X1421619Y1645000D01*
X1425111Y1627442D01*
X1435057Y1612557D01*
X1449942Y1602611D01*
X1467500Y1599119D01*
X1485058Y1602611D01*
X1499944Y1612557D01*
X1509890Y1627442D01*
X1513382Y1645000D01*
X1509890Y1662558D01*
X1499944Y1677443D01*
X1485058Y1687389D01*
X1467500Y1690882D01*
D02*
G37*
G36*
X2152500Y1560882D02*
X2134942Y1557389D01*
X2120057Y1547443D01*
X2110111Y1532558D01*
X2106618Y1515000D01*
X2110111Y1497442D01*
X2120057Y1482557D01*
X2134942Y1472611D01*
X2152500Y1469118D01*
X2170058Y1472611D01*
X2184943Y1482557D01*
X2194889Y1497442D01*
X2198381Y1515000D01*
X2194889Y1532558D01*
X2184943Y1547443D01*
X2170058Y1557389D01*
X2152500Y1560882D01*
D02*
G37*
G36*
X2785136Y1585957D02*
X2767578Y1582464D01*
X2752693Y1572518D01*
X2742747Y1557633D01*
X2739254Y1540075D01*
X2742747Y1522517D01*
X2750423Y1511029D01*
X2745057Y1507443D01*
X2735111Y1492558D01*
X2731618Y1475000D01*
X2735111Y1457442D01*
X2745057Y1442557D01*
X2759942Y1432611D01*
X2777500Y1429119D01*
X2795058Y1432611D01*
X2809943Y1442557D01*
X2819889Y1457442D01*
X2823381Y1475000D01*
X2819889Y1492558D01*
X2812213Y1504046D01*
X2817579Y1507632D01*
X2827525Y1522517D01*
X2831017Y1540075D01*
X2827525Y1557633D01*
X2817579Y1572518D01*
X2802694Y1582464D01*
X2785136Y1585957D01*
D02*
G37*
G36*
X2262500Y1365881D02*
X2244942Y1362389D01*
X2230057Y1352443D01*
X2220111Y1337558D01*
X2216618Y1320000D01*
X2220111Y1302442D01*
X2230057Y1287557D01*
X2244942Y1277611D01*
X2262500Y1274118D01*
X2280058Y1277611D01*
X2294943Y1287557D01*
X2304889Y1302442D01*
X2308381Y1320000D01*
X2304889Y1337558D01*
X2294943Y1352443D01*
X2280058Y1362389D01*
X2262500Y1365881D01*
D02*
G37*
G36*
X2485000Y1470863D02*
X2458895Y1467426D01*
X2434569Y1457350D01*
X2413679Y1441321D01*
X2397651Y1420431D01*
X2387574Y1396105D01*
X2384137Y1370000D01*
X2387574Y1343895D01*
X2397651Y1319569D01*
X2413679Y1298679D01*
X2434569Y1282650D01*
X2458895Y1272574D01*
X2485000Y1269137D01*
X2511105Y1272574D01*
X2535431Y1282650D01*
X2556321Y1298679D01*
X2572350Y1319569D01*
X2582426Y1343895D01*
X2585863Y1370000D01*
X2582426Y1396105D01*
X2572350Y1420431D01*
X2556321Y1441321D01*
X2535431Y1457350D01*
X2511105Y1467426D01*
X2485000Y1470863D01*
D02*
G37*
G36*
X1715000Y1650882D02*
X1697442Y1647389D01*
X1682556Y1637444D01*
X1672611Y1622558D01*
X1669118Y1605000D01*
X1672611Y1587442D01*
X1682556Y1572557D01*
X1688506Y1568582D01*
X1684654Y1555882D01*
X1625000D01*
X1607442Y1552389D01*
X1592557Y1542443D01*
X1445382Y1395268D01*
X1435436Y1380383D01*
X1431943Y1362825D01*
Y1147500D01*
X1435436Y1129942D01*
X1445382Y1115057D01*
X1460267Y1105111D01*
X1477825Y1101619D01*
X1495383Y1105111D01*
X1510268Y1115057D01*
X1520214Y1129942D01*
X1523706Y1147500D01*
Y1343820D01*
X1556419Y1376532D01*
X1569119Y1371272D01*
Y904005D01*
X1560752Y895638D01*
X1553748Y897819D01*
X1548231Y901078D01*
X1545066Y916992D01*
X1535120Y931877D01*
X1520235Y941823D01*
X1502677Y945316D01*
X1485119Y941823D01*
X1470234Y931877D01*
X1460288Y916992D01*
X1456795Y899434D01*
X1460288Y881876D01*
X1470218Y867015D01*
X1470013Y866878D01*
X1460067Y851993D01*
X1456574Y834435D01*
X1460067Y816877D01*
X1470013Y801992D01*
X1484898Y792046D01*
X1502456Y788553D01*
X1564435D01*
X1581993Y792046D01*
X1596878Y801992D01*
X1647443Y852557D01*
X1657389Y867442D01*
X1660882Y885000D01*
Y1384519D01*
X1657389Y1402077D01*
X1647443Y1416962D01*
X1632558Y1426908D01*
X1626050Y1428203D01*
X1621870Y1441983D01*
X1644005Y1464118D01*
X1659163D01*
X1666771Y1451418D01*
X1664118Y1438084D01*
X1667611Y1420526D01*
X1677557Y1405641D01*
X1692442Y1395695D01*
X1710000Y1392203D01*
X1727558Y1395695D01*
X1742443Y1405641D01*
X1752389Y1420526D01*
X1755881Y1438084D01*
X1753229Y1451418D01*
X1760837Y1464118D01*
X1875995D01*
X1935317Y1404796D01*
X1941908Y1400392D01*
X1943665Y1384188D01*
X1902557Y1343080D01*
X1892611Y1328195D01*
X1889118Y1310637D01*
Y1205619D01*
X1876418Y1196409D01*
X1866500Y1198381D01*
X1848942Y1194889D01*
X1834057Y1184943D01*
X1824111Y1170058D01*
X1820619Y1152500D01*
X1824111Y1134942D01*
X1834057Y1120057D01*
X1848942Y1110111D01*
X1866500Y1106618D01*
X1870579Y1107430D01*
X1882064Y1098252D01*
Y1095248D01*
X1870579Y1086070D01*
X1866500Y1086881D01*
X1848942Y1083389D01*
X1834057Y1073443D01*
X1824111Y1058558D01*
X1820619Y1041000D01*
X1824111Y1023442D01*
X1834057Y1008557D01*
X1848942Y998611D01*
X1866500Y995118D01*
X1876418Y997091D01*
X1889118Y987880D01*
Y957119D01*
X1876418Y947909D01*
X1866500Y949882D01*
X1848942Y946389D01*
X1834057Y936443D01*
X1824111Y921558D01*
X1820619Y904000D01*
X1824111Y886442D01*
X1834057Y871557D01*
X1848942Y861611D01*
X1866500Y858118D01*
X1870579Y858930D01*
X1882064Y849752D01*
Y846748D01*
X1870579Y837570D01*
X1866500Y838382D01*
X1848942Y834889D01*
X1834057Y824943D01*
X1824111Y810058D01*
X1820619Y792500D01*
X1824111Y774942D01*
X1834057Y760057D01*
X1848942Y750111D01*
X1866500Y746619D01*
X1876418Y748591D01*
X1889118Y739381D01*
Y577500D01*
X1892611Y559942D01*
X1902557Y545057D01*
X1927557Y520057D01*
X1942442Y510111D01*
X1960000Y506618D01*
X1977559Y510111D01*
X1992444Y520057D01*
X1999734Y530967D01*
X2014248Y534414D01*
X2027378Y521283D01*
X2028615Y520457D01*
X2029611Y519352D01*
X2031894Y518266D01*
X2033994Y516863D01*
X2035453Y516573D01*
X2036796Y515933D01*
X2039320Y515803D01*
X2041798Y515310D01*
X2043257Y515600D01*
X2044742Y515524D01*
X2048620Y516090D01*
X2051586Y517143D01*
X2054628Y517946D01*
X2057882Y519536D01*
X2067557Y505057D01*
X2082036Y495382D01*
X2080446Y492128D01*
X2079643Y489086D01*
X2078590Y486120D01*
X2078024Y482242D01*
X2078100Y480757D01*
X2077810Y479298D01*
X2078303Y476819D01*
X2078433Y474296D01*
X2079073Y472953D01*
X2079363Y471494D01*
X2080766Y469394D01*
X2081852Y467112D01*
X2082957Y466115D01*
X2083783Y464879D01*
X2243081Y305581D01*
X2249696Y301160D01*
X2257500Y299608D01*
X3327500Y299608D01*
X3335304Y301161D01*
X3341920Y305581D01*
X3341920Y305582D01*
X3454419Y418080D01*
X3458839Y424696D01*
X3460391Y432500D01*
X3460392Y1362499D01*
X3460392Y1362500D01*
X3458839Y1370304D01*
X3454419Y1376920D01*
X3454418Y1376920D01*
X3391919Y1439418D01*
X3391918Y1439419D01*
X3385303Y1443839D01*
X3377499Y1445391D01*
X3074452Y1445392D01*
X3071926Y1458092D01*
X3082931Y1462650D01*
X3103821Y1478679D01*
X3119849Y1499569D01*
X3129926Y1523895D01*
X3133363Y1550000D01*
X3129926Y1576105D01*
X3119849Y1600431D01*
X3103821Y1621321D01*
X3082931Y1637350D01*
X3058605Y1647426D01*
X3032500Y1650863D01*
X3006395Y1647426D01*
X2982068Y1637350D01*
X2961179Y1621321D01*
X2945150Y1600431D01*
X2935074Y1576105D01*
X2931637Y1550000D01*
X2935074Y1523895D01*
X2945150Y1499569D01*
X2961179Y1478679D01*
X2982068Y1462650D01*
X2993073Y1458092D01*
X2990547Y1445392D01*
X2947500D01*
X2939697Y1443840D01*
X2933081Y1439420D01*
X2733081Y1239419D01*
X2728660Y1232803D01*
X2727108Y1225000D01*
Y1096138D01*
X2715907Y1090151D01*
X2712558Y1092389D01*
X2695000Y1095881D01*
X2677442Y1092389D01*
X2662557Y1082443D01*
X2652611Y1067558D01*
X2649118Y1050000D01*
X2652611Y1032442D01*
X2662557Y1017557D01*
X2677442Y1007611D01*
X2695000Y1004118D01*
X2712558Y1007611D01*
X2715907Y1009849D01*
X2727108Y1003862D01*
Y910947D01*
X2671553Y855392D01*
X2394098D01*
X2389471Y868092D01*
X2397389Y879942D01*
X2400882Y897500D01*
X2397389Y915058D01*
X2387443Y929943D01*
X2372558Y939889D01*
X2355000Y943382D01*
X2337442Y939889D01*
X2322557Y929943D01*
X2312611Y915058D01*
X2309119Y897500D01*
X2312611Y879942D01*
X2320529Y868092D01*
X2315902Y855392D01*
X2146111D01*
X2142258Y868092D01*
X2147443Y871557D01*
X2157389Y886442D01*
X2160882Y904000D01*
X2157389Y921558D01*
X2147443Y936443D01*
X2132558Y946389D01*
X2115000Y949882D01*
X2097442Y946389D01*
X2082557Y936443D01*
X2072611Y921558D01*
X2069119Y904000D01*
X2072611Y886442D01*
X2082557Y871557D01*
X2087742Y868092D01*
X2083890Y855392D01*
X2034611D01*
X2030758Y868092D01*
X2035943Y871557D01*
X2045889Y886442D01*
X2049382Y904000D01*
X2045889Y921558D01*
X2035943Y936443D01*
X2021058Y946389D01*
X2003500Y949882D01*
X1993582Y947909D01*
X1980881Y957119D01*
Y987881D01*
X1993582Y997091D01*
X2003500Y995118D01*
X2021058Y998611D01*
X2035943Y1008557D01*
X2045889Y1023442D01*
X2049382Y1041000D01*
X2045889Y1058558D01*
X2035943Y1073443D01*
X2021058Y1083389D01*
X2003500Y1086881D01*
X1999420Y1086070D01*
X1987935Y1095247D01*
Y1098252D01*
X1999420Y1107430D01*
X2003500Y1106618D01*
X2021058Y1110111D01*
X2035943Y1120057D01*
X2045889Y1134942D01*
X2049382Y1152500D01*
X2045889Y1170058D01*
X2035943Y1184943D01*
X2021058Y1194889D01*
X2003500Y1198381D01*
X1993582Y1196409D01*
X1980881Y1205619D01*
Y1291632D01*
X2098657Y1409407D01*
X2108603Y1424292D01*
X2112095Y1441850D01*
X2108603Y1459409D01*
X2098657Y1474293D01*
X2083772Y1484239D01*
X2066214Y1487732D01*
X2048655Y1484239D01*
X2033770Y1474293D01*
X2020812Y1461335D01*
X2004608Y1463092D01*
X2000204Y1469683D01*
X1927443Y1542443D01*
X1912558Y1552389D01*
X1895000Y1555882D01*
X1745346D01*
X1741493Y1568582D01*
X1747443Y1572557D01*
X1757389Y1587442D01*
X1760881Y1605000D01*
X1757389Y1622558D01*
X1747443Y1637444D01*
X1732558Y1647389D01*
X1715000Y1650882D01*
D02*
G37*
G36*
X2355000Y1093382D02*
X2337442Y1089889D01*
X2322557Y1079943D01*
X2312611Y1065058D01*
X2309119Y1047500D01*
X2312611Y1029942D01*
X2322557Y1015057D01*
X2337442Y1005111D01*
X2355000Y1001619D01*
X2372558Y1005111D01*
X2387444Y1015057D01*
X2397389Y1029942D01*
X2400882Y1047500D01*
X2397389Y1065058D01*
X2387444Y1079943D01*
X2372558Y1089889D01*
X2355000Y1093382D01*
D02*
G37*
G36*
X2115000Y1086881D02*
X2097442Y1083389D01*
X2082557Y1073443D01*
X2072611Y1058558D01*
X2069119Y1041000D01*
X2072611Y1023442D01*
X2082557Y1008557D01*
X2097442Y998611D01*
X2115000Y995118D01*
X2132558Y998611D01*
X2147443Y1008557D01*
X2157389Y1023442D01*
X2160882Y1041000D01*
X2157389Y1058558D01*
X2147443Y1073443D01*
X2132558Y1083389D01*
X2115000Y1086881D01*
D02*
G37*
G36*
X1755000D02*
X1737442Y1083389D01*
X1722557Y1073443D01*
X1712611Y1058558D01*
X1709119Y1041000D01*
X1712611Y1023442D01*
X1722557Y1008557D01*
X1737442Y998611D01*
X1755000Y995118D01*
X1772558Y998611D01*
X1787443Y1008557D01*
X1797389Y1023442D01*
X1800882Y1041000D01*
X1797389Y1058558D01*
X1787443Y1073443D01*
X1772558Y1083389D01*
X1755000Y1086881D01*
D02*
G37*
G36*
Y949882D02*
X1737442Y946389D01*
X1722557Y936443D01*
X1712611Y921558D01*
X1709119Y904000D01*
X1712611Y886442D01*
X1722557Y871557D01*
X1737442Y861611D01*
X1755000Y858118D01*
X1772558Y861611D01*
X1787443Y871557D01*
X1797389Y886442D01*
X1800882Y904000D01*
X1797389Y921558D01*
X1787443Y936443D01*
X1772558Y946389D01*
X1755000Y949882D01*
D02*
G37*
G36*
X1685000Y760882D02*
X1667442Y757389D01*
X1652557Y747443D01*
X1642611Y732558D01*
X1639119Y715000D01*
X1642611Y697442D01*
X1652557Y682557D01*
X1667442Y672611D01*
X1685000Y669119D01*
X1702558Y672611D01*
X1717443Y682557D01*
X1727389Y697442D01*
X1730882Y715000D01*
X1727389Y732558D01*
X1717443Y747443D01*
X1702558Y757389D01*
X1685000Y760882D01*
D02*
G37*
G36*
X1335000D02*
X1317442Y757389D01*
X1302557Y747443D01*
X1292611Y732558D01*
X1289119Y715000D01*
X1292611Y697442D01*
X1302557Y682557D01*
X1304363Y681350D01*
Y668650D01*
X1302557Y667443D01*
X1292611Y652558D01*
X1289119Y635000D01*
X1292611Y617442D01*
X1302557Y602557D01*
X1317442Y592611D01*
X1335000Y589118D01*
X1352558Y592611D01*
X1367443Y602557D01*
X1377389Y617442D01*
X1380882Y635000D01*
X1377389Y652558D01*
X1367443Y667443D01*
X1365637Y668650D01*
Y681350D01*
X1367443Y682557D01*
X1377389Y697442D01*
X1380882Y715000D01*
X1377389Y732558D01*
X1367443Y747443D01*
X1352558Y757389D01*
X1335000Y760882D01*
D02*
G37*
G36*
X1760000Y598382D02*
X1742442Y594889D01*
X1727557Y584943D01*
X1717611Y570058D01*
X1714119Y552500D01*
X1717611Y534942D01*
X1727557Y520057D01*
X1742442Y510111D01*
X1760000Y506619D01*
X1777558Y510111D01*
X1792443Y520057D01*
X1802389Y534942D01*
X1805882Y552500D01*
X1802389Y570058D01*
X1792443Y584943D01*
X1777558Y594889D01*
X1760000Y598382D01*
D02*
G37*
G36*
X1552500Y533381D02*
X1534942Y529889D01*
X1520057Y519943D01*
X1510111Y505058D01*
X1506619Y487500D01*
X1510111Y469942D01*
X1520057Y455057D01*
X1534942Y445111D01*
X1552500Y441618D01*
X1570058Y445111D01*
X1584943Y455057D01*
X1594889Y469942D01*
X1598382Y487500D01*
X1594889Y505058D01*
X1584943Y519943D01*
X1570058Y529889D01*
X1552500Y533381D01*
D02*
G37*
G36*
X1327500Y525882D02*
X1309942Y522389D01*
X1295057Y512443D01*
X1285111Y497558D01*
X1281618Y480000D01*
X1285111Y462442D01*
X1295057Y447557D01*
X1309942Y437611D01*
X1327500Y434119D01*
X1345058Y437611D01*
X1359943Y447557D01*
X1369889Y462442D01*
X1373382Y480000D01*
X1369889Y497558D01*
X1359943Y512443D01*
X1345058Y522389D01*
X1327500Y525882D01*
D02*
G37*
G36*
X1772441Y490467D02*
X1754883Y486975D01*
X1739998Y477029D01*
X1730052Y462144D01*
X1726559Y444586D01*
X1726825Y443250D01*
X1710026Y439908D01*
X1695141Y429963D01*
X1685195Y415077D01*
X1681703Y397519D01*
X1685195Y379961D01*
X1695141Y365076D01*
X1710026Y355130D01*
X1727584Y351638D01*
X1745142Y355130D01*
X1760027Y365076D01*
X1769973Y379961D01*
X1773466Y397519D01*
X1773200Y398855D01*
X1789999Y402197D01*
X1804884Y412143D01*
X1814830Y427028D01*
X1818323Y444586D01*
X1814830Y462144D01*
X1804884Y477029D01*
X1789999Y486975D01*
X1772441Y490467D01*
D02*
G37*
G36*
X2010000Y435882D02*
X1992442Y432389D01*
X1977557Y422443D01*
X1967611Y407558D01*
X1964119Y390000D01*
X1967611Y372442D01*
X1977557Y357557D01*
X1992442Y347611D01*
X2010000Y344118D01*
X2027558Y347611D01*
X2042443Y357557D01*
X2052389Y372442D01*
X2055882Y390000D01*
X2052389Y407558D01*
X2042443Y422443D01*
X2027558Y432389D01*
X2010000Y435882D01*
D02*
G37*
G36*
X1732500Y188381D02*
X1714942Y184889D01*
X1700057Y174943D01*
X1690111Y160058D01*
X1686618Y142500D01*
X1690111Y124942D01*
X1700057Y110057D01*
X1714942Y100111D01*
X1732500Y96618D01*
X1750058Y100111D01*
X1764943Y110057D01*
X1774889Y124942D01*
X1778382Y142500D01*
X1774889Y160058D01*
X1764943Y174943D01*
X1750058Y184889D01*
X1732500Y188381D01*
D02*
G37*
G36*
X2032500Y175881D02*
X2014942Y172389D01*
X2000057Y162443D01*
X1990111Y147558D01*
X1986619Y130000D01*
X1990111Y112442D01*
X2000057Y97557D01*
X2014942Y87611D01*
X2032500Y84118D01*
X2050058Y87611D01*
X2064944Y97557D01*
X2074889Y112442D01*
X2078382Y130000D01*
X2074889Y147558D01*
X2064944Y162443D01*
X2050058Y172389D01*
X2032500Y175881D01*
D02*
G37*
%LPD*%
G36*
X3377499Y1424999D02*
X3440000Y1362500D01*
X3439999Y432500D01*
X3327500Y320000D01*
X2257500Y320000D01*
X2098202Y479298D01*
X2098768Y483176D01*
X2103205Y492256D01*
X2117558Y495111D01*
X2132443Y505057D01*
X2142389Y519942D01*
X2145882Y537500D01*
X2142389Y555058D01*
X2132443Y569943D01*
X2117558Y579889D01*
X2100000Y583382D01*
X2082442Y579889D01*
X2067557Y569943D01*
X2057611Y555058D01*
X2054756Y540705D01*
X2045676Y536268D01*
X2041798Y535702D01*
X1980881Y596619D01*
Y679016D01*
X1983325Y680979D01*
X2000348Y678363D01*
X2002557Y675057D01*
X2017442Y665111D01*
X2035000Y661619D01*
X2052558Y665111D01*
X2067443Y675057D01*
X2077389Y689942D01*
X2080882Y707500D01*
X2077389Y725058D01*
X2067443Y739943D01*
X2052558Y749889D01*
X2035000Y753382D01*
X2017442Y749889D01*
X2002557Y739943D01*
X2000348Y736637D01*
X1983325Y734021D01*
X1980881Y735984D01*
Y835000D01*
X2680000D01*
X2747500Y902500D01*
Y1225000D01*
X2947500Y1425000D01*
X3377499Y1424999D01*
D02*
G37*
%LPC*%
G36*
X3095000Y1280882D02*
X3077442Y1277389D01*
X3062557Y1267443D01*
X3052611Y1252558D01*
X3049118Y1235000D01*
X3052611Y1217442D01*
X3062557Y1202557D01*
Y1202443D01*
X3052611Y1187558D01*
X3049118Y1170000D01*
X3052611Y1152442D01*
X3062557Y1137557D01*
X3077442Y1127611D01*
X3095000Y1124119D01*
X3112558Y1127611D01*
X3127443Y1137557D01*
X3137389Y1152442D01*
X3140881Y1170000D01*
X3137389Y1187558D01*
X3127443Y1202443D01*
Y1202557D01*
X3137389Y1217442D01*
X3140881Y1235000D01*
X3137389Y1252558D01*
X3127443Y1267443D01*
X3112558Y1277389D01*
X3095000Y1280882D01*
D02*
G37*
G36*
X2162500Y760882D02*
X2144942Y757389D01*
X2130057Y747443D01*
X2120111Y732558D01*
X2116619Y715000D01*
X2120111Y697442D01*
X2130057Y682557D01*
X2144942Y672611D01*
X2162500Y669119D01*
X2180058Y672611D01*
X2194943Y682557D01*
X2204889Y697442D01*
X2208382Y715000D01*
X2204889Y732558D01*
X2194943Y747443D01*
X2180058Y757389D01*
X2162500Y760882D01*
D02*
G37*
G36*
X2422500Y643381D02*
X2404942Y639889D01*
X2390057Y629943D01*
X2380111Y615058D01*
X2376619Y597500D01*
X2380111Y579942D01*
X2390057Y565057D01*
Y564943D01*
X2380111Y550058D01*
X2376619Y532500D01*
X2380111Y514942D01*
X2390057Y500057D01*
X2404942Y490111D01*
X2422500Y486619D01*
X2440058Y490111D01*
X2454944Y500057D01*
X2464889Y514942D01*
X2468382Y532500D01*
X2464889Y550058D01*
X2454944Y564943D01*
Y565057D01*
X2464889Y579942D01*
X2468382Y597500D01*
X2464889Y615058D01*
X2454944Y629943D01*
X2440058Y639889D01*
X2422500Y643381D01*
D02*
G37*
%LPD*%
D56*
X3079522Y5469978D02*
X3131891D01*
X3103326Y5431891D01*
X3117609D01*
X3127131Y5427130D01*
X3131891Y5422369D01*
X3136652Y5408087D01*
Y5398565D01*
X3131891Y5384282D01*
X3122370Y5374761D01*
X3108087Y5370000D01*
X3093804D01*
X3079522Y5374761D01*
X3074761Y5379521D01*
X3070000Y5389043D01*
D58*
X1895000Y1510000D02*
X1967761Y1437239D01*
X1625000Y1510000D02*
X1895000D01*
X1477825Y1362825D02*
X1625000Y1510000D01*
X1477825Y1147500D02*
Y1362825D01*
X1502456Y834435D02*
X1564435D01*
X1615000Y885000D02*
Y1384519D01*
X1564435Y834435D02*
X1615000Y885000D01*
X1935000Y577500D02*
Y1310637D01*
X2066214Y1441850D01*
X1935000Y577500D02*
X1960000Y552500D01*
D65*
X652500Y3385000D02*
D03*
X252500D02*
D03*
D66*
X390008Y4160019D02*
D03*
Y4575004D02*
D03*
D67*
X3310000Y3920000D02*
D03*
X3010000D02*
D03*
X2710000D02*
D03*
X3610000D02*
D03*
X3032500Y1550000D02*
D03*
X2485000Y1370000D02*
D03*
D68*
X3550000Y5250000D02*
D03*
X350000D02*
D03*
X1800000Y2450000D02*
D03*
X350000Y350000D02*
D03*
D69*
X867500Y2405000D02*
D03*
X835000Y1412500D02*
D03*
X2357500Y502500D02*
D03*
Y625000D02*
D03*
X1722500Y1695000D02*
D03*
X2422500Y532500D02*
D03*
Y597500D02*
D03*
X3095000Y1235000D02*
D03*
Y1170000D02*
D03*
X1866500Y792500D02*
D03*
Y904000D02*
D03*
Y1041000D02*
D03*
Y1152500D02*
D03*
X2003500Y792500D02*
D03*
Y904000D02*
D03*
Y1041000D02*
D03*
Y1152500D02*
D03*
X1755000Y904000D02*
D03*
Y1041000D02*
D03*
X2115000Y904000D02*
D03*
Y1041000D02*
D03*
X1920000Y4732500D02*
D03*
X1970000Y4682500D02*
D03*
X1870000Y4682499D02*
D03*
X1870000Y4782499D02*
D03*
X1970000Y4782500D02*
D03*
X2075000Y4372500D02*
D03*
Y4440000D02*
D03*
Y4507500D02*
D03*
Y4575000D02*
D03*
X2777500Y1475000D02*
D03*
X1765001Y5397499D02*
D03*
X152500Y2555000D02*
D03*
X655000Y2935000D02*
D03*
X402500D02*
D03*
X827500Y2787500D02*
D03*
X1000000Y2935000D02*
D03*
X1275000Y2850000D02*
D03*
X627500Y2555000D02*
D03*
X457500Y1675000D02*
D03*
X462500Y2720000D02*
D03*
X330000Y900000D02*
D03*
X332500Y1897500D02*
D03*
X2272500Y3424999D02*
D03*
X2930000Y2021250D02*
D03*
X627500Y1807500D02*
D03*
X152500D02*
D03*
X762500Y1990000D02*
D03*
Y995000D02*
D03*
X627500Y807500D02*
D03*
X152500D02*
D03*
X627500Y1555000D02*
D03*
X152500Y1555000D02*
D03*
X1415000Y2850000D02*
D03*
X1345000D02*
D03*
X3252169Y3392500D02*
D03*
X3271250Y3327500D02*
D03*
X3327500Y3262500D02*
D03*
X3042500Y3100000D02*
D03*
X3217500Y3457500D02*
D03*
X3172500Y3522500D02*
D03*
X3095000Y3589681D02*
D03*
X2790000Y2710000D02*
D03*
X2631193Y1761193D02*
D03*
X2785136Y1540075D02*
D03*
X2152500Y1515000D02*
D03*
X2882500Y3020001D02*
D03*
X2527500Y3292500D02*
D03*
X2575000Y3457500D02*
D03*
X2767500Y3652500D02*
D03*
Y3587500D02*
D03*
X2627500Y3522500D02*
D03*
X3192500Y2665000D02*
D03*
X3257500Y2600000D02*
D03*
X3322500Y2995000D02*
D03*
X3562500D02*
D03*
X2162500Y715000D02*
D03*
X2100000Y537500D02*
D03*
X2035000Y707500D02*
D03*
X2790000Y2800000D02*
D03*
X1335000Y715000D02*
D03*
X2696146Y958854D02*
D03*
X2695000Y1050000D02*
D03*
X2262500Y1320000D02*
D03*
X3582500Y3652500D02*
D03*
X3785000Y3245000D02*
D03*
X3785000Y3345000D02*
D03*
X3710000Y3517500D02*
D03*
X3710000Y3075000D02*
D03*
X2892500Y1850000D02*
D03*
X3257500Y2535000D02*
D03*
X3192500Y2600000D02*
D03*
Y2535000D02*
D03*
X3385000Y450000D02*
D03*
Y750000D02*
D03*
X3115000Y450000D02*
D03*
X3385000Y1050000D02*
D03*
X3115000Y750000D02*
D03*
X2282500Y350000D02*
D03*
X2032500Y130000D02*
D03*
X1727584Y397519D02*
D03*
X1732500Y142500D02*
D03*
X1772441Y444586D02*
D03*
X1760000Y552500D02*
D03*
X1615000Y1384519D02*
D03*
X1997500Y1750000D02*
D03*
X1715000Y1605000D02*
D03*
X2267500Y3007500D02*
D03*
X2202500Y2585000D02*
D03*
X2127500Y2740000D02*
D03*
X1190000Y270000D02*
D03*
X1017500Y805000D02*
D03*
X897500Y562500D02*
D03*
X910000Y270000D02*
D03*
X1205000Y382500D02*
D03*
X1552500Y487500D02*
D03*
X1335000Y635000D02*
D03*
X1427500Y632500D02*
D03*
X3089999Y2097501D02*
D03*
X3180000Y1917500D02*
D03*
X3115000Y1850000D02*
D03*
Y1917500D02*
D03*
X3385000Y1850000D02*
D03*
X1502456Y834435D02*
D03*
X1502677Y899434D02*
D03*
X2010000Y390000D02*
D03*
X1960000Y345000D02*
D03*
X1327500Y480000D02*
D03*
X1477825Y1147500D02*
D03*
X1305000Y857500D02*
D03*
X1685000Y715000D02*
D03*
X1467500Y1645000D02*
D03*
X1327500Y1412500D02*
D03*
X2066214Y1441850D02*
D03*
X1967761Y1437239D02*
D03*
X3385000Y1350000D02*
D03*
X3115000D02*
D03*
Y1050000D02*
D03*
X1940000Y2997500D02*
D03*
Y2932500D02*
D03*
Y3062500D02*
D03*
X1955000Y3735000D02*
D03*
Y3670000D02*
D03*
Y3605000D02*
D03*
Y3540000D02*
D03*
X2355000Y1047500D02*
D03*
X2355000Y897500D02*
D03*
X1710000Y1438084D02*
D03*
X1960000Y552500D02*
D03*
X1814000Y5027499D02*
D03*
X1765001Y5257500D02*
D03*
X960000Y4157500D02*
D03*
Y4082500D02*
D03*
Y4232500D02*
D03*
X1127500Y3495000D02*
D03*
Y3320000D02*
D03*
X1127500Y3405000D02*
D03*
X402500Y3715000D02*
D03*
X1417500Y480000D02*
D03*
X795000Y5320000D02*
D03*
X725000Y5425000D02*
D03*
X975000Y5320000D02*
D03*
X915000D02*
D03*
X855000D02*
D03*
X3177500Y2335001D02*
D03*
X3022500Y2327501D02*
D03*
X1385000Y4287500D02*
D03*
X1640000Y4334999D02*
D03*
X1762500Y4192500D02*
D03*
X1740000Y5104999D02*
D03*
X1590000Y4810000D02*
D03*
D70*
X2527500Y3292500D02*
X2530000Y3295000D01*
%TF.MD5,01cfd78158b25084d42879db1c844cdf*%
M02*
