%TF.GenerationSoftware,Altium Limited,Altium Designer,20.1.12 (249)*%
G04 Layer_Color=255*
%FSLAX45Y45*%
%MOMM*%
%TF.SameCoordinates,4EE8302A-A9A8-49E0-93C5-14594FCB678D*%
%TF.FilePolarity,Positive*%
%TF.FileFunction,Pads,Top*%
%TF.Part,Single*%
G01*
G75*
%TA.AperFunction,SMDPad,CuDef*%
G04:AMPARAMS|DCode=11|XSize=1.8mm|YSize=1.3mm|CornerRadius=0.13mm|HoleSize=0mm|Usage=FLASHONLY|Rotation=270.000|XOffset=0mm|YOffset=0mm|HoleType=Round|Shape=RoundedRectangle|*
%AMROUNDEDRECTD11*
21,1,1.80000,1.04000,0,0,270.0*
21,1,1.54000,1.30000,0,0,270.0*
1,1,0.26000,-0.52000,-0.77000*
1,1,0.26000,-0.52000,0.77000*
1,1,0.26000,0.52000,0.77000*
1,1,0.26000,0.52000,-0.77000*
%
%ADD11ROUNDEDRECTD11*%
G04:AMPARAMS|DCode=12|XSize=1.3mm|YSize=1.5mm|CornerRadius=0.13mm|HoleSize=0mm|Usage=FLASHONLY|Rotation=0.000|XOffset=0mm|YOffset=0mm|HoleType=Round|Shape=RoundedRectangle|*
%AMROUNDEDRECTD12*
21,1,1.30000,1.24000,0,0,0.0*
21,1,1.04000,1.50000,0,0,0.0*
1,1,0.26000,0.52000,-0.62000*
1,1,0.26000,-0.52000,-0.62000*
1,1,0.26000,-0.52000,0.62000*
1,1,0.26000,0.52000,0.62000*
%
%ADD12ROUNDEDRECTD12*%
G04:AMPARAMS|DCode=13|XSize=0.9mm|YSize=1mm|CornerRadius=0.09mm|HoleSize=0mm|Usage=FLASHONLY|Rotation=90.000|XOffset=0mm|YOffset=0mm|HoleType=Round|Shape=RoundedRectangle|*
%AMROUNDEDRECTD13*
21,1,0.90000,0.82000,0,0,90.0*
21,1,0.72000,1.00000,0,0,90.0*
1,1,0.18000,0.41000,0.36000*
1,1,0.18000,0.41000,-0.36000*
1,1,0.18000,-0.41000,-0.36000*
1,1,0.18000,-0.41000,0.36000*
%
%ADD13ROUNDEDRECTD13*%
G04:AMPARAMS|DCode=14|XSize=3.4mm|YSize=1.2mm|CornerRadius=0.06mm|HoleSize=0mm|Usage=FLASHONLY|Rotation=180.000|XOffset=0mm|YOffset=0mm|HoleType=Round|Shape=RoundedRectangle|*
%AMROUNDEDRECTD14*
21,1,3.40000,1.08000,0,0,180.0*
21,1,3.28000,1.20000,0,0,180.0*
1,1,0.12000,-1.64000,0.54000*
1,1,0.12000,1.64000,0.54000*
1,1,0.12000,1.64000,-0.54000*
1,1,0.12000,-1.64000,-0.54000*
%
%ADD14ROUNDEDRECTD14*%
G04:AMPARAMS|DCode=15|XSize=0.5mm|YSize=0.65mm|CornerRadius=0.05mm|HoleSize=0mm|Usage=FLASHONLY|Rotation=180.000|XOffset=0mm|YOffset=0mm|HoleType=Round|Shape=RoundedRectangle|*
%AMROUNDEDRECTD15*
21,1,0.50000,0.55000,0,0,180.0*
21,1,0.40000,0.65000,0,0,180.0*
1,1,0.10000,-0.20000,0.27500*
1,1,0.10000,0.20000,0.27500*
1,1,0.10000,0.20000,-0.27500*
1,1,0.10000,-0.20000,-0.27500*
%
%ADD15ROUNDEDRECTD15*%
G04:AMPARAMS|DCode=16|XSize=0.8mm|YSize=0.75mm|CornerRadius=0.09375mm|HoleSize=0mm|Usage=FLASHONLY|Rotation=270.000|XOffset=0mm|YOffset=0mm|HoleType=Round|Shape=RoundedRectangle|*
%AMROUNDEDRECTD16*
21,1,0.80000,0.56250,0,0,270.0*
21,1,0.61250,0.75000,0,0,270.0*
1,1,0.18750,-0.28125,-0.30625*
1,1,0.18750,-0.28125,0.30625*
1,1,0.18750,0.28125,0.30625*
1,1,0.18750,0.28125,-0.30625*
%
%ADD16ROUNDEDRECTD16*%
G04:AMPARAMS|DCode=17|XSize=2.5mm|YSize=1.7mm|CornerRadius=0.085mm|HoleSize=0mm|Usage=FLASHONLY|Rotation=180.000|XOffset=0mm|YOffset=0mm|HoleType=Round|Shape=RoundedRectangle|*
%AMROUNDEDRECTD17*
21,1,2.50000,1.53000,0,0,180.0*
21,1,2.33000,1.70000,0,0,180.0*
1,1,0.17000,-1.16500,0.76500*
1,1,0.17000,1.16500,0.76500*
1,1,0.17000,1.16500,-0.76500*
1,1,0.17000,-1.16500,-0.76500*
%
%ADD17ROUNDEDRECTD17*%
G04:AMPARAMS|DCode=18|XSize=2.5mm|YSize=2.2mm|CornerRadius=0.275mm|HoleSize=0mm|Usage=FLASHONLY|Rotation=180.000|XOffset=0mm|YOffset=0mm|HoleType=Round|Shape=RoundedRectangle|*
%AMROUNDEDRECTD18*
21,1,2.50000,1.65000,0,0,180.0*
21,1,1.95000,2.20000,0,0,180.0*
1,1,0.55000,-0.97500,0.82500*
1,1,0.55000,0.97500,0.82500*
1,1,0.55000,0.97500,-0.82500*
1,1,0.55000,-0.97500,-0.82500*
%
%ADD18ROUNDEDRECTD18*%
%ADD19R,2.00000X0.60000*%
%ADD20R,4.20000X0.70000*%
%ADD21R,1.80000X2.50000*%
%ADD22R,2.50000X1.80000*%
%ADD23R,2.50000X1.80000*%
%ADD24R,1.90000X1.80000*%
%ADD25R,1.90000X1.90000*%
%ADD26R,1.35000X0.40000*%
G04:AMPARAMS|DCode=27|XSize=0.7mm|YSize=0.85mm|CornerRadius=0.07mm|HoleSize=0mm|Usage=FLASHONLY|Rotation=0.000|XOffset=0mm|YOffset=0mm|HoleType=Round|Shape=RoundedRectangle|*
%AMROUNDEDRECTD27*
21,1,0.70000,0.71000,0,0,0.0*
21,1,0.56000,0.85000,0,0,0.0*
1,1,0.14000,0.28000,-0.35500*
1,1,0.14000,-0.28000,-0.35500*
1,1,0.14000,-0.28000,0.35500*
1,1,0.14000,0.28000,0.35500*
%
%ADD27ROUNDEDRECTD27*%
%ADD28R,5.70000X1.80000*%
G04:AMPARAMS|DCode=29|XSize=0.8mm|YSize=1.4mm|CornerRadius=0.04mm|HoleSize=0mm|Usage=FLASHONLY|Rotation=0.000|XOffset=0mm|YOffset=0mm|HoleType=Round|Shape=RoundedRectangle|*
%AMROUNDEDRECTD29*
21,1,0.80000,1.32000,0,0,0.0*
21,1,0.72000,1.40000,0,0,0.0*
1,1,0.08000,0.36000,-0.66000*
1,1,0.08000,-0.36000,-0.66000*
1,1,0.08000,-0.36000,0.66000*
1,1,0.08000,0.36000,0.66000*
%
%ADD29ROUNDEDRECTD29*%
G04:AMPARAMS|DCode=30|XSize=0.7mm|YSize=0.9mm|CornerRadius=0.0875mm|HoleSize=0mm|Usage=FLASHONLY|Rotation=0.000|XOffset=0mm|YOffset=0mm|HoleType=Round|Shape=RoundedRectangle|*
%AMROUNDEDRECTD30*
21,1,0.70000,0.72500,0,0,0.0*
21,1,0.52500,0.90000,0,0,0.0*
1,1,0.17500,0.26250,-0.36250*
1,1,0.17500,-0.26250,-0.36250*
1,1,0.17500,-0.26250,0.36250*
1,1,0.17500,0.26250,0.36250*
%
%ADD30ROUNDEDRECTD30*%
G04:AMPARAMS|DCode=31|XSize=0.6mm|YSize=0.5mm|CornerRadius=0.05mm|HoleSize=0mm|Usage=FLASHONLY|Rotation=90.000|XOffset=0mm|YOffset=0mm|HoleType=Round|Shape=RoundedRectangle|*
%AMROUNDEDRECTD31*
21,1,0.60000,0.40000,0,0,90.0*
21,1,0.50000,0.50000,0,0,90.0*
1,1,0.10000,0.20000,0.25000*
1,1,0.10000,0.20000,-0.25000*
1,1,0.10000,-0.20000,-0.25000*
1,1,0.10000,-0.20000,0.25000*
%
%ADD31ROUNDEDRECTD31*%
G04:AMPARAMS|DCode=32|XSize=0.6mm|YSize=0.5mm|CornerRadius=0.05mm|HoleSize=0mm|Usage=FLASHONLY|Rotation=0.000|XOffset=0mm|YOffset=0mm|HoleType=Round|Shape=RoundedRectangle|*
%AMROUNDEDRECTD32*
21,1,0.60000,0.40000,0,0,0.0*
21,1,0.50000,0.50000,0,0,0.0*
1,1,0.10000,0.25000,-0.20000*
1,1,0.10000,-0.25000,-0.20000*
1,1,0.10000,-0.25000,0.20000*
1,1,0.10000,0.25000,0.20000*
%
%ADD32ROUNDEDRECTD32*%
%ADD33C,0.63500*%
%ADD34O,1.50000X0.45000*%
%ADD35O,0.65000X0.30000*%
G04:AMPARAMS|DCode=36|XSize=4.1mm|YSize=4.1mm|CornerRadius=0.1025mm|HoleSize=0mm|Usage=FLASHONLY|Rotation=90.000|XOffset=0mm|YOffset=0mm|HoleType=Round|Shape=RoundedRectangle|*
%AMROUNDEDRECTD36*
21,1,4.10000,3.89500,0,0,90.0*
21,1,3.89500,4.10000,0,0,90.0*
1,1,0.20500,1.94750,1.94750*
1,1,0.20500,1.94750,-1.94750*
1,1,0.20500,-1.94750,-1.94750*
1,1,0.20500,-1.94750,1.94750*
%
%ADD36ROUNDEDRECTD36*%
G04:AMPARAMS|DCode=37|XSize=0.25mm|YSize=0.75mm|CornerRadius=0.0625mm|HoleSize=0mm|Usage=FLASHONLY|Rotation=90.000|XOffset=0mm|YOffset=0mm|HoleType=Round|Shape=RoundedRectangle|*
%AMROUNDEDRECTD37*
21,1,0.25000,0.62500,0,0,90.0*
21,1,0.12500,0.75000,0,0,90.0*
1,1,0.12500,0.31250,0.06250*
1,1,0.12500,0.31250,-0.06250*
1,1,0.12500,-0.31250,-0.06250*
1,1,0.12500,-0.31250,0.06250*
%
%ADD37ROUNDEDRECTD37*%
G04:AMPARAMS|DCode=38|XSize=0.25mm|YSize=0.75mm|CornerRadius=0.0625mm|HoleSize=0mm|Usage=FLASHONLY|Rotation=180.000|XOffset=0mm|YOffset=0mm|HoleType=Round|Shape=RoundedRectangle|*
%AMROUNDEDRECTD38*
21,1,0.25000,0.62500,0,0,180.0*
21,1,0.12500,0.75000,0,0,180.0*
1,1,0.12500,-0.06250,0.31250*
1,1,0.12500,0.06250,0.31250*
1,1,0.12500,0.06250,-0.31250*
1,1,0.12500,-0.06250,-0.31250*
%
%ADD38ROUNDEDRECTD38*%
G04:AMPARAMS|DCode=39|XSize=0.25mm|YSize=0.75mm|CornerRadius=0.03125mm|HoleSize=0mm|Usage=FLASHONLY|Rotation=180.000|XOffset=0mm|YOffset=0mm|HoleType=Round|Shape=RoundedRectangle|*
%AMROUNDEDRECTD39*
21,1,0.25000,0.68750,0,0,180.0*
21,1,0.18750,0.75000,0,0,180.0*
1,1,0.06250,-0.09375,0.34375*
1,1,0.06250,0.09375,0.34375*
1,1,0.06250,0.09375,-0.34375*
1,1,0.06250,-0.09375,-0.34375*
%
%ADD39ROUNDEDRECTD39*%
%ADD40R,1.70000X1.70000*%
%ADD41O,0.85000X0.28000*%
%ADD42O,0.28000X0.85000*%
G04:AMPARAMS|DCode=43|XSize=0.6mm|YSize=1.1mm|CornerRadius=0.06mm|HoleSize=0mm|Usage=FLASHONLY|Rotation=180.000|XOffset=0mm|YOffset=0mm|HoleType=Round|Shape=RoundedRectangle|*
%AMROUNDEDRECTD43*
21,1,0.60000,0.98000,0,0,180.0*
21,1,0.48000,1.10000,0,0,180.0*
1,1,0.12000,-0.24000,0.49000*
1,1,0.12000,0.24000,0.49000*
1,1,0.12000,0.24000,-0.49000*
1,1,0.12000,-0.24000,-0.49000*
%
%ADD43ROUNDEDRECTD43*%
%ADD44R,1.90500X1.90500*%
%ADD45C,1.52000*%
%ADD46R,3.70000X1.27000*%
G04:AMPARAMS|DCode=47|XSize=1.1mm|YSize=0.9mm|CornerRadius=0.045mm|HoleSize=0mm|Usage=FLASHONLY|Rotation=0.000|XOffset=0mm|YOffset=0mm|HoleType=Round|Shape=RoundedRectangle|*
%AMROUNDEDRECTD47*
21,1,1.10000,0.81000,0,0,0.0*
21,1,1.01000,0.90000,0,0,0.0*
1,1,0.09000,0.50500,-0.40500*
1,1,0.09000,-0.50500,-0.40500*
1,1,0.09000,-0.50500,0.40500*
1,1,0.09000,0.50500,0.40500*
%
%ADD47ROUNDEDRECTD47*%
%TA.AperFunction,ConnectorPad*%
%ADD48R,3.70000X1.27000*%
%TA.AperFunction,SMDPad,CuDef*%
G04:AMPARAMS|DCode=49|XSize=0.7mm|YSize=0.9mm|CornerRadius=0.0875mm|HoleSize=0mm|Usage=FLASHONLY|Rotation=270.000|XOffset=0mm|YOffset=0mm|HoleType=Round|Shape=RoundedRectangle|*
%AMROUNDEDRECTD49*
21,1,0.70000,0.72500,0,0,270.0*
21,1,0.52500,0.90000,0,0,270.0*
1,1,0.17500,-0.36250,-0.26250*
1,1,0.17500,-0.36250,0.26250*
1,1,0.17500,0.36250,0.26250*
1,1,0.17500,0.36250,-0.26250*
%
%ADD49ROUNDEDRECTD49*%
G04:AMPARAMS|DCode=50|XSize=0.5mm|YSize=0.65mm|CornerRadius=0.05mm|HoleSize=0mm|Usage=FLASHONLY|Rotation=90.000|XOffset=0mm|YOffset=0mm|HoleType=Round|Shape=RoundedRectangle|*
%AMROUNDEDRECTD50*
21,1,0.50000,0.55000,0,0,90.0*
21,1,0.40000,0.65000,0,0,90.0*
1,1,0.10000,0.27500,0.20000*
1,1,0.10000,0.27500,-0.20000*
1,1,0.10000,-0.27500,-0.20000*
1,1,0.10000,-0.27500,0.20000*
%
%ADD50ROUNDEDRECTD50*%
G04:AMPARAMS|DCode=51|XSize=2.5mm|YSize=2.2mm|CornerRadius=0.275mm|HoleSize=0mm|Usage=FLASHONLY|Rotation=90.000|XOffset=0mm|YOffset=0mm|HoleType=Round|Shape=RoundedRectangle|*
%AMROUNDEDRECTD51*
21,1,2.50000,1.65000,0,0,90.0*
21,1,1.95000,2.20000,0,0,90.0*
1,1,0.55000,0.82500,0.97500*
1,1,0.55000,0.82500,-0.97500*
1,1,0.55000,-0.82500,-0.97500*
1,1,0.55000,-0.82500,0.97500*
%
%ADD51ROUNDEDRECTD51*%
G04:AMPARAMS|DCode=52|XSize=0.9mm|YSize=1mm|CornerRadius=0.09mm|HoleSize=0mm|Usage=FLASHONLY|Rotation=0.000|XOffset=0mm|YOffset=0mm|HoleType=Round|Shape=RoundedRectangle|*
%AMROUNDEDRECTD52*
21,1,0.90000,0.82000,0,0,0.0*
21,1,0.72000,1.00000,0,0,0.0*
1,1,0.18000,0.36000,-0.41000*
1,1,0.18000,-0.36000,-0.41000*
1,1,0.18000,-0.36000,0.41000*
1,1,0.18000,0.36000,0.41000*
%
%ADD52ROUNDEDRECTD52*%
%TA.AperFunction,ComponentPad*%
%ADD65C,1.40000*%
%ADD66C,0.70000*%
%ADD67C,1.60000*%
%TA.AperFunction,WasherPad*%
%ADD68C,3.00000*%
D11*
X2007500Y3995000D02*
D03*
X2297500D02*
D03*
Y4224999D02*
D03*
X2007500D02*
D03*
D12*
X2082500Y3772500D02*
D03*
X2272500D02*
D03*
X2082500Y3550000D02*
D03*
X2272500D02*
D03*
D13*
X1640000Y4590000D02*
D03*
Y4420000D02*
D03*
X3267500Y2442501D02*
D03*
Y2272500D02*
D03*
D14*
X1385000Y4585000D02*
D03*
Y4194999D02*
D03*
D15*
X2930000Y2097501D02*
D03*
X3020000D02*
D03*
X1397500Y1645000D02*
D03*
X1307500D02*
D03*
X1367500Y1235000D02*
D03*
X1457500D02*
D03*
X1607500Y405000D02*
D03*
X1517500D02*
D03*
X1327500D02*
D03*
X1417500D02*
D03*
X1470000Y1067500D02*
D03*
X1380000D02*
D03*
X2085000Y1515000D02*
D03*
X1995000D02*
D03*
X1882500Y5027499D02*
D03*
X1972500D02*
D03*
X1637500Y1590000D02*
D03*
X1547500D02*
D03*
X2972500Y3100000D02*
D03*
X2882500D02*
D03*
X1380000Y977500D02*
D03*
X1470000D02*
D03*
X1367500Y1340000D02*
D03*
X1457500D02*
D03*
X2960000Y1850000D02*
D03*
X3050000D02*
D03*
D16*
X1062500Y255000D02*
D03*
Y95000D02*
D03*
X782500D02*
D03*
Y255000D02*
D03*
D17*
X2732500Y4540000D02*
D03*
X2332500D02*
D03*
D18*
X1775000Y2997500D02*
D03*
X1345000D02*
D03*
D19*
X3250000Y1850000D02*
D03*
Y1750000D02*
D03*
Y1650000D02*
D03*
Y1550000D02*
D03*
Y1450000D02*
D03*
Y1350000D02*
D03*
Y1250000D02*
D03*
Y1150000D02*
D03*
Y1050000D02*
D03*
Y950000D02*
D03*
Y850000D02*
D03*
Y750000D02*
D03*
Y650000D02*
D03*
Y550000D02*
D03*
Y450000D02*
D03*
D20*
X3460000Y1950000D02*
D03*
Y350000D02*
D03*
D21*
X992500Y3405000D02*
D03*
D22*
X227500Y2935000D02*
D03*
Y3715000D02*
D03*
X827500Y2935000D02*
D03*
D23*
Y3715000D02*
D03*
D24*
X145000Y3967512D02*
D03*
Y4767510D02*
D03*
D25*
Y4252500D02*
D03*
Y4482497D02*
D03*
D26*
X412487Y4237514D02*
D03*
Y4302513D02*
D03*
Y4367511D02*
D03*
Y4432510D02*
D03*
Y4497508D02*
D03*
D27*
X827500Y2321000D02*
D03*
Y2204000D02*
D03*
X812500Y1321000D02*
D03*
Y1204000D02*
D03*
D28*
X2467500Y4852500D02*
D03*
Y5312500D02*
D03*
D29*
X2937500Y2662501D02*
D03*
X3097500D02*
D03*
D30*
X1012500Y562500D02*
D03*
X822500D02*
D03*
X917500Y362500D02*
D03*
D31*
X1862500Y4270000D02*
D03*
Y4370000D02*
D03*
X1190000Y195000D02*
D03*
Y95000D02*
D03*
X1135000Y482500D02*
D03*
Y382500D02*
D03*
X1197500Y1545000D02*
D03*
Y1645000D02*
D03*
X2207500Y2845000D02*
D03*
Y2945000D02*
D03*
X2635000Y3292500D02*
D03*
Y3392500D02*
D03*
X1660000Y4910000D02*
D03*
Y4810000D02*
D03*
X1330001Y160000D02*
D03*
Y260000D02*
D03*
X1135000Y792500D02*
D03*
Y892500D02*
D03*
X910000Y195000D02*
D03*
Y95000D02*
D03*
X3492500Y3095000D02*
D03*
Y2995000D02*
D03*
X3392501D02*
D03*
Y3095000D02*
D03*
X1762500Y4270000D02*
D03*
Y4370000D02*
D03*
X1267500Y1337500D02*
D03*
Y1237500D02*
D03*
D32*
X3017500Y1992501D02*
D03*
X3117500D02*
D03*
X1302500Y1540000D02*
D03*
X1402500D02*
D03*
X2817500Y2900000D02*
D03*
X2717500D02*
D03*
X3710000Y3245000D02*
D03*
X3610000D02*
D03*
X1875000Y5134999D02*
D03*
X1975000D02*
D03*
X1997500Y1620000D02*
D03*
X2097500D02*
D03*
X1910000Y452500D02*
D03*
X2010000D02*
D03*
X1555000Y4704999D02*
D03*
X1655000D02*
D03*
X2422500Y2610000D02*
D03*
X2322500D02*
D03*
X3610000Y3345000D02*
D03*
X3710000D02*
D03*
X1547500Y1485000D02*
D03*
X1647500D02*
D03*
X932500Y995000D02*
D03*
X832500D02*
D03*
X1135000Y687500D02*
D03*
X1235000D02*
D03*
X1647500Y1695000D02*
D03*
X1547500D02*
D03*
X2322500Y2952500D02*
D03*
X2422500D02*
D03*
X1415000Y787500D02*
D03*
X1315000D02*
D03*
X1845000Y4475000D02*
D03*
X1945000D02*
D03*
X2532500Y2610000D02*
D03*
X2632500D02*
D03*
X3610000Y3145000D02*
D03*
X3710000D02*
D03*
X3710000Y3447500D02*
D03*
X3610000D02*
D03*
X1135000Y587500D02*
D03*
X1235000D02*
D03*
X1867500Y272500D02*
D03*
X1767500D02*
D03*
X932500Y1990000D02*
D03*
X832500D02*
D03*
D33*
X1177500Y1237500D02*
D03*
X1180000Y1337500D02*
D03*
X2747500Y3392500D02*
D03*
D34*
X2882500Y3652500D02*
D03*
Y3587500D02*
D03*
Y3522500D02*
D03*
Y3457500D02*
D03*
Y3392500D02*
D03*
Y3327500D02*
D03*
Y3262500D02*
D03*
Y3197500D02*
D03*
X3462500Y3652500D02*
D03*
Y3587500D02*
D03*
Y3522500D02*
D03*
Y3457500D02*
D03*
Y3392500D02*
D03*
Y3327500D02*
D03*
Y3262500D02*
D03*
Y3197500D02*
D03*
D35*
X2307500Y2855000D02*
D03*
Y2805000D02*
D03*
Y2755000D02*
D03*
Y2705000D02*
D03*
X2612500Y2855000D02*
D03*
Y2805000D02*
D03*
Y2755000D02*
D03*
Y2705000D02*
D03*
D36*
X1935000Y972500D02*
D03*
D37*
X1587500Y697500D02*
D03*
Y747500D02*
D03*
Y797500D02*
D03*
Y847500D02*
D03*
Y897500D02*
D03*
Y947500D02*
D03*
Y997500D02*
D03*
Y1047500D02*
D03*
Y1097500D02*
D03*
Y1147500D02*
D03*
Y1197500D02*
D03*
Y1247500D02*
D03*
X2282500D02*
D03*
Y1197500D02*
D03*
Y1147500D02*
D03*
Y1097500D02*
D03*
Y1047500D02*
D03*
Y997500D02*
D03*
Y947500D02*
D03*
Y897500D02*
D03*
Y847500D02*
D03*
Y797500D02*
D03*
Y747500D02*
D03*
Y697500D02*
D03*
D38*
X1660000Y1320000D02*
D03*
X1710000D02*
D03*
X1760000D02*
D03*
X1810000D02*
D03*
X1860000D02*
D03*
X1910000D02*
D03*
X1960000D02*
D03*
X2010000D02*
D03*
X2060000D02*
D03*
X2110000D02*
D03*
X2160000D02*
D03*
X2210000D02*
D03*
Y625000D02*
D03*
X2160000D02*
D03*
X2110000D02*
D03*
X2060000D02*
D03*
X2010000D02*
D03*
X1960000D02*
D03*
X1910000D02*
D03*
X1860000D02*
D03*
X1810000D02*
D03*
X1760000D02*
D03*
X1710000D02*
D03*
D39*
X1660000D02*
D03*
D40*
X1920000Y4732500D02*
D03*
D41*
X2067500Y4807500D02*
D03*
Y4757500D02*
D03*
Y4707500D02*
D03*
Y4657500D02*
D03*
X1772500D02*
D03*
Y4707500D02*
D03*
Y4757500D02*
D03*
Y4807500D02*
D03*
D42*
X1995000Y4585000D02*
D03*
X1945000D02*
D03*
X1895000D02*
D03*
X1845000D02*
D03*
Y4880000D02*
D03*
X1895000D02*
D03*
X1945000D02*
D03*
X1995000D02*
D03*
D43*
X2927500Y2490001D02*
D03*
X3117500D02*
D03*
Y2230001D02*
D03*
X3022500D02*
D03*
X2927500D02*
D03*
D44*
X152500Y1942500D02*
D03*
X627500D02*
D03*
X152500Y2417500D02*
D03*
X627500D02*
D03*
X152500Y942500D02*
D03*
X627500D02*
D03*
X152500Y1417500D02*
D03*
X627500D02*
D03*
D45*
X390000Y2180000D02*
D03*
Y1180000D02*
D03*
D46*
X1675000Y3361000D02*
D03*
Y3869000D02*
D03*
X1365000Y3615000D02*
D03*
D47*
X1467500Y142500D02*
D03*
X1637500D02*
D03*
X1467500Y272500D02*
D03*
X1637500D02*
D03*
D48*
X952500Y5424000D02*
D03*
Y4916000D02*
D03*
X1262500Y5170000D02*
D03*
D49*
X817500Y782500D02*
D03*
X1017500Y877500D02*
D03*
Y687500D02*
D03*
D50*
X1880000Y1435000D02*
D03*
Y1525000D02*
D03*
X2202500Y2650000D02*
D03*
Y2740000D02*
D03*
X1665000Y5104999D02*
D03*
Y5015000D02*
D03*
X1790000Y1525000D02*
D03*
Y1435000D02*
D03*
X2717500Y2710000D02*
D03*
Y2800000D02*
D03*
D51*
X795000Y4587500D02*
D03*
Y4157500D02*
D03*
D52*
X1850000Y5257500D02*
D03*
X2020000D02*
D03*
X1850000Y5397499D02*
D03*
X2020000D02*
D03*
D65*
X652500Y3385000D02*
D03*
X252500D02*
D03*
D66*
X390008Y4160019D02*
D03*
Y4575004D02*
D03*
D67*
X3310000Y3920000D02*
D03*
X3010000D02*
D03*
X2710000D02*
D03*
X3610000D02*
D03*
X3032500Y1550000D02*
D03*
X2485000Y1370000D02*
D03*
D68*
X3550000Y5250000D02*
D03*
X350000D02*
D03*
X1800000Y2450000D02*
D03*
X350000Y350000D02*
D03*
%TF.MD5,2af3f1315a0eb04f2064f90990df47e3*%
M02*
