%TF.GenerationSoftware,Altium Limited,Altium Designer,20.1.12 (249)*%
G04 Layer_Color=32768*
%FSLAX45Y45*%
%MOMM*%
%TF.SameCoordinates,4EE8302A-A9A8-49E0-93C5-14594FCB678D*%
%TF.FilePolarity,Positive*%
%TF.FileFunction,Other,M15_-_Top_Courtyard*%
%TF.Part,Single*%
G01*
G75*
%TA.AperFunction,NonConductor*%
%ADD136C,0.05000*%
%ADD137C,0.10000*%
%ADD138C,0.01000*%
%ADD141C,0.12700*%
D136*
X1062500Y155000D02*
Y195000D01*
X1042500Y175000D02*
X1082500D01*
X3705000Y85000D02*
Y145000D01*
Y85000D02*
X3875000D01*
Y2215000D01*
X3705000D02*
X3875000D01*
X3705000Y2155000D02*
Y2215000D01*
X3275000Y2155000D02*
X3705000D01*
X3275000Y2010000D02*
Y2155000D01*
X3125000Y2010000D02*
X3275000D01*
X3125000Y290000D02*
Y2010000D01*
Y290000D02*
X3275000D01*
Y145000D02*
Y290000D01*
Y145000D02*
X3705000D01*
X-22500Y3660000D02*
X77500D01*
Y3835000D01*
X377500D01*
Y3660000D02*
Y3835000D01*
Y3660000D02*
X677500D01*
Y3835000D01*
X977500D01*
Y3560000D02*
Y3835000D01*
Y3560000D02*
X1102500D01*
Y3260000D02*
Y3560000D01*
X927500Y3260000D02*
X1102500D01*
X927500Y3060000D02*
Y3260000D01*
Y3060000D02*
X977500D01*
Y2810000D02*
Y3060000D01*
X677500Y2810000D02*
X977500D01*
X677500D02*
Y3010000D01*
X377500D02*
X677500D01*
X377500Y2810000D02*
Y3010000D01*
X77500Y2810000D02*
X377500D01*
X77500D02*
Y3010000D01*
X-22500D02*
X77500D01*
X-22500D02*
Y3660000D01*
X2467500Y5032500D02*
Y5132500D01*
X2417500Y5082500D02*
X2517500D01*
X2802500Y4742500D02*
Y5422500D01*
X2132500Y4742500D02*
X2802500D01*
X2132500D02*
Y5422500D01*
X2802500D01*
X761500Y622500D02*
X1073500D01*
X761500Y302500D02*
X1073500D01*
Y622500D01*
X761500Y302500D02*
Y622500D01*
X917500Y412500D02*
Y512500D01*
X867500Y462500D02*
X967500D01*
X2800000Y3690000D02*
X3545000D01*
X2800000Y3160000D02*
X3545000D01*
X2800000D02*
Y3690000D01*
X3545000Y3160000D02*
Y3690000D01*
X2460000Y2730000D02*
Y2830000D01*
X2410000Y2780000D02*
X2510000D01*
X2265000Y2895000D02*
X2655000D01*
X2265000Y2665000D02*
X2655000D01*
X2265000D02*
Y2895000D01*
X2655000Y2665000D02*
Y2895000D01*
X1720000Y4532500D02*
Y4932500D01*
X2120000Y4532500D02*
Y4932500D01*
X1720000Y4532500D02*
X2120000D01*
X1720000Y4932500D02*
X2120000D01*
X3187500Y2160001D02*
Y2560001D01*
X2857500Y2160001D02*
Y2560001D01*
X3187500D01*
X2857500Y2160001D02*
X3187500D01*
X390000Y2130000D02*
Y2230000D01*
X340000Y2180000D02*
X440000D01*
X14500Y1804000D02*
Y2556000D01*
Y1804000D02*
X765500D01*
Y2556000D01*
X14500D02*
X765500D01*
X1312500Y-12500D02*
Y427500D01*
X1792500D01*
Y-12500D02*
Y427500D01*
X1312500Y-12500D02*
X1792500D01*
X390000Y1130000D02*
Y1230000D01*
X340000Y1180000D02*
X440000D01*
X14500Y804000D02*
Y1556000D01*
Y804000D02*
X765500D01*
Y1556000D01*
X14500D02*
X765500D01*
X917500Y732500D02*
Y832500D01*
X867500Y782500D02*
X967500D01*
X757500Y938500D02*
X1077500D01*
X757500Y626500D02*
X1077500D01*
X757500D02*
Y938500D01*
X1077500Y626500D02*
Y938500D01*
X762500Y175000D02*
X802500D01*
X782500Y155000D02*
Y195000D01*
D137*
X3172500Y3375000D02*
Y3475000D01*
X3122500Y3425000D02*
X3222500D01*
X1870000Y4732500D02*
X1970000D01*
X1920000Y4682500D02*
Y4782500D01*
X2972500Y2360001D02*
X3072500D01*
X3022500Y2310000D02*
Y2410001D01*
X1552500Y157500D02*
Y257500D01*
X1502500Y207500D02*
X1602500D01*
D138*
X2152500Y3944999D02*
Y4045000D01*
X2102500Y3995000D02*
X2202500D01*
X1917500Y4110000D02*
X2387500D01*
X1917500Y3880000D02*
X2387500D01*
X1917500D02*
Y4110000D01*
X2387500Y3880000D02*
Y4110000D01*
X1967500Y3897500D02*
X2387500D01*
Y3647500D02*
Y3897500D01*
X1967500Y3647500D02*
X2387500D01*
X1967500D02*
Y3897500D01*
X2127500Y3772500D02*
X2227500D01*
X2177500Y3722500D02*
Y3822500D01*
X1592500Y4505000D02*
X1687500D01*
X1640000Y4457500D02*
Y4552500D01*
X1715000Y4354999D02*
Y4654999D01*
X1565000Y4354999D02*
Y4654999D01*
X1715000D01*
X1565000Y4354999D02*
X1715000D01*
X1570000Y4125000D02*
Y4655000D01*
X1200000Y4125000D02*
X1570000D01*
X1335000Y4390000D02*
X1435000D01*
X1385000Y4340000D02*
Y4440000D01*
X1200000Y4125000D02*
Y4655000D01*
X1570000D01*
X3070000Y2042501D02*
Y2152500D01*
X2880000D02*
X3070000D01*
X2880000Y2042501D02*
Y2152500D01*
Y2042501D02*
X3070000D01*
X2937500Y2097501D02*
X3012500D01*
X2975000Y2060000D02*
Y2135001D01*
X3220000Y2357500D02*
X3315000D01*
X3267500Y2310000D02*
Y2405001D01*
X3342500Y2207500D02*
Y2507500D01*
X3192500Y2207500D02*
Y2507500D01*
X3342500D01*
X3192500Y2207500D02*
X3342500D01*
X2132500Y4339999D02*
Y4740000D01*
X2932500D01*
Y4339999D02*
Y4740000D01*
X2132500Y4339999D02*
X2932500D01*
X2482500Y4540000D02*
X2582500D01*
X2532500Y4490000D02*
Y4589999D01*
X1560000Y2947500D02*
Y3047500D01*
X1510000Y2997500D02*
X1610000D01*
X1160000Y2777500D02*
Y3217500D01*
X1960000D01*
Y2777500D02*
Y3217500D01*
X1160000Y2777500D02*
X1960000D01*
X792500Y2262500D02*
X862500D01*
X827500Y2227500D02*
Y2297500D01*
X767500Y2137500D02*
Y2387500D01*
X887500Y2137500D02*
Y2387500D01*
X767500Y2137500D02*
X887500D01*
X767500Y2387500D02*
X887500D01*
X2857500Y2572501D02*
X3177500D01*
X2857500D02*
Y2752501D01*
X2967500Y2662501D02*
X3067500D01*
X3017500Y2612501D02*
Y2712501D01*
X2857500Y2752501D02*
X3177500D01*
Y2572501D02*
Y2752501D01*
X1827500Y4319999D02*
X1897500D01*
X1862500Y4285000D02*
Y4355000D01*
X1812500Y4214999D02*
Y4425000D01*
X1912500Y4214999D02*
Y4425000D01*
X1812500Y4214999D02*
X1912500D01*
X1812500Y4425000D02*
X1912500D01*
X3067500Y1957501D02*
Y2027501D01*
X3032500Y1992501D02*
X3102501D01*
X2962500Y2042500D02*
X3172500D01*
X2962500Y1942501D02*
X3172500D01*
X2962500D02*
Y2042500D01*
X3172500Y1942501D02*
Y2042500D01*
X1885000Y972500D02*
X1985000D01*
X1935000Y922500D02*
Y1022500D01*
X2385000Y522500D02*
Y1422500D01*
X1485000Y522500D02*
Y1422500D01*
X2385000D01*
X1485000Y522500D02*
X2385000D01*
X1160000Y4005000D02*
X1880000D01*
X1160000Y3225000D02*
X1880000D01*
Y4005000D01*
X1160000Y3225000D02*
Y4005000D01*
X1520000Y3565000D02*
Y3665000D01*
X1470000Y3615000D02*
X1570000D01*
X747500Y4780000D02*
X1467500D01*
X747500Y5560000D02*
X1467500D01*
X747500Y4780000D02*
Y5560000D01*
X1467500Y4780000D02*
Y5560000D01*
X1107500Y5120000D02*
Y5220000D01*
X1057500Y5170000D02*
X1157500D01*
X1247500Y1490000D02*
Y1590000D01*
X1457500Y1490000D02*
Y1590000D01*
X1247500D02*
X1457500D01*
X1247500Y1490000D02*
X1457500D01*
X1317500Y1540000D02*
X1387500D01*
X1352500Y1505000D02*
Y1575000D01*
Y1607500D02*
Y1682500D01*
X1315000Y1645000D02*
X1390000D01*
X1257500Y1590000D02*
X1447500D01*
X1257500D02*
Y1700000D01*
X1447500D01*
Y1590000D02*
Y1700000D01*
X1140000Y250000D02*
X1240000D01*
X1140000Y40000D02*
X1240000D01*
Y250000D01*
X1140000Y40000D02*
Y250000D01*
X1190000Y110000D02*
Y180000D01*
X1155000Y145000D02*
X1225000D01*
X1842500Y1480000D02*
X1917500D01*
X1880000Y1442500D02*
Y1517500D01*
X1825000Y1385000D02*
Y1575000D01*
X1935000D01*
Y1385000D02*
Y1575000D01*
X1825000Y1385000D02*
X1935000D01*
X1412500Y1197500D02*
Y1272500D01*
X1375000Y1235000D02*
X1450000D01*
X1317500Y1290000D02*
X1507500D01*
Y1180000D02*
Y1290000D01*
X1317500Y1180000D02*
X1507500D01*
X1317500D02*
Y1290000D01*
X777500Y1262500D02*
X847500D01*
X812500Y1227500D02*
Y1297500D01*
X752500Y1137500D02*
Y1387500D01*
X872500Y1137500D02*
Y1387500D01*
X752500Y1137500D02*
X872500D01*
X752500Y1387500D02*
X872500D01*
X1562500Y367500D02*
Y442500D01*
X1525000Y405000D02*
X1600000D01*
X1467500Y350000D02*
X1657500D01*
X1467500D02*
Y460000D01*
X1657500D01*
Y350000D02*
Y460000D01*
X1085000Y537500D02*
X1185000D01*
X1085000Y327500D02*
X1185000D01*
Y537500D01*
X1085000Y327500D02*
Y537500D01*
X1135000Y397500D02*
Y467500D01*
X1100000Y432500D02*
X1170000D01*
X1147500Y1490000D02*
X1247500D01*
X1147500Y1700000D02*
X1247500D01*
X1147500Y1490000D02*
Y1700000D01*
X1247500Y1490000D02*
Y1700000D01*
X1197500Y1560000D02*
Y1630000D01*
X1162500Y1595000D02*
X1232500D01*
X2157500Y2790000D02*
X2257500D01*
X2157500Y3000000D02*
X2257500D01*
X2157500Y2790000D02*
Y3000000D01*
X2257500Y2790000D02*
Y3000000D01*
X2207500Y2860000D02*
Y2930000D01*
X2172500Y2895000D02*
X2242500D01*
X2165000Y2695000D02*
X2240000D01*
X2202500Y2657500D02*
Y2732500D01*
X2147500Y2600000D02*
Y2790000D01*
X2257500D01*
Y2600000D02*
Y2790000D01*
X2147500Y2600000D02*
X2257500D01*
X1627500Y5060000D02*
X1702500D01*
X1665000Y5022499D02*
Y5097500D01*
X1720000Y4964999D02*
Y5155000D01*
X1610000Y4964999D02*
X1720000D01*
X1610000D02*
Y5155000D01*
X1720000D01*
X2872500Y2850000D02*
Y2950000D01*
X2662500Y2850000D02*
Y2950000D01*
Y2850000D02*
X2872500D01*
X2662500Y2950000D02*
X2872500D01*
X2732500Y2900000D02*
X2802500D01*
X2767500Y2865000D02*
Y2935000D01*
X3765000Y3195000D02*
Y3295000D01*
X3555000Y3195000D02*
Y3295000D01*
Y3195000D02*
X3765000D01*
X3555000Y3295000D02*
X3765000D01*
X3625000Y3245000D02*
X3695000D01*
X3660000Y3210000D02*
Y3280000D01*
X2585000Y3237500D02*
X2685000D01*
X2585000Y3447500D02*
X2685000D01*
X2585000Y3237500D02*
Y3447500D01*
X2685000Y3237500D02*
Y3447500D01*
X2635000Y3307500D02*
Y3377500D01*
X2600000Y3342500D02*
X2670000D01*
X1610000Y4965000D02*
X1710000D01*
X1610000Y4755000D02*
X1710000D01*
Y4965000D01*
X1610000Y4755000D02*
Y4965000D01*
X1660000Y4825000D02*
Y4895000D01*
X1625000Y4860000D02*
X1695000D01*
X1820000Y5085000D02*
Y5185000D01*
X2030000Y5085000D02*
Y5185000D01*
X1820000D02*
X2030000D01*
X1820000Y5085000D02*
X2030000D01*
X1890000Y5134999D02*
X1960000D01*
X1925000Y5099999D02*
Y5170000D01*
X575000Y3972500D02*
Y4772500D01*
Y3972500D02*
X1015000D01*
Y4772500D01*
X575000D02*
X1015000D01*
X795000Y4322500D02*
Y4422500D01*
X745000Y4372500D02*
X845000D01*
X1280000Y105000D02*
X1380000D01*
X1280000Y315000D02*
X1380000D01*
X1280000Y105000D02*
Y315000D01*
X1380000Y105000D02*
Y315000D01*
X1330001Y175000D02*
Y245000D01*
X1295000Y210000D02*
X1365001D01*
X1372500Y367500D02*
Y442500D01*
X1335000Y405000D02*
X1410000D01*
X1277500Y460000D02*
X1467500D01*
Y350000D02*
Y460000D01*
X1277500Y350000D02*
X1467500D01*
X1277500D02*
Y460000D01*
X1425000Y1030000D02*
Y1105000D01*
X1387500Y1067500D02*
X1462500D01*
X1330000Y1012500D02*
X1520000D01*
X1330000D02*
Y1122500D01*
X1520000D01*
Y1012500D02*
Y1122500D01*
X1942500Y1570000D02*
Y1670000D01*
X2152500Y1570000D02*
Y1670000D01*
X1942500D02*
X2152500D01*
X1942500Y1570000D02*
X2152500D01*
X2012500Y1620000D02*
X2082500D01*
X2047500Y1585000D02*
Y1655000D01*
X1085000Y737500D02*
X1185000D01*
X1085000Y947500D02*
X1185000D01*
X1085000Y737500D02*
Y947500D01*
X1185000Y737500D02*
Y947500D01*
X1135000Y807500D02*
Y877500D01*
X1100000Y842500D02*
X1170000D01*
X2040000Y1477500D02*
Y1552500D01*
X2002500Y1515000D02*
X2077500D01*
X1945000Y1460000D02*
X2135000D01*
X1945000D02*
Y1570000D01*
X2135000D01*
Y1460000D02*
Y1570000D01*
X1855000Y402500D02*
Y502500D01*
X2065000Y402500D02*
Y502500D01*
X1855000D02*
X2065000D01*
X1855000Y402500D02*
X2065000D01*
X1925000Y452500D02*
X1995000D01*
X1960000Y417500D02*
Y487500D01*
X1500000Y4655000D02*
Y4755000D01*
X1710000Y4655000D02*
Y4755000D01*
X1500000D02*
X1710000D01*
X1500000Y4655000D02*
X1710000D01*
X1570000Y4704999D02*
X1640000D01*
X1605000Y4670000D02*
Y4740000D01*
X2477500Y2560000D02*
Y2660000D01*
X2267500Y2560000D02*
Y2660000D01*
Y2560000D02*
X2477500D01*
X2267500Y2660000D02*
X2477500D01*
X2337500Y2610000D02*
X2407500D01*
X2372500Y2575000D02*
Y2645000D01*
X2177500Y3500000D02*
Y3600000D01*
X2127500Y3550000D02*
X2227500D01*
X2387500Y3425000D02*
Y3675000D01*
X1967500D02*
X2387500D01*
X1967500Y3425000D02*
Y3675000D01*
Y3425000D02*
X2387500D01*
X3555000Y3295000D02*
Y3395000D01*
X3765000Y3295000D02*
Y3395000D01*
X3555000D02*
X3765000D01*
X3555000Y3295000D02*
X3765000D01*
X3625000Y3345000D02*
X3695000D01*
X3660000Y3310000D02*
Y3380000D01*
X1927500Y4989999D02*
Y5065000D01*
X1890000Y5027499D02*
X1965000D01*
X1832500Y5082499D02*
X2022500D01*
Y4972500D02*
Y5082499D01*
X1832500Y4972500D02*
X2022500D01*
X1832500D02*
Y5082499D01*
X860000Y250000D02*
X960000D01*
X860000Y40000D02*
X960000D01*
Y250000D01*
X860000Y40000D02*
Y250000D01*
X910000Y110000D02*
Y180000D01*
X875000Y145000D02*
X945000D01*
X1492500Y1435000D02*
Y1535000D01*
X1702500Y1435000D02*
Y1535000D01*
X1492500D02*
X1702500D01*
X1492500Y1435000D02*
X1702500D01*
X1562500Y1485000D02*
X1632500D01*
X1597500Y1450000D02*
Y1520000D01*
X987500Y945000D02*
Y1045000D01*
X777500Y945000D02*
Y1045000D01*
Y945000D02*
X987500D01*
X777500Y1045000D02*
X987500D01*
X847500Y995000D02*
X917500D01*
X882500Y960000D02*
Y1030000D01*
X1592500Y1552500D02*
Y1627500D01*
X1555000Y1590000D02*
X1630000D01*
X1497500Y1535000D02*
X1687500D01*
X1497500D02*
Y1645000D01*
X1687500D01*
Y1535000D02*
Y1645000D01*
X1752500Y1480000D02*
X1827500D01*
X1790000Y1442500D02*
Y1517500D01*
X1845000Y1385000D02*
Y1575000D01*
X1735000Y1385000D02*
X1845000D01*
X1735000D02*
Y1575000D01*
X1845000D01*
X1080000Y637500D02*
Y737500D01*
X1290000Y637500D02*
Y737500D01*
X1080000D02*
X1290000D01*
X1080000Y637500D02*
X1290000D01*
X1150000Y687500D02*
X1220000D01*
X1185000Y652500D02*
Y722500D01*
X1702500Y1645000D02*
Y1745000D01*
X1492500Y1645000D02*
Y1745000D01*
Y1645000D02*
X1702500D01*
X1492500Y1745000D02*
X1702500D01*
X1562500Y1695000D02*
X1632500D01*
X1597500Y1660000D02*
Y1730000D01*
X2267500Y2902500D02*
Y3002500D01*
X2477500Y2902500D02*
Y3002500D01*
X2267500D02*
X2477500D01*
X2267500Y2902500D02*
X2477500D01*
X2337500Y2952500D02*
X2407500D01*
X2372500Y2917500D02*
Y2987500D01*
X2680000Y2755000D02*
X2755000D01*
X2717500Y2717500D02*
Y2792500D01*
X2662500Y2660000D02*
Y2850000D01*
X2772500D01*
Y2660000D02*
Y2850000D01*
X2662500Y2660000D02*
X2772500D01*
X1785000Y5182499D02*
Y5332499D01*
X2085000Y5182499D02*
Y5332499D01*
X1785000D02*
X2085000D01*
X1785000Y5182499D02*
X2085000D01*
X1887500Y5257500D02*
X1982500D01*
X1935000Y5209999D02*
Y5304999D01*
X3442500Y3150000D02*
X3542500D01*
X3442500Y2940000D02*
X3542500D01*
Y3150000D01*
X3442500Y2940000D02*
Y3150000D01*
X3492500Y3010000D02*
Y3080000D01*
X3457500Y3045000D02*
X3527500D01*
X3342501Y2940000D02*
X3442500D01*
X3342501Y3150000D02*
X3442500D01*
X3342501Y2940000D02*
Y3150000D01*
X3442500Y2940000D02*
Y3150000D01*
X3392501Y3010000D02*
Y3080000D01*
X3357501Y3045000D02*
X3427501D01*
X2927500Y3062500D02*
Y3137500D01*
X2890000Y3100000D02*
X2965000D01*
X2832500Y3045000D02*
X3022500D01*
X2832500D02*
Y3155000D01*
X3022500D01*
Y3045000D02*
Y3155000D01*
X2387500Y4109999D02*
Y4339999D01*
X1917500Y4109999D02*
Y4339999D01*
Y4109999D02*
X2387500D01*
X1917500Y4339999D02*
X2387500D01*
X2102500Y4224999D02*
X2202500D01*
X2152500Y4174999D02*
Y4274999D01*
X1712500Y4215000D02*
X1812500D01*
X1712500Y4425000D02*
X1812500D01*
X1712500Y4215000D02*
Y4425000D01*
X1812500Y4215000D02*
Y4425000D01*
X1762500Y4285000D02*
Y4355000D01*
X1727500Y4320000D02*
X1797500D01*
X1425000Y940000D02*
Y1015000D01*
X1387500Y977500D02*
X1462500D01*
X1330000Y1032500D02*
X1520000D01*
Y922500D02*
Y1032500D01*
X1330000Y922500D02*
X1520000D01*
X1330000D02*
Y1032500D01*
X1217500Y1392500D02*
X1317500D01*
X1217500Y1182500D02*
X1317500D01*
Y1392500D01*
X1217500Y1182500D02*
Y1392500D01*
X1267500Y1252500D02*
Y1322500D01*
X1232500Y1287500D02*
X1302500D01*
X1412500Y1302500D02*
Y1377500D01*
X1375000Y1340000D02*
X1450000D01*
X1317500Y1395000D02*
X1507500D01*
Y1285000D02*
Y1395000D01*
X1317500Y1285000D02*
X1507500D01*
X1317500D02*
Y1395000D01*
X1470000Y737500D02*
Y837500D01*
X1260000Y737500D02*
Y837500D01*
Y737500D02*
X1470000D01*
X1260000Y837500D02*
X1470000D01*
X1330000Y787500D02*
X1400000D01*
X1365000Y752500D02*
Y822500D01*
X3005000Y1812500D02*
Y1887500D01*
X2967500Y1850000D02*
X3042500D01*
X2910000Y1905000D02*
X3100000D01*
Y1795000D02*
Y1905000D01*
X2910000Y1795000D02*
X3100000D01*
X2910000D02*
Y1905000D01*
X1790000Y4425000D02*
Y4525000D01*
X2000000Y4425000D02*
Y4525000D01*
X1790000D02*
X2000000D01*
X1790000Y4425000D02*
X2000000D01*
X1860000Y4475000D02*
X1930000D01*
X1895000Y4440000D02*
Y4510000D01*
X2477500Y2560000D02*
Y2660000D01*
X2687500Y2560000D02*
Y2660000D01*
X2477500D02*
X2687500D01*
X2477500Y2560000D02*
X2687500D01*
X2547500Y2610000D02*
X2617500D01*
X2582500Y2575000D02*
Y2645000D01*
X3555000Y3095000D02*
Y3195000D01*
X3765000Y3095000D02*
Y3195000D01*
X3555000D02*
X3765000D01*
X3555000Y3095000D02*
X3765000D01*
X3625000Y3145000D02*
X3695000D01*
X3660000Y3110000D02*
Y3180000D01*
X3765000Y3397500D02*
Y3497500D01*
X3555000Y3397500D02*
Y3497500D01*
Y3397500D02*
X3765000D01*
X3555000Y3497500D02*
X3765000D01*
X3625000Y3447500D02*
X3695000D01*
X3660000Y3412500D02*
Y3482500D01*
X1080000Y537500D02*
Y637500D01*
X1290000Y537500D02*
Y637500D01*
X1080000D02*
X1290000D01*
X1080000Y537500D02*
X1290000D01*
X1150000Y587500D02*
X1220000D01*
X1185000Y552500D02*
Y622500D01*
X1922500Y222500D02*
Y322500D01*
X1712500Y222500D02*
Y322500D01*
Y222500D02*
X1922500D01*
X1712500Y322500D02*
X1922500D01*
X1782500Y272500D02*
X1852500D01*
X1817500Y237500D02*
Y307500D01*
X1785000Y5322499D02*
Y5472499D01*
X2085000Y5322499D02*
Y5472499D01*
X1785000D02*
X2085000D01*
X1785000Y5322499D02*
X2085000D01*
X1887500Y5397499D02*
X1982500D01*
X1935000Y5349999D02*
Y5444999D01*
X987500Y1940000D02*
Y2040000D01*
X777500Y1940000D02*
Y2040000D01*
Y1940000D02*
X987500D01*
X777500Y2040000D02*
X987500D01*
X847500Y1990000D02*
X917500D01*
X882500Y1955000D02*
Y2025000D01*
D141*
X-144620Y3852511D02*
Y4882511D01*
Y3852511D02*
X502505D01*
Y4882511D01*
X-144620D02*
X502505D01*
%TF.MD5,33518cf42b1fe1b0df906c5f602ce11d*%
M02*
