%TF.GenerationSoftware,Altium Limited,Altium Designer,20.1.12 (249)*%
G04 Layer_Color=16711935*
%FSLAX45Y45*%
%MOMM*%
%TF.SameCoordinates,4EE8302A-A9A8-49E0-93C5-14594FCB678D*%
%TF.FilePolarity,Negative*%
%TF.FileFunction,Soldermask,Bot*%
%TF.Part,Single*%
G01*
G75*
%TA.AperFunction,ViaPad*%
%ADD69C,0.50000*%
%TA.AperFunction,SMDPad,CuDef*%
G04:AMPARAMS|DCode=75|XSize=0.82mm|YSize=0.97mm|CornerRadius=0.13mm|HoleSize=0mm|Usage=FLASHONLY|Rotation=0.000|XOffset=0mm|YOffset=0mm|HoleType=Round|Shape=RoundedRectangle|*
%AMROUNDEDRECTD75*
21,1,0.82000,0.71000,0,0,0.0*
21,1,0.56000,0.97000,0,0,0.0*
1,1,0.26000,0.28000,-0.35500*
1,1,0.26000,-0.28000,-0.35500*
1,1,0.26000,-0.28000,0.35500*
1,1,0.26000,0.28000,0.35500*
%
%ADD75ROUNDEDRECTD75*%
G04:AMPARAMS|DCode=76|XSize=3.52mm|YSize=1.32mm|CornerRadius=0.18mm|HoleSize=0mm|Usage=FLASHONLY|Rotation=180.000|XOffset=0mm|YOffset=0mm|HoleType=Round|Shape=RoundedRectangle|*
%AMROUNDEDRECTD76*
21,1,3.52000,0.96000,0,0,180.0*
21,1,3.16000,1.32000,0,0,180.0*
1,1,0.36000,-1.58000,0.48000*
1,1,0.36000,1.58000,0.48000*
1,1,0.36000,1.58000,-0.48000*
1,1,0.36000,-1.58000,-0.48000*
%
%ADD76ROUNDEDRECTD76*%
G04:AMPARAMS|DCode=77|XSize=1.12mm|YSize=1.12mm|CornerRadius=0.16mm|HoleSize=0mm|Usage=FLASHONLY|Rotation=180.000|XOffset=0mm|YOffset=0mm|HoleType=Round|Shape=RoundedRectangle|*
%AMROUNDEDRECTD77*
21,1,1.12000,0.80000,0,0,180.0*
21,1,0.80000,1.12000,0,0,180.0*
1,1,0.32000,-0.40000,0.40000*
1,1,0.32000,0.40000,0.40000*
1,1,0.32000,0.40000,-0.40000*
1,1,0.32000,-0.40000,-0.40000*
%
%ADD77ROUNDEDRECTD77*%
G04:AMPARAMS|DCode=78|XSize=1.02mm|YSize=1.12mm|CornerRadius=0.15mm|HoleSize=0mm|Usage=FLASHONLY|Rotation=270.000|XOffset=0mm|YOffset=0mm|HoleType=Round|Shape=RoundedRectangle|*
%AMROUNDEDRECTD78*
21,1,1.02000,0.82000,0,0,270.0*
21,1,0.72000,1.12000,0,0,270.0*
1,1,0.30000,-0.41000,-0.36000*
1,1,0.30000,-0.41000,0.36000*
1,1,0.30000,0.41000,0.36000*
1,1,0.30000,0.41000,-0.36000*
%
%ADD78ROUNDEDRECTD78*%
G04:AMPARAMS|DCode=79|XSize=0.62mm|YSize=0.77mm|CornerRadius=0.11mm|HoleSize=0mm|Usage=FLASHONLY|Rotation=90.000|XOffset=0mm|YOffset=0mm|HoleType=Round|Shape=RoundedRectangle|*
%AMROUNDEDRECTD79*
21,1,0.62000,0.55000,0,0,90.0*
21,1,0.40000,0.77000,0,0,90.0*
1,1,0.22000,0.27500,0.20000*
1,1,0.22000,0.27500,-0.20000*
1,1,0.22000,-0.27500,-0.20000*
1,1,0.22000,-0.27500,0.20000*
%
%ADD79ROUNDEDRECTD79*%
G04:AMPARAMS|DCode=80|XSize=0.7mm|YSize=0.6mm|CornerRadius=0.1mm|HoleSize=0mm|Usage=FLASHONLY|Rotation=270.000|XOffset=0mm|YOffset=0mm|HoleType=Round|Shape=RoundedRectangle|*
%AMROUNDEDRECTD80*
21,1,0.70000,0.40000,0,0,270.0*
21,1,0.50000,0.60000,0,0,270.0*
1,1,0.20000,-0.20000,-0.25000*
1,1,0.20000,-0.20000,0.25000*
1,1,0.20000,0.20000,0.25000*
1,1,0.20000,0.20000,-0.25000*
%
%ADD80ROUNDEDRECTD80*%
G04:AMPARAMS|DCode=81|XSize=1.02mm|YSize=1.12mm|CornerRadius=0.15mm|HoleSize=0mm|Usage=FLASHONLY|Rotation=180.000|XOffset=0mm|YOffset=0mm|HoleType=Round|Shape=RoundedRectangle|*
%AMROUNDEDRECTD81*
21,1,1.02000,0.82000,0,0,180.0*
21,1,0.72000,1.12000,0,0,180.0*
1,1,0.30000,-0.36000,0.41000*
1,1,0.30000,0.36000,0.41000*
1,1,0.30000,0.36000,-0.41000*
1,1,0.30000,-0.36000,-0.41000*
%
%ADD81ROUNDEDRECTD81*%
G04:AMPARAMS|DCode=82|XSize=0.62mm|YSize=0.77mm|CornerRadius=0.11mm|HoleSize=0mm|Usage=FLASHONLY|Rotation=180.000|XOffset=0mm|YOffset=0mm|HoleType=Round|Shape=RoundedRectangle|*
%AMROUNDEDRECTD82*
21,1,0.62000,0.55000,0,0,180.0*
21,1,0.40000,0.77000,0,0,180.0*
1,1,0.22000,-0.20000,0.27500*
1,1,0.22000,0.20000,0.27500*
1,1,0.22000,0.20000,-0.27500*
1,1,0.22000,-0.20000,-0.27500*
%
%ADD82ROUNDEDRECTD82*%
G04:AMPARAMS|DCode=83|XSize=1.12mm|YSize=1.12mm|CornerRadius=0.16mm|HoleSize=0mm|Usage=FLASHONLY|Rotation=270.000|XOffset=0mm|YOffset=0mm|HoleType=Round|Shape=RoundedRectangle|*
%AMROUNDEDRECTD83*
21,1,1.12000,0.80000,0,0,270.0*
21,1,0.80000,1.12000,0,0,270.0*
1,1,0.32000,-0.40000,-0.40000*
1,1,0.32000,-0.40000,0.40000*
1,1,0.32000,0.40000,0.40000*
1,1,0.32000,0.40000,-0.40000*
%
%ADD83ROUNDEDRECTD83*%
%TA.AperFunction,ComponentPad*%
%ADD84C,1.52000*%
%ADD85C,0.82000*%
%ADD86C,1.72000*%
%TA.AperFunction,WasherPad*%
%ADD87C,3.12000*%
D69*
X1866500Y792500D02*
D03*
Y904000D02*
D03*
Y1041000D02*
D03*
Y1152500D02*
D03*
X2003500Y792500D02*
D03*
Y904000D02*
D03*
Y1041000D02*
D03*
Y1152500D02*
D03*
X1755000Y904000D02*
D03*
Y1041000D02*
D03*
X2115000Y904000D02*
D03*
Y1041000D02*
D03*
D75*
X860000Y1321000D02*
D03*
Y1204000D02*
D03*
X870000Y2204000D02*
D03*
Y2321000D02*
D03*
D76*
X620000Y2412500D02*
D03*
Y2152500D02*
D03*
X610000Y1380000D02*
D03*
Y1120000D02*
D03*
D77*
X1422500Y1412500D02*
D03*
Y1252500D02*
D03*
X200000Y2362500D02*
D03*
Y2202500D02*
D03*
X197500Y1365000D02*
D03*
Y1205000D02*
D03*
X1865000Y345000D02*
D03*
Y505000D02*
D03*
D78*
X357500Y2192500D02*
D03*
Y2362500D02*
D03*
X200000Y1897500D02*
D03*
Y2067500D02*
D03*
X337500Y2720000D02*
D03*
Y2550000D02*
D03*
X197500Y900000D02*
D03*
Y1070000D02*
D03*
X332500Y1675000D02*
D03*
Y1505000D02*
D03*
X347500Y1365000D02*
D03*
Y1195000D02*
D03*
X1562500Y1645000D02*
D03*
Y1475000D02*
D03*
X1400000Y857500D02*
D03*
Y1027500D02*
D03*
X1637500Y417500D02*
D03*
Y587500D02*
D03*
X1805000Y1435000D02*
D03*
Y1605000D02*
D03*
D79*
X1562500Y1320000D02*
D03*
Y1230000D02*
D03*
X462500Y2625000D02*
D03*
Y2535000D02*
D03*
X332500Y1977500D02*
D03*
Y2067500D02*
D03*
X457500Y1582500D02*
D03*
Y1492500D02*
D03*
X330000Y980000D02*
D03*
Y1070000D02*
D03*
X2207500Y350000D02*
D03*
Y440000D02*
D03*
X1865000Y715000D02*
D03*
Y625000D02*
D03*
X2107500Y1230000D02*
D03*
Y1320000D02*
D03*
X1660000Y1230000D02*
D03*
Y1320000D02*
D03*
X1912500Y1230000D02*
D03*
Y1320000D02*
D03*
X1760000Y715000D02*
D03*
Y625000D02*
D03*
X1762500Y1320000D02*
D03*
Y1230000D02*
D03*
X1960000Y625000D02*
D03*
Y715000D02*
D03*
X2010000Y1320000D02*
D03*
Y1230000D02*
D03*
D80*
X2342500Y1325000D02*
D03*
Y1425000D02*
D03*
X2197500Y1430000D02*
D03*
Y1330000D02*
D03*
X2102500Y440000D02*
D03*
Y340000D02*
D03*
X2102500Y130000D02*
D03*
Y230000D02*
D03*
D81*
X2180000Y1640000D02*
D03*
X2010000D02*
D03*
X2440000Y1075000D02*
D03*
X2610000D02*
D03*
D82*
X2085000Y1515000D02*
D03*
X1995000D02*
D03*
X1677500Y847500D02*
D03*
X1587500D02*
D03*
X1677500Y1097500D02*
D03*
X1587500D02*
D03*
X1677500Y947500D02*
D03*
X1587500D02*
D03*
X2280000Y1075000D02*
D03*
X2190000D02*
D03*
X2280000Y887500D02*
D03*
X2190000D02*
D03*
X2280000Y977500D02*
D03*
X2190000D02*
D03*
D83*
X1587500Y722500D02*
D03*
X1427500D02*
D03*
X2605000Y935000D02*
D03*
X2445000D02*
D03*
D84*
X652500Y3385000D02*
D03*
X252500D02*
D03*
D85*
X390008Y4160019D02*
D03*
Y4575004D02*
D03*
D86*
X3310000Y3920000D02*
D03*
X3010000D02*
D03*
X2710000D02*
D03*
X3610000D02*
D03*
X3032500Y1550000D02*
D03*
X2485000Y1370000D02*
D03*
D87*
X3550000Y5250000D02*
D03*
X350000D02*
D03*
X1800000Y2450000D02*
D03*
X350000Y350000D02*
D03*
%TF.MD5,6c8458aeadb07db4f3bef58ad63e1590*%
M02*
