%TF.GenerationSoftware,Altium Limited,Altium Designer,20.1.12 (249)*%
G04 Layer_Color=128*
%FSLAX45Y45*%
%MOMM*%
%TF.SameCoordinates,4EE8302A-A9A8-49E0-93C5-14594FCB678D*%
%TF.FilePolarity,Positive*%
%TF.FileFunction,Drillmap*%
%TF.Part,Single*%
G01*
G75*
%TA.AperFunction,NonConductor*%
%ADD141C,0.12700*%
D141*
X582500Y3385000D02*
X722500D01*
X652500Y3315000D02*
Y3455000D01*
X182500Y3385000D02*
X322500D01*
X252500Y3315000D02*
Y3455000D01*
X355008Y4160019D02*
X425008D01*
X390008Y4125019D02*
Y4195019D01*
X355008Y4575004D02*
X425008D01*
X390008Y4540004D02*
Y4610004D01*
X3270000Y3920000D02*
X3350000D01*
X3310000Y3880000D02*
Y3960000D01*
X2970000Y3920000D02*
X3050000D01*
X3010000Y3880000D02*
Y3960000D01*
X2670000Y3920000D02*
X2750000D01*
X2710000Y3880000D02*
Y3960000D01*
X3570000Y3920000D02*
X3650000D01*
X3610000Y3880000D02*
Y3960000D01*
X2992500Y1550000D02*
X3072500D01*
X3032500Y1510000D02*
Y1590000D01*
X2445000Y1370000D02*
X2525000D01*
X2485000Y1330000D02*
Y1410000D01*
X3380000Y5250000D02*
X3720000D01*
X3550000Y5080000D02*
Y5420000D01*
X180000Y5250000D02*
X520000D01*
X350000Y5080000D02*
Y5420000D01*
X1630000Y2450000D02*
X1970000D01*
X1800000Y2280000D02*
Y2620000D01*
X180000Y350000D02*
X520000D01*
X350000Y180000D02*
Y520000D01*
X860000Y2405000D02*
X875000D01*
X867500Y2397500D02*
Y2412500D01*
X827500Y1412500D02*
X842500D01*
X835000Y1405000D02*
Y1420000D01*
X2350000Y502500D02*
X2365000D01*
X2357500Y495000D02*
Y510000D01*
X2350000Y625000D02*
X2365000D01*
X2357500Y617500D02*
Y632500D01*
X1715000Y1695000D02*
X1730000D01*
X1722500Y1687500D02*
Y1702500D01*
X2415001Y532500D02*
X2430000D01*
X2422500Y525000D02*
Y540000D01*
X2415001Y597500D02*
X2430000D01*
X2422500Y590000D02*
Y605000D01*
X3087500Y1235000D02*
X3102500D01*
X3095000Y1227500D02*
Y1242500D01*
X3087500Y1170000D02*
X3102500D01*
X3095000Y1162500D02*
Y1177500D01*
X1859000Y792500D02*
X1874000D01*
X1866500Y785000D02*
Y800000D01*
X1859000Y904000D02*
X1874000D01*
X1866500Y896500D02*
Y911500D01*
X1859000Y1041000D02*
X1874000D01*
X1866500Y1033500D02*
Y1048500D01*
X1859000Y1152500D02*
X1874000D01*
X1866500Y1145000D02*
Y1160000D01*
X1996000Y792500D02*
X2011000D01*
X2003500Y785000D02*
Y800000D01*
X1996000Y904000D02*
X2011000D01*
X2003500Y896500D02*
Y911500D01*
X1996000Y1041000D02*
X2011000D01*
X2003500Y1033500D02*
Y1048500D01*
X1996000Y1152500D02*
X2011000D01*
X2003500Y1145000D02*
Y1160000D01*
X1747500Y904000D02*
X1762500D01*
X1755000Y896500D02*
Y911500D01*
X1747500Y1041000D02*
X1762500D01*
X1755000Y1033500D02*
Y1048500D01*
X2107500Y904000D02*
X2122500D01*
X2115000Y896500D02*
Y911500D01*
X2107500Y1041000D02*
X2122500D01*
X2115000Y1033500D02*
Y1048500D01*
X1912500Y4732500D02*
X1927500D01*
X1920000Y4725000D02*
Y4740000D01*
X1962500Y4682500D02*
X1977500D01*
X1970000Y4675000D02*
Y4690000D01*
X1862500Y4682499D02*
X1877500D01*
X1870000Y4675000D02*
Y4689999D01*
X1862500Y4782499D02*
X1877500D01*
X1870000Y4775000D02*
Y4789999D01*
X1962500Y4782500D02*
X1977500D01*
X1970000Y4775000D02*
Y4790000D01*
X2067500Y4372500D02*
X2082500D01*
X2075000Y4365000D02*
Y4380000D01*
X2067500Y4440000D02*
X2082500D01*
X2075000Y4432500D02*
Y4447500D01*
X2067500Y4507500D02*
X2082500D01*
X2075000Y4500000D02*
Y4515000D01*
X2067500Y4575000D02*
X2082500D01*
X2075000Y4567500D02*
Y4582500D01*
X2770000Y1475000D02*
X2785000D01*
X2777500Y1467500D02*
Y1482500D01*
X1757501Y5397499D02*
X1772500D01*
X1765001Y5390000D02*
Y5404999D01*
X145000Y2555000D02*
X160000D01*
X152500Y2547500D02*
Y2562500D01*
X647500Y2935000D02*
X662500D01*
X655000Y2927500D02*
Y2942500D01*
X395000Y2935000D02*
X410000D01*
X402500Y2927500D02*
Y2942500D01*
X820000Y2787500D02*
X835000D01*
X827500Y2780000D02*
Y2795000D01*
X992500Y2935000D02*
X1007500D01*
X1000000Y2927500D02*
Y2942500D01*
X1267500Y2850000D02*
X1282500D01*
X1275000Y2842500D02*
Y2857500D01*
X620000Y2555000D02*
X635000D01*
X627500Y2547500D02*
Y2562500D01*
X450000Y1675000D02*
X465000D01*
X457500Y1667500D02*
Y1682500D01*
X455000Y2720000D02*
X470000D01*
X462500Y2712500D02*
Y2727500D01*
X322500Y900000D02*
X337500D01*
X330000Y892500D02*
Y907500D01*
X325000Y1897500D02*
X340000D01*
X332500Y1890000D02*
Y1905000D01*
X2265000Y3424999D02*
X2280000D01*
X2272500Y3417500D02*
Y3432499D01*
X2922500Y2021250D02*
X2937500D01*
X2930000Y2013750D02*
Y2028750D01*
X620000Y1807500D02*
X635000D01*
X627500Y1800000D02*
Y1815000D01*
X145000Y1807500D02*
X160000D01*
X152500Y1800000D02*
Y1815000D01*
X755000Y1990000D02*
X770000D01*
X762500Y1982500D02*
Y1997500D01*
X755000Y995000D02*
X770000D01*
X762500Y987500D02*
Y1002500D01*
X620000Y807500D02*
X635000D01*
X627500Y800000D02*
Y815000D01*
X145000Y807500D02*
X160000D01*
X152500Y800000D02*
Y815000D01*
X620000Y1555000D02*
X635000D01*
X627500Y1547500D02*
Y1562500D01*
X145000Y1555000D02*
X160000D01*
X152500Y1547500D02*
Y1562500D01*
X1407500Y2850000D02*
X1422500D01*
X1415000Y2842500D02*
Y2857500D01*
X1337500Y2850000D02*
X1352500D01*
X1345000Y2842500D02*
Y2857500D01*
X3244669Y3392500D02*
X3259668D01*
X3252169Y3385000D02*
Y3400000D01*
X3263750Y3327500D02*
X3278750D01*
X3271250Y3320000D02*
Y3335000D01*
X3320000Y3262500D02*
X3335000D01*
X3327500Y3255000D02*
Y3270000D01*
X3035001Y3100000D02*
X3050000D01*
X3042500Y3092500D02*
Y3107500D01*
X3210000Y3457500D02*
X3225000D01*
X3217500Y3450000D02*
Y3465000D01*
X3165000Y3522500D02*
X3180000D01*
X3172500Y3515000D02*
Y3530000D01*
X3087500Y3589681D02*
X3102500D01*
X3095000Y3582181D02*
Y3597181D01*
X2782500Y2710000D02*
X2797500D01*
X2790000Y2702500D02*
Y2717500D01*
X2623693Y1761193D02*
X2638693D01*
X2631193Y1753693D02*
Y1768693D01*
X2777636Y1540075D02*
X2792636D01*
X2785136Y1532575D02*
Y1547575D01*
X2145000Y1515000D02*
X2160000D01*
X2152500Y1507500D02*
Y1522500D01*
X2875001Y3020001D02*
X2890000D01*
X2882500Y3012501D02*
Y3027500D01*
X2520000Y3292500D02*
X2535000D01*
X2527500Y3285000D02*
Y3300000D01*
X2567500Y3457500D02*
X2582500D01*
X2575000Y3450000D02*
Y3465000D01*
X2760000Y3652500D02*
X2775000D01*
X2767500Y3645000D02*
Y3660000D01*
X2760000Y3587500D02*
X2775000D01*
X2767500Y3580000D02*
Y3595000D01*
X2620000Y3522500D02*
X2635000D01*
X2627500Y3515000D02*
Y3530000D01*
X3185000Y2665000D02*
X3200000D01*
X3192500Y2657500D02*
Y2672500D01*
X3250000Y2600000D02*
X3265000D01*
X3257500Y2592500D02*
Y2607500D01*
X3315000Y2995000D02*
X3330000D01*
X3322500Y2987500D02*
Y3002500D01*
X3555001Y2995000D02*
X3570000D01*
X3562500Y2987500D02*
Y3002500D01*
X2155000Y715000D02*
X2170000D01*
X2162500Y707500D02*
Y722500D01*
X2092500Y537500D02*
X2107500D01*
X2100000Y530000D02*
Y545000D01*
X2027500Y707500D02*
X2042500D01*
X2035000Y700000D02*
Y715000D01*
X2782500Y2800000D02*
X2797500D01*
X2790000Y2792500D02*
Y2807500D01*
X1327500Y715000D02*
X1342500D01*
X1335000Y707500D02*
Y722500D01*
X2688646Y958854D02*
X2703646D01*
X2696146Y951354D02*
Y966354D01*
X2687500Y1050000D02*
X2702500D01*
X2695000Y1042500D02*
Y1057500D01*
X2255000Y1320000D02*
X2270000D01*
X2262500Y1312500D02*
Y1327500D01*
X3575000Y3652500D02*
X3590000D01*
X3582500Y3645000D02*
Y3660000D01*
X3777500Y3245000D02*
X3792500D01*
X3785000Y3237500D02*
Y3252500D01*
X3777500Y3345000D02*
X3792500D01*
X3785000Y3337500D02*
Y3352500D01*
X3702501Y3517500D02*
X3717500D01*
X3710000Y3510000D02*
Y3525000D01*
X3702500Y3075000D02*
X3717500D01*
X3710000Y3067500D02*
Y3082500D01*
X2885000Y1850000D02*
X2900000D01*
X2892500Y1842500D02*
Y1857500D01*
X3250000Y2535000D02*
X3265000D01*
X3257500Y2527500D02*
Y2542500D01*
X3185000Y2600000D02*
X3200000D01*
X3192500Y2592500D02*
Y2607500D01*
X3185000Y2535000D02*
X3200000D01*
X3192500Y2527500D02*
Y2542500D01*
X3377500Y450000D02*
X3392500D01*
X3385000Y442500D02*
Y457500D01*
X3377500Y750000D02*
X3392500D01*
X3385000Y742500D02*
Y757500D01*
X3107500Y450000D02*
X3122500D01*
X3115000Y442500D02*
Y457500D01*
X3377500Y1050000D02*
X3392500D01*
X3385000Y1042500D02*
Y1057500D01*
X3107500Y750000D02*
X3122500D01*
X3115000Y742500D02*
Y757500D01*
X2275000Y350000D02*
X2290000D01*
X2282500Y342500D02*
Y357500D01*
X2025001Y130000D02*
X2040000D01*
X2032500Y122500D02*
Y137500D01*
X1720084Y397519D02*
X1735084D01*
X1727584Y390020D02*
Y405019D01*
X1725000Y142500D02*
X1740000D01*
X1732500Y135000D02*
Y150000D01*
X1764941Y444586D02*
X1779941D01*
X1772441Y437086D02*
Y452086D01*
X1752500Y552500D02*
X1767500D01*
X1760000Y545000D02*
Y560000D01*
X1607500Y1384519D02*
X1622500D01*
X1615000Y1377019D02*
Y1392019D01*
X1990000Y1750000D02*
X2005000D01*
X1997500Y1742500D02*
Y1757500D01*
X1707500Y1605000D02*
X1722499D01*
X1715000Y1597500D02*
Y1612500D01*
X2260000Y3007500D02*
X2275000D01*
X2267500Y3000000D02*
Y3015000D01*
X2195000Y2585000D02*
X2210000D01*
X2202500Y2577500D02*
Y2592500D01*
X2120000Y2740000D02*
X2135000D01*
X2127500Y2732500D02*
Y2747500D01*
X1182500Y270000D02*
X1197500D01*
X1190000Y262500D02*
Y277500D01*
X1010000Y805000D02*
X1025000D01*
X1017500Y797500D02*
Y812500D01*
X890000Y562500D02*
X905000D01*
X897500Y555000D02*
Y570000D01*
X902500Y270000D02*
X917500D01*
X910000Y262500D02*
Y277500D01*
X1197500Y382500D02*
X1212500D01*
X1205000Y375000D02*
Y390000D01*
X1545000Y487500D02*
X1560000D01*
X1552500Y480000D02*
Y495000D01*
X1327500Y635000D02*
X1342500D01*
X1335000Y627500D02*
Y642500D01*
X1420000Y632500D02*
X1435000D01*
X1427500Y625001D02*
Y640000D01*
X3082500Y2097501D02*
X3097499D01*
X3089999Y2090001D02*
Y2105000D01*
X3172500Y1917500D02*
X3187500D01*
X3180000Y1910000D02*
Y1925000D01*
X3107500Y1850000D02*
X3122500D01*
X3115000Y1842500D02*
Y1857500D01*
X3107500Y1917500D02*
X3122500D01*
X3115000Y1910000D02*
Y1925000D01*
X3377500Y1850000D02*
X3392500D01*
X3385000Y1842500D02*
Y1857500D01*
X1494956Y834435D02*
X1509956D01*
X1502456Y826935D02*
Y841935D01*
X1495177Y899434D02*
X1510177D01*
X1502677Y891934D02*
Y906934D01*
X2002500Y390000D02*
X2017500D01*
X2010000Y382500D02*
Y397500D01*
X1952500Y345000D02*
X1967500D01*
X1960000Y337500D02*
Y352500D01*
X1320000Y480000D02*
X1335000D01*
X1327500Y472500D02*
Y487500D01*
X1470325Y1147500D02*
X1485325D01*
X1477825Y1140000D02*
Y1155000D01*
X1297500Y857500D02*
X1312500D01*
X1305000Y850000D02*
Y865000D01*
X1677500Y715000D02*
X1692500D01*
X1685000Y707500D02*
Y722500D01*
X1460001Y1645000D02*
X1475000D01*
X1467500Y1637500D02*
Y1652500D01*
X1320000Y1412500D02*
X1335000D01*
X1327500Y1405000D02*
Y1420000D01*
X2058714Y1441850D02*
X2073713D01*
X2066214Y1434350D02*
Y1449350D01*
X1960261Y1437239D02*
X1975260D01*
X1967761Y1429740D02*
Y1444739D01*
X3377500Y1350000D02*
X3392500D01*
X3385000Y1342500D02*
Y1357500D01*
X3107500Y1350000D02*
X3122500D01*
X3115000Y1342500D02*
Y1357500D01*
X3107500Y1050000D02*
X3122500D01*
X3115000Y1042500D02*
Y1057500D01*
X1932500Y2997500D02*
X1947500D01*
X1940000Y2990000D02*
Y3005000D01*
X1932500Y2932500D02*
X1947500D01*
X1940000Y2925000D02*
Y2940000D01*
X1932500Y3062500D02*
X1947500D01*
X1940000Y3055000D02*
Y3070000D01*
X1947500Y3735000D02*
X1962500D01*
X1955000Y3727500D02*
Y3742500D01*
X1947500Y3670000D02*
X1962500D01*
X1955000Y3662500D02*
Y3677500D01*
X1947500Y3605000D02*
X1962500D01*
X1955000Y3597500D02*
Y3612500D01*
X1947500Y3540000D02*
X1962500D01*
X1955000Y3532500D02*
Y3547500D01*
X2347501Y1047500D02*
X2362500D01*
X2355000Y1040000D02*
Y1055000D01*
X2347500Y897500D02*
X2362500D01*
X2355000Y890000D02*
Y905000D01*
X1702500Y1438084D02*
X1717500D01*
X1710000Y1430584D02*
Y1445584D01*
X1952501Y552500D02*
X1967500D01*
X1960000Y545000D02*
Y560000D01*
X1806500Y5027499D02*
X1821500D01*
X1814000Y5020000D02*
Y5034999D01*
X1757501Y5257500D02*
X1772500D01*
X1765001Y5250000D02*
Y5264999D01*
X952500Y4157500D02*
X967500D01*
X960000Y4150000D02*
Y4165000D01*
X952500Y4082500D02*
X967500D01*
X960000Y4075000D02*
Y4090000D01*
X952500Y4232500D02*
X967500D01*
X960000Y4225000D02*
Y4240000D01*
X1120000Y3495000D02*
X1135000D01*
X1127500Y3487500D02*
Y3502500D01*
X1120000Y3320000D02*
X1135000D01*
X1127500Y3312500D02*
Y3327500D01*
X1120001Y3405000D02*
X1135000D01*
X1127500Y3397500D02*
Y3412500D01*
X395000Y3715000D02*
X410000D01*
X402500Y3707500D02*
Y3722500D01*
X1410000Y480000D02*
X1425000D01*
X1417500Y472500D02*
Y487500D01*
X787500Y5320000D02*
X802500D01*
X795000Y5312500D02*
Y5327500D01*
X717500Y5425000D02*
X732500D01*
X725000Y5417500D02*
Y5432500D01*
X967500Y5320000D02*
X982500D01*
X975000Y5312500D02*
Y5327500D01*
X907500Y5320000D02*
X922500D01*
X915000Y5312500D02*
Y5327500D01*
X847500Y5320000D02*
X862500D01*
X855000Y5312500D02*
Y5327500D01*
X3170001Y2335001D02*
X3185000D01*
X3177500Y2327501D02*
Y2342501D01*
X3015000Y2327501D02*
X3030000D01*
X3022500Y2320001D02*
Y2335000D01*
X1377500Y4287500D02*
X1392500D01*
X1385000Y4280000D02*
Y4295000D01*
X1632500Y4334999D02*
X1647500D01*
X1640000Y4327500D02*
Y4342499D01*
X1755000Y4192500D02*
X1770000D01*
X1762500Y4185000D02*
Y4199999D01*
X1732500Y5104999D02*
X1747500D01*
X1740000Y5097500D02*
Y5112499D01*
X1582501Y4810000D02*
X1597500D01*
X1590000Y4802500D02*
Y4817500D01*
%TF.MD5,274673d2e308366fdffc5b797e5a7066*%
M02*
