%TF.GenerationSoftware,Altium Limited,Altium Designer,20.1.12 (249)*%
G04 Layer_Physical_Order=1*
G04 Layer_Color=255*
%FSLAX45Y45*%
%MOMM*%
%TF.SameCoordinates,4EE8302A-A9A8-49E0-93C5-14594FCB678D*%
%TF.FilePolarity,Positive*%
%TF.FileFunction,Copper,L1,Top,Signal*%
%TF.Part,Single*%
G01*
G75*
%TA.AperFunction,Conductor*%
%ADD10C,0.13014*%
%TA.AperFunction,SMDPad,CuDef*%
G04:AMPARAMS|DCode=11|XSize=1.8mm|YSize=1.3mm|CornerRadius=0.13mm|HoleSize=0mm|Usage=FLASHONLY|Rotation=270.000|XOffset=0mm|YOffset=0mm|HoleType=Round|Shape=RoundedRectangle|*
%AMROUNDEDRECTD11*
21,1,1.80000,1.04000,0,0,270.0*
21,1,1.54000,1.30000,0,0,270.0*
1,1,0.26000,-0.52000,-0.77000*
1,1,0.26000,-0.52000,0.77000*
1,1,0.26000,0.52000,0.77000*
1,1,0.26000,0.52000,-0.77000*
%
%ADD11ROUNDEDRECTD11*%
G04:AMPARAMS|DCode=12|XSize=1.3mm|YSize=1.5mm|CornerRadius=0.13mm|HoleSize=0mm|Usage=FLASHONLY|Rotation=0.000|XOffset=0mm|YOffset=0mm|HoleType=Round|Shape=RoundedRectangle|*
%AMROUNDEDRECTD12*
21,1,1.30000,1.24000,0,0,0.0*
21,1,1.04000,1.50000,0,0,0.0*
1,1,0.26000,0.52000,-0.62000*
1,1,0.26000,-0.52000,-0.62000*
1,1,0.26000,-0.52000,0.62000*
1,1,0.26000,0.52000,0.62000*
%
%ADD12ROUNDEDRECTD12*%
G04:AMPARAMS|DCode=13|XSize=0.9mm|YSize=1mm|CornerRadius=0.09mm|HoleSize=0mm|Usage=FLASHONLY|Rotation=90.000|XOffset=0mm|YOffset=0mm|HoleType=Round|Shape=RoundedRectangle|*
%AMROUNDEDRECTD13*
21,1,0.90000,0.82000,0,0,90.0*
21,1,0.72000,1.00000,0,0,90.0*
1,1,0.18000,0.41000,0.36000*
1,1,0.18000,0.41000,-0.36000*
1,1,0.18000,-0.41000,-0.36000*
1,1,0.18000,-0.41000,0.36000*
%
%ADD13ROUNDEDRECTD13*%
G04:AMPARAMS|DCode=14|XSize=3.4mm|YSize=1.2mm|CornerRadius=0.06mm|HoleSize=0mm|Usage=FLASHONLY|Rotation=180.000|XOffset=0mm|YOffset=0mm|HoleType=Round|Shape=RoundedRectangle|*
%AMROUNDEDRECTD14*
21,1,3.40000,1.08000,0,0,180.0*
21,1,3.28000,1.20000,0,0,180.0*
1,1,0.12000,-1.64000,0.54000*
1,1,0.12000,1.64000,0.54000*
1,1,0.12000,1.64000,-0.54000*
1,1,0.12000,-1.64000,-0.54000*
%
%ADD14ROUNDEDRECTD14*%
G04:AMPARAMS|DCode=15|XSize=0.5mm|YSize=0.65mm|CornerRadius=0.05mm|HoleSize=0mm|Usage=FLASHONLY|Rotation=180.000|XOffset=0mm|YOffset=0mm|HoleType=Round|Shape=RoundedRectangle|*
%AMROUNDEDRECTD15*
21,1,0.50000,0.55000,0,0,180.0*
21,1,0.40000,0.65000,0,0,180.0*
1,1,0.10000,-0.20000,0.27500*
1,1,0.10000,0.20000,0.27500*
1,1,0.10000,0.20000,-0.27500*
1,1,0.10000,-0.20000,-0.27500*
%
%ADD15ROUNDEDRECTD15*%
G04:AMPARAMS|DCode=16|XSize=0.8mm|YSize=0.75mm|CornerRadius=0.09375mm|HoleSize=0mm|Usage=FLASHONLY|Rotation=270.000|XOffset=0mm|YOffset=0mm|HoleType=Round|Shape=RoundedRectangle|*
%AMROUNDEDRECTD16*
21,1,0.80000,0.56250,0,0,270.0*
21,1,0.61250,0.75000,0,0,270.0*
1,1,0.18750,-0.28125,-0.30625*
1,1,0.18750,-0.28125,0.30625*
1,1,0.18750,0.28125,0.30625*
1,1,0.18750,0.28125,-0.30625*
%
%ADD16ROUNDEDRECTD16*%
G04:AMPARAMS|DCode=17|XSize=2.5mm|YSize=1.7mm|CornerRadius=0.085mm|HoleSize=0mm|Usage=FLASHONLY|Rotation=180.000|XOffset=0mm|YOffset=0mm|HoleType=Round|Shape=RoundedRectangle|*
%AMROUNDEDRECTD17*
21,1,2.50000,1.53000,0,0,180.0*
21,1,2.33000,1.70000,0,0,180.0*
1,1,0.17000,-1.16500,0.76500*
1,1,0.17000,1.16500,0.76500*
1,1,0.17000,1.16500,-0.76500*
1,1,0.17000,-1.16500,-0.76500*
%
%ADD17ROUNDEDRECTD17*%
G04:AMPARAMS|DCode=18|XSize=2.5mm|YSize=2.2mm|CornerRadius=0.275mm|HoleSize=0mm|Usage=FLASHONLY|Rotation=180.000|XOffset=0mm|YOffset=0mm|HoleType=Round|Shape=RoundedRectangle|*
%AMROUNDEDRECTD18*
21,1,2.50000,1.65000,0,0,180.0*
21,1,1.95000,2.20000,0,0,180.0*
1,1,0.55000,-0.97500,0.82500*
1,1,0.55000,0.97500,0.82500*
1,1,0.55000,0.97500,-0.82500*
1,1,0.55000,-0.97500,-0.82500*
%
%ADD18ROUNDEDRECTD18*%
%ADD19R,2.00000X0.60000*%
%ADD20R,4.20000X0.70000*%
%ADD21R,1.80000X2.50000*%
%ADD22R,2.50000X1.80000*%
%ADD23R,2.50000X1.80000*%
%ADD24R,1.90000X1.80000*%
%ADD25R,1.90000X1.90000*%
%ADD26R,1.35000X0.40000*%
G04:AMPARAMS|DCode=27|XSize=0.7mm|YSize=0.85mm|CornerRadius=0.07mm|HoleSize=0mm|Usage=FLASHONLY|Rotation=0.000|XOffset=0mm|YOffset=0mm|HoleType=Round|Shape=RoundedRectangle|*
%AMROUNDEDRECTD27*
21,1,0.70000,0.71000,0,0,0.0*
21,1,0.56000,0.85000,0,0,0.0*
1,1,0.14000,0.28000,-0.35500*
1,1,0.14000,-0.28000,-0.35500*
1,1,0.14000,-0.28000,0.35500*
1,1,0.14000,0.28000,0.35500*
%
%ADD27ROUNDEDRECTD27*%
%ADD28R,5.70000X1.80000*%
G04:AMPARAMS|DCode=29|XSize=0.8mm|YSize=1.4mm|CornerRadius=0.04mm|HoleSize=0mm|Usage=FLASHONLY|Rotation=0.000|XOffset=0mm|YOffset=0mm|HoleType=Round|Shape=RoundedRectangle|*
%AMROUNDEDRECTD29*
21,1,0.80000,1.32000,0,0,0.0*
21,1,0.72000,1.40000,0,0,0.0*
1,1,0.08000,0.36000,-0.66000*
1,1,0.08000,-0.36000,-0.66000*
1,1,0.08000,-0.36000,0.66000*
1,1,0.08000,0.36000,0.66000*
%
%ADD29ROUNDEDRECTD29*%
G04:AMPARAMS|DCode=30|XSize=0.7mm|YSize=0.9mm|CornerRadius=0.0875mm|HoleSize=0mm|Usage=FLASHONLY|Rotation=0.000|XOffset=0mm|YOffset=0mm|HoleType=Round|Shape=RoundedRectangle|*
%AMROUNDEDRECTD30*
21,1,0.70000,0.72500,0,0,0.0*
21,1,0.52500,0.90000,0,0,0.0*
1,1,0.17500,0.26250,-0.36250*
1,1,0.17500,-0.26250,-0.36250*
1,1,0.17500,-0.26250,0.36250*
1,1,0.17500,0.26250,0.36250*
%
%ADD30ROUNDEDRECTD30*%
G04:AMPARAMS|DCode=31|XSize=0.6mm|YSize=0.5mm|CornerRadius=0.05mm|HoleSize=0mm|Usage=FLASHONLY|Rotation=90.000|XOffset=0mm|YOffset=0mm|HoleType=Round|Shape=RoundedRectangle|*
%AMROUNDEDRECTD31*
21,1,0.60000,0.40000,0,0,90.0*
21,1,0.50000,0.50000,0,0,90.0*
1,1,0.10000,0.20000,0.25000*
1,1,0.10000,0.20000,-0.25000*
1,1,0.10000,-0.20000,-0.25000*
1,1,0.10000,-0.20000,0.25000*
%
%ADD31ROUNDEDRECTD31*%
G04:AMPARAMS|DCode=32|XSize=0.6mm|YSize=0.5mm|CornerRadius=0.05mm|HoleSize=0mm|Usage=FLASHONLY|Rotation=0.000|XOffset=0mm|YOffset=0mm|HoleType=Round|Shape=RoundedRectangle|*
%AMROUNDEDRECTD32*
21,1,0.60000,0.40000,0,0,0.0*
21,1,0.50000,0.50000,0,0,0.0*
1,1,0.10000,0.25000,-0.20000*
1,1,0.10000,-0.25000,-0.20000*
1,1,0.10000,-0.25000,0.20000*
1,1,0.10000,0.25000,0.20000*
%
%ADD32ROUNDEDRECTD32*%
%ADD33C,0.63500*%
%ADD34O,1.50000X0.45000*%
%ADD35O,0.65000X0.30000*%
G04:AMPARAMS|DCode=36|XSize=4.1mm|YSize=4.1mm|CornerRadius=0.1025mm|HoleSize=0mm|Usage=FLASHONLY|Rotation=90.000|XOffset=0mm|YOffset=0mm|HoleType=Round|Shape=RoundedRectangle|*
%AMROUNDEDRECTD36*
21,1,4.10000,3.89500,0,0,90.0*
21,1,3.89500,4.10000,0,0,90.0*
1,1,0.20500,1.94750,1.94750*
1,1,0.20500,1.94750,-1.94750*
1,1,0.20500,-1.94750,-1.94750*
1,1,0.20500,-1.94750,1.94750*
%
%ADD36ROUNDEDRECTD36*%
G04:AMPARAMS|DCode=37|XSize=0.25mm|YSize=0.75mm|CornerRadius=0.0625mm|HoleSize=0mm|Usage=FLASHONLY|Rotation=90.000|XOffset=0mm|YOffset=0mm|HoleType=Round|Shape=RoundedRectangle|*
%AMROUNDEDRECTD37*
21,1,0.25000,0.62500,0,0,90.0*
21,1,0.12500,0.75000,0,0,90.0*
1,1,0.12500,0.31250,0.06250*
1,1,0.12500,0.31250,-0.06250*
1,1,0.12500,-0.31250,-0.06250*
1,1,0.12500,-0.31250,0.06250*
%
%ADD37ROUNDEDRECTD37*%
G04:AMPARAMS|DCode=38|XSize=0.25mm|YSize=0.75mm|CornerRadius=0.0625mm|HoleSize=0mm|Usage=FLASHONLY|Rotation=180.000|XOffset=0mm|YOffset=0mm|HoleType=Round|Shape=RoundedRectangle|*
%AMROUNDEDRECTD38*
21,1,0.25000,0.62500,0,0,180.0*
21,1,0.12500,0.75000,0,0,180.0*
1,1,0.12500,-0.06250,0.31250*
1,1,0.12500,0.06250,0.31250*
1,1,0.12500,0.06250,-0.31250*
1,1,0.12500,-0.06250,-0.31250*
%
%ADD38ROUNDEDRECTD38*%
G04:AMPARAMS|DCode=39|XSize=0.25mm|YSize=0.75mm|CornerRadius=0.03125mm|HoleSize=0mm|Usage=FLASHONLY|Rotation=180.000|XOffset=0mm|YOffset=0mm|HoleType=Round|Shape=RoundedRectangle|*
%AMROUNDEDRECTD39*
21,1,0.25000,0.68750,0,0,180.0*
21,1,0.18750,0.75000,0,0,180.0*
1,1,0.06250,-0.09375,0.34375*
1,1,0.06250,0.09375,0.34375*
1,1,0.06250,0.09375,-0.34375*
1,1,0.06250,-0.09375,-0.34375*
%
%ADD39ROUNDEDRECTD39*%
%ADD40R,1.70000X1.70000*%
%ADD41O,0.85000X0.28000*%
%ADD42O,0.28000X0.85000*%
G04:AMPARAMS|DCode=43|XSize=0.6mm|YSize=1.1mm|CornerRadius=0.06mm|HoleSize=0mm|Usage=FLASHONLY|Rotation=180.000|XOffset=0mm|YOffset=0mm|HoleType=Round|Shape=RoundedRectangle|*
%AMROUNDEDRECTD43*
21,1,0.60000,0.98000,0,0,180.0*
21,1,0.48000,1.10000,0,0,180.0*
1,1,0.12000,-0.24000,0.49000*
1,1,0.12000,0.24000,0.49000*
1,1,0.12000,0.24000,-0.49000*
1,1,0.12000,-0.24000,-0.49000*
%
%ADD43ROUNDEDRECTD43*%
%ADD44R,1.90500X1.90500*%
%ADD45C,1.52000*%
%ADD46R,3.70000X1.27000*%
G04:AMPARAMS|DCode=47|XSize=1.1mm|YSize=0.9mm|CornerRadius=0.045mm|HoleSize=0mm|Usage=FLASHONLY|Rotation=0.000|XOffset=0mm|YOffset=0mm|HoleType=Round|Shape=RoundedRectangle|*
%AMROUNDEDRECTD47*
21,1,1.10000,0.81000,0,0,0.0*
21,1,1.01000,0.90000,0,0,0.0*
1,1,0.09000,0.50500,-0.40500*
1,1,0.09000,-0.50500,-0.40500*
1,1,0.09000,-0.50500,0.40500*
1,1,0.09000,0.50500,0.40500*
%
%ADD47ROUNDEDRECTD47*%
%TA.AperFunction,ConnectorPad*%
%ADD48R,3.70000X1.27000*%
%TA.AperFunction,SMDPad,CuDef*%
G04:AMPARAMS|DCode=49|XSize=0.7mm|YSize=0.9mm|CornerRadius=0.0875mm|HoleSize=0mm|Usage=FLASHONLY|Rotation=270.000|XOffset=0mm|YOffset=0mm|HoleType=Round|Shape=RoundedRectangle|*
%AMROUNDEDRECTD49*
21,1,0.70000,0.72500,0,0,270.0*
21,1,0.52500,0.90000,0,0,270.0*
1,1,0.17500,-0.36250,-0.26250*
1,1,0.17500,-0.36250,0.26250*
1,1,0.17500,0.36250,0.26250*
1,1,0.17500,0.36250,-0.26250*
%
%ADD49ROUNDEDRECTD49*%
G04:AMPARAMS|DCode=50|XSize=0.5mm|YSize=0.65mm|CornerRadius=0.05mm|HoleSize=0mm|Usage=FLASHONLY|Rotation=90.000|XOffset=0mm|YOffset=0mm|HoleType=Round|Shape=RoundedRectangle|*
%AMROUNDEDRECTD50*
21,1,0.50000,0.55000,0,0,90.0*
21,1,0.40000,0.65000,0,0,90.0*
1,1,0.10000,0.27500,0.20000*
1,1,0.10000,0.27500,-0.20000*
1,1,0.10000,-0.27500,-0.20000*
1,1,0.10000,-0.27500,0.20000*
%
%ADD50ROUNDEDRECTD50*%
G04:AMPARAMS|DCode=51|XSize=2.5mm|YSize=2.2mm|CornerRadius=0.275mm|HoleSize=0mm|Usage=FLASHONLY|Rotation=90.000|XOffset=0mm|YOffset=0mm|HoleType=Round|Shape=RoundedRectangle|*
%AMROUNDEDRECTD51*
21,1,2.50000,1.65000,0,0,90.0*
21,1,1.95000,2.20000,0,0,90.0*
1,1,0.55000,0.82500,0.97500*
1,1,0.55000,0.82500,-0.97500*
1,1,0.55000,-0.82500,-0.97500*
1,1,0.55000,-0.82500,0.97500*
%
%ADD51ROUNDEDRECTD51*%
G04:AMPARAMS|DCode=52|XSize=0.9mm|YSize=1mm|CornerRadius=0.09mm|HoleSize=0mm|Usage=FLASHONLY|Rotation=0.000|XOffset=0mm|YOffset=0mm|HoleType=Round|Shape=RoundedRectangle|*
%AMROUNDEDRECTD52*
21,1,0.90000,0.82000,0,0,0.0*
21,1,0.72000,1.00000,0,0,0.0*
1,1,0.18000,0.36000,-0.41000*
1,1,0.18000,-0.36000,-0.41000*
1,1,0.18000,-0.36000,0.41000*
1,1,0.18000,0.36000,0.41000*
%
%ADD52ROUNDEDRECTD52*%
%TA.AperFunction,Conductor*%
%ADD53C,0.40000*%
%ADD54C,0.35000*%
%ADD55C,1.00000*%
%TA.AperFunction,NonConductor*%
%ADD56C,0.20000*%
%TA.AperFunction,Conductor*%
%ADD57C,0.20000*%
%ADD58C,0.50000*%
%ADD59C,0.30000*%
%ADD60C,0.25000*%
%ADD61C,0.80000*%
%ADD62C,0.28000*%
%ADD63R,0.28000X0.20000*%
%ADD64R,0.20000X0.28000*%
%TA.AperFunction,ComponentPad*%
%ADD65C,1.40000*%
%ADD66C,0.70000*%
%ADD67C,1.60000*%
%TA.AperFunction,WasherPad*%
%ADD68C,3.00000*%
%TA.AperFunction,ViaPad*%
%ADD69C,0.50000*%
G36*
X2795000Y5410000D02*
Y5230000D01*
X2767500Y5202500D01*
X2112500D01*
X2057500Y5147499D01*
Y5035000D01*
X1959009Y4936509D01*
X1959009Y4911480D01*
X1950029Y4902500D01*
X1931009D01*
Y5161009D01*
X1955000Y5185000D01*
Y5455000D01*
X1935000Y5475000D01*
X1755000D01*
X1697500Y5417500D01*
X1697500Y5237500D01*
X1537500Y5077500D01*
X1297500Y5077500D01*
X1267500Y5107500D01*
Y5232500D01*
X1335000Y5300000D01*
X1439231D01*
Y5404232D01*
X1584021Y5549022D01*
X2655978D01*
X2795000Y5410000D01*
D02*
G37*
G36*
X2162500Y4668990D02*
X2162500Y3475000D01*
X2147499Y3459999D01*
X1990000Y3460000D01*
X1925000Y3525000D01*
Y4498510D01*
X1881010Y4542500D01*
Y4603510D01*
X1898750Y4621250D01*
X2013749Y4621249D01*
X2031250Y4638750D01*
X2031250Y4707500D01*
X2045241Y4721490D01*
X2110000D01*
X2162500Y4668990D01*
D02*
G37*
G36*
X2877500Y4934999D02*
X2877500Y4457500D01*
X2857501Y4437501D01*
X2607500Y4437499D01*
X2587500Y4457500D01*
Y4685000D01*
X2529999Y4742499D01*
X2047500Y4742500D01*
X2040000Y4750000D01*
Y4835000D01*
X2022501Y4852500D01*
X1992228Y4852500D01*
X1979666Y4865062D01*
Y4908500D01*
X1979401Y4909832D01*
Y4911168D01*
X1979666Y4912500D01*
Y4927166D01*
X2020000Y4967500D01*
X2845000D01*
X2877500Y4934999D01*
D02*
G37*
G36*
X2485000Y4630000D02*
X2485000Y3440000D01*
X2292500Y3247500D01*
X1757500Y3247500D01*
X1687500Y3317500D01*
Y3407500D01*
X1717500Y3437500D01*
X2165000Y3437500D01*
X2190000Y3462500D01*
Y4632500D01*
X2212500Y4655000D01*
X2460000D01*
X2485000Y4630000D01*
D02*
G37*
G36*
X3310000Y2595000D02*
X3310000Y2445000D01*
X3087500D01*
Y2727500D01*
X3177500Y2727500D01*
X3310000Y2595000D01*
D02*
G37*
G36*
X2974119Y2130881D02*
Y2097501D01*
X2974510Y2095530D01*
Y2070000D01*
X2975000Y2067539D01*
X2975000Y1970000D01*
X2997499Y1947500D01*
X3090045Y1947500D01*
X3092501Y1947011D01*
X3142500D01*
X3144955Y1947500D01*
X3195000Y1947499D01*
X3230000Y1912500D01*
Y1895000D01*
X3247500D01*
X3247501Y1895000D01*
X3402500Y1895000D01*
X3422500Y1875001D01*
X3422500Y1822500D01*
X3400000Y1800000D01*
X3010307Y1800000D01*
X3003519Y1812700D01*
X3003549Y1812746D01*
X3005490Y1822500D01*
Y1848030D01*
X3005882Y1850000D01*
X3005490Y1851970D01*
Y1877500D01*
X3003549Y1887255D01*
X2998024Y1895524D01*
X2989754Y1901050D01*
X2980000Y1902990D01*
X2940000D01*
X2930246Y1901050D01*
X2922512Y1895882D01*
X2896618D01*
X2882500Y1910000D01*
Y2130000D01*
X2900000Y2147500D01*
X2957500D01*
X2974119Y2130881D01*
D02*
G37*
G36*
X3847989Y4615000D02*
X3382989D01*
Y4903715D01*
X3847989D01*
Y4615000D01*
D02*
G37*
G36*
X3382989Y4755155D02*
Y4615000D01*
X3110000D01*
Y4755155D01*
Y4903715D01*
X3382989D01*
Y4755155D01*
D02*
G37*
G36*
X3559858Y2172500D02*
X3389079D01*
Y2767236D01*
X3559858D01*
Y2172500D01*
D02*
G37*
G36*
X3263240Y52643D02*
X2690000D01*
Y225086D01*
X3263240D01*
Y52643D01*
D02*
G37*
G36*
X1894598Y3457500D02*
X1582500D01*
Y3625505D01*
X1894598D01*
Y3457500D01*
D02*
G37*
G36*
X1353539Y3857500D02*
X982500D01*
Y4025505D01*
X1353539D01*
Y3857500D01*
D02*
G37*
G36*
X1419231Y5320000D02*
X1235000D01*
Y5488005D01*
X1419231D01*
Y5320000D01*
D02*
G37*
G36*
X1573224Y4852642D02*
X1177500D01*
Y5025085D01*
X1573224D01*
Y4852642D01*
D02*
G37*
G36*
X3697358Y4027500D02*
X3524915D01*
Y4447355D01*
X3697358D01*
Y4027500D01*
D02*
G37*
G36*
X3394858Y4027500D02*
X3224079D01*
Y4363452D01*
X3394858D01*
Y4027500D01*
D02*
G37*
G36*
X3097358Y4022500D02*
X2926579D01*
Y4366357D01*
X3097358D01*
Y4022500D01*
D02*
G37*
G36*
X2794719D02*
X2622415D01*
Y4397838D01*
X2794719D01*
Y4022500D01*
D02*
G37*
%LPC*%
G36*
X3769727Y4773560D02*
X3767786D01*
X3762654Y4773421D01*
X3757800Y4772866D01*
X3755582Y4772589D01*
X3753501Y4772173D01*
X3751698Y4771757D01*
X3749895Y4771341D01*
X3748231Y4770925D01*
X3746844Y4770509D01*
X3745596Y4770093D01*
X3744625Y4769815D01*
X3743793Y4769538D01*
X3743239Y4769260D01*
X3742823Y4769122D01*
X3742684D01*
X3738939Y4767319D01*
X3735611Y4765377D01*
X3732837Y4763297D01*
X3730480Y4761217D01*
X3728677Y4759414D01*
X3727429Y4758027D01*
X3726874Y4757472D01*
X3726597Y4757056D01*
X3726458Y4756779D01*
X3726319Y4756640D01*
X3724378Y4753450D01*
X3722991Y4750261D01*
X3722020Y4747071D01*
X3721327Y4744159D01*
X3720911Y4741662D01*
X3720772Y4740553D01*
Y4739721D01*
X3720633Y4738889D01*
Y4738334D01*
Y4738057D01*
Y4737918D01*
X3720911Y4734035D01*
X3721465Y4730429D01*
X3722297Y4727239D01*
X3723407Y4724604D01*
X3723823Y4723495D01*
X3724378Y4722385D01*
X3724794Y4721553D01*
X3725210Y4720860D01*
X3725487Y4720305D01*
X3725764Y4719889D01*
X3726042Y4719612D01*
Y4719473D01*
X3728261Y4716838D01*
X3730618Y4714480D01*
X3732976Y4712400D01*
X3735334Y4710736D01*
X3737275Y4709488D01*
X3738939Y4708517D01*
X3739633Y4708101D01*
X3740049Y4707823D01*
X3740326Y4707685D01*
X3740465D01*
X3744071Y4706159D01*
X3747815Y4704772D01*
X3751560Y4703524D01*
X3755027Y4702553D01*
X3756691Y4701999D01*
X3758078Y4701721D01*
X3759465Y4701305D01*
X3760574Y4701028D01*
X3761545Y4700751D01*
X3762238Y4700612D01*
X3762654Y4700473D01*
X3762793D01*
X3766260Y4699641D01*
X3769311Y4698948D01*
X3771946Y4698254D01*
X3774165Y4697561D01*
X3775968Y4697006D01*
X3777216Y4696590D01*
X3777910Y4696451D01*
X3778187Y4696313D01*
X3780129Y4695619D01*
X3781931Y4694787D01*
X3783457Y4693816D01*
X3784705Y4692984D01*
X3785676Y4692291D01*
X3786508Y4691597D01*
X3786924Y4691181D01*
X3787063Y4691043D01*
X3788172Y4689656D01*
X3789004Y4688269D01*
X3789559Y4686882D01*
X3789975Y4685495D01*
X3790253Y4684247D01*
X3790391Y4683276D01*
Y4682583D01*
Y4682306D01*
Y4681057D01*
X3790114Y4679948D01*
X3789420Y4677729D01*
X3788311Y4675787D01*
X3787201Y4674123D01*
X3786092Y4672736D01*
X3784983Y4671766D01*
X3784289Y4671211D01*
X3784150Y4670934D01*
X3784012D01*
X3781515Y4669408D01*
X3778742Y4668299D01*
X3776107Y4667466D01*
X3773472Y4666912D01*
X3771114Y4666634D01*
X3770143Y4666496D01*
X3769173D01*
X3768479Y4666357D01*
X3767508D01*
X3764873Y4666496D01*
X3762377Y4666773D01*
X3760297Y4667050D01*
X3758633Y4667466D01*
X3757246Y4667882D01*
X3756275Y4668299D01*
X3755720Y4668437D01*
X3755443Y4668576D01*
X3753917Y4669547D01*
X3752530Y4670517D01*
X3751282Y4671488D01*
X3750312Y4672459D01*
X3749479Y4673291D01*
X3748925Y4673985D01*
X3748647Y4674401D01*
X3748509Y4674539D01*
X3747538Y4675926D01*
X3746706Y4677452D01*
X3745874Y4679116D01*
X3745180Y4680503D01*
X3744625Y4681890D01*
X3744209Y4682860D01*
X3743932Y4683554D01*
X3743793Y4683831D01*
X3742961Y4685634D01*
X3742129Y4687298D01*
X3741158Y4688546D01*
X3740326Y4689656D01*
X3739633Y4690627D01*
X3739078Y4691181D01*
X3738662Y4691597D01*
X3738523Y4691736D01*
X3737275Y4692707D01*
X3736027Y4693400D01*
X3734779Y4693955D01*
X3733531Y4694232D01*
X3732560Y4694510D01*
X3731728Y4694648D01*
X3730896D01*
X3728954Y4694510D01*
X3727151Y4694094D01*
X3725626Y4693400D01*
X3724378Y4692846D01*
X3723268Y4692152D01*
X3722575Y4691459D01*
X3722020Y4691043D01*
X3721881Y4690904D01*
X3720633Y4689517D01*
X3719801Y4687992D01*
X3719108Y4686605D01*
X3718692Y4685218D01*
X3718414Y4683970D01*
X3718276Y4682999D01*
Y4682167D01*
X3718553Y4679116D01*
X3719108Y4676065D01*
X3719940Y4673291D01*
X3721049Y4670795D01*
X3722020Y4668576D01*
X3722436Y4667744D01*
X3722852Y4666912D01*
X3723129Y4666357D01*
X3723407Y4665941D01*
X3723684Y4665664D01*
Y4665525D01*
X3725903Y4662474D01*
X3728122Y4659839D01*
X3730480Y4657481D01*
X3732699Y4655540D01*
X3734640Y4654014D01*
X3736304Y4652905D01*
X3736859Y4652489D01*
X3737275Y4652211D01*
X3737553Y4651934D01*
X3737691D01*
X3740049Y4650686D01*
X3742407Y4649715D01*
X3744903Y4648744D01*
X3747538Y4647912D01*
X3752530Y4646664D01*
X3755027Y4646248D01*
X3757384Y4645832D01*
X3759603Y4645554D01*
X3761545Y4645416D01*
X3763487Y4645277D01*
X3765012Y4645138D01*
X3766260Y4645000D01*
X3768063D01*
X3773610Y4645277D01*
X3776245Y4645416D01*
X3778742Y4645832D01*
X3781099Y4646248D01*
X3783318Y4646664D01*
X3785260Y4647080D01*
X3787201Y4647635D01*
X3788866Y4648051D01*
X3790391Y4648467D01*
X3791639Y4648883D01*
X3792749Y4649299D01*
X3793581Y4649715D01*
X3794136Y4649854D01*
X3794552Y4650131D01*
X3794690D01*
X3798712Y4652211D01*
X3802179Y4654569D01*
X3805230Y4656926D01*
X3807588Y4659145D01*
X3809530Y4661226D01*
X3810916Y4662890D01*
X3811471Y4663583D01*
X3811749Y4663999D01*
X3812026Y4664277D01*
Y4664415D01*
X3813135Y4666218D01*
X3813967Y4667882D01*
X3815493Y4671488D01*
X3816602Y4674955D01*
X3817296Y4678145D01*
X3817435Y4679671D01*
X3817712Y4680919D01*
X3817851Y4682167D01*
Y4683138D01*
X3817989Y4683970D01*
Y4685079D01*
X3817851Y4688546D01*
X3817435Y4691597D01*
X3816880Y4694371D01*
X3816325Y4696729D01*
X3815632Y4698532D01*
X3815077Y4699918D01*
X3814800Y4700473D01*
X3814661Y4700889D01*
X3814522Y4701028D01*
Y4701167D01*
X3813135Y4703663D01*
X3811610Y4705743D01*
X3809946Y4707685D01*
X3808420Y4709210D01*
X3807033Y4710597D01*
X3805924Y4711429D01*
X3805230Y4712123D01*
X3805092Y4712261D01*
X3804953D01*
X3802595Y4713787D01*
X3800099Y4715174D01*
X3797603Y4716422D01*
X3795384Y4717531D01*
X3793442Y4718363D01*
X3791778Y4718918D01*
X3791223Y4719196D01*
X3790807Y4719334D01*
X3790530Y4719473D01*
X3790391D01*
X3787201Y4720582D01*
X3784012Y4721553D01*
X3780822Y4722385D01*
X3778048Y4723217D01*
X3775552Y4723911D01*
X3774581Y4724049D01*
X3773610Y4724327D01*
X3772917Y4724466D01*
X3772362Y4724604D01*
X3772085Y4724743D01*
X3771946D01*
X3768895Y4725575D01*
X3766399Y4726130D01*
X3764319Y4726684D01*
X3762654Y4727239D01*
X3761406Y4727517D01*
X3760574Y4727794D01*
X3760019Y4727933D01*
X3759881D01*
X3757523Y4728765D01*
X3756414Y4729181D01*
X3755443Y4729736D01*
X3754611Y4730152D01*
X3753917Y4730429D01*
X3753501Y4730568D01*
X3753363Y4730706D01*
X3752253Y4731400D01*
X3751282Y4732093D01*
X3750450Y4732787D01*
X3749757Y4733341D01*
X3749202Y4733896D01*
X3748786Y4734312D01*
X3748647Y4734589D01*
X3748509Y4734728D01*
X3747954Y4735699D01*
X3747538Y4736531D01*
X3747122Y4738334D01*
X3746983Y4739027D01*
X3746844Y4739582D01*
Y4739998D01*
Y4740137D01*
X3747122Y4741940D01*
X3747677Y4743604D01*
X3748509Y4745129D01*
X3749479Y4746378D01*
X3750312Y4747487D01*
X3751144Y4748180D01*
X3751698Y4748735D01*
X3751976Y4748874D01*
X3754056Y4750122D01*
X3756414Y4751093D01*
X3758771Y4751786D01*
X3760990Y4752341D01*
X3763070Y4752618D01*
X3764596Y4752757D01*
X3766121D01*
X3769450Y4752618D01*
X3772362Y4752202D01*
X3774720Y4751648D01*
X3776661Y4750954D01*
X3778187Y4750261D01*
X3779158Y4749706D01*
X3779851Y4749290D01*
X3779990Y4749151D01*
X3781515Y4747764D01*
X3783041Y4746100D01*
X3784289Y4744436D01*
X3785399Y4742911D01*
X3786231Y4741385D01*
X3786924Y4740276D01*
X3787340Y4739443D01*
X3787479Y4739305D01*
Y4739166D01*
X3788450Y4737363D01*
X3789420Y4735838D01*
X3790253Y4734451D01*
X3791085Y4733480D01*
X3791639Y4732648D01*
X3792194Y4731954D01*
X3792471Y4731677D01*
X3792610Y4731538D01*
X3793720Y4730706D01*
X3794829Y4730152D01*
X3796077Y4729736D01*
X3797325Y4729458D01*
X3798435Y4729319D01*
X3799267Y4729181D01*
X3800099D01*
X3802041Y4729319D01*
X3803844Y4729874D01*
X3805369Y4730429D01*
X3806617Y4731261D01*
X3807727Y4731954D01*
X3808420Y4732648D01*
X3808975Y4733064D01*
X3809114Y4733203D01*
X3810362Y4734728D01*
X3811194Y4736254D01*
X3811887Y4737779D01*
X3812303Y4739166D01*
X3812581Y4740414D01*
X3812719Y4741385D01*
Y4741940D01*
Y4742217D01*
X3812581Y4744159D01*
X3812303Y4745962D01*
X3811887Y4747764D01*
X3811471Y4749290D01*
X3810916Y4750677D01*
X3810500Y4751786D01*
X3810223Y4752341D01*
X3810084Y4752618D01*
X3808975Y4754560D01*
X3807727Y4756502D01*
X3806340Y4758304D01*
X3804953Y4759830D01*
X3803705Y4761078D01*
X3802734Y4762049D01*
X3802041Y4762604D01*
X3801763Y4762881D01*
X3799544Y4764545D01*
X3797187Y4766209D01*
X3794829Y4767458D01*
X3792610Y4768567D01*
X3790530Y4769538D01*
X3789004Y4770093D01*
X3788450Y4770370D01*
X3788034Y4770509D01*
X3787756Y4770647D01*
X3787618D01*
X3784289Y4771618D01*
X3780961Y4772312D01*
X3777632Y4772866D01*
X3774581Y4773144D01*
X3773056Y4773282D01*
X3771808Y4773421D01*
X3770698D01*
X3769727Y4773560D01*
D02*
G37*
G36*
X3554212Y4739998D02*
X3552548D01*
X3549081Y4739859D01*
X3545891Y4739443D01*
X3542979Y4738750D01*
X3540483Y4738057D01*
X3538402Y4737363D01*
X3537570Y4737086D01*
X3536877Y4736670D01*
X3536183Y4736531D01*
X3535767Y4736254D01*
X3535629Y4736115D01*
X3535490D01*
X3532994Y4734451D01*
X3530775Y4732648D01*
X3528972Y4730845D01*
X3527585Y4729042D01*
X3526476Y4727378D01*
X3525643Y4725991D01*
X3525366Y4725436D01*
X3525227Y4725020D01*
X3525089Y4724882D01*
Y4725714D01*
Y4727378D01*
X3524811Y4728765D01*
X3524534Y4730013D01*
X3524257Y4731261D01*
X3523979Y4732093D01*
X3523702Y4732787D01*
X3523563Y4733203D01*
X3523425Y4733341D01*
X3522731Y4734451D01*
X3522038Y4735560D01*
X3521344Y4736392D01*
X3520651Y4737086D01*
X3519957Y4737641D01*
X3519403Y4738057D01*
X3519125Y4738195D01*
X3518987Y4738334D01*
X3517877Y4738889D01*
X3516906Y4739305D01*
X3514826Y4739859D01*
X3513994D01*
X3513301Y4739998D01*
X3512746D01*
X3510804Y4739859D01*
X3509001Y4739443D01*
X3507476Y4738750D01*
X3506228Y4738195D01*
X3505118Y4737502D01*
X3504425Y4736808D01*
X3504009Y4736392D01*
X3503870Y4736254D01*
X3502761Y4734728D01*
X3502067Y4732925D01*
X3501512Y4731122D01*
X3501096Y4729458D01*
X3500819Y4727933D01*
X3500680Y4726546D01*
Y4660255D01*
X3500819Y4657759D01*
X3501235Y4655401D01*
X3501790Y4653598D01*
X3502483Y4651934D01*
X3503038Y4650686D01*
X3503593Y4649715D01*
X3504009Y4649160D01*
X3504147Y4649021D01*
X3505534Y4647635D01*
X3507060Y4646664D01*
X3508724Y4645970D01*
X3510111Y4645554D01*
X3511498Y4645277D01*
X3512468Y4645000D01*
X3513439D01*
X3515520Y4645138D01*
X3517322Y4645554D01*
X3518987Y4646248D01*
X3520373Y4646941D01*
X3521483Y4647635D01*
X3522176Y4648328D01*
X3522731Y4648744D01*
X3522870Y4648883D01*
X3524118Y4650547D01*
X3525089Y4652350D01*
X3525643Y4654291D01*
X3526198Y4656094D01*
X3526476Y4657759D01*
X3526614Y4659007D01*
Y4659561D01*
Y4659977D01*
Y4660116D01*
Y4660255D01*
Y4688546D01*
Y4691043D01*
Y4693262D01*
X3526753Y4695203D01*
Y4697006D01*
X3526892Y4698670D01*
X3527030Y4700057D01*
X3527169Y4701305D01*
X3527308Y4702415D01*
Y4703386D01*
X3527446Y4704218D01*
X3527585Y4704772D01*
X3527724Y4705327D01*
X3527862Y4706021D01*
Y4706159D01*
X3528833Y4708517D01*
X3529943Y4710458D01*
X3531052Y4712123D01*
X3532162Y4713509D01*
X3533132Y4714480D01*
X3533964Y4715312D01*
X3534519Y4715728D01*
X3534658Y4715867D01*
X3536461Y4716977D01*
X3538125Y4717809D01*
X3539789Y4718363D01*
X3541315Y4718779D01*
X3542702Y4719057D01*
X3543672Y4719196D01*
X3544643D01*
X3547417Y4718918D01*
X3549774Y4718363D01*
X3551716Y4717531D01*
X3553242Y4716561D01*
X3554351Y4715451D01*
X3555044Y4714619D01*
X3555461Y4714064D01*
X3555599Y4713787D01*
X3556570Y4711568D01*
X3557263Y4709072D01*
X3557818Y4706437D01*
X3558095Y4703802D01*
X3558373Y4701444D01*
Y4700473D01*
X3558512Y4699641D01*
Y4698809D01*
Y4698254D01*
Y4697977D01*
Y4697838D01*
Y4660255D01*
X3558650Y4657759D01*
X3559066Y4655401D01*
X3559621Y4653598D01*
X3560314Y4651934D01*
X3560869Y4650686D01*
X3561424Y4649715D01*
X3561840Y4649160D01*
X3561979Y4649021D01*
X3563365Y4647635D01*
X3565030Y4646664D01*
X3566555Y4645970D01*
X3568081Y4645554D01*
X3569329Y4645277D01*
X3570438Y4645000D01*
X3571409D01*
X3573489Y4645138D01*
X3575292Y4645554D01*
X3576957Y4646248D01*
X3578343Y4646941D01*
X3579453Y4647635D01*
X3580146Y4648328D01*
X3580701Y4648744D01*
X3580840Y4648883D01*
X3582088Y4650547D01*
X3582920Y4652350D01*
X3583613Y4654291D01*
X3584029Y4656094D01*
X3584307Y4657759D01*
X3584445Y4659007D01*
Y4704911D01*
X3584307Y4707269D01*
X3584168Y4709349D01*
X3584029Y4711152D01*
X3583891Y4712677D01*
X3583752Y4713787D01*
X3583613Y4714342D01*
Y4714619D01*
X3583336Y4716561D01*
X3582781Y4718225D01*
X3582365Y4719889D01*
X3581810Y4721276D01*
X3581394Y4722385D01*
X3580978Y4723356D01*
X3580701Y4723911D01*
X3580562Y4724049D01*
X3579037Y4726684D01*
X3577373Y4729181D01*
X3575431Y4731122D01*
X3573628Y4732787D01*
X3571964Y4734173D01*
X3570716Y4735006D01*
X3570161Y4735422D01*
X3569745Y4735699D01*
X3569606Y4735838D01*
X3569468D01*
X3566555Y4737224D01*
X3563643Y4738195D01*
X3560869Y4739027D01*
X3558234Y4739443D01*
X3555877Y4739721D01*
X3554906Y4739859D01*
X3554212Y4739998D01*
D02*
G37*
G36*
X3689707Y4771479D02*
X3623832D01*
X3621890Y4771341D01*
X3620087Y4771202D01*
X3618423Y4770925D01*
X3617036Y4770647D01*
X3615927Y4770231D01*
X3615095Y4769954D01*
X3614540Y4769815D01*
X3614401Y4769677D01*
X3613153Y4768983D01*
X3611905Y4768151D01*
X3611073Y4767180D01*
X3610241Y4766348D01*
X3609686Y4765516D01*
X3609131Y4764823D01*
X3608993Y4764268D01*
X3608854Y4764129D01*
X3608299Y4762604D01*
X3607883Y4761078D01*
X3607606Y4759553D01*
X3607467Y4758027D01*
X3607328Y4756640D01*
X3607190Y4755669D01*
Y4663722D01*
X3607328Y4660671D01*
X3607744Y4658175D01*
X3608438Y4655956D01*
X3609131Y4654153D01*
X3609825Y4652766D01*
X3610518Y4651934D01*
X3610934Y4651240D01*
X3611073Y4651102D01*
X3612737Y4649715D01*
X3614817Y4648744D01*
X3616898Y4648051D01*
X3618978Y4647635D01*
X3620919Y4647357D01*
X3622445Y4647080D01*
X3690539D01*
X3692896Y4647219D01*
X3694838Y4647496D01*
X3696502Y4648051D01*
X3698028Y4648605D01*
X3699137Y4649160D01*
X3699831Y4649715D01*
X3700385Y4649992D01*
X3700524Y4650131D01*
X3701633Y4651379D01*
X3702466Y4652766D01*
X3703159Y4654153D01*
X3703575Y4655401D01*
X3703852Y4656510D01*
X3703991Y4657481D01*
Y4658313D01*
X3703852Y4660116D01*
X3703436Y4661780D01*
X3702882Y4663167D01*
X3702327Y4664415D01*
X3701633Y4665386D01*
X3701079Y4666080D01*
X3700663Y4666496D01*
X3700524Y4666634D01*
X3699137Y4667744D01*
X3697473Y4668437D01*
X3695809Y4668992D01*
X3694283Y4669408D01*
X3692758Y4669685D01*
X3691648Y4669824D01*
X3635204D01*
Y4701028D01*
X3684159D01*
X3686517Y4701167D01*
X3688458Y4701444D01*
X3690123Y4701999D01*
X3691510Y4702553D01*
X3692480Y4703108D01*
X3693312Y4703663D01*
X3693728Y4703940D01*
X3693867Y4704079D01*
X3694977Y4705327D01*
X3695809Y4706575D01*
X3696363Y4707962D01*
X3696780Y4709210D01*
X3697057Y4710320D01*
X3697196Y4711152D01*
Y4711707D01*
Y4711984D01*
X3697057Y4713648D01*
X3696641Y4715174D01*
X3696086Y4716561D01*
X3695531Y4717670D01*
X3694977Y4718502D01*
X3694422Y4719196D01*
X3694006Y4719612D01*
X3693867Y4719750D01*
X3692480Y4720721D01*
X3690955Y4721553D01*
X3689291Y4722108D01*
X3687765Y4722385D01*
X3686378Y4722663D01*
X3685269Y4722801D01*
X3635204D01*
Y4749290D01*
X3688597D01*
X3690955Y4749429D01*
X3693035Y4749706D01*
X3694699Y4750261D01*
X3696086Y4750815D01*
X3697196Y4751370D01*
X3698028Y4751925D01*
X3698444Y4752202D01*
X3698582Y4752341D01*
X3699692Y4753589D01*
X3700524Y4754837D01*
X3701079Y4756224D01*
X3701495Y4757472D01*
X3701772Y4758582D01*
X3701911Y4759553D01*
Y4760107D01*
Y4760385D01*
X3701772Y4762188D01*
X3701356Y4763713D01*
X3700801Y4764961D01*
X3700247Y4766209D01*
X3699692Y4767042D01*
X3699137Y4767735D01*
X3698721Y4768151D01*
X3698582Y4768290D01*
X3697196Y4769399D01*
X3695670Y4770093D01*
X3694006Y4770647D01*
X3692342Y4771063D01*
X3690816Y4771341D01*
X3689707Y4771479D01*
D02*
G37*
G36*
X3464484Y4773560D02*
X3463374D01*
X3461155Y4773421D01*
X3459214Y4772866D01*
X3457550Y4772173D01*
X3456163Y4771479D01*
X3454915Y4770647D01*
X3454082Y4769954D01*
X3453528Y4769399D01*
X3453389Y4769260D01*
X3452141Y4767596D01*
X3451170Y4765516D01*
X3450615Y4763574D01*
X3450061Y4761494D01*
X3449783Y4759691D01*
X3449645Y4758304D01*
Y4661503D01*
X3449783Y4658729D01*
X3450199Y4656233D01*
X3450893Y4654014D01*
X3451586Y4652350D01*
X3452141Y4650963D01*
X3452834Y4649992D01*
X3453250Y4649299D01*
X3453389Y4649160D01*
X3454915Y4647773D01*
X3456579Y4646802D01*
X3458243Y4645970D01*
X3459907Y4645554D01*
X3461294Y4645277D01*
X3462404Y4645138D01*
X3463097Y4645000D01*
X3463374D01*
X3465593Y4645138D01*
X3467674Y4645693D01*
X3469476Y4646386D01*
X3470863Y4647080D01*
X3472111Y4647912D01*
X3472944Y4648467D01*
X3473498Y4649021D01*
X3473637Y4649160D01*
X3475024Y4650963D01*
X3475995Y4652905D01*
X3476688Y4654985D01*
X3477104Y4656926D01*
X3477520Y4658729D01*
X3477659Y4660116D01*
Y4756918D01*
X3477520Y4759830D01*
X3477104Y4762326D01*
X3476411Y4764407D01*
X3475717Y4766209D01*
X3474885Y4767458D01*
X3474330Y4768428D01*
X3473776Y4769122D01*
X3473637Y4769260D01*
X3472111Y4770647D01*
X3470447Y4771757D01*
X3468644Y4772450D01*
X3467119Y4773005D01*
X3465593Y4773282D01*
X3464484Y4773560D01*
D02*
G37*
G36*
X3247743Y4848212D02*
X3194627D01*
X3192685Y4848074D01*
X3190882Y4847796D01*
X3189496Y4847380D01*
X3188247Y4846825D01*
X3187138Y4846271D01*
X3186444Y4845855D01*
X3186028Y4845577D01*
X3185890Y4845439D01*
X3184780Y4844329D01*
X3184087Y4843081D01*
X3183532Y4841833D01*
X3183116Y4840723D01*
X3182839Y4839614D01*
X3182700Y4838782D01*
Y4838227D01*
Y4837950D01*
X3182839Y4835731D01*
X3183393Y4834067D01*
X3184087Y4832680D01*
X3184780Y4831570D01*
X3185612Y4830877D01*
X3186167Y4830322D01*
X3186722Y4830183D01*
X3186861Y4830045D01*
X3188525Y4829629D01*
X3190466Y4829213D01*
X3192269Y4828935D01*
X3194211Y4828797D01*
X3195875D01*
X3197123Y4828658D01*
X3230269D01*
X3229437Y4828380D01*
X3228604Y4827826D01*
X3227772Y4827132D01*
X3226940Y4826300D01*
X3226108Y4825468D01*
X3225553Y4824913D01*
X3225137Y4824359D01*
X3224999Y4824220D01*
X3223612Y4822694D01*
X3222225Y4821030D01*
X3220838Y4819505D01*
X3219451Y4817979D01*
X3218203Y4816592D01*
X3217232Y4815483D01*
X3216678Y4814789D01*
X3216400Y4814512D01*
X3212517Y4810074D01*
X3210575Y4807994D01*
X3208911Y4806052D01*
X3207386Y4804388D01*
X3206138Y4803140D01*
X3205444Y4802308D01*
X3205306Y4802169D01*
X3205167Y4802031D01*
X3202948Y4799534D01*
X3200590Y4796899D01*
X3198233Y4794403D01*
X3196152Y4792045D01*
X3194349Y4790104D01*
X3192963Y4788439D01*
X3192408Y4787885D01*
X3191992Y4787469D01*
X3191853Y4787191D01*
X3191714Y4787053D01*
X3189357Y4784279D01*
X3187277Y4781921D01*
X3185751Y4780118D01*
X3184364Y4778593D01*
X3183393Y4777345D01*
X3182839Y4776651D01*
X3182423Y4776097D01*
X3182284Y4775958D01*
X3181452Y4774710D01*
X3180897Y4773600D01*
X3180481Y4772491D01*
X3180204Y4771381D01*
X3180065Y4770549D01*
X3179926Y4769856D01*
Y4769301D01*
X3180065Y4767360D01*
X3180481Y4765557D01*
X3181036Y4764031D01*
X3181729Y4762783D01*
X3182423Y4761812D01*
X3182977Y4760980D01*
X3183393Y4760564D01*
X3183532Y4760425D01*
X3185058Y4759316D01*
X3186861Y4758622D01*
X3188663Y4758068D01*
X3190328Y4757652D01*
X3191853Y4757374D01*
X3193240Y4757236D01*
X3255370D01*
X3257589Y4757374D01*
X3259531Y4757652D01*
X3261056Y4758068D01*
X3262443Y4758622D01*
X3263414Y4759177D01*
X3264246Y4759593D01*
X3264662Y4759871D01*
X3264801Y4760009D01*
X3265910Y4761119D01*
X3266743Y4762367D01*
X3267297Y4763615D01*
X3267713Y4764863D01*
X3267991Y4765834D01*
X3268129Y4766805D01*
Y4767498D01*
X3267991Y4769162D01*
X3267575Y4770688D01*
X3267020Y4771936D01*
X3266465Y4773046D01*
X3265910Y4773878D01*
X3265356Y4774571D01*
X3264940Y4774987D01*
X3264801Y4775126D01*
X3263414Y4776097D01*
X3261889Y4776929D01*
X3260363Y4777483D01*
X3258838Y4777761D01*
X3257451Y4778038D01*
X3256341Y4778177D01*
X3213072D01*
X3253984Y4821585D01*
X3255509Y4823249D01*
X3256757Y4824636D01*
X3257173Y4825191D01*
X3257451Y4825607D01*
X3257728Y4825745D01*
Y4825884D01*
X3258838Y4827132D01*
X3259670Y4828103D01*
X3260224Y4828658D01*
X3260363Y4828935D01*
X3261195Y4830045D01*
X3261750Y4831293D01*
X3262166Y4832125D01*
X3262305Y4832402D01*
Y4832541D01*
X3262859Y4834205D01*
X3262998Y4835592D01*
X3263137Y4836008D01*
Y4836424D01*
Y4836702D01*
Y4836840D01*
X3262998Y4839059D01*
X3262443Y4840862D01*
X3261750Y4842388D01*
X3260918Y4843636D01*
X3259947Y4844607D01*
X3259254Y4845300D01*
X3258699Y4845577D01*
X3258560Y4845716D01*
X3256757Y4846548D01*
X3254816Y4847103D01*
X3252735Y4847658D01*
X3250933Y4847935D01*
X3249130Y4848074D01*
X3247743Y4848212D01*
D02*
G37*
G36*
X3292954Y4883715D02*
X3291983D01*
X3289764Y4883577D01*
X3287961Y4883161D01*
X3286297Y4882467D01*
X3285049Y4881774D01*
X3283939Y4880942D01*
X3283107Y4880387D01*
X3282691Y4879832D01*
X3282552Y4879694D01*
X3281443Y4878029D01*
X3280611Y4876226D01*
X3280056Y4874285D01*
X3279640Y4872482D01*
X3279363Y4870818D01*
X3279224Y4869570D01*
Y4770411D01*
X3279363Y4767776D01*
X3279779Y4765418D01*
X3280472Y4763338D01*
X3281166Y4761535D01*
X3282136Y4760148D01*
X3283246Y4758900D01*
X3284355Y4757929D01*
X3285604Y4757097D01*
X3286852Y4756403D01*
X3287961Y4755987D01*
X3289071Y4755571D01*
X3290041Y4755433D01*
X3290874Y4755294D01*
X3291428Y4755155D01*
X3291983D01*
X3294202Y4755294D01*
X3296005Y4755849D01*
X3297669Y4756403D01*
X3299056Y4757236D01*
X3300165Y4757929D01*
X3300859Y4758622D01*
X3301414Y4759038D01*
X3301552Y4759177D01*
X3302800Y4760841D01*
X3303632Y4762644D01*
X3304326Y4764447D01*
X3304742Y4766250D01*
X3305019Y4767914D01*
X3305158Y4769162D01*
Y4770133D01*
Y4770272D01*
Y4770411D01*
Y4800228D01*
Y4802447D01*
X3305297Y4804666D01*
Y4806468D01*
X3305435Y4808271D01*
X3305574Y4809936D01*
X3305713Y4811322D01*
X3305851Y4812571D01*
X3305990Y4813680D01*
X3306129Y4814651D01*
X3306267Y4815483D01*
X3306406Y4816176D01*
X3306545Y4816731D01*
X3306822Y4817424D01*
Y4817702D01*
X3307793Y4819643D01*
X3308764Y4821308D01*
X3309873Y4822694D01*
X3310983Y4823943D01*
X3311815Y4824913D01*
X3312647Y4825607D01*
X3313202Y4826023D01*
X3313340Y4826162D01*
X3315005Y4827271D01*
X3316807Y4827964D01*
X3318472Y4828519D01*
X3319997Y4828935D01*
X3321245Y4829213D01*
X3322216Y4829351D01*
X3323187D01*
X3325961Y4829074D01*
X3328318Y4828519D01*
X3330260Y4827687D01*
X3331647Y4826716D01*
X3332756Y4825745D01*
X3333588Y4824913D01*
X3334004Y4824359D01*
X3334143Y4824081D01*
X3335114Y4821862D01*
X3335807Y4819505D01*
X3336362Y4816870D01*
X3336639Y4814373D01*
X3336917Y4812016D01*
Y4811045D01*
X3337055Y4810213D01*
Y4809519D01*
Y4808965D01*
Y4808687D01*
Y4808549D01*
Y4770411D01*
X3337194Y4767776D01*
X3337610Y4765418D01*
X3338303Y4763338D01*
X3338997Y4761535D01*
X3339968Y4760148D01*
X3341077Y4758900D01*
X3342187Y4757929D01*
X3343435Y4757097D01*
X3344683Y4756403D01*
X3345792Y4755987D01*
X3346902Y4755571D01*
X3347873Y4755433D01*
X3348705Y4755294D01*
X3349259Y4755155D01*
X3349814D01*
X3351894Y4755294D01*
X3353836Y4755710D01*
X3355500Y4756403D01*
X3356887Y4757097D01*
X3357997Y4757790D01*
X3358690Y4758484D01*
X3359245Y4758900D01*
X3359383Y4759038D01*
X3360632Y4760703D01*
X3361464Y4762506D01*
X3362157Y4764447D01*
X3362573Y4766250D01*
X3362851Y4767914D01*
X3362989Y4769162D01*
Y4816038D01*
X3362851Y4818257D01*
X3362712Y4820198D01*
X3362573Y4822001D01*
X3362296Y4823388D01*
X3362157Y4824497D01*
X3362018Y4825052D01*
Y4825329D01*
X3361602Y4827271D01*
X3361186Y4829074D01*
X3360493Y4830738D01*
X3359938Y4832125D01*
X3359383Y4833373D01*
X3358967Y4834205D01*
X3358690Y4834899D01*
X3358551Y4835037D01*
X3357026Y4837534D01*
X3355223Y4839753D01*
X3353281Y4841694D01*
X3351617Y4843358D01*
X3349953Y4844468D01*
X3348705Y4845439D01*
X3347734Y4845993D01*
X3347595Y4846132D01*
X3347457D01*
X3344683Y4847519D01*
X3341909Y4848490D01*
X3339274Y4849183D01*
X3336778Y4849599D01*
X3334559Y4850015D01*
X3333727D01*
X3332895Y4850154D01*
X3329289D01*
X3327209Y4849877D01*
X3325267Y4849599D01*
X3323603Y4849322D01*
X3322216Y4849044D01*
X3321245Y4848767D01*
X3320552Y4848628D01*
X3320275Y4848490D01*
X3318333Y4847796D01*
X3316530Y4847103D01*
X3315005Y4846409D01*
X3313479Y4845577D01*
X3312370Y4845023D01*
X3311399Y4844468D01*
X3310844Y4844052D01*
X3310705Y4843913D01*
X3309319Y4842804D01*
X3308070Y4841555D01*
X3307100Y4840307D01*
X3306406Y4839059D01*
X3305851Y4838088D01*
X3305435Y4837256D01*
X3305297Y4836563D01*
X3305158Y4836424D01*
Y4868321D01*
X3305019Y4870818D01*
X3304603Y4873175D01*
X3304049Y4875117D01*
X3303355Y4876643D01*
X3302662Y4877891D01*
X3302107Y4878861D01*
X3301691Y4879416D01*
X3301552Y4879555D01*
X3300165Y4880942D01*
X3298640Y4881913D01*
X3296976Y4882745D01*
X3295450Y4883161D01*
X3294063Y4883438D01*
X3292954Y4883715D01*
D02*
G37*
G36*
X3351894Y4729998D02*
X3351062D01*
X3349398Y4729859D01*
X3348011Y4729721D01*
X3346763Y4729305D01*
X3345792Y4728889D01*
X3344960Y4728473D01*
X3344406Y4728195D01*
X3343990Y4727918D01*
X3343851Y4727779D01*
X3343019Y4726947D01*
X3342325Y4726115D01*
X3341216Y4724451D01*
X3340800Y4723757D01*
X3340522Y4723203D01*
X3340384Y4722925D01*
Y4722787D01*
X3339968Y4721677D01*
X3339552Y4720568D01*
X3338858Y4718071D01*
X3338581Y4716962D01*
X3338303Y4716130D01*
X3338026Y4715575D01*
Y4715298D01*
X3324712Y4665649D01*
X3312647Y4712108D01*
X3311953Y4714327D01*
X3311399Y4716130D01*
X3310844Y4717655D01*
X3310428Y4719042D01*
X3310151Y4720013D01*
X3309873Y4720706D01*
X3309596Y4721122D01*
Y4721261D01*
X3309041Y4722371D01*
X3308348Y4723480D01*
X3307654Y4724451D01*
X3306822Y4725283D01*
X3306129Y4726115D01*
X3305574Y4726670D01*
X3305158Y4726947D01*
X3305019Y4727086D01*
X3303771Y4728057D01*
X3302246Y4728750D01*
X3300859Y4729305D01*
X3299333Y4729582D01*
X3298085Y4729859D01*
X3297114Y4729998D01*
X3296144D01*
X3294202Y4729859D01*
X3292399Y4729582D01*
X3290874Y4729166D01*
X3289625Y4728611D01*
X3288655Y4728057D01*
X3287822Y4727641D01*
X3287406Y4727363D01*
X3287268Y4727224D01*
X3286158Y4726115D01*
X3285187Y4725144D01*
X3284494Y4724173D01*
X3283801Y4723341D01*
X3283385Y4722509D01*
X3283107Y4721954D01*
X3282830Y4721538D01*
Y4721400D01*
X3282414Y4720152D01*
X3281859Y4718626D01*
X3281304Y4716823D01*
X3280888Y4715159D01*
X3280334Y4713633D01*
X3280056Y4712385D01*
X3279779Y4711415D01*
X3279640Y4711276D01*
Y4711137D01*
X3267852Y4665649D01*
X3254816Y4714743D01*
X3253984Y4717517D01*
X3253151Y4719874D01*
X3252458Y4721816D01*
X3251765Y4723480D01*
X3251071Y4724728D01*
X3250655Y4725560D01*
X3250378Y4726115D01*
X3250239Y4726254D01*
X3249130Y4727502D01*
X3247881Y4728473D01*
X3246356Y4729027D01*
X3244969Y4729582D01*
X3243582Y4729859D01*
X3242473Y4729998D01*
X3241363D01*
X3239560Y4729859D01*
X3237896Y4729443D01*
X3236509Y4728889D01*
X3235400Y4728334D01*
X3234429Y4727641D01*
X3233597Y4727086D01*
X3233181Y4726670D01*
X3233042Y4726531D01*
X3231933Y4725283D01*
X3231101Y4723896D01*
X3230546Y4722648D01*
X3230130Y4721538D01*
X3229853Y4720429D01*
X3229714Y4719597D01*
Y4718903D01*
X3229853Y4717517D01*
X3230130Y4715714D01*
X3230685Y4713772D01*
X3231239Y4711969D01*
X3231655Y4710166D01*
X3232210Y4708780D01*
X3232349Y4708225D01*
X3232488Y4707809D01*
X3232626Y4707531D01*
Y4707393D01*
X3250655Y4653861D01*
X3250933Y4653029D01*
X3251349Y4652058D01*
X3252042Y4650116D01*
X3252319Y4649145D01*
X3252597Y4648591D01*
X3252735Y4648036D01*
Y4647897D01*
X3253845Y4645262D01*
X3254400Y4644153D01*
X3254954Y4643043D01*
X3255370Y4642211D01*
X3255786Y4641656D01*
X3255925Y4641240D01*
X3256064Y4641102D01*
X3257589Y4639160D01*
X3259254Y4637773D01*
X3259947Y4637357D01*
X3260502Y4636941D01*
X3260779Y4636803D01*
X3260918Y4636664D01*
X3262166Y4636109D01*
X3263275Y4635693D01*
X3264524Y4635416D01*
X3265633Y4635277D01*
X3266604Y4635138D01*
X3267436Y4635000D01*
X3268129D01*
X3271042Y4635277D01*
X3273399Y4635832D01*
X3275480Y4636664D01*
X3277005Y4637635D01*
X3278253Y4638467D01*
X3279085Y4639299D01*
X3279501Y4639854D01*
X3279640Y4640131D01*
X3280750Y4642211D01*
X3281859Y4644430D01*
X3282830Y4646788D01*
X3283662Y4649007D01*
X3284217Y4651087D01*
X3284771Y4652612D01*
X3284910Y4653306D01*
X3285049Y4653722D01*
X3285187Y4653999D01*
Y4654138D01*
X3296144Y4697407D01*
X3307516Y4654138D01*
X3308070Y4652196D01*
X3308625Y4650394D01*
X3309180Y4648729D01*
X3309596Y4647342D01*
X3310012Y4646233D01*
X3310289Y4645401D01*
X3310567Y4644846D01*
Y4644707D01*
X3311260Y4643321D01*
X3311953Y4641934D01*
X3312786Y4640686D01*
X3313479Y4639715D01*
X3314172Y4638883D01*
X3314727Y4638328D01*
X3315143Y4637912D01*
X3315282Y4637773D01*
X3316669Y4636803D01*
X3318056Y4636109D01*
X3319581Y4635693D01*
X3321107Y4635416D01*
X3322355Y4635138D01*
X3323464Y4635000D01*
X3324435D01*
X3326515Y4635138D01*
X3328180Y4635416D01*
X3329705Y4635832D01*
X3330953Y4636386D01*
X3332063Y4636803D01*
X3332756Y4637219D01*
X3333172Y4637496D01*
X3333311Y4637635D01*
X3334420Y4638744D01*
X3335391Y4639715D01*
X3336223Y4640824D01*
X3336917Y4641795D01*
X3337471Y4642489D01*
X3337749Y4643182D01*
X3338026Y4643598D01*
Y4643737D01*
X3338581Y4645124D01*
X3339136Y4646510D01*
X3339690Y4648036D01*
X3340245Y4649561D01*
X3340800Y4650810D01*
X3341216Y4651780D01*
X3341355Y4652474D01*
X3341493Y4652751D01*
X3360077Y4707393D01*
X3361048Y4710166D01*
X3361741Y4712524D01*
X3362296Y4714466D01*
X3362573Y4716130D01*
X3362851Y4717378D01*
X3362989Y4718210D01*
Y4718903D01*
X3362851Y4720568D01*
X3362434Y4721954D01*
X3361880Y4723341D01*
X3361186Y4724451D01*
X3360493Y4725422D01*
X3359938Y4726115D01*
X3359522Y4726531D01*
X3359383Y4726670D01*
X3357997Y4727779D01*
X3356610Y4728611D01*
X3355223Y4729166D01*
X3353975Y4729582D01*
X3352727Y4729859D01*
X3351894Y4729998D01*
D02*
G37*
G36*
X3177707Y4730276D02*
X3175211D01*
X3170357Y4730137D01*
X3165919Y4729721D01*
X3163839Y4729443D01*
X3162036Y4729027D01*
X3160233Y4728750D01*
X3158708Y4728334D01*
X3157182Y4727918D01*
X3155934Y4727641D01*
X3154963Y4727363D01*
X3153992Y4726947D01*
X3153299Y4726808D01*
X3152744Y4726531D01*
X3152467Y4726392D01*
X3152328D01*
X3149000Y4724867D01*
X3146226Y4723341D01*
X3143868Y4721677D01*
X3141927Y4720013D01*
X3140401Y4718626D01*
X3139292Y4717517D01*
X3138737Y4716823D01*
X3138460Y4716684D01*
Y4716546D01*
X3136934Y4714327D01*
X3135964Y4712108D01*
X3135131Y4710028D01*
X3134577Y4708086D01*
X3134299Y4706422D01*
X3134161Y4705174D01*
X3134022Y4704342D01*
Y4704203D01*
Y4704064D01*
X3134161Y4702400D01*
X3134577Y4701013D01*
X3134993Y4699626D01*
X3135686Y4698656D01*
X3136241Y4697685D01*
X3136657Y4697130D01*
X3137073Y4696714D01*
X3137212Y4696575D01*
X3138460Y4695605D01*
X3139847Y4694911D01*
X3141095Y4694356D01*
X3142343Y4694079D01*
X3143452Y4693802D01*
X3144285Y4693663D01*
X3144978D01*
X3146781Y4693802D01*
X3148168Y4693940D01*
X3149277Y4694218D01*
X3150248Y4694634D01*
X3150941Y4694911D01*
X3151357Y4695188D01*
X3151496Y4695327D01*
X3151635Y4695466D01*
X3152328Y4696298D01*
X3153022Y4697269D01*
X3154547Y4699349D01*
X3155102Y4700458D01*
X3155657Y4701291D01*
X3156073Y4701845D01*
X3156211Y4701984D01*
X3157321Y4703648D01*
X3158569Y4705174D01*
X3159817Y4706422D01*
X3160788Y4707393D01*
X3161759Y4708086D01*
X3162452Y4708641D01*
X3163007Y4708918D01*
X3163146Y4709057D01*
X3164810Y4709750D01*
X3166751Y4710305D01*
X3168693Y4710721D01*
X3170635Y4710998D01*
X3172437Y4711137D01*
X3173963Y4711276D01*
X3176875D01*
X3178401Y4711137D01*
X3179788Y4710998D01*
X3181036Y4710721D01*
X3183116Y4710028D01*
X3184780Y4709473D01*
X3185890Y4708780D01*
X3186722Y4708086D01*
X3187138Y4707670D01*
X3187277Y4707531D01*
X3188247Y4706006D01*
X3188941Y4704342D01*
X3189496Y4702539D01*
X3189912Y4700736D01*
X3190189Y4699210D01*
X3190328Y4697962D01*
X3190466Y4696991D01*
Y4696853D01*
Y4696714D01*
X3186167Y4695466D01*
X3184087Y4694911D01*
X3182145Y4694495D01*
X3180620Y4694079D01*
X3179372Y4693802D01*
X3178539Y4693663D01*
X3178401Y4693524D01*
X3178262D01*
X3175904Y4692970D01*
X3173269Y4692415D01*
X3170773Y4691860D01*
X3168554Y4691444D01*
X3166474Y4691028D01*
X3164810Y4690612D01*
X3164255Y4690473D01*
X3163839D01*
X3163562Y4690335D01*
X3163423D01*
X3161897Y4690057D01*
X3160511Y4689780D01*
X3159262Y4689502D01*
X3158153Y4689225D01*
X3156350Y4688948D01*
X3155102Y4688670D01*
X3154131Y4688393D01*
X3153576D01*
X3153299Y4688254D01*
X3153160D01*
X3149416Y4687145D01*
X3145949Y4685758D01*
X3143175Y4684232D01*
X3140679Y4682707D01*
X3138737Y4681181D01*
X3137350Y4679933D01*
X3136934Y4679517D01*
X3136518Y4679101D01*
X3136380Y4678962D01*
X3136241Y4678824D01*
X3135131Y4677437D01*
X3134161Y4676050D01*
X3132635Y4673276D01*
X3131526Y4670503D01*
X3130832Y4667868D01*
X3130277Y4665510D01*
X3130139Y4664539D01*
Y4663707D01*
X3130000Y4663014D01*
Y4662043D01*
X3130139Y4659408D01*
X3130555Y4656773D01*
X3131248Y4654554D01*
X3131942Y4652474D01*
X3132496Y4650810D01*
X3133190Y4649561D01*
X3133606Y4648729D01*
X3133745Y4648591D01*
Y4648452D01*
X3135270Y4646233D01*
X3136934Y4644291D01*
X3138737Y4642627D01*
X3140540Y4641240D01*
X3142066Y4640131D01*
X3143314Y4639299D01*
X3144146Y4638744D01*
X3144285Y4638605D01*
X3144423D01*
X3147197Y4637357D01*
X3149971Y4636525D01*
X3152606Y4635832D01*
X3155102Y4635416D01*
X3157321Y4635138D01*
X3158153D01*
X3158985Y4635000D01*
X3160511D01*
X3164116Y4635138D01*
X3167583Y4635554D01*
X3170496Y4635970D01*
X3173269Y4636664D01*
X3175350Y4637219D01*
X3176321Y4637496D01*
X3177014Y4637635D01*
X3177569Y4637912D01*
X3177985Y4638051D01*
X3178262Y4638189D01*
X3178401D01*
X3181313Y4639576D01*
X3184087Y4641102D01*
X3186583Y4642627D01*
X3188663Y4644153D01*
X3190605Y4645540D01*
X3191853Y4646649D01*
X3192408Y4647065D01*
X3192824Y4647342D01*
X3192963Y4647620D01*
X3193101D01*
X3194211Y4645540D01*
X3195320Y4643737D01*
X3196430Y4642211D01*
X3197401Y4640963D01*
X3198371Y4639854D01*
X3199065Y4639160D01*
X3199481Y4638605D01*
X3199619Y4638467D01*
X3201006Y4637357D01*
X3202393Y4636525D01*
X3203780Y4635832D01*
X3205028Y4635416D01*
X3205999Y4635138D01*
X3206831Y4635000D01*
X3207524D01*
X3209327Y4635138D01*
X3210853Y4635554D01*
X3212378Y4635970D01*
X3213627Y4636664D01*
X3214736Y4637219D01*
X3215429Y4637635D01*
X3215984Y4638051D01*
X3216123Y4638189D01*
X3217371Y4639438D01*
X3218342Y4640824D01*
X3219035Y4642073D01*
X3219590Y4643321D01*
X3219867Y4644291D01*
X3220006Y4645124D01*
Y4645817D01*
X3219867Y4646788D01*
X3219729Y4648175D01*
X3219313Y4649561D01*
X3219035Y4651087D01*
X3218619Y4652474D01*
X3218203Y4653722D01*
X3218064Y4654554D01*
X3217926Y4654693D01*
Y4654831D01*
X3217232Y4657466D01*
X3216678Y4660101D01*
X3216400Y4662598D01*
X3216123Y4664817D01*
X3215984Y4666758D01*
X3215845Y4668284D01*
Y4668839D01*
Y4669255D01*
Y4669393D01*
Y4669532D01*
Y4673415D01*
Y4675218D01*
Y4676744D01*
Y4678130D01*
Y4679240D01*
Y4679933D01*
Y4680211D01*
Y4682430D01*
X3215984Y4684648D01*
Y4686867D01*
Y4689086D01*
Y4690889D01*
Y4692415D01*
Y4692970D01*
Y4693386D01*
Y4693524D01*
Y4693663D01*
X3215845Y4698240D01*
X3215429Y4702400D01*
X3215152Y4704203D01*
X3214736Y4706006D01*
X3214459Y4707531D01*
X3214181Y4708918D01*
X3213765Y4710305D01*
X3213488Y4711415D01*
X3213072Y4712385D01*
X3212794Y4713217D01*
X3212656Y4713772D01*
X3212378Y4714188D01*
X3212240Y4714466D01*
Y4714604D01*
X3210575Y4717517D01*
X3208634Y4719874D01*
X3206554Y4721954D01*
X3204473Y4723619D01*
X3202532Y4724867D01*
X3201006Y4725838D01*
X3200313Y4726115D01*
X3199897Y4726392D01*
X3199619Y4726531D01*
X3199481D01*
X3197678Y4727224D01*
X3195875Y4727779D01*
X3191853Y4728750D01*
X3187831Y4729305D01*
X3183948Y4729859D01*
X3182145Y4729998D01*
X3180481Y4730137D01*
X3179094D01*
X3177707Y4730276D01*
D02*
G37*
%LPD*%
G36*
X3190466Y4678685D02*
Y4676605D01*
X3190328Y4674802D01*
X3189912Y4671335D01*
X3189496Y4668561D01*
X3188941Y4666204D01*
X3188247Y4664401D01*
X3187831Y4663152D01*
X3187415Y4662459D01*
X3187277Y4662182D01*
X3186306Y4660795D01*
X3185196Y4659547D01*
X3184087Y4658437D01*
X3182839Y4657466D01*
X3181729Y4656773D01*
X3180758Y4656218D01*
X3180204Y4655802D01*
X3179926Y4655664D01*
X3177985Y4654831D01*
X3175904Y4654138D01*
X3173963Y4653722D01*
X3172160Y4653306D01*
X3170635Y4653167D01*
X3169386Y4653029D01*
X3168277D01*
X3166335Y4653167D01*
X3164532Y4653445D01*
X3163007Y4653999D01*
X3161759Y4654554D01*
X3160788Y4655109D01*
X3159956Y4655664D01*
X3159540Y4655941D01*
X3159401Y4656080D01*
X3158292Y4657328D01*
X3157460Y4658576D01*
X3156905Y4659824D01*
X3156489Y4661072D01*
X3156211Y4662043D01*
X3156073Y4663014D01*
Y4663569D01*
Y4663707D01*
X3156211Y4665233D01*
X3156489Y4666481D01*
X3156905Y4667590D01*
X3157460Y4668561D01*
X3158014Y4669255D01*
X3158430Y4669809D01*
X3158708Y4670087D01*
X3158846Y4670225D01*
X3159956Y4671057D01*
X3161065Y4671751D01*
X3163007Y4672860D01*
X3163839Y4673138D01*
X3164532Y4673415D01*
X3164948Y4673554D01*
X3165087D01*
X3165781Y4673692D01*
X3166613Y4673970D01*
X3168554Y4674386D01*
X3170635Y4674802D01*
X3172853Y4675357D01*
X3174795Y4675773D01*
X3176459Y4676189D01*
X3177153Y4676327D01*
X3177569D01*
X3177846Y4676466D01*
X3177985D01*
X3179788Y4676882D01*
X3181313Y4677298D01*
X3182700Y4677576D01*
X3184087Y4677992D01*
X3186167Y4678546D01*
X3187831Y4679240D01*
X3189079Y4679656D01*
X3189912Y4680072D01*
X3190328Y4680211D01*
X3190466Y4680349D01*
Y4678685D01*
D02*
G37*
%LPC*%
G36*
X3539858Y2747236D02*
X3409079D01*
Y2662084D01*
D01*
Y2703412D01*
X3409217Y2699529D01*
X3409633Y2695923D01*
X3410327Y2692595D01*
X3411020Y2689821D01*
X3411436Y2688573D01*
X3411852Y2687463D01*
X3412130Y2686492D01*
X3412407Y2685660D01*
X3412684Y2684967D01*
X3412962Y2684551D01*
X3413100Y2684274D01*
Y2684135D01*
X3414765Y2681084D01*
X3416567Y2678449D01*
X3418370Y2676230D01*
X3420173Y2674427D01*
X3421699Y2672901D01*
X3423086Y2671792D01*
X3423918Y2671237D01*
X3424056Y2670960D01*
X3424195D01*
X3426969Y2669296D01*
X3430020Y2667909D01*
X3433071Y2666661D01*
X3436122Y2665690D01*
X3438757Y2664858D01*
X3439866Y2664580D01*
X3440837Y2664303D01*
X3441669Y2664164D01*
X3442224Y2664026D01*
X3442640Y2663887D01*
X3442779D01*
X3446523Y2686492D01*
X3443611Y2687047D01*
X3440976Y2687741D01*
X3438896Y2688573D01*
X3437093Y2689544D01*
X3435706Y2690514D01*
X3434735Y2691208D01*
X3434042Y2691762D01*
X3433903Y2691901D01*
X3432377Y2693704D01*
X3431268Y2695507D01*
X3430575Y2697310D01*
X3430020Y2698974D01*
X3429742Y2700500D01*
X3429465Y2701609D01*
Y2702718D01*
X3429604Y2705076D01*
X3430020Y2707156D01*
X3430713Y2708821D01*
X3431407Y2710346D01*
X3432100Y2711594D01*
X3432793Y2712426D01*
X3433210Y2712981D01*
X3433348Y2713120D01*
X3434874Y2714368D01*
X3436538Y2715339D01*
X3438341Y2716032D01*
X3439866Y2716587D01*
X3441392Y2716864D01*
X3442501Y2717003D01*
X3443333D01*
X3443472D01*
X3443611D01*
X3446385Y2716726D01*
X3448742Y2716171D01*
X3450822Y2715339D01*
X3452625Y2714368D01*
X3454012Y2713258D01*
X3454983Y2712426D01*
X3455538Y2711872D01*
X3455815Y2711594D01*
X3457202Y2709375D01*
X3458311Y2707018D01*
X3459143Y2704521D01*
X3459560Y2702025D01*
X3459837Y2699806D01*
Y2698835D01*
X3459976Y2698003D01*
Y2696339D01*
X3479946Y2693704D01*
X3479253Y2696062D01*
X3478837Y2698281D01*
X3478421Y2700083D01*
X3478282Y2701748D01*
X3478143Y2703135D01*
X3478004Y2704105D01*
Y2704937D01*
X3478282Y2707572D01*
X3478837Y2709930D01*
X3479807Y2712010D01*
X3480778Y2713813D01*
X3481749Y2715200D01*
X3482720Y2716310D01*
X3483274Y2716864D01*
X3483552Y2717142D01*
X3485771Y2718806D01*
X3488128Y2720054D01*
X3490625Y2720886D01*
X3492982Y2721580D01*
X3495063Y2721857D01*
X3495895Y2721996D01*
X3496727D01*
X3497420Y2722134D01*
X3497836D01*
X3498114D01*
X3498252D01*
X3501719Y2721857D01*
X3504770Y2721302D01*
X3507405Y2720470D01*
X3509624Y2719499D01*
X3511427Y2718528D01*
X3512675Y2717696D01*
X3513508Y2717142D01*
X3513785Y2716864D01*
X3515727Y2714784D01*
X3517113Y2712565D01*
X3518084Y2710485D01*
X3518778Y2708405D01*
X3519194Y2706602D01*
X3519332Y2705215D01*
X3519471Y2704660D01*
Y2703967D01*
X3519332Y2701470D01*
X3518778Y2699113D01*
X3517945Y2697032D01*
X3517113Y2695230D01*
X3516281Y2693843D01*
X3515449Y2692733D01*
X3514894Y2692179D01*
X3514756Y2691901D01*
X3512814Y2690237D01*
X3510457Y2688850D01*
X3508238Y2687741D01*
X3505880Y2687047D01*
X3503938Y2686354D01*
X3502274Y2686076D01*
X3501581Y2685938D01*
X3501165Y2685799D01*
X3500887D01*
X3500749D01*
X3503661Y2662084D01*
X3506573Y2662500D01*
X3509486Y2663194D01*
X3512121Y2664026D01*
X3514617Y2664858D01*
X3516975Y2665967D01*
X3519055Y2667077D01*
X3520997Y2668186D01*
X3522799Y2669296D01*
X3524464Y2670544D01*
X3525850Y2671515D01*
X3527099Y2672624D01*
X3528069Y2673456D01*
X3528902Y2674150D01*
X3529456Y2674704D01*
X3529734Y2675120D01*
X3529872Y2675259D01*
X3531675Y2677478D01*
X3533201Y2679836D01*
X3534449Y2682193D01*
X3535697Y2684690D01*
X3536668Y2687047D01*
X3537361Y2689405D01*
X3538055Y2691762D01*
X3538609Y2693981D01*
X3539025Y2696062D01*
X3539303Y2698003D01*
X3539580Y2699806D01*
X3539719Y2701193D01*
Y2702441D01*
X3539858Y2703273D01*
Y2704105D01*
X3539719Y2707434D01*
X3539303Y2710762D01*
X3538748Y2713813D01*
X3538055Y2716726D01*
X3537084Y2719361D01*
X3536113Y2721996D01*
X3535004Y2724353D01*
X3533894Y2726433D01*
X3532923Y2728375D01*
X3531814Y2730039D01*
X3530843Y2731426D01*
X3529872Y2732674D01*
X3529179Y2733645D01*
X3528624Y2734338D01*
X3528208Y2734755D01*
X3528069Y2734893D01*
X3525712Y2737112D01*
X3523354Y2738915D01*
X3520997Y2740579D01*
X3518500Y2741966D01*
X3516143Y2743214D01*
X3513785Y2744185D01*
X3511427Y2745017D01*
X3509208Y2745711D01*
X3507128Y2746265D01*
X3505325Y2746543D01*
X3503661Y2746820D01*
X3502135Y2747097D01*
X3501026D01*
X3500055Y2747236D01*
X3539858D01*
D02*
G37*
G36*
X3537500Y2655289D02*
D01*
Y2609523D01*
X3409495Y2655289D01*
Y2627829D01*
X3504216Y2596487D01*
X3409495Y2564034D01*
Y2536159D01*
X3537500Y2581786D01*
Y2536159D01*
X3409495D01*
X3537500D01*
Y2655289D01*
D02*
G37*
G36*
X3539858Y2528531D02*
X3409079D01*
X3499362D01*
X3497282Y2528393D01*
X3495201Y2528254D01*
X3491318Y2527561D01*
X3487990Y2526451D01*
X3485077Y2525203D01*
X3483829Y2524648D01*
X3482720Y2523955D01*
X3481749Y2523400D01*
X3480917Y2522984D01*
X3480362Y2522429D01*
X3479946Y2522152D01*
X3479669Y2522013D01*
X3479530Y2521875D01*
X3478004Y2520626D01*
X3476618Y2519240D01*
X3474399Y2516466D01*
X3472457Y2513554D01*
X3471070Y2510641D01*
X3470099Y2508284D01*
X3469683Y2507174D01*
X3469406Y2506203D01*
X3469129Y2505510D01*
X3468990Y2504955D01*
X3468851Y2504539D01*
Y2504400D01*
X3466910Y2507590D01*
X3464829Y2510502D01*
X3462611Y2512999D01*
X3460392Y2515079D01*
X3458173Y2516882D01*
X3455954Y2518407D01*
X3453735Y2519517D01*
X3451655Y2520488D01*
X3449713Y2521320D01*
X3447771Y2521875D01*
X3446107Y2522291D01*
X3444720Y2522568D01*
X3443611Y2522707D01*
X3442640Y2522845D01*
X3442085D01*
X3441947D01*
X3439728Y2522707D01*
X3437647Y2522429D01*
X3435567Y2522013D01*
X3433626Y2521459D01*
X3430020Y2519933D01*
X3426969Y2518269D01*
X3425582Y2517437D01*
X3424334Y2516605D01*
X3423224Y2515772D01*
X3422392Y2515079D01*
X3421699Y2514524D01*
X3421144Y2514108D01*
X3420867Y2513831D01*
X3420728Y2513692D01*
X3418648Y2511612D01*
X3416845Y2509393D01*
X3415319Y2507035D01*
X3413932Y2504539D01*
X3412823Y2502181D01*
X3411852Y2499824D01*
X3411159Y2497466D01*
X3410465Y2495109D01*
X3410049Y2493028D01*
X3409633Y2491087D01*
X3409495Y2489284D01*
X3409217Y2487758D01*
Y2486510D01*
X3409079Y2485539D01*
Y2484707D01*
X3409217Y2480824D01*
X3409633Y2477218D01*
X3410327Y2473890D01*
X3411020Y2471116D01*
X3411436Y2469868D01*
X3411852Y2468759D01*
X3412130Y2467788D01*
X3412407Y2466956D01*
X3412684Y2466262D01*
X3412962Y2465846D01*
X3413100Y2465569D01*
Y2465430D01*
X3414765Y2462379D01*
X3416567Y2459744D01*
X3418370Y2457525D01*
X3420173Y2455722D01*
X3421699Y2454197D01*
X3423086Y2453087D01*
X3423918Y2452533D01*
X3424056Y2452255D01*
X3424195D01*
X3426969Y2450591D01*
X3430020Y2449204D01*
X3433071Y2447956D01*
X3436122Y2446985D01*
X3438757Y2446153D01*
X3439866Y2445876D01*
X3440837Y2445598D01*
X3441669Y2445460D01*
X3442224Y2445321D01*
X3442640Y2445182D01*
X3442779D01*
X3446523Y2467788D01*
X3443611Y2468343D01*
X3440976Y2469036D01*
X3438896Y2469868D01*
X3437093Y2470839D01*
X3435706Y2471810D01*
X3434735Y2472503D01*
X3434042Y2473058D01*
X3433903Y2473196D01*
X3432377Y2474999D01*
X3431268Y2476802D01*
X3430575Y2478605D01*
X3430020Y2480269D01*
X3429742Y2481795D01*
X3429465Y2482904D01*
Y2484014D01*
X3429604Y2486371D01*
X3430020Y2488452D01*
X3430713Y2490116D01*
X3431407Y2491641D01*
X3432100Y2492890D01*
X3432793Y2493722D01*
X3433210Y2494276D01*
X3433348Y2494415D01*
X3434874Y2495663D01*
X3436538Y2496634D01*
X3438341Y2497327D01*
X3439866Y2497882D01*
X3441392Y2498160D01*
X3442501Y2498298D01*
X3443333D01*
X3443472D01*
X3443611D01*
X3446385Y2498021D01*
X3448742Y2497466D01*
X3450822Y2496634D01*
X3452625Y2495663D01*
X3454012Y2494554D01*
X3454983Y2493722D01*
X3455538Y2493167D01*
X3455815Y2492890D01*
X3457202Y2490671D01*
X3458311Y2488313D01*
X3459143Y2485817D01*
X3459560Y2483320D01*
X3459837Y2481101D01*
Y2480131D01*
X3459976Y2479299D01*
Y2477634D01*
X3479946Y2474999D01*
X3479253Y2477357D01*
X3478837Y2479576D01*
X3478421Y2481379D01*
X3478282Y2483043D01*
X3478143Y2484430D01*
X3478004Y2485401D01*
Y2486233D01*
X3478282Y2488868D01*
X3478837Y2491225D01*
X3479807Y2493306D01*
X3480778Y2495109D01*
X3481749Y2496495D01*
X3482720Y2497605D01*
X3483274Y2498160D01*
X3483552Y2498437D01*
X3485771Y2500101D01*
X3488128Y2501349D01*
X3490625Y2502181D01*
X3492982Y2502875D01*
X3495063Y2503152D01*
X3495895Y2503291D01*
X3496727D01*
X3497420Y2503430D01*
X3497836D01*
X3498114D01*
X3498252D01*
X3501719Y2503152D01*
X3504770Y2502597D01*
X3507405Y2501765D01*
X3509624Y2500795D01*
X3511427Y2499824D01*
X3512675Y2498992D01*
X3513508Y2498437D01*
X3513785Y2498160D01*
X3515727Y2496079D01*
X3517113Y2493860D01*
X3518084Y2491780D01*
X3518778Y2489700D01*
X3519194Y2487897D01*
X3519332Y2486510D01*
X3519471Y2485955D01*
Y2485262D01*
X3519332Y2482766D01*
X3518778Y2480408D01*
X3517945Y2478328D01*
X3517113Y2476525D01*
X3516281Y2475138D01*
X3515449Y2474029D01*
X3514894Y2473474D01*
X3514756Y2473196D01*
X3512814Y2471532D01*
X3510457Y2470145D01*
X3508238Y2469036D01*
X3505880Y2468343D01*
X3503938Y2467649D01*
X3502274Y2467372D01*
X3501581Y2467233D01*
X3501165Y2467094D01*
X3500887D01*
X3500749D01*
X3503661Y2443379D01*
X3506573Y2443795D01*
X3509486Y2444489D01*
X3512121Y2445321D01*
X3514617Y2446153D01*
X3516975Y2447263D01*
X3519055Y2448372D01*
X3520997Y2449482D01*
X3522799Y2450591D01*
X3524464Y2451839D01*
X3525850Y2452810D01*
X3527099Y2453919D01*
X3528069Y2454752D01*
X3528902Y2455445D01*
X3529456Y2456000D01*
X3529734Y2456416D01*
X3529872Y2456554D01*
X3531675Y2458773D01*
X3533201Y2461131D01*
X3534449Y2463489D01*
X3535697Y2465985D01*
X3536668Y2468343D01*
X3537361Y2470700D01*
X3538055Y2473058D01*
X3538609Y2475277D01*
X3539025Y2477357D01*
X3539303Y2479299D01*
X3539580Y2481101D01*
X3539719Y2482488D01*
Y2483736D01*
X3539858Y2484569D01*
Y2485401D01*
X3539719Y2488729D01*
X3539303Y2492057D01*
X3538748Y2495109D01*
X3538055Y2498021D01*
X3537084Y2500656D01*
X3536113Y2503291D01*
X3535004Y2505649D01*
X3533894Y2507729D01*
X3532923Y2509670D01*
X3531814Y2511335D01*
X3530843Y2512721D01*
X3529872Y2513970D01*
X3529179Y2514940D01*
X3528624Y2515634D01*
X3528208Y2516050D01*
X3528069Y2516189D01*
X3525712Y2518407D01*
X3523354Y2520210D01*
X3520997Y2521875D01*
X3518500Y2523261D01*
X3516143Y2524510D01*
X3513785Y2525480D01*
X3511427Y2526312D01*
X3509208Y2527006D01*
X3507128Y2527561D01*
X3505325Y2527838D01*
X3503661Y2528115D01*
X3502135Y2528393D01*
X3501026D01*
X3500055Y2528531D01*
X3539858D01*
D02*
G37*
G36*
X3537500Y2419248D02*
X3512953D01*
Y2394701D01*
X3491110D01*
X3537500D01*
Y2419248D01*
D02*
G37*
G36*
X3491110D02*
X3444720D01*
Y2394701D01*
X3469267D01*
Y2419248D01*
X3491110D01*
D02*
G37*
G36*
X3496172Y2371818D02*
X3411159D01*
X3494647D01*
X3491179Y2371680D01*
X3487851Y2371264D01*
X3484800Y2370709D01*
X3481749Y2370016D01*
X3479114Y2369183D01*
X3476479Y2368213D01*
X3474121Y2367103D01*
X3472041Y2366132D01*
X3470099Y2365023D01*
X3468435Y2363913D01*
X3467048Y2362943D01*
X3465939Y2362111D01*
X3464968Y2361417D01*
X3464275Y2360862D01*
X3463859Y2360446D01*
X3463720Y2360308D01*
X3461640Y2358089D01*
X3459837Y2355870D01*
X3458173Y2353512D01*
X3456786Y2351155D01*
X3455676Y2348797D01*
X3454706Y2346578D01*
X3453873Y2344359D01*
X3453319Y2342140D01*
X3452764Y2340199D01*
X3452487Y2338396D01*
X3452209Y2336731D01*
X3451932Y2335345D01*
Y2334096D01*
X3451793Y2333264D01*
Y2332571D01*
X3451932Y2329381D01*
X3452487Y2326330D01*
X3453041Y2323556D01*
X3453873Y2320921D01*
X3454567Y2318841D01*
X3454983Y2318009D01*
X3455260Y2317177D01*
X3455538Y2316622D01*
X3455815Y2316206D01*
X3455954Y2315929D01*
Y2315790D01*
X3434180Y2319673D01*
Y2366132D01*
X3411159D01*
D01*
Y2285696D01*
Y2301228D01*
X3477866Y2288608D01*
X3480639Y2308440D01*
X3478975Y2309965D01*
X3477588Y2311630D01*
X3476340Y2313294D01*
X3475231Y2314958D01*
X3474399Y2316484D01*
X3473567Y2318148D01*
X3472457Y2321060D01*
X3471902Y2323695D01*
X3471625Y2324666D01*
X3471486Y2325637D01*
X3471348Y2326469D01*
Y2328965D01*
X3471625Y2330491D01*
X3472318Y2333126D01*
X3473289Y2335483D01*
X3474260Y2337425D01*
X3475369Y2339089D01*
X3476340Y2340199D01*
X3477034Y2340892D01*
X3477172Y2341169D01*
X3477311D01*
X3479807Y2342972D01*
X3482581Y2344359D01*
X3485493Y2345330D01*
X3488406Y2345885D01*
X3491041Y2346301D01*
X3492150Y2346439D01*
X3493121D01*
X3493953Y2346578D01*
X3494508D01*
X3494924D01*
X3495063D01*
X3497282D01*
X3499500Y2346301D01*
X3501442Y2346023D01*
X3503384Y2345746D01*
X3505048Y2345330D01*
X3506573Y2344914D01*
X3507960Y2344359D01*
X3509208Y2343943D01*
X3510318Y2343388D01*
X3511289Y2342834D01*
X3512121Y2342417D01*
X3512814Y2342001D01*
X3513230Y2341724D01*
X3513646Y2341447D01*
X3513785Y2341169D01*
X3513924D01*
X3515033Y2340199D01*
X3516004Y2339089D01*
X3517529Y2336870D01*
X3518639Y2334790D01*
X3519332Y2332710D01*
X3519887Y2330907D01*
X3520026Y2329381D01*
X3520164Y2328826D01*
Y2328133D01*
X3519887Y2325637D01*
X3519332Y2323418D01*
X3518639Y2321337D01*
X3517668Y2319673D01*
X3516836Y2318148D01*
X3516004Y2317177D01*
X3515449Y2316484D01*
X3515310Y2316206D01*
X3513369Y2314542D01*
X3511150Y2313155D01*
X3509070Y2312046D01*
X3506851Y2311214D01*
X3505048Y2310659D01*
X3503522Y2310381D01*
X3502968Y2310243D01*
X3502552Y2310104D01*
X3502274D01*
X3502135D01*
X3504770Y2285696D01*
X3507683Y2286250D01*
X3510457Y2286805D01*
X3513092Y2287637D01*
X3515588Y2288608D01*
X3517807Y2289718D01*
X3519887Y2290827D01*
X3521829Y2291936D01*
X3523632Y2293046D01*
X3525157Y2294155D01*
X3526544Y2295265D01*
X3527653Y2296236D01*
X3528624Y2297068D01*
X3529456Y2297900D01*
X3530011Y2298455D01*
X3530288Y2298732D01*
X3530427Y2298871D01*
X3532091Y2301090D01*
X3533478Y2303309D01*
X3534726Y2305666D01*
X3535836Y2308163D01*
X3536806Y2310520D01*
X3537500Y2313016D01*
X3538609Y2317593D01*
X3539025Y2319673D01*
X3539303Y2321615D01*
X3539580Y2323418D01*
X3539719Y2324943D01*
X3539858Y2326191D01*
Y2328826D01*
Y2327856D01*
X3539719Y2331877D01*
X3539164Y2335761D01*
X3538332Y2339366D01*
X3537223Y2342695D01*
X3535974Y2345746D01*
X3534449Y2348520D01*
X3532923Y2351155D01*
X3531398Y2353512D01*
X3529872Y2355592D01*
X3528347Y2357395D01*
X3526821Y2358921D01*
X3525573Y2360169D01*
X3524464Y2361278D01*
X3523632Y2361972D01*
X3523077Y2362388D01*
X3522938Y2362527D01*
X3520580Y2364191D01*
X3518084Y2365578D01*
X3515727Y2366826D01*
X3513230Y2367935D01*
X3510873Y2368767D01*
X3508515Y2369600D01*
X3506296Y2370154D01*
X3504077Y2370709D01*
X3502135Y2370986D01*
X3500333Y2371264D01*
X3498668Y2371541D01*
X3497282Y2371680D01*
X3496172Y2371818D01*
D02*
G37*
G36*
X3537500Y2248667D02*
X3409079D01*
Y2228697D01*
X3411297Y2227864D01*
X3413378Y2226894D01*
X3417261Y2224536D01*
X3420728Y2222040D01*
X3423779Y2219405D01*
X3425166Y2218157D01*
X3426275Y2217047D01*
X3427385Y2216076D01*
X3428217Y2215106D01*
X3428910Y2214412D01*
X3429326Y2213857D01*
X3429604Y2213441D01*
X3429742Y2213303D01*
X3432793Y2209142D01*
X3435290Y2205259D01*
X3437370Y2201792D01*
X3438896Y2198741D01*
X3439589Y2197354D01*
X3440144Y2196106D01*
X3440560Y2195135D01*
X3440976Y2194164D01*
X3441253Y2193471D01*
X3441392Y2192916D01*
X3441531Y2192639D01*
Y2192500D01*
X3537500D01*
Y2248667D01*
D02*
G37*
%LPD*%
G36*
X3497282Y2747097D02*
X3495201Y2746959D01*
X3491318Y2746265D01*
X3487990Y2745156D01*
X3485077Y2743908D01*
X3483829Y2743353D01*
X3482720Y2742659D01*
X3481749Y2742105D01*
X3480917Y2741689D01*
X3480362Y2741134D01*
X3479946Y2740857D01*
X3479669Y2740718D01*
X3479530Y2740579D01*
X3478004Y2739331D01*
X3476618Y2737944D01*
X3474399Y2735171D01*
X3472457Y2732258D01*
X3471070Y2729346D01*
X3470099Y2726988D01*
X3469683Y2725879D01*
X3469406Y2724908D01*
X3469129Y2724215D01*
X3468990Y2723660D01*
X3468851Y2723244D01*
Y2723105D01*
X3466910Y2726295D01*
X3464829Y2729207D01*
X3462611Y2731703D01*
X3460392Y2733784D01*
X3458173Y2735587D01*
X3455954Y2737112D01*
X3453735Y2738222D01*
X3451655Y2739192D01*
X3449713Y2740024D01*
X3447771Y2740579D01*
X3446107Y2740995D01*
X3444720Y2741273D01*
X3443611Y2741411D01*
X3442640Y2741550D01*
X3442085D01*
X3441947D01*
X3439728Y2741411D01*
X3437647Y2741134D01*
X3435567Y2740718D01*
X3433626Y2740163D01*
X3430020Y2738638D01*
X3426969Y2736973D01*
X3425582Y2736141D01*
X3424334Y2735309D01*
X3423224Y2734477D01*
X3422392Y2733784D01*
X3421699Y2733229D01*
X3421144Y2732813D01*
X3420867Y2732536D01*
X3420728Y2732397D01*
X3418648Y2730317D01*
X3416845Y2728098D01*
X3415319Y2725740D01*
X3413932Y2723244D01*
X3412823Y2720886D01*
X3411852Y2718528D01*
X3411159Y2716171D01*
X3410465Y2713813D01*
X3410049Y2711733D01*
X3409633Y2709791D01*
X3409495Y2707988D01*
X3409217Y2706463D01*
Y2705215D01*
X3409079Y2704244D01*
Y2747236D01*
X3499362D01*
X3497282Y2747097D01*
D02*
G37*
G36*
X3537500Y2192500D02*
X3463859D01*
X3462611Y2195828D01*
X3461362Y2199018D01*
X3459976Y2202208D01*
X3458450Y2205120D01*
X3456925Y2207894D01*
X3455399Y2210529D01*
X3453873Y2212887D01*
X3452348Y2215106D01*
X3450961Y2217186D01*
X3449574Y2218850D01*
X3448326Y2220514D01*
X3447355Y2221762D01*
X3446523Y2222733D01*
X3445830Y2223565D01*
X3445414Y2223981D01*
X3445275Y2224120D01*
X3537500D01*
Y2192500D01*
D02*
G37*
%LPC*%
G36*
X2983069Y205086D02*
Y143510D01*
X2927456D01*
Y121875D01*
X2956996D01*
Y105511D01*
X2954638Y103846D01*
X2952281Y102460D01*
X2949923Y101211D01*
X2947704Y100102D01*
X2945763Y99131D01*
X2944237Y98438D01*
X2943682Y98160D01*
X2943266Y98022D01*
X2942989Y97883D01*
X2942850D01*
X2939799Y96773D01*
X2936887Y96080D01*
X2934252Y95525D01*
X2931756Y95109D01*
X2929675Y94832D01*
X2928705D01*
X2928011Y94693D01*
X2926624D01*
X2923573Y94832D01*
X2920800Y95248D01*
X2918165Y95803D01*
X2915530Y96496D01*
X2913172Y97328D01*
X2911092Y98299D01*
X2909011Y99270D01*
X2907209Y100379D01*
X2905683Y101489D01*
X2904158Y102460D01*
X2903048Y103430D01*
X2901939Y104262D01*
X2901245Y104956D01*
X2900552Y105649D01*
X2900274Y105927D01*
X2900136Y106065D01*
X2898333Y108284D01*
X2896807Y110781D01*
X2895420Y113416D01*
X2894311Y116189D01*
X2893340Y119102D01*
X2892508Y121875D01*
X2891815Y124788D01*
X2891260Y127423D01*
X2890844Y130058D01*
X2890566Y132554D01*
X2890289Y134634D01*
X2890150Y136576D01*
Y138101D01*
X2890012Y139349D01*
Y140043D01*
Y140320D01*
X2890150Y144203D01*
X2890428Y147809D01*
X2890983Y151138D01*
X2891537Y154189D01*
X2892369Y157101D01*
X2893201Y159736D01*
X2894034Y162094D01*
X2895004Y164174D01*
X2895975Y166115D01*
X2896807Y167641D01*
X2897639Y169028D01*
X2898471Y170137D01*
X2899026Y171108D01*
X2899581Y171663D01*
X2899858Y172079D01*
X2899997Y172218D01*
X2901939Y174159D01*
X2904019Y175823D01*
X2906238Y177210D01*
X2908457Y178458D01*
X2910676Y179568D01*
X2912895Y180400D01*
X2915114Y181093D01*
X2917194Y181648D01*
X2919135Y182064D01*
X2921077Y182480D01*
X2922741Y182758D01*
X2924128Y182896D01*
X2925237Y183035D01*
X2926902D01*
X2930924Y182758D01*
X2934529Y182203D01*
X2937719Y181232D01*
X2940354Y180261D01*
X2941464Y179707D01*
X2942573Y179290D01*
X2943405Y178736D01*
X2944099Y178320D01*
X2944792Y178042D01*
X2945208Y177765D01*
X2945347Y177488D01*
X2945485D01*
X2948120Y175269D01*
X2950201Y172911D01*
X2952003Y170415D01*
X2953390Y168057D01*
X2954500Y165977D01*
X2954916Y165006D01*
X2955193Y164174D01*
X2955471Y163619D01*
X2955609Y163064D01*
X2955748Y162787D01*
Y162648D01*
X2981405Y167502D01*
X2980572Y170692D01*
X2979602Y173743D01*
X2978353Y176655D01*
X2977105Y179290D01*
X2975718Y181648D01*
X2974193Y184006D01*
X2972806Y186086D01*
X2971281Y187889D01*
X2969894Y189553D01*
X2968507Y191079D01*
X2967259Y192188D01*
X2966288Y193298D01*
X2965317Y194130D01*
X2964624Y194684D01*
X2964208Y194962D01*
X2964069Y195100D01*
X2961434Y196903D01*
X2958660Y198429D01*
X2955748Y199677D01*
X2952697Y200925D01*
X2949507Y201896D01*
X2946456Y202589D01*
X2943405Y203283D01*
X2940493Y203838D01*
X2937719Y204254D01*
X2935223Y204531D01*
X2932865Y204808D01*
X2930785Y204947D01*
X2929259Y205086D01*
X2923573D01*
X2920384Y204808D01*
X2917332Y204531D01*
X2914420Y204115D01*
X2911646Y203560D01*
X2909150Y203005D01*
X2906793Y202451D01*
X2904712Y201896D01*
X2902771Y201341D01*
X2901106Y200786D01*
X2899720Y200232D01*
X2898471Y199677D01*
X2897501Y199261D01*
X2896807Y198984D01*
X2896391Y198845D01*
X2896253Y198706D01*
X2893340Y197042D01*
X2890566Y195239D01*
X2887931Y193436D01*
X2885574Y191495D01*
X2883355Y189414D01*
X2881413Y187473D01*
X2879472Y185531D01*
X2877946Y183590D01*
X2876421Y181787D01*
X2875173Y180123D01*
X2874202Y178597D01*
X2873231Y177349D01*
X2872538Y176239D01*
X2872122Y175407D01*
X2871844Y174853D01*
X2871705Y174714D01*
X2870180Y171802D01*
X2868932Y168750D01*
X2867822Y165699D01*
X2866852Y162648D01*
X2866158Y159597D01*
X2865465Y156685D01*
X2864910Y153773D01*
X2864494Y151138D01*
X2864078Y148641D01*
X2863800Y146422D01*
X2863662Y144342D01*
X2863523Y142539D01*
X2863384Y141152D01*
Y141430D01*
Y139211D01*
X2863523Y135744D01*
X2863662Y132415D01*
X2864078Y129226D01*
X2864494Y126036D01*
X2865187Y123123D01*
X2865742Y120350D01*
X2866435Y117715D01*
X2867129Y115218D01*
X2867822Y113000D01*
X2868516Y111058D01*
X2869209Y109255D01*
X2869764Y107868D01*
X2870180Y106620D01*
X2870596Y105788D01*
X2870735Y105233D01*
X2870873Y105095D01*
X2872399Y102182D01*
X2873924Y99547D01*
X2875727Y97051D01*
X2877530Y94693D01*
X2879333Y92613D01*
X2881275Y90533D01*
X2883078Y88730D01*
X2884880Y87204D01*
X2886545Y85679D01*
X2888070Y84431D01*
X2889596Y83460D01*
X2890705Y82489D01*
X2891815Y81796D01*
X2892508Y81380D01*
X2893063Y81102D01*
X2893201Y80964D01*
X2896114Y79438D01*
X2899026Y78190D01*
X2901939Y77080D01*
X2904990Y76110D01*
X2908041Y75416D01*
X2910953Y74723D01*
X2913727Y74168D01*
X2916362Y73752D01*
X2918858Y73336D01*
X2921077Y73059D01*
X2923157Y72920D01*
X2924960Y72781D01*
X2926347Y72642D01*
X2863384D01*
D01*
X2983069D01*
D01*
X2928289D01*
X2931201Y72781D01*
X2934113Y72920D01*
X2939799Y73613D01*
X2942573Y74029D01*
X2945069Y74584D01*
X2947566Y75139D01*
X2949785Y75694D01*
X2951865Y76248D01*
X2953806Y76664D01*
X2955471Y77219D01*
X2956857Y77635D01*
X2957967Y78051D01*
X2958799Y78329D01*
X2959354Y78606D01*
X2959492D01*
X2962266Y79715D01*
X2964901Y80964D01*
X2967397Y82073D01*
X2969616Y83321D01*
X2971835Y84431D01*
X2973777Y85540D01*
X2975441Y86650D01*
X2977105Y87759D01*
X2978492Y88730D01*
X2979740Y89562D01*
X2980711Y90394D01*
X2981543Y91087D01*
X2982237Y91642D01*
X2982653Y92058D01*
X2982930Y92197D01*
X2983069Y92336D01*
Y205086D01*
D02*
G37*
G36*
X2837312Y167780D02*
X2812765D01*
Y121875D01*
Y143233D01*
X2837312D01*
Y167780D01*
D02*
G37*
G36*
Y130058D02*
Y99547D01*
X2812765D01*
D01*
D01*
Y75000D01*
X2837312D01*
Y130058D01*
D02*
G37*
G36*
X3185825Y203005D02*
X3136037D01*
Y75000D01*
X3243240D01*
X3187212D01*
X3189708Y75139D01*
X3192065Y75277D01*
X3194146Y75416D01*
X3196226Y75555D01*
X3198168Y75832D01*
X3199832Y76110D01*
X3201357Y76387D01*
X3202744Y76526D01*
X3203992Y76803D01*
X3205102Y77080D01*
X3205934Y77219D01*
X3206627Y77358D01*
X3207043Y77496D01*
X3207321Y77635D01*
X3207459D01*
X3211481Y79161D01*
X3215087Y80825D01*
X3218138Y82489D01*
X3220773Y84153D01*
X3221883Y84847D01*
X3222853Y85540D01*
X3223547Y86234D01*
X3224240Y86788D01*
X3224795Y87204D01*
X3225211Y87620D01*
X3225350Y87759D01*
X3225488Y87898D01*
X3228678Y91365D01*
X3231452Y95109D01*
X3233809Y98854D01*
X3235751Y102460D01*
X3236583Y104124D01*
X3237276Y105649D01*
X3237831Y107036D01*
X3238386Y108146D01*
X3238663Y109116D01*
X3238941Y109948D01*
X3239218Y110365D01*
Y110503D01*
X3240605Y114941D01*
X3241576Y119518D01*
X3242269Y124094D01*
X3242685Y128393D01*
X3242963Y130335D01*
X3243101Y132138D01*
Y133663D01*
X3243240Y135050D01*
Y141014D01*
X3243101Y144203D01*
X3242824Y147116D01*
X3242546Y150028D01*
X3242269Y152663D01*
X3241853Y155159D01*
X3241437Y157517D01*
X3241160Y159597D01*
X3240744Y161400D01*
X3240328Y163064D01*
X3239911Y164590D01*
X3239634Y165699D01*
X3239357Y166670D01*
X3239079Y167364D01*
X3238941Y167780D01*
Y167918D01*
X3237276Y172356D01*
X3235335Y176378D01*
X3233255Y179984D01*
X3232284Y181509D01*
X3231313Y182896D01*
X3230342Y184283D01*
X3229510Y185393D01*
X3228678Y186363D01*
X3228123Y187195D01*
X3227569Y187889D01*
X3227153Y188305D01*
X3226875Y188582D01*
X3226736Y188721D01*
X3223547Y191633D01*
X3220357Y194130D01*
X3217167Y196210D01*
X3214116Y197735D01*
X3211481Y198984D01*
X3210372Y199538D01*
X3209401Y199816D01*
X3208569Y200093D01*
X3208014Y200370D01*
X3207598Y200509D01*
X3207459D01*
X3205795Y200925D01*
X3203992Y201341D01*
X3200109Y201896D01*
X3196087Y202451D01*
X3192204Y202728D01*
X3190401Y202867D01*
X3187212D01*
X3185825Y203005D01*
D02*
G37*
G36*
X3108716D02*
X3007200D01*
Y75000D01*
X3031053D01*
Y159043D01*
X3082921Y75000D01*
X3108716D01*
Y203005D01*
D02*
G37*
G36*
X2766167Y203421D02*
X2710000D01*
Y148641D01*
X2713328Y149889D01*
X2716518Y151138D01*
X2719708Y152524D01*
X2722620Y154050D01*
X2725394Y155576D01*
X2728029Y157101D01*
X2730386Y158627D01*
X2732605Y160152D01*
X2734686Y161539D01*
X2736350Y162926D01*
X2738014Y164174D01*
X2739262Y165145D01*
X2740233Y165977D01*
X2741065Y166670D01*
X2741481Y167086D01*
X2741620Y167225D01*
Y75000D01*
X2766167D01*
Y203421D01*
D02*
G37*
%LPD*%
G36*
X3181109Y181232D02*
X3183328D01*
X3185270Y181093D01*
X3187073Y180955D01*
X3188598Y180816D01*
X3189847D01*
X3191095Y180677D01*
X3192065Y180539D01*
X3192898Y180400D01*
X3193452Y180261D01*
X3194007D01*
X3194284Y180123D01*
X3194562D01*
X3197197Y179429D01*
X3199554Y178458D01*
X3201635Y177488D01*
X3203299Y176517D01*
X3204686Y175546D01*
X3205795Y174714D01*
X3206350Y174159D01*
X3206627Y174020D01*
X3208292Y172218D01*
X3209817Y170276D01*
X3211065Y168196D01*
X3212036Y166254D01*
X3212868Y164451D01*
X3213562Y162926D01*
X3213700Y162510D01*
X3213839Y162094D01*
X3213978Y161816D01*
Y161678D01*
X3214394Y160152D01*
X3214810Y158488D01*
X3215503Y154743D01*
X3215919Y150999D01*
X3216335Y147393D01*
Y145590D01*
X3216474Y144065D01*
Y142678D01*
X3216613Y141430D01*
Y140320D01*
Y139627D01*
Y139072D01*
Y138933D01*
Y136298D01*
X3216474Y133663D01*
X3216335Y131306D01*
X3216197Y128948D01*
X3216058Y126868D01*
X3215780Y125065D01*
X3215503Y123262D01*
X3215364Y121598D01*
X3215087Y120211D01*
X3214810Y118963D01*
X3214532Y117992D01*
X3214394Y117021D01*
X3214255Y116328D01*
X3214116Y115912D01*
X3213978Y115635D01*
Y115496D01*
X3212868Y112445D01*
X3211759Y109948D01*
X3210649Y107868D01*
X3209540Y106065D01*
X3208708Y104817D01*
X3207875Y103846D01*
X3207321Y103292D01*
X3207182Y103153D01*
X3205518Y101905D01*
X3203854Y100795D01*
X3202051Y99825D01*
X3200387Y98992D01*
X3199000Y98438D01*
X3197890Y98022D01*
X3197058Y97883D01*
X3196919Y97744D01*
X3196781D01*
X3195810Y97606D01*
X3194700Y97328D01*
X3192343Y97051D01*
X3189708Y96912D01*
X3187073Y96773D01*
X3184854Y96635D01*
X3161832D01*
Y181371D01*
X3178752D01*
X3181109Y181232D01*
D02*
G37*
G36*
X3084863Y117021D02*
X3032163Y203005D01*
X3084863D01*
Y117021D01*
D02*
G37*
G36*
X2745364Y201203D02*
X2744394Y199122D01*
X2742036Y195239D01*
X2739540Y191772D01*
X2736905Y188721D01*
X2735656Y187334D01*
X2734547Y186225D01*
X2733576Y185115D01*
X2732605Y184283D01*
X2731912Y183590D01*
X2731357Y183174D01*
X2730941Y182896D01*
X2730803Y182758D01*
X2726642Y179707D01*
X2722759Y177210D01*
X2719292Y175130D01*
X2716241Y173604D01*
X2714854Y172911D01*
X2713606Y172356D01*
X2712635Y171940D01*
X2711664Y171524D01*
X2710971Y171247D01*
X2710416Y171108D01*
X2710139Y170969D01*
X2710000D01*
Y203421D01*
X2746196D01*
X2745364Y201203D01*
D02*
G37*
%LPC*%
G36*
X1874598Y3605505D02*
X1773081D01*
Y3477500D01*
Y3583871D01*
X1811081D01*
Y3477500D01*
X1773081D01*
X1874598D01*
Y3605505D01*
D02*
G37*
G36*
X1754775D02*
X1653258D01*
Y3477500D01*
X1677112D01*
D01*
X1681774D01*
X1677112D01*
Y3561543D01*
X1728980Y3477500D01*
X1754775D01*
Y3605505D01*
D02*
G37*
G36*
X1628295D02*
X1602500D01*
Y3477500D01*
X1628295D01*
Y3605505D01*
D02*
G37*
%LPD*%
G36*
X1874598Y3477500D02*
X1836876D01*
Y3583871D01*
X1874598D01*
Y3477500D01*
D02*
G37*
G36*
X1730921Y3519521D02*
X1678221Y3605505D01*
X1730921D01*
Y3519521D01*
D02*
G37*
%LPC*%
G36*
X1223840Y4005505D02*
X1193884D01*
X1168366Y3967090D01*
X1143125Y4005505D01*
X1112892D01*
X1153111Y3944068D01*
X1108732Y3877500D01*
X1139658D01*
X1168227Y3920908D01*
X1196658Y3877500D01*
X1161838D01*
X1227723D01*
X1183621Y3944207D01*
X1223840Y4005505D01*
D02*
G37*
G36*
X1099856D02*
Y3899135D01*
X1028295D01*
Y3933944D01*
X1092506D01*
Y3955579D01*
X1028295D01*
Y3983871D01*
X1097360D01*
Y4005505D01*
X1099856D01*
X1002500D01*
Y3877500D01*
X1099856D01*
Y4005505D01*
D02*
G37*
G36*
X1333539D02*
X1232022D01*
Y3877500D01*
Y3983871D01*
X1270021D01*
Y3877500D01*
X1295817D01*
Y3983871D01*
X1333539D01*
Y4005505D01*
D02*
G37*
G36*
X1302153Y5468005D02*
X1255000D01*
Y5340000D01*
X1280795D01*
Y5388262D01*
X1300766D01*
X1303817Y5388401D01*
X1306590D01*
X1309225Y5388539D01*
X1311583Y5388678D01*
X1313802Y5388817D01*
X1315882Y5388955D01*
X1317685Y5389233D01*
X1319211Y5389371D01*
X1320598Y5389510D01*
X1321846Y5389649D01*
X1322817Y5389788D01*
X1323510Y5389926D01*
X1324065D01*
X1324342Y5390065D01*
X1324481D01*
X1326977Y5390758D01*
X1329473Y5391590D01*
X1331692Y5392561D01*
X1333634Y5393532D01*
X1335437Y5394503D01*
X1336685Y5395335D01*
X1337517Y5395890D01*
X1337656Y5396028D01*
X1337794D01*
X1340152Y5397970D01*
X1342371Y5400050D01*
X1344174Y5402130D01*
X1345838Y5404072D01*
X1347086Y5405875D01*
X1347918Y5407400D01*
X1348334Y5407955D01*
X1348612Y5408371D01*
X1348750Y5408510D01*
Y5408649D01*
X1350137Y5411838D01*
X1351247Y5415167D01*
X1351940Y5418495D01*
X1352495Y5421546D01*
X1352634Y5423072D01*
X1352772Y5424320D01*
X1352911Y5425568D01*
X1353050Y5426539D01*
Y5340000D01*
Y5434028D01*
Y5428480D01*
X1352911Y5431254D01*
X1352772Y5434028D01*
X1352356Y5436524D01*
X1351940Y5438882D01*
X1351385Y5441101D01*
X1350692Y5443181D01*
X1349999Y5444984D01*
X1349305Y5446787D01*
X1348612Y5448312D01*
X1347918Y5449560D01*
X1347364Y5450809D01*
X1346670Y5451779D01*
X1346254Y5452473D01*
X1345838Y5453027D01*
X1345699Y5453305D01*
X1345561Y5453443D01*
X1344174Y5455246D01*
X1342648Y5456772D01*
X1341123Y5458159D01*
X1339459Y5459546D01*
X1336408Y5461765D01*
X1333495Y5463429D01*
X1330999Y5464677D01*
X1329889Y5465093D01*
X1328919Y5465509D01*
X1328225Y5465786D01*
X1327670Y5465925D01*
X1327254Y5466064D01*
X1327116D01*
X1325590Y5466341D01*
X1323787Y5466757D01*
X1321707Y5467035D01*
X1319349Y5467173D01*
X1316853Y5467312D01*
X1314357Y5467589D01*
X1309087Y5467728D01*
X1306590Y5467867D01*
X1304372D01*
X1302153Y5468005D01*
D02*
G37*
G36*
X1399231D02*
X1373436D01*
Y5340000D01*
X1399231D01*
Y5468005D01*
D02*
G37*
%LPD*%
G36*
X1300211Y5446232D02*
X1302014D01*
X1303678Y5446093D01*
X1305204D01*
X1306590Y5445955D01*
X1307839D01*
X1308809Y5445816D01*
X1309642Y5445677D01*
X1310335D01*
X1310890Y5445539D01*
X1311583Y5445400D01*
X1311860D01*
X1314079Y5444845D01*
X1316160Y5444013D01*
X1317963Y5443181D01*
X1319349Y5442210D01*
X1320598Y5441239D01*
X1321568Y5440407D01*
X1322123Y5439852D01*
X1322262Y5439714D01*
X1323649Y5437911D01*
X1324619Y5435969D01*
X1325452Y5434028D01*
X1325868Y5432225D01*
X1326145Y5430699D01*
X1326422Y5429312D01*
Y5428480D01*
Y5428342D01*
Y5428203D01*
X1326284Y5426123D01*
X1326006Y5424181D01*
X1325452Y5422517D01*
X1324897Y5421130D01*
X1324342Y5419882D01*
X1323787Y5419050D01*
X1323510Y5418356D01*
X1323371Y5418218D01*
X1322262Y5416692D01*
X1320875Y5415444D01*
X1319488Y5414335D01*
X1318240Y5413364D01*
X1317130Y5412670D01*
X1316160Y5412254D01*
X1315605Y5411977D01*
X1315328Y5411838D01*
X1314218Y5411561D01*
X1312970Y5411145D01*
X1311583Y5411006D01*
X1309919Y5410729D01*
X1306590Y5410313D01*
X1303262Y5410174D01*
X1300072Y5410035D01*
X1298685Y5409897D01*
X1280795D01*
Y5446371D01*
X1298131D01*
X1300211Y5446232D01*
D02*
G37*
%LPC*%
G36*
X1373906Y5005085D02*
X1319958D01*
D01*
X1371548D01*
X1366140Y5004947D01*
X1363782Y5004669D01*
X1361286Y5004392D01*
X1359067Y5003976D01*
X1356987Y5003699D01*
X1355184Y5003283D01*
X1353381Y5002867D01*
X1351717Y5002312D01*
X1350330Y5001896D01*
X1349220Y5001618D01*
X1348111Y5001202D01*
X1347417Y5000925D01*
X1346724Y5000648D01*
X1346447Y5000509D01*
X1346308D01*
X1342702Y4998706D01*
X1339374Y4996626D01*
X1336739Y4994546D01*
X1334381Y4992465D01*
X1332717Y4990524D01*
X1331330Y4988998D01*
X1330914Y4988443D01*
X1330637Y4988027D01*
X1330359Y4987750D01*
Y4987611D01*
X1328556Y4984422D01*
X1327170Y4981232D01*
X1326199Y4978042D01*
X1325505Y4975268D01*
X1325089Y4972911D01*
X1324951Y4971801D01*
Y4970969D01*
X1324812Y4970276D01*
Y4969721D01*
Y4969444D01*
Y4969305D01*
X1324951Y4966531D01*
X1325367Y4963896D01*
X1325921Y4961261D01*
X1326615Y4958904D01*
X1327586Y4956685D01*
X1328556Y4954466D01*
X1329666Y4952524D01*
X1330775Y4950721D01*
X1331746Y4949057D01*
X1332856Y4947670D01*
X1333826Y4946422D01*
X1334797Y4945451D01*
X1335491Y4944619D01*
X1336045Y4944065D01*
X1336461Y4943648D01*
X1336600Y4943510D01*
X1338264Y4942123D01*
X1340206Y4940875D01*
X1342425Y4939627D01*
X1344644Y4938378D01*
X1349498Y4936298D01*
X1354352Y4934357D01*
X1356571Y4933663D01*
X1358651Y4932970D01*
X1360592Y4932276D01*
X1362395Y4931860D01*
X1363782Y4931444D01*
X1364753Y4931167D01*
X1365446Y4930890D01*
X1365724D01*
X1368636Y4930196D01*
X1371271Y4929503D01*
X1373629Y4928948D01*
X1375709Y4928393D01*
X1377651Y4927839D01*
X1379315Y4927422D01*
X1380840Y4927006D01*
X1382088Y4926590D01*
X1383198Y4926313D01*
X1384030Y4926036D01*
X1384862Y4925758D01*
X1385417Y4925620D01*
X1385833Y4925481D01*
X1386110D01*
X1386388Y4925342D01*
X1388745Y4924371D01*
X1390687Y4923539D01*
X1392212Y4922569D01*
X1393599Y4921736D01*
X1394431Y4920904D01*
X1395125Y4920350D01*
X1395541Y4919934D01*
X1395679Y4919795D01*
X1396650Y4918547D01*
X1397344Y4917299D01*
X1397760Y4915912D01*
X1398176Y4914664D01*
X1398314Y4913693D01*
X1398453Y4912861D01*
Y4912167D01*
Y4912029D01*
Y4910780D01*
X1398176Y4909532D01*
X1397482Y4907175D01*
X1396373Y4904956D01*
X1395263Y4903153D01*
X1394154Y4901766D01*
X1393044Y4900656D01*
X1392351Y4899963D01*
X1392212Y4899686D01*
X1392074D01*
X1390826Y4898715D01*
X1389439Y4897883D01*
X1386388Y4896635D01*
X1383198Y4895664D01*
X1380147Y4895109D01*
X1377373Y4894693D01*
X1376264Y4894554D01*
X1375154D01*
X1374322Y4894416D01*
X1373074D01*
X1368913Y4894693D01*
X1365169Y4895386D01*
X1361979Y4896219D01*
X1359206Y4897328D01*
X1358096Y4897883D01*
X1357125Y4898437D01*
X1356155Y4898854D01*
X1355461Y4899270D01*
X1354906Y4899686D01*
X1354490Y4899963D01*
X1354352Y4900240D01*
X1354213D01*
X1352965Y4901489D01*
X1351855Y4902737D01*
X1349914Y4905649D01*
X1348250Y4908839D01*
X1347001Y4911890D01*
X1346169Y4914664D01*
X1345753Y4915773D01*
X1345476Y4916882D01*
X1345337Y4917715D01*
X1345198Y4918408D01*
X1345060Y4918824D01*
Y4918963D01*
X1319958Y4916466D01*
X1320513Y4912583D01*
X1321345Y4908839D01*
X1322316Y4905510D01*
X1323425Y4902321D01*
X1324673Y4899408D01*
X1325921Y4896635D01*
X1327308Y4894277D01*
X1328695Y4892058D01*
X1329943Y4890116D01*
X1331191Y4888452D01*
X1332440Y4887065D01*
X1333410Y4885817D01*
X1334242Y4884985D01*
X1334936Y4884292D01*
X1335352Y4883876D01*
X1335491Y4883737D01*
X1338126Y4881795D01*
X1340899Y4880131D01*
X1343812Y4878606D01*
X1346863Y4877358D01*
X1349914Y4876248D01*
X1352965Y4875416D01*
X1356016Y4874584D01*
X1359067Y4874029D01*
X1361841Y4873613D01*
X1364476Y4873197D01*
X1366833Y4872920D01*
X1368775Y4872781D01*
X1370439D01*
X1371687Y4872642D01*
X1369013D01*
X1375848D01*
X1378760Y4872781D01*
X1381672Y4873058D01*
X1384169Y4873336D01*
X1386665Y4873752D01*
X1389023Y4874029D01*
X1391103Y4874445D01*
X1393044Y4875000D01*
X1394709Y4875416D01*
X1396234Y4875832D01*
X1397621Y4876109D01*
X1398731Y4876525D01*
X1399563Y4876803D01*
X1400117Y4877080D01*
X1400533Y4877219D01*
X1400672D01*
X1404694Y4879160D01*
X1408161Y4881379D01*
X1411073Y4883876D01*
X1413570Y4886095D01*
X1415511Y4888175D01*
X1416205Y4889146D01*
X1416898Y4889978D01*
X1417314Y4890533D01*
X1417730Y4891087D01*
X1418008Y4891365D01*
Y4891503D01*
X1419117Y4893306D01*
X1420088Y4895248D01*
X1421613Y4898854D01*
X1422723Y4902321D01*
X1423416Y4905510D01*
X1423694Y4906897D01*
X1423971Y4908145D01*
X1424110Y4909394D01*
Y4910364D01*
X1424248Y4911058D01*
Y4912167D01*
X1423971Y4916466D01*
X1423416Y4920488D01*
X1422584Y4923955D01*
X1422168Y4925481D01*
X1421752Y4926868D01*
X1421197Y4928116D01*
X1420781Y4929225D01*
X1420365Y4930196D01*
X1419949Y4931028D01*
X1419533Y4931722D01*
X1419394Y4932138D01*
X1419117Y4932415D01*
Y4932554D01*
X1417037Y4935466D01*
X1414679Y4938101D01*
X1412322Y4940320D01*
X1410103Y4942262D01*
X1408022Y4943648D01*
X1406358Y4944758D01*
X1405665Y4945035D01*
X1405249Y4945313D01*
X1404971Y4945590D01*
X1404833D01*
X1403030Y4946422D01*
X1401088Y4947393D01*
X1398869Y4948225D01*
X1396650Y4949057D01*
X1392074Y4950583D01*
X1387497Y4951970D01*
X1385417Y4952524D01*
X1383337Y4953079D01*
X1381672Y4953634D01*
X1380008Y4954050D01*
X1378760Y4954327D01*
X1377789Y4954605D01*
X1377234Y4954743D01*
X1376957D01*
X1373629Y4955575D01*
X1370578Y4956407D01*
X1367804Y4957240D01*
X1365308Y4958072D01*
X1363089Y4958765D01*
X1361147Y4959458D01*
X1359483Y4960152D01*
X1358096Y4960707D01*
X1356848Y4961261D01*
X1355738Y4961816D01*
X1354906Y4962232D01*
X1354352Y4962648D01*
X1353797Y4962926D01*
X1353520Y4963203D01*
X1353242Y4963342D01*
X1351994Y4964590D01*
X1351023Y4965838D01*
X1350468Y4967225D01*
X1349914Y4968473D01*
X1349636Y4969444D01*
X1349498Y4970414D01*
Y4970969D01*
Y4971108D01*
X1349636Y4972911D01*
X1350191Y4974436D01*
X1350746Y4975823D01*
X1351578Y4976933D01*
X1352271Y4977765D01*
X1352965Y4978458D01*
X1353381Y4978874D01*
X1353520Y4979013D01*
X1356155Y4980538D01*
X1358928Y4981787D01*
X1361979Y4982619D01*
X1364753Y4983173D01*
X1367388Y4983451D01*
X1368497Y4983589D01*
X1369468Y4983728D01*
X1371271D01*
X1375154Y4983589D01*
X1378483Y4983035D01*
X1381256Y4982341D01*
X1383614Y4981509D01*
X1385417Y4980677D01*
X1386665Y4979984D01*
X1387358Y4979429D01*
X1387636Y4979290D01*
X1389577Y4977487D01*
X1391103Y4975268D01*
X1392351Y4972911D01*
X1393322Y4970692D01*
X1394015Y4968612D01*
X1394293Y4967641D01*
X1394570Y4966809D01*
X1394709Y4966254D01*
Y4965699D01*
X1394847Y4965422D01*
Y4965283D01*
X1420643Y4966254D01*
X1420365Y4969444D01*
X1419949Y4972495D01*
X1419256Y4975407D01*
X1418285Y4978042D01*
X1417314Y4980538D01*
X1416205Y4982896D01*
X1415095Y4984976D01*
X1413986Y4986918D01*
X1412738Y4988582D01*
X1411628Y4990108D01*
X1410657Y4991494D01*
X1409687Y4992465D01*
X1408854Y4993297D01*
X1408300Y4993991D01*
X1407884Y4994268D01*
X1407745Y4994407D01*
X1405387Y4996348D01*
X1402752Y4997874D01*
X1399840Y4999399D01*
X1396928Y5000648D01*
X1394015Y5001618D01*
X1390964Y5002450D01*
X1387913Y5003144D01*
X1385139Y5003699D01*
X1382366Y5004253D01*
X1379731Y5004531D01*
X1377512Y5004808D01*
X1375432Y5004947D01*
X1373906Y5005085D01*
D02*
G37*
G36*
X1299433Y5003005D02*
X1273638D01*
Y4931999D01*
Y4929225D01*
Y4926729D01*
X1273499Y4924371D01*
Y4922152D01*
X1273360Y4920211D01*
X1273221Y4918408D01*
X1273083Y4916744D01*
Y4915357D01*
X1272944Y4914109D01*
X1272805Y4912999D01*
X1272667Y4912167D01*
X1272528Y4911335D01*
Y4910780D01*
X1272389Y4910364D01*
Y4910226D01*
Y4910087D01*
X1271835Y4907729D01*
X1270864Y4905649D01*
X1269754Y4903707D01*
X1268645Y4902182D01*
X1267535Y4900934D01*
X1266565Y4899963D01*
X1266010Y4899270D01*
X1265733Y4899131D01*
X1263375Y4897605D01*
X1260740Y4896635D01*
X1257966Y4895803D01*
X1255331Y4895248D01*
X1252835Y4894970D01*
X1251864Y4894832D01*
X1250893D01*
X1250200Y4894693D01*
X1249090D01*
X1245207Y4894832D01*
X1241879Y4895386D01*
X1238967Y4896219D01*
X1236470Y4897051D01*
X1234529Y4897883D01*
X1233142Y4898715D01*
X1232726Y4898992D01*
X1232310Y4899270D01*
X1232171Y4899408D01*
X1232032D01*
X1229952Y4901350D01*
X1228149Y4903430D01*
X1226762Y4905510D01*
X1225792Y4907452D01*
X1224959Y4909255D01*
X1224543Y4910780D01*
X1224266Y4911335D01*
Y4911751D01*
X1224127Y4911890D01*
Y4912029D01*
X1223989Y4913138D01*
X1223850Y4914386D01*
X1223711Y4915773D01*
Y4917437D01*
X1223434Y4920904D01*
Y4924649D01*
Y4926313D01*
X1223295Y4927977D01*
Y4929503D01*
Y4930890D01*
Y4931999D01*
Y4932831D01*
Y4933386D01*
Y4933525D01*
Y5003005D01*
X1197500D01*
Y4872642D01*
Y4930612D01*
X1197639Y4926868D01*
X1197777Y4923539D01*
X1197916Y4920350D01*
X1198055Y4917437D01*
X1198332Y4914802D01*
X1198471Y4912306D01*
X1198748Y4910226D01*
X1199026Y4908284D01*
X1199164Y4906620D01*
X1199442Y4905233D01*
X1199580Y4904124D01*
X1199719Y4903153D01*
X1199858Y4902598D01*
X1199996Y4902182D01*
Y4902043D01*
X1200828Y4899270D01*
X1201799Y4896635D01*
X1203047Y4894277D01*
X1204296Y4892058D01*
X1205405Y4890255D01*
X1206376Y4889007D01*
X1206653Y4888452D01*
X1206931Y4888036D01*
X1207208Y4887898D01*
Y4887759D01*
X1209427Y4885401D01*
X1211923Y4883182D01*
X1214419Y4881379D01*
X1216777Y4879854D01*
X1218857Y4878467D01*
X1219828Y4878051D01*
X1220660Y4877635D01*
X1221215Y4877219D01*
X1221770Y4876941D01*
X1222047Y4876803D01*
X1222186D01*
X1223989Y4876109D01*
X1226069Y4875416D01*
X1230507Y4874445D01*
X1235083Y4873613D01*
X1239660Y4873197D01*
X1241740Y4873058D01*
X1243682Y4872920D01*
X1245346Y4872781D01*
X1246872D01*
X1248120Y4872642D01*
X1197500D01*
X1299433D01*
Y5003005D01*
D02*
G37*
G36*
X1553224D02*
X1446022D01*
Y4875000D01*
X1494006D01*
X1498028Y4875139D01*
X1504824D01*
X1507736Y4875277D01*
X1510232D01*
X1512451Y4875416D01*
X1514393D01*
X1515918Y4875555D01*
X1517305D01*
X1518415Y4875693D01*
X1519247D01*
X1519940Y4875832D01*
X1520634D01*
X1524378Y4876387D01*
X1527707Y4877219D01*
X1530758Y4878190D01*
X1533254Y4879299D01*
X1535196Y4880270D01*
X1536028Y4880686D01*
X1536721Y4880963D01*
X1537276Y4881379D01*
X1537692Y4881657D01*
X1537831Y4881795D01*
X1537969D01*
X1540466Y4883737D01*
X1542684Y4885956D01*
X1544626Y4888175D01*
X1546152Y4890255D01*
X1547400Y4892058D01*
X1548371Y4893584D01*
X1548648Y4894138D01*
X1548925Y4894554D01*
X1549064Y4894832D01*
Y4894970D01*
X1550451Y4898160D01*
X1551422Y4901211D01*
X1552254Y4903985D01*
X1552670Y4906620D01*
X1552947Y4908839D01*
X1553086Y4909810D01*
X1553224Y4910503D01*
Y4881795D01*
Y4914109D01*
X1552947Y4916050D01*
X1552254Y4919795D01*
X1551144Y4922985D01*
X1550035Y4925897D01*
X1549480Y4927006D01*
X1548925Y4928116D01*
X1548371Y4929087D01*
X1547816Y4929919D01*
X1547400Y4930474D01*
X1547122Y4930890D01*
X1546984Y4931167D01*
X1546845Y4931306D01*
X1544349Y4934218D01*
X1541436Y4936576D01*
X1538385Y4938656D01*
X1535612Y4940181D01*
X1532977Y4941430D01*
X1531867Y4941846D01*
X1530896Y4942262D01*
X1530064Y4942539D01*
X1529510Y4942816D01*
X1529093Y4942955D01*
X1528955D01*
X1531867Y4944481D01*
X1534502Y4946283D01*
X1536721Y4948225D01*
X1538663Y4950028D01*
X1540188Y4951692D01*
X1541298Y4952940D01*
X1541575Y4953495D01*
X1541852Y4953911D01*
X1542130Y4954050D01*
Y4954188D01*
X1543794Y4957101D01*
X1544903Y4959875D01*
X1545736Y4962648D01*
X1546429Y4965283D01*
X1546706Y4967502D01*
X1546845Y4968334D01*
Y4969166D01*
X1546984Y4969860D01*
Y4970276D01*
Y4970553D01*
Y4970692D01*
X1546845Y4973743D01*
X1546429Y4976517D01*
X1545736Y4979152D01*
X1545042Y4981371D01*
X1544210Y4983173D01*
X1543655Y4984560D01*
X1543378Y4984976D01*
X1543101Y4985392D01*
X1542962Y4985531D01*
Y4985670D01*
X1541436Y4988027D01*
X1539772Y4990108D01*
X1538108Y4991911D01*
X1536582Y4993575D01*
X1535196Y4994684D01*
X1534086Y4995655D01*
X1533393Y4996210D01*
X1533254Y4996348D01*
X1533115D01*
X1530896Y4997735D01*
X1528539Y4998845D01*
X1526320Y4999816D01*
X1524240Y5000509D01*
X1522437Y5001064D01*
X1521050Y5001341D01*
X1520495Y5001480D01*
X1520079Y5001618D01*
X1519802D01*
X1518276Y5001896D01*
X1516751Y5002034D01*
X1513145Y5002450D01*
X1509400Y5002728D01*
X1505656Y5002867D01*
X1503992D01*
X1502327Y5003005D01*
X1553224D01*
D02*
G37*
%LPD*%
G36*
X1299433Y4872642D02*
X1252696D01*
X1255331Y4872781D01*
X1257828Y4873058D01*
X1260185Y4873197D01*
X1262265Y4873613D01*
X1264346Y4873890D01*
X1266149Y4874168D01*
X1267813Y4874584D01*
X1269338Y4875000D01*
X1270725Y4875277D01*
X1271835Y4875693D01*
X1272805Y4875971D01*
X1273499Y4876109D01*
X1274054Y4876387D01*
X1274331Y4876525D01*
X1274470D01*
X1277798Y4878051D01*
X1280849Y4879854D01*
X1283345Y4881518D01*
X1285564Y4883182D01*
X1287229Y4884708D01*
X1288477Y4885817D01*
X1289170Y4886649D01*
X1289448Y4886788D01*
Y4886927D01*
X1291389Y4889562D01*
X1293053Y4892197D01*
X1294440Y4894832D01*
X1295411Y4897467D01*
X1296243Y4899686D01*
X1296520Y4900656D01*
X1296798Y4901489D01*
X1296936Y4902043D01*
X1297075Y4902598D01*
X1297214Y4902875D01*
Y4903014D01*
X1297630Y4904956D01*
X1297907Y4907175D01*
X1298185Y4909532D01*
X1298462Y4912167D01*
X1298878Y4917576D01*
X1299155Y4922846D01*
X1299294Y4925481D01*
Y4927839D01*
X1299433Y4929919D01*
Y4872642D01*
D02*
G37*
G36*
X1497890Y4981509D02*
X1501634D01*
X1503298Y4981371D01*
X1505656D01*
X1506627Y4981232D01*
X1507875D01*
X1508291Y4981093D01*
X1508707D01*
X1511065Y4980677D01*
X1513006Y4980122D01*
X1514670Y4979429D01*
X1516057Y4978597D01*
X1517167Y4977903D01*
X1517999Y4977210D01*
X1518415Y4976794D01*
X1518553Y4976655D01*
X1519663Y4975130D01*
X1520495Y4973604D01*
X1521050Y4971940D01*
X1521466Y4970414D01*
X1521743Y4969166D01*
X1521882Y4968057D01*
Y4967363D01*
Y4967086D01*
X1521743Y4964867D01*
X1521327Y4962926D01*
X1520634Y4961123D01*
X1519940Y4959736D01*
X1519247Y4958488D01*
X1518553Y4957656D01*
X1518137Y4957101D01*
X1517999Y4956962D01*
X1516473Y4955714D01*
X1514809Y4954743D01*
X1513006Y4953911D01*
X1511342Y4953356D01*
X1509955Y4952940D01*
X1508707Y4952663D01*
X1507875Y4952524D01*
X1506765D01*
X1505656Y4952386D01*
X1504408D01*
X1503021Y4952247D01*
X1499970D01*
X1496780Y4952108D01*
X1471817D01*
Y4981648D01*
X1495532D01*
X1497890Y4981509D01*
D02*
G37*
G36*
X1498722Y4930612D02*
X1501357D01*
X1503714Y4930474D01*
X1505795Y4930335D01*
X1507736Y4930196D01*
X1509400Y4929919D01*
X1510787Y4929780D01*
X1512035Y4929641D01*
X1513006Y4929364D01*
X1513838Y4929225D01*
X1514532Y4929087D01*
X1515086Y4928948D01*
X1515364D01*
X1515641Y4928809D01*
X1517444Y4927977D01*
X1519108Y4927145D01*
X1520495Y4926174D01*
X1521605Y4925204D01*
X1522575Y4924371D01*
X1523130Y4923678D01*
X1523546Y4923123D01*
X1523685Y4922985D01*
X1524656Y4921459D01*
X1525349Y4919795D01*
X1525904Y4918131D01*
X1526181Y4916605D01*
X1526458Y4915357D01*
X1526597Y4914247D01*
Y4913554D01*
Y4913277D01*
X1526458Y4910919D01*
X1526042Y4908700D01*
X1525349Y4906897D01*
X1524794Y4905372D01*
X1524101Y4904124D01*
X1523407Y4903153D01*
X1522991Y4902598D01*
X1522853Y4902459D01*
X1521466Y4901072D01*
X1519802Y4899963D01*
X1518276Y4899131D01*
X1516751Y4898437D01*
X1515502Y4897883D01*
X1514393Y4897605D01*
X1513700Y4897328D01*
X1513422D01*
X1512590Y4897189D01*
X1511619Y4897051D01*
X1510371D01*
X1509123Y4896912D01*
X1506211Y4896773D01*
X1503160D01*
X1500247Y4896635D01*
X1471817D01*
Y4930751D01*
X1495809D01*
X1498722Y4930612D01*
D02*
G37*
%LPC*%
G36*
X3614950Y4427355D02*
X3608986D01*
X3605797Y4427217D01*
X3602884Y4426939D01*
X3599972Y4426662D01*
X3597337Y4426385D01*
X3594841Y4425969D01*
X3592483Y4425552D01*
X3590403Y4425275D01*
X3588600Y4424859D01*
X3586936Y4424443D01*
X3585410Y4424027D01*
X3584301Y4423750D01*
X3583330Y4423472D01*
X3582636Y4423195D01*
X3582220Y4423056D01*
X3582082D01*
X3577644Y4421392D01*
X3573622Y4419450D01*
X3570016Y4417370D01*
X3568491Y4416399D01*
X3567104Y4415429D01*
X3565717Y4414458D01*
X3564608Y4413626D01*
X3563637Y4412794D01*
X3562805Y4412239D01*
X3562111Y4411684D01*
X3561695Y4411268D01*
X3561418Y4410991D01*
X3561279Y4410852D01*
X3558367Y4407662D01*
X3555870Y4404473D01*
X3553790Y4401283D01*
X3552265Y4398232D01*
X3551017Y4395597D01*
X3550462Y4394487D01*
X3550184Y4393516D01*
X3549907Y4392684D01*
X3549630Y4392130D01*
X3549491Y4391714D01*
Y4391575D01*
X3549075Y4389911D01*
X3548659Y4388108D01*
X3548104Y4384225D01*
X3547549Y4380203D01*
X3547272Y4376320D01*
X3547133Y4374517D01*
Y4371327D01*
X3546995Y4369940D01*
Y4320153D01*
X3675000D01*
Y4372714D01*
Y4371327D01*
X3674861Y4373823D01*
X3674723Y4376181D01*
X3674584Y4378261D01*
X3674445Y4380342D01*
X3674168Y4382283D01*
X3673891Y4383947D01*
X3673613Y4385473D01*
X3673474Y4386860D01*
X3673197Y4388108D01*
X3672920Y4389217D01*
X3672781Y4390049D01*
X3672642Y4390743D01*
X3672504Y4391159D01*
X3672365Y4391436D01*
Y4391575D01*
X3670839Y4395597D01*
X3669175Y4399203D01*
X3667511Y4402254D01*
X3665847Y4404889D01*
X3665153Y4405998D01*
X3664460Y4406969D01*
X3663767Y4407662D01*
X3663212Y4408356D01*
X3662796Y4408910D01*
X3662380Y4409326D01*
X3662241Y4409465D01*
X3662102Y4409604D01*
X3658635Y4412794D01*
X3654891Y4415567D01*
X3651146Y4417925D01*
X3647541Y4419866D01*
X3645876Y4420699D01*
X3644351Y4421392D01*
X3642964Y4421947D01*
X3641855Y4422501D01*
X3640884Y4422779D01*
X3640052Y4423056D01*
X3639636Y4423334D01*
X3639497D01*
X3635059Y4424720D01*
X3630482Y4425691D01*
X3625906Y4426385D01*
X3621607Y4426801D01*
X3619665Y4427078D01*
X3617862Y4427217D01*
X3616337D01*
X3614950Y4427355D01*
D02*
G37*
G36*
X3675000Y4292832D02*
X3546995D01*
Y4268978D01*
X3632979D01*
X3546995Y4216278D01*
Y4191315D01*
X3675000D01*
Y4292832D01*
D02*
G37*
G36*
X3657665Y4167184D02*
X3606490D01*
Y4111572D01*
X3628125D01*
Y4141112D01*
X3644490D01*
X3646154Y4138754D01*
X3647541Y4136396D01*
X3648789Y4134039D01*
X3649898Y4131820D01*
X3650869Y4129878D01*
X3651562Y4128353D01*
X3651840Y4127798D01*
X3651978Y4127382D01*
X3652117Y4127105D01*
Y4126966D01*
X3653227Y4123915D01*
X3653920Y4121002D01*
X3654475Y4118367D01*
X3654891Y4115871D01*
X3655168Y4113791D01*
Y4112820D01*
X3655307Y4112127D01*
Y4110740D01*
X3655168Y4107689D01*
X3654752Y4104915D01*
X3654197Y4102280D01*
X3653504Y4099645D01*
X3652672Y4097287D01*
X3651701Y4095207D01*
X3650730Y4093127D01*
X3649621Y4091324D01*
X3648511Y4089799D01*
X3647541Y4088273D01*
X3646570Y4087164D01*
X3645738Y4086054D01*
X3645044Y4085361D01*
X3644351Y4084667D01*
X3644073Y4084390D01*
X3643935Y4084251D01*
X3641716Y4082448D01*
X3639220Y4080923D01*
X3636585Y4079536D01*
X3633811Y4078426D01*
X3630899Y4077456D01*
X3628125Y4076624D01*
X3625212Y4075930D01*
X3622577Y4075375D01*
X3619942Y4074959D01*
X3617446Y4074682D01*
X3615366Y4074405D01*
X3613424Y4074266D01*
X3611899D01*
X3610651Y4074127D01*
X3609957D01*
X3609680D01*
X3605797Y4074266D01*
X3602191Y4074543D01*
X3598862Y4075098D01*
X3595811Y4075653D01*
X3592899Y4076485D01*
X3590264Y4077317D01*
X3587906Y4078149D01*
X3585826Y4079120D01*
X3583885Y4080091D01*
X3582359Y4080923D01*
X3580972Y4081755D01*
X3579863Y4082587D01*
X3578892Y4083142D01*
X3578337Y4083696D01*
X3577921Y4083974D01*
X3577783Y4084112D01*
X3575841Y4086054D01*
X3574177Y4088134D01*
X3572790Y4090353D01*
X3571542Y4092572D01*
X3570432Y4094791D01*
X3569600Y4097010D01*
X3568907Y4099229D01*
X3568352Y4101309D01*
X3567936Y4103251D01*
X3567520Y4105192D01*
X3567243Y4106857D01*
X3567104Y4108243D01*
X3566965Y4109353D01*
Y4111017D01*
X3567243Y4115039D01*
X3567797Y4118645D01*
X3568768Y4121835D01*
X3569739Y4124470D01*
X3570294Y4125579D01*
X3570710Y4126688D01*
X3571264Y4127521D01*
X3571680Y4128214D01*
X3571958Y4128907D01*
X3572235Y4129323D01*
X3572513Y4129462D01*
Y4129601D01*
X3574731Y4132236D01*
X3577089Y4134316D01*
X3579585Y4136119D01*
X3581943Y4137506D01*
X3584023Y4138615D01*
X3584994Y4139031D01*
X3585826Y4139309D01*
X3586381Y4139586D01*
X3586936Y4139725D01*
X3587213Y4139863D01*
X3587352D01*
X3582498Y4165520D01*
X3579308Y4164688D01*
X3576257Y4163717D01*
X3573345Y4162469D01*
X3570710Y4161221D01*
X3568352Y4159834D01*
X3565994Y4158308D01*
X3563914Y4156922D01*
X3562111Y4155396D01*
X3560447Y4154009D01*
X3558922Y4152622D01*
X3557812Y4151374D01*
X3556703Y4150403D01*
X3555870Y4149433D01*
X3555316Y4148739D01*
X3555038Y4148323D01*
X3554900Y4148184D01*
X3553097Y4145549D01*
X3551571Y4142776D01*
X3550323Y4139863D01*
X3549075Y4136812D01*
X3548104Y4133623D01*
X3547411Y4130572D01*
X3546717Y4127521D01*
X3546163Y4124608D01*
X3545747Y4121835D01*
X3545469Y4119338D01*
X3545192Y4116981D01*
X3545053Y4114900D01*
X3544914Y4113375D01*
Y4114900D01*
Y4107689D01*
X3545192Y4104499D01*
X3545469Y4101448D01*
X3545885Y4098536D01*
X3546440Y4095762D01*
X3546995Y4093266D01*
X3547549Y4090908D01*
X3548104Y4088828D01*
X3548659Y4086886D01*
X3549214Y4085222D01*
X3549768Y4083835D01*
X3550323Y4082587D01*
X3550739Y4081616D01*
X3551017Y4080923D01*
X3551155Y4080507D01*
X3551294Y4080368D01*
X3552958Y4077456D01*
X3554761Y4074682D01*
X3556564Y4072047D01*
X3558505Y4069689D01*
X3560586Y4067470D01*
X3562527Y4065529D01*
X3564469Y4063587D01*
X3566410Y4062062D01*
X3568213Y4060536D01*
X3569878Y4059288D01*
X3571403Y4058317D01*
X3572651Y4057346D01*
X3573761Y4056653D01*
X3574593Y4056237D01*
X3575148Y4055960D01*
X3575286Y4055821D01*
X3578199Y4054295D01*
X3581250Y4053047D01*
X3584301Y4051938D01*
X3587352Y4050967D01*
X3590403Y4050274D01*
X3593315Y4049580D01*
X3596228Y4049025D01*
X3598862Y4048609D01*
X3601359Y4048193D01*
X3603578Y4047916D01*
X3605658Y4047777D01*
X3607461Y4047639D01*
X3608848Y4047500D01*
X3544914D01*
X3677358D01*
Y4112404D01*
X3677219Y4115316D01*
X3677080Y4118229D01*
X3676387Y4123915D01*
X3675971Y4126688D01*
X3675416Y4129185D01*
X3674861Y4131681D01*
X3674307Y4133900D01*
X3673752Y4135980D01*
X3673336Y4137922D01*
X3672781Y4139586D01*
X3672365Y4140973D01*
X3671949Y4142082D01*
X3671672Y4142914D01*
X3671394Y4143469D01*
Y4143608D01*
X3670285Y4146382D01*
X3669037Y4149017D01*
X3667927Y4151513D01*
X3666679Y4153732D01*
X3665570Y4155951D01*
X3664460Y4157892D01*
X3663351Y4159557D01*
X3662241Y4161221D01*
X3661270Y4162608D01*
X3660438Y4163856D01*
X3659606Y4164827D01*
X3658913Y4165659D01*
X3658358Y4166352D01*
X3657942Y4166768D01*
X3657803Y4167046D01*
X3657665Y4167184D01*
D02*
G37*
%LPD*%
G36*
X3616337Y4400589D02*
X3618694Y4400451D01*
X3621052Y4400312D01*
X3623132Y4400173D01*
X3624935Y4399896D01*
X3626738Y4399619D01*
X3628402Y4399480D01*
X3629789Y4399203D01*
X3631037Y4398925D01*
X3632008Y4398648D01*
X3632979Y4398509D01*
X3633672Y4398370D01*
X3634088Y4398232D01*
X3634366Y4398093D01*
X3634504D01*
X3637555Y4396984D01*
X3640052Y4395874D01*
X3642132Y4394765D01*
X3643935Y4393655D01*
X3645183Y4392823D01*
X3646154Y4391991D01*
X3646708Y4391436D01*
X3646847Y4391298D01*
X3648095Y4389633D01*
X3649205Y4387969D01*
X3650176Y4386166D01*
X3651008Y4384502D01*
X3651562Y4383115D01*
X3651978Y4382006D01*
X3652117Y4381174D01*
X3652256Y4381035D01*
Y4380896D01*
X3652395Y4379925D01*
X3652672Y4378816D01*
X3652949Y4376458D01*
X3653088Y4373823D01*
X3653227Y4371188D01*
X3653365Y4368969D01*
Y4345948D01*
X3568629D01*
Y4362867D01*
X3568768Y4365225D01*
Y4367444D01*
X3568907Y4369385D01*
X3569045Y4371188D01*
X3569184Y4372714D01*
Y4373962D01*
X3569323Y4375210D01*
X3569461Y4376181D01*
X3569600Y4377013D01*
X3569739Y4377568D01*
Y4378123D01*
X3569878Y4378400D01*
Y4378677D01*
X3570571Y4381312D01*
X3571542Y4383670D01*
X3572513Y4385750D01*
X3573483Y4387414D01*
X3574454Y4388801D01*
X3575286Y4389911D01*
X3575841Y4390465D01*
X3575980Y4390743D01*
X3577783Y4392407D01*
X3579724Y4393933D01*
X3581804Y4395181D01*
X3583746Y4396151D01*
X3585549Y4396984D01*
X3587074Y4397677D01*
X3587490Y4397816D01*
X3587906Y4397954D01*
X3588184Y4398093D01*
X3588323D01*
X3589848Y4398509D01*
X3591512Y4398925D01*
X3595257Y4399619D01*
X3599001Y4400035D01*
X3602607Y4400451D01*
X3604410D01*
X3605935Y4400589D01*
X3607322D01*
X3608570Y4400728D01*
X3609680D01*
X3610373D01*
X3610928D01*
X3611067D01*
X3613702D01*
X3616337Y4400589D01*
D02*
G37*
G36*
X3675000Y4215169D02*
X3590958D01*
X3675000Y4267037D01*
Y4215169D01*
D02*
G37*
G36*
X3677358Y4047500D02*
X3610789D01*
X3614256Y4047639D01*
X3617585Y4047777D01*
X3620775Y4048193D01*
X3623964Y4048609D01*
X3626877Y4049303D01*
X3629650Y4049858D01*
X3632285Y4050551D01*
X3634782Y4051244D01*
X3637001Y4051938D01*
X3638942Y4052631D01*
X3640745Y4053325D01*
X3642132Y4053879D01*
X3643380Y4054295D01*
X3644212Y4054711D01*
X3644767Y4054850D01*
X3644906Y4054989D01*
X3647818Y4056514D01*
X3650453Y4058040D01*
X3652949Y4059843D01*
X3655307Y4061646D01*
X3657387Y4063449D01*
X3659467Y4065390D01*
X3661270Y4067193D01*
X3662796Y4068996D01*
X3664321Y4070660D01*
X3665570Y4072186D01*
X3666540Y4073711D01*
X3667511Y4074821D01*
X3668205Y4075930D01*
X3668621Y4076624D01*
X3668898Y4077178D01*
X3669037Y4077317D01*
X3670562Y4080229D01*
X3671810Y4083142D01*
X3672920Y4086054D01*
X3673891Y4089105D01*
X3674584Y4092156D01*
X3675277Y4095069D01*
X3675832Y4097842D01*
X3676248Y4100477D01*
X3676664Y4102974D01*
X3676942Y4105192D01*
X3677080Y4107273D01*
X3677219Y4109076D01*
X3677358Y4110462D01*
Y4047500D01*
D02*
G37*
%LPC*%
G36*
X3335887Y4343452D02*
X3244079D01*
Y4259270D01*
D01*
Y4300876D01*
X3244217Y4297547D01*
X3244495Y4294357D01*
X3244911Y4291445D01*
X3245604Y4288671D01*
X3246298Y4286175D01*
X3246991Y4283817D01*
X3247962Y4281598D01*
X3248794Y4279796D01*
X3249626Y4277993D01*
X3250458Y4276606D01*
X3251290Y4275358D01*
X3251984Y4274248D01*
X3252677Y4273555D01*
X3253093Y4272861D01*
X3253370Y4272584D01*
X3253509Y4272445D01*
X3255312Y4270642D01*
X3257254Y4269117D01*
X3259195Y4267869D01*
X3261137Y4266621D01*
X3263078Y4265650D01*
X3265020Y4264956D01*
X3266961Y4264263D01*
X3268764Y4263708D01*
X3270429Y4263292D01*
X3272093Y4263015D01*
X3273480Y4262737D01*
X3274728Y4262599D01*
X3275699D01*
X3276392Y4262460D01*
X3276947D01*
X3277085D01*
X3280136Y4262599D01*
X3283049Y4263154D01*
X3285684Y4263847D01*
X3288041Y4264679D01*
X3289983Y4265372D01*
X3291370Y4266066D01*
X3291925Y4266343D01*
X3292341Y4266621D01*
X3292479Y4266759D01*
X3292618D01*
X3295114Y4268562D01*
X3297195Y4270781D01*
X3299136Y4273000D01*
X3300662Y4275219D01*
X3301910Y4277299D01*
X3302881Y4278964D01*
X3303158Y4279657D01*
X3303435Y4280073D01*
X3303574Y4280350D01*
Y4280489D01*
X3305516Y4276606D01*
X3307596Y4273416D01*
X3309954Y4270642D01*
X3312034Y4268285D01*
X3313975Y4266621D01*
X3315640Y4265372D01*
X3316194Y4264956D01*
X3316610Y4264679D01*
X3316888Y4264402D01*
X3317026D01*
X3320355Y4262737D01*
X3323683Y4261489D01*
X3326873Y4260519D01*
X3329785Y4259964D01*
X3332282Y4259548D01*
X3333391Y4259409D01*
X3334223D01*
X3335055Y4259270D01*
X3336026D01*
X3339493Y4259409D01*
X3342683Y4259825D01*
X3345734Y4260519D01*
X3348646Y4261351D01*
X3351281Y4262460D01*
X3353639Y4263570D01*
X3355858Y4264818D01*
X3357938Y4266066D01*
X3359741Y4267314D01*
X3361267Y4268562D01*
X3362653Y4269672D01*
X3363763Y4270781D01*
X3364595Y4271613D01*
X3365150Y4272307D01*
X3365566Y4272723D01*
X3365704Y4272861D01*
X3367369Y4275080D01*
X3368756Y4277438D01*
X3370004Y4279934D01*
X3370974Y4282292D01*
X3371945Y4284788D01*
X3372639Y4287146D01*
X3373748Y4291861D01*
X3374026Y4293941D01*
X3374303Y4295883D01*
X3374580Y4297547D01*
X3374719Y4299073D01*
X3374858Y4300321D01*
Y4301985D01*
X3374719Y4305452D01*
X3374442Y4308642D01*
X3373887Y4311693D01*
X3373055Y4314605D01*
X3372223Y4317240D01*
X3371391Y4319737D01*
X3370281Y4321956D01*
X3369310Y4324036D01*
X3368339Y4325839D01*
X3367230Y4327503D01*
X3366398Y4328890D01*
X3365427Y4329999D01*
X3364734Y4330970D01*
X3364179Y4331525D01*
X3363902Y4331941D01*
X3363763Y4332079D01*
X3361544Y4334021D01*
X3359325Y4335824D01*
X3356967Y4337349D01*
X3354610Y4338598D01*
X3352252Y4339707D01*
X3349756Y4340678D01*
X3347537Y4341371D01*
X3345179Y4342065D01*
X3343099Y4342481D01*
X3341157Y4342897D01*
X3339493Y4343174D01*
X3337968Y4343313D01*
X3336720D01*
X3335887Y4343452D01*
D02*
G37*
G36*
X3372500Y4251920D02*
Y4206154D01*
X3244495Y4251920D01*
Y4132791D01*
X3372500Y4178418D01*
Y4132791D01*
Y4251920D01*
D02*
G37*
G36*
Y4103667D02*
X3244079D01*
Y4047500D01*
D01*
Y4083696D01*
X3246298Y4082864D01*
X3248378Y4081894D01*
X3252261Y4079536D01*
X3255728Y4077040D01*
X3258779Y4074405D01*
X3260166Y4073156D01*
X3261275Y4072047D01*
X3262385Y4071076D01*
X3263217Y4070105D01*
X3263910Y4069412D01*
X3264326Y4068857D01*
X3264604Y4068441D01*
X3264743Y4068303D01*
X3267794Y4064142D01*
X3270290Y4060259D01*
X3272370Y4056792D01*
X3273896Y4053741D01*
X3274589Y4052354D01*
X3275144Y4051106D01*
X3275560Y4050135D01*
X3275976Y4049164D01*
X3276253Y4048471D01*
X3276392Y4047916D01*
X3276531Y4047639D01*
Y4047500D01*
X3372500D01*
X3298859D01*
X3297611Y4050828D01*
X3296362Y4054018D01*
X3294976Y4057208D01*
X3293450Y4060120D01*
X3291925Y4062894D01*
X3290399Y4065529D01*
X3288874Y4067886D01*
X3287348Y4070105D01*
X3285961Y4072186D01*
X3284574Y4073850D01*
X3283326Y4075514D01*
X3282355Y4076762D01*
X3281523Y4077733D01*
X3280830Y4078565D01*
X3280414Y4078981D01*
X3280275Y4079120D01*
X3372500D01*
Y4103667D01*
D02*
G37*
%LPD*%
G36*
X3331172Y4343174D02*
X3327566Y4342619D01*
X3324238Y4341649D01*
X3321464Y4340678D01*
X3320216Y4340123D01*
X3319245Y4339707D01*
X3318275Y4339152D01*
X3317442Y4338736D01*
X3316888Y4338459D01*
X3316472Y4338182D01*
X3316194Y4337904D01*
X3316056D01*
X3313143Y4335685D01*
X3310647Y4333050D01*
X3308567Y4330277D01*
X3306764Y4327780D01*
X3305377Y4325423D01*
X3304822Y4324313D01*
X3304406Y4323481D01*
X3303990Y4322649D01*
X3303713Y4322094D01*
X3303574Y4321817D01*
Y4321678D01*
X3302049Y4324591D01*
X3300384Y4327226D01*
X3298581Y4329444D01*
X3296779Y4331247D01*
X3295253Y4332634D01*
X3294005Y4333744D01*
X3293173Y4334298D01*
X3293034Y4334576D01*
X3292895D01*
X3290260Y4336101D01*
X3287487Y4337349D01*
X3284852Y4338182D01*
X3282355Y4338736D01*
X3280275Y4339014D01*
X3279304Y4339152D01*
X3278611Y4339291D01*
X3277917D01*
X3277501D01*
X3277224D01*
X3277085D01*
X3274450Y4339152D01*
X3271954Y4338875D01*
X3269596Y4338320D01*
X3267378Y4337766D01*
X3265297Y4336933D01*
X3263356Y4336101D01*
X3261553Y4335131D01*
X3259889Y4334298D01*
X3258502Y4333328D01*
X3257254Y4332357D01*
X3256144Y4331525D01*
X3255173Y4330693D01*
X3254480Y4330138D01*
X3253925Y4329583D01*
X3253648Y4329306D01*
X3253509Y4329167D01*
X3251845Y4327226D01*
X3250458Y4325007D01*
X3249071Y4322788D01*
X3248100Y4320430D01*
X3247130Y4318072D01*
X3246436Y4315715D01*
X3245188Y4311277D01*
X3244911Y4309058D01*
X3244633Y4307116D01*
X3244356Y4305452D01*
X3244217Y4303927D01*
X3244079Y4302678D01*
Y4343452D01*
X3335055D01*
X3331172Y4343174D01*
D02*
G37*
G36*
X3281385Y4316131D02*
X3283604Y4315576D01*
X3285684Y4314883D01*
X3287209Y4314189D01*
X3288596Y4313357D01*
X3289428Y4312664D01*
X3290122Y4312109D01*
X3290260Y4311970D01*
X3291647Y4310306D01*
X3292618Y4308503D01*
X3293450Y4306562D01*
X3293866Y4304759D01*
X3294144Y4303233D01*
X3294282Y4301846D01*
X3294421Y4301014D01*
Y4300737D01*
X3294282Y4298241D01*
X3293727Y4296022D01*
X3293173Y4294219D01*
X3292341Y4292555D01*
X3291647Y4291306D01*
X3290954Y4290474D01*
X3290538Y4289781D01*
X3290399Y4289642D01*
X3288735Y4288255D01*
X3286793Y4287285D01*
X3284990Y4286591D01*
X3283049Y4286175D01*
X3281385Y4285898D01*
X3280136Y4285620D01*
X3279582D01*
X3279166D01*
X3279027D01*
X3278888D01*
X3276392Y4285759D01*
X3274173Y4286314D01*
X3272370Y4287007D01*
X3270706Y4287701D01*
X3269458Y4288533D01*
X3268487Y4289087D01*
X3267932Y4289642D01*
X3267794Y4289781D01*
X3266407Y4291445D01*
X3265297Y4293248D01*
X3264604Y4295190D01*
X3264049Y4296992D01*
X3263772Y4298518D01*
X3263494Y4299905D01*
Y4301014D01*
X3263633Y4303511D01*
X3264188Y4305730D01*
X3264881Y4307532D01*
X3265575Y4309197D01*
X3266407Y4310445D01*
X3267100Y4311416D01*
X3267655Y4311970D01*
X3267794Y4312109D01*
X3269458Y4313496D01*
X3271261Y4314467D01*
X3273064Y4315299D01*
X3274866Y4315715D01*
X3276392Y4315992D01*
X3277640Y4316269D01*
X3278472D01*
X3278611D01*
X3278750D01*
X3281385Y4316131D01*
D02*
G37*
G36*
X3337552Y4318904D02*
X3340741Y4318350D01*
X3343515Y4317656D01*
X3345734Y4316686D01*
X3347398Y4315715D01*
X3348785Y4315021D01*
X3349478Y4314467D01*
X3349756Y4314189D01*
X3351559Y4312248D01*
X3352946Y4310167D01*
X3353778Y4307948D01*
X3354471Y4306007D01*
X3354887Y4304204D01*
X3355026Y4302817D01*
X3355164Y4302262D01*
Y4301569D01*
X3354887Y4298795D01*
X3354332Y4296299D01*
X3353362Y4294080D01*
X3352252Y4292138D01*
X3351281Y4290613D01*
X3350311Y4289503D01*
X3349756Y4288810D01*
X3349478Y4288533D01*
X3347121Y4286868D01*
X3344625Y4285620D01*
X3341990Y4284650D01*
X3339493Y4284095D01*
X3337136Y4283679D01*
X3336165Y4283540D01*
X3335333D01*
X3334639Y4283401D01*
X3334085D01*
X3333807D01*
X3333668D01*
X3331033Y4283540D01*
X3328398Y4284095D01*
X3326180Y4284788D01*
X3324099Y4285620D01*
X3322435Y4286314D01*
X3321187Y4287007D01*
X3320355Y4287562D01*
X3320077Y4287701D01*
X3318968Y4288533D01*
X3317997Y4289503D01*
X3316472Y4291722D01*
X3315362Y4293941D01*
X3314669Y4296160D01*
X3314114Y4298102D01*
X3313975Y4299627D01*
X3313837Y4300321D01*
Y4301153D01*
X3314114Y4303927D01*
X3314669Y4306423D01*
X3315640Y4308642D01*
X3316610Y4310583D01*
X3317581Y4311970D01*
X3318552Y4313080D01*
X3319107Y4313773D01*
X3319384Y4314051D01*
X3321603Y4315715D01*
X3323961Y4316963D01*
X3326457Y4317934D01*
X3328676Y4318488D01*
X3330756Y4318904D01*
X3332420Y4319043D01*
X3333114Y4319182D01*
X3333530D01*
X3333807D01*
X3333946D01*
X3337552Y4318904D01*
D02*
G37*
G36*
X3339216Y4193118D02*
X3244495Y4160666D01*
Y4224461D01*
X3339216Y4193118D01*
D02*
G37*
%LPC*%
G36*
X3077357Y4346357D02*
X2946578D01*
X3036862D01*
X3034781Y4346218D01*
X3032701Y4346079D01*
X3028818Y4345386D01*
X3025490Y4344276D01*
X3022577Y4343028D01*
X3021329Y4342473D01*
X3020220Y4341780D01*
X3019249Y4341225D01*
X3018417Y4340809D01*
X3017862Y4340254D01*
X3017446Y4339977D01*
X3017168Y4339838D01*
X3017030Y4339700D01*
X3015504Y4338452D01*
X3014117Y4337065D01*
X3011898Y4334291D01*
X3009957Y4331379D01*
X3008570Y4328466D01*
X3007599Y4326109D01*
X3007183Y4324999D01*
X3006906Y4324028D01*
X3006628Y4323335D01*
X3006490Y4322780D01*
X3006351Y4322364D01*
Y4322226D01*
X3004410Y4325415D01*
X3002329Y4328328D01*
X3000110Y4330824D01*
X2997891Y4332904D01*
X2995672Y4334707D01*
X2993453Y4336233D01*
X2991235Y4337342D01*
X2989154Y4338313D01*
X2987213Y4339145D01*
X2985271Y4339700D01*
X2983607Y4340116D01*
X2982220Y4340393D01*
X2981111Y4340532D01*
X2980140Y4340671D01*
X2979585D01*
X2979446D01*
X2977227Y4340532D01*
X2975147Y4340254D01*
X2973067Y4339838D01*
X2971125Y4339284D01*
X2967520Y4337758D01*
X2964469Y4336094D01*
X2963082Y4335262D01*
X2961834Y4334430D01*
X2960724Y4333598D01*
X2959892Y4332904D01*
X2959199Y4332349D01*
X2958644Y4331933D01*
X2958366Y4331656D01*
X2958228Y4331517D01*
X2956148Y4329437D01*
X2954345Y4327218D01*
X2952819Y4324861D01*
X2951432Y4322364D01*
X2950323Y4320007D01*
X2949352Y4317649D01*
X2948659Y4315291D01*
X2947965Y4312934D01*
X2947549Y4310853D01*
X2947133Y4308912D01*
X2946994Y4307109D01*
X2946717Y4305583D01*
Y4304335D01*
X2946578Y4303365D01*
Y4302532D01*
X2946717Y4298649D01*
X2947133Y4295043D01*
X2947826Y4291715D01*
X2948520Y4288941D01*
X2948936Y4287693D01*
X2949352Y4286584D01*
X2949629Y4285613D01*
X2949907Y4284781D01*
X2950184Y4284087D01*
X2950461Y4283671D01*
X2950600Y4283394D01*
Y4283255D01*
X2952264Y4280204D01*
X2954067Y4277569D01*
X2955870Y4275350D01*
X2957673Y4273547D01*
X2959199Y4272022D01*
X2960585Y4270912D01*
X2961417Y4270358D01*
X2961556Y4270080D01*
X2961695D01*
X2964469Y4268416D01*
X2967520Y4267029D01*
X2970571Y4265781D01*
X2973622Y4264810D01*
X2976257Y4263978D01*
X2977366Y4263701D01*
X2978337Y4263424D01*
X2979169Y4263285D01*
X2979724Y4263146D01*
X2980140Y4263007D01*
X2980279D01*
X2984023Y4285613D01*
X2981111Y4286168D01*
X2978476Y4286861D01*
X2976395Y4287693D01*
X2974592Y4288664D01*
X2973206Y4289635D01*
X2972235Y4290328D01*
X2971541Y4290883D01*
X2971403Y4291022D01*
X2969877Y4292825D01*
X2968768Y4294627D01*
X2968074Y4296430D01*
X2967520Y4298095D01*
X2967242Y4299620D01*
X2966965Y4300730D01*
Y4301839D01*
X2967104Y4304197D01*
X2967520Y4306277D01*
X2968213Y4307941D01*
X2968906Y4309467D01*
X2969600Y4310715D01*
X2970293Y4311547D01*
X2970709Y4312102D01*
X2970848Y4312240D01*
X2972374Y4313488D01*
X2974038Y4314459D01*
X2975841Y4315153D01*
X2977366Y4315707D01*
X2978892Y4315985D01*
X2980001Y4316123D01*
X2980833D01*
X2980972D01*
X2981111D01*
X2983884Y4315846D01*
X2986242Y4315291D01*
X2988322Y4314459D01*
X2990125Y4313488D01*
X2991512Y4312379D01*
X2992483Y4311547D01*
X2993037Y4310992D01*
X2993315Y4310715D01*
X2994702Y4308496D01*
X2995811Y4306138D01*
X2996643Y4303642D01*
X2997059Y4301146D01*
X2997337Y4298927D01*
Y4297956D01*
X2997475Y4297124D01*
Y4295460D01*
X3017446Y4292825D01*
X3016752Y4295182D01*
X3016336Y4297401D01*
X3015920Y4299204D01*
X3015782Y4300868D01*
X3015643Y4302255D01*
X3015504Y4303226D01*
Y4304058D01*
X3015782Y4306693D01*
X3016336Y4309051D01*
X3017307Y4311131D01*
X3018278Y4312934D01*
X3019249Y4314321D01*
X3020220Y4315430D01*
X3020774Y4315985D01*
X3021052Y4316262D01*
X3023271Y4317926D01*
X3025628Y4319174D01*
X3028125Y4320007D01*
X3030482Y4320700D01*
X3032562Y4320977D01*
X3033394Y4321116D01*
X3034227D01*
X3034920Y4321255D01*
X3035336D01*
X3035613D01*
X3035752D01*
X3039219Y4320977D01*
X3042270Y4320423D01*
X3044905Y4319591D01*
X3047124Y4318620D01*
X3048927Y4317649D01*
X3050175Y4316817D01*
X3051007Y4316262D01*
X3051285Y4315985D01*
X3053226Y4313905D01*
X3054613Y4311686D01*
X3055584Y4309605D01*
X3056277Y4307525D01*
X3056693Y4305722D01*
X3056832Y4304335D01*
X3056971Y4303781D01*
Y4303087D01*
X3056832Y4300591D01*
X3056277Y4298233D01*
X3055445Y4296153D01*
X3054613Y4294350D01*
X3053781Y4292963D01*
X3052949Y4291854D01*
X3052394Y4291299D01*
X3052256Y4291022D01*
X3050314Y4289357D01*
X3047956Y4287971D01*
X3045737Y4286861D01*
X3043380Y4286168D01*
X3041438Y4285474D01*
X3039774Y4285197D01*
X3039081Y4285058D01*
X3038664Y4284920D01*
X3038387D01*
X3038248D01*
X3041161Y4261205D01*
X3044073Y4261621D01*
X3046986Y4262314D01*
X3049621Y4263146D01*
X3052117Y4263978D01*
X3054474Y4265088D01*
X3056555Y4266197D01*
X3058496Y4267307D01*
X3060299Y4268416D01*
X3061963Y4269664D01*
X3063350Y4270635D01*
X3064598Y4271745D01*
X3065569Y4272577D01*
X3066401Y4273270D01*
X3066956Y4273825D01*
X3067233Y4274241D01*
X3067372Y4274380D01*
X3069175Y4276599D01*
X3070700Y4278956D01*
X3071949Y4281314D01*
X3073197Y4283810D01*
X3074168Y4286168D01*
X3074861Y4288525D01*
X3075554Y4290883D01*
X3076109Y4293102D01*
X3076525Y4295182D01*
X3076803Y4297124D01*
X3077080Y4298927D01*
X3077219Y4300313D01*
Y4301562D01*
X3077357Y4302394D01*
Y4303226D01*
X3077219Y4306554D01*
X3076803Y4309883D01*
X3076248Y4312934D01*
X3075554Y4315846D01*
X3074584Y4318481D01*
X3073613Y4321116D01*
X3072503Y4323474D01*
X3071394Y4325554D01*
X3070423Y4327496D01*
X3069314Y4329160D01*
X3068343Y4330547D01*
X3067372Y4331795D01*
X3066679Y4332766D01*
X3066124Y4333459D01*
X3065708Y4333875D01*
X3065569Y4334014D01*
X3063212Y4336233D01*
X3060854Y4338036D01*
X3058496Y4339700D01*
X3056000Y4341087D01*
X3053642Y4342335D01*
X3051285Y4343306D01*
X3048927Y4344138D01*
X3046708Y4344831D01*
X3044628Y4345386D01*
X3042825Y4345663D01*
X3041161Y4345941D01*
X3039635Y4346218D01*
X3038526D01*
X3037555Y4346357D01*
X3077357D01*
D02*
G37*
G36*
X3075000Y4254409D02*
Y4208643D01*
X2946994Y4254409D01*
Y4135280D01*
X3075000Y4180907D01*
Y4254409D01*
D02*
G37*
G36*
X3077357Y4127652D02*
X2946578D01*
X3036862D01*
X3034781Y4127513D01*
X3032701Y4127375D01*
X3028818Y4126681D01*
X3025490Y4125572D01*
X3022577Y4124323D01*
X3021329Y4123769D01*
X3020220Y4123075D01*
X3019249Y4122521D01*
X3018417Y4122105D01*
X3017862Y4121550D01*
X3017446Y4121272D01*
X3017168Y4121134D01*
X3017030Y4120995D01*
X3015504Y4119747D01*
X3014117Y4118360D01*
X3011898Y4115586D01*
X3009957Y4112674D01*
X3008570Y4109762D01*
X3007599Y4107404D01*
X3007183Y4106295D01*
X3006906Y4105324D01*
X3006628Y4104630D01*
X3006490Y4104076D01*
X3006351Y4103660D01*
Y4103521D01*
X3004410Y4106711D01*
X3002329Y4109623D01*
X3000110Y4112119D01*
X2997891Y4114200D01*
X2995672Y4116002D01*
X2993453Y4117528D01*
X2991235Y4118637D01*
X2989154Y4119608D01*
X2987213Y4120440D01*
X2985271Y4120995D01*
X2983607Y4121411D01*
X2982220Y4121688D01*
X2981111Y4121827D01*
X2980140Y4121966D01*
X2979585D01*
X2979446D01*
X2977227Y4121827D01*
X2975147Y4121550D01*
X2973067Y4121134D01*
X2971125Y4120579D01*
X2967520Y4119053D01*
X2964469Y4117389D01*
X2963082Y4116557D01*
X2961834Y4115725D01*
X2960724Y4114893D01*
X2959892Y4114200D01*
X2959199Y4113645D01*
X2958644Y4113229D01*
X2958366Y4112951D01*
X2958228Y4112813D01*
X2956148Y4110732D01*
X2954345Y4108514D01*
X2952819Y4106156D01*
X2951432Y4103660D01*
X2950323Y4101302D01*
X2949352Y4098944D01*
X2948659Y4096587D01*
X2947965Y4094229D01*
X2947549Y4092149D01*
X2947133Y4090207D01*
X2946994Y4088404D01*
X2946717Y4086879D01*
Y4085631D01*
X2946578Y4084660D01*
Y4083828D01*
X2946717Y4079945D01*
X2947133Y4076339D01*
X2947826Y4073010D01*
X2948520Y4070237D01*
X2948936Y4068989D01*
X2949352Y4067879D01*
X2949629Y4066908D01*
X2949907Y4066076D01*
X2950184Y4065383D01*
X2950461Y4064967D01*
X2950600Y4064689D01*
Y4064551D01*
X2952264Y4061500D01*
X2954067Y4058865D01*
X2955870Y4056646D01*
X2957673Y4054843D01*
X2959199Y4053317D01*
X2960585Y4052208D01*
X2961417Y4051653D01*
X2961556Y4051376D01*
X2961695D01*
X2964469Y4049711D01*
X2967520Y4048325D01*
X2970571Y4047076D01*
X2973622Y4046106D01*
X2976257Y4045274D01*
X2977366Y4044996D01*
X2978337Y4044719D01*
X2979169Y4044580D01*
X2979724Y4044441D01*
X2980140Y4044303D01*
X2980279D01*
X2984023Y4066908D01*
X2981111Y4067463D01*
X2978476Y4068156D01*
X2976395Y4068989D01*
X2974592Y4069959D01*
X2973206Y4070930D01*
X2972235Y4071624D01*
X2971541Y4072178D01*
X2971403Y4072317D01*
X2969877Y4074120D01*
X2968768Y4075923D01*
X2968074Y4077726D01*
X2967520Y4079390D01*
X2967242Y4080915D01*
X2966965Y4082025D01*
Y4083134D01*
X2967104Y4085492D01*
X2967520Y4087572D01*
X2968213Y4089236D01*
X2968906Y4090762D01*
X2969600Y4092010D01*
X2970293Y4092842D01*
X2970709Y4093397D01*
X2970848Y4093536D01*
X2972374Y4094784D01*
X2974038Y4095755D01*
X2975841Y4096448D01*
X2977366Y4097003D01*
X2978892Y4097280D01*
X2980001Y4097419D01*
X2980833D01*
X2980972D01*
X2981111D01*
X2983884Y4097141D01*
X2986242Y4096587D01*
X2988322Y4095755D01*
X2990125Y4094784D01*
X2991512Y4093674D01*
X2992483Y4092842D01*
X2993037Y4092287D01*
X2993315Y4092010D01*
X2994702Y4089791D01*
X2995811Y4087434D01*
X2996643Y4084937D01*
X2997059Y4082441D01*
X2997337Y4080222D01*
Y4079251D01*
X2997475Y4078419D01*
Y4076755D01*
X3017446Y4074120D01*
X3016752Y4076477D01*
X3016336Y4078696D01*
X3015920Y4080499D01*
X3015782Y4082164D01*
X3015643Y4083550D01*
X3015504Y4084521D01*
Y4085353D01*
X3015782Y4087988D01*
X3016336Y4090346D01*
X3017307Y4092426D01*
X3018278Y4094229D01*
X3019249Y4095616D01*
X3020220Y4096725D01*
X3020774Y4097280D01*
X3021052Y4097557D01*
X3023271Y4099222D01*
X3025628Y4100470D01*
X3028125Y4101302D01*
X3030482Y4101995D01*
X3032562Y4102273D01*
X3033394Y4102411D01*
X3034227D01*
X3034920Y4102550D01*
X3035336D01*
X3035613D01*
X3035752D01*
X3039219Y4102273D01*
X3042270Y4101718D01*
X3044905Y4100886D01*
X3047124Y4099915D01*
X3048927Y4098944D01*
X3050175Y4098112D01*
X3051007Y4097557D01*
X3051285Y4097280D01*
X3053226Y4095200D01*
X3054613Y4092981D01*
X3055584Y4090901D01*
X3056277Y4088820D01*
X3056693Y4087017D01*
X3056832Y4085631D01*
X3056971Y4085076D01*
Y4084382D01*
X3056832Y4081886D01*
X3056277Y4079529D01*
X3055445Y4077448D01*
X3054613Y4075645D01*
X3053781Y4074259D01*
X3052949Y4073149D01*
X3052394Y4072594D01*
X3052256Y4072317D01*
X3050314Y4070653D01*
X3047956Y4069266D01*
X3045737Y4068156D01*
X3043380Y4067463D01*
X3041438Y4066770D01*
X3039774Y4066492D01*
X3039081Y4066354D01*
X3038664Y4066215D01*
X3038387D01*
X3038248D01*
X3041161Y4042500D01*
X3044073Y4042916D01*
X3046986Y4043609D01*
X3049621Y4044441D01*
X3052117Y4045274D01*
X3054474Y4046383D01*
X3056555Y4047493D01*
X3058496Y4048602D01*
X3060299Y4049711D01*
X3061963Y4050960D01*
X3063350Y4051930D01*
X3064598Y4053040D01*
X3065569Y4053872D01*
X3066401Y4054565D01*
X3066956Y4055120D01*
X3067233Y4055536D01*
X3067372Y4055675D01*
X3069175Y4057894D01*
X3070700Y4060251D01*
X3071949Y4062609D01*
X3073197Y4065105D01*
X3074168Y4067463D01*
X3074861Y4069821D01*
X3075554Y4072178D01*
X3076109Y4074397D01*
X3076525Y4076477D01*
X3076803Y4078419D01*
X3077080Y4080222D01*
X3077219Y4081609D01*
Y4082857D01*
X3077357Y4083689D01*
Y4084521D01*
X3077219Y4087850D01*
X3076803Y4091178D01*
X3076248Y4094229D01*
X3075554Y4097141D01*
X3074584Y4099776D01*
X3073613Y4102411D01*
X3072503Y4104769D01*
X3071394Y4106849D01*
X3070423Y4108791D01*
X3069314Y4110455D01*
X3068343Y4111842D01*
X3067372Y4113090D01*
X3066679Y4114061D01*
X3066124Y4114754D01*
X3065708Y4115170D01*
X3065569Y4115309D01*
X3063212Y4117528D01*
X3060854Y4119331D01*
X3058496Y4120995D01*
X3056000Y4122382D01*
X3053642Y4123630D01*
X3051285Y4124601D01*
X3048927Y4125433D01*
X3046708Y4126126D01*
X3044628Y4126681D01*
X3042825Y4126958D01*
X3041161Y4127236D01*
X3039635Y4127513D01*
X3038526D01*
X3037555Y4127652D01*
X3077357D01*
D02*
G37*
%LPD*%
G36*
X3041716Y4195607D02*
X2946994Y4163155D01*
Y4226950D01*
X3041716Y4195607D01*
D02*
G37*
%LPC*%
G36*
X2733530Y4377838D02*
X2642414D01*
Y4266336D01*
Y4326109D01*
X2642553Y4321255D01*
X2643108Y4316540D01*
X2644079Y4312102D01*
X2645188Y4307941D01*
X2646575Y4304058D01*
X2647962Y4300591D01*
X2649626Y4297263D01*
X2651290Y4294350D01*
X2652954Y4291715D01*
X2654480Y4289358D01*
X2656005Y4287416D01*
X2657392Y4285752D01*
X2658502Y4284365D01*
X2659334Y4283533D01*
X2660027Y4282840D01*
X2660166Y4282701D01*
X2663633Y4279788D01*
X2667377Y4277292D01*
X2671261Y4275073D01*
X2675282Y4273270D01*
X2679443Y4271606D01*
X2683603Y4270358D01*
X2687625Y4269249D01*
X2691647Y4268416D01*
X2695253Y4267723D01*
X2698720Y4267168D01*
X2701910Y4266891D01*
X2704545Y4266614D01*
X2706764Y4266475D01*
X2707596Y4266336D01*
X2709815D01*
X2715362Y4266475D01*
X2720493Y4267030D01*
X2725347Y4267862D01*
X2729924Y4268832D01*
X2734223Y4270081D01*
X2738106Y4271467D01*
X2741712Y4272993D01*
X2744902Y4274519D01*
X2747814Y4276044D01*
X2750310Y4277570D01*
X2752391Y4278956D01*
X2754194Y4280205D01*
X2755580Y4281175D01*
X2756551Y4282007D01*
X2757245Y4282562D01*
X2757383Y4282701D01*
X2760434Y4285891D01*
X2763069Y4289219D01*
X2765427Y4292686D01*
X2767369Y4296153D01*
X2769033Y4299620D01*
X2770420Y4303087D01*
X2771668Y4306555D01*
X2772500Y4309744D01*
X2773332Y4312795D01*
X2773748Y4315708D01*
X2774164Y4318204D01*
X2774441Y4320284D01*
X2774580Y4322087D01*
X2774719Y4323474D01*
Y4324583D01*
X2774580Y4328328D01*
X2774303Y4331934D01*
X2773748Y4335401D01*
X2773193Y4338591D01*
X2772361Y4341642D01*
X2771529Y4344415D01*
X2770558Y4347050D01*
X2769588Y4349269D01*
X2768755Y4351488D01*
X2767785Y4353291D01*
X2766953Y4354817D01*
X2766120Y4356203D01*
X2765566Y4357174D01*
X2765011Y4358006D01*
X2764734Y4358422D01*
X2764595Y4358561D01*
X2762515Y4361057D01*
X2760296Y4363276D01*
X2757938Y4365357D01*
X2755303Y4367298D01*
X2752807Y4368962D01*
X2750172Y4370627D01*
X2747537Y4372013D01*
X2745040Y4373262D01*
X2742683Y4374371D01*
X2740464Y4375342D01*
X2738384Y4376035D01*
X2736719Y4376729D01*
X2735194Y4377283D01*
X2734223Y4377561D01*
X2733530Y4377838D01*
D02*
G37*
G36*
X2774580Y4251358D02*
X2677640D01*
X2725902D01*
X2722019Y4251220D01*
X2718413Y4250804D01*
X2714946Y4250110D01*
X2711756Y4249278D01*
X2708705Y4248307D01*
X2705793Y4247059D01*
X2703158Y4245950D01*
X2700800Y4244701D01*
X2698720Y4243315D01*
X2696778Y4242205D01*
X2695253Y4241096D01*
X2693866Y4239986D01*
X2692757Y4239154D01*
X2692063Y4238461D01*
X2691508Y4238045D01*
X2691370Y4237906D01*
X2689012Y4235271D01*
X2686793Y4232636D01*
X2684990Y4229724D01*
X2683465Y4226811D01*
X2682078Y4224038D01*
X2680968Y4221125D01*
X2680136Y4218351D01*
X2679304Y4215716D01*
X2678750Y4213220D01*
X2678333Y4210863D01*
X2678056Y4208782D01*
X2677917Y4206979D01*
X2677779Y4205593D01*
X2677640Y4204483D01*
D01*
Y4201016D01*
X2677917Y4198520D01*
X2678611Y4193943D01*
X2679582Y4189783D01*
X2680136Y4187841D01*
X2680691Y4186038D01*
X2681246Y4184513D01*
X2681801Y4183126D01*
X2682355Y4181878D01*
X2682771Y4180768D01*
X2683187Y4179936D01*
X2683465Y4179381D01*
X2683603Y4178965D01*
X2683742Y4178827D01*
X2686238Y4174943D01*
X2689012Y4171615D01*
X2691925Y4168703D01*
X2694698Y4166206D01*
X2697195Y4164403D01*
X2698304Y4163571D01*
X2699275Y4163017D01*
X2700107Y4162601D01*
X2700662Y4162184D01*
X2701078Y4162046D01*
X2701216Y4161907D01*
X2703297Y4160798D01*
X2705516Y4159966D01*
X2709676Y4158440D01*
X2713698Y4157469D01*
X2717304Y4156637D01*
X2718968Y4156498D01*
X2720355Y4156221D01*
X2721742Y4156082D01*
X2722851D01*
X2723683Y4155944D01*
X2677640D01*
X2774580D01*
Y4203651D01*
X2774441Y4207395D01*
X2774025Y4211001D01*
X2773332Y4214468D01*
X2772361Y4217658D01*
X2771390Y4220709D01*
X2770281Y4223483D01*
X2769033Y4226118D01*
X2767646Y4228475D01*
X2766398Y4230556D01*
X2765150Y4232359D01*
X2764040Y4234023D01*
X2762931Y4235271D01*
X2762099Y4236380D01*
X2761405Y4237213D01*
X2760989Y4237629D01*
X2760850Y4237767D01*
X2758215Y4240125D01*
X2755303Y4242205D01*
X2752529Y4244008D01*
X2749478Y4245672D01*
X2746566Y4246920D01*
X2743654Y4248030D01*
X2740880Y4249001D01*
X2738106Y4249694D01*
X2735610Y4250249D01*
X2733252Y4250665D01*
X2731172Y4250942D01*
X2729369Y4251220D01*
X2727982D01*
X2726873Y4251358D01*
X2774580D01*
D02*
G37*
G36*
X2685961Y4140550D02*
X2684020D01*
X2681246Y4140411D01*
X2678472Y4140272D01*
X2675976Y4139856D01*
X2673618Y4139440D01*
X2671399Y4138886D01*
X2669319Y4138192D01*
X2667516Y4137499D01*
X2665713Y4136805D01*
X2664188Y4136112D01*
X2662940Y4135418D01*
X2661691Y4134864D01*
X2660721Y4134170D01*
X2660027Y4133754D01*
X2659472Y4133338D01*
X2659195Y4133200D01*
X2659056Y4133061D01*
X2657254Y4131674D01*
X2655728Y4130148D01*
X2654341Y4128623D01*
X2652954Y4126959D01*
X2650735Y4123908D01*
X2649071Y4120995D01*
X2647823Y4118499D01*
X2647407Y4117390D01*
X2646991Y4116419D01*
X2646714Y4115725D01*
X2646575Y4115171D01*
X2646436Y4114755D01*
Y4114616D01*
X2646159Y4113090D01*
X2645743Y4111287D01*
X2645465Y4109207D01*
X2645327Y4106850D01*
X2645188Y4104353D01*
X2644911Y4101857D01*
X2644772Y4096587D01*
X2644633Y4094091D01*
Y4091872D01*
X2644495Y4089653D01*
Y4140550D01*
D01*
Y4042500D01*
X2772500D01*
Y4087572D01*
Y4068295D01*
X2724238D01*
Y4088266D01*
X2724099Y4091317D01*
Y4094091D01*
X2723961Y4096726D01*
X2723822Y4099083D01*
X2723683Y4101302D01*
X2723544Y4103382D01*
X2723267Y4105185D01*
X2723128Y4106711D01*
X2722990Y4108098D01*
X2722851Y4109346D01*
X2722712Y4110317D01*
X2722574Y4111010D01*
Y4111565D01*
X2722435Y4111842D01*
Y4111981D01*
X2721742Y4114477D01*
X2720909Y4116973D01*
X2719939Y4119192D01*
X2718968Y4121134D01*
X2717997Y4122937D01*
X2717165Y4124185D01*
X2716610Y4125017D01*
X2716472Y4125156D01*
Y4125295D01*
X2714530Y4127652D01*
X2712450Y4129871D01*
X2710369Y4131674D01*
X2708428Y4133338D01*
X2706625Y4134586D01*
X2705099Y4135418D01*
X2704545Y4135835D01*
X2704129Y4136112D01*
X2703990Y4136251D01*
X2703851D01*
X2700662Y4137637D01*
X2697333Y4138747D01*
X2694005Y4139440D01*
X2690954Y4139995D01*
X2689428Y4140134D01*
X2688180Y4140272D01*
X2686932Y4140411D01*
X2685961Y4140550D01*
D02*
G37*
%LPD*%
G36*
X2725486Y4352736D02*
X2727982Y4352043D01*
X2730479Y4351349D01*
X2732698Y4350517D01*
X2734639Y4349685D01*
X2736581Y4348714D01*
X2738245Y4347882D01*
X2739770Y4346912D01*
X2741157Y4346079D01*
X2742267Y4345247D01*
X2743376Y4344415D01*
X2744208Y4343722D01*
X2744902Y4343167D01*
X2745457Y4342612D01*
X2745873Y4342196D01*
X2746011Y4342058D01*
X2746150Y4341919D01*
X2747259Y4340532D01*
X2748230Y4339007D01*
X2749894Y4336094D01*
X2751004Y4333182D01*
X2751836Y4330408D01*
X2752252Y4327912D01*
X2752529Y4326941D01*
Y4325970D01*
X2752668Y4325277D01*
Y4324306D01*
X2752529Y4321810D01*
X2752252Y4319313D01*
X2751697Y4316956D01*
X2751004Y4314876D01*
X2750310Y4312795D01*
X2749478Y4310992D01*
X2748508Y4309190D01*
X2747537Y4307664D01*
X2746566Y4306277D01*
X2745595Y4305029D01*
X2744763Y4304058D01*
X2744070Y4303087D01*
X2743376Y4302533D01*
X2742822Y4301978D01*
X2742544Y4301701D01*
X2742405Y4301562D01*
X2740325Y4300036D01*
X2737968Y4298788D01*
X2735471Y4297540D01*
X2732698Y4296569D01*
X2729785Y4295737D01*
X2727012Y4295044D01*
X2721326Y4294073D01*
X2718552Y4293657D01*
X2716056Y4293380D01*
X2713837Y4293241D01*
X2711756Y4293102D01*
X2710231Y4292963D01*
X2708983D01*
X2708151D01*
X2707873D01*
X2703713Y4293102D01*
X2699830Y4293380D01*
X2696362Y4293796D01*
X2693034Y4294350D01*
X2689983Y4295044D01*
X2687348Y4295737D01*
X2684852Y4296569D01*
X2682771Y4297401D01*
X2680830Y4298095D01*
X2679166Y4298927D01*
X2677779Y4299620D01*
X2676669Y4300314D01*
X2675837Y4300868D01*
X2675144Y4301285D01*
X2674866Y4301562D01*
X2674728Y4301701D01*
X2672925Y4303365D01*
X2671399Y4305306D01*
X2670012Y4307109D01*
X2668764Y4309051D01*
X2667793Y4310992D01*
X2666961Y4312934D01*
X2666268Y4314876D01*
X2665713Y4316678D01*
X2665297Y4318343D01*
X2665020Y4319868D01*
X2664742Y4321255D01*
X2664604Y4322503D01*
X2664465Y4323474D01*
Y4324861D01*
X2664742Y4328605D01*
X2665436Y4331934D01*
X2666268Y4334846D01*
X2667377Y4337481D01*
X2668487Y4339561D01*
X2668903Y4340393D01*
X2669319Y4341087D01*
X2669735Y4341642D01*
X2670012Y4342058D01*
X2670151Y4342196D01*
X2670290Y4342335D01*
X2672647Y4344831D01*
X2675144Y4346912D01*
X2677779Y4348576D01*
X2680275Y4349824D01*
X2682494Y4350795D01*
X2683465Y4351211D01*
X2684297Y4351488D01*
X2684990Y4351627D01*
X2685545Y4351765D01*
X2685822Y4351904D01*
X2685961D01*
X2679859Y4377422D01*
X2677085Y4376590D01*
X2674450Y4375619D01*
X2672093Y4374510D01*
X2669735Y4373539D01*
X2667655Y4372429D01*
X2665713Y4371320D01*
X2664049Y4370210D01*
X2662385Y4369240D01*
X2660998Y4368130D01*
X2659750Y4367298D01*
X2658779Y4366466D01*
X2657947Y4365634D01*
X2657254Y4365079D01*
X2656837Y4364663D01*
X2656560Y4364386D01*
X2656421Y4364247D01*
X2653925Y4361335D01*
X2651845Y4358422D01*
X2649903Y4355233D01*
X2648378Y4352043D01*
X2646991Y4348853D01*
X2645881Y4345663D01*
X2644911Y4342612D01*
X2644217Y4339700D01*
X2643524Y4336926D01*
X2643108Y4334291D01*
X2642830Y4331934D01*
X2642692Y4329992D01*
X2642553Y4328328D01*
X2642414Y4327218D01*
Y4377838D01*
X2733252D01*
X2725486Y4352736D01*
D02*
G37*
G36*
X2731033Y4225840D02*
X2733252Y4225563D01*
X2735333Y4225147D01*
X2737135Y4224592D01*
X2738938Y4224038D01*
X2740603Y4223483D01*
X2741989Y4222928D01*
X2743238Y4222235D01*
X2744347Y4221680D01*
X2745318Y4221125D01*
X2746011Y4220570D01*
X2746566Y4220154D01*
X2746982Y4219877D01*
X2747259Y4219738D01*
X2747398Y4219600D01*
X2748646Y4218351D01*
X2749756Y4217103D01*
X2750727Y4215716D01*
X2751559Y4214330D01*
X2752807Y4211695D01*
X2753639Y4209060D01*
X2754194Y4206841D01*
X2754332Y4205870D01*
X2754471Y4205177D01*
X2754610Y4204483D01*
Y4203512D01*
X2754471Y4201709D01*
X2754332Y4200045D01*
X2753500Y4196994D01*
X2752391Y4194220D01*
X2751004Y4191863D01*
X2749617Y4190060D01*
X2748508Y4188534D01*
X2748092Y4188118D01*
X2747675Y4187702D01*
X2747537Y4187564D01*
X2747398Y4187425D01*
X2746011Y4186315D01*
X2744347Y4185345D01*
X2741019Y4183680D01*
X2737413Y4182571D01*
X2734084Y4181878D01*
X2732420Y4181600D01*
X2730895Y4181323D01*
X2729647Y4181184D01*
X2728398D01*
X2727566Y4181045D01*
X2726734D01*
X2726318D01*
X2726179D01*
X2723683Y4181184D01*
X2721326Y4181323D01*
X2719107Y4181600D01*
X2717026Y4182016D01*
X2715085Y4182571D01*
X2713421Y4183126D01*
X2711756Y4183680D01*
X2710369Y4184235D01*
X2709121Y4184790D01*
X2708012Y4185345D01*
X2707041Y4185899D01*
X2706348Y4186454D01*
X2705793Y4186870D01*
X2705238Y4187148D01*
X2705099Y4187425D01*
X2704961D01*
X2703713Y4188673D01*
X2702464Y4190060D01*
X2701494Y4191308D01*
X2700662Y4192695D01*
X2699413Y4195330D01*
X2698581Y4197965D01*
X2698027Y4200184D01*
X2697888Y4201155D01*
X2697749Y4201987D01*
X2697611Y4202542D01*
Y4203512D01*
X2697749Y4205315D01*
X2697888Y4206979D01*
X2698720Y4210030D01*
X2699968Y4212804D01*
X2701216Y4215162D01*
X2702603Y4217103D01*
X2703851Y4218490D01*
X2704267Y4218906D01*
X2704683Y4219322D01*
X2704822Y4219461D01*
X2704961Y4219600D01*
X2706348Y4220709D01*
X2708012Y4221819D01*
X2711340Y4223344D01*
X2714807Y4224592D01*
X2718274Y4225286D01*
X2719800Y4225563D01*
X2721326Y4225840D01*
X2722574Y4225979D01*
X2723822D01*
X2724654Y4226118D01*
X2725486D01*
X2725902D01*
X2726041D01*
X2728537D01*
X2731033Y4225840D01*
D02*
G37*
G36*
X2774580Y4155944D02*
X2724931D01*
X2727844Y4156082D01*
X2730617Y4156221D01*
X2733391Y4156498D01*
X2735887Y4156914D01*
X2738245Y4157331D01*
X2740464Y4157885D01*
X2742544Y4158440D01*
X2744486Y4158995D01*
X2746150Y4159549D01*
X2747675Y4159966D01*
X2748924Y4160520D01*
X2750033Y4160936D01*
X2750865Y4161352D01*
X2751420Y4161630D01*
X2751836Y4161907D01*
X2751975D01*
X2755858Y4164403D01*
X2759325Y4167177D01*
X2762237Y4170089D01*
X2764595Y4172863D01*
X2766398Y4175498D01*
X2767230Y4176469D01*
X2767785Y4177440D01*
X2768339Y4178272D01*
X2768617Y4178827D01*
X2768755Y4179243D01*
X2768894Y4179381D01*
X2770836Y4183680D01*
X2772223Y4187980D01*
X2773193Y4192140D01*
X2773887Y4195885D01*
X2774164Y4197549D01*
X2774303Y4199074D01*
X2774441Y4200323D01*
Y4201432D01*
X2774580Y4202403D01*
Y4155944D01*
D02*
G37*
G36*
X2686377Y4113784D02*
X2688319Y4113506D01*
X2689983Y4112952D01*
X2691370Y4112397D01*
X2692618Y4111842D01*
X2693450Y4111287D01*
X2694143Y4111010D01*
X2694282Y4110871D01*
X2695808Y4109762D01*
X2697056Y4108375D01*
X2698165Y4106988D01*
X2699136Y4105740D01*
X2699830Y4104631D01*
X2700246Y4103660D01*
X2700523Y4103105D01*
X2700662Y4102828D01*
X2700939Y4101718D01*
X2701355Y4100470D01*
X2701494Y4099083D01*
X2701771Y4097419D01*
X2702187Y4094091D01*
X2702326Y4090762D01*
X2702464Y4087572D01*
X2702603Y4086186D01*
Y4068295D01*
X2666129D01*
Y4085631D01*
X2666268Y4087711D01*
Y4089514D01*
X2666407Y4091178D01*
Y4092704D01*
X2666545Y4094091D01*
Y4095339D01*
X2666684Y4096310D01*
X2666823Y4097142D01*
Y4097835D01*
X2666961Y4098390D01*
X2667100Y4099083D01*
Y4099361D01*
X2667655Y4101580D01*
X2668487Y4103660D01*
X2669319Y4105463D01*
X2670290Y4106850D01*
X2671261Y4108098D01*
X2672093Y4109068D01*
X2672647Y4109623D01*
X2672786Y4109762D01*
X2674589Y4111149D01*
X2676531Y4112120D01*
X2678472Y4112952D01*
X2680275Y4113368D01*
X2681801Y4113645D01*
X2683187Y4113922D01*
X2684020D01*
X2684158D01*
X2684297D01*
X2686377Y4113784D01*
D02*
G37*
D10*
X3014598Y809643D02*
G03*
X2993091Y788136I0J-21507D01*
G01*
X2898649Y749759D02*
G03*
X2993091Y749759I47221J0D01*
G01*
X2898649Y1205539D02*
G03*
X2855635Y1205539I-21507J0D01*
G01*
X2808414Y809643D02*
G03*
X2855635Y856864I0J47221D01*
G01*
X3014598Y835357D02*
G03*
X2967377Y788136I0J-47221D01*
G01*
X2924363Y749759D02*
G03*
X2967377Y749759I21507J0D01*
G01*
X2924363Y1205539D02*
G03*
X2829921Y1205539I-47221J0D01*
G01*
X2808414Y835357D02*
G03*
X2829921Y856864I0J21507D01*
G01*
X2963777Y587143D02*
G03*
X2942270Y565636I0J-21507D01*
G01*
X2847828Y385684D02*
G03*
X2942270Y385684I47221J0D01*
G01*
X2847828Y595636D02*
G03*
X2804815Y595636I-21507J0D01*
G01*
X2710373Y385684D02*
G03*
X2804815Y385684I47221J0D01*
G01*
X2710373Y565636D02*
G03*
X2688866Y587143I-21507J0D01*
G01*
X2963777Y612857D02*
G03*
X2916556Y565636I0J-47221D01*
G01*
X2873542Y385684D02*
G03*
X2916556Y385684I21507J0D01*
G01*
X2873542Y595636D02*
G03*
X2779101Y595636I-47221J0D01*
G01*
X2736087Y385684D02*
G03*
X2779101Y385684I21507J0D01*
G01*
X2736087Y565636D02*
G03*
X2688866Y612857I-47221J0D01*
G01*
X2319643Y809643D02*
X2789049D01*
X2319643Y835357D02*
X2789049D01*
X3051008Y809643D02*
X3079373Y838007D01*
X3014598Y809643D02*
X3051008D01*
X2993091Y749759D02*
Y788136D01*
X2898649Y749759D02*
Y1205539D01*
X2855635Y856864D02*
Y1205539D01*
X2789049Y809643D02*
X2808414D01*
X3079373Y874372D02*
Y874372D01*
X3040357Y835357D02*
X3079373Y874372D01*
X3014598Y835357D02*
X3040357D01*
X2967377Y749759D02*
Y788136D01*
X2924363Y749759D02*
Y1205539D01*
X2829921Y856864D02*
Y1205539D01*
X2789049Y835357D02*
X2808414D01*
X3079373Y838007D02*
X3128508Y887143D01*
X3079373Y874372D02*
X3117857Y912857D01*
X3148883D01*
X3128508Y887143D02*
X3148883D01*
X3156507Y926507D02*
X3180000Y950000D01*
X3148883Y912857D02*
X3156507Y920481D01*
Y926507D01*
X2963777Y587143D02*
X3102500D01*
X2942270Y385684D02*
Y565636D01*
X2847828Y385684D02*
Y595636D01*
X2804815Y385684D02*
Y595636D01*
X2710373Y385684D02*
Y565636D01*
X2600773Y587143D02*
X2688866D01*
X2963777Y612857D02*
X3102500D01*
X2916556Y385684D02*
Y565636D01*
X2873542Y385684D02*
Y595636D01*
X2779101Y385684D02*
Y595636D01*
X2736087Y385684D02*
Y565636D01*
X2600773Y612857D02*
X2688866D01*
X3102500Y587143D02*
X3148883D01*
X2571213D02*
X2600773D01*
X3102500Y612857D02*
X3148883D01*
X2581864D02*
X2600773D01*
X2448713Y709643D02*
X2571213Y587143D01*
X2459364Y735357D02*
X2581864Y612857D01*
X2307500Y797500D02*
X2319643Y809643D01*
X2282500Y797500D02*
X2307500D01*
Y847500D02*
X2319643Y835357D01*
X2282500Y847500D02*
X2307500D01*
X3156507Y873493D02*
X3180000Y850000D01*
X3250000D01*
X3180000Y950000D02*
X3250000D01*
X3148883Y887143D02*
X3156507Y879519D01*
Y873493D02*
Y879519D01*
Y573493D02*
X3180000Y550000D01*
X3156507Y626507D02*
X3180000Y650000D01*
X2412707Y709643D02*
X2412707Y709643D01*
X2448713D01*
X2319643Y709643D02*
X2412707D01*
X2307500Y697500D02*
X2319643Y709643D01*
X2282500Y697500D02*
X2307500D01*
Y747500D02*
X2319643Y735357D01*
X2423358D01*
X2282500Y747500D02*
X2307500D01*
X2423358Y735357D02*
X2423358Y735357D01*
X2459364D01*
X3156507Y620481D02*
Y626507D01*
X3148883Y612857D02*
X3156507Y620481D01*
X3148883Y587143D02*
X3156507Y579520D01*
X3180000Y550000D02*
X3250000D01*
X3156507Y573493D02*
Y579520D01*
X3180000Y650000D02*
X3250000D01*
X2402857Y577857D02*
X2422500Y597500D01*
X2312110Y577857D02*
X2402857D01*
X2322761Y552143D02*
X2402087D01*
X2421730Y532500D01*
X2422500D01*
X3250000Y1150000D02*
X3260651D01*
X3180000D02*
X3250000D01*
X3156507Y1173493D02*
Y1179520D01*
Y1173493D02*
X3180000Y1150000D01*
X2210000Y600000D02*
Y625000D01*
X2197857Y587857D02*
X2210000Y600000D01*
X2289218Y554965D02*
X2312110Y577857D01*
X2205481Y554965D02*
X2289218D01*
X2197857Y562589D02*
Y587857D01*
Y562589D02*
X2205481Y554965D01*
X2160000Y600000D02*
X2172143Y587857D01*
X2160000Y600000D02*
Y625000D01*
X2172143Y551938D02*
Y587857D01*
X2299869Y529251D02*
X2322761Y552143D01*
X2172143Y551938D02*
X2194830Y529251D01*
X2299869D01*
X3156507Y1222981D02*
Y1226507D01*
X3121116Y1189643D02*
X3146384D01*
X3156507Y1226507D02*
X3180000Y1250000D01*
X3101473Y1235000D02*
X3121116Y1215357D01*
X3095000Y1170000D02*
X3101474D01*
X3148883Y1215357D02*
X3156507Y1222981D01*
X3095000Y1235000D02*
X3101473D01*
X3101474Y1170000D02*
X3121116Y1189643D01*
X3180000Y1250000D02*
X3250000D01*
X3121116Y1215357D02*
X3148883D01*
X3146384Y1189643D02*
X3156507Y1179520D01*
D11*
X2007500Y3995000D02*
D03*
X2297500D02*
D03*
Y4224999D02*
D03*
X2007500D02*
D03*
D12*
X2082500Y3772500D02*
D03*
X2272500D02*
D03*
X2082500Y3550000D02*
D03*
X2272500D02*
D03*
D13*
X1640000Y4590000D02*
D03*
Y4420000D02*
D03*
X3267500Y2442501D02*
D03*
Y2272500D02*
D03*
D14*
X1385000Y4585000D02*
D03*
Y4194999D02*
D03*
D15*
X2930000Y2097501D02*
D03*
X3020000D02*
D03*
X1397500Y1645000D02*
D03*
X1307500D02*
D03*
X1367500Y1235000D02*
D03*
X1457500D02*
D03*
X1607500Y405000D02*
D03*
X1517500D02*
D03*
X1327500D02*
D03*
X1417500D02*
D03*
X1470000Y1067500D02*
D03*
X1380000D02*
D03*
X2085000Y1515000D02*
D03*
X1995000D02*
D03*
X1882500Y5027499D02*
D03*
X1972500D02*
D03*
X1637500Y1590000D02*
D03*
X1547500D02*
D03*
X2972500Y3100000D02*
D03*
X2882500D02*
D03*
X1380000Y977500D02*
D03*
X1470000D02*
D03*
X1367500Y1340000D02*
D03*
X1457500D02*
D03*
X2960000Y1850000D02*
D03*
X3050000D02*
D03*
D16*
X1062500Y255000D02*
D03*
Y95000D02*
D03*
X782500D02*
D03*
Y255000D02*
D03*
D17*
X2732500Y4540000D02*
D03*
X2332500D02*
D03*
D18*
X1775000Y2997500D02*
D03*
X1345000D02*
D03*
D19*
X3250000Y1850000D02*
D03*
Y1750000D02*
D03*
Y1650000D02*
D03*
Y1550000D02*
D03*
Y1450000D02*
D03*
Y1350000D02*
D03*
Y1250000D02*
D03*
Y1150000D02*
D03*
Y1050000D02*
D03*
Y950000D02*
D03*
Y850000D02*
D03*
Y750000D02*
D03*
Y650000D02*
D03*
Y550000D02*
D03*
Y450000D02*
D03*
D20*
X3460000Y1950000D02*
D03*
Y350000D02*
D03*
D21*
X992500Y3405000D02*
D03*
D22*
X227500Y2935000D02*
D03*
Y3715000D02*
D03*
X827500Y2935000D02*
D03*
D23*
Y3715000D02*
D03*
D24*
X145000Y3967512D02*
D03*
Y4767510D02*
D03*
D25*
Y4252500D02*
D03*
Y4482497D02*
D03*
D26*
X412487Y4237514D02*
D03*
Y4302513D02*
D03*
Y4367511D02*
D03*
Y4432510D02*
D03*
Y4497508D02*
D03*
D27*
X827500Y2321000D02*
D03*
Y2204000D02*
D03*
X812500Y1321000D02*
D03*
Y1204000D02*
D03*
D28*
X2467500Y4852500D02*
D03*
Y5312500D02*
D03*
D29*
X2937500Y2662501D02*
D03*
X3097500D02*
D03*
D30*
X1012500Y562500D02*
D03*
X822500D02*
D03*
X917500Y362500D02*
D03*
D31*
X1862500Y4270000D02*
D03*
Y4370000D02*
D03*
X1190000Y195000D02*
D03*
Y95000D02*
D03*
X1135000Y482500D02*
D03*
Y382500D02*
D03*
X1197500Y1545000D02*
D03*
Y1645000D02*
D03*
X2207500Y2845000D02*
D03*
Y2945000D02*
D03*
X2635000Y3292500D02*
D03*
Y3392500D02*
D03*
X1660000Y4910000D02*
D03*
Y4810000D02*
D03*
X1330001Y160000D02*
D03*
Y260000D02*
D03*
X1135000Y792500D02*
D03*
Y892500D02*
D03*
X910000Y195000D02*
D03*
Y95000D02*
D03*
X3492500Y3095000D02*
D03*
Y2995000D02*
D03*
X3392501D02*
D03*
Y3095000D02*
D03*
X1762500Y4270000D02*
D03*
Y4370000D02*
D03*
X1267500Y1337500D02*
D03*
Y1237500D02*
D03*
D32*
X3017500Y1992501D02*
D03*
X3117500D02*
D03*
X1302500Y1540000D02*
D03*
X1402500D02*
D03*
X2817500Y2900000D02*
D03*
X2717500D02*
D03*
X3710000Y3245000D02*
D03*
X3610000D02*
D03*
X1875000Y5134999D02*
D03*
X1975000D02*
D03*
X1997500Y1620000D02*
D03*
X2097500D02*
D03*
X1910000Y452500D02*
D03*
X2010000D02*
D03*
X1555000Y4704999D02*
D03*
X1655000D02*
D03*
X2422500Y2610000D02*
D03*
X2322500D02*
D03*
X3610000Y3345000D02*
D03*
X3710000D02*
D03*
X1547500Y1485000D02*
D03*
X1647500D02*
D03*
X932500Y995000D02*
D03*
X832500D02*
D03*
X1135000Y687500D02*
D03*
X1235000D02*
D03*
X1647500Y1695000D02*
D03*
X1547500D02*
D03*
X2322500Y2952500D02*
D03*
X2422500D02*
D03*
X1415000Y787500D02*
D03*
X1315000D02*
D03*
X1845000Y4475000D02*
D03*
X1945000D02*
D03*
X2532500Y2610000D02*
D03*
X2632500D02*
D03*
X3610000Y3145000D02*
D03*
X3710000D02*
D03*
X3710000Y3447500D02*
D03*
X3610000D02*
D03*
X1135000Y587500D02*
D03*
X1235000D02*
D03*
X1867500Y272500D02*
D03*
X1767500D02*
D03*
X932500Y1990000D02*
D03*
X832500D02*
D03*
D33*
X1177500Y1237500D02*
D03*
X1180000Y1337500D02*
D03*
X2747500Y3392500D02*
D03*
D34*
X2882500Y3652500D02*
D03*
Y3587500D02*
D03*
Y3522500D02*
D03*
Y3457500D02*
D03*
Y3392500D02*
D03*
Y3327500D02*
D03*
Y3262500D02*
D03*
Y3197500D02*
D03*
X3462500Y3652500D02*
D03*
Y3587500D02*
D03*
Y3522500D02*
D03*
Y3457500D02*
D03*
Y3392500D02*
D03*
Y3327500D02*
D03*
Y3262500D02*
D03*
Y3197500D02*
D03*
D35*
X2307500Y2855000D02*
D03*
Y2805000D02*
D03*
Y2755000D02*
D03*
Y2705000D02*
D03*
X2612500Y2855000D02*
D03*
Y2805000D02*
D03*
Y2755000D02*
D03*
Y2705000D02*
D03*
D36*
X1935000Y972500D02*
D03*
D37*
X1587500Y697500D02*
D03*
Y747500D02*
D03*
Y797500D02*
D03*
Y847500D02*
D03*
Y897500D02*
D03*
Y947500D02*
D03*
Y997500D02*
D03*
Y1047500D02*
D03*
Y1097500D02*
D03*
Y1147500D02*
D03*
Y1197500D02*
D03*
Y1247500D02*
D03*
X2282500D02*
D03*
Y1197500D02*
D03*
Y1147500D02*
D03*
Y1097500D02*
D03*
Y1047500D02*
D03*
Y997500D02*
D03*
Y947500D02*
D03*
Y897500D02*
D03*
Y847500D02*
D03*
Y797500D02*
D03*
Y747500D02*
D03*
Y697500D02*
D03*
D38*
X1660000Y1320000D02*
D03*
X1710000D02*
D03*
X1760000D02*
D03*
X1810000D02*
D03*
X1860000D02*
D03*
X1910000D02*
D03*
X1960000D02*
D03*
X2010000D02*
D03*
X2060000D02*
D03*
X2110000D02*
D03*
X2160000D02*
D03*
X2210000D02*
D03*
Y625000D02*
D03*
X2160000D02*
D03*
X2110000D02*
D03*
X2060000D02*
D03*
X2010000D02*
D03*
X1960000D02*
D03*
X1910000D02*
D03*
X1860000D02*
D03*
X1810000D02*
D03*
X1760000D02*
D03*
X1710000D02*
D03*
D39*
X1660000D02*
D03*
D40*
X1920000Y4732500D02*
D03*
D41*
X2067500Y4807500D02*
D03*
Y4757500D02*
D03*
Y4707500D02*
D03*
Y4657500D02*
D03*
X1772500D02*
D03*
Y4707500D02*
D03*
Y4757500D02*
D03*
Y4807500D02*
D03*
D42*
X1995000Y4585000D02*
D03*
X1945000D02*
D03*
X1895000D02*
D03*
X1845000D02*
D03*
Y4880000D02*
D03*
X1895000D02*
D03*
X1945000D02*
D03*
X1995000D02*
D03*
D43*
X2927500Y2490001D02*
D03*
X3117500D02*
D03*
Y2230001D02*
D03*
X3022500D02*
D03*
X2927500D02*
D03*
D44*
X152500Y1942500D02*
D03*
X627500D02*
D03*
X152500Y2417500D02*
D03*
X627500D02*
D03*
X152500Y942500D02*
D03*
X627500D02*
D03*
X152500Y1417500D02*
D03*
X627500D02*
D03*
D45*
X390000Y2180000D02*
D03*
Y1180000D02*
D03*
D46*
X1675000Y3361000D02*
D03*
Y3869000D02*
D03*
X1365000Y3615000D02*
D03*
D47*
X1467500Y142500D02*
D03*
X1637500D02*
D03*
X1467500Y272500D02*
D03*
X1637500D02*
D03*
D48*
X952500Y5424000D02*
D03*
Y4916000D02*
D03*
X1262500Y5170000D02*
D03*
D49*
X817500Y782500D02*
D03*
X1017500Y877500D02*
D03*
Y687500D02*
D03*
D50*
X1880000Y1435000D02*
D03*
Y1525000D02*
D03*
X2202500Y2650000D02*
D03*
Y2740000D02*
D03*
X1665000Y5104999D02*
D03*
Y5015000D02*
D03*
X1790000Y1525000D02*
D03*
Y1435000D02*
D03*
X2717500Y2710000D02*
D03*
Y2800000D02*
D03*
D51*
X795000Y4587500D02*
D03*
Y4157500D02*
D03*
D52*
X1850000Y5257500D02*
D03*
X2020000D02*
D03*
X1850000Y5397499D02*
D03*
X2020000D02*
D03*
D53*
X867500Y2402294D02*
Y2405000D01*
X827500Y2321000D02*
X842500Y2336000D01*
Y2377294D01*
X867500Y2402294D01*
X812500Y1321000D02*
X820662Y1329161D01*
Y1395455D01*
X835000Y1409794D01*
Y1412500D01*
X1647500Y1695000D02*
X1722500D01*
X412487Y4237514D02*
X471703D01*
X471888Y4237698D01*
X535199D01*
X412487Y4497508D02*
X531755D01*
X2882500Y3020001D02*
Y3100000D01*
Y3197500D01*
X795000Y4587500D02*
X812500Y4605000D01*
X725000Y5425000D02*
X774497D01*
X975000Y5320000D02*
Y5369497D01*
X915000Y5320000D02*
Y5369497D01*
X855000Y5320000D02*
Y5369497D01*
X796003Y5321003D02*
Y5370500D01*
X866000Y4916000D02*
X952500D01*
D54*
X1790000Y1525000D02*
Y1720000D01*
X1519999Y1990000D02*
X1790000Y1720000D01*
X932500Y1990000D02*
X1519999D01*
X812500Y1180000D02*
X1052500D01*
X830000Y2180000D02*
X1465000D01*
X390000D02*
X830000D01*
X1880000Y1525000D02*
Y1765000D01*
X1465000Y2180000D02*
X1880000Y1765000D01*
X390000Y1180000D02*
X812500D01*
X1165000Y1067500D02*
X1380000D01*
X1052500Y1180000D02*
X1165000Y1067500D01*
X2882501Y3327500D02*
X3271250D01*
X2882500Y3262500D02*
X3327500D01*
X2747500Y3392500D02*
X2882500D01*
X2635000D02*
X2747500D01*
X2780000Y3262500D02*
X2882500D01*
X2757500Y3240000D02*
X2780000Y3262500D01*
X2757500Y3100325D02*
Y3240000D01*
X2717500Y2900000D02*
Y3060325D01*
X2757500Y3100325D01*
X2710000Y3120000D02*
Y3277500D01*
X2542500Y2952500D02*
X2710000Y3120000D01*
Y3277500D02*
X2760000Y3327500D01*
X2882500D01*
X2422500Y2952500D02*
X2542500D01*
X2882500Y3327500D02*
X2882501Y3327500D01*
X3610000Y3345000D02*
Y3447500D01*
X3610000Y3447500D01*
X3610000Y3145000D02*
Y3245000D01*
X3392501Y3095000D02*
X3492500D01*
X3462500Y3197500D02*
X3487881D01*
X3492500Y3192881D01*
Y3095000D02*
Y3192881D01*
X3462500Y3262500D02*
X3587500D01*
X3605000Y3245000D01*
X3610000D01*
X3462500Y3327500D02*
X3587500D01*
X3605000Y3345000D01*
X3610000D01*
D55*
X1455000Y3869000D02*
X1675000D01*
X1072500Y3795000D02*
X1381000D01*
X1455000Y3869000D01*
X1023566Y3746066D02*
X1072500Y3795000D01*
X681620Y4232500D02*
X735000D01*
X676421Y4237698D02*
X681620Y4232500D01*
X535199Y4237698D02*
X676421D01*
X735000Y4232500D02*
X795000Y4172500D01*
Y4157500D02*
Y4172500D01*
X691413Y4512500D02*
X735000D01*
X676421Y4497508D02*
X691413Y4512500D01*
X540132Y4497508D02*
X676421D01*
X795000Y4572500D02*
Y4587500D01*
X735000Y4512500D02*
X795000Y4572500D01*
X2208501Y3361000D02*
X2272500Y3424999D01*
X1995000Y4237500D02*
X2007500Y4224999D01*
Y3995000D02*
Y4224999D01*
X843500Y4916000D02*
X866000D01*
X830000Y4622500D02*
Y4902500D01*
X812500Y4605000D02*
X830000Y4622500D01*
Y4902500D02*
X843500Y4916000D01*
X827500Y3715000D02*
X858566Y3746066D01*
X1023566D01*
X1365000Y3017500D02*
Y3615000D01*
X1345000Y2997500D02*
X1365000Y3017500D01*
X1675000Y3361000D02*
X2208501D01*
X2272500Y3424999D02*
Y3550000D01*
X2047500Y3807500D02*
Y3955000D01*
X2007500Y3995000D02*
X2047500Y3955000D01*
Y3807500D02*
X2082500Y3772500D01*
Y3550000D02*
Y3772500D01*
X2272500Y3550000D02*
Y3772500D01*
X2297500Y3797500D02*
Y3995000D01*
X2272500Y3772500D02*
X2297500Y3797500D01*
Y3995000D02*
Y4224999D01*
Y4505000D02*
X2332500Y4540000D01*
X2297500Y4224999D02*
Y4505000D01*
X2467500Y4852500D02*
X2615000D01*
X2695000Y4772500D01*
Y4577500D02*
Y4772500D01*
Y4577500D02*
X2732500Y4540000D01*
D56*
X3030000Y5330000D02*
Y5507500D01*
X3177500D01*
Y5330000D02*
Y5507500D01*
X3030000Y5330000D02*
X3177500D01*
X3082500Y5450935D02*
X3092022Y5455696D01*
X3106304Y5469978D01*
Y5370000D01*
D57*
X2282500Y1530000D02*
X2790784D01*
X2112500Y1360001D02*
X2282500Y1530000D01*
X2785136Y1535648D02*
X2790784Y1530000D01*
X2785136Y1535648D02*
Y1540075D01*
X2277500Y1475000D02*
X2777500D01*
X2931715Y2027501D02*
X2956716Y2002500D01*
X2930000Y2027501D02*
X2931715D01*
X2930000Y1962500D02*
Y2021250D01*
Y1962500D02*
X2975000Y1917500D01*
X3027500D01*
X3007501Y2002500D02*
X3017500Y1992501D01*
X2956716Y2002500D02*
X3007501D01*
X3252169Y3392500D02*
X3462500D01*
X3252169Y3392500D02*
X3252169Y3392500D01*
X3462500Y3457500D02*
X3462500Y3457500D01*
X3217500Y3457500D02*
X3462500D01*
X3172500Y3522500D02*
X3462500D01*
X3172500Y3522500D02*
X3172500Y3522500D01*
X3460319Y3589681D02*
X3462500Y3587500D01*
X3095000Y3589681D02*
X3460319D01*
X2490000Y1620000D02*
X2631193Y1761193D01*
X2834926Y1587575D02*
X2985001Y1437500D01*
X2765461Y1587575D02*
X2834926D01*
X2752886Y1575000D02*
X2765461Y1587575D01*
X2280000Y1575000D02*
X2752886D01*
X2062500Y1357500D02*
X2280000Y1575000D01*
X2985001Y1437500D02*
X3237500D01*
X2097500Y1620000D02*
X2490000D01*
X2162500Y1360000D02*
X2277500Y1475000D01*
X2062500Y1322500D02*
Y1357500D01*
X2575000Y3457500D02*
X2882500D01*
X2767500Y3652500D02*
X2882500D01*
X2767500Y3587500D02*
X2882500D01*
X2627500Y3522500D02*
X2882500D01*
X2128609Y711110D02*
X2158610D01*
X2162500Y715000D01*
X2112500Y695001D02*
X2128609Y711110D01*
X2112500Y627500D02*
Y695001D01*
X2110000Y625000D02*
X2112500Y627500D01*
X2057500Y537500D02*
X2100000D01*
X2012500Y582499D02*
X2057500Y537500D01*
X2010000Y625000D02*
X2012500Y622500D01*
Y582499D02*
Y622500D01*
X2035000Y707500D02*
X2060000Y682500D01*
Y625000D02*
Y682500D01*
X2077500Y1605000D02*
X2095000Y1622500D01*
X2458284Y1370000D02*
X2485000D01*
X2262500Y1320000D02*
X2267500Y1325000D01*
X2112500Y1322500D02*
Y1360001D01*
X2162500Y1322500D02*
Y1360000D01*
X2210000Y1320000D02*
X2212500Y1322500D01*
X2210000Y1320000D02*
X2262500D01*
X3032500Y1550000D02*
X3250000D01*
X3237500Y1437500D02*
X3250000Y1450000D01*
X2377108Y2537500D02*
X2610000D01*
X2725000Y1825000D02*
Y2422500D01*
X2610000Y2537500D02*
X2725000Y2422500D01*
X2635784Y2566716D02*
X2767500Y2435000D01*
X2635784Y2566716D02*
Y2606716D01*
X2632500Y2610000D02*
X2635784Y2606716D01*
X2725000Y1825000D02*
X2832500Y1717500D01*
X3042500D01*
X2767500Y1837500D02*
Y2435000D01*
Y1837500D02*
X2855000Y1750000D01*
X2627500Y2610000D02*
X2632500D01*
X2325802D02*
X2340802Y2595000D01*
X2322500Y2610000D02*
X2325802D01*
X2340802Y2573805D02*
Y2595000D01*
Y2573805D02*
X2377108Y2537500D01*
X2855000Y1750000D02*
X3250000D01*
X3042500Y1717500D02*
X3110000Y1650000D01*
X3250000D01*
X1960000Y552500D02*
X1965000D01*
X2017500Y500000D01*
X2095000Y367500D02*
Y451391D01*
X2046391Y500000D02*
X2095000Y451391D01*
X2017500Y500000D02*
X2046391D01*
X2032500Y305000D02*
X2095000Y367500D01*
X2032500Y130000D02*
Y305000D01*
X1660000Y465103D02*
X1727584Y397519D01*
X1660000Y465103D02*
Y625000D01*
X1772441Y444586D02*
Y445059D01*
X1710000Y507500D02*
X1772441Y445059D01*
X1710000Y507500D02*
Y567500D01*
X1710000Y567500D01*
Y625000D01*
X1760000Y552500D02*
Y625000D01*
X1547500Y1590000D02*
Y1695000D01*
X1547500Y1485000D02*
Y1590000D01*
X1547500Y1590000D01*
X1567500Y1465000D02*
Y1470000D01*
X1547500Y1485000D02*
X1552500D01*
X1600480Y1432019D02*
X1642019D01*
X1620481Y1384519D02*
X1660000Y1345000D01*
X1615000Y1384519D02*
X1620481D01*
X1552500Y1485000D02*
X1567500Y1470000D01*
Y1465000D02*
X1600480Y1432019D01*
X1197500Y1540000D02*
Y1545000D01*
Y1540000D02*
X1212500Y1525000D01*
X1215000D01*
X1327500Y1412500D01*
X1197500Y1645000D02*
X1307500D01*
Y1545000D02*
Y1645000D01*
X1302500Y1540000D02*
X1307500Y1545000D01*
X1315000Y1480000D02*
X1442500D01*
X1587500Y1335000D01*
Y1247500D02*
Y1335000D01*
X1302500Y1492500D02*
Y1540000D01*
Y1492500D02*
X1315000Y1480000D01*
X2077500Y1600000D02*
Y1605000D01*
X2015000Y1537500D02*
X2077500Y1600000D01*
X2010000Y1537500D02*
X2015000D01*
X1995000Y1522500D02*
X2010000Y1537500D01*
X1995000Y1515000D02*
Y1522500D01*
X1997500Y1620000D02*
Y1750000D01*
X1995000Y1515000D02*
X2015932Y1494068D01*
X2247500Y2805000D02*
X2307500D01*
X2227500Y2825000D02*
X2247500Y2805000D01*
X2222500Y2825000D02*
X2227500D01*
X2207500Y2840000D02*
X2222500Y2825000D01*
X2207500Y2840000D02*
Y2845000D01*
X2705248Y2887748D02*
X2717500Y2900000D01*
X2675255Y2887748D02*
X2705248D01*
X2644420Y2856913D02*
X2675255Y2887748D01*
X2614413Y2856913D02*
X2644420D01*
X2612500Y2855000D02*
X2614413Y2856913D01*
X2612500Y2636716D02*
Y2705000D01*
Y2636716D02*
X2612500Y2636716D01*
Y2625000D02*
Y2636716D01*
Y2625000D02*
X2627500Y2610000D01*
X2322500D02*
Y2700381D01*
X2317881Y2705000D02*
X2322500Y2700381D01*
X2307500Y2705000D02*
X2317881D01*
X1755000Y897500D02*
X1860000D01*
X1037500Y587500D02*
X1135000D01*
X1012500Y562500D02*
X1037500Y587500D01*
X1135000Y482500D02*
Y587500D01*
X1135000Y587500D01*
Y687500D02*
Y792500D01*
X1135000Y792500D01*
X1017500Y687500D02*
X1135000D01*
X1860000Y562500D02*
Y625000D01*
X1945000Y4682500D02*
Y4707499D01*
X1587500Y897500D02*
X1860000D01*
X1235000Y687500D02*
X1307500D01*
X1335000Y715000D01*
X1235000Y587500D02*
X1287500D01*
X1335000Y635000D01*
X1305000Y797500D02*
X1315000Y787500D01*
X1305000Y797500D02*
Y857500D01*
X1335000Y635000D02*
X1380000Y680000D01*
X1335000Y715000D02*
X1497500D01*
X1380000Y680000D02*
X1520000D01*
X1537500Y697500D01*
X1497500Y715000D02*
X1530000Y747500D01*
X1537500Y697500D02*
X1587500D01*
X1530000Y747500D02*
X1587500D01*
X3117500Y1992501D02*
Y2052339D01*
X3137499Y2072338D01*
Y2118670D01*
X3117500Y2138669D02*
X3137499Y2118670D01*
X3117500Y2138669D02*
Y2230001D01*
X1515196Y780000D02*
X1532696Y797500D01*
X1422501Y780000D02*
X1515196D01*
X1415000Y787500D02*
X1422501Y780000D01*
X1502677Y900177D02*
X1550000Y947500D01*
X1587500D01*
X1502677Y899434D02*
Y900177D01*
X1910000Y452500D02*
Y625000D01*
X1910000Y625000D01*
X1532696Y797500D02*
X1587500D01*
X1267500Y1337500D02*
X1267500Y1337500D01*
X1180000Y1337500D02*
X1267500D01*
X1177500Y1237500D02*
X1267500D01*
X1270000Y1235000D02*
X1367500D01*
X1267500Y1237500D02*
X1270000Y1235000D01*
X1270000Y1340000D02*
X1367500D01*
X1267500Y1337500D02*
X1270000Y1340000D01*
X1544342Y1212500D02*
X1548284D01*
X1562500Y1197500D02*
X1587500D01*
X1457500Y1340000D02*
X1472500Y1325000D01*
X1527500Y1229341D02*
X1544342Y1212500D01*
X1560000Y1200000D02*
Y1200784D01*
X1472500Y1312500D02*
Y1325000D01*
Y1312500D02*
X1527500Y1257500D01*
Y1229341D02*
Y1257500D01*
X1548284Y1212500D02*
X1560000Y1200784D01*
Y1200000D02*
X1562500Y1197500D01*
X1480657Y1144668D02*
X1497832D01*
X1457500Y1227500D02*
X1472500Y1212500D01*
X1480000D02*
X1542500Y1150000D01*
X1457500Y1227500D02*
Y1235000D01*
X1472500Y1212500D02*
X1480000D01*
X1542500Y1150000D02*
X1585000D01*
X1587500Y1147500D01*
X1477825D02*
X1480657Y1144668D01*
X1497832D02*
X1545000Y1097500D01*
X1642019Y1432019D02*
X1707637Y1366402D01*
X1866500Y904000D02*
X1935000Y972500D01*
X1860000Y897500D02*
X1866500Y904000D01*
X2011212Y1367554D02*
X2060473Y1416815D01*
Y1436110D01*
X2066214Y1441850D01*
X2060000Y1320000D02*
X2062500Y1322500D01*
X2011212Y1321211D02*
Y1367554D01*
X2015932Y1418235D02*
Y1494068D01*
X2010000Y1320000D02*
X2011212Y1321211D01*
X1962500Y1322500D02*
Y1364804D01*
X1949216Y1409235D02*
X1967761Y1427779D01*
Y1437239D01*
X1962500Y1364804D02*
X2015932Y1418235D01*
X1949216Y1407825D02*
Y1409235D01*
X1910078Y1368687D02*
X1949216Y1407825D01*
X2160000Y1320000D02*
X2162500Y1322500D01*
X2110000Y1320000D02*
X2112500Y1322500D01*
X1960000Y1320000D02*
X1962500Y1322500D01*
X1910000Y1320000D02*
X1910078Y1320078D01*
Y1368687D01*
X1545000Y1097500D02*
X1587500D01*
X1523639Y847500D02*
X1587500D01*
X1660000Y1320000D02*
Y1345000D01*
X1707637Y1322363D02*
Y1366402D01*
Y1322363D02*
X1710000Y1320000D01*
X2282500Y1047500D02*
X2355000D01*
X2282500Y897500D02*
X2355000D01*
X1710000Y1410000D02*
Y1438084D01*
X1710000Y1438084D02*
X1710000Y1438084D01*
Y1410000D02*
X1760000Y1360000D01*
Y1320000D02*
Y1360000D01*
X1960000Y552500D02*
Y625000D01*
X1995000Y4657500D02*
X1995000Y4657499D01*
X1945000Y4475000D02*
Y4585000D01*
X1962500Y4270000D02*
Y4460000D01*
X740000Y4212500D02*
X795000Y4157500D01*
X1330001Y160000D02*
X1467500D01*
Y142500D02*
Y160000D01*
X849503Y5424000D02*
X952500D01*
X796003Y5370500D02*
X849503Y5424000D01*
X795000Y5320000D02*
X796003Y5321003D01*
X3117500Y1992501D02*
X3117500Y1992501D01*
X1862500Y4270000D02*
X1962500D01*
X1945000Y4475000D02*
X1947500D01*
X1962500Y4460000D01*
X1895000Y4707500D02*
X1920000Y4732500D01*
X1970000Y4682500D02*
X1995000Y4657500D01*
X1920000Y4732500D02*
X1945000Y4707499D01*
X1660000Y4805000D02*
Y4810000D01*
Y4805000D02*
X1675000Y4790000D01*
X1680000D01*
X1895000Y4757500D02*
X1920000Y4732500D01*
D58*
X1765001Y5397499D02*
X1850000D01*
Y5257500D02*
Y5397499D01*
X1415000Y2850000D02*
Y2997500D01*
X1275000Y2850000D02*
Y2997500D01*
X827500Y2935000D02*
X1000000D01*
X827500Y2787500D02*
Y2935000D01*
X227500D02*
X402500D01*
X655000D02*
X827500D01*
X1345000Y2850000D02*
Y2997500D01*
X2972500Y3100000D02*
X3042500D01*
X2717500Y2710000D02*
X2790000D01*
X2085000Y1515000D02*
X2152500D01*
X2892500Y1850000D02*
X2960000D01*
X3115000Y450000D02*
X3250000D01*
X3385000D01*
X3250000Y750000D02*
X3385000D01*
X3250000Y1050000D02*
X3385000D01*
X3115000Y750000D02*
X3250000D01*
X1637500Y142500D02*
X1732500D01*
X2202500Y2585000D02*
Y2650000D01*
X1190000Y195000D02*
Y270000D01*
X1017500Y805000D02*
Y877500D01*
X1042500Y892500D02*
X1135000D01*
X1027500Y877500D02*
X1042500Y892500D01*
X1017500Y877500D02*
X1027500D01*
X822500Y562500D02*
X897500D01*
X910000Y195000D02*
Y270000D01*
X1135000Y382500D02*
X1205000D01*
X1552500Y487500D02*
X1578210D01*
X1607500Y405000D02*
Y458210D01*
X1578210Y487500D02*
X1607500Y458210D01*
X3020000Y2097501D02*
X3089999D01*
X2930000Y2027501D02*
Y2097501D01*
X3115000Y1850000D02*
X3182500D01*
X3250000D01*
X3180000Y1852500D02*
X3182500Y1850000D01*
X3180000Y1852500D02*
Y1917500D01*
X3050000Y1850000D02*
X3115000D01*
X3250000D02*
X3385000D01*
X2010000Y390000D02*
Y452500D01*
X1327500Y405000D02*
Y480000D01*
X3250000Y1350000D02*
X3385000D01*
X3115000D02*
X3250000D01*
X3115000Y1050000D02*
X3250000D01*
X1972500Y5001250D02*
Y5027499D01*
X1619363Y5510001D02*
X1968137D01*
X2015000Y5463138D01*
X1572500Y5272500D02*
Y5463138D01*
X1619363Y5510001D01*
X1840000Y2997500D02*
X1940000D01*
X1840000Y2932500D02*
X1940000D01*
X1840000Y3062500D02*
X1940000D01*
X1775000Y2997500D02*
X1840000Y3062500D01*
X1814000Y5027499D02*
X1882500D01*
X1765001Y5257500D02*
X1850000D01*
X870000Y4157500D02*
X960000D01*
X870000Y4082500D02*
X960000D01*
X2927500Y2230001D02*
X2930000Y2227500D01*
Y2097501D02*
Y2227500D01*
X3097500Y2662501D02*
X3112188Y2647813D01*
X3112500Y2495001D02*
Y2555001D01*
X3112188Y2555313D02*
Y2647813D01*
Y2555313D02*
X3112500Y2555001D01*
Y2495001D02*
X3117500Y2490001D01*
X3247501Y2462500D02*
X3267500Y2442501D01*
X3122500Y2462500D02*
X3247501D01*
X3117500Y2467500D02*
X3122500Y2462500D01*
X3020000Y2097501D02*
Y2227500D01*
X3022500Y2230001D01*
Y2327501D01*
X3027500Y2332500D01*
X3166882D02*
X3169383Y2335001D01*
X3027500Y2332500D02*
X3166882D01*
X3169383Y2335001D02*
X3177500D01*
X870000Y4232500D02*
X960000D01*
X795000Y4157500D02*
X870000Y4232500D01*
X992500Y3405000D02*
Y3430000D01*
X1057500Y3495000D01*
X1127500D01*
X992500Y3385000D02*
Y3405000D01*
Y3385000D02*
X1057500Y3320000D01*
X1127500D01*
X992500Y3405000D02*
X1127500D01*
X227500Y3715000D02*
X402500D01*
X2020000Y5257500D02*
Y5397499D01*
X1975000Y5030000D02*
Y5134999D01*
X1972500Y5027499D02*
X1975000Y5030000D01*
Y5134999D02*
X1980000D01*
X1470000Y5170000D02*
X1572500Y5272500D01*
X1262500Y5170000D02*
X1470000D01*
X3205000Y2307501D02*
X3232500D01*
X3177500Y2335001D02*
X3205000Y2307501D01*
X3232500D02*
X3267500Y2272500D01*
X2927500Y2490001D02*
Y2652501D01*
X2937500Y2662501D01*
X1385000Y4194999D02*
Y4287500D01*
X1640000Y4334999D02*
Y4420000D01*
X1762500Y4192500D02*
Y4270000D01*
X2020000Y5180000D02*
Y5257500D01*
X1995000Y5154999D02*
X2020000Y5180000D01*
X1995000Y5149999D02*
Y5154999D01*
X1980000Y5134999D02*
X1995000Y5149999D01*
X1665000Y5104999D02*
X1740000D01*
X1590000Y4810000D02*
X1660000D01*
D59*
X152500Y2417500D02*
Y2555000D01*
X627500Y2417500D02*
Y2555000D01*
X2930000Y2021250D02*
Y2027501D01*
X3027500Y1917500D02*
X3115000D01*
X1067500Y995000D02*
X1067500Y995000D01*
X1380000Y977500D02*
Y985000D01*
X1067500Y995000D02*
X1370000D01*
X1380000Y985000D01*
X932500Y995000D02*
X1067500D01*
X627500Y1807500D02*
Y1942500D01*
X152500Y1807500D02*
Y1942500D01*
X762500Y1990000D02*
X832500D01*
X762500Y1990000D02*
X762500Y1990000D01*
X675000Y1990000D02*
X762500D01*
X627500Y1942500D02*
X675000Y1990000D01*
X762500Y995000D02*
X832500D01*
X762500Y995000D02*
X762500Y995000D01*
X680000Y995000D02*
X762500D01*
X627500Y942500D02*
X680000Y995000D01*
X627500Y807500D02*
Y942500D01*
X152500Y807500D02*
Y942500D01*
X627500Y1417500D02*
Y1555000D01*
X152500Y1417500D02*
Y1555000D01*
X2527500Y3292500D02*
X2635000D01*
X3322500Y2995000D02*
X3392501D01*
X3492500D02*
X3562500D01*
X2717500Y2800000D02*
X2790000D01*
X3462500Y3652500D02*
X3582500D01*
X3710000Y3245000D02*
X3785000D01*
X3710000Y3345000D02*
X3785000D01*
X3710000Y3447500D02*
Y3517500D01*
X3710000Y3075000D02*
Y3145000D01*
X1637500Y1590000D02*
X1641568Y1594069D01*
X1698656D01*
X1709588Y1605000D01*
X1715000D01*
X1647500Y1485000D02*
Y1580000D01*
X1637500Y1590000D02*
X1647500Y1580000D01*
X1397500Y1645000D02*
X1467500D01*
X1467500Y1645000D01*
X1402500Y1540000D02*
Y1640000D01*
X1397500Y1645000D02*
X1402500Y1640000D01*
X2207500Y2950000D02*
X2217500Y2960000D01*
X2224999D01*
X2267500Y3002500D01*
X2207500Y2945000D02*
Y2950000D01*
X2267500Y3002500D02*
Y3007500D01*
Y3002500D02*
X2317500Y2952500D01*
X2322500D01*
X2307500Y2855000D02*
X2390000D01*
X2422500Y2887500D01*
Y2952500D01*
X2657500Y2755000D02*
X2692500Y2720000D01*
X2707500D01*
X2717500Y2710000D01*
X2817500Y2827500D02*
Y2900000D01*
X2790000Y2800000D02*
X2817500Y2827500D01*
X2612500Y2805000D02*
X2712500D01*
X2717500Y2800000D01*
X2612500Y2755000D02*
X2657500D01*
X2422500Y2610000D02*
Y2717500D01*
X2385000Y2755000D02*
X2422500Y2717500D01*
X2307500Y2755000D02*
X2385000D01*
X2422500Y2610000D02*
X2532500D01*
X2127500Y2740000D02*
X2202500D01*
X2217500Y2755000D01*
X2307500D01*
X1637501Y272500D02*
X1767500D01*
X1637500Y272500D02*
X1637501Y272500D01*
X740000Y385000D02*
X782500Y342500D01*
Y255000D02*
Y342500D01*
X740000Y385000D02*
Y675000D01*
X793243Y728243D01*
Y762500D01*
X813243Y782500D02*
X817500D01*
X793243Y762500D02*
X813243Y782500D01*
X1062500Y95000D02*
X1190000D01*
X1062500Y95000D02*
X1062500Y95000D01*
X782500Y95000D02*
X909999D01*
X910000Y95000D01*
X1062500Y255000D02*
Y342500D01*
X1042500Y362500D02*
X1062500Y342500D01*
X917500Y362500D02*
X1042500D01*
X1852500Y300074D02*
Y555000D01*
X1860000Y562500D01*
X1852500Y282500D02*
X1862500Y272500D01*
X1852500Y282500D02*
Y300074D01*
X1852500Y300074D02*
X1852500Y300074D01*
X1862500Y272500D02*
X1867500D01*
X1417500Y405000D02*
Y480000D01*
X1507500Y272500D02*
Y405000D01*
X1517500D01*
X1417500D02*
X1507500D01*
X1330001Y272500D02*
X1467500D01*
X1507500D01*
X1330001Y260000D02*
Y272500D01*
D60*
X1790000Y1435000D02*
X1810000Y1415000D01*
X1860000Y1415000D02*
X1880000Y1435000D01*
X1470000Y1067500D02*
X1490000Y1047500D01*
X1470000Y977500D02*
X1490000Y997500D01*
X1860000Y1320000D02*
Y1415000D01*
X1810000Y1320000D02*
Y1415000D01*
X1490000Y1047500D02*
X1587500D01*
X1490000Y997500D02*
X1587500D01*
X1945000Y4880000D02*
Y4912500D01*
D61*
X1995000Y4237500D02*
Y4585000D01*
X2015000Y5402499D02*
Y5463138D01*
Y5402499D02*
X2020000Y5397499D01*
X2420000Y5265000D02*
X2467500Y5312500D01*
X2020000Y5260000D02*
X2025000Y5265000D01*
X2420000D01*
D62*
X1895000Y4585000D02*
Y4707500D01*
X1772500Y4757500D02*
X1895000D01*
X1945000Y4912500D02*
Y4973750D01*
X1972500Y5001250D01*
X1790563Y4962500D02*
X1877500D01*
X1762500Y4990563D02*
Y5052500D01*
Y4990563D02*
X1790563Y4962500D01*
X1660000Y4910000D02*
X1667509Y4902491D01*
X1877500Y4962500D02*
X1894718Y4945281D01*
X1712509Y4902491D02*
X1767902Y4847097D01*
X1667509Y4902491D02*
X1712509D01*
X1894718Y4912782D02*
Y4945281D01*
Y4912782D02*
X1895000Y4912500D01*
X1683500Y4996500D02*
X1785216Y4894784D01*
X1845000D01*
X1665000Y5015000D02*
X1672500D01*
X1683500Y5004000D01*
Y4996500D02*
Y5004000D01*
X1845000Y4880000D02*
Y4894784D01*
X1767902Y4807500D02*
Y4847097D01*
Y4807500D02*
X1772500D01*
X1945000Y4585000D02*
Y4657500D01*
X1995000Y4707500D02*
X2067500D01*
Y4657500D02*
Y4707500D01*
X1995000Y4585000D02*
Y4657499D01*
X1895000Y4585000D02*
X1945000D01*
X1712500Y4757500D02*
X1772500D01*
X1655000Y4605000D02*
Y4704999D01*
X1640000Y4590000D02*
X1655000Y4605000D01*
X1657500Y4707500D02*
X1772500D01*
X1655000Y4704999D02*
X1657500Y4707500D01*
X1385000Y4585000D02*
X1490000D01*
X1540000Y4635000D01*
Y4690000D01*
X1555000Y4704999D01*
X2067500Y4807500D02*
X2367500D01*
X1762500Y4370000D02*
Y4653804D01*
X1766196Y4657500D01*
X1772500D01*
X1762500Y4370000D02*
X1862500D01*
X1845000Y4475000D02*
Y4585000D01*
X1995000Y4657500D02*
X2067500D01*
X1995000Y4880000D02*
X2035000D01*
X2067500Y4847500D01*
Y4807500D02*
Y4847500D01*
Y4757500D02*
Y4807500D01*
X1832751Y5122751D02*
X1862752D01*
X1875000Y5134999D01*
X1762500Y5052500D02*
X1832751Y5122751D01*
X1895000Y4880000D02*
Y4912500D01*
X1680000Y4790000D02*
X1712500Y4757500D01*
D63*
X1845000Y4912509D02*
D03*
X1895000D02*
D03*
X1945009Y4912500D02*
D03*
X1995009D02*
D03*
X1845010Y4552500D02*
D03*
X1895010D02*
D03*
X1945001Y4552509D02*
D03*
X1995001D02*
D03*
D64*
X1740000Y4807490D02*
D03*
Y4757490D02*
D03*
X1740009Y4707500D02*
D03*
Y4657500D02*
D03*
X2100009Y4807500D02*
D03*
Y4757500D02*
D03*
X2100000Y4707490D02*
D03*
Y4657491D02*
D03*
D65*
X652500Y3385000D02*
D03*
X252500D02*
D03*
D66*
X390008Y4160019D02*
D03*
Y4575004D02*
D03*
D67*
X3310000Y3920000D02*
D03*
X3010000D02*
D03*
X2710000D02*
D03*
X3610000D02*
D03*
X3032500Y1550000D02*
D03*
X2485000Y1370000D02*
D03*
D68*
X3550000Y5250000D02*
D03*
X350000D02*
D03*
X1800000Y2450000D02*
D03*
X350000Y350000D02*
D03*
D69*
X867500Y2405000D02*
D03*
X835000Y1412500D02*
D03*
X2357500Y502500D02*
D03*
Y625000D02*
D03*
X1722500Y1695000D02*
D03*
X2422500Y532500D02*
D03*
Y597500D02*
D03*
X3095000Y1235000D02*
D03*
Y1170000D02*
D03*
X1866500Y792500D02*
D03*
Y904000D02*
D03*
Y1041000D02*
D03*
Y1152500D02*
D03*
X2003500Y792500D02*
D03*
Y904000D02*
D03*
Y1041000D02*
D03*
Y1152500D02*
D03*
X1755000Y904000D02*
D03*
Y1041000D02*
D03*
X2115000Y904000D02*
D03*
Y1041000D02*
D03*
X1920000Y4732500D02*
D03*
X1970000Y4682500D02*
D03*
X1870000Y4682499D02*
D03*
X1870000Y4782499D02*
D03*
X1970000Y4782500D02*
D03*
X2075000Y4372500D02*
D03*
Y4440000D02*
D03*
Y4507500D02*
D03*
Y4575000D02*
D03*
X2777500Y1475000D02*
D03*
X1765001Y5397499D02*
D03*
X152500Y2555000D02*
D03*
X655000Y2935000D02*
D03*
X402500D02*
D03*
X827500Y2787500D02*
D03*
X1000000Y2935000D02*
D03*
X1275000Y2850000D02*
D03*
X627500Y2555000D02*
D03*
X457500Y1675000D02*
D03*
X462500Y2720000D02*
D03*
X330000Y900000D02*
D03*
X332500Y1897500D02*
D03*
X2272500Y3424999D02*
D03*
X2930000Y2021250D02*
D03*
X627500Y1807500D02*
D03*
X152500D02*
D03*
X762500Y1990000D02*
D03*
Y995000D02*
D03*
X627500Y807500D02*
D03*
X152500D02*
D03*
X627500Y1555000D02*
D03*
X152500Y1555000D02*
D03*
X1415000Y2850000D02*
D03*
X1345000D02*
D03*
X3252169Y3392500D02*
D03*
X3271250Y3327500D02*
D03*
X3327500Y3262500D02*
D03*
X3042500Y3100000D02*
D03*
X3217500Y3457500D02*
D03*
X3172500Y3522500D02*
D03*
X3095000Y3589681D02*
D03*
X2790000Y2710000D02*
D03*
X2631193Y1761193D02*
D03*
X2785136Y1540075D02*
D03*
X2152500Y1515000D02*
D03*
X2882500Y3020001D02*
D03*
X2527500Y3292500D02*
D03*
X2575000Y3457500D02*
D03*
X2767500Y3652500D02*
D03*
Y3587500D02*
D03*
X2627500Y3522500D02*
D03*
X3192500Y2665000D02*
D03*
X3257500Y2600000D02*
D03*
X3322500Y2995000D02*
D03*
X3562500D02*
D03*
X2162500Y715000D02*
D03*
X2100000Y537500D02*
D03*
X2035000Y707500D02*
D03*
X2790000Y2800000D02*
D03*
X1335000Y715000D02*
D03*
X2696146Y958854D02*
D03*
X2695000Y1050000D02*
D03*
X2262500Y1320000D02*
D03*
X3582500Y3652500D02*
D03*
X3785000Y3245000D02*
D03*
X3785000Y3345000D02*
D03*
X3710000Y3517500D02*
D03*
X3710000Y3075000D02*
D03*
X2892500Y1850000D02*
D03*
X3257500Y2535000D02*
D03*
X3192500Y2600000D02*
D03*
Y2535000D02*
D03*
X3385000Y450000D02*
D03*
Y750000D02*
D03*
X3115000Y450000D02*
D03*
X3385000Y1050000D02*
D03*
X3115000Y750000D02*
D03*
X2282500Y350000D02*
D03*
X2032500Y130000D02*
D03*
X1727584Y397519D02*
D03*
X1732500Y142500D02*
D03*
X1772441Y444586D02*
D03*
X1760000Y552500D02*
D03*
X1615000Y1384519D02*
D03*
X1997500Y1750000D02*
D03*
X1715000Y1605000D02*
D03*
X2267500Y3007500D02*
D03*
X2202500Y2585000D02*
D03*
X2127500Y2740000D02*
D03*
X1190000Y270000D02*
D03*
X1017500Y805000D02*
D03*
X897500Y562500D02*
D03*
X910000Y270000D02*
D03*
X1205000Y382500D02*
D03*
X1552500Y487500D02*
D03*
X1335000Y635000D02*
D03*
X1427500Y632500D02*
D03*
X3089999Y2097501D02*
D03*
X3180000Y1917500D02*
D03*
X3115000Y1850000D02*
D03*
Y1917500D02*
D03*
X3385000Y1850000D02*
D03*
X1502456Y834435D02*
D03*
X1502677Y899434D02*
D03*
X2010000Y390000D02*
D03*
X1960000Y345000D02*
D03*
X1327500Y480000D02*
D03*
X1477825Y1147500D02*
D03*
X1305000Y857500D02*
D03*
X1685000Y715000D02*
D03*
X1467500Y1645000D02*
D03*
X1327500Y1412500D02*
D03*
X2066214Y1441850D02*
D03*
X1967761Y1437239D02*
D03*
X3385000Y1350000D02*
D03*
X3115000D02*
D03*
Y1050000D02*
D03*
X1940000Y2997500D02*
D03*
Y2932500D02*
D03*
Y3062500D02*
D03*
X1955000Y3735000D02*
D03*
Y3670000D02*
D03*
Y3605000D02*
D03*
Y3540000D02*
D03*
X2355000Y1047500D02*
D03*
X2355000Y897500D02*
D03*
X1710000Y1438084D02*
D03*
X1960000Y552500D02*
D03*
X1814000Y5027499D02*
D03*
X1765001Y5257500D02*
D03*
X960000Y4157500D02*
D03*
Y4082500D02*
D03*
Y4232500D02*
D03*
X1127500Y3495000D02*
D03*
Y3320000D02*
D03*
X1127500Y3405000D02*
D03*
X402500Y3715000D02*
D03*
X1417500Y480000D02*
D03*
X795000Y5320000D02*
D03*
X725000Y5425000D02*
D03*
X975000Y5320000D02*
D03*
X915000D02*
D03*
X855000D02*
D03*
X3177500Y2335001D02*
D03*
X3022500Y2327501D02*
D03*
X1385000Y4287500D02*
D03*
X1640000Y4334999D02*
D03*
X1762500Y4192500D02*
D03*
X1740000Y5104999D02*
D03*
X1590000Y4810000D02*
D03*
%TF.MD5,f82d9f5e77c45724acb02d9b978c1166*%
M02*
