%TF.GenerationSoftware,Altium Limited,Altium Designer,20.1.12 (249)*%
G04 Layer_Color=32768*
%FSLAX45Y45*%
%MOMM*%
%TF.SameCoordinates,4EE8302A-A9A8-49E0-93C5-14594FCB678D*%
%TF.FilePolarity,Positive*%
%TF.FileFunction,Other,M11_-_Assy_RefDes*%
%TF.Part,Single*%
G01*
G75*
%TA.AperFunction,NonConductor*%
%ADD134C,0.07000*%
%ADD135C,0.09000*%
%ADD136C,0.05000*%
%ADD137C,0.10000*%
D134*
X3005011Y2079178D02*
X3008343Y2072513D01*
X3015009Y2065848D01*
X3021674Y2062515D01*
X3035005D01*
X3041670Y2065848D01*
X3048335Y2072513D01*
X3051668Y2079178D01*
X3055000Y2089176D01*
Y2105839D01*
X3051668Y2115837D01*
X3048335Y2122502D01*
X3041670Y2129168D01*
X3035005Y2132500D01*
X3021674D01*
X3015009Y2129168D01*
X3008343Y2122502D01*
X3005011Y2115837D01*
X2945357Y2062515D02*
X2978683D01*
X2982016Y2092509D01*
X2978683Y2089176D01*
X2968685Y2085844D01*
X2958687D01*
X2948690Y2089176D01*
X2942024Y2095842D01*
X2938692Y2105839D01*
Y2112505D01*
X2942024Y2122502D01*
X2948690Y2129168D01*
X2958687Y2132500D01*
X2968685D01*
X2978683Y2129168D01*
X2982016Y2125835D01*
X2985348Y2119170D01*
X2876371Y2062515D02*
X2909698Y2132500D01*
X2923028Y2062515D02*
X2876371D01*
X862485Y2342500D02*
X792500D01*
Y2302508D01*
X862485Y2278180D02*
X859152Y2288178D01*
X852487Y2291511D01*
X845822D01*
X839157Y2288178D01*
X835824Y2281513D01*
X832492Y2268182D01*
X829159Y2258185D01*
X822494Y2251519D01*
X815828Y2248187D01*
X805830D01*
X799165Y2251519D01*
X795833Y2254852D01*
X792500Y2264850D01*
Y2278180D01*
X795833Y2288178D01*
X799165Y2291511D01*
X805830Y2294844D01*
X815828D01*
X822494Y2291511D01*
X829159Y2284846D01*
X832492Y2274848D01*
X835824Y2261517D01*
X839157Y2254852D01*
X845822Y2251519D01*
X852487D01*
X859152Y2254852D01*
X862485Y2264850D01*
Y2278180D01*
X1382511Y1626678D02*
X1385843Y1620013D01*
X1392509Y1613348D01*
X1399174Y1610015D01*
X1412504D01*
X1419170Y1613348D01*
X1425835Y1620013D01*
X1429167Y1626678D01*
X1432500Y1636676D01*
Y1653339D01*
X1429167Y1663337D01*
X1425835Y1670002D01*
X1419170Y1676667D01*
X1412504Y1680000D01*
X1399174D01*
X1392509Y1676667D01*
X1385843Y1670002D01*
X1382511Y1663337D01*
X1356183Y1610015D02*
X1319524D01*
X1339520Y1636676D01*
X1329522D01*
X1322857Y1640008D01*
X1319524Y1643341D01*
X1316191Y1653339D01*
Y1660004D01*
X1319524Y1670002D01*
X1326189Y1676667D01*
X1336187Y1680000D01*
X1346185D01*
X1356183Y1676667D01*
X1359515Y1673335D01*
X1362848Y1666670D01*
X1253871Y1610015D02*
X1287198Y1680000D01*
X1300528Y1610015D02*
X1253871D01*
X1861678Y1449989D02*
X1855013Y1446657D01*
X1848348Y1439992D01*
X1845015Y1433326D01*
Y1419996D01*
X1848348Y1413330D01*
X1855013Y1406665D01*
X1861678Y1403333D01*
X1871676Y1400000D01*
X1888339D01*
X1898337Y1403333D01*
X1905002Y1406665D01*
X1911667Y1413330D01*
X1915000Y1419996D01*
Y1433326D01*
X1911667Y1439992D01*
X1905002Y1446657D01*
X1898337Y1449989D01*
X1858345Y1469652D02*
X1855013Y1476317D01*
X1845015Y1486315D01*
X1915000D01*
X1845015Y1567631D02*
X1915000Y1534305D01*
X1845015Y1520974D02*
Y1567631D01*
X1382489Y1253322D02*
X1379157Y1259987D01*
X1372492Y1266653D01*
X1365826Y1269985D01*
X1352496D01*
X1345830Y1266653D01*
X1339165Y1259987D01*
X1335833Y1253322D01*
X1332500Y1243324D01*
Y1226661D01*
X1335833Y1216663D01*
X1339165Y1209998D01*
X1345830Y1203333D01*
X1352496Y1200000D01*
X1365826D01*
X1372492Y1203333D01*
X1379157Y1209998D01*
X1382489Y1216663D01*
X1435478Y1269985D02*
X1402152Y1223329D01*
X1452141D01*
X1435478Y1269985D02*
Y1200000D01*
X1464472Y1256655D02*
X1471137Y1259987D01*
X1481135Y1269985D01*
Y1200000D01*
X847485Y1342500D02*
X777500D01*
Y1302508D01*
X847485Y1261517D02*
X800828Y1294843D01*
Y1244854D01*
X847485Y1261517D02*
X777500D01*
X1592511Y386678D02*
X1595843Y380013D01*
X1602509Y373347D01*
X1609174Y370015D01*
X1622505D01*
X1629170Y373347D01*
X1635835Y380013D01*
X1639167Y386678D01*
X1642500Y396676D01*
Y413339D01*
X1639167Y423337D01*
X1635835Y430002D01*
X1629170Y436667D01*
X1622505Y440000D01*
X1609174D01*
X1602509Y436667D01*
X1595843Y430002D01*
X1592511Y423337D01*
X1569516Y386678D02*
Y383345D01*
X1566183Y376680D01*
X1562850Y373347D01*
X1556185Y370015D01*
X1542855D01*
X1536189Y373347D01*
X1532857Y376680D01*
X1529524Y383345D01*
Y390010D01*
X1532857Y396676D01*
X1539522Y406674D01*
X1572848Y440000D01*
X1526192D01*
X2184178Y2664990D02*
X2177513Y2661657D01*
X2170847Y2654992D01*
X2167515Y2648326D01*
Y2634996D01*
X2170847Y2628331D01*
X2177513Y2621665D01*
X2184178Y2618333D01*
X2194176Y2615000D01*
X2210839D01*
X2220837Y2618333D01*
X2227502Y2621665D01*
X2234167Y2628331D01*
X2237500Y2634996D01*
Y2648326D01*
X2234167Y2654992D01*
X2227502Y2661657D01*
X2220837Y2664990D01*
X2167515Y2724644D02*
Y2691317D01*
X2197508Y2687985D01*
X2194176Y2691317D01*
X2190843Y2701315D01*
Y2711313D01*
X2194176Y2721311D01*
X2200841Y2727976D01*
X2210839Y2731309D01*
X2217504D01*
X2227502Y2727976D01*
X2234167Y2721311D01*
X2237500Y2711313D01*
Y2701315D01*
X2234167Y2691317D01*
X2230835Y2687985D01*
X2224169Y2684652D01*
X1683322Y5090010D02*
X1689987Y5093343D01*
X1696653Y5100008D01*
X1699985Y5106673D01*
Y5120004D01*
X1696653Y5126669D01*
X1689987Y5133334D01*
X1683322Y5136667D01*
X1673324Y5140000D01*
X1656661D01*
X1646663Y5136667D01*
X1639998Y5133334D01*
X1633333Y5126669D01*
X1630000Y5120004D01*
Y5106673D01*
X1633333Y5100008D01*
X1639998Y5093343D01*
X1646663Y5090010D01*
X1699985Y5030356D02*
Y5063683D01*
X1669992Y5067015D01*
X1673324Y5063683D01*
X1676657Y5053685D01*
Y5043687D01*
X1673324Y5033689D01*
X1666659Y5027024D01*
X1656661Y5023691D01*
X1649996D01*
X1639998Y5027024D01*
X1633333Y5033689D01*
X1630000Y5043687D01*
Y5053685D01*
X1633333Y5063683D01*
X1636666Y5067015D01*
X1643331Y5070348D01*
X1699985Y4974701D02*
X1653329Y5008028D01*
Y4958038D01*
X1699985Y4974701D02*
X1630000D01*
X1342489Y423322D02*
X1339157Y429987D01*
X1332491Y436652D01*
X1325826Y439985D01*
X1312495D01*
X1305830Y436652D01*
X1299165Y429987D01*
X1295833Y423322D01*
X1292500Y413324D01*
Y396661D01*
X1295833Y386663D01*
X1299165Y379998D01*
X1305830Y373333D01*
X1312495Y370000D01*
X1325826D01*
X1332491Y373333D01*
X1339157Y379998D01*
X1342489Y386663D01*
X1362152Y426655D02*
X1368817Y429987D01*
X1378815Y439985D01*
Y370000D01*
X1455011Y1049178D02*
X1458343Y1042513D01*
X1465009Y1035848D01*
X1471674Y1032515D01*
X1485004D01*
X1491670Y1035848D01*
X1498335Y1042513D01*
X1501667Y1049178D01*
X1505000Y1059176D01*
Y1075839D01*
X1501667Y1085837D01*
X1498335Y1092502D01*
X1491670Y1099167D01*
X1485004Y1102500D01*
X1471674D01*
X1465009Y1099167D01*
X1458343Y1092502D01*
X1455011Y1085837D01*
X1435348Y1045845D02*
X1428683Y1042513D01*
X1418685Y1032515D01*
Y1102500D01*
X1344034Y1032515D02*
X1377360D01*
X1380693Y1062508D01*
X1377360Y1059176D01*
X1367363Y1055843D01*
X1357365D01*
X1347367Y1059176D01*
X1340702Y1065841D01*
X1337369Y1075839D01*
Y1082504D01*
X1340702Y1092502D01*
X1347367Y1099167D01*
X1357365Y1102500D01*
X1367363D01*
X1377360Y1099167D01*
X1380693Y1095835D01*
X1384026Y1089170D01*
X2070011Y1496678D02*
X2073343Y1490013D01*
X2080009Y1483348D01*
X2086674Y1480015D01*
X2100004D01*
X2106670Y1483348D01*
X2113335Y1490013D01*
X2116667Y1496678D01*
X2120000Y1506676D01*
Y1523339D01*
X2116667Y1533337D01*
X2113335Y1540002D01*
X2106670Y1546667D01*
X2100004Y1550000D01*
X2086674D01*
X2080009Y1546667D01*
X2073343Y1540002D01*
X2070011Y1533337D01*
X2043683Y1480015D02*
X2007024D01*
X2027020Y1506676D01*
X2017022D01*
X2010357Y1510008D01*
X2007024Y1513341D01*
X2003691Y1523339D01*
Y1530004D01*
X2007024Y1540002D01*
X2013689Y1546667D01*
X2023687Y1550000D01*
X2033685D01*
X2043683Y1546667D01*
X2047015Y1543335D01*
X2050348Y1536670D01*
X1981363Y1480015D02*
X1944704D01*
X1964700Y1506676D01*
X1954702D01*
X1948036Y1510008D01*
X1944704Y1513341D01*
X1941371Y1523339D01*
Y1530004D01*
X1944704Y1540002D01*
X1951369Y1546667D01*
X1961367Y1550000D01*
X1971365D01*
X1981363Y1546667D01*
X1984695Y1543335D01*
X1988028Y1536670D01*
X1897489Y5045822D02*
X1894157Y5052487D01*
X1887492Y5059152D01*
X1880826Y5062485D01*
X1867496D01*
X1860830Y5059152D01*
X1854165Y5052487D01*
X1850833Y5045822D01*
X1847500Y5035824D01*
Y5019161D01*
X1850833Y5009163D01*
X1854165Y5002497D01*
X1860830Y4995832D01*
X1867496Y4992500D01*
X1880826D01*
X1887492Y4995832D01*
X1894157Y5002497D01*
X1897489Y5009163D01*
X1957143Y5062485D02*
X1923817D01*
X1920485Y5032491D01*
X1923817Y5035824D01*
X1933815Y5039156D01*
X1943813D01*
X1953811Y5035824D01*
X1960476Y5029158D01*
X1963809Y5019161D01*
Y5012495D01*
X1960476Y5002497D01*
X1953811Y4995832D01*
X1943813Y4992500D01*
X1933815D01*
X1923817Y4995832D01*
X1920485Y4999165D01*
X1917152Y5005830D01*
X1986137Y5062485D02*
X2022796D01*
X2002800Y5035824D01*
X2012798D01*
X2019464Y5032491D01*
X2022796Y5029158D01*
X2026129Y5019161D01*
Y5012495D01*
X2022796Y5002497D01*
X2016131Y4995832D01*
X2006133Y4992500D01*
X1996135D01*
X1986137Y4995832D01*
X1982805Y4999165D01*
X1979472Y5005830D01*
X1622511Y1571678D02*
X1625843Y1565013D01*
X1632509Y1558348D01*
X1639174Y1555015D01*
X1652504D01*
X1659170Y1558348D01*
X1665835Y1565013D01*
X1669167Y1571678D01*
X1672500Y1581676D01*
Y1598339D01*
X1669167Y1608337D01*
X1665835Y1615002D01*
X1659170Y1621667D01*
X1652504Y1625000D01*
X1639174D01*
X1632509Y1621667D01*
X1625843Y1615002D01*
X1622511Y1608337D01*
X1596183Y1555015D02*
X1559524D01*
X1579520Y1581676D01*
X1569522D01*
X1562857Y1585009D01*
X1559524Y1588341D01*
X1556191Y1598339D01*
Y1605004D01*
X1559524Y1615002D01*
X1566189Y1621667D01*
X1576187Y1625000D01*
X1586185D01*
X1596183Y1621667D01*
X1599515Y1618335D01*
X1602848Y1611670D01*
X1523865Y1555015D02*
X1533863Y1558348D01*
X1537195Y1565013D01*
Y1571678D01*
X1533863Y1578343D01*
X1527198Y1581676D01*
X1513867Y1585009D01*
X1503869Y1588341D01*
X1497204Y1595006D01*
X1493871Y1601672D01*
Y1611670D01*
X1497204Y1618335D01*
X1500536Y1621667D01*
X1510534Y1625000D01*
X1523865D01*
X1533863Y1621667D01*
X1537195Y1618335D01*
X1540528Y1611670D01*
Y1601672D01*
X1537195Y1595006D01*
X1530530Y1588341D01*
X1520532Y1585009D01*
X1507202Y1581676D01*
X1500536Y1578343D01*
X1497204Y1571678D01*
Y1565013D01*
X1500536Y1558348D01*
X1510534Y1555015D01*
X1523865D01*
X1808322Y1510011D02*
X1814987Y1513343D01*
X1821652Y1520009D01*
X1824985Y1526674D01*
Y1540005D01*
X1821652Y1546670D01*
X1814987Y1553335D01*
X1808322Y1556667D01*
X1798324Y1560000D01*
X1781661D01*
X1771663Y1556667D01*
X1764998Y1553335D01*
X1758333Y1546670D01*
X1755000Y1540005D01*
Y1526674D01*
X1758333Y1520009D01*
X1764998Y1513343D01*
X1771663Y1510011D01*
X1811655Y1490348D02*
X1814987Y1483683D01*
X1824985Y1473685D01*
X1755000D01*
X1824985Y1422363D02*
X1821652Y1432361D01*
X1814987Y1435693D01*
X1808322D01*
X1801657Y1432361D01*
X1798324Y1425695D01*
X1794992Y1412365D01*
X1791659Y1402367D01*
X1784994Y1395702D01*
X1778328Y1392369D01*
X1768330D01*
X1761665Y1395702D01*
X1758333Y1399034D01*
X1755000Y1409032D01*
Y1422363D01*
X1758333Y1432361D01*
X1761665Y1435693D01*
X1768330Y1439026D01*
X1778328D01*
X1784994Y1435693D01*
X1791659Y1429028D01*
X1794992Y1419030D01*
X1798324Y1405699D01*
X1801657Y1399034D01*
X1808322Y1395702D01*
X1814987D01*
X1821652Y1399034D01*
X1824985Y1409032D01*
Y1422363D01*
X2699178Y2724989D02*
X2692513Y2721657D01*
X2685847Y2714992D01*
X2682515Y2708326D01*
Y2694996D01*
X2685847Y2688330D01*
X2692513Y2681665D01*
X2699178Y2678333D01*
X2709176Y2675000D01*
X2725839D01*
X2735837Y2678333D01*
X2742502Y2681665D01*
X2749167Y2688330D01*
X2752500Y2694996D01*
Y2708326D01*
X2749167Y2714992D01*
X2742502Y2721657D01*
X2735837Y2724989D01*
X2692513Y2784643D02*
X2685847Y2781311D01*
X2682515Y2771313D01*
Y2764648D01*
X2685847Y2754650D01*
X2695845Y2747985D01*
X2712508Y2744652D01*
X2729171D01*
X2742502Y2747985D01*
X2749167Y2754650D01*
X2752500Y2764648D01*
Y2767980D01*
X2749167Y2777978D01*
X2742502Y2784643D01*
X2732504Y2787976D01*
X2729171D01*
X2719173Y2784643D01*
X2712508Y2777978D01*
X2709176Y2767980D01*
Y2764648D01*
X2712508Y2754650D01*
X2719173Y2747985D01*
X2729171Y2744652D01*
X2957511Y3081678D02*
X2960844Y3075013D01*
X2967509Y3068347D01*
X2974174Y3065015D01*
X2987505D01*
X2994170Y3068347D01*
X3000835Y3075013D01*
X3004168Y3081678D01*
X3007500Y3091676D01*
Y3108339D01*
X3004168Y3118337D01*
X3000835Y3125002D01*
X2994170Y3131667D01*
X2987505Y3135000D01*
X2974174D01*
X2967509Y3131667D01*
X2960844Y3125002D01*
X2957511Y3118337D01*
X2931183Y3065015D02*
X2894525D01*
X2914520Y3091676D01*
X2904522D01*
X2897857Y3095008D01*
X2894525Y3098341D01*
X2891192Y3108339D01*
Y3115004D01*
X2894525Y3125002D01*
X2901190Y3131667D01*
X2911187Y3135000D01*
X2921185D01*
X2931183Y3131667D01*
X2934516Y3128335D01*
X2937849Y3121669D01*
X1394989Y995822D02*
X1391657Y1002487D01*
X1384991Y1009152D01*
X1378326Y1012485D01*
X1364995D01*
X1358330Y1009152D01*
X1351665Y1002487D01*
X1348333Y995822D01*
X1345000Y985824D01*
Y969161D01*
X1348333Y959163D01*
X1351665Y952498D01*
X1358330Y945833D01*
X1364995Y942500D01*
X1378326D01*
X1384991Y945833D01*
X1391657Y952498D01*
X1394989Y959163D01*
X1414652Y999155D02*
X1421317Y1002487D01*
X1431315Y1012485D01*
Y942500D01*
X1505966Y1002487D02*
X1502633Y1009152D01*
X1492635Y1012485D01*
X1485970D01*
X1475972Y1009152D01*
X1469307Y999155D01*
X1465974Y982492D01*
Y965828D01*
X1469307Y952498D01*
X1475972Y945833D01*
X1485970Y942500D01*
X1489303D01*
X1499301Y945833D01*
X1505966Y952498D01*
X1509298Y962496D01*
Y965828D01*
X1505966Y975826D01*
X1499301Y982492D01*
X1489303Y985824D01*
X1485970D01*
X1475972Y982492D01*
X1469307Y975826D01*
X1465974Y965828D01*
X1382490Y1358322D02*
X1379157Y1364987D01*
X1372492Y1371653D01*
X1365827Y1374985D01*
X1352496D01*
X1345831Y1371653D01*
X1339165Y1364987D01*
X1335833Y1358322D01*
X1332500Y1348324D01*
Y1331661D01*
X1335833Y1321663D01*
X1339165Y1314998D01*
X1345831Y1308333D01*
X1352496Y1305000D01*
X1365827D01*
X1372492Y1308333D01*
X1379157Y1314998D01*
X1382490Y1321663D01*
X1408817Y1374985D02*
X1445476D01*
X1425481Y1348324D01*
X1435478D01*
X1442144Y1344992D01*
X1445476Y1341659D01*
X1448809Y1331661D01*
Y1324996D01*
X1445476Y1314998D01*
X1438811Y1308333D01*
X1428813Y1305000D01*
X1418815D01*
X1408817Y1308333D01*
X1405485Y1311665D01*
X1402152Y1318331D01*
X1504464Y1364987D02*
X1501131Y1371653D01*
X1491133Y1374985D01*
X1484468D01*
X1474470Y1371653D01*
X1467805Y1361655D01*
X1464472Y1344992D01*
Y1328329D01*
X1467805Y1314998D01*
X1474470Y1308333D01*
X1484468Y1305000D01*
X1487801D01*
X1497799Y1308333D01*
X1504464Y1314998D01*
X1507796Y1324996D01*
Y1328329D01*
X1504464Y1338327D01*
X1497799Y1344992D01*
X1487801Y1348324D01*
X1484468D01*
X1474470Y1344992D01*
X1467805Y1338327D01*
X1464472Y1328329D01*
X2974989Y1868322D02*
X2971657Y1874987D01*
X2964992Y1881653D01*
X2958326Y1884985D01*
X2944996D01*
X2938330Y1881653D01*
X2931665Y1874987D01*
X2928333Y1868322D01*
X2925000Y1858324D01*
Y1841661D01*
X2928333Y1831663D01*
X2931665Y1824998D01*
X2938330Y1818333D01*
X2944996Y1815000D01*
X2958326D01*
X2964992Y1818333D01*
X2971657Y1824998D01*
X2974989Y1831663D01*
X3027978Y1884985D02*
X2994652Y1838329D01*
X3044641D01*
X3027978Y1884985D02*
Y1815000D01*
D135*
X1616443Y4439272D02*
X1607874Y4434987D01*
X1599304Y4426417D01*
X1595019Y4417848D01*
Y4400708D01*
X1599304Y4392139D01*
X1607874Y4383569D01*
X1616443Y4379284D01*
X1629297Y4375000D01*
X1650722D01*
X1663576Y4379284D01*
X1672145Y4383569D01*
X1680715Y4392139D01*
X1685000Y4400708D01*
Y4417848D01*
X1680715Y4426417D01*
X1672145Y4434987D01*
X1663576Y4439272D01*
X1595019Y4515969D02*
Y4473122D01*
X1633582Y4468837D01*
X1629297Y4473122D01*
X1625013Y4485976D01*
Y4498830D01*
X1629297Y4511685D01*
X1637867Y4520254D01*
X1650722Y4524539D01*
X1659291D01*
X1672145Y4520254D01*
X1680715Y4511685D01*
X1685000Y4498830D01*
Y4485976D01*
X1680715Y4473122D01*
X1676430Y4468837D01*
X1667861Y4464552D01*
X1595019Y4596095D02*
Y4553247D01*
X1633582Y4548962D01*
X1629297Y4553247D01*
X1625013Y4566102D01*
Y4578956D01*
X1629297Y4591810D01*
X1637867Y4600380D01*
X1650722Y4604665D01*
X1659291D01*
X1672145Y4600380D01*
X1680715Y4591810D01*
X1685000Y4578956D01*
Y4566102D01*
X1680715Y4553247D01*
X1676430Y4548962D01*
X1667861Y4544678D01*
X3243943Y2291772D02*
X3235374Y2287488D01*
X3226804Y2278918D01*
X3222519Y2270349D01*
Y2253209D01*
X3226804Y2244640D01*
X3235374Y2236070D01*
X3243943Y2231785D01*
X3256798Y2227500D01*
X3278222D01*
X3291076Y2231785D01*
X3299646Y2236070D01*
X3308215Y2244640D01*
X3312500Y2253209D01*
Y2270349D01*
X3308215Y2278918D01*
X3299646Y2287488D01*
X3291076Y2291772D01*
X3222519Y2368470D02*
Y2325622D01*
X3261083Y2321337D01*
X3256798Y2325622D01*
X3252513Y2338477D01*
Y2351331D01*
X3256798Y2364186D01*
X3265367Y2372755D01*
X3278222Y2377040D01*
X3286791D01*
X3299646Y2372755D01*
X3308215Y2364186D01*
X3312500Y2351331D01*
Y2338477D01*
X3308215Y2325622D01*
X3303930Y2321337D01*
X3295361Y2317053D01*
X3222519Y2418602D02*
X3226804Y2405748D01*
X3235374Y2401463D01*
X3243943D01*
X3252513Y2405748D01*
X3256798Y2414318D01*
X3261083Y2431457D01*
X3265367Y2444311D01*
X3273937Y2452881D01*
X3282507Y2457166D01*
X3295361D01*
X3303930Y2452881D01*
X3308215Y2448596D01*
X3312500Y2435742D01*
Y2418602D01*
X3308215Y2405748D01*
X3303930Y2401463D01*
X3295361Y2397179D01*
X3282507D01*
X3273937Y2401463D01*
X3265367Y2410033D01*
X3261083Y2422887D01*
X3256798Y2440027D01*
X3252513Y2448596D01*
X3243943Y2452881D01*
X3235374D01*
X3226804Y2448596D01*
X3222519Y2435742D01*
Y2418602D01*
X1869272Y5281056D02*
X1864987Y5289626D01*
X1856418Y5298196D01*
X1847848Y5302480D01*
X1830709D01*
X1822139Y5298196D01*
X1813570Y5289626D01*
X1809285Y5281056D01*
X1805000Y5268202D01*
Y5246778D01*
X1809285Y5233923D01*
X1813570Y5225354D01*
X1822139Y5216784D01*
X1830709Y5212500D01*
X1847848D01*
X1856418Y5216784D01*
X1864987Y5225354D01*
X1869272Y5233923D01*
X1945970Y5302480D02*
X1903122D01*
X1898837Y5263917D01*
X1903122Y5268202D01*
X1915976Y5272487D01*
X1928831D01*
X1941685Y5268202D01*
X1950255Y5259632D01*
X1954540Y5246778D01*
Y5238208D01*
X1950255Y5225354D01*
X1941685Y5216784D01*
X1928831Y5212500D01*
X1915976D01*
X1903122Y5216784D01*
X1898837Y5221069D01*
X1894552Y5229639D01*
X1974678Y5285341D02*
X1983248Y5289626D01*
X1996102Y5302480D01*
Y5212500D01*
X1869272Y5421056D02*
X1864987Y5429626D01*
X1856418Y5438196D01*
X1847848Y5442480D01*
X1830709D01*
X1822139Y5438196D01*
X1813570Y5429626D01*
X1809285Y5421056D01*
X1805000Y5408202D01*
Y5386778D01*
X1809285Y5373923D01*
X1813570Y5365354D01*
X1822139Y5356784D01*
X1830709Y5352500D01*
X1847848D01*
X1856418Y5356784D01*
X1864987Y5365354D01*
X1869272Y5373923D01*
X1945970Y5442480D02*
X1903122D01*
X1898837Y5403917D01*
X1903122Y5408202D01*
X1915976Y5412487D01*
X1928831D01*
X1941685Y5408202D01*
X1950255Y5399632D01*
X1954540Y5386778D01*
Y5378208D01*
X1950255Y5365354D01*
X1941685Y5356784D01*
X1928831Y5352500D01*
X1915976D01*
X1903122Y5356784D01*
X1898837Y5361069D01*
X1894552Y5369639D01*
X1978963Y5421056D02*
Y5425341D01*
X1983248Y5433911D01*
X1987533Y5438196D01*
X1996102Y5442480D01*
X2013242D01*
X2021811Y5438196D01*
X2026096Y5433911D01*
X2030381Y5425341D01*
Y5416771D01*
X2026096Y5408202D01*
X2017526Y5395348D01*
X1974678Y5352500D01*
X2034665D01*
D136*
X1837511Y4227500D02*
X1887500D01*
X1837511D02*
Y4248923D01*
X1839891Y4256065D01*
X1842272Y4258445D01*
X1847033Y4260826D01*
X1851794D01*
X1856555Y4258445D01*
X1858935Y4256065D01*
X1861315Y4248923D01*
Y4227500D01*
Y4244163D02*
X1887500Y4260826D01*
X1837511Y4295818D02*
X1870837Y4272014D01*
Y4307720D01*
X1837511Y4295818D02*
X1887500D01*
X1849413Y4318909D02*
X1847033D01*
X1842272Y4321289D01*
X1839891Y4323669D01*
X1837511Y4328430D01*
Y4337952D01*
X1839891Y4342713D01*
X1842272Y4345093D01*
X1847033Y4347474D01*
X1851794D01*
X1856555Y4345093D01*
X1863696Y4340332D01*
X1887500Y4316528D01*
Y4349854D01*
X2975000Y2017490D02*
Y1967501D01*
Y2017490D02*
X2996424D01*
X3003566Y2015109D01*
X3005946Y2012729D01*
X3008326Y2007968D01*
Y2003207D01*
X3005946Y1998446D01*
X3003566Y1996066D01*
X2996424Y1993685D01*
X2975000D01*
X2991664D02*
X3008326Y1967501D01*
X3043319Y2017490D02*
X3019515Y1984164D01*
X3055221D01*
X3043319Y2017490D02*
Y1967501D01*
X3068790Y2017490D02*
X3094975D01*
X3080692Y1998446D01*
X3087833D01*
X3092594Y1996066D01*
X3094975Y1993685D01*
X3097355Y1986544D01*
Y1981783D01*
X3094975Y1974642D01*
X3090214Y1969881D01*
X3083072Y1967501D01*
X3075931D01*
X3068790Y1969881D01*
X3066409Y1972261D01*
X3064029Y1977022D01*
X1445000Y1515011D02*
Y1565000D01*
Y1515011D02*
X1423576D01*
X1416435Y1517391D01*
X1414054Y1519772D01*
X1411674Y1524532D01*
Y1529293D01*
X1414054Y1534054D01*
X1416435Y1536435D01*
X1423576Y1538815D01*
X1445000D01*
X1428337D02*
X1411674Y1565000D01*
X1395725Y1515011D02*
X1369540D01*
X1383822Y1534054D01*
X1376681D01*
X1371920Y1536435D01*
X1369540Y1538815D01*
X1367160Y1545957D01*
Y1550717D01*
X1369540Y1557859D01*
X1374301Y1562619D01*
X1381442Y1565000D01*
X1388583D01*
X1395725Y1562619D01*
X1398105Y1560239D01*
X1400486Y1555478D01*
X1355971Y1524532D02*
X1351210Y1522152D01*
X1344069Y1515011D01*
Y1565000D01*
X1165011Y52500D02*
X1215000D01*
X1165011D02*
Y73924D01*
X1167391Y81065D01*
X1169772Y83446D01*
X1174532Y85826D01*
X1179293D01*
X1184054Y83446D01*
X1186435Y81065D01*
X1188815Y73924D01*
Y52500D01*
Y69163D02*
X1215000Y85826D01*
X1174532Y97014D02*
X1172152Y101775D01*
X1165011Y108916D01*
X1215000D01*
X1172152Y162238D02*
X1167391Y159858D01*
X1165011Y152716D01*
Y147956D01*
X1167391Y140814D01*
X1174532Y136054D01*
X1186435Y133673D01*
X1198337D01*
X1207859Y136054D01*
X1212619Y140814D01*
X1215000Y147956D01*
Y150336D01*
X1212619Y157477D01*
X1207859Y162238D01*
X1200717Y164619D01*
X1198337D01*
X1191195Y162238D01*
X1186435Y157477D01*
X1184054Y150336D01*
Y147956D01*
X1186435Y140814D01*
X1191195Y136054D01*
X1198337Y133673D01*
X1110011Y340000D02*
X1160000D01*
X1110011D02*
Y361424D01*
X1112391Y368565D01*
X1114772Y370946D01*
X1119532Y373326D01*
X1124293D01*
X1129054Y370946D01*
X1131435Y368565D01*
X1133815Y361424D01*
Y340000D01*
Y356663D02*
X1160000Y373326D01*
X1121913Y386895D02*
X1119532D01*
X1114772Y389275D01*
X1112391Y391656D01*
X1110011Y396417D01*
Y405938D01*
X1112391Y410699D01*
X1114772Y413080D01*
X1119532Y415460D01*
X1124293D01*
X1129054Y413080D01*
X1136196Y408319D01*
X1160000Y384514D01*
Y417840D01*
X1119532Y429029D02*
X1117152Y433790D01*
X1110011Y440931D01*
X1160000D01*
X1222489Y1687500D02*
X1172500D01*
X1222489D02*
Y1666076D01*
X1220109Y1658935D01*
X1217728Y1656554D01*
X1212968Y1654174D01*
X1208207D01*
X1203446Y1656554D01*
X1201065Y1658935D01*
X1198685Y1666076D01*
Y1687500D01*
Y1670837D02*
X1172500Y1654174D01*
X1210587Y1640605D02*
X1212968D01*
X1217728Y1638225D01*
X1220109Y1635845D01*
X1222489Y1631084D01*
Y1621562D01*
X1220109Y1616801D01*
X1217728Y1614420D01*
X1212968Y1612040D01*
X1208207D01*
X1203446Y1614420D01*
X1196304Y1619181D01*
X1172500Y1642986D01*
Y1609660D01*
X1222489Y1586569D02*
X1220109Y1593711D01*
X1215348Y1596091D01*
X1210587D01*
X1205826Y1593711D01*
X1203446Y1588950D01*
X1201065Y1579428D01*
X1198685Y1572287D01*
X1193924Y1567526D01*
X1189163Y1565145D01*
X1182022D01*
X1177261Y1567526D01*
X1174881Y1569906D01*
X1172500Y1577048D01*
Y1586569D01*
X1174881Y1593711D01*
X1177261Y1596091D01*
X1182022Y1598472D01*
X1189163D01*
X1193924Y1596091D01*
X1198685Y1591330D01*
X1201065Y1584189D01*
X1203446Y1574667D01*
X1205826Y1569906D01*
X1210587Y1567526D01*
X1215348D01*
X1220109Y1569906D01*
X1222489Y1577048D01*
Y1586569D01*
X2232489Y2987500D02*
X2182500D01*
X2232489D02*
Y2966076D01*
X2230109Y2958935D01*
X2227728Y2956554D01*
X2222967Y2954174D01*
X2218206D01*
X2213445Y2956554D01*
X2211065Y2958935D01*
X2208685Y2966076D01*
Y2987500D01*
Y2970837D02*
X2182500Y2954174D01*
X2222967Y2942986D02*
X2225348Y2938225D01*
X2232489Y2931084D01*
X2182500D01*
X2232489Y2882523D02*
X2199163Y2906327D01*
Y2870620D01*
X2232489Y2882523D02*
X2182500D01*
X2675000Y2924989D02*
Y2875000D01*
Y2924989D02*
X2696424D01*
X2703565Y2922609D01*
X2705945Y2920228D01*
X2708326Y2915467D01*
Y2910706D01*
X2705945Y2905945D01*
X2703565Y2903565D01*
X2696424Y2901185D01*
X2675000D01*
X2691663D02*
X2708326Y2875000D01*
X2719514Y2915467D02*
X2724275Y2917848D01*
X2731416Y2924989D01*
Y2875000D01*
X2770455Y2924989D02*
X2763314Y2922609D01*
X2758553Y2915467D01*
X2756173Y2903565D01*
Y2896424D01*
X2758553Y2884522D01*
X2763314Y2877380D01*
X2770455Y2875000D01*
X2775216D01*
X2782358Y2877380D01*
X2787118Y2884522D01*
X2789499Y2896424D01*
Y2903565D01*
X2787118Y2915467D01*
X2782358Y2922609D01*
X2775216Y2924989D01*
X2770455D01*
X3567500Y3269989D02*
Y3220000D01*
Y3269989D02*
X3588924D01*
X3596065Y3267608D01*
X3598446Y3265228D01*
X3600826Y3260467D01*
Y3255706D01*
X3598446Y3250945D01*
X3596065Y3248565D01*
X3588924Y3246185D01*
X3567500D01*
X3584163D02*
X3600826Y3220000D01*
X3640580Y3269989D02*
X3616775D01*
X3614395Y3248565D01*
X3616775Y3250945D01*
X3623917Y3253326D01*
X3631058D01*
X3638199Y3250945D01*
X3642960Y3246185D01*
X3645340Y3239043D01*
Y3234282D01*
X3642960Y3227141D01*
X3638199Y3222380D01*
X3631058Y3220000D01*
X3623917D01*
X3616775Y3222380D01*
X3614395Y3224761D01*
X3612014Y3229521D01*
X2659989Y3435000D02*
X2610000D01*
X2659989D02*
Y3413576D01*
X2657609Y3406435D01*
X2655228Y3404054D01*
X2650468Y3401674D01*
X2645707D01*
X2640946Y3404054D01*
X2638565Y3406435D01*
X2636185Y3413576D01*
Y3435000D01*
Y3418337D02*
X2610000Y3401674D01*
X2659989Y3385725D02*
Y3359540D01*
X2640946Y3373823D01*
Y3366681D01*
X2638565Y3361920D01*
X2636185Y3359540D01*
X2629044Y3357160D01*
X2624283D01*
X2617141Y3359540D01*
X2612381Y3364301D01*
X2610000Y3371442D01*
Y3378584D01*
X2612381Y3385725D01*
X2614761Y3388105D01*
X2619522Y3390486D01*
X1635011Y4767500D02*
X1685000D01*
X1635011D02*
Y4788924D01*
X1637391Y4796065D01*
X1639772Y4798445D01*
X1644533Y4800826D01*
X1649294D01*
X1654055Y4798445D01*
X1656435Y4796065D01*
X1658815Y4788924D01*
Y4767500D01*
Y4784163D02*
X1685000Y4800826D01*
X1635011Y4835818D02*
X1668337Y4812014D01*
Y4847721D01*
X1635011Y4835818D02*
X1685000D01*
X1644533Y4856528D02*
X1642152Y4861289D01*
X1635011Y4868430D01*
X1685000D01*
X2017500Y5110010D02*
Y5160000D01*
Y5110010D02*
X1996076D01*
X1988935Y5112391D01*
X1986555Y5114771D01*
X1984174Y5119532D01*
Y5124293D01*
X1986555Y5129054D01*
X1988935Y5131434D01*
X1996076Y5133815D01*
X2017500D01*
X2000837D02*
X1984174Y5160000D01*
X1968225Y5110010D02*
X1942040D01*
X1956323Y5129054D01*
X1949182D01*
X1944421Y5131434D01*
X1942040Y5133815D01*
X1939660Y5140956D01*
Y5145717D01*
X1942040Y5152858D01*
X1946801Y5157619D01*
X1953942Y5160000D01*
X1961084D01*
X1968225Y5157619D01*
X1970605Y5155239D01*
X1972986Y5150478D01*
X1895146Y5110010D02*
X1918950Y5160000D01*
X1928472Y5110010D02*
X1895146D01*
X1354990Y302500D02*
X1305000D01*
X1354990D02*
Y281076D01*
X1352609Y273934D01*
X1350229Y271554D01*
X1345468Y269174D01*
X1340707D01*
X1335946Y271554D01*
X1333566Y273934D01*
X1331185Y281076D01*
Y302500D01*
Y285837D02*
X1305000Y269174D01*
X1343087Y255605D02*
X1345468D01*
X1350229Y253225D01*
X1352609Y250844D01*
X1354990Y246083D01*
Y236562D01*
X1352609Y231801D01*
X1350229Y229420D01*
X1345468Y227040D01*
X1340707D01*
X1335946Y229420D01*
X1328805Y234181D01*
X1305000Y257986D01*
Y224659D01*
X2140000Y1595011D02*
Y1645000D01*
Y1595011D02*
X2118576D01*
X2111435Y1597391D01*
X2109054Y1599772D01*
X2106674Y1604532D01*
Y1609293D01*
X2109054Y1614054D01*
X2111435Y1616435D01*
X2118576Y1618815D01*
X2140000D01*
X2123337D02*
X2106674Y1645000D01*
X2093105Y1606913D02*
Y1604532D01*
X2090725Y1599772D01*
X2088345Y1597391D01*
X2083584Y1595011D01*
X2074062D01*
X2069301Y1597391D01*
X2066920Y1599772D01*
X2064540Y1604532D01*
Y1609293D01*
X2066920Y1614054D01*
X2071681Y1621196D01*
X2095486Y1645000D01*
X2062160D01*
X2017645Y1595011D02*
X2041450Y1645000D01*
X2050972Y1595011D02*
X2017645D01*
X1159989Y935000D02*
X1110000D01*
X1159989D02*
Y913576D01*
X1157609Y906435D01*
X1155228Y904054D01*
X1150468Y901674D01*
X1145707D01*
X1140946Y904054D01*
X1138565Y906435D01*
X1136185Y913576D01*
Y935000D01*
Y918337D02*
X1110000Y901674D01*
X1148087Y888105D02*
X1150468D01*
X1155228Y885725D01*
X1157609Y883344D01*
X1159989Y878583D01*
Y869062D01*
X1157609Y864301D01*
X1155228Y861920D01*
X1150468Y859540D01*
X1145707D01*
X1140946Y861920D01*
X1133804Y866681D01*
X1110000Y890486D01*
Y857160D01*
X1159989Y831689D02*
X1157609Y838830D01*
X1150468Y843591D01*
X1138565Y845971D01*
X1131424D01*
X1119522Y843591D01*
X1112381Y838830D01*
X1110000Y831689D01*
Y826928D01*
X1112381Y819787D01*
X1119522Y815026D01*
X1131424Y812645D01*
X1138565D01*
X1150468Y815026D01*
X1157609Y819787D01*
X1159989Y826928D01*
Y831689D01*
X2052500Y427511D02*
Y477500D01*
Y427511D02*
X2031076D01*
X2023935Y429891D01*
X2021555Y432272D01*
X2019174Y437032D01*
Y441793D01*
X2021555Y446554D01*
X2023935Y448935D01*
X2031076Y451315D01*
X2052500D01*
X2035837D02*
X2019174Y477500D01*
X2003225Y427511D02*
X1977040D01*
X1991323Y446554D01*
X1984181D01*
X1979420Y448935D01*
X1977040Y451315D01*
X1974660Y458457D01*
Y463217D01*
X1977040Y470359D01*
X1981801Y475119D01*
X1988942Y477500D01*
X1996084D01*
X2003225Y475119D01*
X2005605Y472739D01*
X2007986Y467978D01*
X1934906Y427511D02*
X1958711D01*
X1961091Y448935D01*
X1958711Y446554D01*
X1951569Y444174D01*
X1944428D01*
X1937287Y446554D01*
X1932526Y451315D01*
X1930145Y458457D01*
Y463217D01*
X1932526Y470359D01*
X1937287Y475119D01*
X1944428Y477500D01*
X1951569D01*
X1958711Y475119D01*
X1961091Y472739D01*
X1963472Y467978D01*
X1697500Y4680010D02*
Y4730000D01*
Y4680010D02*
X1676076D01*
X1668935Y4682391D01*
X1666554Y4684771D01*
X1664174Y4689532D01*
Y4694293D01*
X1666554Y4699054D01*
X1668935Y4701434D01*
X1676076Y4703815D01*
X1697500D01*
X1680837D02*
X1664174Y4730000D01*
X1648225Y4680010D02*
X1622040D01*
X1636323Y4699054D01*
X1629181D01*
X1624420Y4701434D01*
X1622040Y4703815D01*
X1619660Y4710956D01*
Y4715717D01*
X1622040Y4722858D01*
X1626801Y4727619D01*
X1633942Y4730000D01*
X1641084D01*
X1648225Y4727619D01*
X1650605Y4725239D01*
X1652986Y4720478D01*
X1577526Y4696674D02*
X1579906Y4703815D01*
X1584667Y4708576D01*
X1591808Y4710956D01*
X1594189D01*
X1601330Y4708576D01*
X1606091Y4703815D01*
X1608472Y4696674D01*
Y4694293D01*
X1606091Y4687152D01*
X1601330Y4682391D01*
X1594189Y4680010D01*
X1591808D01*
X1584667Y4682391D01*
X1579906Y4687152D01*
X1577526Y4696674D01*
Y4708576D01*
X1579906Y4720478D01*
X1584667Y4727619D01*
X1591808Y4730000D01*
X1596569D01*
X1603711Y4727619D01*
X1606091Y4722858D01*
X2280000Y2634989D02*
Y2585000D01*
Y2634989D02*
X2301424D01*
X2308565Y2632609D01*
X2310945Y2630228D01*
X2313326Y2625467D01*
Y2620706D01*
X2310945Y2615945D01*
X2308565Y2613565D01*
X2301424Y2611185D01*
X2280000D01*
X2296663D02*
X2313326Y2585000D01*
X2324514Y2625467D02*
X2329275Y2627848D01*
X2336416Y2634989D01*
Y2585000D01*
X2363553Y2623087D02*
Y2625467D01*
X2365934Y2630228D01*
X2368314Y2632609D01*
X2373075Y2634989D01*
X2382597D01*
X2387358Y2632609D01*
X2389738Y2630228D01*
X2392118Y2625467D01*
Y2620706D01*
X2389738Y2615945D01*
X2384977Y2608804D01*
X2361173Y2585000D01*
X2394499D01*
X3752500Y3320011D02*
Y3370000D01*
Y3320011D02*
X3731076D01*
X3723935Y3322391D01*
X3721555Y3324772D01*
X3719174Y3329532D01*
Y3334293D01*
X3721555Y3339054D01*
X3723935Y3341435D01*
X3731076Y3343815D01*
X3752500D01*
X3735837D02*
X3719174Y3370000D01*
X3677040Y3336674D02*
X3679421Y3343815D01*
X3684182Y3348576D01*
X3691323Y3350956D01*
X3693703D01*
X3700845Y3348576D01*
X3705605Y3343815D01*
X3707986Y3336674D01*
Y3334293D01*
X3705605Y3327152D01*
X3700845Y3322391D01*
X3693703Y3320011D01*
X3691323D01*
X3684182Y3322391D01*
X3679421Y3327152D01*
X3677040Y3336674D01*
Y3348576D01*
X3679421Y3360478D01*
X3684182Y3367619D01*
X3691323Y3370000D01*
X3696084D01*
X3703225Y3367619D01*
X3705605Y3362859D01*
X885011Y52500D02*
X935000D01*
X885011D02*
Y73924D01*
X887391Y81065D01*
X889772Y83446D01*
X894532Y85826D01*
X899293D01*
X904054Y83446D01*
X906435Y81065D01*
X908815Y73924D01*
Y52500D01*
Y69163D02*
X935000Y85826D01*
X894532Y97014D02*
X892152Y101775D01*
X885011Y108916D01*
X935000D01*
X885011Y162238D02*
Y138434D01*
X906435Y136054D01*
X904054Y138434D01*
X901674Y145575D01*
Y152716D01*
X904054Y159858D01*
X908815Y164619D01*
X915957Y166999D01*
X920717D01*
X927859Y164619D01*
X932619Y159858D01*
X935000Y152716D01*
Y145575D01*
X932619Y138434D01*
X930239Y136054D01*
X925478Y133673D01*
X1690000Y1460011D02*
Y1510000D01*
Y1460011D02*
X1668576D01*
X1661435Y1462391D01*
X1659054Y1464772D01*
X1656674Y1469532D01*
Y1474293D01*
X1659054Y1479054D01*
X1661435Y1481435D01*
X1668576Y1483815D01*
X1690000D01*
X1673337D02*
X1656674Y1510000D01*
X1640725Y1460011D02*
X1614540D01*
X1628822Y1479054D01*
X1621681D01*
X1616920Y1481435D01*
X1614540Y1483815D01*
X1612160Y1490957D01*
Y1495717D01*
X1614540Y1502859D01*
X1619301Y1507620D01*
X1626442Y1510000D01*
X1633583D01*
X1640725Y1507620D01*
X1643105Y1505239D01*
X1645486Y1500478D01*
X1598591Y1471913D02*
Y1469532D01*
X1596210Y1464772D01*
X1593830Y1462391D01*
X1589069Y1460011D01*
X1579548D01*
X1574787Y1462391D01*
X1572406Y1464772D01*
X1570026Y1469532D01*
Y1474293D01*
X1572406Y1479054D01*
X1577167Y1486196D01*
X1600971Y1510000D01*
X1567645D01*
X790000Y1019989D02*
Y970000D01*
Y1019989D02*
X811424D01*
X818565Y1017609D01*
X820946Y1015228D01*
X823326Y1010468D01*
Y1005707D01*
X820946Y1000946D01*
X818565Y998565D01*
X811424Y996185D01*
X790000D01*
X806663D02*
X823326Y970000D01*
X836895Y1008087D02*
Y1010468D01*
X839275Y1015228D01*
X841655Y1017609D01*
X846416Y1019989D01*
X855938D01*
X860699Y1017609D01*
X863080Y1015228D01*
X865460Y1010468D01*
Y1005707D01*
X863080Y1000946D01*
X858319Y993804D01*
X834514Y970000D01*
X867840D01*
X883789Y1019989D02*
X909974D01*
X895692Y1000946D01*
X902833D01*
X907594Y998565D01*
X909974Y996185D01*
X912355Y989043D01*
Y984283D01*
X909974Y977141D01*
X905213Y972381D01*
X898072Y970000D01*
X890931D01*
X883789Y972381D01*
X881409Y974761D01*
X879028Y979522D01*
X1277500Y662511D02*
Y712500D01*
Y662511D02*
X1256076D01*
X1248935Y664891D01*
X1246555Y667272D01*
X1244174Y672033D01*
Y676794D01*
X1246555Y681555D01*
X1248935Y683935D01*
X1256076Y686315D01*
X1277500D01*
X1260837D02*
X1244174Y712500D01*
X1232986Y672033D02*
X1228225Y669652D01*
X1221084Y662511D01*
Y712500D01*
X1184425Y662511D02*
X1191566Y664891D01*
X1193947Y669652D01*
Y674413D01*
X1191566Y679174D01*
X1186805Y681555D01*
X1177284Y683935D01*
X1170142Y686315D01*
X1165381Y691076D01*
X1163001Y695837D01*
Y702979D01*
X1165381Y707739D01*
X1167762Y710120D01*
X1174903Y712500D01*
X1184425D01*
X1191566Y710120D01*
X1193947Y707739D01*
X1196327Y702979D01*
Y695837D01*
X1193947Y691076D01*
X1189186Y686315D01*
X1182044Y683935D01*
X1172523Y681555D01*
X1167762Y679174D01*
X1165381Y674413D01*
Y669652D01*
X1167762Y664891D01*
X1174903Y662511D01*
X1184425D01*
X1505000Y1719989D02*
Y1670000D01*
Y1719989D02*
X1526424D01*
X1533565Y1717609D01*
X1535946Y1715228D01*
X1538326Y1710467D01*
Y1705707D01*
X1535946Y1700946D01*
X1533565Y1698565D01*
X1526424Y1696185D01*
X1505000D01*
X1521663D02*
X1538326Y1670000D01*
X1551895Y1708087D02*
Y1710467D01*
X1554275Y1715228D01*
X1556656Y1717609D01*
X1561416Y1719989D01*
X1570938D01*
X1575699Y1717609D01*
X1578080Y1715228D01*
X1580460Y1710467D01*
Y1705707D01*
X1578080Y1700946D01*
X1573319Y1693804D01*
X1549514Y1670000D01*
X1582840D01*
X1624974Y1703326D02*
X1622594Y1696185D01*
X1617833Y1691424D01*
X1610692Y1689043D01*
X1608311D01*
X1601170Y1691424D01*
X1596409Y1696185D01*
X1594029Y1703326D01*
Y1705707D01*
X1596409Y1712848D01*
X1601170Y1717609D01*
X1608311Y1719989D01*
X1610692D01*
X1617833Y1717609D01*
X1622594Y1712848D01*
X1624974Y1703326D01*
Y1691424D01*
X1622594Y1679522D01*
X1617833Y1672380D01*
X1610692Y1670000D01*
X1605931D01*
X1598790Y1672380D01*
X1596409Y1677141D01*
X2465000Y2927511D02*
Y2977500D01*
Y2927511D02*
X2443576D01*
X2436435Y2929892D01*
X2434054Y2932272D01*
X2431674Y2937033D01*
Y2941794D01*
X2434054Y2946555D01*
X2436435Y2948935D01*
X2443576Y2951315D01*
X2465000D01*
X2448337D02*
X2431674Y2977500D01*
X2420486Y2937033D02*
X2415725Y2934652D01*
X2408583Y2927511D01*
Y2977500D01*
X2383827Y2937033D02*
X2379066Y2934652D01*
X2371925Y2927511D01*
Y2977500D01*
X3467511Y2952500D02*
X3517500D01*
X3467511D02*
Y2973924D01*
X3469891Y2981065D01*
X3472272Y2983445D01*
X3477033Y2985826D01*
X3481794D01*
X3486555Y2983445D01*
X3488935Y2981065D01*
X3491315Y2973924D01*
Y2952500D01*
Y2969163D02*
X3517500Y2985826D01*
X3467511Y3030340D02*
X3517500Y3006536D01*
X3467511Y2997014D02*
Y3030340D01*
X3417490Y3137500D02*
X3367501D01*
X3417490D02*
Y3116076D01*
X3415109Y3108935D01*
X3412729Y3106554D01*
X3407968Y3104174D01*
X3403207D01*
X3398446Y3106554D01*
X3396066Y3108935D01*
X3393685Y3116076D01*
Y3137500D01*
Y3120837D02*
X3367501Y3104174D01*
X3417490Y3069181D02*
X3384164Y3092986D01*
Y3057279D01*
X3417490Y3069181D02*
X3367501D01*
X1787489Y4412500D02*
X1737500D01*
X1787489D02*
Y4391076D01*
X1785109Y4383934D01*
X1782728Y4381554D01*
X1777967Y4379174D01*
X1773207D01*
X1768446Y4381554D01*
X1766065Y4383934D01*
X1763685Y4391076D01*
Y4412500D01*
Y4395837D02*
X1737500Y4379174D01*
X1787489Y4363224D02*
Y4337040D01*
X1768446Y4351322D01*
Y4344181D01*
X1766065Y4339420D01*
X1763685Y4337040D01*
X1756543Y4334659D01*
X1751783D01*
X1744641Y4337040D01*
X1739880Y4341801D01*
X1737500Y4348942D01*
Y4356083D01*
X1739880Y4363224D01*
X1742261Y4365605D01*
X1747022Y4367985D01*
X1787489Y4311569D02*
X1785109Y4318710D01*
X1780348Y4321091D01*
X1775587D01*
X1770826Y4318710D01*
X1768446Y4313949D01*
X1766065Y4304428D01*
X1763685Y4297286D01*
X1758924Y4292526D01*
X1754163Y4290145D01*
X1747022D01*
X1742261Y4292526D01*
X1739880Y4294906D01*
X1737500Y4302047D01*
Y4311569D01*
X1739880Y4318710D01*
X1742261Y4321091D01*
X1747022Y4323471D01*
X1754163D01*
X1758924Y4321091D01*
X1763685Y4316330D01*
X1766065Y4309188D01*
X1768446Y4299667D01*
X1770826Y4294906D01*
X1775587Y4292526D01*
X1780348D01*
X1785109Y4294906D01*
X1787489Y4302047D01*
Y4311569D01*
X1242511Y1195000D02*
X1292500D01*
X1242511D02*
Y1216424D01*
X1244891Y1223565D01*
X1247272Y1225946D01*
X1252033Y1228326D01*
X1256794D01*
X1261554Y1225946D01*
X1263935Y1223565D01*
X1266315Y1216424D01*
Y1195000D01*
Y1211663D02*
X1292500Y1228326D01*
X1242511Y1244275D02*
Y1270460D01*
X1261554Y1256178D01*
Y1263319D01*
X1263935Y1268080D01*
X1266315Y1270460D01*
X1273457Y1272840D01*
X1278217D01*
X1285359Y1270460D01*
X1290120Y1265699D01*
X1292500Y1258558D01*
Y1251417D01*
X1290120Y1244275D01*
X1287739Y1241895D01*
X1282978Y1239514D01*
X1242511Y1298311D02*
X1244891Y1291170D01*
X1252033Y1286409D01*
X1263935Y1284029D01*
X1271076D01*
X1282978Y1286409D01*
X1290120Y1291170D01*
X1292500Y1298311D01*
Y1303072D01*
X1290120Y1310214D01*
X1282978Y1314974D01*
X1271076Y1317355D01*
X1263935D01*
X1252033Y1314974D01*
X1244891Y1310214D01*
X1242511Y1303072D01*
Y1298311D01*
X1272500Y812489D02*
Y762500D01*
Y812489D02*
X1293924D01*
X1301065Y810109D01*
X1303446Y807728D01*
X1305826Y802968D01*
Y798207D01*
X1303446Y793446D01*
X1301065Y791065D01*
X1293924Y788685D01*
X1272500D01*
X1289163D02*
X1305826Y762500D01*
X1321775Y812489D02*
X1347960D01*
X1333678Y793446D01*
X1340819D01*
X1345580Y791065D01*
X1347960Y788685D01*
X1350340Y781544D01*
Y776783D01*
X1347960Y769641D01*
X1343199Y764881D01*
X1336058Y762500D01*
X1328917D01*
X1321775Y764881D01*
X1319395Y767261D01*
X1317014Y772022D01*
X1390094Y805348D02*
X1387714Y810109D01*
X1380572Y812489D01*
X1375811D01*
X1368670Y810109D01*
X1363909Y802968D01*
X1361529Y791065D01*
Y779163D01*
X1363909Y769641D01*
X1368670Y764881D01*
X1375811Y762500D01*
X1378192D01*
X1385333Y764881D01*
X1390094Y769641D01*
X1392474Y776783D01*
Y779163D01*
X1390094Y786304D01*
X1385333Y791065D01*
X1378192Y793446D01*
X1375811D01*
X1368670Y791065D01*
X1363909Y786304D01*
X1361529Y779163D01*
X1987500Y4450011D02*
Y4500000D01*
Y4450011D02*
X1966076D01*
X1958935Y4452391D01*
X1956555Y4454772D01*
X1954174Y4459532D01*
Y4464293D01*
X1956555Y4469054D01*
X1958935Y4471435D01*
X1966076Y4473815D01*
X1987500D01*
X1970837D02*
X1954174Y4500000D01*
X1919182Y4450011D02*
X1942986Y4483337D01*
X1907279D01*
X1919182Y4450011D02*
Y4500000D01*
X1884189Y4450011D02*
X1891330Y4452391D01*
X1896091Y4459532D01*
X1898472Y4471435D01*
Y4478576D01*
X1896091Y4490478D01*
X1891330Y4497619D01*
X1884189Y4500000D01*
X1879428D01*
X1872287Y4497619D01*
X1867526Y4490478D01*
X1865146Y4478576D01*
Y4471435D01*
X1867526Y4459532D01*
X1872287Y4452391D01*
X1879428Y4450011D01*
X1884189D01*
X2675000Y2585011D02*
Y2635000D01*
Y2585011D02*
X2653576D01*
X2646435Y2587392D01*
X2644054Y2589772D01*
X2641674Y2594533D01*
Y2599294D01*
X2644054Y2604055D01*
X2646435Y2606435D01*
X2653576Y2608815D01*
X2675000D01*
X2658337D02*
X2641674Y2635000D01*
X2630486Y2594533D02*
X2625725Y2592153D01*
X2618584Y2585011D01*
Y2635000D01*
X2589066Y2585011D02*
X2562881D01*
X2577164Y2604055D01*
X2570023D01*
X2565262Y2606435D01*
X2562881Y2608815D01*
X2560501Y2615957D01*
Y2620718D01*
X2562881Y2627859D01*
X2567642Y2632620D01*
X2574784Y2635000D01*
X2581925D01*
X2589066Y2632620D01*
X2591446Y2630239D01*
X2593827Y2625479D01*
X3752500Y3120011D02*
Y3170000D01*
Y3120011D02*
X3731076D01*
X3723935Y3122392D01*
X3721555Y3124772D01*
X3719174Y3129533D01*
Y3134294D01*
X3721555Y3139055D01*
X3723935Y3141435D01*
X3731076Y3143815D01*
X3752500D01*
X3735837D02*
X3719174Y3170000D01*
X3696084Y3120011D02*
X3703225Y3122392D01*
X3705605Y3127152D01*
Y3131913D01*
X3703225Y3136674D01*
X3698464Y3139055D01*
X3688943Y3141435D01*
X3681801Y3143815D01*
X3677040Y3148576D01*
X3674660Y3153337D01*
Y3160479D01*
X3677040Y3165239D01*
X3679421Y3167620D01*
X3686562Y3170000D01*
X3696084D01*
X3703225Y3167620D01*
X3705605Y3165239D01*
X3707986Y3160479D01*
Y3153337D01*
X3705605Y3148576D01*
X3700845Y3143815D01*
X3693703Y3141435D01*
X3684182Y3139055D01*
X3679421Y3136674D01*
X3677040Y3131913D01*
Y3127152D01*
X3679421Y3122392D01*
X3686562Y3120011D01*
X3696084D01*
X3567500Y3472489D02*
Y3422500D01*
Y3472489D02*
X3588924D01*
X3596066Y3470109D01*
X3598446Y3467728D01*
X3600826Y3462968D01*
Y3458207D01*
X3598446Y3453446D01*
X3596066Y3451065D01*
X3588924Y3448685D01*
X3567500D01*
X3584164D02*
X3600826Y3422500D01*
X3640580Y3465348D02*
X3638199Y3470109D01*
X3631058Y3472489D01*
X3626297D01*
X3619156Y3470109D01*
X3614395Y3462968D01*
X3612015Y3451065D01*
Y3439163D01*
X3614395Y3429641D01*
X3619156Y3424881D01*
X3626297Y3422500D01*
X3628678D01*
X3635819Y3424881D01*
X3640580Y3429641D01*
X3642960Y3436783D01*
Y3439163D01*
X3640580Y3446305D01*
X3635819Y3451065D01*
X3628678Y3453446D01*
X3626297D01*
X3619156Y3451065D01*
X3614395Y3446305D01*
X3612015Y3439163D01*
X1277500Y562511D02*
Y612500D01*
Y562511D02*
X1256076D01*
X1248935Y564891D01*
X1246555Y567272D01*
X1244174Y572033D01*
Y576794D01*
X1246555Y581555D01*
X1248935Y583935D01*
X1256076Y586315D01*
X1277500D01*
X1260837D02*
X1244174Y612500D01*
X1232986Y572033D02*
X1228225Y569652D01*
X1221084Y562511D01*
Y612500D01*
X1165381Y579174D02*
X1167762Y586315D01*
X1172523Y591076D01*
X1179664Y593457D01*
X1182044D01*
X1189186Y591076D01*
X1193947Y586315D01*
X1196327Y579174D01*
Y576794D01*
X1193947Y569652D01*
X1189186Y564891D01*
X1182044Y562511D01*
X1179664D01*
X1172523Y564891D01*
X1167762Y569652D01*
X1165381Y579174D01*
Y591076D01*
X1167762Y602978D01*
X1172523Y610120D01*
X1179664Y612500D01*
X1184425D01*
X1191566Y610120D01*
X1193947Y605359D01*
X1725000Y297489D02*
Y247500D01*
Y297489D02*
X1746424D01*
X1753566Y295109D01*
X1755946Y292728D01*
X1758326Y287968D01*
Y283207D01*
X1755946Y278446D01*
X1753566Y276065D01*
X1746424Y273685D01*
X1725000D01*
X1741664D02*
X1758326Y247500D01*
X1769515Y287968D02*
X1774276Y290348D01*
X1781417Y297489D01*
Y247500D01*
X790000Y2014989D02*
Y1965000D01*
Y2014989D02*
X811424D01*
X818565Y2012609D01*
X820946Y2010228D01*
X823326Y2005468D01*
Y2000707D01*
X820946Y1995946D01*
X818565Y1993565D01*
X811424Y1991185D01*
X790000D01*
X806663D02*
X823326Y1965000D01*
X836895Y2003087D02*
Y2005468D01*
X839275Y2010228D01*
X841655Y2012609D01*
X846416Y2014989D01*
X855938D01*
X860699Y2012609D01*
X863080Y2010228D01*
X865460Y2005468D01*
Y2000707D01*
X863080Y1995946D01*
X858319Y1988805D01*
X834514Y1965000D01*
X867840D01*
X902833Y2014989D02*
X879028Y1981663D01*
X914735D01*
X902833Y2014989D02*
Y1965000D01*
D137*
X2185369Y3974060D02*
X2189178Y3966443D01*
X2196795Y3958825D01*
X2204413Y3955017D01*
X2219648D01*
X2227265Y3958825D01*
X2234883Y3966443D01*
X2238691Y3974060D01*
X2242500Y3985487D01*
Y4004530D01*
X2238691Y4015956D01*
X2234883Y4023574D01*
X2227265Y4031191D01*
X2219648Y4035000D01*
X2204413D01*
X2196795Y4031191D01*
X2189178Y4023574D01*
X2185369Y4015956D01*
X2124811Y3955017D02*
X2162898Y4008339D01*
X2105767D01*
X2124811Y3955017D02*
Y4035000D01*
X2072631Y3955017D02*
X2084058Y3958825D01*
X2087866Y3966443D01*
Y3974060D01*
X2084058Y3981678D01*
X2076440Y3985487D01*
X2061205Y3989295D01*
X2049779Y3993104D01*
X2042162Y4000721D01*
X2038353Y4008339D01*
Y4019765D01*
X2042162Y4027382D01*
X2045971Y4031191D01*
X2057397Y4035000D01*
X2072631D01*
X2084058Y4031191D01*
X2087866Y4027382D01*
X2091675Y4019765D01*
Y4008339D01*
X2087866Y4000721D01*
X2080249Y3993104D01*
X2068823Y3989295D01*
X2053588Y3985487D01*
X2045971Y3981678D01*
X2042162Y3974060D01*
Y3966443D01*
X2045971Y3958825D01*
X2057397Y3955017D01*
X2072631D01*
X2118913Y3798674D02*
X2114152Y3808196D01*
X2104631Y3817718D01*
X2095109Y3822479D01*
X2076065D01*
X2066544Y3817718D01*
X2057022Y3808196D01*
X2052261Y3798674D01*
X2047500Y3784391D01*
Y3760587D01*
X2052261Y3746304D01*
X2057022Y3736782D01*
X2066544Y3727261D01*
X2076065Y3722500D01*
X2095109D01*
X2104631Y3727261D01*
X2114152Y3736782D01*
X2118913Y3746304D01*
X2204133Y3822479D02*
X2156524D01*
X2151764Y3779630D01*
X2156524Y3784391D01*
X2170807Y3789152D01*
X2185090D01*
X2199372Y3784391D01*
X2208894Y3774870D01*
X2213655Y3760587D01*
Y3751065D01*
X2208894Y3736782D01*
X2199372Y3727261D01*
X2185090Y3722500D01*
X2170807D01*
X2156524Y3727261D01*
X2151764Y3732021D01*
X2147003Y3741543D01*
X2264596Y3822479D02*
X2250314Y3817718D01*
X2240792Y3803435D01*
X2236031Y3779630D01*
Y3765348D01*
X2240792Y3741543D01*
X2250314Y3727261D01*
X2264596Y3722500D01*
X2274118D01*
X2288401Y3727261D01*
X2297923Y3741543D01*
X2302683Y3765348D01*
Y3779630D01*
X2297923Y3803435D01*
X2288401Y3817718D01*
X2274118Y3822479D01*
X2264596D01*
X1364061Y4357130D02*
X1356443Y4353322D01*
X1348826Y4345704D01*
X1345017Y4338087D01*
Y4322852D01*
X1348826Y4315235D01*
X1356443Y4307617D01*
X1364061Y4303809D01*
X1375487Y4300000D01*
X1394530D01*
X1405956Y4303809D01*
X1413574Y4307617D01*
X1421191Y4315235D01*
X1425000Y4322852D01*
Y4338087D01*
X1421191Y4345704D01*
X1413574Y4353322D01*
X1405956Y4357130D01*
X1345017Y4425306D02*
Y4387219D01*
X1379295Y4383411D01*
X1375487Y4387219D01*
X1371678Y4398646D01*
Y4410071D01*
X1375487Y4421498D01*
X1383104Y4429115D01*
X1394530Y4432924D01*
X1402148D01*
X1413574Y4429115D01*
X1421191Y4421498D01*
X1425000Y4410071D01*
Y4398646D01*
X1421191Y4387219D01*
X1417382Y4383411D01*
X1409765Y4379602D01*
X1356443Y4496529D02*
X1348826Y4492721D01*
X1345017Y4481294D01*
Y4473677D01*
X1348826Y4462251D01*
X1360252Y4454633D01*
X1379295Y4450825D01*
X1398339D01*
X1413574Y4454633D01*
X1421191Y4462251D01*
X1425000Y4473677D01*
Y4477486D01*
X1421191Y4488912D01*
X1413574Y4496529D01*
X1402148Y4500338D01*
X1398339D01*
X1386913Y4496529D01*
X1379295Y4488912D01*
X1375487Y4477486D01*
Y4473677D01*
X1379295Y4462251D01*
X1386913Y4454633D01*
X1398339Y4450825D01*
X1112479Y372499D02*
X1012500D01*
X1112479D02*
Y339173D01*
X1107718Y324890D01*
X1098196Y315369D01*
X1088674Y310608D01*
X1074392Y305847D01*
X1050587D01*
X1036305Y310608D01*
X1026783Y315369D01*
X1017261Y324890D01*
X1012500Y339173D01*
Y372499D01*
X1088674Y278710D02*
X1093435D01*
X1102957Y273949D01*
X1107718Y269188D01*
X1112479Y259666D01*
Y240623D01*
X1107718Y231101D01*
X1102957Y226340D01*
X1093435Y221579D01*
X1083914D01*
X1074392Y226340D01*
X1060109Y235862D01*
X1012500Y283471D01*
Y216818D01*
X2651401Y4466031D02*
Y4613440D01*
Y4466031D02*
X2602265D01*
X2581206Y4473051D01*
X2567167Y4487090D01*
X2560148Y4501128D01*
X2553128Y4522187D01*
Y4557284D01*
X2560148Y4578342D01*
X2567167Y4592381D01*
X2581206Y4606420D01*
X2602265Y4613440D01*
X2651401D01*
X2449943Y4466031D02*
X2520137Y4564304D01*
X2414845D01*
X2449943Y4466031D02*
Y4613440D01*
X1645660Y2923572D02*
Y3073540D01*
Y2923572D02*
X1595671D01*
X1574247Y2930713D01*
X1559965Y2944996D01*
X1552823Y2959279D01*
X1545682Y2980703D01*
Y3016409D01*
X1552823Y3037833D01*
X1559965Y3052116D01*
X1574247Y3066399D01*
X1595671Y3073540D01*
X1645660D01*
X1426422Y2923572D02*
X1497835D01*
X1504976Y2987844D01*
X1497835Y2980703D01*
X1476411Y2973561D01*
X1454987D01*
X1433563Y2980703D01*
X1419280Y2994985D01*
X1412139Y3016409D01*
Y3030692D01*
X1419280Y3052116D01*
X1433563Y3066399D01*
X1454987Y3073540D01*
X1476411D01*
X1497835Y3066399D01*
X1504976Y3059257D01*
X1512118Y3044975D01*
X2887500Y2712479D02*
Y2612501D01*
X2944631D01*
X2955581Y2693436D02*
X2965103Y2698197D01*
X2979385Y2712479D01*
Y2612501D01*
X3076507Y2712479D02*
X3028898Y2645827D01*
X3100312D01*
X3076507Y2712479D02*
Y2612501D01*
X1775022Y772500D02*
X1846435D01*
X1860718Y777261D01*
X1870239Y786783D01*
X1875000Y801065D01*
Y810587D01*
X1870239Y824870D01*
X1860718Y834391D01*
X1846435Y839152D01*
X1775022D01*
Y876287D02*
Y928657D01*
X1813109Y900092D01*
Y914374D01*
X1817870Y923896D01*
X1822631Y928657D01*
X1836913Y933418D01*
X1846435D01*
X1860718Y928657D01*
X1870239Y919135D01*
X1875000Y904852D01*
Y890570D01*
X1870239Y876287D01*
X1865479Y871526D01*
X1855957Y866765D01*
X1559983Y3705000D02*
X1480000Y3651678D01*
X1559983D02*
X1480000Y3705000D01*
X1559983Y3595690D02*
X1506661Y3633777D01*
Y3576646D01*
X1559983Y3595690D02*
X1480000D01*
X1632479Y417500D02*
X1584870Y379413D01*
X1532500D01*
X1632479Y341326D02*
X1584870Y379413D01*
X1613435Y328472D02*
X1618196Y318950D01*
X1632479Y304667D01*
X1532500D01*
X1067517Y5080000D02*
X1147500Y5133322D01*
X1067517D02*
X1147500Y5080000D01*
X1067517Y5158841D02*
Y5200736D01*
X1097987Y5177884D01*
Y5189310D01*
X1101795Y5196928D01*
X1105604Y5200736D01*
X1117030Y5204545D01*
X1124647D01*
X1136074Y5200736D01*
X1143691Y5193119D01*
X1147500Y5181693D01*
Y5170267D01*
X1143691Y5158841D01*
X1139882Y5155032D01*
X1132265Y5151223D01*
X721072Y4286840D02*
X871040D01*
X721072D02*
Y4336829D01*
X728213Y4358253D01*
X742496Y4372535D01*
X756779Y4379677D01*
X778203Y4386818D01*
X813909D01*
X835333Y4379677D01*
X849616Y4372535D01*
X863899Y4358253D01*
X871040Y4336829D01*
Y4286840D01*
X721072Y4434665D02*
Y4513220D01*
X778203Y4470372D01*
Y4491796D01*
X785344Y4506078D01*
X792485Y4513220D01*
X813909Y4520361D01*
X828192D01*
X849616Y4513220D01*
X863899Y4498937D01*
X871040Y4477513D01*
Y4456089D01*
X863899Y4434665D01*
X856757Y4427524D01*
X842475Y4420382D01*
X832479Y372499D02*
X732500D01*
X832479D02*
Y339173D01*
X827718Y324890D01*
X818196Y315369D01*
X808674Y310608D01*
X794392Y305847D01*
X770587D01*
X756305Y310608D01*
X746783Y315369D01*
X737261Y324890D01*
X732500Y339173D01*
Y372499D01*
X813435Y283471D02*
X818196Y273949D01*
X832479Y259666D01*
X732500D01*
X2236087Y3523826D02*
X2240848Y3514304D01*
X2250369Y3504782D01*
X2259891Y3500021D01*
X2278935D01*
X2288456Y3504782D01*
X2297978Y3514304D01*
X2302739Y3523826D01*
X2307500Y3538108D01*
Y3561913D01*
X2302739Y3576195D01*
X2297978Y3585717D01*
X2288456Y3595239D01*
X2278935Y3600000D01*
X2259891D01*
X2250369Y3595239D01*
X2240848Y3585717D01*
X2236087Y3576195D01*
X2160389Y3500021D02*
X2207998Y3566673D01*
X2136584D01*
X2160389Y3500021D02*
Y3600000D01*
X2057078Y3533347D02*
X2061838Y3547630D01*
X2071360Y3557152D01*
X2085643Y3561913D01*
X2090404D01*
X2104686Y3557152D01*
X2114208Y3547630D01*
X2118969Y3533347D01*
Y3528586D01*
X2114208Y3514304D01*
X2104686Y3504782D01*
X2090404Y3500021D01*
X2085643D01*
X2071360Y3504782D01*
X2061838Y3514304D01*
X2057078Y3533347D01*
Y3557152D01*
X2061838Y3580956D01*
X2071360Y3595239D01*
X2085643Y3600000D01*
X2095165D01*
X2109447Y3595239D01*
X2114208Y3585717D01*
X2185369Y4204060D02*
X2189178Y4196443D01*
X2196795Y4188825D01*
X2204413Y4185017D01*
X2219648D01*
X2227265Y4188825D01*
X2234883Y4196443D01*
X2238691Y4204060D01*
X2242500Y4215486D01*
Y4234530D01*
X2238691Y4245956D01*
X2234883Y4253573D01*
X2227265Y4261191D01*
X2219648Y4265000D01*
X2204413D01*
X2196795Y4261191D01*
X2189178Y4253573D01*
X2185369Y4245956D01*
X2124811Y4185017D02*
X2162898Y4238338D01*
X2105767D01*
X2124811Y4185017D02*
Y4265000D01*
X2038353Y4185017D02*
X2076440Y4265000D01*
X2091675Y4185017D02*
X2038353D01*
%TF.MD5,c9833e63c8203107bfeef9c664b25917*%
M02*
