%TF.GenerationSoftware,Altium Limited,Altium Designer,20.1.12 (249)*%
G04 Layer_Color=16711935*
%FSLAX45Y45*%
%MOMM*%
%TF.SameCoordinates,4EE8302A-A9A8-49E0-93C5-14594FCB678D*%
%TF.FilePolarity,Positive*%
%TF.FileFunction,Other,Mechanical_21*%
%TF.Part,Single*%
G01*
G75*
%TA.AperFunction,NonConductor*%
%ADD134C,0.07000*%
%ADD135C,0.09000*%
%ADD136C,0.05000*%
D134*
X894985Y1182500D02*
X825000D01*
Y1222491D01*
X894985Y1236822D02*
Y1273480D01*
X868324Y1253485D01*
Y1263483D01*
X864992Y1270148D01*
X861659Y1273480D01*
X851661Y1276813D01*
X844996D01*
X834998Y1273480D01*
X828333Y1266815D01*
X825000Y1256817D01*
Y1246819D01*
X828333Y1236822D01*
X831665Y1233489D01*
X838331Y1230156D01*
X585015Y2362500D02*
X655000D01*
Y2322508D01*
X585015Y2274852D02*
Y2308178D01*
X615008Y2311511D01*
X611676Y2308178D01*
X608343Y2298180D01*
Y2288182D01*
X611676Y2278185D01*
X618341Y2271519D01*
X628339Y2268187D01*
X635004D01*
X645002Y2271519D01*
X651667Y2278185D01*
X655000Y2288182D01*
Y2298180D01*
X651667Y2308178D01*
X648335Y2311511D01*
X641670Y2314843D01*
X575015Y1330000D02*
X645000D01*
Y1290009D01*
X588345Y1282344D02*
X585013Y1275678D01*
X575015Y1265680D01*
X645000D01*
X1580822Y1244989D02*
X1587487Y1241657D01*
X1594153Y1234991D01*
X1597485Y1228326D01*
Y1214996D01*
X1594153Y1208330D01*
X1587487Y1201665D01*
X1580822Y1198333D01*
X1570824Y1195000D01*
X1554161D01*
X1544163Y1198333D01*
X1537498Y1201665D01*
X1530833Y1208330D01*
X1527500Y1214996D01*
Y1228326D01*
X1530833Y1234991D01*
X1537498Y1241657D01*
X1544163Y1244989D01*
X1580822Y1267985D02*
X1584155D01*
X1590820Y1271317D01*
X1594153Y1274650D01*
X1597485Y1281315D01*
Y1294645D01*
X1594153Y1301311D01*
X1590820Y1304643D01*
X1584155Y1307976D01*
X1577490D01*
X1570824Y1304643D01*
X1560826Y1297978D01*
X1527500Y1264652D01*
Y1311309D01*
X1597485Y1360298D02*
X1550828Y1326972D01*
Y1376961D01*
X1597485Y1360298D02*
X1527500D01*
X904985Y2182500D02*
X835000D01*
Y2222491D01*
X904985Y2276813D02*
X835000Y2243487D01*
X904985Y2230156D02*
Y2276813D01*
X444178Y2610011D02*
X437513Y2613343D01*
X430847Y2620008D01*
X427515Y2626674D01*
Y2640004D01*
X430847Y2646670D01*
X437513Y2653335D01*
X444178Y2656667D01*
X454176Y2660000D01*
X470839D01*
X480837Y2656667D01*
X487502Y2653335D01*
X494167Y2646670D01*
X497500Y2640004D01*
Y2626674D01*
X494167Y2620008D01*
X487502Y2613343D01*
X480837Y2610011D01*
X440845Y2590348D02*
X437513Y2583683D01*
X427515Y2573685D01*
X497500D01*
X427515Y2505699D02*
X474172Y2539026D01*
Y2489036D01*
X427515Y2505699D02*
X497500D01*
X350822Y1992489D02*
X357487Y1989157D01*
X364152Y1982491D01*
X367485Y1975826D01*
Y1962495D01*
X364152Y1955830D01*
X357487Y1949165D01*
X350822Y1945833D01*
X340824Y1942500D01*
X324161D01*
X314163Y1945833D01*
X307498Y1949165D01*
X300833Y1955830D01*
X297500Y1962495D01*
Y1975826D01*
X300833Y1982491D01*
X307498Y1989157D01*
X314163Y1992489D01*
X354155Y2012152D02*
X357487Y2018817D01*
X367485Y2028815D01*
X297500D01*
X350822Y2066807D02*
X354155D01*
X360820Y2070139D01*
X364152Y2073472D01*
X367485Y2080137D01*
Y2093468D01*
X364152Y2100133D01*
X360820Y2103466D01*
X354155Y2106798D01*
X347490D01*
X340824Y2103466D01*
X330826Y2096800D01*
X297500Y2063474D01*
Y2110131D01*
X439178Y1567510D02*
X432513Y1570843D01*
X425848Y1577508D01*
X422515Y1584173D01*
Y1597504D01*
X425848Y1604169D01*
X432513Y1610834D01*
X439178Y1614167D01*
X449176Y1617500D01*
X465839D01*
X475837Y1614167D01*
X482502Y1610834D01*
X489167Y1604169D01*
X492500Y1597504D01*
Y1584173D01*
X489167Y1577508D01*
X482502Y1570843D01*
X475837Y1567510D01*
X435845Y1547848D02*
X432513Y1541183D01*
X422515Y1531185D01*
X492500D01*
X422515Y1476530D02*
X425848Y1486527D01*
X435845Y1493193D01*
X452508Y1496525D01*
X462506D01*
X479169Y1493193D01*
X489167Y1486527D01*
X492500Y1476530D01*
Y1469864D01*
X489167Y1459867D01*
X479169Y1453201D01*
X462506Y1449869D01*
X452508D01*
X435845Y1453201D01*
X425848Y1459867D01*
X422515Y1469864D01*
Y1476530D01*
X348322Y994989D02*
X354987Y991656D01*
X361653Y984991D01*
X364985Y978326D01*
Y964995D01*
X361653Y958330D01*
X354987Y951665D01*
X348322Y948332D01*
X338324Y945000D01*
X321661D01*
X311663Y948332D01*
X304998Y951665D01*
X298333Y958330D01*
X295000Y964995D01*
Y978326D01*
X298333Y984991D01*
X304998Y991656D01*
X311663Y994989D01*
X364985Y1031315D02*
X361653Y1021317D01*
X354987Y1017984D01*
X348322D01*
X341657Y1021317D01*
X338324Y1027982D01*
X334992Y1041313D01*
X331659Y1051310D01*
X324994Y1057976D01*
X318329Y1061308D01*
X308331D01*
X301665Y1057976D01*
X298333Y1054643D01*
X295000Y1044645D01*
Y1031315D01*
X298333Y1021317D01*
X301665Y1017984D01*
X308331Y1014652D01*
X318329D01*
X324994Y1017984D01*
X331659Y1024649D01*
X334992Y1034647D01*
X338324Y1047978D01*
X341657Y1054643D01*
X348322Y1057976D01*
X354987D01*
X361653Y1054643D01*
X364985Y1044645D01*
Y1031315D01*
X2225822Y364989D02*
X2232487Y361657D01*
X2239152Y354991D01*
X2242485Y348326D01*
Y334996D01*
X2239152Y328330D01*
X2232487Y321665D01*
X2225822Y318333D01*
X2215824Y315000D01*
X2199161D01*
X2189163Y318333D01*
X2182498Y321665D01*
X2175833Y328330D01*
X2172500Y334996D01*
Y348326D01*
X2175833Y354991D01*
X2182498Y361657D01*
X2189163Y364989D01*
X2242485Y417978D02*
X2195828Y384652D01*
Y434641D01*
X2242485Y417978D02*
X2172500D01*
X2225822Y450305D02*
X2229155D01*
X2235820Y453637D01*
X2239152Y456970D01*
X2242485Y463635D01*
Y476966D01*
X2239152Y483631D01*
X2235820Y486963D01*
X2229155Y490296D01*
X2222490D01*
X2215824Y486963D01*
X2205826Y480298D01*
X2172500Y446972D01*
Y493629D01*
X2070011Y1533322D02*
X2073344Y1539988D01*
X2080009Y1546653D01*
X2086674Y1549985D01*
X2100005D01*
X2106670Y1546653D01*
X2113335Y1539988D01*
X2116668Y1533322D01*
X2120000Y1523324D01*
Y1506661D01*
X2116668Y1496664D01*
X2113335Y1489998D01*
X2106670Y1483333D01*
X2100005Y1480000D01*
X2086674D01*
X2080009Y1483333D01*
X2073344Y1489998D01*
X2070011Y1496664D01*
X2043683Y1549985D02*
X2007024D01*
X2027020Y1523324D01*
X2017022D01*
X2010357Y1519992D01*
X2007024Y1516659D01*
X2003692Y1506661D01*
Y1499996D01*
X2007024Y1489998D01*
X2013690Y1483333D01*
X2023687Y1480000D01*
X2033685D01*
X2043683Y1483333D01*
X2047016Y1486666D01*
X2050348Y1493331D01*
X1968033Y1549985D02*
X1978030Y1546653D01*
X1984696Y1536655D01*
X1988028Y1519992D01*
Y1509994D01*
X1984696Y1493331D01*
X1978030Y1483333D01*
X1968033Y1480000D01*
X1961367D01*
X1951369Y1483333D01*
X1944704Y1493331D01*
X1941372Y1509994D01*
Y1519992D01*
X1944704Y1536655D01*
X1951369Y1546653D01*
X1961367Y1549985D01*
X1968033D01*
X1846678Y700011D02*
X1840013Y703344D01*
X1833348Y710009D01*
X1830015Y716674D01*
Y730005D01*
X1833348Y736670D01*
X1840013Y743335D01*
X1846678Y746668D01*
X1856676Y750000D01*
X1873339D01*
X1883337Y746668D01*
X1890002Y743335D01*
X1896667Y736670D01*
X1900000Y730005D01*
Y716674D01*
X1896667Y710009D01*
X1890002Y703344D01*
X1883337Y700011D01*
X1846678Y677016D02*
X1843345D01*
X1836680Y673683D01*
X1833348Y670350D01*
X1830015Y663685D01*
Y650355D01*
X1833348Y643690D01*
X1836680Y640357D01*
X1843345Y637024D01*
X1850011D01*
X1856676Y640357D01*
X1866674Y647022D01*
X1900000Y680348D01*
Y633692D01*
X1830015Y598033D02*
X1833348Y608030D01*
X1843345Y614695D01*
X1860008Y618028D01*
X1870006D01*
X1886670Y614695D01*
X1896667Y608030D01*
X1900000Y598033D01*
Y591367D01*
X1896667Y581369D01*
X1886670Y574704D01*
X1870006Y571371D01*
X1860008D01*
X1843345Y574704D01*
X1833348Y581369D01*
X1830015Y591367D01*
Y598033D01*
X2125822Y1244989D02*
X2132487Y1241657D01*
X2139153Y1234991D01*
X2142485Y1228326D01*
Y1214996D01*
X2139153Y1208330D01*
X2132487Y1201665D01*
X2125822Y1198333D01*
X2115824Y1195000D01*
X2099161D01*
X2089163Y1198333D01*
X2082498Y1201665D01*
X2075833Y1208330D01*
X2072500Y1214996D01*
Y1228326D01*
X2075833Y1234991D01*
X2082498Y1241657D01*
X2089163Y1244989D01*
X2129155Y1264652D02*
X2132487Y1271317D01*
X2142485Y1281315D01*
X2072500D01*
X2119157Y1359298D02*
X2109159Y1355966D01*
X2102494Y1349301D01*
X2099161Y1339303D01*
Y1335970D01*
X2102494Y1325972D01*
X2109159Y1319307D01*
X2119157Y1315974D01*
X2122490D01*
X2132487Y1319307D01*
X2139153Y1325972D01*
X2142485Y1335970D01*
Y1339303D01*
X2139153Y1349301D01*
X2132487Y1355966D01*
X2119157Y1359298D01*
X2102494D01*
X2085831Y1355966D01*
X2075833Y1349301D01*
X2072500Y1339303D01*
Y1332637D01*
X2075833Y1322639D01*
X2082498Y1319307D01*
X1678322Y1244989D02*
X1684987Y1241657D01*
X1691653Y1234991D01*
X1694985Y1228326D01*
Y1214996D01*
X1691653Y1208330D01*
X1684987Y1201665D01*
X1678322Y1198333D01*
X1668324Y1195000D01*
X1651661D01*
X1641663Y1198333D01*
X1634998Y1201665D01*
X1628333Y1208330D01*
X1625000Y1214996D01*
Y1228326D01*
X1628333Y1234991D01*
X1634998Y1241657D01*
X1641663Y1244989D01*
X1678322Y1267985D02*
X1681655D01*
X1688320Y1271317D01*
X1691653Y1274650D01*
X1694985Y1281315D01*
Y1294645D01*
X1691653Y1301311D01*
X1688320Y1304643D01*
X1681655Y1307976D01*
X1674990D01*
X1668324Y1304643D01*
X1658327Y1297978D01*
X1625000Y1264652D01*
Y1311309D01*
X1694985Y1366963D02*
Y1333637D01*
X1664992Y1330305D01*
X1668324Y1333637D01*
X1671657Y1343635D01*
Y1353633D01*
X1668324Y1363631D01*
X1661659Y1370296D01*
X1651661Y1373629D01*
X1644996D01*
X1634998Y1370296D01*
X1628333Y1363631D01*
X1625000Y1353633D01*
Y1343635D01*
X1628333Y1333637D01*
X1631666Y1330305D01*
X1638331Y1326972D01*
X1662511Y865822D02*
X1665844Y872487D01*
X1672509Y879152D01*
X1679174Y882485D01*
X1692505D01*
X1699170Y879152D01*
X1705835Y872487D01*
X1709168Y865822D01*
X1712500Y855824D01*
Y839161D01*
X1709168Y829163D01*
X1705835Y822498D01*
X1699170Y815833D01*
X1692505Y812500D01*
X1679174D01*
X1672509Y815833D01*
X1665844Y822498D01*
X1662511Y829163D01*
X1639516Y865822D02*
Y869155D01*
X1636183Y875820D01*
X1632850Y879152D01*
X1626185Y882485D01*
X1612855D01*
X1606190Y879152D01*
X1602857Y875820D01*
X1599524Y869155D01*
Y862490D01*
X1602857Y855824D01*
X1609522Y845826D01*
X1642848Y812500D01*
X1596192D01*
X1540537Y872487D02*
X1543869Y879152D01*
X1553867Y882485D01*
X1560533D01*
X1570530Y879152D01*
X1577195Y869155D01*
X1580528Y852492D01*
Y835828D01*
X1577195Y822498D01*
X1570530Y815833D01*
X1560533Y812500D01*
X1557200D01*
X1547202Y815833D01*
X1540537Y822498D01*
X1537204Y832496D01*
Y835828D01*
X1540537Y845826D01*
X1547202Y852492D01*
X1557200Y855824D01*
X1560533D01*
X1570530Y852492D01*
X1577195Y845826D01*
X1580528Y835828D01*
X1930822Y1244989D02*
X1937487Y1241657D01*
X1944153Y1234991D01*
X1947485Y1228326D01*
Y1214996D01*
X1944153Y1208330D01*
X1937487Y1201665D01*
X1930822Y1198333D01*
X1920824Y1195000D01*
X1904161D01*
X1894163Y1198333D01*
X1887498Y1201665D01*
X1880833Y1208330D01*
X1877500Y1214996D01*
Y1228326D01*
X1880833Y1234991D01*
X1887498Y1241657D01*
X1894163Y1244989D01*
X1947485Y1271317D02*
Y1307976D01*
X1920824Y1287980D01*
Y1297978D01*
X1917492Y1304643D01*
X1914159Y1307976D01*
X1904161Y1311309D01*
X1897496D01*
X1887498Y1307976D01*
X1880833Y1301311D01*
X1877500Y1291313D01*
Y1281315D01*
X1880833Y1271317D01*
X1884165Y1267985D01*
X1890831Y1264652D01*
X1934155Y1326972D02*
X1937487Y1333637D01*
X1947485Y1343635D01*
X1877500D01*
X1662511Y1115822D02*
X1665844Y1122487D01*
X1672509Y1129152D01*
X1679174Y1132485D01*
X1692505D01*
X1699170Y1129152D01*
X1705835Y1122487D01*
X1709168Y1115822D01*
X1712500Y1105824D01*
Y1089161D01*
X1709168Y1079163D01*
X1705835Y1072498D01*
X1699170Y1065833D01*
X1692505Y1062500D01*
X1679174D01*
X1672509Y1065833D01*
X1665844Y1072498D01*
X1662511Y1079163D01*
X1636183Y1132485D02*
X1599524D01*
X1619520Y1105824D01*
X1609522D01*
X1602857Y1102492D01*
X1599524Y1099159D01*
X1596192Y1089161D01*
Y1082496D01*
X1599524Y1072498D01*
X1606190Y1065833D01*
X1616187Y1062500D01*
X1626185D01*
X1636183Y1065833D01*
X1639516Y1069165D01*
X1642848Y1075830D01*
X1577195Y1115822D02*
Y1119155D01*
X1573863Y1125820D01*
X1570530Y1129152D01*
X1563865Y1132485D01*
X1550535D01*
X1543869Y1129152D01*
X1540537Y1125820D01*
X1537204Y1119155D01*
Y1112490D01*
X1540537Y1105824D01*
X1547202Y1095826D01*
X1580528Y1062500D01*
X1533871D01*
X1662511Y965822D02*
X1665844Y972487D01*
X1672509Y979152D01*
X1679174Y982485D01*
X1692505D01*
X1699170Y979152D01*
X1705835Y972487D01*
X1709168Y965822D01*
X1712500Y955824D01*
Y939161D01*
X1709168Y929163D01*
X1705835Y922498D01*
X1699170Y915833D01*
X1692505Y912500D01*
X1679174D01*
X1672509Y915833D01*
X1665844Y922498D01*
X1662511Y929163D01*
X1609522Y982485D02*
X1642848Y935828D01*
X1592859D01*
X1609522Y982485D02*
Y912500D01*
X1547202Y982485D02*
X1580528Y935828D01*
X1530539D01*
X1547202Y982485D02*
Y912500D01*
X1741678Y700011D02*
X1735013Y703344D01*
X1728348Y710009D01*
X1725015Y716674D01*
Y730005D01*
X1728348Y736670D01*
X1735013Y743335D01*
X1741678Y746668D01*
X1751676Y750000D01*
X1768339D01*
X1778337Y746668D01*
X1785002Y743335D01*
X1791667Y736670D01*
X1795000Y730005D01*
Y716674D01*
X1791667Y710009D01*
X1785002Y703344D01*
X1778337Y700011D01*
X1725015Y673683D02*
Y637024D01*
X1751676Y657020D01*
Y647022D01*
X1755009Y640357D01*
X1758341Y637024D01*
X1768339Y633692D01*
X1775005D01*
X1785002Y637024D01*
X1791667Y643690D01*
X1795000Y653687D01*
Y663685D01*
X1791667Y673683D01*
X1788335Y677016D01*
X1781670Y680348D01*
X1725015Y578037D02*
Y611363D01*
X1755009Y614695D01*
X1751676Y611363D01*
X1748343Y601365D01*
Y591367D01*
X1751676Y581369D01*
X1758341Y574704D01*
X1768339Y571371D01*
X1775005D01*
X1785002Y574704D01*
X1791667Y581369D01*
X1795000Y591367D01*
Y601365D01*
X1791667Y611363D01*
X1788335Y614695D01*
X1781670Y618028D01*
X1780822Y1244989D02*
X1787487Y1241657D01*
X1794153Y1234991D01*
X1797485Y1228326D01*
Y1214996D01*
X1794153Y1208330D01*
X1787487Y1201665D01*
X1780822Y1198333D01*
X1770824Y1195000D01*
X1754161D01*
X1744163Y1198333D01*
X1737498Y1201665D01*
X1730833Y1208330D01*
X1727500Y1214996D01*
Y1228326D01*
X1730833Y1234991D01*
X1737498Y1241657D01*
X1744163Y1244989D01*
X1797485Y1297978D02*
X1750829Y1264652D01*
Y1314641D01*
X1797485Y1297978D02*
X1727500D01*
X1787487Y1366963D02*
X1794153Y1363631D01*
X1797485Y1353633D01*
Y1346968D01*
X1794153Y1336970D01*
X1784155Y1330305D01*
X1767492Y1326972D01*
X1750829D01*
X1737498Y1330305D01*
X1730833Y1336970D01*
X1727500Y1346968D01*
Y1350300D01*
X1730833Y1360298D01*
X1737498Y1366963D01*
X1747496Y1370296D01*
X1750829D01*
X1760827Y1366963D01*
X1767492Y1360298D01*
X1770824Y1350300D01*
Y1346968D01*
X1767492Y1336970D01*
X1760827Y1330305D01*
X1750829Y1326972D01*
X2204989Y1056678D02*
X2201657Y1050013D01*
X2194992Y1043348D01*
X2188326Y1040015D01*
X2174996D01*
X2168330Y1043348D01*
X2161665Y1050013D01*
X2158333Y1056678D01*
X2155000Y1066676D01*
Y1083339D01*
X2158333Y1093337D01*
X2161665Y1100002D01*
X2168330Y1106667D01*
X2174996Y1110000D01*
X2188326D01*
X2194992Y1106667D01*
X2201657Y1100002D01*
X2204989Y1093337D01*
X2257978Y1040015D02*
X2224652Y1086672D01*
X2274641D01*
X2257978Y1040015D02*
Y1110000D01*
X2306968Y1040015D02*
X2296970Y1043348D01*
X2290305Y1053345D01*
X2286972Y1070009D01*
Y1080006D01*
X2290305Y1096670D01*
X2296970Y1106667D01*
X2306968Y1110000D01*
X2313633D01*
X2323631Y1106667D01*
X2330296Y1096670D01*
X2333629Y1080006D01*
Y1070009D01*
X2330296Y1053345D01*
X2323631Y1043348D01*
X2313633Y1040015D01*
X2306968D01*
X2204989Y869178D02*
X2201657Y862513D01*
X2194992Y855848D01*
X2188326Y852515D01*
X2174996D01*
X2168330Y855848D01*
X2161665Y862513D01*
X2158333Y869178D01*
X2155000Y879176D01*
Y895839D01*
X2158333Y905837D01*
X2161665Y912502D01*
X2168330Y919167D01*
X2174996Y922500D01*
X2188326D01*
X2194992Y919167D01*
X2201657Y912502D01*
X2204989Y905837D01*
X2227985Y869178D02*
Y865845D01*
X2231317Y859180D01*
X2234650Y855848D01*
X2241315Y852515D01*
X2254645D01*
X2261311Y855848D01*
X2264643Y859180D01*
X2267976Y865845D01*
Y872511D01*
X2264643Y879176D01*
X2257978Y889174D01*
X2224652Y922500D01*
X2271309D01*
X2333629Y852515D02*
X2300302Y922500D01*
X2286972Y852515D02*
X2333629D01*
X2204989Y959178D02*
X2201657Y952513D01*
X2194992Y945848D01*
X2188326Y942515D01*
X2174996D01*
X2168330Y945848D01*
X2161665Y952513D01*
X2158333Y959178D01*
X2155000Y969176D01*
Y985839D01*
X2158333Y995837D01*
X2161665Y1002502D01*
X2168330Y1009167D01*
X2174996Y1012500D01*
X2188326D01*
X2194992Y1009167D01*
X2201657Y1002502D01*
X2204989Y995837D01*
X2227985Y959178D02*
Y955845D01*
X2231317Y949180D01*
X2234650Y945848D01*
X2241315Y942515D01*
X2254645D01*
X2261311Y945848D01*
X2264643Y949180D01*
X2267976Y955845D01*
Y962511D01*
X2264643Y969176D01*
X2257978Y979174D01*
X2224652Y1012500D01*
X2271309D01*
X2303635Y942515D02*
X2293637Y945848D01*
X2290305Y952513D01*
Y959178D01*
X2293637Y965843D01*
X2300302Y969176D01*
X2313633Y972509D01*
X2323631Y975841D01*
X2330296Y982507D01*
X2333629Y989172D01*
Y999170D01*
X2330296Y1005835D01*
X2326964Y1009167D01*
X2316966Y1012500D01*
X2303635D01*
X2293637Y1009167D01*
X2290305Y1005835D01*
X2286972Y999170D01*
Y989172D01*
X2290305Y982507D01*
X2296970Y975841D01*
X2306968Y972509D01*
X2320298Y969176D01*
X2326964Y965843D01*
X2330296Y959178D01*
Y952513D01*
X2326964Y945848D01*
X2316966Y942515D01*
X2303635D01*
X1941678Y700011D02*
X1935013Y703344D01*
X1928348Y710009D01*
X1925015Y716674D01*
Y730005D01*
X1928348Y736670D01*
X1935013Y743335D01*
X1941678Y746668D01*
X1951676Y750000D01*
X1968339D01*
X1978337Y746668D01*
X1985002Y743335D01*
X1991667Y736670D01*
X1995000Y730005D01*
Y716674D01*
X1991667Y710009D01*
X1985002Y703344D01*
X1978337Y700011D01*
X1941678Y677016D02*
X1938345D01*
X1931680Y673683D01*
X1928348Y670350D01*
X1925015Y663685D01*
Y650355D01*
X1928348Y643690D01*
X1931680Y640357D01*
X1938345Y637024D01*
X1945011D01*
X1951676Y640357D01*
X1961674Y647022D01*
X1995000Y680348D01*
Y633692D01*
X1938345Y618028D02*
X1935013Y611363D01*
X1925015Y601365D01*
X1995000D01*
X2028322Y1244989D02*
X2034988Y1241657D01*
X2041653Y1234991D01*
X2044985Y1228326D01*
Y1214996D01*
X2041653Y1208330D01*
X2034988Y1201665D01*
X2028322Y1198333D01*
X2018324Y1195000D01*
X2001661D01*
X1991664Y1198333D01*
X1984998Y1201665D01*
X1978333Y1208330D01*
X1975000Y1214996D01*
Y1228326D01*
X1978333Y1234991D01*
X1984998Y1241657D01*
X1991664Y1244989D01*
X2028322Y1267985D02*
X2031655D01*
X2038320Y1271317D01*
X2041653Y1274650D01*
X2044985Y1281315D01*
Y1294645D01*
X2041653Y1301311D01*
X2038320Y1304643D01*
X2031655Y1307976D01*
X2024990D01*
X2018324Y1304643D01*
X2008327Y1297978D01*
X1975000Y1264652D01*
Y1311309D01*
X2028322Y1330305D02*
X2031655D01*
X2038320Y1333637D01*
X2041653Y1336970D01*
X2044985Y1343635D01*
Y1356966D01*
X2041653Y1363631D01*
X2038320Y1366963D01*
X2031655Y1370296D01*
X2024990D01*
X2018324Y1366963D01*
X2008327Y1360298D01*
X1975000Y1326972D01*
Y1373629D01*
D135*
X1377519Y1462500D02*
X1467500D01*
Y1411083D01*
X1394658Y1401228D02*
X1390374Y1392658D01*
X1377519Y1379804D01*
X1467500D01*
X1398943Y1330957D02*
X1394658D01*
X1386089Y1326672D01*
X1381804Y1322387D01*
X1377519Y1313818D01*
Y1296678D01*
X1381804Y1288109D01*
X1386089Y1283824D01*
X1394658Y1279539D01*
X1403228D01*
X1411798Y1283824D01*
X1424652Y1292394D01*
X1467500Y1335242D01*
Y1275254D01*
X312519Y2407500D02*
X402500D01*
X312519D02*
Y2368937D01*
X316804Y2356082D01*
X321089Y2351797D01*
X329658Y2347513D01*
X338228D01*
X346797Y2351797D01*
X351082Y2356082D01*
X355367Y2368937D01*
Y2407500D01*
Y2377506D02*
X402500Y2347513D01*
X333943Y2323089D02*
X329658D01*
X321089Y2318804D01*
X316804Y2314520D01*
X312519Y2305950D01*
Y2288811D01*
X316804Y2280241D01*
X321089Y2275957D01*
X329658Y2271672D01*
X338228D01*
X346797Y2275957D01*
X359652Y2284526D01*
X402500Y2327374D01*
Y2267387D01*
X333943Y2242964D02*
X329658D01*
X321089Y2238679D01*
X316804Y2234394D01*
X312519Y2225824D01*
Y2208685D01*
X316804Y2200115D01*
X321089Y2195831D01*
X329658Y2191546D01*
X338228D01*
X346797Y2195831D01*
X359652Y2204400D01*
X402500Y2247248D01*
Y2187261D01*
X223557Y1916772D02*
X232127Y1912487D01*
X240696Y1903917D01*
X244981Y1895348D01*
Y1878209D01*
X240696Y1869639D01*
X232127Y1861070D01*
X223557Y1856785D01*
X210703Y1852500D01*
X189279D01*
X176424Y1856785D01*
X167855Y1861070D01*
X159285Y1869639D01*
X155000Y1878209D01*
Y1895348D01*
X159285Y1903917D01*
X167855Y1912487D01*
X176424Y1916772D01*
X227842Y1942052D02*
X232127Y1950622D01*
X244981Y1963476D01*
X155000D01*
X227842Y2008038D02*
X232127Y2016608D01*
X244981Y2029462D01*
X155000D01*
X313943Y2700728D02*
X305374Y2705013D01*
X296804Y2713583D01*
X292519Y2722152D01*
Y2739291D01*
X296804Y2747861D01*
X305374Y2756430D01*
X313943Y2760715D01*
X326797Y2765000D01*
X348222D01*
X361076Y2760715D01*
X369645Y2756430D01*
X378215Y2747861D01*
X382500Y2739291D01*
Y2722152D01*
X378215Y2713583D01*
X369645Y2705013D01*
X361076Y2700728D01*
X309658Y2675448D02*
X305374Y2666878D01*
X292519Y2654024D01*
X382500D01*
X292519Y2600892D02*
Y2553759D01*
X326797Y2579468D01*
Y2566614D01*
X331082Y2558044D01*
X335367Y2553759D01*
X348222Y2549475D01*
X356791D01*
X369645Y2553759D01*
X378215Y2562329D01*
X382500Y2575184D01*
Y2588038D01*
X378215Y2600892D01*
X373930Y2605177D01*
X365361Y2609462D01*
X244981Y2152500D02*
X155000D01*
Y2203917D01*
X232127Y2265190D02*
X240696Y2260905D01*
X244981Y2248051D01*
Y2239481D01*
X240696Y2226627D01*
X227842Y2218057D01*
X206418Y2213773D01*
X184994D01*
X167855Y2218057D01*
X159285Y2226627D01*
X155000Y2239481D01*
Y2243766D01*
X159285Y2256621D01*
X167855Y2265190D01*
X180709Y2269475D01*
X184994D01*
X197848Y2265190D01*
X206418Y2256621D01*
X210703Y2243766D01*
Y2239481D01*
X206418Y2226627D01*
X197848Y2218057D01*
X184994Y2213773D01*
X221057Y919272D02*
X229626Y914987D01*
X238196Y906417D01*
X242481Y897848D01*
Y880709D01*
X238196Y872139D01*
X229626Y863570D01*
X221057Y859285D01*
X208203Y855000D01*
X186778D01*
X173924Y859285D01*
X165355Y863570D01*
X156785Y872139D01*
X152500Y880709D01*
Y897848D01*
X156785Y906417D01*
X165355Y914987D01*
X173924Y919272D01*
X242481Y1004539D02*
X152500Y961691D01*
X242481Y944552D02*
Y1004539D01*
Y1155000D02*
X152500D01*
Y1206417D01*
X221057Y1220557D02*
X225342D01*
X233911Y1224842D01*
X238196Y1229127D01*
X242481Y1237696D01*
Y1254836D01*
X238196Y1263405D01*
X233911Y1267690D01*
X225342Y1271975D01*
X216772D01*
X208203Y1267690D01*
X195348Y1259120D01*
X152500Y1216272D01*
Y1276260D01*
X308943Y1655728D02*
X300374Y1660013D01*
X291804Y1668582D01*
X287519Y1677152D01*
Y1694291D01*
X291804Y1702861D01*
X300374Y1711430D01*
X308943Y1715715D01*
X321797Y1720000D01*
X343222D01*
X356076Y1715715D01*
X364645Y1711430D01*
X373215Y1702861D01*
X377500Y1694291D01*
Y1677152D01*
X373215Y1668582D01*
X364645Y1660013D01*
X356076Y1655728D01*
X317513Y1574745D02*
X330367Y1579030D01*
X338937Y1587600D01*
X343222Y1600454D01*
Y1604739D01*
X338937Y1617593D01*
X330367Y1626163D01*
X317513Y1630448D01*
X313228D01*
X300374Y1626163D01*
X291804Y1617593D01*
X287519Y1604739D01*
Y1600454D01*
X291804Y1587600D01*
X300374Y1579030D01*
X317513Y1574745D01*
X338937D01*
X360361Y1579030D01*
X373215Y1587600D01*
X377500Y1600454D01*
Y1609024D01*
X373215Y1621878D01*
X364645Y1626163D01*
X302519Y1410000D02*
X392500D01*
X302519D02*
Y1371436D01*
X306804Y1358582D01*
X311089Y1354297D01*
X319658Y1350013D01*
X328228D01*
X336797Y1354297D01*
X341082Y1358582D01*
X345367Y1371436D01*
Y1410000D01*
Y1380006D02*
X392500Y1350013D01*
X319658Y1329874D02*
X315374Y1321304D01*
X302519Y1308450D01*
X392500D01*
X302519Y1203901D02*
X392500Y1246749D01*
X302519Y1263888D02*
Y1203901D01*
X2160728Y1663557D02*
X2165013Y1672127D01*
X2173583Y1680696D01*
X2182152Y1684981D01*
X2199291D01*
X2207861Y1680696D01*
X2216430Y1672127D01*
X2220715Y1663557D01*
X2225000Y1650703D01*
Y1629279D01*
X2220715Y1616424D01*
X2216430Y1607855D01*
X2207861Y1599285D01*
X2199291Y1595000D01*
X2182152D01*
X2173583Y1599285D01*
X2165013Y1607855D01*
X2160728Y1616424D01*
X2131163Y1663557D02*
Y1667842D01*
X2126878Y1676411D01*
X2122593Y1680696D01*
X2114024Y1684981D01*
X2096885D01*
X2088315Y1680696D01*
X2084030Y1676411D01*
X2079745Y1667842D01*
Y1659272D01*
X2084030Y1650703D01*
X2092600Y1637848D01*
X2135448Y1595000D01*
X2075461D01*
X1999620Y1654988D02*
X2003905Y1642133D01*
X2012474Y1633564D01*
X2025328Y1629279D01*
X2029613D01*
X2042468Y1633564D01*
X2051037Y1642133D01*
X2055322Y1654988D01*
Y1659272D01*
X2051037Y1672127D01*
X2042468Y1680696D01*
X2029613Y1684981D01*
X2025328D01*
X2012474Y1680696D01*
X2003905Y1672127D01*
X1999620Y1654988D01*
Y1633564D01*
X2003905Y1612140D01*
X2012474Y1599285D01*
X2025328Y1595000D01*
X2033898D01*
X2046752Y1599285D01*
X2051037Y1607855D01*
X1377500Y677519D02*
Y767500D01*
X1428918D01*
X1438773Y694658D02*
X1447343Y690374D01*
X1460197Y677519D01*
Y767500D01*
X1530468Y677519D02*
X1517613Y681804D01*
X1509043Y694658D01*
X1504759Y716082D01*
Y728937D01*
X1509043Y750361D01*
X1517613Y763215D01*
X1530468Y767500D01*
X1539037D01*
X1551891Y763215D01*
X1560461Y750361D01*
X1564746Y728937D01*
Y716082D01*
X1560461Y694658D01*
X1551891Y681804D01*
X1539037Y677519D01*
X1530468D01*
X1538943Y1625728D02*
X1530374Y1630013D01*
X1521804Y1638583D01*
X1517519Y1647152D01*
Y1664291D01*
X1521804Y1672861D01*
X1530374Y1681430D01*
X1538943Y1685715D01*
X1551798Y1690000D01*
X1573222D01*
X1586076Y1685715D01*
X1594646Y1681430D01*
X1603215Y1672861D01*
X1607500Y1664291D01*
Y1647152D01*
X1603215Y1638583D01*
X1594646Y1630013D01*
X1586076Y1625728D01*
X1538943Y1596163D02*
X1534658D01*
X1526089Y1591878D01*
X1521804Y1587593D01*
X1517519Y1579024D01*
Y1561885D01*
X1521804Y1553315D01*
X1526089Y1549030D01*
X1534658Y1544745D01*
X1543228D01*
X1551798Y1549030D01*
X1564652Y1557600D01*
X1607500Y1600448D01*
Y1540461D01*
X1517519Y1511752D02*
Y1464620D01*
X1551798Y1490328D01*
Y1477474D01*
X1556082Y1468905D01*
X1560367Y1464620D01*
X1573222Y1460335D01*
X1581791D01*
X1594646Y1464620D01*
X1603215Y1473189D01*
X1607500Y1486044D01*
Y1498898D01*
X1603215Y1511752D01*
X1598930Y1516037D01*
X1590361Y1520322D01*
X1423557Y876772D02*
X1432127Y872487D01*
X1440696Y863918D01*
X1444981Y855348D01*
Y838209D01*
X1440696Y829639D01*
X1432127Y821070D01*
X1423557Y816785D01*
X1410703Y812500D01*
X1389279D01*
X1376424Y816785D01*
X1367855Y821070D01*
X1359285Y829639D01*
X1355000Y838209D01*
Y855348D01*
X1359285Y863918D01*
X1367855Y872487D01*
X1376424Y876772D01*
X1444981Y944901D02*
X1384994Y902053D01*
Y966324D01*
X1444981Y944901D02*
X1355000D01*
X1444981Y990748D02*
Y1037881D01*
X1410703Y1012172D01*
Y1025026D01*
X1406418Y1033596D01*
X1402133Y1037881D01*
X1389279Y1042166D01*
X1380709D01*
X1367855Y1037881D01*
X1359285Y1029311D01*
X1355000Y1016457D01*
Y1003602D01*
X1359285Y990748D01*
X1363570Y986463D01*
X1372139Y982178D01*
X1661057Y436772D02*
X1669627Y432487D01*
X1678196Y423918D01*
X1682481Y415348D01*
Y398209D01*
X1678196Y389639D01*
X1669627Y381070D01*
X1661057Y376785D01*
X1648203Y372500D01*
X1626779D01*
X1613924Y376785D01*
X1605355Y381070D01*
X1596785Y389639D01*
X1592500Y398209D01*
Y415348D01*
X1596785Y423918D01*
X1605355Y432487D01*
X1613924Y436772D01*
X1682481Y470622D02*
Y517755D01*
X1648203Y492046D01*
Y504900D01*
X1643918Y513470D01*
X1639633Y517755D01*
X1626779Y522040D01*
X1618209D01*
X1605355Y517755D01*
X1596785Y509185D01*
X1592500Y496331D01*
Y483476D01*
X1596785Y470622D01*
X1601070Y466337D01*
X1609639Y462052D01*
X1682481Y585026D02*
X1622494Y542178D01*
Y606450D01*
X1682481Y585026D02*
X1592500D01*
X1781443Y1585728D02*
X1772874Y1590013D01*
X1764304Y1598583D01*
X1760019Y1607152D01*
Y1624291D01*
X1764304Y1632861D01*
X1772874Y1641431D01*
X1781443Y1645716D01*
X1794298Y1650000D01*
X1815722D01*
X1828576Y1645716D01*
X1837146Y1641431D01*
X1845715Y1632861D01*
X1850000Y1624291D01*
Y1607152D01*
X1845715Y1598583D01*
X1837146Y1590013D01*
X1828576Y1585728D01*
X1760019Y1517600D02*
X1820007Y1560448D01*
Y1496176D01*
X1760019Y1517600D02*
X1850000D01*
X1760019Y1428905D02*
Y1471752D01*
X1798583Y1476037D01*
X1794298Y1471752D01*
X1790013Y1458898D01*
Y1446044D01*
X1794298Y1433189D01*
X1802867Y1424620D01*
X1815722Y1420335D01*
X1824291D01*
X1837146Y1424620D01*
X1845715Y1433189D01*
X1850000Y1446044D01*
Y1458898D01*
X1845715Y1471752D01*
X1841430Y1476037D01*
X1832861Y1480322D01*
X1909981Y295000D02*
X1820000D01*
Y346418D01*
X1879987Y411975D02*
X1867133Y407690D01*
X1858563Y399121D01*
X1854278Y386266D01*
Y381982D01*
X1858563Y369127D01*
X1867133Y360558D01*
X1879987Y356273D01*
X1884272D01*
X1897127Y360558D01*
X1905696Y369127D01*
X1909981Y381982D01*
Y386266D01*
X1905696Y399121D01*
X1897127Y407690D01*
X1879987Y411975D01*
X1858563D01*
X1837139Y407690D01*
X1824285Y399121D01*
X1820000Y386266D01*
Y377697D01*
X1824285Y364843D01*
X1832855Y360558D01*
X2590728Y1098557D02*
X2595013Y1107127D01*
X2603583Y1115696D01*
X2612152Y1119981D01*
X2629291D01*
X2637861Y1115696D01*
X2646431Y1107127D01*
X2650716Y1098557D01*
X2655000Y1085703D01*
Y1064279D01*
X2650716Y1051424D01*
X2646431Y1042855D01*
X2637861Y1034285D01*
X2629291Y1030000D01*
X2612152D01*
X2603583Y1034285D01*
X2595013Y1042855D01*
X2590728Y1051424D01*
X2556878Y1119981D02*
X2509746D01*
X2535454Y1085703D01*
X2522600D01*
X2514031Y1081418D01*
X2509746Y1077133D01*
X2505461Y1064279D01*
Y1055709D01*
X2509746Y1042855D01*
X2518315Y1034285D01*
X2531170Y1030000D01*
X2544024D01*
X2556878Y1034285D01*
X2561163Y1038570D01*
X2565448Y1047139D01*
X2429620Y1089987D02*
X2433905Y1077133D01*
X2442474Y1068564D01*
X2455329Y1064279D01*
X2459613D01*
X2472468Y1068564D01*
X2481037Y1077133D01*
X2485322Y1089987D01*
Y1094272D01*
X2481037Y1107127D01*
X2472468Y1115696D01*
X2459613Y1119981D01*
X2455329D01*
X2442474Y1115696D01*
X2433905Y1107127D01*
X2429620Y1089987D01*
Y1068564D01*
X2433905Y1047139D01*
X2442474Y1034285D01*
X2455329Y1030000D01*
X2463898D01*
X2476752Y1034285D01*
X2481037Y1042855D01*
X2655000Y979981D02*
Y890000D01*
X2603583D01*
X2593728Y962842D02*
X2585158Y967127D01*
X2572304Y979981D01*
Y890000D01*
X2527742Y962842D02*
X2519172Y967127D01*
X2506318Y979981D01*
Y890000D01*
D136*
X2317511Y1467500D02*
X2367500D01*
X2317511D02*
Y1446076D01*
X2319891Y1438935D01*
X2322272Y1436554D01*
X2327032Y1434174D01*
X2331793D01*
X2336554Y1436554D01*
X2338935Y1438935D01*
X2341315Y1446076D01*
Y1467500D01*
Y1450837D02*
X2367500Y1434174D01*
X2329413Y1420605D02*
X2327032D01*
X2322272Y1418225D01*
X2319891Y1415845D01*
X2317511Y1411084D01*
Y1401562D01*
X2319891Y1396801D01*
X2322272Y1394420D01*
X2327032Y1392040D01*
X2331793D01*
X2336554Y1394420D01*
X2343696Y1399181D01*
X2367500Y1422986D01*
Y1389660D01*
X2324652Y1349906D02*
X2319891Y1352287D01*
X2317511Y1359428D01*
Y1364189D01*
X2319891Y1371330D01*
X2327032Y1376091D01*
X2338935Y1378471D01*
X2350837D01*
X2360359Y1376091D01*
X2365119Y1371330D01*
X2367500Y1364189D01*
Y1361808D01*
X2365119Y1354667D01*
X2360359Y1349906D01*
X2353217Y1347526D01*
X2350837D01*
X2343696Y1349906D01*
X2338935Y1354667D01*
X2336554Y1361808D01*
Y1364189D01*
X2338935Y1371330D01*
X2343696Y1376091D01*
X2350837Y1378471D01*
X2222489Y1287500D02*
X2172500D01*
X2222489D02*
Y1308924D01*
X2220109Y1316065D01*
X2217728Y1318446D01*
X2212968Y1320826D01*
X2208207D01*
X2203446Y1318446D01*
X2201065Y1316065D01*
X2198685Y1308924D01*
Y1287500D01*
Y1304163D02*
X2172500Y1320826D01*
X2210587Y1334395D02*
X2212968D01*
X2217728Y1336775D01*
X2220109Y1339156D01*
X2222489Y1343917D01*
Y1353438D01*
X2220109Y1358199D01*
X2217728Y1360580D01*
X2212968Y1362960D01*
X2208207D01*
X2203446Y1360580D01*
X2196304Y1355819D01*
X2172500Y1332014D01*
Y1365340D01*
X2222489Y1405094D02*
Y1381290D01*
X2201065Y1378909D01*
X2203446Y1381290D01*
X2205826Y1388431D01*
Y1395572D01*
X2203446Y1402713D01*
X2198685Y1407474D01*
X2191543Y1409855D01*
X2186783D01*
X2179641Y1407474D01*
X2174881Y1402713D01*
X2172500Y1395572D01*
Y1388431D01*
X2174881Y1381290D01*
X2177261Y1378909D01*
X2182022Y1376529D01*
X2127489Y297500D02*
X2077500D01*
X2127489D02*
Y318924D01*
X2125109Y326065D01*
X2122728Y328446D01*
X2117968Y330826D01*
X2113207D01*
X2108446Y328446D01*
X2106065Y326065D01*
X2103685Y318924D01*
Y297500D01*
Y314163D02*
X2077500Y330826D01*
X2127489Y346775D02*
Y372960D01*
X2108446Y358677D01*
Y365819D01*
X2106065Y370580D01*
X2103685Y372960D01*
X2096543Y375340D01*
X2091783D01*
X2084641Y372960D01*
X2079881Y368199D01*
X2077500Y361058D01*
Y353916D01*
X2079881Y346775D01*
X2082261Y344395D01*
X2087022Y342014D01*
X2127489Y410333D02*
X2094163Y386529D01*
Y422235D01*
X2127489Y410333D02*
X2077500D01*
X2077511Y272500D02*
X2127500D01*
X2077511D02*
Y251076D01*
X2079891Y243934D01*
X2082272Y241554D01*
X2087032Y239174D01*
X2091793D01*
X2096554Y241554D01*
X2098935Y243934D01*
X2101315Y251076D01*
Y272500D01*
Y255837D02*
X2127500Y239174D01*
X2077511Y223225D02*
Y197040D01*
X2096554Y211322D01*
Y204181D01*
X2098935Y199420D01*
X2101315Y197040D01*
X2108457Y194660D01*
X2113217D01*
X2120359Y197040D01*
X2125119Y201801D01*
X2127500Y208942D01*
Y216083D01*
X2125119Y223225D01*
X2122739Y225605D01*
X2117978Y227986D01*
X2077511Y178710D02*
Y152526D01*
X2096554Y166808D01*
Y159667D01*
X2098935Y154906D01*
X2101315Y152526D01*
X2108457Y150145D01*
X2113217D01*
X2120359Y152526D01*
X2125119Y157286D01*
X2127500Y164428D01*
Y171569D01*
X2125119Y178710D01*
X2122739Y181091D01*
X2117978Y183471D01*
%TF.MD5,931b2e8d84b4d0835ffb469d3d544c7b*%
M02*
