%TF.GenerationSoftware,Altium Limited,Altium Designer,20.1.12 (249)*%
G04 Layer_Color=5220458*
%FSLAX45Y45*%
%MOMM*%
%TF.SameCoordinates,4EE8302A-A9A8-49E0-93C5-14594FCB678D*%
%TF.FilePolarity,Positive*%
%TF.FileFunction,Other,M16_-_Bottom_Courtyard*%
%TF.Part,Single*%
G01*
G75*
%TA.AperFunction,NonConductor*%
%ADD138C,0.01000*%
D138*
X800000Y1137500D02*
X920000D01*
X800000Y1387500D02*
X920000D01*
Y1137500D02*
Y1387500D01*
X800000Y1137500D02*
Y1387500D01*
X860000Y1227500D02*
Y1297500D01*
X825000Y1262500D02*
X895000D01*
X430000Y2492500D02*
X810000D01*
X430000Y2072500D02*
X810000D01*
X430000D02*
Y2492500D01*
X810000Y2072500D02*
Y2492500D01*
X620000Y2252500D02*
Y2312500D01*
X590000Y2282500D02*
X650000D01*
X420000Y1460000D02*
X800000D01*
X420000Y1040000D02*
X800000D01*
X420000D02*
Y1460000D01*
X800000Y1040000D02*
Y1460000D01*
X610000Y1220000D02*
Y1280000D01*
X580000Y1250000D02*
X640000D01*
X1347500Y1487500D02*
X1497500D01*
X1347500Y1177500D02*
X1497500D01*
X1347500D02*
Y1487500D01*
X1497500Y1177500D02*
Y1487500D01*
X1422500Y1285000D02*
Y1380000D01*
X1375000Y1332500D02*
X1470000D01*
X307500Y2277500D02*
X407500D01*
X357500Y2227500D02*
Y2327500D01*
X277500Y2437500D02*
X437500D01*
Y2117500D02*
Y2437500D01*
X277500Y2117500D02*
X437500D01*
X277500D02*
Y2437500D01*
X1507500Y1180000D02*
X1617500D01*
X1507500D02*
Y1370000D01*
X1617500D01*
Y1180000D02*
Y1370000D01*
X1562500Y1237500D02*
Y1312500D01*
X1525000Y1275000D02*
X1600000D01*
X125000Y1832500D02*
X275000D01*
X125000Y2132500D02*
X275000D01*
Y1832500D02*
Y2132500D01*
X125000Y1832500D02*
Y2132500D01*
X200000Y1935000D02*
Y2030000D01*
X152500Y1982500D02*
X247500D01*
X835000Y2262500D02*
X905000D01*
X870000Y2227500D02*
Y2297500D01*
X810000Y2137500D02*
Y2387500D01*
X930000Y2137500D02*
Y2387500D01*
X810000D02*
X930000D01*
X810000Y2137500D02*
X930000D01*
X425000Y2580000D02*
X500000D01*
X462500Y2542500D02*
Y2617500D01*
X407500Y2485000D02*
Y2675000D01*
Y2485000D02*
X517500D01*
Y2675000D01*
X407500D02*
X517500D01*
X262500Y2785000D02*
X412500D01*
X262500Y2485000D02*
X412500D01*
X262500D02*
Y2785000D01*
X412500Y2485000D02*
Y2785000D01*
X337500Y2587500D02*
Y2682500D01*
X290000Y2635000D02*
X385000D01*
X152500Y2282500D02*
X247500D01*
X200000Y2235000D02*
Y2330000D01*
X125000Y2127500D02*
Y2437500D01*
X275000Y2127500D02*
Y2437500D01*
X125000D02*
X275000D01*
X125000Y2127500D02*
X275000D01*
X295000Y2022500D02*
X370000D01*
X332500Y1985000D02*
Y2060000D01*
X387500Y1927500D02*
Y2117500D01*
X277500D02*
X387500D01*
X277500Y1927500D02*
Y2117500D01*
Y1927500D02*
X387500D01*
X420000Y1537500D02*
X495000D01*
X457500Y1500000D02*
Y1575000D01*
X402500Y1442500D02*
Y1632500D01*
Y1442500D02*
X512500D01*
Y1632500D01*
X402500D02*
X512500D01*
X122500Y835000D02*
X272500D01*
X122500Y1135000D02*
X272500D01*
Y835000D02*
Y1135000D01*
X122500Y835000D02*
Y1135000D01*
X197500Y937500D02*
Y1032500D01*
X150000Y985000D02*
X245000D01*
X292500Y1025000D02*
X367500D01*
X330000Y987500D02*
Y1062500D01*
X385000Y930000D02*
Y1120000D01*
X275000D02*
X385000D01*
X275000Y930000D02*
Y1120000D01*
Y930000D02*
X385000D01*
X150000Y1285000D02*
X245000D01*
X197500Y1237500D02*
Y1332500D01*
X122500Y1130000D02*
Y1440000D01*
X272500Y1130000D02*
Y1440000D01*
X122500D02*
X272500D01*
X122500Y1130000D02*
X272500D01*
X257500Y1740000D02*
X407500D01*
X257500Y1440000D02*
X407500D01*
X257500D02*
Y1740000D01*
X407500Y1440000D02*
Y1740000D01*
X332500Y1542500D02*
Y1637500D01*
X285000Y1590000D02*
X380000D01*
X267500Y1120000D02*
Y1440000D01*
Y1120000D02*
X427500D01*
Y1440000D01*
X267500D02*
X427500D01*
X347500Y1230000D02*
Y1330000D01*
X297500Y1280000D02*
X397500D01*
X2292500Y1270000D02*
X2392500D01*
X2292500Y1480000D02*
X2392500D01*
Y1270000D02*
Y1480000D01*
X2292500Y1270000D02*
Y1480000D01*
X2342500Y1340000D02*
Y1410000D01*
X2307500Y1375000D02*
X2377500D01*
X2147500Y1485000D02*
X2247500D01*
X2147500Y1275000D02*
X2247500D01*
X2147500D02*
Y1485000D01*
X2247500Y1275000D02*
Y1485000D01*
X2197500Y1345000D02*
Y1415000D01*
X2162500Y1380000D02*
X2232500D01*
X2052500Y495000D02*
X2152500D01*
X2052500Y285000D02*
X2152500D01*
X2052500D02*
Y495000D01*
X2152500Y285000D02*
Y495000D01*
X2102500Y355000D02*
Y425000D01*
X2067500Y390000D02*
X2137500D01*
X2170000Y395000D02*
X2245000D01*
X2207500Y357500D02*
Y432500D01*
X2262500Y300000D02*
Y490000D01*
X2152500D02*
X2262500D01*
X2152500Y300000D02*
Y490000D01*
Y300000D02*
X2262500D01*
X2052500Y75000D02*
X2152500D01*
X2052500Y285000D02*
X2152500D01*
Y75000D02*
Y285000D01*
X2052500Y75000D02*
Y285000D01*
X2102500Y145000D02*
Y215000D01*
X2067500Y180000D02*
X2137500D01*
X2245000Y1565000D02*
Y1715000D01*
X1945000Y1565000D02*
Y1715000D01*
X2245000D01*
X1945000Y1565000D02*
X2245000D01*
X2047500Y1640000D02*
X2142500D01*
X2095000Y1592500D02*
Y1687500D01*
X2040000Y1477500D02*
Y1552500D01*
X2002500Y1515000D02*
X2077500D01*
X1945000Y1570000D02*
X2135000D01*
X1945000Y1460000D02*
Y1570000D01*
Y1460000D02*
X2135000D01*
Y1570000D01*
X1507500Y675000D02*
Y770000D01*
X1460000Y722500D02*
X1555000D01*
X1352500Y797500D02*
X1662500D01*
X1352500Y647500D02*
X1662500D01*
Y797500D01*
X1352500Y647500D02*
Y797500D01*
X1827500Y670000D02*
X1902500D01*
X1865000Y632500D02*
Y707500D01*
X1810000Y575000D02*
Y765000D01*
Y575000D02*
X1920000D01*
Y765000D01*
X1810000D02*
X1920000D01*
X2070000Y1275000D02*
X2145000D01*
X2107500Y1237500D02*
Y1312500D01*
X2162500Y1180000D02*
Y1370000D01*
X2052500D02*
X2162500D01*
X2052500Y1180000D02*
Y1370000D01*
Y1180000D02*
X2162500D01*
X1487500Y1710000D02*
X1637500D01*
X1487500Y1410000D02*
X1637500D01*
X1487500D02*
Y1710000D01*
X1637500Y1410000D02*
Y1710000D01*
X1562500Y1512500D02*
Y1607500D01*
X1515000Y1560000D02*
X1610000D01*
X1622500Y1275000D02*
X1697500D01*
X1660000Y1237500D02*
Y1312500D01*
X1715000Y1180000D02*
Y1370000D01*
X1605000D02*
X1715000D01*
X1605000Y1180000D02*
Y1370000D01*
Y1180000D02*
X1715000D01*
X1632500Y810000D02*
Y885000D01*
X1595000Y847500D02*
X1670000D01*
X1537500Y902500D02*
X1727500D01*
X1537500Y792500D02*
Y902500D01*
Y792500D02*
X1727500D01*
Y902500D01*
X1875000Y1275000D02*
X1950000D01*
X1912500Y1237500D02*
Y1312500D01*
X1967500Y1180000D02*
Y1370000D01*
X1857500D02*
X1967500D01*
X1857500Y1180000D02*
Y1370000D01*
Y1180000D02*
X1967500D01*
X1632500Y1060000D02*
Y1135000D01*
X1595000Y1097500D02*
X1670000D01*
X1537500Y1152500D02*
X1727500D01*
X1537500Y1042500D02*
Y1152500D01*
Y1042500D02*
X1727500D01*
Y1152500D01*
X1325000Y792500D02*
X1475000D01*
X1325000Y1092500D02*
X1475000D01*
Y792500D02*
Y1092500D01*
X1325000Y792500D02*
Y1092500D01*
X1400000Y895000D02*
Y990000D01*
X1352500Y942500D02*
X1447500D01*
X1632500Y910000D02*
Y985000D01*
X1595000Y947500D02*
X1670000D01*
X1537500Y1002500D02*
X1727500D01*
X1537500Y892500D02*
Y1002500D01*
Y892500D02*
X1727500D01*
Y1002500D01*
X1562500Y352500D02*
X1712500D01*
X1562500Y652500D02*
X1712500D01*
Y352500D02*
Y652500D01*
X1562500Y352500D02*
Y652500D01*
X1637500Y455000D02*
Y550000D01*
X1590000Y502500D02*
X1685000D01*
X1722500Y670000D02*
X1797500D01*
X1760000Y632500D02*
Y707500D01*
X1705000Y575000D02*
Y765000D01*
Y575000D02*
X1815000D01*
Y765000D01*
X1705000D02*
X1815000D01*
X1757500Y1520000D02*
X1852500D01*
X1805000Y1472500D02*
Y1567500D01*
X1880000Y1370001D02*
Y1670000D01*
X1730000Y1370001D02*
Y1670000D01*
Y1370001D02*
X1880000D01*
X1730000Y1670000D02*
X1880000D01*
X1707500Y1180000D02*
X1817500D01*
X1707500D02*
Y1370000D01*
X1817500D01*
Y1180000D02*
Y1370000D01*
X1762500Y1237500D02*
Y1312500D01*
X1725000Y1275000D02*
X1800000D01*
X1790000Y270000D02*
X1940000D01*
X1790000Y580000D02*
X1940000D01*
Y270000D02*
Y580000D01*
X1790000Y270000D02*
Y580000D01*
X1865000Y377500D02*
Y472500D01*
X1817500Y425000D02*
X1912500D01*
X2525000Y1027500D02*
Y1122500D01*
X2477500Y1075000D02*
X2572500D01*
X2375001Y1000000D02*
X2675000D01*
X2375001Y1150000D02*
X2675000D01*
X2375001Y1000000D02*
Y1150000D01*
X2675000Y1000000D02*
Y1150000D01*
X2140000Y1020000D02*
Y1130000D01*
X2330000D01*
Y1020000D02*
Y1130000D01*
X2140000Y1020000D02*
X2330000D01*
X2197500Y1075000D02*
X2272500D01*
X2235000Y1037500D02*
Y1112500D01*
X2680000Y860000D02*
Y1010000D01*
X2370000Y860000D02*
Y1010000D01*
X2680000D01*
X2370000Y860000D02*
X2680000D01*
X2477500Y935000D02*
X2572500D01*
X2525000Y887500D02*
Y982500D01*
X2140000Y832500D02*
Y942500D01*
X2330000D01*
Y832500D02*
Y942500D01*
X2140000Y832500D02*
X2330000D01*
X2197500Y887500D02*
X2272500D01*
X2235000Y850000D02*
Y925000D01*
X2140000Y922500D02*
Y1032500D01*
X2330000D01*
Y922500D02*
Y1032500D01*
X2140000Y922500D02*
X2330000D01*
X2197500Y977500D02*
X2272500D01*
X2235000Y940000D02*
Y1015000D01*
X1905000Y765000D02*
X2015000D01*
Y575000D02*
Y765000D01*
X1905000Y575000D02*
X2015000D01*
X1905000D02*
Y765000D01*
X1960000Y632500D02*
Y707500D01*
X1922500Y670000D02*
X1997500D01*
X1955000Y1180000D02*
X2065000D01*
X1955000D02*
Y1370000D01*
X2065000D01*
Y1180000D02*
Y1370000D01*
X2010000Y1237500D02*
Y1312500D01*
X1972500Y1275000D02*
X2047500D01*
%TF.MD5,4dd4e4f554291206f713bcbc50a9f8ef*%
M02*
