%TF.GenerationSoftware,Altium Limited,Altium Designer,20.1.12 (249)*%
G04 Layer_Color=8388736*
%FSLAX45Y45*%
%MOMM*%
%TF.SameCoordinates,4EE8302A-A9A8-49E0-93C5-14594FCB678D*%
%TF.FilePolarity,Positive*%
%TF.FileFunction,Other,M22-_Assy_Value-B*%
%TF.Part,Single*%
G01*
G75*
%TA.AperFunction,NonConductor*%
%ADD134C,0.07000*%
%ADD135C,0.09000*%
%ADD136C,0.05000*%
D134*
X894985Y1396665D02*
Y1433324D01*
X868324Y1413328D01*
Y1423326D01*
X864992Y1429992D01*
X861659Y1433324D01*
X851661Y1436657D01*
X844996D01*
X834998Y1433324D01*
X828333Y1426659D01*
X825000Y1416661D01*
Y1406663D01*
X828333Y1396665D01*
X831665Y1393333D01*
X838331Y1390000D01*
X894985Y1458985D02*
Y1495644D01*
X868324Y1475649D01*
Y1485647D01*
X864992Y1492312D01*
X861659Y1495644D01*
X851661Y1498977D01*
X844996D01*
X834998Y1495644D01*
X828333Y1488979D01*
X825000Y1478981D01*
Y1468983D01*
X828333Y1458985D01*
X831665Y1455653D01*
X838331Y1452320D01*
X894985Y1534636D02*
X891653Y1524638D01*
X881655Y1517973D01*
X864992Y1514640D01*
X854994D01*
X838331Y1517973D01*
X828333Y1524638D01*
X825000Y1534636D01*
Y1541301D01*
X828333Y1551299D01*
X838331Y1557964D01*
X854994Y1561297D01*
X864992D01*
X881655Y1557964D01*
X891653Y1551299D01*
X894985Y1541301D01*
Y1534636D01*
Y1576961D02*
X825000D01*
X894985D02*
Y1606954D01*
X891653Y1616952D01*
X888320Y1620285D01*
X881655Y1623617D01*
X874990D01*
X868324Y1620285D01*
X864992Y1616952D01*
X861659Y1606954D01*
Y1576961D01*
Y1600289D02*
X825000Y1623617D01*
X894985Y1714265D02*
X891653Y1704267D01*
X881655Y1697602D01*
X864992Y1694269D01*
X854994D01*
X838331Y1697602D01*
X828333Y1704267D01*
X825000Y1714265D01*
Y1720930D01*
X828333Y1730928D01*
X838331Y1737593D01*
X854994Y1740926D01*
X864992D01*
X881655Y1737593D01*
X891653Y1730928D01*
X894985Y1720930D01*
Y1714265D01*
X831665Y1759922D02*
X828333Y1756589D01*
X825000Y1759922D01*
X828333Y1763254D01*
X831665Y1759922D01*
X894985Y1825241D02*
X825000Y1791915D01*
X894985Y1778584D02*
Y1825241D01*
X825000Y1894227D02*
X894985Y1867566D01*
X825000Y1840905D01*
X848329Y1850903D02*
Y1884229D01*
X878322Y1968877D02*
X881655D01*
X888320Y1972210D01*
X891653Y1975543D01*
X894985Y1982208D01*
Y1995538D01*
X891653Y2002204D01*
X888320Y2005536D01*
X881655Y2008869D01*
X874990D01*
X868324Y2005536D01*
X858326Y1998871D01*
X825000Y1965545D01*
Y2012201D01*
X894985Y2044528D02*
X891653Y2034530D01*
X884987Y2031198D01*
X878322D01*
X871657Y2034530D01*
X868324Y2041195D01*
X864992Y2054526D01*
X861659Y2064524D01*
X854994Y2071189D01*
X848329Y2074522D01*
X838331D01*
X831665Y2071189D01*
X828333Y2067856D01*
X825000Y2057858D01*
Y2044528D01*
X828333Y2034530D01*
X831665Y2031198D01*
X838331Y2027865D01*
X848329D01*
X854994Y2031198D01*
X861659Y2037863D01*
X864992Y2047861D01*
X868324Y2061191D01*
X871657Y2067856D01*
X878322Y2071189D01*
X884987D01*
X891653Y2067856D01*
X894985Y2057858D01*
Y2044528D01*
Y2110181D02*
X891653Y2100183D01*
X881655Y2093518D01*
X864992Y2090185D01*
X854994D01*
X838331Y2093518D01*
X828333Y2100183D01*
X825000Y2110181D01*
Y2116846D01*
X828333Y2126844D01*
X838331Y2133509D01*
X854994Y2136842D01*
X864992D01*
X881655Y2133509D01*
X891653Y2126844D01*
X894985Y2116846D01*
Y2110181D01*
X871657Y2152505D02*
X825000D01*
X858326D02*
X868324Y2162503D01*
X871657Y2169168D01*
Y2179166D01*
X868324Y2185832D01*
X858326Y2189164D01*
X825000D01*
X858326D02*
X868324Y2199162D01*
X871657Y2205827D01*
Y2215825D01*
X868324Y2222490D01*
X858326Y2225823D01*
X825000D01*
X894985Y2247818D02*
X825000D01*
X894985D02*
Y2277812D01*
X891653Y2287810D01*
X888320Y2291142D01*
X881655Y2294475D01*
X874990D01*
X868324Y2291142D01*
X864992Y2287810D01*
X861659Y2277812D01*
Y2247818D01*
Y2271147D02*
X825000Y2294475D01*
X598345Y2155000D02*
X595013Y2148335D01*
X585015Y2138337D01*
X655000D01*
X585015Y2083682D02*
X588348Y2093679D01*
X598345Y2100345D01*
X615008Y2103677D01*
X625006D01*
X641670Y2100345D01*
X651667Y2093679D01*
X655000Y2083682D01*
Y2077016D01*
X651667Y2067018D01*
X641670Y2060353D01*
X625006Y2057021D01*
X615008D01*
X598345Y2060353D01*
X588348Y2067018D01*
X585015Y2077016D01*
Y2083682D01*
X608343Y2041357D02*
X641670D01*
X651667Y2038024D01*
X655000Y2031359D01*
Y2021361D01*
X651667Y2014696D01*
X641670Y2004698D01*
X608343D02*
X655000D01*
X588345Y1122500D02*
X585013Y1115835D01*
X575015Y1105837D01*
X645000D01*
X575015Y1051182D02*
X578348Y1061179D01*
X588345Y1067845D01*
X605008Y1071177D01*
X615006D01*
X631670Y1067845D01*
X641667Y1061179D01*
X645000Y1051182D01*
Y1044516D01*
X641667Y1034519D01*
X631670Y1027853D01*
X615006Y1024521D01*
X605008D01*
X588345Y1027853D01*
X578348Y1034519D01*
X575015Y1044516D01*
Y1051182D01*
X598343Y1008857D02*
X631670D01*
X641667Y1005525D01*
X645000Y998859D01*
Y988862D01*
X641667Y982196D01*
X631670Y972198D01*
X598343D02*
X645000D01*
X1584155Y1402500D02*
X1587487Y1409165D01*
X1597485Y1419163D01*
X1527500D01*
X1597485Y1473818D02*
X1594153Y1463821D01*
X1584155Y1457155D01*
X1567492Y1453823D01*
X1557494D01*
X1540831Y1457155D01*
X1530833Y1463821D01*
X1527500Y1473818D01*
Y1480484D01*
X1530833Y1490481D01*
X1540831Y1497147D01*
X1557494Y1500479D01*
X1567492D01*
X1584155Y1497147D01*
X1594153Y1490481D01*
X1597485Y1480484D01*
Y1473818D01*
Y1536138D02*
X1594153Y1526141D01*
X1584155Y1519475D01*
X1567492Y1516143D01*
X1557494D01*
X1540831Y1519475D01*
X1530833Y1526141D01*
X1527500Y1536138D01*
Y1542804D01*
X1530833Y1552802D01*
X1540831Y1559467D01*
X1557494Y1562800D01*
X1567492D01*
X1584155Y1559467D01*
X1594153Y1552802D01*
X1597485Y1542804D01*
Y1536138D01*
X1574157Y1578463D02*
X1527500D01*
X1560826D02*
X1570824Y1588461D01*
X1574157Y1595126D01*
Y1605124D01*
X1570824Y1611789D01*
X1560826Y1615122D01*
X1527500D01*
X904985Y2396665D02*
Y2433324D01*
X878324Y2413328D01*
Y2423326D01*
X874992Y2429992D01*
X871659Y2433324D01*
X861661Y2436657D01*
X854996D01*
X844998Y2433324D01*
X838333Y2426659D01*
X835000Y2416661D01*
Y2406663D01*
X838333Y2396665D01*
X841665Y2393333D01*
X848331Y2390000D01*
X904985Y2458985D02*
Y2495644D01*
X878324Y2475649D01*
Y2485647D01*
X874992Y2492312D01*
X871659Y2495644D01*
X861661Y2498977D01*
X854996D01*
X844998Y2495644D01*
X838333Y2488979D01*
X835000Y2478981D01*
Y2468983D01*
X838333Y2458985D01*
X841665Y2455653D01*
X848331Y2452320D01*
X904985Y2534636D02*
X901653Y2524638D01*
X891655Y2517973D01*
X874992Y2514640D01*
X864994D01*
X848331Y2517973D01*
X838333Y2524638D01*
X835000Y2534636D01*
Y2541301D01*
X838333Y2551299D01*
X848331Y2557964D01*
X864994Y2561297D01*
X874992D01*
X891655Y2557964D01*
X901653Y2551299D01*
X904985Y2541301D01*
Y2534636D01*
Y2576961D02*
X835000D01*
X904985D02*
Y2606954D01*
X901653Y2616952D01*
X898320Y2620285D01*
X891655Y2623617D01*
X884990D01*
X878324Y2620285D01*
X874992Y2616952D01*
X871659Y2606954D01*
Y2576961D01*
Y2600289D02*
X835000Y2623617D01*
X904985Y2714265D02*
X901653Y2704267D01*
X891655Y2697602D01*
X874992Y2694269D01*
X864994D01*
X848331Y2697602D01*
X838333Y2704267D01*
X835000Y2714265D01*
Y2720930D01*
X838333Y2730928D01*
X848331Y2737593D01*
X864994Y2740926D01*
X874992D01*
X891655Y2737593D01*
X901653Y2730928D01*
X904985Y2720930D01*
Y2714265D01*
X841665Y2759922D02*
X838333Y2756589D01*
X835000Y2759922D01*
X838333Y2763254D01*
X841665Y2759922D01*
X904985Y2825241D02*
X835000Y2791915D01*
X904985Y2778584D02*
Y2825241D01*
X835000Y2894227D02*
X904985Y2867566D01*
X835000Y2840905D01*
X858328Y2850903D02*
Y2884229D01*
X888322Y2968877D02*
X891655D01*
X898320Y2972210D01*
X901653Y2975543D01*
X904985Y2982208D01*
Y2995538D01*
X901653Y3002204D01*
X898320Y3005536D01*
X891655Y3008869D01*
X884990D01*
X878324Y3005536D01*
X868326Y2998871D01*
X835000Y2965545D01*
Y3012201D01*
X904985Y3044528D02*
X901653Y3034530D01*
X894987Y3031198D01*
X888322D01*
X881657Y3034530D01*
X878324Y3041195D01*
X874992Y3054526D01*
X871659Y3064524D01*
X864994Y3071189D01*
X858328Y3074522D01*
X848331D01*
X841665Y3071189D01*
X838333Y3067856D01*
X835000Y3057859D01*
Y3044528D01*
X838333Y3034530D01*
X841665Y3031198D01*
X848331Y3027865D01*
X858328D01*
X864994Y3031198D01*
X871659Y3037863D01*
X874992Y3047861D01*
X878324Y3061191D01*
X881657Y3067856D01*
X888322Y3071189D01*
X894987D01*
X901653Y3067856D01*
X904985Y3057859D01*
Y3044528D01*
Y3110181D02*
X901653Y3100183D01*
X891655Y3093518D01*
X874992Y3090185D01*
X864994D01*
X848331Y3093518D01*
X838333Y3100183D01*
X835000Y3110181D01*
Y3116846D01*
X838333Y3126844D01*
X848331Y3133509D01*
X864994Y3136842D01*
X874992D01*
X891655Y3133509D01*
X901653Y3126844D01*
X904985Y3116846D01*
Y3110181D01*
X881657Y3152505D02*
X835000D01*
X868326D02*
X878324Y3162503D01*
X881657Y3169168D01*
Y3179166D01*
X878324Y3185832D01*
X868326Y3189164D01*
X835000D01*
X868326D02*
X878324Y3199162D01*
X881657Y3205827D01*
Y3215825D01*
X878324Y3222490D01*
X868326Y3225823D01*
X835000D01*
X904985Y3247818D02*
X835000D01*
X904985D02*
Y3277812D01*
X901653Y3287810D01*
X898320Y3291142D01*
X891655Y3294475D01*
X884990D01*
X878324Y3291142D01*
X874992Y3287810D01*
X871659Y3277812D01*
Y3247818D01*
Y3271147D02*
X835000Y3294475D01*
X440845Y2452500D02*
X437513Y2445835D01*
X427515Y2435837D01*
X497500D01*
X427515Y2381182D02*
X430847Y2391179D01*
X440845Y2397845D01*
X457508Y2401177D01*
X467506D01*
X484169Y2397845D01*
X494167Y2391179D01*
X497500Y2381182D01*
Y2374516D01*
X494167Y2364519D01*
X484169Y2357853D01*
X467506Y2354521D01*
X457508D01*
X440845Y2357853D01*
X430847Y2364519D01*
X427515Y2374516D01*
Y2381182D01*
Y2318862D02*
X430847Y2328859D01*
X440845Y2335524D01*
X457508Y2338857D01*
X467506D01*
X484169Y2335524D01*
X494167Y2328859D01*
X497500Y2318862D01*
Y2312196D01*
X494167Y2302198D01*
X484169Y2295533D01*
X467506Y2292200D01*
X457508D01*
X440845Y2295533D01*
X430847Y2302198D01*
X427515Y2312196D01*
Y2318862D01*
X450843Y2276537D02*
X497500D01*
X464174D02*
X454176Y2266539D01*
X450843Y2259874D01*
Y2249876D01*
X454176Y2243211D01*
X464174Y2239878D01*
X497500D01*
X354155Y2150000D02*
X357487Y2156665D01*
X367485Y2166663D01*
X297500D01*
X367485Y2221318D02*
X364152Y2211320D01*
X354155Y2204655D01*
X337492Y2201322D01*
X327494D01*
X310830Y2204655D01*
X300833Y2211320D01*
X297500Y2221318D01*
Y2227984D01*
X300833Y2237981D01*
X310830Y2244647D01*
X327494Y2247979D01*
X337492D01*
X354155Y2244647D01*
X364152Y2237981D01*
X367485Y2227984D01*
Y2221318D01*
Y2283638D02*
X364152Y2273641D01*
X354155Y2266975D01*
X337492Y2263643D01*
X327494D01*
X310830Y2266975D01*
X300833Y2273641D01*
X297500Y2283638D01*
Y2290304D01*
X300833Y2300301D01*
X310830Y2306967D01*
X327494Y2310299D01*
X337492D01*
X354155Y2306967D01*
X364152Y2300301D01*
X367485Y2290304D01*
Y2283638D01*
X344157Y2325963D02*
X297500D01*
X330826D02*
X340824Y2335961D01*
X344157Y2342626D01*
Y2352624D01*
X340824Y2359289D01*
X330826Y2362622D01*
X297500D01*
X435845Y1409999D02*
X432513Y1403334D01*
X422515Y1393336D01*
X492500D01*
X422515Y1338681D02*
X425848Y1348679D01*
X435845Y1355344D01*
X452508Y1358677D01*
X462506D01*
X479169Y1355344D01*
X489167Y1348679D01*
X492500Y1338681D01*
Y1332016D01*
X489167Y1322018D01*
X479169Y1315353D01*
X462506Y1312020D01*
X452508D01*
X435845Y1315353D01*
X425848Y1322018D01*
X422515Y1332016D01*
Y1338681D01*
Y1276361D02*
X425848Y1286359D01*
X435845Y1293024D01*
X452508Y1296357D01*
X462506D01*
X479169Y1293024D01*
X489167Y1286359D01*
X492500Y1276361D01*
Y1269696D01*
X489167Y1259698D01*
X479169Y1253033D01*
X462506Y1249700D01*
X452508D01*
X435845Y1253033D01*
X425848Y1259698D01*
X422515Y1269696D01*
Y1276361D01*
X445843Y1234037D02*
X492500D01*
X459174D02*
X449176Y1224039D01*
X445843Y1217373D01*
Y1207376D01*
X449176Y1200710D01*
X459174Y1197378D01*
X492500D01*
X351655Y1152500D02*
X354987Y1159165D01*
X364985Y1169163D01*
X295000D01*
X364985Y1223818D02*
X361653Y1213820D01*
X351655Y1207155D01*
X334992Y1203822D01*
X324994D01*
X308331Y1207155D01*
X298333Y1213820D01*
X295000Y1223818D01*
Y1230483D01*
X298333Y1240481D01*
X308331Y1247146D01*
X324994Y1250479D01*
X334992D01*
X351655Y1247146D01*
X361653Y1240481D01*
X364985Y1230483D01*
Y1223818D01*
Y1286138D02*
X361653Y1276140D01*
X351655Y1269475D01*
X334992Y1266143D01*
X324994D01*
X308331Y1269475D01*
X298333Y1276140D01*
X295000Y1286138D01*
Y1292804D01*
X298333Y1302801D01*
X308331Y1309467D01*
X324994Y1312799D01*
X334992D01*
X351655Y1309467D01*
X361653Y1302801D01*
X364985Y1292804D01*
Y1286138D01*
X341657Y1328463D02*
X295000D01*
X328326D02*
X338324Y1338461D01*
X341657Y1345126D01*
Y1355124D01*
X338324Y1361789D01*
X328326Y1365121D01*
X295000D01*
X2229155Y522500D02*
X2232487Y529165D01*
X2242485Y539163D01*
X2172500D01*
X2242485Y593818D02*
X2239152Y583821D01*
X2229155Y577155D01*
X2212492Y573823D01*
X2202494D01*
X2185831Y577155D01*
X2175833Y583821D01*
X2172500Y593818D01*
Y600484D01*
X2175833Y610481D01*
X2185831Y617147D01*
X2202494Y620479D01*
X2212492D01*
X2229155Y617147D01*
X2239152Y610481D01*
X2242485Y600484D01*
Y593818D01*
Y656138D02*
X2239152Y646141D01*
X2229155Y639475D01*
X2212492Y636143D01*
X2202494D01*
X2185831Y639475D01*
X2175833Y646141D01*
X2172500Y656138D01*
Y662804D01*
X2175833Y672802D01*
X2185831Y679467D01*
X2202494Y682799D01*
X2212492D01*
X2229155Y679467D01*
X2239152Y672802D01*
X2242485Y662804D01*
Y656138D01*
X2219157Y698463D02*
X2172500D01*
X2205826D02*
X2215824Y708461D01*
X2219157Y715126D01*
Y725124D01*
X2215824Y731789D01*
X2205826Y735122D01*
X2172500D01*
X1912500Y1536655D02*
X1905835Y1539988D01*
X1895837Y1549985D01*
Y1480000D01*
X1841182Y1549985D02*
X1851180Y1546653D01*
X1857845Y1536655D01*
X1861178Y1519992D01*
Y1509994D01*
X1857845Y1493331D01*
X1851180Y1483333D01*
X1841182Y1480000D01*
X1834517D01*
X1824519Y1483333D01*
X1817854Y1493331D01*
X1814521Y1509994D01*
Y1519992D01*
X1817854Y1536655D01*
X1824519Y1546653D01*
X1834517Y1549985D01*
X1841182D01*
X1778862D02*
X1788860Y1546653D01*
X1795525Y1536655D01*
X1798857Y1519992D01*
Y1509994D01*
X1795525Y1493331D01*
X1788860Y1483333D01*
X1778862Y1480000D01*
X1772196D01*
X1762199Y1483333D01*
X1755533Y1493331D01*
X1752201Y1509994D01*
Y1519992D01*
X1755533Y1536655D01*
X1762199Y1546653D01*
X1772196Y1549985D01*
X1778862D01*
X1736537Y1526657D02*
Y1480000D01*
Y1513327D02*
X1726539Y1523324D01*
X1719874Y1526657D01*
X1709876D01*
X1703211Y1523324D01*
X1699878Y1513327D01*
Y1480000D01*
X1843345Y542500D02*
X1840013Y535835D01*
X1830015Y525837D01*
X1900000D01*
X1830015Y471182D02*
X1833348Y481180D01*
X1843345Y487845D01*
X1860008Y491178D01*
X1870006D01*
X1886670Y487845D01*
X1896667Y481180D01*
X1900000Y471182D01*
Y464516D01*
X1896667Y454519D01*
X1886670Y447854D01*
X1870006Y444521D01*
X1860008D01*
X1843345Y447854D01*
X1833348Y454519D01*
X1830015Y464516D01*
Y471182D01*
Y408862D02*
X1833348Y418859D01*
X1843345Y425525D01*
X1860008Y428857D01*
X1870006D01*
X1886670Y425525D01*
X1896667Y418859D01*
X1900000Y408862D01*
Y402196D01*
X1896667Y392199D01*
X1886670Y385533D01*
X1870006Y382201D01*
X1860008D01*
X1843345Y385533D01*
X1833348Y392199D01*
X1830015Y402196D01*
Y408862D01*
X1853343Y366537D02*
X1900000D01*
X1866674D02*
X1856676Y356539D01*
X1853343Y349874D01*
Y339876D01*
X1856676Y333211D01*
X1866674Y329878D01*
X1900000D01*
X2129155Y1402500D02*
X2132487Y1409165D01*
X2142485Y1419163D01*
X2072500D01*
X2119157Y1453823D02*
X2085831D01*
X2075833Y1457155D01*
X2072500Y1463821D01*
Y1473818D01*
X2075833Y1480484D01*
X2085831Y1490481D01*
X2119157D02*
X2072500D01*
X1681655Y1402500D02*
X1684987Y1409165D01*
X1694985Y1419163D01*
X1625000D01*
X1694985Y1473818D02*
X1691653Y1463821D01*
X1681655Y1457155D01*
X1664992Y1453823D01*
X1654994D01*
X1638331Y1457155D01*
X1628333Y1463821D01*
X1625000Y1473818D01*
Y1480484D01*
X1628333Y1490481D01*
X1638331Y1497147D01*
X1654994Y1500479D01*
X1664992D01*
X1681655Y1497147D01*
X1691653Y1490481D01*
X1694985Y1480484D01*
Y1473818D01*
X1671657Y1516143D02*
X1625000D01*
X1658327D02*
X1668324Y1526141D01*
X1671657Y1532806D01*
Y1542804D01*
X1668324Y1549469D01*
X1658327Y1552802D01*
X1625000D01*
X1505000Y869155D02*
X1498335Y872487D01*
X1488337Y882485D01*
Y812500D01*
X1433682Y882485D02*
X1443680Y879152D01*
X1450345Y869155D01*
X1453678Y852492D01*
Y842494D01*
X1450345Y825830D01*
X1443680Y815833D01*
X1433682Y812500D01*
X1427016D01*
X1417019Y815833D01*
X1410354Y825830D01*
X1407021Y842494D01*
Y852492D01*
X1410354Y869155D01*
X1417019Y879152D01*
X1427016Y882485D01*
X1433682D01*
X1391357Y859157D02*
Y812500D01*
Y845826D02*
X1381359Y855824D01*
X1374694Y859157D01*
X1364696D01*
X1358031Y855824D01*
X1354699Y845826D01*
Y812500D01*
X1934155Y1402500D02*
X1937487Y1409165D01*
X1947485Y1419163D01*
X1877500D01*
X1947485Y1473818D02*
X1944153Y1463821D01*
X1934155Y1457155D01*
X1917492Y1453823D01*
X1907494D01*
X1890831Y1457155D01*
X1880833Y1463821D01*
X1877500Y1473818D01*
Y1480484D01*
X1880833Y1490481D01*
X1890831Y1497147D01*
X1907494Y1500479D01*
X1917492D01*
X1934155Y1497147D01*
X1944153Y1490481D01*
X1947485Y1480484D01*
Y1473818D01*
X1924157Y1516143D02*
X1877500D01*
X1910827D02*
X1920824Y1526141D01*
X1924157Y1532806D01*
Y1542804D01*
X1920824Y1549469D01*
X1910827Y1552802D01*
X1877500D01*
X1505000Y1119155D02*
X1498335Y1122487D01*
X1488337Y1132485D01*
Y1062500D01*
X1433682Y1132485D02*
X1443680Y1129152D01*
X1450345Y1119155D01*
X1453678Y1102492D01*
Y1092494D01*
X1450345Y1075830D01*
X1443680Y1065833D01*
X1433682Y1062500D01*
X1427016D01*
X1417019Y1065833D01*
X1410354Y1075830D01*
X1407021Y1092494D01*
Y1102492D01*
X1410354Y1119155D01*
X1417019Y1129152D01*
X1427016Y1132485D01*
X1433682D01*
X1391357Y1109157D02*
Y1062500D01*
Y1095826D02*
X1381359Y1105824D01*
X1374694Y1109157D01*
X1364696D01*
X1358031Y1105824D01*
X1354699Y1095826D01*
Y1062500D01*
X1505000Y969155D02*
X1498335Y972487D01*
X1488337Y982485D01*
Y912500D01*
X1433682Y982485D02*
X1443680Y979152D01*
X1450345Y969155D01*
X1453678Y952492D01*
Y942494D01*
X1450345Y925831D01*
X1443680Y915833D01*
X1433682Y912500D01*
X1427016D01*
X1417019Y915833D01*
X1410354Y925831D01*
X1407021Y942494D01*
Y952492D01*
X1410354Y969155D01*
X1417019Y979152D01*
X1427016Y982485D01*
X1433682D01*
X1391357Y959157D02*
Y912500D01*
Y945826D02*
X1381359Y955824D01*
X1374694Y959157D01*
X1364696D01*
X1358031Y955824D01*
X1354699Y945826D01*
Y912500D01*
X1738346Y542500D02*
X1735013Y535835D01*
X1725015Y525837D01*
X1795000D01*
X1725015Y471182D02*
X1728348Y481180D01*
X1738346Y487845D01*
X1755009Y491178D01*
X1765007D01*
X1781670Y487845D01*
X1791667Y481180D01*
X1795000Y471182D01*
Y464516D01*
X1791667Y454519D01*
X1781670Y447854D01*
X1765007Y444521D01*
X1755009D01*
X1738346Y447854D01*
X1728348Y454519D01*
X1725015Y464516D01*
Y471182D01*
X1748343Y428857D02*
X1795000D01*
X1761674D02*
X1751676Y418859D01*
X1748343Y412194D01*
Y402196D01*
X1751676Y395531D01*
X1761674Y392199D01*
X1795000D01*
X1784155Y1402500D02*
X1787487Y1409165D01*
X1797485Y1419163D01*
X1727500D01*
X1797485Y1473818D02*
X1794153Y1463821D01*
X1784155Y1457155D01*
X1767492Y1453823D01*
X1757494D01*
X1740831Y1457155D01*
X1730833Y1463821D01*
X1727500Y1473818D01*
Y1480484D01*
X1730833Y1490481D01*
X1740831Y1497147D01*
X1757494Y1500479D01*
X1767492D01*
X1784155Y1497147D01*
X1794153Y1490481D01*
X1797485Y1480484D01*
Y1473818D01*
X1774157Y1516143D02*
X1727500D01*
X1760827D02*
X1770824Y1526141D01*
X1774157Y1532806D01*
Y1542804D01*
X1770824Y1549469D01*
X1760827Y1552802D01*
X1727500D01*
X2362500Y1053345D02*
X2369165Y1050013D01*
X2379163Y1040015D01*
Y1110000D01*
X2433818Y1040015D02*
X2423821Y1043348D01*
X2417155Y1053345D01*
X2413823Y1070009D01*
Y1080006D01*
X2417155Y1096670D01*
X2423821Y1106667D01*
X2433818Y1110000D01*
X2440484D01*
X2450482Y1106667D01*
X2457147Y1096670D01*
X2460479Y1080006D01*
Y1070009D01*
X2457147Y1053345D01*
X2450482Y1043348D01*
X2440484Y1040015D01*
X2433818D01*
X2476143Y1063343D02*
Y1110000D01*
Y1076674D02*
X2486141Y1066676D01*
X2492806Y1063343D01*
X2502804D01*
X2509469Y1066676D01*
X2512802Y1076674D01*
Y1110000D01*
X2362500Y865845D02*
X2369165Y862513D01*
X2379163Y852515D01*
Y922500D01*
X2413823Y875843D02*
Y909170D01*
X2417155Y919167D01*
X2423821Y922500D01*
X2433818D01*
X2440484Y919167D01*
X2450482Y909170D01*
Y875843D02*
Y922500D01*
X2362500Y955845D02*
X2369165Y952513D01*
X2379163Y942515D01*
Y1012500D01*
X2433818Y942515D02*
X2423821Y945848D01*
X2417155Y955845D01*
X2413823Y972509D01*
Y982507D01*
X2417155Y999170D01*
X2423821Y1009167D01*
X2433818Y1012500D01*
X2440484D01*
X2450482Y1009167D01*
X2457147Y999170D01*
X2460479Y982507D01*
Y972509D01*
X2457147Y955845D01*
X2450482Y945848D01*
X2440484Y942515D01*
X2433818D01*
X2476143Y965843D02*
Y1012500D01*
Y979174D02*
X2486141Y969176D01*
X2492806Y965843D01*
X2502804D01*
X2509469Y969176D01*
X2512802Y979174D01*
Y1012500D01*
X1938345Y542500D02*
X1935013Y535835D01*
X1925015Y525837D01*
X1995000D01*
X1925015Y471182D02*
X1928348Y481180D01*
X1938345Y487845D01*
X1955009Y491178D01*
X1965006D01*
X1981670Y487845D01*
X1991667Y481180D01*
X1995000Y471182D01*
Y464516D01*
X1991667Y454519D01*
X1981670Y447854D01*
X1965006Y444521D01*
X1955009D01*
X1938345Y447854D01*
X1928348Y454519D01*
X1925015Y464516D01*
Y471182D01*
X1948343Y428857D02*
X1995000D01*
X1961674D02*
X1951676Y418859D01*
X1948343Y412194D01*
Y402196D01*
X1951676Y395531D01*
X1961674Y392199D01*
X1995000D01*
X2031655Y1402500D02*
X2034988Y1409165D01*
X2044985Y1419163D01*
X1975000D01*
X2044985Y1473818D02*
X2041653Y1463821D01*
X2031655Y1457155D01*
X2014992Y1453823D01*
X2004994D01*
X1988331Y1457155D01*
X1978333Y1463821D01*
X1975000Y1473818D01*
Y1480484D01*
X1978333Y1490481D01*
X1988331Y1497147D01*
X2004994Y1500479D01*
X2014992D01*
X2031655Y1497147D01*
X2041653Y1490481D01*
X2044985Y1480484D01*
Y1473818D01*
X2021657Y1516143D02*
X1975000D01*
X2008327D02*
X2018324Y1526141D01*
X2021657Y1532806D01*
Y1542804D01*
X2018324Y1549469D01*
X2008327Y1552802D01*
X1975000D01*
D135*
X1394658Y1162500D02*
X1390374Y1153931D01*
X1377519Y1141076D01*
X1467500D01*
X1398943Y1092230D02*
X1394658D01*
X1386089Y1087945D01*
X1381804Y1083660D01*
X1377519Y1075091D01*
Y1057951D01*
X1381804Y1049382D01*
X1386089Y1045097D01*
X1394658Y1040812D01*
X1403228D01*
X1411798Y1045097D01*
X1424652Y1053666D01*
X1467500Y1096514D01*
Y1036527D01*
X1377519Y990680D02*
X1381804Y1003534D01*
X1394658Y1012104D01*
X1416083Y1016389D01*
X1428937D01*
X1450361Y1012104D01*
X1463215Y1003534D01*
X1467500Y990680D01*
Y982110D01*
X1463215Y969256D01*
X1450361Y960686D01*
X1428937Y956401D01*
X1416083D01*
X1394658Y960686D01*
X1381804Y969256D01*
X1377519Y982110D01*
Y990680D01*
Y936263D02*
X1467500D01*
X1377519D02*
Y897700D01*
X1381804Y884845D01*
X1386089Y880560D01*
X1394658Y876276D01*
X1403228D01*
X1411798Y880560D01*
X1416083Y884845D01*
X1420367Y897700D01*
Y936263D01*
Y906269D02*
X1467500Y876276D01*
X1377519Y776868D02*
Y729735D01*
X1411798Y755444D01*
Y742590D01*
X1416083Y734020D01*
X1420367Y729735D01*
X1433222Y725451D01*
X1441791D01*
X1454646Y729735D01*
X1463215Y738305D01*
X1467500Y751160D01*
Y764014D01*
X1463215Y776868D01*
X1458930Y781153D01*
X1450361Y785438D01*
X1467500Y636755D02*
X1377519Y671034D01*
X1467500Y705312D01*
X1437506Y692458D02*
Y649610D01*
X1398943Y540776D02*
X1394658D01*
X1386089Y536491D01*
X1381804Y532206D01*
X1377519Y523637D01*
Y506497D01*
X1381804Y497928D01*
X1386089Y493643D01*
X1394658Y489358D01*
X1403228D01*
X1411798Y493643D01*
X1424652Y502213D01*
X1467500Y545061D01*
Y485073D01*
X1377519Y413517D02*
Y456365D01*
X1416083Y460650D01*
X1411798Y456365D01*
X1407513Y443511D01*
Y430656D01*
X1411798Y417802D01*
X1420367Y409232D01*
X1433222Y404948D01*
X1441791D01*
X1454646Y409232D01*
X1463215Y417802D01*
X1467500Y430656D01*
Y443511D01*
X1463215Y456365D01*
X1458930Y460650D01*
X1450361Y464935D01*
X1407513Y384809D02*
X1467500D01*
X1424652D02*
X1411798Y371955D01*
X1407513Y363385D01*
Y350531D01*
X1411798Y341961D01*
X1424652Y337676D01*
X1467500D01*
X1424652D02*
X1411798Y324822D01*
X1407513Y316252D01*
Y303398D01*
X1411798Y294828D01*
X1424652Y290543D01*
X1467500D01*
X1377519Y262264D02*
X1467500D01*
X1377519D02*
Y223700D01*
X1381804Y210846D01*
X1386089Y206561D01*
X1394658Y202276D01*
X1403228D01*
X1411798Y206561D01*
X1416083Y210846D01*
X1420367Y223700D01*
Y262264D01*
Y232270D02*
X1467500Y202276D01*
X312519Y2064652D02*
X372506Y2107500D01*
Y2043228D01*
X312519Y2064652D02*
X402500D01*
X312519Y2027374D02*
X402500D01*
X342513Y1984526D02*
X385361Y2027374D01*
X368222Y2010235D02*
X402500Y1980241D01*
X312519Y1940393D02*
X316804Y1953247D01*
X329658Y1961817D01*
X351082Y1966101D01*
X363937D01*
X385361Y1961817D01*
X398215Y1953247D01*
X402500Y1940393D01*
Y1931823D01*
X398215Y1918969D01*
X385361Y1910399D01*
X363937Y1906114D01*
X351082D01*
X329658Y1910399D01*
X316804Y1918969D01*
X312519Y1931823D01*
Y1940393D01*
X333943Y1881691D02*
X329658D01*
X321089Y1877406D01*
X316804Y1873121D01*
X312519Y1864552D01*
Y1847412D01*
X316804Y1838843D01*
X321089Y1834558D01*
X329658Y1830273D01*
X338228D01*
X346797Y1834558D01*
X359652Y1843128D01*
X402500Y1885976D01*
Y1825988D01*
X227842Y2152500D02*
X232127Y2161070D01*
X244981Y2173924D01*
X155000D01*
X244981Y2244195D02*
X240696Y2231340D01*
X227842Y2222771D01*
X206418Y2218486D01*
X193563D01*
X172139Y2222771D01*
X159285Y2231340D01*
X155000Y2244195D01*
Y2252764D01*
X159285Y2265619D01*
X172139Y2274188D01*
X193563Y2278473D01*
X206418D01*
X227842Y2274188D01*
X240696Y2265619D01*
X244981Y2252764D01*
Y2244195D01*
X214987Y2298612D02*
X172139D01*
X159285Y2302896D01*
X155000Y2311466D01*
Y2324320D01*
X159285Y2332890D01*
X172139Y2345744D01*
X214987D02*
X155000D01*
X309658Y2465000D02*
X305374Y2456430D01*
X292519Y2443576D01*
X382500D01*
X292519Y2373305D02*
X296804Y2386160D01*
X309658Y2394730D01*
X331082Y2399014D01*
X343937D01*
X365361Y2394730D01*
X378215Y2386160D01*
X382500Y2373305D01*
Y2364736D01*
X378215Y2351882D01*
X365361Y2343312D01*
X343937Y2339027D01*
X331082D01*
X309658Y2343312D01*
X296804Y2351882D01*
X292519Y2364736D01*
Y2373305D01*
X322513Y2318888D02*
X365361D01*
X378215Y2314604D01*
X382500Y2306034D01*
Y2293180D01*
X378215Y2284610D01*
X365361Y2271756D01*
X322513D02*
X382500D01*
X227842Y2452500D02*
X232127Y2461069D01*
X244981Y2473924D01*
X155000D01*
X244981Y2518486D02*
X155000D01*
X214987Y2561334D02*
X172139Y2518486D01*
X189279Y2535625D02*
X155000Y2565618D01*
X244981Y2676166D02*
X240696Y2663312D01*
X227842Y2654742D01*
X206418Y2650457D01*
X193563D01*
X172139Y2654742D01*
X159285Y2663312D01*
X155000Y2676166D01*
Y2684736D01*
X159285Y2697590D01*
X172139Y2706160D01*
X193563Y2710445D01*
X206418D01*
X227842Y2706160D01*
X240696Y2697590D01*
X244981Y2684736D01*
Y2676166D01*
X163570Y2734868D02*
X159285Y2730583D01*
X155000Y2734868D01*
X159285Y2739153D01*
X163570Y2734868D01*
X244981Y2801711D02*
X184994Y2758863D01*
Y2823135D01*
X244981Y2801711D02*
X155000D01*
Y2907546D02*
X244981Y2873267D01*
X155000Y2838989D01*
X184994Y2851843D02*
Y2894691D01*
X244981Y3024949D02*
X240696Y3012095D01*
X227842Y3003525D01*
X206418Y2999240D01*
X193563D01*
X172139Y3003525D01*
X159285Y3012095D01*
X155000Y3024949D01*
Y3033518D01*
X159285Y3046373D01*
X172139Y3054943D01*
X193563Y3059227D01*
X206418D01*
X227842Y3054943D01*
X240696Y3046373D01*
X244981Y3033518D01*
Y3024949D01*
X163570Y3083651D02*
X159285Y3079366D01*
X155000Y3083651D01*
X159285Y3087936D01*
X163570Y3083651D01*
X244981Y3159063D02*
Y3116215D01*
X206418Y3111930D01*
X210703Y3116215D01*
X214987Y3129069D01*
Y3141924D01*
X210703Y3154778D01*
X202133Y3163348D01*
X189279Y3167633D01*
X180709D01*
X167855Y3163348D01*
X159285Y3154778D01*
X155000Y3141924D01*
Y3129069D01*
X159285Y3116215D01*
X163570Y3111930D01*
X172139Y3107646D01*
X244981Y3187771D02*
X155000D01*
X244981D02*
Y3226335D01*
X240696Y3239189D01*
X236411Y3243474D01*
X227842Y3247759D01*
X219272D01*
X210703Y3243474D01*
X206418Y3239189D01*
X202133Y3226335D01*
Y3187771D01*
Y3217765D02*
X155000Y3247759D01*
X225342Y1155000D02*
X229626Y1163569D01*
X242481Y1176424D01*
X152500D01*
X242481Y1246694D02*
X238196Y1233840D01*
X225342Y1225270D01*
X203918Y1220986D01*
X191063D01*
X169639Y1225270D01*
X156785Y1233840D01*
X152500Y1246694D01*
Y1255264D01*
X156785Y1268118D01*
X169639Y1276688D01*
X191063Y1280973D01*
X203918D01*
X225342Y1276688D01*
X238196Y1268118D01*
X242481Y1255264D01*
Y1246694D01*
X212487Y1301111D02*
X169639D01*
X156785Y1305396D01*
X152500Y1313966D01*
Y1326820D01*
X156785Y1335390D01*
X169639Y1348244D01*
X212487D02*
X152500D01*
X225342Y1455000D02*
X229626Y1463569D01*
X242481Y1476424D01*
X152500D01*
X242481Y1520986D02*
X152500D01*
X212487Y1563834D02*
X169639Y1520986D01*
X186778Y1538125D02*
X152500Y1568118D01*
X242481Y1678666D02*
X238196Y1665812D01*
X225342Y1657242D01*
X203918Y1652957D01*
X191063D01*
X169639Y1657242D01*
X156785Y1665812D01*
X152500Y1678666D01*
Y1687236D01*
X156785Y1700090D01*
X169639Y1708660D01*
X191063Y1712945D01*
X203918D01*
X225342Y1708660D01*
X238196Y1700090D01*
X242481Y1687236D01*
Y1678666D01*
X161070Y1737368D02*
X156785Y1733083D01*
X152500Y1737368D01*
X156785Y1741653D01*
X161070Y1737368D01*
X242481Y1804211D02*
X182494Y1761363D01*
Y1825635D01*
X242481Y1804211D02*
X152500D01*
Y1910045D02*
X242481Y1875767D01*
X152500Y1841489D01*
X182494Y1854343D02*
Y1897191D01*
X242481Y2027449D02*
X238196Y2014594D01*
X225342Y2006025D01*
X203918Y2001740D01*
X191063D01*
X169639Y2006025D01*
X156785Y2014594D01*
X152500Y2027449D01*
Y2036018D01*
X156785Y2048873D01*
X169639Y2057442D01*
X191063Y2061727D01*
X203918D01*
X225342Y2057442D01*
X238196Y2048873D01*
X242481Y2036018D01*
Y2027449D01*
X161070Y2086151D02*
X156785Y2081866D01*
X152500Y2086151D01*
X156785Y2090435D01*
X161070Y2086151D01*
X242481Y2161563D02*
Y2118715D01*
X203918Y2114430D01*
X208203Y2118715D01*
X212487Y2131569D01*
Y2144424D01*
X208203Y2157278D01*
X199633Y2165848D01*
X186778Y2170133D01*
X178209D01*
X165355Y2165848D01*
X156785Y2157278D01*
X152500Y2144424D01*
Y2131569D01*
X156785Y2118715D01*
X161070Y2114430D01*
X169639Y2110145D01*
X242481Y2190271D02*
X152500D01*
X242481D02*
Y2228835D01*
X238196Y2241689D01*
X233911Y2245974D01*
X225342Y2250258D01*
X216772D01*
X208203Y2245974D01*
X203918Y2241689D01*
X199633Y2228835D01*
Y2190271D01*
Y2220265D02*
X152500Y2250258D01*
X304658Y1420000D02*
X300374Y1411430D01*
X287519Y1398576D01*
X377500D01*
X287519Y1328305D02*
X291804Y1341160D01*
X304658Y1349729D01*
X326082Y1354014D01*
X338937D01*
X360361Y1349729D01*
X373215Y1341160D01*
X377500Y1328305D01*
Y1319736D01*
X373215Y1306881D01*
X360361Y1298312D01*
X338937Y1294027D01*
X326082D01*
X304658Y1298312D01*
X291804Y1306881D01*
X287519Y1319736D01*
Y1328305D01*
X317513Y1273888D02*
X360361D01*
X373215Y1269604D01*
X377500Y1261034D01*
Y1248179D01*
X373215Y1239610D01*
X360361Y1226755D01*
X317513D02*
X377500D01*
X302519Y1067152D02*
X362506Y1110000D01*
Y1045728D01*
X302519Y1067152D02*
X392500D01*
X302519Y1029874D02*
X392500D01*
X332513Y987026D02*
X375361Y1029874D01*
X358222Y1012735D02*
X392500Y982741D01*
X302519Y942892D02*
X306804Y955747D01*
X319658Y964317D01*
X341082Y968601D01*
X353937D01*
X375361Y964317D01*
X388215Y955747D01*
X392500Y942892D01*
Y934323D01*
X388215Y921469D01*
X375361Y912899D01*
X353937Y908614D01*
X341082D01*
X319658Y912899D01*
X306804Y921469D01*
X302519Y934323D01*
Y942892D01*
X323943Y884191D02*
X319658D01*
X311089Y879906D01*
X306804Y875621D01*
X302519Y867052D01*
Y849912D01*
X306804Y841343D01*
X311089Y837058D01*
X319658Y832773D01*
X328228D01*
X336797Y837058D01*
X349652Y845627D01*
X392500Y888475D01*
Y828488D01*
X1925000Y1667842D02*
X1916431Y1672127D01*
X1903576Y1684981D01*
Y1595000D01*
X1833305Y1684981D02*
X1846160Y1680696D01*
X1854730Y1667842D01*
X1859014Y1646418D01*
Y1633564D01*
X1854730Y1612140D01*
X1846160Y1599285D01*
X1833305Y1595000D01*
X1824736D01*
X1811882Y1599285D01*
X1803312Y1612140D01*
X1799027Y1633564D01*
Y1646418D01*
X1803312Y1667842D01*
X1811882Y1680696D01*
X1824736Y1684981D01*
X1833305D01*
X1778888Y1654988D02*
Y1612140D01*
X1774604Y1599285D01*
X1766034Y1595000D01*
X1753180D01*
X1744610Y1599285D01*
X1731756Y1612140D01*
Y1654988D02*
Y1595000D01*
X1677500Y694658D02*
X1686070Y690374D01*
X1698924Y677519D01*
Y767500D01*
X1747771Y698943D02*
Y694658D01*
X1752056Y686089D01*
X1756340Y681804D01*
X1764910Y677519D01*
X1782049D01*
X1790619Y681804D01*
X1794903Y686089D01*
X1799188Y694658D01*
Y703228D01*
X1794903Y711797D01*
X1786334Y724652D01*
X1743486Y767500D01*
X1803473D01*
X1849321Y677519D02*
X1836466Y681804D01*
X1827897Y694658D01*
X1823612Y716082D01*
Y728937D01*
X1827897Y750361D01*
X1836466Y763215D01*
X1849321Y767500D01*
X1857890D01*
X1870745Y763215D01*
X1879314Y750361D01*
X1883599Y728937D01*
Y716082D01*
X1879314Y694658D01*
X1870745Y681804D01*
X1857890Y677519D01*
X1849321D01*
X1903738D02*
Y767500D01*
Y677519D02*
X1942301D01*
X1955155Y681804D01*
X1959440Y686089D01*
X1963725Y694658D01*
Y703228D01*
X1959440Y711797D01*
X1955155Y716082D01*
X1942301Y720367D01*
X1903738D01*
X1933731D02*
X1963725Y767500D01*
X2063132Y677519D02*
X2110265D01*
X2084556Y711797D01*
X2097411D01*
X2105980Y716082D01*
X2110265Y720367D01*
X2114550Y733222D01*
Y741791D01*
X2110265Y754645D01*
X2101695Y763215D01*
X2088841Y767500D01*
X2075986D01*
X2063132Y763215D01*
X2058847Y758930D01*
X2054563Y750361D01*
X2203245Y767500D02*
X2168967Y677519D01*
X2134688Y767500D01*
X2147543Y737506D02*
X2190391D01*
X2299225Y698943D02*
Y694658D01*
X2303509Y686089D01*
X2307794Y681804D01*
X2316364Y677519D01*
X2333503D01*
X2342073Y681804D01*
X2346357Y686089D01*
X2350642Y694658D01*
Y703228D01*
X2346357Y711797D01*
X2337788Y724652D01*
X2294940Y767500D01*
X2354927D01*
X2426483Y677519D02*
X2383635D01*
X2379350Y716082D01*
X2383635Y711797D01*
X2396489Y707513D01*
X2409344D01*
X2422198Y711797D01*
X2430768Y720367D01*
X2435053Y733222D01*
Y741791D01*
X2430768Y754645D01*
X2422198Y763215D01*
X2409344Y767500D01*
X2396489D01*
X2383635Y763215D01*
X2379350Y758930D01*
X2375066Y750361D01*
X2455191Y707513D02*
Y767500D01*
Y724652D02*
X2468046Y711797D01*
X2476615Y707513D01*
X2489470D01*
X2498039Y711797D01*
X2502324Y724652D01*
Y767500D01*
Y724652D02*
X2515179Y711797D01*
X2523748Y707513D01*
X2536602D01*
X2545172Y711797D01*
X2549457Y724652D01*
Y767500D01*
X2577737Y677519D02*
Y767500D01*
Y677519D02*
X2616300D01*
X2629154Y681804D01*
X2633439Y686089D01*
X2637724Y694658D01*
Y703228D01*
X2633439Y711797D01*
X2629154Y716082D01*
X2616300Y720367D01*
X2577737D01*
X2607730D02*
X2637724Y767500D01*
X1534658Y1390000D02*
X1530374Y1381431D01*
X1517519Y1368576D01*
X1607500D01*
X1517519Y1298306D02*
X1521804Y1311160D01*
X1534658Y1319730D01*
X1556082Y1324014D01*
X1568937D01*
X1590361Y1319730D01*
X1603215Y1311160D01*
X1607500Y1298306D01*
Y1289736D01*
X1603215Y1276882D01*
X1590361Y1268312D01*
X1568937Y1264027D01*
X1556082D01*
X1534658Y1268312D01*
X1521804Y1276882D01*
X1517519Y1289736D01*
Y1298306D01*
X1547513Y1243889D02*
X1590361D01*
X1603215Y1239604D01*
X1607500Y1231034D01*
Y1218180D01*
X1603215Y1209610D01*
X1590361Y1196756D01*
X1547513D02*
X1607500D01*
X1444981Y1155348D02*
X1384994Y1112500D01*
Y1176772D01*
X1444981Y1155348D02*
X1355000D01*
X1414988Y1192626D02*
X1372139D01*
X1359285Y1196911D01*
X1355000Y1205480D01*
Y1218335D01*
X1359285Y1226904D01*
X1372139Y1239759D01*
X1414988D02*
X1355000D01*
X1444981Y1323312D02*
X1355000Y1280464D01*
X1444981Y1263325D02*
Y1323312D01*
X1682481Y715348D02*
X1622494Y672500D01*
Y736772D01*
X1682481Y715348D02*
X1592500D01*
X1652487Y752626D02*
X1609639D01*
X1596785Y756911D01*
X1592500Y765480D01*
Y778335D01*
X1596785Y786904D01*
X1609639Y799759D01*
X1652487D02*
X1592500D01*
X1682481Y883312D02*
X1592500Y840464D01*
X1682481Y823325D02*
Y883312D01*
X1760019Y1307152D02*
X1820007Y1350000D01*
Y1285728D01*
X1760019Y1307152D02*
X1850000D01*
X1790013Y1269875D02*
X1832861D01*
X1845715Y1265590D01*
X1850000Y1257020D01*
Y1244166D01*
X1845715Y1235596D01*
X1832861Y1222742D01*
X1790013D02*
X1850000D01*
X1760019Y1139188D02*
X1850000Y1182036D01*
X1760019Y1199175D02*
Y1139188D01*
X1892842Y595000D02*
X1897127Y603570D01*
X1909981Y616424D01*
X1820000D01*
X1888557Y665271D02*
X1892842D01*
X1901411Y669556D01*
X1905696Y673840D01*
X1909981Y682410D01*
Y699549D01*
X1905696Y708119D01*
X1901411Y712403D01*
X1892842Y716688D01*
X1884272D01*
X1875703Y712403D01*
X1862848Y703834D01*
X1820000Y660986D01*
Y720973D01*
X1909981Y766821D02*
X1905696Y753966D01*
X1892842Y745397D01*
X1871418Y741112D01*
X1858563D01*
X1837139Y745397D01*
X1824285Y753966D01*
X1820000Y766821D01*
Y775390D01*
X1824285Y788245D01*
X1837139Y796814D01*
X1858563Y801099D01*
X1871418D01*
X1892842Y796814D01*
X1905696Y788245D01*
X1909981Y775390D01*
Y766821D01*
Y821238D02*
X1820000D01*
X1909981D02*
Y859801D01*
X1905696Y872655D01*
X1901411Y876940D01*
X1892842Y881225D01*
X1884272D01*
X1875703Y876940D01*
X1871418Y872655D01*
X1867133Y859801D01*
Y821238D01*
Y851231D02*
X1820000Y881225D01*
X1909981Y980632D02*
Y1027765D01*
X1875703Y1002056D01*
Y1014911D01*
X1871418Y1023480D01*
X1867133Y1027765D01*
X1854278Y1032050D01*
X1845709D01*
X1832855Y1027765D01*
X1824285Y1019195D01*
X1820000Y1006341D01*
Y993486D01*
X1824285Y980632D01*
X1828570Y976347D01*
X1837139Y972063D01*
X1820000Y1120745D02*
X1909981Y1086467D01*
X1820000Y1052188D01*
X1849994Y1065043D02*
Y1107891D01*
X1888557Y1216725D02*
X1892842D01*
X1901411Y1221009D01*
X1905696Y1225294D01*
X1909981Y1233864D01*
Y1251003D01*
X1905696Y1259573D01*
X1901411Y1263857D01*
X1892842Y1268142D01*
X1884272D01*
X1875703Y1263857D01*
X1862848Y1255288D01*
X1820000Y1212440D01*
Y1272427D01*
X1909981Y1343983D02*
Y1301135D01*
X1871418Y1296850D01*
X1875703Y1301135D01*
X1879987Y1313989D01*
Y1326844D01*
X1875703Y1339698D01*
X1867133Y1348268D01*
X1854278Y1352553D01*
X1845709D01*
X1832855Y1348268D01*
X1824285Y1339698D01*
X1820000Y1326844D01*
Y1313989D01*
X1824285Y1301135D01*
X1828570Y1296850D01*
X1837139Y1292566D01*
X1879987Y1372691D02*
X1820000D01*
X1862848D02*
X1875703Y1385546D01*
X1879987Y1394115D01*
Y1406970D01*
X1875703Y1415539D01*
X1862848Y1419824D01*
X1820000D01*
X1862848D02*
X1875703Y1432679D01*
X1879987Y1441248D01*
Y1454103D01*
X1875703Y1462672D01*
X1862848Y1466957D01*
X1820000D01*
X1909981Y1495237D02*
X1820000D01*
X1909981D02*
Y1533800D01*
X1905696Y1546654D01*
X1901411Y1550939D01*
X1892842Y1555224D01*
X1884272D01*
X1875703Y1550939D01*
X1871418Y1546654D01*
X1867133Y1533800D01*
Y1495237D01*
Y1525230D02*
X1820000Y1555224D01*
X2312152Y1119981D02*
X2355000Y1059994D01*
X2290728D01*
X2312152Y1119981D02*
Y1030000D01*
X2274875Y1089987D02*
Y1047139D01*
X2270590Y1034285D01*
X2262020Y1030000D01*
X2249166D01*
X2240596Y1034285D01*
X2227742Y1047139D01*
Y1089987D02*
Y1030000D01*
X2144188Y1119981D02*
X2187036Y1030000D01*
X2204175Y1119981D02*
X2144188D01*
X2355000Y962842D02*
X2346431Y967127D01*
X2333576Y979981D01*
Y890000D01*
X2284730Y958557D02*
Y962842D01*
X2280445Y971411D01*
X2276160Y975696D01*
X2267591Y979981D01*
X2250451D01*
X2241882Y975696D01*
X2237597Y971411D01*
X2233312Y962842D01*
Y954272D01*
X2237597Y945703D01*
X2246166Y932848D01*
X2289014Y890000D01*
X2229027D01*
X2183180Y979981D02*
X2196034Y975696D01*
X2204604Y962842D01*
X2208889Y941418D01*
Y928564D01*
X2204604Y907139D01*
X2196034Y894285D01*
X2183180Y890000D01*
X2174610D01*
X2161756Y894285D01*
X2153186Y907139D01*
X2148901Y928564D01*
Y941418D01*
X2153186Y962842D01*
X2161756Y975696D01*
X2174610Y979981D01*
X2183180D01*
X2128763D02*
Y890000D01*
Y979981D02*
X2090200D01*
X2077345Y975696D01*
X2073060Y971411D01*
X2068776Y962842D01*
Y954272D01*
X2073060Y945703D01*
X2077345Y941418D01*
X2090200Y937133D01*
X2128763D01*
X2098769D02*
X2068776Y890000D01*
X1969368Y979981D02*
X1922235D01*
X1947944Y945703D01*
X1935090D01*
X1926520Y941418D01*
X1922235Y937133D01*
X1917951Y924279D01*
Y915709D01*
X1922235Y902855D01*
X1930805Y894285D01*
X1943660Y890000D01*
X1956514D01*
X1969368Y894285D01*
X1973653Y898570D01*
X1977938Y907139D01*
X1829255Y890000D02*
X1863534Y979981D01*
X1897812Y890000D01*
X1884958Y919994D02*
X1842110D01*
X1733276Y958557D02*
Y962842D01*
X1728991Y971411D01*
X1724706Y975696D01*
X1716137Y979981D01*
X1698997D01*
X1690428Y975696D01*
X1686143Y971411D01*
X1681858Y962842D01*
Y954272D01*
X1686143Y945703D01*
X1694713Y932848D01*
X1737561Y890000D01*
X1677573D01*
X1606017Y979981D02*
X1648865D01*
X1653150Y941418D01*
X1648865Y945703D01*
X1636011Y949987D01*
X1623157D01*
X1610302Y945703D01*
X1601732Y937133D01*
X1597448Y924279D01*
Y915709D01*
X1601732Y902855D01*
X1610302Y894285D01*
X1623157Y890000D01*
X1636011D01*
X1648865Y894285D01*
X1653150Y898570D01*
X1657435Y907139D01*
X1577309Y949987D02*
Y890000D01*
Y932848D02*
X1564455Y945703D01*
X1555885Y949987D01*
X1543031D01*
X1534461Y945703D01*
X1530176Y932848D01*
Y890000D01*
Y932848D02*
X1517322Y945703D01*
X1508752Y949987D01*
X1495898D01*
X1487328Y945703D01*
X1483044Y932848D01*
Y890000D01*
X1454764Y979981D02*
Y890000D01*
Y979981D02*
X1416200D01*
X1403346Y975696D01*
X1399061Y971411D01*
X1394776Y962842D01*
Y954272D01*
X1399061Y945703D01*
X1403346Y941418D01*
X1416200Y937133D01*
X1454764D01*
X1424770D02*
X1394776Y890000D01*
D136*
X2315011Y1235717D02*
X2317391Y1242859D01*
X2324533Y1247620D01*
X2336435Y1250000D01*
X2343576D01*
X2355478Y1247620D01*
X2362620Y1242859D01*
X2365000Y1235717D01*
Y1230957D01*
X2362620Y1223815D01*
X2355478Y1219054D01*
X2343576Y1216674D01*
X2336435D01*
X2324533Y1219054D01*
X2317391Y1223815D01*
X2315011Y1230957D01*
Y1235717D01*
Y1205486D02*
X2365000D01*
X2315011D02*
Y1184062D01*
X2317391Y1176920D01*
X2319772Y1174540D01*
X2324533Y1172160D01*
X2329294D01*
X2334055Y1174540D01*
X2336435Y1176920D01*
X2338815Y1184062D01*
Y1205486D01*
Y1188823D02*
X2365000Y1172160D01*
X2224989Y1528804D02*
X2191663Y1505000D01*
Y1540707D01*
X2224989Y1528804D02*
X2175000D01*
X2224989Y1549514D02*
X2175000D01*
X2208326Y1573319D02*
X2184522Y1549514D01*
X2194043Y1559036D02*
X2175000Y1575699D01*
X2224989Y1616881D02*
X2175000Y1593076D01*
X2224989Y1583555D02*
Y1616881D01*
X2129989Y538804D02*
X2096663Y515000D01*
Y550707D01*
X2129989Y538804D02*
X2080000D01*
X2129989Y592840D02*
X2080000Y569036D01*
X2129989Y559514D02*
Y592840D01*
Y604029D02*
X2080000D01*
X2113326Y627833D02*
X2089522Y604029D01*
X2099043Y613550D02*
X2080000Y630213D01*
X2075011Y31196D02*
X2108337Y55000D01*
Y19293D01*
X2075011Y31196D02*
X2125000D01*
X2075011Y-22840D02*
X2125000Y964D01*
X2075011Y10486D02*
Y-22840D01*
Y-34029D02*
X2125000D01*
X2091674Y-57833D02*
X2115478Y-34029D01*
X2105957Y-43550D02*
X2125000Y-60213D01*
%TF.MD5,371ce58cff93a8e91e21a71d18533f48*%
M02*
