%TF.GenerationSoftware,Altium Limited,Altium Designer,20.1.12 (249)*%
G04 Layer_Color=32768*
%FSLAX45Y45*%
%MOMM*%
%TF.SameCoordinates,4EE8302A-A9A8-49E0-93C5-14594FCB678D*%
%TF.FilePolarity,Positive*%
%TF.FileFunction,Other,M23_-_RefDes_Outline-B*%
%TF.Part,Single*%
G01*
G75*
%TA.AperFunction,NonConductor*%
%ADD137C,0.10000*%
D137*
X805000Y1167500D02*
X915000D01*
X805000D02*
Y1357500D01*
X915000D01*
Y1167500D02*
Y1357500D01*
X460000Y2442500D02*
X780000D01*
Y2122500D02*
Y2442500D01*
X460000Y2122500D02*
X780000D01*
X460000D02*
Y2442500D01*
X450000Y1410000D02*
X770000D01*
Y1090000D02*
Y1410000D01*
X450000Y1090000D02*
X770000D01*
X450000D02*
Y1410000D01*
X1352500Y1482500D02*
X1492500D01*
Y1182500D02*
Y1482500D01*
X1352500Y1182500D02*
X1492500D01*
X1352500D02*
Y1482500D01*
X287500Y2127500D02*
Y2427500D01*
Y2127500D02*
X427500D01*
Y2427500D01*
X287500D02*
X427500D01*
X1617500Y1180000D02*
Y1370000D01*
X1507500D02*
X1617500D01*
X1507500Y1180000D02*
Y1370000D01*
Y1180000D02*
X1617500D01*
X130000Y1832500D02*
X270000D01*
X130000D02*
Y2132500D01*
X270000D01*
Y1832500D02*
Y2132500D01*
X925000Y2167500D02*
Y2357500D01*
X815000D02*
X925000D01*
X815000Y2167500D02*
Y2357500D01*
Y2167500D02*
X925000D01*
X407500Y2675000D02*
X517500D01*
Y2485000D02*
Y2675000D01*
X407500Y2485000D02*
X517500D01*
X407500D02*
Y2675000D01*
X267500Y2785000D02*
X407500D01*
Y2485000D02*
Y2785000D01*
X267500Y2485000D02*
X407500D01*
X267500D02*
Y2785000D01*
X270000Y2132500D02*
Y2432500D01*
X130000D02*
X270000D01*
X130000Y2132500D02*
Y2432500D01*
Y2132500D02*
X270000D01*
X277500Y1927500D02*
X387500D01*
X277500D02*
Y2117500D01*
X387500D01*
Y1927500D02*
Y2117500D01*
X402500Y1632500D02*
X512500D01*
Y1442500D02*
Y1632500D01*
X402500Y1442500D02*
X512500D01*
X402500D02*
Y1632500D01*
X127500Y835000D02*
X267500D01*
X127500D02*
Y1135000D01*
X267500D01*
Y835000D02*
Y1135000D01*
X275000Y930000D02*
X385000D01*
X275000D02*
Y1120000D01*
X385000D01*
Y930000D02*
Y1120000D01*
X267500Y1135000D02*
Y1435000D01*
X127500D02*
X267500D01*
X127500Y1135000D02*
Y1435000D01*
Y1135000D02*
X267500D01*
X262500Y1740000D02*
X402500D01*
Y1440000D02*
Y1740000D01*
X262500Y1440000D02*
X402500D01*
X262500D02*
Y1740000D01*
X277500Y1430000D02*
X417500D01*
Y1130000D02*
Y1430000D01*
X277500Y1130000D02*
X417500D01*
X277500D02*
Y1430000D01*
X2292500Y1270000D02*
Y1480000D01*
X2392500D01*
Y1270000D02*
Y1480000D01*
X2292500Y1270000D02*
X2392500D01*
X2247500Y1275000D02*
Y1485000D01*
X2147500Y1275000D02*
X2247500D01*
X2147500D02*
Y1485000D01*
X2247500D01*
X2152500Y285000D02*
Y495000D01*
X2052500Y285000D02*
X2152500D01*
X2052500D02*
Y495000D01*
X2152500D01*
X2152500Y300000D02*
X2262500D01*
X2152500D02*
Y490000D01*
X2262500D01*
Y300000D02*
Y490000D01*
X2052500Y75000D02*
Y285000D01*
X2152500D01*
Y75000D02*
Y285000D01*
X2052500Y75000D02*
X2152500D01*
X2245000Y1570000D02*
Y1710000D01*
X1945000Y1570000D02*
X2245000D01*
X1945000D02*
Y1710000D01*
X2245000D01*
X2135000Y1460000D02*
Y1570000D01*
X1945000Y1460000D02*
X2135000D01*
X1945000D02*
Y1570000D01*
X2135000D01*
X1357500Y652500D02*
X1657500D01*
Y792500D01*
X1357500D02*
X1657500D01*
X1357500Y652500D02*
Y792500D01*
X1810000Y765000D02*
X1920000D01*
Y575000D02*
Y765000D01*
X1810000Y575000D02*
X1920000D01*
X1810000D02*
Y765000D01*
X2052500Y1180000D02*
X2162500D01*
X2052500D02*
Y1370000D01*
X2162500D01*
Y1180000D02*
Y1370000D01*
X1492500Y1710000D02*
X1632500D01*
Y1410000D02*
Y1710000D01*
X1492500Y1410000D02*
X1632500D01*
X1492500D02*
Y1710000D01*
X1605000Y1180000D02*
X1715000D01*
X1605000D02*
Y1370000D01*
X1715000D01*
Y1180000D02*
Y1370000D01*
X1727500Y792500D02*
Y902500D01*
X1537500Y792500D02*
X1727500D01*
X1537500D02*
Y902500D01*
X1727500D01*
X1857500Y1180000D02*
X1967500D01*
X1857500D02*
Y1370000D01*
X1967500D01*
Y1180000D02*
Y1370000D01*
X1727500Y1042500D02*
Y1152500D01*
X1537500Y1042500D02*
X1727500D01*
X1537500D02*
Y1152500D01*
X1727500D01*
X1330000Y792500D02*
X1470000D01*
X1330000D02*
Y1092500D01*
X1470000D01*
Y792500D02*
Y1092500D01*
X1727500Y892500D02*
Y1002500D01*
X1537500Y892500D02*
X1727500D01*
X1537500D02*
Y1002500D01*
X1727500D01*
X1567500Y352500D02*
X1707500D01*
X1567500D02*
Y652500D01*
X1707500D01*
Y352500D02*
Y652500D01*
X1705000Y765000D02*
X1815000D01*
Y575000D02*
Y765000D01*
X1705000Y575000D02*
X1815000D01*
X1705000D02*
Y765000D01*
X1735000Y1370001D02*
Y1670000D01*
Y1370001D02*
X1875000D01*
Y1670000D01*
X1735000D02*
X1875000D01*
X1817500Y1180000D02*
Y1370000D01*
X1707500D02*
X1817500D01*
X1707500Y1180000D02*
Y1370000D01*
Y1180000D02*
X1817500D01*
X1795000Y275000D02*
X1935000D01*
X1795000D02*
Y575000D01*
X1935000D01*
Y275000D02*
Y575000D01*
X2375001Y1145000D02*
X2675000D01*
X2375001Y1005000D02*
Y1145000D01*
Y1005000D02*
X2675000D01*
Y1145000D01*
X2140000Y1020000D02*
X2330000D01*
Y1130000D01*
X2140000D02*
X2330000D01*
X2140000Y1020000D02*
Y1130000D01*
X2675000Y865000D02*
Y1005000D01*
X2375000Y865000D02*
X2675000D01*
X2375000D02*
Y1005000D01*
X2675000D01*
X2140000Y832500D02*
X2330000D01*
Y942500D01*
X2140000D02*
X2330000D01*
X2140000Y832500D02*
Y942500D01*
Y922500D02*
X2330000D01*
Y1032500D01*
X2140000D02*
X2330000D01*
X2140000Y922500D02*
Y1032500D01*
X1905000Y575000D02*
Y765000D01*
Y575000D02*
X2015000D01*
Y765000D01*
X1905000D02*
X2015000D01*
X2065000Y1180000D02*
Y1370000D01*
X1955000D02*
X2065000D01*
X1955000Y1180000D02*
Y1370000D01*
Y1180000D02*
X2065000D01*
%TF.MD5,a14a78befd96a533486a8c65f2d75811*%
M02*
