%TF.GenerationSoftware,Altium Limited,Altium Designer,20.1.12 (249)*%
G04 Layer_Physical_Order=4*
G04 Layer_Color=16711680*
%FSLAX45Y45*%
%MOMM*%
%TF.SameCoordinates,27206DED-D720-4121-B7EB-46A740E941A3*%
%TF.FilePolarity,Positive*%
%TF.FileFunction,Copper,L4,Bot,Signal*%
%TF.Part,Single*%
G01*
G75*
%TA.AperFunction,Conductor*%
%ADD11C,0.30000*%
%TA.AperFunction,SMDPad,CuDef*%
G04:AMPARAMS|DCode=12|XSize=1mm|YSize=1mm|CornerRadius=0.1mm|HoleSize=0mm|Usage=FLASHONLY|Rotation=0.000|XOffset=0mm|YOffset=0mm|HoleType=Round|Shape=RoundedRectangle|*
%AMROUNDEDRECTD12*
21,1,1.00000,0.80000,0,0,0.0*
21,1,0.80000,1.00000,0,0,0.0*
1,1,0.20000,0.40000,-0.40000*
1,1,0.20000,-0.40000,-0.40000*
1,1,0.20000,-0.40000,0.40000*
1,1,0.20000,0.40000,0.40000*
%
%ADD12ROUNDEDRECTD12*%
G04:AMPARAMS|DCode=16|XSize=0.9mm|YSize=1mm|CornerRadius=0.09mm|HoleSize=0mm|Usage=FLASHONLY|Rotation=0.000|XOffset=0mm|YOffset=0mm|HoleType=Round|Shape=RoundedRectangle|*
%AMROUNDEDRECTD16*
21,1,0.90000,0.82000,0,0,0.0*
21,1,0.72000,1.00000,0,0,0.0*
1,1,0.18000,0.36000,-0.41000*
1,1,0.18000,-0.36000,-0.41000*
1,1,0.18000,-0.36000,0.41000*
1,1,0.18000,0.36000,0.41000*
%
%ADD16ROUNDEDRECTD16*%
G04:AMPARAMS|DCode=17|XSize=1.8mm|YSize=1.3mm|CornerRadius=0.13mm|HoleSize=0mm|Usage=FLASHONLY|Rotation=270.000|XOffset=0mm|YOffset=0mm|HoleType=Round|Shape=RoundedRectangle|*
%AMROUNDEDRECTD17*
21,1,1.80000,1.04000,0,0,270.0*
21,1,1.54000,1.30000,0,0,270.0*
1,1,0.26000,-0.52000,-0.77000*
1,1,0.26000,-0.52000,0.77000*
1,1,0.26000,0.52000,0.77000*
1,1,0.26000,0.52000,-0.77000*
%
%ADD17ROUNDEDRECTD17*%
%ADD23C,0.63500*%
G04:AMPARAMS|DCode=27|XSize=0.5mm|YSize=0.65mm|CornerRadius=0.05mm|HoleSize=0mm|Usage=FLASHONLY|Rotation=180.000|XOffset=0mm|YOffset=0mm|HoleType=Round|Shape=RoundedRectangle|*
%AMROUNDEDRECTD27*
21,1,0.50000,0.55000,0,0,180.0*
21,1,0.40000,0.65000,0,0,180.0*
1,1,0.10000,-0.20000,0.27500*
1,1,0.10000,0.20000,0.27500*
1,1,0.10000,0.20000,-0.27500*
1,1,0.10000,-0.20000,-0.27500*
%
%ADD27ROUNDEDRECTD27*%
G04:AMPARAMS|DCode=29|XSize=0.6mm|YSize=0.5mm|CornerRadius=0.05mm|HoleSize=0mm|Usage=FLASHONLY|Rotation=270.000|XOffset=0mm|YOffset=0mm|HoleType=Round|Shape=RoundedRectangle|*
%AMROUNDEDRECTD29*
21,1,0.60000,0.40000,0,0,270.0*
21,1,0.50000,0.50000,0,0,270.0*
1,1,0.10000,-0.20000,-0.25000*
1,1,0.10000,-0.20000,0.25000*
1,1,0.10000,0.20000,0.25000*
1,1,0.10000,0.20000,-0.25000*
%
%ADD29ROUNDEDRECTD29*%
G04:AMPARAMS|DCode=30|XSize=0.6mm|YSize=0.5mm|CornerRadius=0.05mm|HoleSize=0mm|Usage=FLASHONLY|Rotation=180.000|XOffset=0mm|YOffset=0mm|HoleType=Round|Shape=RoundedRectangle|*
%AMROUNDEDRECTD30*
21,1,0.60000,0.40000,0,0,180.0*
21,1,0.50000,0.50000,0,0,180.0*
1,1,0.10000,-0.25000,0.20000*
1,1,0.10000,0.25000,0.20000*
1,1,0.10000,0.25000,-0.20000*
1,1,0.10000,-0.25000,-0.20000*
%
%ADD30ROUNDEDRECTD30*%
G04:AMPARAMS|DCode=32|XSize=0.5mm|YSize=0.65mm|CornerRadius=0.05mm|HoleSize=0mm|Usage=FLASHONLY|Rotation=90.000|XOffset=0mm|YOffset=0mm|HoleType=Round|Shape=RoundedRectangle|*
%AMROUNDEDRECTD32*
21,1,0.50000,0.55000,0,0,90.0*
21,1,0.40000,0.65000,0,0,90.0*
1,1,0.10000,0.27500,0.20000*
1,1,0.10000,0.27500,-0.20000*
1,1,0.10000,-0.27500,-0.20000*
1,1,0.10000,-0.27500,0.20000*
%
%ADD32ROUNDEDRECTD32*%
%TA.AperFunction,Conductor*%
%ADD35C,0.20000*%
%ADD36C,0.50000*%
%TA.AperFunction,NonConductor*%
%ADD38C,0.20000*%
%TA.AperFunction,WasherPad*%
%ADD39C,2.20000*%
%TA.AperFunction,ViaPad*%
%ADD40C,0.50000*%
%TA.AperFunction,Conductor*%
%ADD41C,0.13661*%
%TA.AperFunction,SMDPad,CuDef*%
G04:AMPARAMS|DCode=42|XSize=0.6mm|YSize=0.25mm|CornerRadius=0.025mm|HoleSize=0mm|Usage=FLASHONLY|Rotation=180.000|XOffset=0mm|YOffset=0mm|HoleType=Round|Shape=RoundedRectangle|*
%AMROUNDEDRECTD42*
21,1,0.60000,0.20000,0,0,180.0*
21,1,0.55000,0.25000,0,0,180.0*
1,1,0.05000,-0.27500,0.10000*
1,1,0.05000,0.27500,0.10000*
1,1,0.05000,0.27500,-0.10000*
1,1,0.05000,-0.27500,-0.10000*
%
%ADD42ROUNDEDRECTD42*%
G04:AMPARAMS|DCode=43|XSize=0.6mm|YSize=0.25mm|CornerRadius=0.025mm|HoleSize=0mm|Usage=FLASHONLY|Rotation=90.000|XOffset=0mm|YOffset=0mm|HoleType=Round|Shape=RoundedRectangle|*
%AMROUNDEDRECTD43*
21,1,0.60000,0.20000,0,0,90.0*
21,1,0.55000,0.25000,0,0,90.0*
1,1,0.05000,0.10000,0.27500*
1,1,0.05000,0.10000,-0.27500*
1,1,0.05000,-0.10000,-0.27500*
1,1,0.05000,-0.10000,0.27500*
%
%ADD43ROUNDEDRECTD43*%
G04:AMPARAMS|DCode=44|XSize=3.7mm|YSize=3.7mm|CornerRadius=0.0925mm|HoleSize=0mm|Usage=FLASHONLY|Rotation=180.000|XOffset=0mm|YOffset=0mm|HoleType=Round|Shape=RoundedRectangle|*
%AMROUNDEDRECTD44*
21,1,3.70000,3.51500,0,0,180.0*
21,1,3.51500,3.70000,0,0,180.0*
1,1,0.18500,-1.75750,1.75750*
1,1,0.18500,1.75750,1.75750*
1,1,0.18500,1.75750,-1.75750*
1,1,0.18500,-1.75750,-1.75750*
%
%ADD44ROUNDEDRECTD44*%
%ADD45O,0.65000X0.30000*%
%ADD46R,1.90500X1.90500*%
%ADD47C,1.52000*%
%TA.AperFunction,Conductor*%
%ADD48C,0.20500*%
%ADD49C,0.25000*%
%TA.AperFunction,NonConductor*%
%ADD50C,0.15000*%
G36*
X1540000Y2040000D02*
X2317989D01*
Y2338353D01*
X2327806Y2346410D01*
X2343467Y2343295D01*
X2370588Y2332061D01*
X2394996Y2315753D01*
X2415752Y2294997D01*
X2432061Y2270588D01*
X2443295Y2243467D01*
X2449022Y2214678D01*
Y2200000D01*
Y1602859D01*
X2436322Y1596852D01*
X2411652Y1617098D01*
X2376907Y1635670D01*
X2339207Y1647106D01*
X2300000Y1650967D01*
X2260793Y1647106D01*
X2223093Y1635670D01*
X2188348Y1617098D01*
X2157894Y1592106D01*
X2150993Y1583696D01*
X2138294Y1583904D01*
X2133092Y1590684D01*
X2133091Y1590685D01*
X2082583Y1641193D01*
X2073962Y1647807D01*
X2065761Y1654920D01*
X2062843Y1656340D01*
X2060267Y1658316D01*
X2050232Y1662473D01*
X2040465Y1667223D01*
X2037278Y1667839D01*
X2034279Y1669081D01*
X2023508Y1670499D01*
X2012847Y1672559D01*
X2009611Y1672329D01*
X2006391Y1672753D01*
X2006387Y1672752D01*
X1945235D01*
X1945123Y1673602D01*
X1934359Y1699590D01*
X1926525Y1709800D01*
X1932788Y1722500D01*
X2300000D01*
Y1930565D01*
X1303057D01*
Y1722500D01*
X1356970D01*
X1362587Y1711110D01*
X1358312Y1705539D01*
X1345717Y1675132D01*
X1341421Y1642500D01*
X1345717Y1609868D01*
X1358312Y1579461D01*
X1378349Y1553349D01*
X1386870Y1546810D01*
X1393503Y1530796D01*
X1410627Y1508479D01*
X1456659Y1462448D01*
X1456660Y1462447D01*
X1475515Y1447979D01*
X1477611Y1437442D01*
X1487557Y1422557D01*
X1502442Y1412611D01*
X1520000Y1409118D01*
X1537558Y1412611D01*
X1552443Y1422557D01*
X1558009Y1430887D01*
X1605223D01*
X1620763Y1418963D01*
X1626951Y1416400D01*
X1629514Y1410212D01*
X1646638Y1387896D01*
X1668954Y1370772D01*
X1694942Y1360008D01*
X1699609Y1359393D01*
X1707613Y1345530D01*
X1707010Y1342500D01*
Y1287500D01*
X1708951Y1277745D01*
X1714476Y1269476D01*
X1716814Y1267914D01*
Y1260089D01*
X1710111Y1250057D01*
X1706619Y1232499D01*
X1707562Y1227758D01*
X1699505Y1217940D01*
X1692500D01*
X1687428Y1216931D01*
X1679181Y1226872D01*
X1679031Y1227224D01*
X1681049Y1230245D01*
X1682990Y1240000D01*
Y1295000D01*
X1681049Y1304754D01*
X1675524Y1313024D01*
X1671583Y1315657D01*
Y1324107D01*
X1668866Y1337763D01*
X1661131Y1349341D01*
X1637738Y1372734D01*
X1626160Y1380469D01*
X1612504Y1383186D01*
X1482282D01*
X1399339Y1466129D01*
X1387762Y1473864D01*
X1377990Y1475808D01*
Y1480000D01*
X1376050Y1489754D01*
X1370524Y1498024D01*
X1362255Y1503549D01*
X1352500Y1505490D01*
X1312500D01*
X1302746Y1503549D01*
X1294476Y1498024D01*
X1288951Y1489754D01*
X1287011Y1480000D01*
Y1430000D01*
X1288951Y1420246D01*
X1294476Y1411976D01*
Y1398024D01*
X1288951Y1389754D01*
X1287011Y1380000D01*
Y1375637D01*
X1167794D01*
X845637Y1697793D01*
Y1990546D01*
X858337Y1998938D01*
X870000Y1996618D01*
X887558Y2000111D01*
X902443Y2010056D01*
X903683Y2011912D01*
X920280D01*
X923844Y2009530D01*
X924412Y2009417D01*
Y1996878D01*
X920246Y1996049D01*
X911976Y1990524D01*
X906451Y1982254D01*
X904511Y1972500D01*
Y1932500D01*
X906451Y1922745D01*
X911976Y1914476D01*
X920246Y1908950D01*
X930000Y1907010D01*
X980000D01*
X989754Y1908950D01*
X998024Y1914476D01*
X1011977D01*
X1020246Y1908950D01*
X1030000Y1907010D01*
X1080000D01*
X1089754Y1908950D01*
X1098024Y1914476D01*
X1103549Y1922745D01*
X1105490Y1932500D01*
Y1972500D01*
X1103549Y1982254D01*
X1098024Y1990524D01*
X1089754Y1996049D01*
X1085588Y1996878D01*
Y2010124D01*
X1092254Y2011450D01*
X1100524Y2016976D01*
X1112390Y2011875D01*
X1120638Y2006364D01*
X1132500Y2004004D01*
X1142500D01*
Y2062499D01*
Y2120996D01*
X1132500D01*
X1120638Y2118636D01*
X1115186Y2114993D01*
X1107491Y2120560D01*
X1105106Y2123532D01*
X1108382Y2140000D01*
X1104889Y2157558D01*
X1094943Y2172443D01*
X1080058Y2182389D01*
X1068088Y2184770D01*
Y2257499D01*
X1068088Y2257500D01*
X1065759Y2269205D01*
X1059129Y2279129D01*
X1059128Y2279129D01*
X1029129Y2309129D01*
X1019205Y2315759D01*
X1007500Y2318088D01*
X1007499Y2318088D01*
X897993D01*
X893024Y2325524D01*
X884754Y2331049D01*
X875000Y2332989D01*
X825000D01*
X815246Y2331049D01*
X806976Y2325524D01*
X793024D01*
X784754Y2331049D01*
X775000Y2332989D01*
X725000D01*
X715246Y2331049D01*
X706976Y2325524D01*
X702007Y2318088D01*
X590000D01*
X578294Y2315759D01*
X568371Y2309129D01*
X547188Y2287946D01*
X545000Y2288382D01*
X527442Y2284889D01*
X512557Y2274943D01*
X502611Y2260058D01*
X499118Y2242500D01*
X502611Y2224942D01*
X506719Y2218794D01*
X507716Y2206413D01*
X503167Y2202990D01*
X499476Y2200523D01*
X493950Y2192254D01*
X492010Y2182500D01*
Y2142500D01*
X493950Y2132745D01*
X499476Y2124476D01*
X494375Y2112610D01*
X488864Y2104361D01*
X486504Y2092500D01*
Y2082500D01*
X545000D01*
Y2062500D01*
X486504D01*
Y2052500D01*
X488864Y2040638D01*
X495583Y2030583D01*
X505638Y2023864D01*
X509248Y2023146D01*
X511930Y2009663D01*
X509476Y2008024D01*
X503950Y1999754D01*
X502010Y1990000D01*
Y1940000D01*
X503950Y1930246D01*
X509476Y1921976D01*
Y1908023D01*
X503950Y1899754D01*
X502010Y1890000D01*
Y1866970D01*
X501618Y1865000D01*
Y1826103D01*
X500185Y1825817D01*
X490592Y1819408D01*
X484182Y1809815D01*
X481932Y1798500D01*
Y1716500D01*
X484182Y1705185D01*
X490592Y1695592D01*
X500185Y1689183D01*
X501618Y1688897D01*
Y1650000D01*
X505111Y1632442D01*
X515057Y1617557D01*
X516555Y1616555D01*
X517557Y1615057D01*
X532442Y1605111D01*
X550000Y1601618D01*
X567558Y1605111D01*
X582443Y1615057D01*
X592389Y1629942D01*
X595881Y1647500D01*
X593381Y1660069D01*
Y1688897D01*
X594815Y1689183D01*
X604407Y1695592D01*
X610817Y1705185D01*
X613068Y1716500D01*
Y1798500D01*
X610817Y1809815D01*
X604407Y1819408D01*
X594815Y1825817D01*
X593381Y1826103D01*
Y1865000D01*
X592989Y1866970D01*
Y1890000D01*
X591049Y1899754D01*
X585524Y1908024D01*
Y1921976D01*
X591049Y1930246D01*
X591878Y1934412D01*
X607219D01*
X607611Y1932442D01*
X617557Y1917557D01*
X632442Y1907611D01*
X650000Y1904118D01*
X667558Y1907611D01*
X682443Y1917557D01*
X692389Y1932442D01*
X695882Y1950000D01*
X692389Y1967558D01*
X682443Y1982443D01*
X680588Y1983683D01*
Y2009417D01*
X681157Y2009530D01*
X692734Y2017266D01*
X700470Y2028843D01*
X703186Y2042500D01*
X700470Y2056156D01*
X695950Y2062920D01*
X696627Y2063373D01*
X705556Y2076736D01*
X706702Y2082499D01*
X650001D01*
Y2102499D01*
X706703D01*
X705556Y2108263D01*
X696627Y2121626D01*
X695950Y2122079D01*
X700470Y2128843D01*
X703186Y2142499D01*
X714146Y2150140D01*
X719845Y2150795D01*
X736863Y2133777D01*
Y1672502D01*
X739386Y1659821D01*
X746569Y1649071D01*
X1176571Y1219069D01*
X1187322Y1211886D01*
X1200002Y1209363D01*
X1288629D01*
X1288950Y1207746D01*
X1294476Y1199476D01*
Y1185523D01*
X1288950Y1177254D01*
X1287010Y1167500D01*
Y1160840D01*
X1275235Y1153303D01*
X1274310Y1153424D01*
X1264943Y1167443D01*
X1250058Y1177389D01*
X1232500Y1180881D01*
X1214942Y1177389D01*
X1200057Y1167443D01*
X1190111Y1152558D01*
X1186618Y1135000D01*
X1190111Y1117442D01*
X1199259Y1103750D01*
X1190111Y1090058D01*
X1186618Y1072500D01*
X1190111Y1054942D01*
X1200057Y1040057D01*
X1214942Y1030111D01*
X1232500Y1026618D01*
X1239449Y1028001D01*
X1250249Y1017200D01*
X1249314Y1012500D01*
Y995427D01*
X1241976Y990524D01*
X1236451Y982254D01*
X1234510Y972500D01*
Y932500D01*
X1236451Y922746D01*
X1241976Y914476D01*
X1244480Y912803D01*
X1244898Y911471D01*
X1243838Y898262D01*
X1238083Y894417D01*
X1231364Y884361D01*
X1229005Y872500D01*
Y862500D01*
X1285000D01*
Y842500D01*
X1229005D01*
Y832500D01*
X1231364Y820638D01*
X1234306Y816236D01*
X1232557Y807443D01*
X1222611Y792558D01*
X1219119Y775000D01*
X1222611Y757442D01*
X1232557Y742557D01*
X1247442Y732611D01*
X1249757Y732151D01*
X1252536Y724758D01*
X1252967Y718563D01*
X1225057Y690653D01*
X1215111Y675769D01*
X1214081Y670588D01*
X1192500D01*
X1180795Y668259D01*
X1170871Y661629D01*
X1170850Y661597D01*
X1158150Y665450D01*
Y758150D01*
X1047500D01*
Y637499D01*
Y516850D01*
X1158150D01*
Y534551D01*
X1170850Y538403D01*
X1170871Y538371D01*
X1180795Y531741D01*
X1192500Y529412D01*
X1272500D01*
X1284205Y531741D01*
X1294129Y538371D01*
X1300759Y548295D01*
X1302273Y555908D01*
X1315222D01*
X1316111Y551442D01*
X1326057Y536557D01*
X1340942Y526611D01*
X1358500Y523118D01*
X1376058Y526611D01*
X1390943Y536557D01*
X1400889Y551442D01*
X1404381Y569000D01*
X1400889Y586558D01*
X1390943Y601443D01*
X1376058Y611389D01*
X1358500Y614881D01*
X1340942Y611389D01*
X1326057Y601443D01*
X1316111Y586558D01*
X1315788Y584933D01*
X1303088Y586183D01*
Y623521D01*
X1303382Y625000D01*
Y639205D01*
X1305795Y641618D01*
X1327500D01*
X1345058Y645111D01*
X1359943Y655057D01*
X1369889Y669942D01*
X1373382Y687500D01*
X1369889Y705058D01*
X1359943Y719943D01*
X1345058Y729889D01*
X1327500Y733382D01*
X1305424D01*
X1304334Y734635D01*
X1299799Y746082D01*
X1307389Y757442D01*
X1310882Y775000D01*
X1308136Y788804D01*
X1308962Y794427D01*
X1315902Y802678D01*
X1321862Y803864D01*
X1330110Y809375D01*
X1341977Y814476D01*
X1350246Y808950D01*
X1360000Y807010D01*
X1368797D01*
X1374784Y795809D01*
X1372611Y792558D01*
X1369119Y775000D01*
X1372611Y757442D01*
X1382557Y742557D01*
X1397442Y732611D01*
X1415000Y729118D01*
X1417189Y729554D01*
X1432621Y714122D01*
X1432622Y714121D01*
X1442545Y707490D01*
X1454251Y705162D01*
X1454252Y705162D01*
X1473583D01*
X1484511Y695000D01*
Y655000D01*
X1486451Y645246D01*
X1491976Y636976D01*
X1486876Y625110D01*
X1481364Y616862D01*
X1479005Y605000D01*
Y594999D01*
X1537501D01*
X1595996D01*
Y605000D01*
X1593637Y616862D01*
X1588125Y625110D01*
X1583024Y636976D01*
X1588550Y645246D01*
X1589856Y651814D01*
X1627410D01*
X1637442Y645111D01*
X1655000Y641618D01*
X1672558Y645111D01*
X1674515Y646418D01*
X1676279Y643778D01*
X1683721Y638805D01*
X1690106Y637535D01*
X1686618Y620000D01*
X1690111Y602442D01*
X1693018Y598092D01*
X1691874Y593091D01*
X1686685Y584710D01*
X1682307Y583839D01*
X1675692Y579419D01*
X1675691Y579418D01*
X1594164Y497892D01*
X1296626D01*
X1294129Y501629D01*
X1284205Y508259D01*
X1272500Y510588D01*
X1192500D01*
X1180795Y508259D01*
X1170871Y501629D01*
X1168374Y497892D01*
X1007312D01*
X1003509Y504775D01*
X1010674Y516850D01*
X1027500D01*
Y627499D01*
X916850D01*
Y605019D01*
X905957Y598490D01*
X886520Y608879D01*
X844108Y621745D01*
X800000Y626089D01*
X755892Y621745D01*
X713480Y608879D01*
X694043Y598490D01*
X683150Y605019D01*
Y627500D01*
X572500D01*
Y516850D01*
X594981D01*
X601510Y505957D01*
X591121Y486520D01*
X578255Y444108D01*
X573911Y400000D01*
X578255Y355892D01*
X591121Y313480D01*
X601510Y294043D01*
X594981Y283150D01*
X572500D01*
Y172500D01*
X683150D01*
Y194981D01*
X694043Y201510D01*
X713480Y191121D01*
X755892Y178255D01*
X800000Y173911D01*
X844108Y178255D01*
X886520Y191121D01*
X905957Y201510D01*
X916850Y194981D01*
Y172500D01*
X1027500D01*
Y283150D01*
X1018149D01*
X1010747Y295850D01*
X1011459Y297108D01*
X1262108Y297108D01*
Y267278D01*
X1257500Y263496D01*
X1242499D01*
Y212501D01*
Y161505D01*
X1257500D01*
X1263644Y149778D01*
X1263660Y149697D01*
X1268081Y143081D01*
X1274696Y138661D01*
X1282500Y137108D01*
X1744999D01*
X1745000Y137108D01*
X1752804Y138661D01*
X1759420Y143081D01*
X1759420Y143082D01*
X1942409Y326071D01*
X1946830Y332686D01*
X1948382Y340490D01*
Y479425D01*
X1961082Y487790D01*
X1965000Y487010D01*
X2005000D01*
X2014755Y488951D01*
X2023024Y494476D01*
X2034890Y489375D01*
X2043139Y483864D01*
X2055000Y481504D01*
X2065001D01*
Y540000D01*
X2085001D01*
Y481504D01*
X2095000D01*
X2106862Y483864D01*
X2113804Y488502D01*
X2124353Y484606D01*
X2126504Y482877D01*
Y465000D01*
X2128864Y453139D01*
X2135583Y443083D01*
X2145638Y436364D01*
X2157500Y434004D01*
X2175000D01*
Y485000D01*
X2185000D01*
Y495000D01*
X2243496D01*
Y505000D01*
X2241136Y516862D01*
X2235625Y525110D01*
X2230524Y536976D01*
X2236049Y545246D01*
X2237990Y555000D01*
Y595000D01*
X2236049Y604754D01*
X2230524Y613024D01*
X2222254Y618549D01*
X2212500Y620489D01*
X2188196D01*
X2187733Y621181D01*
X2182871Y626043D01*
X2180051Y640221D01*
X2172162Y652028D01*
X2173248Y656768D01*
X2176130Y662209D01*
X2177998Y664412D01*
X2212008D01*
X2216977Y656976D01*
X2225246Y651451D01*
X2235000Y649511D01*
X2290001D01*
X2299755Y651451D01*
X2308024Y656976D01*
X2309587Y659314D01*
X2327914D01*
X2329477Y656976D01*
X2337746Y651451D01*
X2347501Y649511D01*
X2387500D01*
X2397255Y651451D01*
X2405524Y656976D01*
X2411050Y665246D01*
X2412990Y675000D01*
Y725000D01*
X2411050Y734754D01*
X2405524Y743024D01*
Y756977D01*
X2411050Y765246D01*
X2412990Y775000D01*
Y798030D01*
X2413382Y800000D01*
Y877500D01*
X2410941Y889771D01*
X2437288Y916118D01*
X2449022Y911258D01*
Y352859D01*
X2436322Y346852D01*
X2411652Y367099D01*
X2376907Y385670D01*
X2339207Y397106D01*
X2300000Y400968D01*
X2260793Y397106D01*
X2223093Y385670D01*
X2188348Y367099D01*
X2157894Y342106D01*
X2132901Y311652D01*
X2114330Y276907D01*
X2102894Y239207D01*
X2099032Y200000D01*
X2102894Y160793D01*
X2114330Y123093D01*
X2132901Y88349D01*
X2153148Y63678D01*
X2147141Y50978D01*
X1158150D01*
Y152500D01*
X916850D01*
Y50978D01*
X683150D01*
Y152500D01*
X441850D01*
Y50978D01*
X352859D01*
X346852Y63678D01*
X367099Y88349D01*
X385670Y123093D01*
X397106Y160793D01*
X400968Y200000D01*
X397106Y239207D01*
X385670Y276907D01*
X367099Y311652D01*
X342106Y342106D01*
X311652Y367099D01*
X276907Y385670D01*
X239207Y397106D01*
X200000Y400968D01*
X160793Y397106D01*
X123093Y385670D01*
X88349Y367099D01*
X63678Y346852D01*
X50978Y352859D01*
Y680767D01*
X63678Y684620D01*
X65057Y682557D01*
X79942Y672611D01*
X97500Y669119D01*
X177500D01*
X195058Y672611D01*
X209943Y682557D01*
X279005Y751619D01*
X441850D01*
Y647500D01*
X683150D01*
Y758150D01*
X659185D01*
X659036Y758302D01*
X653559Y770850D01*
X658085Y777624D01*
X660646Y790500D01*
Y944500D01*
X658085Y957376D01*
X650792Y968292D01*
X639876Y975585D01*
X627000Y978146D01*
X523000D01*
X510124Y975585D01*
X499209Y968292D01*
X491915Y957376D01*
X489354Y944500D01*
Y843382D01*
X260000D01*
X242442Y839889D01*
X227557Y829943D01*
X158495Y760882D01*
X97500D01*
X79942Y757389D01*
X65057Y747443D01*
X63678Y745380D01*
X50978Y749233D01*
Y1297141D01*
X63678Y1303148D01*
X88349Y1282901D01*
X123093Y1264330D01*
X160793Y1252894D01*
X200000Y1249032D01*
X239207Y1252894D01*
X276907Y1264330D01*
X311652Y1282901D01*
X342106Y1307894D01*
X367099Y1338348D01*
X385670Y1373093D01*
X397106Y1410793D01*
X400968Y1450000D01*
X397106Y1489207D01*
X385670Y1526907D01*
X367099Y1561651D01*
X342106Y1592106D01*
X311652Y1617098D01*
X276907Y1635670D01*
X239207Y1647106D01*
X200000Y1650967D01*
X160793Y1647106D01*
X123093Y1635670D01*
X88349Y1617098D01*
X63678Y1596852D01*
X50978Y1602859D01*
Y2200000D01*
Y2214677D01*
X56705Y2243468D01*
X67939Y2270588D01*
X84247Y2294996D01*
X105003Y2315752D01*
X129412Y2332061D01*
X156533Y2343295D01*
X185322Y2349022D01*
X1268587D01*
Y2187500D01*
X1420000D01*
Y2349022D01*
X1540000D01*
Y2040000D01*
D02*
G37*
G36*
X2025000Y2060000D02*
X1560000D01*
Y2348716D01*
X2025000D01*
Y2060000D01*
D02*
G37*
G36*
X2297989Y2200156D02*
Y2060000D01*
X2025000D01*
Y2200156D01*
Y2348716D01*
X2297989D01*
Y2200156D01*
D02*
G37*
%LPC*%
G36*
X1172500Y2120996D02*
X1162500D01*
Y2072499D01*
X1203495D01*
Y2090000D01*
X1201136Y2101861D01*
X1194417Y2111917D01*
X1184361Y2118636D01*
X1172500Y2120996D01*
D02*
G37*
G36*
X1203495Y2052499D02*
X1162500D01*
Y2004004D01*
X1172500D01*
X1184361Y2006364D01*
X1194417Y2013083D01*
X1201136Y2023138D01*
X1203495Y2035000D01*
Y2052499D01*
D02*
G37*
G36*
X413500Y1833574D02*
X387500D01*
Y1767500D01*
X448573D01*
Y1798500D01*
X445904Y1811922D01*
X438301Y1823301D01*
X426922Y1830904D01*
X413500Y1833574D01*
D02*
G37*
G36*
X367500D02*
X341500D01*
X328078Y1830904D01*
X316699Y1823301D01*
X309096Y1811922D01*
X306426Y1798500D01*
Y1767500D01*
X367500D01*
Y1833574D01*
D02*
G37*
G36*
X1260000Y1877478D02*
X961002D01*
Y1707500D01*
X1260000D01*
Y1877478D01*
D02*
G37*
G36*
X448573Y1747500D02*
X387500D01*
Y1681426D01*
X413500D01*
X426922Y1684096D01*
X438301Y1691699D01*
X445904Y1703078D01*
X448573Y1716500D01*
Y1747500D01*
D02*
G37*
G36*
X367500D02*
X306426D01*
Y1716500D01*
X309096Y1703078D01*
X316699Y1691699D01*
X328078Y1684096D01*
X341500Y1681426D01*
X367500D01*
Y1747500D01*
D02*
G37*
G36*
X570000Y1433496D02*
X555000D01*
X543138Y1431136D01*
X534890Y1425625D01*
X523023Y1420524D01*
X514754Y1426049D01*
X505000Y1427990D01*
X455000D01*
X445245Y1426049D01*
X436976Y1420524D01*
X431450Y1412254D01*
X429510Y1402500D01*
Y1362500D01*
X431450Y1352746D01*
X436976Y1344476D01*
X445191Y1338987D01*
X445245Y1338707D01*
X445245Y1326294D01*
X445191Y1326013D01*
X436976Y1320524D01*
X432008Y1313088D01*
X422737D01*
X412558Y1319889D01*
X395000Y1323382D01*
X377442Y1319889D01*
X362557Y1309943D01*
X352611Y1295058D01*
X349118Y1277500D01*
X352611Y1259942D01*
X362557Y1245057D01*
X377442Y1235111D01*
X395000Y1231619D01*
X412558Y1235111D01*
X427443Y1245057D01*
X440677Y1242003D01*
X445246Y1238951D01*
X448285Y1238346D01*
X447034Y1225646D01*
X438001D01*
X425125Y1223085D01*
X414209Y1215791D01*
X406915Y1204876D01*
X404354Y1192000D01*
Y1038000D01*
X406915Y1025124D01*
X414209Y1014208D01*
X425125Y1006915D01*
X438001Y1004354D01*
X542000D01*
X554876Y1006915D01*
X565792Y1014208D01*
X573086Y1025124D01*
X575647Y1038000D01*
Y1069118D01*
X592500D01*
X610058Y1072611D01*
X624943Y1082557D01*
X634889Y1097442D01*
X638382Y1115000D01*
X634889Y1132558D01*
X624943Y1147443D01*
X623088Y1148683D01*
Y1244572D01*
X628549Y1252746D01*
X630490Y1262500D01*
Y1302500D01*
X628549Y1312254D01*
X623024Y1320524D01*
X620520Y1322197D01*
X620102Y1323529D01*
X621162Y1336738D01*
X626917Y1340583D01*
X633636Y1350639D01*
X635995Y1362500D01*
Y1372500D01*
X580000D01*
Y1382500D01*
X570000D01*
Y1433496D01*
D02*
G37*
G36*
X605000D02*
X590000D01*
Y1392500D01*
X635995D01*
Y1402500D01*
X633636Y1414362D01*
X626917Y1424417D01*
X616861Y1431136D01*
X605000Y1433496D01*
D02*
G37*
G36*
X832000Y1231152D02*
X790000D01*
Y1124999D01*
X871153D01*
Y1192000D01*
X868173Y1206983D01*
X859685Y1219685D01*
X846983Y1228172D01*
X832000Y1231152D01*
D02*
G37*
G36*
X770000D02*
X728001D01*
X713018Y1228172D01*
X700316Y1219685D01*
X691828Y1206983D01*
X688848Y1192000D01*
Y1124999D01*
X770000D01*
Y1231152D01*
D02*
G37*
G36*
X1060000Y1180882D02*
X1042442Y1177389D01*
X1027557Y1167443D01*
X1017611Y1152558D01*
X1014118Y1135000D01*
X1017611Y1117442D01*
X1027557Y1102557D01*
X1042442Y1092611D01*
X1060000Y1089118D01*
X1077558Y1092611D01*
X1092443Y1102557D01*
X1102389Y1117442D01*
X1105881Y1135000D01*
X1102389Y1152558D01*
X1092443Y1167443D01*
X1077558Y1177389D01*
X1060000Y1180882D01*
D02*
G37*
G36*
X871153Y1104999D02*
X790000D01*
Y998848D01*
X832000D01*
X846983Y1001828D01*
X859685Y1010315D01*
X868173Y1023017D01*
X871153Y1038000D01*
Y1104999D01*
D02*
G37*
G36*
X770000D02*
X688848D01*
Y1038000D01*
X691828Y1023017D01*
X700316Y1010315D01*
X713018Y1001828D01*
X728001Y998848D01*
X770000D01*
Y1104999D01*
D02*
G37*
G36*
X917000Y983652D02*
X875000D01*
Y877499D01*
X956152D01*
Y944500D01*
X953172Y959483D01*
X944685Y972185D01*
X931983Y980672D01*
X917000Y983652D01*
D02*
G37*
G36*
X855000D02*
X813000D01*
X798017Y980672D01*
X785315Y972185D01*
X776828Y959483D01*
X773848Y944500D01*
Y877499D01*
X855000D01*
Y983652D01*
D02*
G37*
G36*
Y857499D02*
X773848D01*
Y790500D01*
X776828Y775517D01*
X785315Y762815D01*
X798017Y754328D01*
X813000Y751348D01*
X855000D01*
Y857499D01*
D02*
G37*
G36*
X956152D02*
X875000D01*
Y751348D01*
X916850D01*
Y647499D01*
X1027500D01*
Y758150D01*
X956842D01*
X950053Y770850D01*
X953172Y775517D01*
X956152Y790500D01*
Y857499D01*
D02*
G37*
G36*
X1595996Y574999D02*
X1547501D01*
Y534005D01*
X1565000D01*
X1576862Y536364D01*
X1586918Y543083D01*
X1593637Y553139D01*
X1595996Y565000D01*
Y574999D01*
D02*
G37*
G36*
X1527501D02*
X1479005D01*
Y565000D01*
X1481364Y553139D01*
X1488083Y543083D01*
X1498139Y536364D01*
X1510000Y534005D01*
X1527501D01*
Y574999D01*
D02*
G37*
G36*
X552500Y627500D02*
X441850D01*
Y516850D01*
X552500D01*
Y627500D01*
D02*
G37*
G36*
X2243496Y475000D02*
X2195000D01*
Y434004D01*
X2212500D01*
X2224362Y436364D01*
X2234417Y443083D01*
X2241136Y453139D01*
X2243496Y465000D01*
Y475000D01*
D02*
G37*
G36*
X2088500Y399881D02*
X2070942Y396389D01*
X2056057Y386443D01*
X2046111Y371558D01*
X2042619Y354000D01*
X2046111Y336442D01*
X2056057Y321557D01*
X2070942Y311611D01*
X2088500Y308118D01*
X2106058Y311611D01*
X2120943Y321557D01*
X2130889Y336442D01*
X2134382Y354000D01*
X2130889Y371558D01*
X2120943Y386443D01*
X2106058Y396389D01*
X2088500Y399881D01*
D02*
G37*
G36*
X1222499Y263496D02*
X1207500D01*
X1195638Y261136D01*
X1185583Y254417D01*
X1178864Y244362D01*
X1176504Y232500D01*
Y222501D01*
X1222499D01*
Y263496D01*
D02*
G37*
G36*
X1158150Y283150D02*
X1047500D01*
Y172500D01*
X1158150D01*
Y283150D01*
D02*
G37*
G36*
X552500D02*
X441850D01*
Y172500D01*
X552500D01*
Y283150D01*
D02*
G37*
G36*
X1222499Y202501D02*
X1176504D01*
Y192500D01*
X1178864Y180639D01*
X1185583Y170583D01*
X1195638Y163864D01*
X1207500Y161505D01*
X1222499D01*
Y202501D01*
D02*
G37*
G36*
X1895243Y2184998D02*
X1894689D01*
X1893995Y2184860D01*
X1893163D01*
X1891083Y2184305D01*
X1890112Y2183889D01*
X1889003Y2183334D01*
X1888864Y2183196D01*
X1888587Y2183057D01*
X1888032Y2182641D01*
X1887338Y2182086D01*
X1886645Y2181393D01*
X1885952Y2180561D01*
X1885258Y2179451D01*
X1884565Y2178342D01*
X1884426Y2178203D01*
X1884287Y2177787D01*
X1884010Y2177093D01*
X1883733Y2176261D01*
X1883455Y2175013D01*
X1883178Y2173765D01*
X1882900Y2172378D01*
Y2170714D01*
Y2169882D01*
X1882762Y2170021D01*
X1882623Y2170437D01*
X1882346Y2170991D01*
X1881514Y2172378D01*
X1880404Y2174042D01*
X1879017Y2175845D01*
X1877214Y2177648D01*
X1874995Y2179451D01*
X1872499Y2181115D01*
X1872360D01*
X1872222Y2181254D01*
X1871806Y2181531D01*
X1871112Y2181670D01*
X1870419Y2182086D01*
X1869587Y2182363D01*
X1867507Y2183057D01*
X1865010Y2183750D01*
X1862098Y2184444D01*
X1858908Y2184860D01*
X1855441Y2184998D01*
X1853777D01*
X1853083Y2184860D01*
X1852113Y2184721D01*
X1849755Y2184444D01*
X1847120Y2184028D01*
X1844346Y2183196D01*
X1841434Y2182225D01*
X1838522Y2180838D01*
X1838383D01*
X1838244Y2180699D01*
X1837828Y2180422D01*
X1837273Y2180006D01*
X1836025Y2179174D01*
X1834361Y2177787D01*
X1832558Y2176123D01*
X1830617Y2174181D01*
X1828952Y2171685D01*
X1827427Y2169050D01*
X1827288Y2168911D01*
X1827011Y2168356D01*
X1826595Y2167386D01*
X1826179Y2166276D01*
X1825624Y2164889D01*
X1825208Y2163225D01*
X1824653Y2161561D01*
X1824376Y2159619D01*
Y2159342D01*
X1824237Y2158787D01*
X1824098Y2157678D01*
X1823960Y2156152D01*
X1823821Y2154349D01*
X1823682Y2152269D01*
X1823544Y2149911D01*
Y2104007D01*
X1823682Y2102759D01*
X1823960Y2101095D01*
X1824376Y2099292D01*
X1825069Y2097350D01*
X1825901Y2095547D01*
X1827150Y2093883D01*
X1827288Y2093744D01*
X1827843Y2093328D01*
X1828536Y2092635D01*
X1829646Y2091941D01*
X1831033Y2091248D01*
X1832697Y2090555D01*
X1834500Y2090139D01*
X1836580Y2090000D01*
X1837551D01*
X1838660Y2090277D01*
X1839908Y2090555D01*
X1841434Y2090971D01*
X1842959Y2091664D01*
X1844624Y2092635D01*
X1846011Y2094022D01*
X1846149Y2094160D01*
X1846565Y2094715D01*
X1847120Y2095686D01*
X1847675Y2096934D01*
X1848368Y2098598D01*
X1848923Y2100401D01*
X1849339Y2102759D01*
X1849478Y2105255D01*
Y2142838D01*
Y2142977D01*
Y2143255D01*
Y2143809D01*
Y2144641D01*
X1849616Y2145473D01*
Y2146444D01*
X1849894Y2148802D01*
X1850171Y2151437D01*
X1850726Y2154072D01*
X1851419Y2156568D01*
X1852390Y2158787D01*
X1852529Y2159065D01*
X1852945Y2159619D01*
X1853638Y2160451D01*
X1854748Y2161561D01*
X1856273Y2162532D01*
X1858215Y2163364D01*
X1860572Y2163918D01*
X1863346Y2164196D01*
X1864317D01*
X1865288Y2164057D01*
X1866674Y2163780D01*
X1868200Y2163364D01*
X1869864Y2162809D01*
X1871528Y2161977D01*
X1873331Y2160867D01*
X1873470Y2160729D01*
X1874025Y2160313D01*
X1874857Y2159481D01*
X1875828Y2158510D01*
X1876937Y2157123D01*
X1878047Y2155459D01*
X1879156Y2153517D01*
X1880127Y2151160D01*
Y2151021D01*
X1880265Y2150327D01*
X1880404Y2149773D01*
X1880543Y2149218D01*
X1880682Y2148386D01*
Y2147415D01*
X1880820Y2146306D01*
X1880959Y2145057D01*
X1881098Y2143671D01*
X1881236Y2142006D01*
Y2140203D01*
X1881375Y2138262D01*
Y2136043D01*
Y2133547D01*
Y2105255D01*
Y2105116D01*
Y2104978D01*
Y2104562D01*
Y2104007D01*
X1881514Y2102759D01*
X1881791Y2101095D01*
X1882346Y2099292D01*
X1882900Y2097350D01*
X1883871Y2095547D01*
X1885119Y2093883D01*
X1885258Y2093744D01*
X1885813Y2093328D01*
X1886506Y2092635D01*
X1887616Y2091941D01*
X1889003Y2091248D01*
X1890667Y2090555D01*
X1892470Y2090139D01*
X1894550Y2090000D01*
X1895521D01*
X1896492Y2090277D01*
X1897878Y2090555D01*
X1899265Y2090971D01*
X1900929Y2091664D01*
X1902455Y2092635D01*
X1903842Y2094022D01*
X1903980Y2094160D01*
X1904396Y2094715D01*
X1904951Y2095686D01*
X1905506Y2096934D01*
X1906199Y2098598D01*
X1906754Y2100401D01*
X1907170Y2102759D01*
X1907309Y2105255D01*
Y2171546D01*
X1907170Y2172933D01*
X1906893Y2174458D01*
X1906477Y2176123D01*
X1905922Y2177926D01*
X1905229Y2179728D01*
X1904119Y2181254D01*
X1903980Y2181393D01*
X1903564Y2181809D01*
X1902871Y2182502D01*
X1901761Y2183196D01*
X1900513Y2183750D01*
X1898988Y2184444D01*
X1897185Y2184860D01*
X1895243Y2184998D01*
D02*
G37*
G36*
X1784157Y2216480D02*
X1718283D01*
X1717173Y2216341D01*
X1715648Y2216064D01*
X1713983Y2215648D01*
X1712319Y2215093D01*
X1710794Y2214399D01*
X1709407Y2213290D01*
X1709268Y2213151D01*
X1708852Y2212735D01*
X1708297Y2212042D01*
X1707743Y2211210D01*
X1707188Y2209962D01*
X1706633Y2208713D01*
X1706217Y2207188D01*
X1706078Y2205385D01*
Y2205108D01*
Y2204553D01*
X1706217Y2203582D01*
X1706494Y2202473D01*
X1706910Y2201224D01*
X1707465Y2199838D01*
X1708297Y2198589D01*
X1709407Y2197341D01*
X1709545Y2197203D01*
X1709962Y2196925D01*
X1710794Y2196371D01*
X1711903Y2195816D01*
X1713290Y2195261D01*
X1714954Y2194706D01*
X1717034Y2194429D01*
X1719392Y2194290D01*
X1772785D01*
Y2167802D01*
X1722720D01*
X1721611Y2167663D01*
X1720224Y2167386D01*
X1718699Y2167108D01*
X1717034Y2166553D01*
X1715509Y2165721D01*
X1714122Y2164751D01*
X1713983Y2164612D01*
X1713567Y2164196D01*
X1713013Y2163502D01*
X1712458Y2162670D01*
X1711903Y2161561D01*
X1711348Y2160174D01*
X1710932Y2158648D01*
X1710794Y2156984D01*
Y2156707D01*
Y2156152D01*
X1710932Y2155320D01*
X1711210Y2154211D01*
X1711626Y2152962D01*
X1712180Y2151576D01*
X1713013Y2150327D01*
X1714122Y2149079D01*
X1714261Y2148941D01*
X1714677Y2148663D01*
X1715509Y2148108D01*
X1716480Y2147554D01*
X1717867Y2146999D01*
X1719531Y2146444D01*
X1721472Y2146167D01*
X1723830Y2146028D01*
X1772785D01*
Y2114824D01*
X1716341D01*
X1715232Y2114686D01*
X1713706Y2114408D01*
X1712180Y2113992D01*
X1710516Y2113437D01*
X1708852Y2112744D01*
X1707465Y2111635D01*
X1707327Y2111496D01*
X1706910Y2111080D01*
X1706356Y2110386D01*
X1705662Y2109416D01*
X1705108Y2108167D01*
X1704553Y2106781D01*
X1704137Y2105116D01*
X1703998Y2103314D01*
Y2102481D01*
X1704137Y2101511D01*
X1704414Y2100401D01*
X1704830Y2099153D01*
X1705524Y2097766D01*
X1706356Y2096379D01*
X1707465Y2095131D01*
X1707604Y2094993D01*
X1708159Y2094715D01*
X1708852Y2094160D01*
X1709962Y2093606D01*
X1711487Y2093051D01*
X1713151Y2092496D01*
X1715093Y2092219D01*
X1717450Y2092080D01*
X1785544D01*
X1787070Y2092358D01*
X1789011Y2092635D01*
X1791092Y2093051D01*
X1793172Y2093744D01*
X1795252Y2094715D01*
X1796916Y2096102D01*
X1797055Y2096241D01*
X1797471Y2096934D01*
X1798165Y2097766D01*
X1798858Y2099153D01*
X1799551Y2100956D01*
X1800245Y2103175D01*
X1800661Y2105671D01*
X1800800Y2108722D01*
Y2200670D01*
X1800661Y2201641D01*
X1800522Y2203027D01*
X1800383Y2204553D01*
X1800106Y2206078D01*
X1799690Y2207604D01*
X1799135Y2209129D01*
X1798997Y2209268D01*
X1798858Y2209823D01*
X1798303Y2210516D01*
X1797749Y2211348D01*
X1796916Y2212180D01*
X1796084Y2213151D01*
X1794836Y2213983D01*
X1793588Y2214677D01*
X1793449Y2214815D01*
X1792895Y2214954D01*
X1792062Y2215232D01*
X1790953Y2215648D01*
X1789566Y2215925D01*
X1787902Y2216202D01*
X1786099Y2216341D01*
X1784157Y2216480D01*
D02*
G37*
G36*
X1944615Y2218560D02*
X1943505D01*
X1942396Y2218283D01*
X1940870Y2218005D01*
X1939345Y2217450D01*
X1937542Y2216757D01*
X1935878Y2215648D01*
X1934352Y2214261D01*
X1934214Y2214122D01*
X1933659Y2213429D01*
X1933104Y2212458D01*
X1932272Y2211210D01*
X1931579Y2209407D01*
X1930885Y2207327D01*
X1930469Y2204830D01*
X1930330Y2201918D01*
Y2105116D01*
X1930469Y2103730D01*
X1930885Y2101927D01*
X1931301Y2099985D01*
X1931995Y2097905D01*
X1932965Y2095963D01*
X1934352Y2094160D01*
X1934491Y2094022D01*
X1935046Y2093467D01*
X1935878Y2092912D01*
X1937126Y2092080D01*
X1938513Y2091387D01*
X1940316Y2090693D01*
X1942396Y2090139D01*
X1944615Y2090000D01*
X1944892D01*
X1945586Y2090139D01*
X1946695Y2090277D01*
X1948082Y2090555D01*
X1949746Y2090971D01*
X1951410Y2091803D01*
X1953075Y2092774D01*
X1954600Y2094160D01*
X1954739Y2094299D01*
X1955155Y2094993D01*
X1955848Y2095963D01*
X1956403Y2097350D01*
X1957096Y2099014D01*
X1957790Y2101233D01*
X1958206Y2103730D01*
X1958345Y2106503D01*
Y2203305D01*
X1958206Y2204692D01*
X1957929Y2206494D01*
X1957374Y2208575D01*
X1956819Y2210516D01*
X1955848Y2212597D01*
X1954600Y2214261D01*
X1954461Y2214399D01*
X1953907Y2214954D01*
X1953075Y2215648D01*
X1951826Y2216480D01*
X1950440Y2217173D01*
X1948775Y2217867D01*
X1946834Y2218421D01*
X1944615Y2218560D01*
D02*
G37*
G36*
X1640203D02*
X1638262D01*
X1637291Y2218421D01*
X1636182D01*
X1634933Y2218283D01*
X1633408Y2218144D01*
X1630357Y2217867D01*
X1627028Y2217312D01*
X1623700Y2216618D01*
X1620372Y2215648D01*
X1620233D01*
X1619956Y2215509D01*
X1619540Y2215370D01*
X1618985Y2215093D01*
X1617459Y2214538D01*
X1615379Y2213567D01*
X1613160Y2212458D01*
X1610802Y2211210D01*
X1608445Y2209545D01*
X1606226Y2207881D01*
X1605949Y2207604D01*
X1605255Y2207049D01*
X1604284Y2206078D01*
X1603036Y2204830D01*
X1601649Y2203305D01*
X1600262Y2201502D01*
X1599014Y2199560D01*
X1597905Y2197619D01*
X1597766Y2197341D01*
X1597489Y2196787D01*
X1597073Y2195677D01*
X1596518Y2194290D01*
X1596102Y2192765D01*
X1595686Y2190962D01*
X1595409Y2189159D01*
X1595270Y2187217D01*
Y2186940D01*
Y2186385D01*
X1595409Y2185414D01*
X1595686Y2184166D01*
X1596102Y2182779D01*
X1596795Y2181254D01*
X1597627Y2179728D01*
X1598876Y2178203D01*
X1599014Y2178064D01*
X1599569Y2177648D01*
X1600262Y2176955D01*
X1601372Y2176261D01*
X1602620Y2175429D01*
X1604146Y2174874D01*
X1605949Y2174320D01*
X1607890Y2174181D01*
X1608722D01*
X1609554Y2174320D01*
X1610664Y2174458D01*
X1611912Y2174736D01*
X1613160Y2175152D01*
X1614270Y2175707D01*
X1615379Y2176539D01*
X1615518Y2176677D01*
X1615795Y2176955D01*
X1616350Y2177648D01*
X1616905Y2178480D01*
X1617737Y2179451D01*
X1618569Y2180838D01*
X1619540Y2182363D01*
X1620510Y2184166D01*
Y2184305D01*
X1620649Y2184444D01*
X1621065Y2185276D01*
X1621759Y2186385D01*
X1622591Y2187911D01*
X1623700Y2189436D01*
X1624948Y2191101D01*
X1626474Y2192765D01*
X1627999Y2194152D01*
X1628138Y2194290D01*
X1628831Y2194706D01*
X1629802Y2195261D01*
X1631328Y2195954D01*
X1633269Y2196648D01*
X1635627Y2197203D01*
X1638539Y2197619D01*
X1641868Y2197757D01*
X1643393D01*
X1644919Y2197619D01*
X1646999Y2197341D01*
X1649218Y2196787D01*
X1651576Y2196093D01*
X1653933Y2195122D01*
X1656013Y2193874D01*
X1656291Y2193736D01*
X1656846Y2193181D01*
X1657678Y2192487D01*
X1658510Y2191378D01*
X1659481Y2190130D01*
X1660313Y2188604D01*
X1660867Y2186940D01*
X1661145Y2185137D01*
Y2184998D01*
Y2184582D01*
X1661006Y2184028D01*
X1660867Y2183334D01*
X1660451Y2181531D01*
X1660035Y2180699D01*
X1659481Y2179728D01*
X1659342Y2179590D01*
X1659203Y2179312D01*
X1658787Y2178896D01*
X1658232Y2178342D01*
X1657539Y2177787D01*
X1656707Y2177093D01*
X1655736Y2176400D01*
X1654627Y2175707D01*
X1654488Y2175568D01*
X1654072Y2175429D01*
X1653378Y2175152D01*
X1652546Y2174736D01*
X1651576Y2174181D01*
X1650466Y2173765D01*
X1648108Y2172933D01*
X1647970D01*
X1647415Y2172794D01*
X1646583Y2172517D01*
X1645335Y2172239D01*
X1643671Y2171685D01*
X1641590Y2171130D01*
X1639094Y2170575D01*
X1636043Y2169743D01*
X1635904D01*
X1635627Y2169604D01*
X1635072Y2169466D01*
X1634379Y2169327D01*
X1633408Y2169050D01*
X1632437Y2168911D01*
X1629941Y2168218D01*
X1627167Y2167386D01*
X1623977Y2166553D01*
X1620788Y2165583D01*
X1617598Y2164473D01*
X1617459D01*
X1617182Y2164335D01*
X1616766Y2164196D01*
X1616211Y2163918D01*
X1614547Y2163364D01*
X1612605Y2162532D01*
X1610386Y2161422D01*
X1607890Y2160174D01*
X1605394Y2158787D01*
X1603036Y2157262D01*
X1602897D01*
X1602759Y2157123D01*
X1602065Y2156430D01*
X1600956Y2155597D01*
X1599569Y2154211D01*
X1598044Y2152685D01*
X1596379Y2150743D01*
X1594854Y2148663D01*
X1593467Y2146167D01*
Y2146028D01*
X1593328Y2145890D01*
X1593190Y2145473D01*
X1592912Y2144919D01*
X1592357Y2143532D01*
X1591664Y2141729D01*
X1591109Y2139371D01*
X1590555Y2136598D01*
X1590139Y2133547D01*
X1590000Y2130080D01*
Y2128970D01*
X1590139Y2128138D01*
Y2127167D01*
X1590277Y2125919D01*
X1590555Y2124671D01*
X1590693Y2123145D01*
X1591387Y2119956D01*
X1592496Y2116489D01*
X1594022Y2112883D01*
X1594854Y2111219D01*
X1595963Y2109416D01*
Y2109277D01*
X1596241Y2109000D01*
X1596518Y2108584D01*
X1597073Y2107890D01*
X1598460Y2106226D01*
X1600401Y2104146D01*
X1602759Y2101927D01*
X1605810Y2099569D01*
X1609277Y2097211D01*
X1613299Y2095131D01*
X1613437D01*
X1613854Y2094854D01*
X1614408Y2094715D01*
X1615240Y2094299D01*
X1616350Y2093883D01*
X1617598Y2093467D01*
X1619124Y2093051D01*
X1620788Y2092635D01*
X1622729Y2092080D01*
X1624671Y2091664D01*
X1626890Y2091248D01*
X1629247Y2090832D01*
X1631744Y2090416D01*
X1634379Y2090277D01*
X1639926Y2090000D01*
X1641729D01*
X1642977Y2090139D01*
X1644503Y2090277D01*
X1646444Y2090416D01*
X1648386Y2090555D01*
X1650605Y2090832D01*
X1652962Y2091248D01*
X1655459Y2091664D01*
X1660451Y2092912D01*
X1663086Y2093744D01*
X1665583Y2094715D01*
X1667940Y2095686D01*
X1670298Y2096934D01*
X1670437D01*
X1670714Y2097211D01*
X1671130Y2097489D01*
X1671685Y2097905D01*
X1673349Y2099014D01*
X1675291Y2100540D01*
X1677509Y2102481D01*
X1679867Y2104839D01*
X1682086Y2107474D01*
X1684305Y2110525D01*
Y2110664D01*
X1684582Y2110941D01*
X1684860Y2111357D01*
X1685137Y2111912D01*
X1685553Y2112744D01*
X1685969Y2113576D01*
X1686940Y2115795D01*
X1688049Y2118291D01*
X1688882Y2121065D01*
X1689436Y2124116D01*
X1689714Y2127167D01*
Y2127999D01*
X1689575Y2128970D01*
X1689298Y2130218D01*
X1688882Y2131605D01*
X1688188Y2132992D01*
X1687356Y2134517D01*
X1686108Y2135904D01*
X1685969Y2136043D01*
X1685414Y2136459D01*
X1684721Y2137152D01*
X1683612Y2137846D01*
X1682363Y2138401D01*
X1680838Y2139094D01*
X1679035Y2139510D01*
X1677093Y2139649D01*
X1676261D01*
X1675429Y2139510D01*
X1674458Y2139233D01*
X1673210Y2138955D01*
X1671962Y2138401D01*
X1670714Y2137707D01*
X1669466Y2136736D01*
X1669327Y2136598D01*
X1668911Y2136182D01*
X1668356Y2135627D01*
X1667663Y2134656D01*
X1666831Y2133547D01*
X1665860Y2132299D01*
X1665028Y2130634D01*
X1664196Y2128831D01*
X1664057Y2128554D01*
X1663780Y2127861D01*
X1663364Y2126890D01*
X1662809Y2125503D01*
X1662116Y2124116D01*
X1661283Y2122452D01*
X1660451Y2120926D01*
X1659481Y2119540D01*
X1659342Y2119401D01*
X1659064Y2118985D01*
X1658510Y2118291D01*
X1657678Y2117459D01*
X1656707Y2116489D01*
X1655459Y2115518D01*
X1654072Y2114547D01*
X1652546Y2113576D01*
X1652269Y2113437D01*
X1651714Y2113299D01*
X1650743Y2112883D01*
X1649357Y2112467D01*
X1647692Y2112051D01*
X1645612Y2111773D01*
X1643116Y2111496D01*
X1640481Y2111357D01*
X1639510D01*
X1638817Y2111496D01*
X1637846D01*
X1636875Y2111635D01*
X1634517Y2111912D01*
X1631882Y2112467D01*
X1629247Y2113299D01*
X1626474Y2114408D01*
X1623977Y2115934D01*
X1623839D01*
X1623700Y2116211D01*
X1623007Y2116766D01*
X1621897Y2117737D01*
X1620788Y2119124D01*
X1619678Y2120788D01*
X1618569Y2122729D01*
X1617875Y2124948D01*
X1617598Y2126058D01*
Y2127306D01*
Y2127583D01*
Y2128277D01*
X1617737Y2129247D01*
X1618014Y2130496D01*
X1618430Y2131882D01*
X1618985Y2133269D01*
X1619817Y2134656D01*
X1620926Y2136043D01*
X1621065Y2136182D01*
X1621481Y2136598D01*
X1622313Y2137291D01*
X1623284Y2137985D01*
X1624532Y2138817D01*
X1626058Y2139787D01*
X1627861Y2140620D01*
X1629802Y2141313D01*
X1630080Y2141452D01*
X1630773Y2141590D01*
X1632021Y2142006D01*
X1633824Y2142561D01*
X1636043Y2143255D01*
X1638678Y2143948D01*
X1641729Y2144641D01*
X1645196Y2145473D01*
X1645335D01*
X1645751Y2145612D01*
X1646444Y2145751D01*
X1647415Y2146028D01*
X1648525Y2146306D01*
X1649911Y2146722D01*
X1651298Y2146999D01*
X1652962Y2147554D01*
X1656430Y2148525D01*
X1660174Y2149773D01*
X1663918Y2151160D01*
X1667524Y2152685D01*
X1667663D01*
X1667940Y2152824D01*
X1668356Y2153101D01*
X1669050Y2153517D01*
X1670714Y2154488D01*
X1672656Y2155736D01*
X1675013Y2157400D01*
X1677371Y2159481D01*
X1679728Y2161838D01*
X1681947Y2164473D01*
Y2164612D01*
X1682225Y2164889D01*
X1682502Y2165305D01*
X1682779Y2165860D01*
X1683196Y2166553D01*
X1683612Y2167386D01*
X1684166Y2168495D01*
X1684582Y2169604D01*
X1685692Y2172239D01*
X1686524Y2175429D01*
X1687079Y2179035D01*
X1687356Y2182918D01*
Y2183057D01*
Y2183334D01*
Y2183889D01*
X1687217Y2184721D01*
Y2185553D01*
X1687079Y2186663D01*
X1686663Y2189159D01*
X1685969Y2192071D01*
X1684998Y2195261D01*
X1683612Y2198451D01*
X1681670Y2201641D01*
X1681531Y2201779D01*
X1681393Y2202057D01*
X1681115Y2202473D01*
X1680561Y2203027D01*
X1679312Y2204414D01*
X1677509Y2206217D01*
X1675152Y2208297D01*
X1672378Y2210378D01*
X1669050Y2212319D01*
X1665305Y2214122D01*
X1665167D01*
X1664751Y2214261D01*
X1664196Y2214538D01*
X1663364Y2214815D01*
X1662393Y2215093D01*
X1661145Y2215509D01*
X1659758Y2215925D01*
X1658094Y2216341D01*
X1656291Y2216757D01*
X1654488Y2217173D01*
X1652408Y2217589D01*
X1650189Y2217867D01*
X1645335Y2218421D01*
X1640203Y2218560D01*
D02*
G37*
G36*
X2116006Y2328716D02*
X2115035D01*
X2113926Y2328438D01*
X2112539Y2328161D01*
X2111014Y2327745D01*
X2109349Y2326913D01*
X2107824Y2325942D01*
X2106437Y2324555D01*
X2106298Y2324416D01*
X2105882Y2323862D01*
X2105328Y2322891D01*
X2104634Y2321643D01*
X2103941Y2320117D01*
X2103386Y2318176D01*
X2102970Y2315818D01*
X2102831Y2313322D01*
Y2281424D01*
X2102693Y2281563D01*
X2102554Y2282257D01*
X2102138Y2283089D01*
X2101583Y2284059D01*
X2100890Y2285308D01*
X2099919Y2286556D01*
X2098671Y2287804D01*
X2097284Y2288913D01*
X2097145Y2289052D01*
X2096590Y2289468D01*
X2095620Y2290023D01*
X2094510Y2290578D01*
X2092985Y2291410D01*
X2091459Y2292103D01*
X2089656Y2292797D01*
X2087715Y2293490D01*
X2087437Y2293629D01*
X2086744Y2293767D01*
X2085773Y2294045D01*
X2084386Y2294322D01*
X2082722Y2294599D01*
X2080780Y2294877D01*
X2078700Y2295154D01*
X2075094D01*
X2074262Y2295015D01*
X2073430D01*
X2071211Y2294599D01*
X2068715Y2294183D01*
X2066080Y2293490D01*
X2063306Y2292519D01*
X2060533Y2291132D01*
X2060394D01*
X2060255Y2290994D01*
X2059284Y2290439D01*
X2058036Y2289468D01*
X2056372Y2288359D01*
X2054708Y2286694D01*
X2052766Y2284753D01*
X2050963Y2282534D01*
X2049438Y2280038D01*
X2049299Y2279899D01*
X2049022Y2279205D01*
X2048606Y2278373D01*
X2048051Y2277125D01*
X2047496Y2275738D01*
X2046803Y2274074D01*
X2046387Y2272271D01*
X2045971Y2270330D01*
Y2270052D01*
X2045832Y2269498D01*
X2045693Y2268388D01*
X2045416Y2267001D01*
X2045277Y2265198D01*
X2045139Y2263257D01*
X2045000Y2261038D01*
Y2214163D01*
X2045139Y2212915D01*
X2045416Y2211250D01*
X2045832Y2209447D01*
X2046525Y2207506D01*
X2047358Y2205703D01*
X2048606Y2204039D01*
X2048744Y2203900D01*
X2049299Y2203484D01*
X2049993Y2202791D01*
X2051102Y2202097D01*
X2052489Y2201404D01*
X2054153Y2200710D01*
X2056095Y2200294D01*
X2058175Y2200156D01*
X2058730D01*
X2059284Y2200294D01*
X2060117Y2200433D01*
X2061087Y2200572D01*
X2062197Y2200988D01*
X2063306Y2201404D01*
X2064554Y2202097D01*
X2065803Y2202929D01*
X2066912Y2203900D01*
X2068022Y2205148D01*
X2068992Y2206535D01*
X2069686Y2208338D01*
X2070379Y2210418D01*
X2070795Y2212776D01*
X2070934Y2215411D01*
Y2253549D01*
Y2253688D01*
Y2253965D01*
Y2254520D01*
Y2255213D01*
X2071073Y2256045D01*
Y2257016D01*
X2071350Y2259374D01*
X2071627Y2261870D01*
X2072182Y2264505D01*
X2072875Y2266863D01*
X2073846Y2269082D01*
X2073985Y2269359D01*
X2074401Y2269914D01*
X2075233Y2270746D01*
X2076343Y2271717D01*
X2077729Y2272687D01*
X2079671Y2273519D01*
X2082029Y2274074D01*
X2084802Y2274352D01*
X2085773D01*
X2086744Y2274213D01*
X2087992Y2273936D01*
X2089518Y2273519D01*
X2091182Y2272965D01*
X2092985Y2272271D01*
X2094649Y2271162D01*
X2094788Y2271023D01*
X2095342Y2270607D01*
X2096174Y2269914D01*
X2097006Y2268943D01*
X2098116Y2267695D01*
X2099225Y2266308D01*
X2100196Y2264644D01*
X2101167Y2262702D01*
Y2262425D01*
X2101444Y2261731D01*
X2101583Y2261177D01*
X2101722Y2260483D01*
X2101860Y2259651D01*
X2101999Y2258680D01*
X2102138Y2257571D01*
X2102276Y2256323D01*
X2102415Y2254936D01*
X2102554Y2253272D01*
X2102693Y2251469D01*
Y2249666D01*
X2102831Y2247447D01*
Y2245228D01*
Y2215411D01*
Y2215272D01*
Y2215133D01*
Y2214163D01*
X2102970Y2212915D01*
X2103247Y2211250D01*
X2103663Y2209447D01*
X2104357Y2207645D01*
X2105189Y2205842D01*
X2106437Y2204177D01*
X2106576Y2204039D01*
X2107130Y2203623D01*
X2107824Y2202929D01*
X2108933Y2202236D01*
X2110320Y2201404D01*
X2111984Y2200849D01*
X2113787Y2200294D01*
X2116006Y2200156D01*
X2116561D01*
X2117116Y2200294D01*
X2117948Y2200433D01*
X2118919Y2200572D01*
X2120028Y2200988D01*
X2121137Y2201404D01*
X2122386Y2202097D01*
X2123634Y2202929D01*
X2124743Y2203900D01*
X2125853Y2205148D01*
X2126824Y2206535D01*
X2127517Y2208338D01*
X2128210Y2210418D01*
X2128626Y2212776D01*
X2128765Y2215411D01*
Y2314570D01*
X2128626Y2315818D01*
X2128349Y2317482D01*
X2127933Y2319285D01*
X2127378Y2321227D01*
X2126546Y2323030D01*
X2125437Y2324694D01*
X2125298Y2324833D01*
X2124882Y2325387D01*
X2124050Y2325942D01*
X2122940Y2326774D01*
X2121692Y2327468D01*
X2120028Y2328161D01*
X2118225Y2328577D01*
X2116006Y2328716D01*
D02*
G37*
G36*
X2213362Y2293213D02*
X2160246D01*
X2158860Y2293074D01*
X2157057Y2292935D01*
X2155254Y2292658D01*
X2153173Y2292103D01*
X2151232Y2291548D01*
X2149429Y2290716D01*
X2149290Y2290578D01*
X2148736Y2290300D01*
X2148042Y2289607D01*
X2147071Y2288636D01*
X2146239Y2287388D01*
X2145546Y2285862D01*
X2144991Y2284059D01*
X2144852Y2281840D01*
Y2281702D01*
Y2281424D01*
Y2281008D01*
X2144991Y2280592D01*
X2145130Y2279205D01*
X2145685Y2277541D01*
Y2277403D01*
X2145823Y2277125D01*
X2146239Y2276293D01*
X2146794Y2275045D01*
X2147626Y2273936D01*
X2147765Y2273658D01*
X2148320Y2273103D01*
X2149152Y2272133D01*
X2150261Y2270884D01*
Y2270746D01*
X2150538Y2270607D01*
X2150816Y2270191D01*
X2151232Y2269636D01*
X2152480Y2268249D01*
X2154006Y2266585D01*
X2194917Y2223177D01*
X2151648D01*
X2150538Y2223038D01*
X2149152Y2222761D01*
X2147626Y2222484D01*
X2146101Y2221929D01*
X2144575Y2221097D01*
X2143188Y2220126D01*
X2143050Y2219987D01*
X2142634Y2219571D01*
X2142079Y2218878D01*
X2141524Y2218046D01*
X2140969Y2216936D01*
X2140415Y2215688D01*
X2139999Y2214163D01*
X2139860Y2212498D01*
Y2211805D01*
X2139999Y2210834D01*
X2140276Y2209863D01*
X2140692Y2208615D01*
X2141247Y2207367D01*
X2142079Y2206119D01*
X2143188Y2205010D01*
X2143327Y2204871D01*
X2143743Y2204594D01*
X2144575Y2204177D01*
X2145546Y2203623D01*
X2146933Y2203068D01*
X2148458Y2202652D01*
X2150400Y2202375D01*
X2152619Y2202236D01*
X2214749D01*
X2216136Y2202375D01*
X2217662Y2202652D01*
X2219326Y2203068D01*
X2221129Y2203623D01*
X2222932Y2204316D01*
X2224457Y2205426D01*
X2224596Y2205564D01*
X2225012Y2205980D01*
X2225567Y2206812D01*
X2226260Y2207783D01*
X2226953Y2209031D01*
X2227508Y2210557D01*
X2227924Y2212360D01*
X2228063Y2214301D01*
Y2214856D01*
X2227924Y2215550D01*
X2227785Y2216382D01*
X2227508Y2217491D01*
X2227092Y2218601D01*
X2226537Y2219710D01*
X2225705Y2220958D01*
X2225567Y2221097D01*
X2225150Y2221652D01*
X2224596Y2222345D01*
X2223625Y2223593D01*
X2222238Y2225119D01*
X2220713Y2226922D01*
X2218632Y2229279D01*
X2216275Y2232053D01*
X2216136Y2232192D01*
X2215997Y2232469D01*
X2215581Y2232885D01*
X2215027Y2233440D01*
X2213640Y2235104D01*
X2211837Y2237046D01*
X2209757Y2239403D01*
X2207399Y2241900D01*
X2205041Y2244534D01*
X2202822Y2247031D01*
X2202684Y2247169D01*
X2202545Y2247308D01*
X2201852Y2248140D01*
X2200603Y2249388D01*
X2199078Y2251053D01*
X2197414Y2252994D01*
X2195472Y2255074D01*
X2191589Y2259512D01*
X2191312Y2259790D01*
X2190757Y2260483D01*
X2189786Y2261593D01*
X2188538Y2262979D01*
X2187151Y2264505D01*
X2185764Y2266031D01*
X2184377Y2267695D01*
X2182991Y2269220D01*
X2182852Y2269359D01*
X2182436Y2269914D01*
X2181881Y2270468D01*
X2181049Y2271301D01*
X2180217Y2272133D01*
X2179385Y2272826D01*
X2178553Y2273381D01*
X2177721Y2273658D01*
X2210866D01*
X2212114Y2273797D01*
X2213778D01*
X2215720Y2273936D01*
X2217523Y2274213D01*
X2219464Y2274629D01*
X2221129Y2275045D01*
X2221267Y2275184D01*
X2221822Y2275322D01*
X2222377Y2275877D01*
X2223209Y2276571D01*
X2223902Y2277680D01*
X2224596Y2279067D01*
X2225150Y2280731D01*
X2225289Y2282950D01*
Y2283227D01*
Y2283782D01*
X2225150Y2284614D01*
X2224873Y2285724D01*
X2224457Y2286833D01*
X2223902Y2288081D01*
X2223209Y2289329D01*
X2222099Y2290439D01*
X2221961Y2290578D01*
X2221545Y2290855D01*
X2220851Y2291271D01*
X2219742Y2291826D01*
X2218494Y2292380D01*
X2217107Y2292797D01*
X2215304Y2293074D01*
X2213362Y2293213D01*
D02*
G37*
G36*
X2232778Y2175276D02*
X2230282D01*
X2228895Y2175137D01*
X2227508D01*
X2225844Y2174998D01*
X2224041Y2174860D01*
X2220158Y2174305D01*
X2216136Y2173750D01*
X2212114Y2172779D01*
X2210311Y2172225D01*
X2208508Y2171531D01*
X2208370D01*
X2208092Y2171393D01*
X2207676Y2171115D01*
X2206983Y2170838D01*
X2205457Y2169867D01*
X2203516Y2168619D01*
X2201436Y2166955D01*
X2199355Y2164875D01*
X2197414Y2162517D01*
X2195749Y2159605D01*
Y2159466D01*
X2195611Y2159188D01*
X2195333Y2158772D01*
X2195195Y2158218D01*
X2194917Y2157386D01*
X2194501Y2156415D01*
X2194224Y2155305D01*
X2193808Y2153918D01*
X2193531Y2152532D01*
X2193253Y2151006D01*
X2192837Y2149203D01*
X2192560Y2147400D01*
X2192144Y2143240D01*
X2192005Y2138663D01*
Y2138525D01*
Y2138386D01*
Y2137970D01*
Y2137415D01*
Y2135890D01*
Y2134087D01*
Y2131868D01*
Y2129649D01*
X2192144Y2127430D01*
Y2125211D01*
Y2124934D01*
Y2124240D01*
Y2123131D01*
Y2121744D01*
Y2120218D01*
Y2118415D01*
Y2114532D01*
Y2114394D01*
Y2114255D01*
Y2113839D01*
Y2113284D01*
X2192005Y2111759D01*
X2191866Y2109817D01*
X2191589Y2107598D01*
X2191312Y2105102D01*
X2190757Y2102467D01*
X2190063Y2099832D01*
Y2099693D01*
X2189925Y2099554D01*
X2189786Y2098722D01*
X2189370Y2097474D01*
X2188954Y2096087D01*
X2188677Y2094562D01*
X2188261Y2093175D01*
X2188122Y2091788D01*
X2187983Y2090817D01*
Y2090124D01*
X2188122Y2089292D01*
X2188399Y2088321D01*
X2188954Y2087073D01*
X2189647Y2085825D01*
X2190618Y2084438D01*
X2191866Y2083190D01*
X2192005Y2083051D01*
X2192560Y2082635D01*
X2193253Y2082219D01*
X2194363Y2081664D01*
X2195611Y2080971D01*
X2197136Y2080555D01*
X2198662Y2080139D01*
X2200465Y2080000D01*
X2201158D01*
X2201990Y2080139D01*
X2202961Y2080416D01*
X2204209Y2080832D01*
X2205596Y2081525D01*
X2206983Y2082358D01*
X2208370Y2083467D01*
X2208508Y2083606D01*
X2208924Y2084160D01*
X2209618Y2084854D01*
X2210589Y2085963D01*
X2211559Y2087211D01*
X2212669Y2088737D01*
X2213778Y2090540D01*
X2214888Y2092620D01*
X2215027D01*
X2215165Y2092343D01*
X2215581Y2092065D01*
X2216136Y2091649D01*
X2217384Y2090540D01*
X2219326Y2089153D01*
X2221406Y2087628D01*
X2223902Y2086102D01*
X2226676Y2084576D01*
X2229588Y2083190D01*
X2229727D01*
X2230004Y2083051D01*
X2230420Y2082912D01*
X2230975Y2082635D01*
X2231669Y2082496D01*
X2232639Y2082219D01*
X2234720Y2081664D01*
X2237493Y2080971D01*
X2240406Y2080555D01*
X2243873Y2080139D01*
X2247479Y2080000D01*
X2249004D01*
X2249836Y2080139D01*
X2250668D01*
X2252887Y2080416D01*
X2255384Y2080832D01*
X2258019Y2081525D01*
X2260792Y2082358D01*
X2263566Y2083606D01*
X2263705D01*
X2263843Y2083744D01*
X2264675Y2084299D01*
X2265924Y2085131D01*
X2267449Y2086241D01*
X2269252Y2087628D01*
X2271055Y2089292D01*
X2272719Y2091233D01*
X2274245Y2093452D01*
Y2093591D01*
X2274383Y2093730D01*
X2274799Y2094562D01*
X2275493Y2095810D01*
X2276048Y2097474D01*
X2276741Y2099554D01*
X2277434Y2101773D01*
X2277850Y2104408D01*
X2277989Y2107043D01*
Y2108014D01*
X2277850Y2108707D01*
Y2109540D01*
X2277712Y2110510D01*
X2277157Y2112868D01*
X2276464Y2115503D01*
X2275354Y2118277D01*
X2273829Y2121050D01*
X2272858Y2122437D01*
X2271748Y2123824D01*
X2271610Y2123963D01*
X2271471Y2124101D01*
X2271055Y2124517D01*
X2270639Y2124934D01*
X2269252Y2126182D01*
X2267310Y2127707D01*
X2264814Y2129233D01*
X2262040Y2130758D01*
X2258573Y2132145D01*
X2254829Y2133255D01*
X2254690D01*
X2254413Y2133393D01*
X2253858D01*
X2252887Y2133671D01*
X2251639Y2133948D01*
X2249836Y2134225D01*
X2248727Y2134503D01*
X2247479Y2134780D01*
X2246092Y2135057D01*
X2244566Y2135335D01*
X2244428D01*
X2244150Y2135474D01*
X2243734D01*
X2243179Y2135612D01*
X2241515Y2136028D01*
X2239435Y2136444D01*
X2237216Y2136860D01*
X2234720Y2137415D01*
X2232085Y2137970D01*
X2229727Y2138525D01*
X2229588D01*
X2229450Y2138663D01*
X2228618Y2138802D01*
X2227369Y2139079D01*
X2225844Y2139495D01*
X2223902Y2139911D01*
X2221822Y2140466D01*
X2217523Y2141714D01*
Y2141853D01*
Y2141992D01*
X2217662Y2142962D01*
X2217800Y2144211D01*
X2218078Y2145736D01*
X2218494Y2147539D01*
X2219048Y2149342D01*
X2219742Y2151006D01*
X2220713Y2152532D01*
X2220851Y2152670D01*
X2221267Y2153086D01*
X2222099Y2153780D01*
X2223209Y2154473D01*
X2224873Y2155028D01*
X2226953Y2155721D01*
X2228202Y2155999D01*
X2229588Y2156137D01*
X2231114Y2156276D01*
X2234026D01*
X2235552Y2156137D01*
X2237355Y2155999D01*
X2239296Y2155721D01*
X2241238Y2155305D01*
X2243179Y2154751D01*
X2244844Y2154057D01*
X2244982Y2153918D01*
X2245537Y2153641D01*
X2246230Y2153086D01*
X2247201Y2152393D01*
X2248172Y2151422D01*
X2249420Y2150174D01*
X2250668Y2148648D01*
X2251778Y2146984D01*
X2251917Y2146846D01*
X2252333Y2146291D01*
X2252887Y2145459D01*
X2253442Y2144349D01*
X2254968Y2142269D01*
X2255661Y2141298D01*
X2256354Y2140466D01*
X2256493Y2140327D01*
X2256632Y2140189D01*
X2257048Y2139911D01*
X2257741Y2139634D01*
X2258712Y2139218D01*
X2259821Y2138941D01*
X2261208Y2138802D01*
X2263011Y2138663D01*
X2263705D01*
X2264537Y2138802D01*
X2265646Y2139079D01*
X2266894Y2139357D01*
X2268143Y2139911D01*
X2269529Y2140605D01*
X2270778Y2141576D01*
X2270916Y2141714D01*
X2271332Y2142130D01*
X2271748Y2142685D01*
X2272303Y2143656D01*
X2272996Y2144627D01*
X2273413Y2146013D01*
X2273829Y2147400D01*
X2273967Y2149065D01*
Y2149203D01*
Y2149342D01*
X2273829Y2150174D01*
X2273690Y2151422D01*
X2273413Y2153086D01*
X2272858Y2155028D01*
X2272026Y2157108D01*
X2271055Y2159327D01*
X2269529Y2161546D01*
Y2161685D01*
X2269252Y2161823D01*
X2268697Y2162517D01*
X2267588Y2163626D01*
X2266062Y2165013D01*
X2264121Y2166677D01*
X2261763Y2168342D01*
X2258989Y2169867D01*
X2255661Y2171393D01*
X2255522D01*
X2255245Y2171531D01*
X2254690Y2171809D01*
X2253997Y2171947D01*
X2253026Y2172363D01*
X2252055Y2172641D01*
X2250807Y2172918D01*
X2249282Y2173334D01*
X2247756Y2173750D01*
X2245953Y2174028D01*
X2244150Y2174444D01*
X2242070Y2174721D01*
X2237632Y2175137D01*
X2232778Y2175276D01*
D02*
G37*
G36*
X2166626Y2174998D02*
X2165516D01*
X2164407Y2174860D01*
X2163020Y2174582D01*
X2161633Y2174028D01*
X2160108Y2173473D01*
X2158860Y2172502D01*
X2157750Y2171254D01*
X2157611Y2171115D01*
X2157334Y2170561D01*
X2156918Y2169728D01*
X2156225Y2168480D01*
X2155531Y2166816D01*
X2154838Y2164875D01*
X2154006Y2162517D01*
X2153173Y2159743D01*
X2140137Y2110649D01*
X2128349Y2156137D01*
Y2156276D01*
X2128210Y2156415D01*
X2127933Y2157386D01*
X2127656Y2158634D01*
X2127101Y2160159D01*
X2126685Y2161823D01*
X2126130Y2163626D01*
X2125575Y2165152D01*
X2125159Y2166400D01*
Y2166539D01*
X2124882Y2166955D01*
X2124605Y2167510D01*
X2124189Y2168342D01*
X2123495Y2169174D01*
X2122802Y2170145D01*
X2121831Y2171115D01*
X2120721Y2172225D01*
X2120583Y2172363D01*
X2120167Y2172641D01*
X2119335Y2173057D01*
X2118364Y2173612D01*
X2117116Y2174166D01*
X2115590Y2174582D01*
X2113787Y2174860D01*
X2111846Y2174998D01*
X2110875D01*
X2109904Y2174860D01*
X2108656Y2174582D01*
X2107130Y2174305D01*
X2105744Y2173750D01*
X2104218Y2173057D01*
X2102970Y2172086D01*
X2102831Y2171947D01*
X2102415Y2171670D01*
X2101860Y2171115D01*
X2101167Y2170283D01*
X2100335Y2169451D01*
X2099641Y2168480D01*
X2098948Y2167371D01*
X2098393Y2166261D01*
Y2166123D01*
X2098116Y2165707D01*
X2097839Y2165013D01*
X2097561Y2164042D01*
X2097145Y2162656D01*
X2096590Y2161130D01*
X2096036Y2159327D01*
X2095342Y2157108D01*
X2083277Y2110649D01*
X2069963Y2160298D01*
Y2160575D01*
X2069686Y2161130D01*
X2069408Y2161962D01*
X2069131Y2163072D01*
X2068438Y2165568D01*
X2068022Y2166677D01*
X2067605Y2167787D01*
Y2167926D01*
X2067467Y2168203D01*
X2067189Y2168758D01*
X2066773Y2169451D01*
X2065664Y2171115D01*
X2064970Y2171947D01*
X2064138Y2172779D01*
X2064000Y2172918D01*
X2063584Y2173196D01*
X2063029Y2173473D01*
X2062197Y2173889D01*
X2061226Y2174305D01*
X2059978Y2174721D01*
X2058591Y2174860D01*
X2056927Y2174998D01*
X2056095D01*
X2055263Y2174860D01*
X2054014Y2174582D01*
X2052766Y2174166D01*
X2051379Y2173612D01*
X2049993Y2172779D01*
X2048606Y2171670D01*
X2048467Y2171531D01*
X2048051Y2171115D01*
X2047496Y2170422D01*
X2046803Y2169451D01*
X2046109Y2168342D01*
X2045555Y2166955D01*
X2045139Y2165568D01*
X2045000Y2163904D01*
Y2163210D01*
X2045139Y2162378D01*
X2045416Y2161130D01*
X2045693Y2159466D01*
X2046248Y2157524D01*
X2046942Y2155167D01*
X2047912Y2152393D01*
X2066496Y2097751D01*
X2066635Y2097474D01*
X2066773Y2096781D01*
X2067189Y2095810D01*
X2067744Y2094562D01*
X2068299Y2093036D01*
X2068854Y2091511D01*
X2069408Y2090124D01*
X2069963Y2088737D01*
Y2088598D01*
X2070240Y2088182D01*
X2070518Y2087489D01*
X2071073Y2086795D01*
X2071766Y2085825D01*
X2072598Y2084715D01*
X2073569Y2083744D01*
X2074678Y2082635D01*
X2074817Y2082496D01*
X2075233Y2082219D01*
X2075927Y2081803D01*
X2077036Y2081387D01*
X2078284Y2080832D01*
X2079810Y2080416D01*
X2081474Y2080139D01*
X2083554Y2080000D01*
X2084525D01*
X2085634Y2080139D01*
X2086883Y2080416D01*
X2088408Y2080693D01*
X2089934Y2081109D01*
X2091320Y2081803D01*
X2092707Y2082774D01*
X2092846Y2082912D01*
X2093262Y2083328D01*
X2093817Y2083883D01*
X2094510Y2084715D01*
X2095204Y2085686D01*
X2096036Y2086934D01*
X2096729Y2088321D01*
X2097423Y2089708D01*
Y2089846D01*
X2097700Y2090401D01*
X2097977Y2091233D01*
X2098393Y2092343D01*
X2098809Y2093730D01*
X2099364Y2095394D01*
X2099919Y2097197D01*
X2100474Y2099138D01*
X2111846Y2142408D01*
X2122802Y2099138D01*
Y2099000D01*
X2122940Y2098722D01*
X2123079Y2098306D01*
X2123218Y2097613D01*
X2123772Y2096087D01*
X2124327Y2094007D01*
X2125159Y2091788D01*
X2126130Y2089430D01*
X2127240Y2087211D01*
X2128349Y2085131D01*
X2128488Y2084854D01*
X2128904Y2084299D01*
X2129736Y2083467D01*
X2130984Y2082635D01*
X2132510Y2081664D01*
X2134590Y2080832D01*
X2136947Y2080277D01*
X2139860Y2080000D01*
X2140553D01*
X2141385Y2080139D01*
X2142356Y2080277D01*
X2143466Y2080416D01*
X2144714Y2080693D01*
X2145823Y2081109D01*
X2147071Y2081664D01*
X2147210Y2081803D01*
X2147487Y2081941D01*
X2148042Y2082358D01*
X2148736Y2082774D01*
X2150400Y2084160D01*
X2151925Y2086102D01*
X2152064Y2086241D01*
X2152203Y2086657D01*
X2152619Y2087211D01*
X2153035Y2088044D01*
X2153590Y2089153D01*
X2154144Y2090263D01*
X2155254Y2092898D01*
Y2093036D01*
X2155392Y2093591D01*
X2155670Y2094146D01*
X2155947Y2095116D01*
X2156641Y2097058D01*
X2157057Y2098029D01*
X2157334Y2098861D01*
X2175363Y2152393D01*
Y2152532D01*
X2175502Y2152809D01*
X2175640Y2153225D01*
X2175779Y2153780D01*
X2176334Y2155167D01*
X2176750Y2156970D01*
X2177305Y2158772D01*
X2177859Y2160714D01*
X2178137Y2162517D01*
X2178275Y2163904D01*
Y2164597D01*
X2178137Y2165429D01*
X2177859Y2166539D01*
X2177443Y2167648D01*
X2176888Y2168896D01*
X2176056Y2170283D01*
X2174947Y2171531D01*
X2174808Y2171670D01*
X2174392Y2172086D01*
X2173560Y2172641D01*
X2172589Y2173334D01*
X2171480Y2173889D01*
X2170093Y2174444D01*
X2168429Y2174860D01*
X2166626Y2174998D01*
D02*
G37*
%LPD*%
G36*
X2217662Y2125211D02*
X2218078Y2125072D01*
X2218910Y2124656D01*
X2220158Y2124240D01*
X2221822Y2123547D01*
X2223902Y2122992D01*
X2225289Y2122576D01*
X2226676Y2122299D01*
X2228202Y2121882D01*
X2230004Y2121466D01*
X2230143D01*
X2230420Y2121328D01*
X2230837D01*
X2231530Y2121189D01*
X2233194Y2120773D01*
X2235136Y2120357D01*
X2237355Y2119802D01*
X2239435Y2119386D01*
X2241377Y2118970D01*
X2242209Y2118693D01*
X2242902Y2118554D01*
X2243041D01*
X2243457Y2118415D01*
X2244150Y2118138D01*
X2244982Y2117861D01*
X2246924Y2116751D01*
X2248033Y2116058D01*
X2249143Y2115226D01*
X2249282Y2115087D01*
X2249559Y2114810D01*
X2249975Y2114255D01*
X2250530Y2113561D01*
X2251084Y2112591D01*
X2251500Y2111481D01*
X2251778Y2110233D01*
X2251917Y2108707D01*
Y2108569D01*
Y2108014D01*
X2251778Y2107043D01*
X2251500Y2106072D01*
X2251084Y2104824D01*
X2250530Y2103576D01*
X2249698Y2102328D01*
X2248588Y2101080D01*
X2248449Y2100941D01*
X2248033Y2100664D01*
X2247201Y2100109D01*
X2246230Y2099554D01*
X2244982Y2099000D01*
X2243457Y2098445D01*
X2241654Y2098168D01*
X2239712Y2098029D01*
X2238603D01*
X2237355Y2098168D01*
X2235829Y2098306D01*
X2234026Y2098722D01*
X2232085Y2099138D01*
X2230004Y2099832D01*
X2228063Y2100664D01*
X2227785Y2100803D01*
X2227231Y2101219D01*
X2226260Y2101773D01*
X2225150Y2102467D01*
X2223902Y2103438D01*
X2222793Y2104547D01*
X2221683Y2105795D01*
X2220713Y2107182D01*
X2220574Y2107459D01*
X2220158Y2108153D01*
X2219742Y2109401D01*
X2219048Y2111204D01*
X2218494Y2113561D01*
X2218078Y2116335D01*
X2217662Y2119802D01*
X2217523Y2121605D01*
Y2123685D01*
Y2125350D01*
X2217662Y2125211D01*
D02*
G37*
D11*
X1537500Y585000D02*
X1542357Y589857D01*
X1590854D01*
X1613496Y612500D01*
X1665000D01*
X1467500Y1347500D02*
X1612504D01*
X1332500Y1450895D02*
Y1455000D01*
X1374105Y1440895D02*
X1467500Y1347500D01*
X1332500Y1450895D02*
X1342500Y1440895D01*
X1374105D01*
X1612504Y1347500D02*
X1635897Y1324107D01*
Y1269103D02*
X1637500Y1267500D01*
X1635897Y1269103D02*
Y1324107D01*
X1637500Y1193118D02*
Y1267500D01*
X1975000Y550000D02*
X1983003Y541997D01*
X1975000Y550000D02*
Y594588D01*
X1968003Y601585D02*
X1975000Y594588D01*
X1968003Y601585D02*
Y606997D01*
X1486631Y1270544D02*
X1544457D01*
X2137662Y620785D02*
X2162500Y595947D01*
X1285000Y1012500D02*
X1332500Y1060000D01*
Y1142500D01*
X1285000Y952500D02*
Y1012500D01*
X1752500Y1232500D02*
Y1315000D01*
X2262500Y695000D02*
X2362500D01*
X1637500Y1193118D02*
X1655000Y1175618D01*
X1550000Y687500D02*
X1655000D01*
D12*
X1232500Y600000D02*
D03*
Y440000D02*
D03*
D16*
X547500Y1757500D02*
D03*
X377500D02*
D03*
D17*
X780000Y1115000D02*
D03*
X490001D02*
D03*
X865000Y867500D02*
D03*
X575000D02*
D03*
D23*
X1475000Y867500D02*
D03*
Y960000D02*
D03*
X1512500Y790000D02*
D03*
D27*
X2075000Y540000D02*
D03*
X1985000D02*
D03*
X1842500Y1315000D02*
D03*
X1752500D02*
D03*
X1547500Y1267500D02*
D03*
X1637500D02*
D03*
X1152500Y2062500D02*
D03*
X1062500D02*
D03*
D29*
X1332500Y1242500D02*
D03*
Y1142500D02*
D03*
X1332500Y1355000D02*
D03*
Y1455000D02*
D03*
X2367500Y700000D02*
D03*
Y800000D02*
D03*
X547500Y1965000D02*
D03*
Y1865000D02*
D03*
D30*
X580000Y1282500D02*
D03*
X480000D02*
D03*
X480000Y1382500D02*
D03*
X580000D02*
D03*
X955000Y1952500D02*
D03*
X1055000D02*
D03*
X750000Y2287500D02*
D03*
X850000D02*
D03*
X1385000Y952500D02*
D03*
X1285000D02*
D03*
X1285000Y852500D02*
D03*
X1385000D02*
D03*
X1332500Y212500D02*
D03*
X1232500D02*
D03*
D32*
X1537500Y585000D02*
D03*
Y675000D02*
D03*
X2262500Y695000D02*
D03*
Y785000D02*
D03*
X2185000Y485000D02*
D03*
Y575000D02*
D03*
X545000Y2162500D02*
D03*
Y2072500D02*
D03*
X1780000Y545000D02*
D03*
Y455000D02*
D03*
X1875001Y545000D02*
D03*
Y455000D02*
D03*
D35*
X1454251Y735750D02*
X1534971D01*
X1415000Y775000D02*
X1454251Y735750D01*
X1537500Y585000D02*
X1537815Y584686D01*
X1812500Y1371882D02*
Y1380000D01*
Y1371882D02*
X1827500Y1356882D01*
X1887353Y1257500D02*
X1914820Y1284967D01*
X1915000D01*
X1802500Y1218462D02*
X1841539Y1257500D01*
X1827500Y1330000D02*
Y1356882D01*
X1841539Y1257500D02*
X1887353D01*
X1852500Y545000D02*
Y687500D01*
Y545000D02*
X1875001D01*
X1902500Y626250D02*
Y687500D01*
Y626250D02*
X1902500Y626250D01*
X1802500Y545000D02*
Y687500D01*
X1780000Y545000D02*
X1802500D01*
X2172500Y802500D02*
X2189235Y785765D01*
X2052500Y687500D02*
X2115000D01*
X2052500Y670000D02*
Y687500D01*
Y670000D02*
X2055000Y667500D01*
X2189235Y781941D02*
Y785765D01*
X1983003Y541997D02*
X1985000Y540000D01*
X547500Y1650000D02*
X550000Y1647500D01*
X1952500Y615908D02*
X1958409Y610000D01*
X1952500Y615908D02*
Y687500D01*
X1732500Y620000D02*
Y628118D01*
X1750000Y685000D02*
X1752500Y687500D01*
X1750000Y645618D02*
Y685000D01*
X1732500Y628118D02*
X1750000Y645618D01*
X870000Y2042500D02*
X955000D01*
X1544457Y1270544D02*
X1547500Y1267500D01*
X1483588Y1273587D02*
X1486631Y1270544D01*
X2162500Y590000D02*
X2177500Y575000D01*
X2162500Y590000D02*
Y595947D01*
X2137662Y620785D02*
Y622663D01*
X2177500Y575000D02*
X2185000D01*
X1570000Y952500D02*
X1637500D01*
X1475000Y852500D02*
X1637500D01*
X1827500Y1330000D02*
X1842500Y1315000D01*
X1120000Y852500D02*
X1285000D01*
X1037500Y770000D02*
X1120000Y852500D01*
X1385000D02*
X1475000D01*
X1385000Y852500D02*
Y952500D01*
Y852500D02*
X1385000Y852500D01*
X1900815Y1225000D02*
X1913282Y1237467D01*
X1855000Y1213284D02*
X1866716Y1225000D01*
X1855000Y1170000D02*
Y1213284D01*
X1866716Y1225000D02*
X1900815D01*
X1802500Y1167500D02*
Y1218462D01*
X1852500Y1167500D02*
X1855000Y1170000D01*
X1913282Y1237467D02*
X1964153D01*
X1752500Y1232500D02*
X1752500Y1232499D01*
Y1167500D02*
Y1232499D01*
X2157500Y500000D02*
Y500000D01*
X2075784Y539216D02*
X2118284D01*
X2075000Y540000D02*
X2075784Y539216D01*
X2118284D02*
X2157500Y500000D01*
Y500000D02*
X2172500Y485000D01*
X2190000Y785000D02*
X2262500D01*
X2362500Y695000D02*
X2367500Y700000D01*
X1958409Y610000D02*
X1960000D01*
X1965520Y607598D02*
X1966997Y606121D01*
X2024117Y622662D02*
X2127662D01*
X2002621Y644158D02*
X2024117Y622662D01*
X2002621Y644158D02*
Y687379D01*
X2002500Y687500D02*
X2002621Y687379D01*
X2172500Y485000D02*
X2180000D01*
X2132662Y619837D02*
Y622662D01*
X2135000Y752500D02*
X2137500Y750000D01*
X2175000Y695000D02*
X2262500D01*
X2137500Y732500D02*
X2175000Y695000D01*
X2117500Y752500D02*
X2135000D01*
X2137500Y732500D02*
Y750000D01*
X2185000Y427501D02*
Y485000D01*
X1655000Y1167500D02*
Y1175618D01*
X1537500Y675000D02*
X1550000Y687500D01*
X2117500Y802500D02*
X2172500D01*
X1551722Y752500D02*
X1637500D01*
X1534971Y735750D02*
X1551722Y752500D01*
X1512500Y790000D02*
X1565000D01*
X1577500Y802500D01*
X1637500D01*
X1475000Y960000D02*
X1532500Y902500D01*
X1637500D01*
X1655000Y1167500D02*
X1702500D01*
X1655000Y687500D02*
X1702500D01*
X360000Y2072500D02*
X545000D01*
X357500Y1777500D02*
Y1850000D01*
Y1777500D02*
X377500Y1757500D01*
X1152500Y2062500D02*
Y2140000D01*
X485000Y715000D02*
X562500Y637500D01*
X432500Y715000D02*
X485000D01*
X1037500Y162500D02*
X1087500Y212500D01*
X1170000D01*
X1175000D02*
X1232500D01*
X1062500Y2070000D02*
Y2140000D01*
Y2062500D02*
Y2070000D01*
X1037500Y2182175D02*
Y2257500D01*
X955000Y2142500D02*
X956913Y2144413D01*
X999738D01*
X1037500Y2182175D01*
X1007500Y2287500D02*
X1037500Y2257500D01*
X850000Y2287500D02*
X1007500D01*
X547500Y1965000D02*
X626882D01*
X641882Y1950000D01*
X650000D01*
X955000Y1952500D02*
Y2042500D01*
X1055000Y1952500D02*
Y2055000D01*
X1062500Y2062500D01*
X955000Y2092499D02*
X1032500D01*
X1040000Y2085000D01*
X1047500D01*
X1062500Y2070000D01*
X590000Y2287500D02*
X750000D01*
X545000Y2242500D02*
X590000Y2287500D01*
X545000Y2162500D02*
Y2242500D01*
Y2162500D02*
X548282Y2159217D01*
X595784D01*
X610681Y2144320D01*
X648180D01*
X650000Y2142500D01*
X649681Y2092819D02*
X650000Y2092499D01*
X608541Y2092819D02*
X649681D01*
X595110Y2079387D02*
X608541Y2092819D01*
X551887Y2079387D02*
X595110D01*
X545000Y2072500D02*
X551887Y2079387D01*
X480000Y1282500D02*
Y1382500D01*
Y1282500D02*
X480000Y1282500D01*
X395000Y1277500D02*
X400000Y1282500D01*
X480000D01*
X580000Y1382500D02*
Y1447500D01*
X580000Y1282500D02*
X592500Y1270000D01*
Y1115000D02*
Y1270000D01*
X672501Y1115000D02*
X780000D01*
X672501Y1114999D02*
X672501Y1115000D01*
X762500Y867500D02*
X865000D01*
X1037500Y637500D02*
Y770000D01*
X562500Y162500D02*
X611034Y113966D01*
X676034D01*
X712500Y77500D01*
X650000Y1950000D02*
Y2042500D01*
D36*
X1257500Y625000D02*
Y658210D01*
X1286790Y687500D01*
X1327500D01*
X1232500Y600000D02*
X1257500Y625000D01*
X505710Y797500D02*
X510710Y802500D01*
X575000Y842500D02*
Y867500D01*
X535000Y802500D02*
X575000Y842500D01*
X510710Y802500D02*
X535000D01*
X260000Y797500D02*
X505710D01*
X97500Y715000D02*
X177500D01*
X260000Y797500D01*
X2367500Y800000D02*
Y877500D01*
X547500Y1650000D02*
Y1865000D01*
X490001Y1115000D02*
X592500D01*
D38*
X1332391Y2327479D02*
X1380000Y2260826D01*
X1308587D01*
X1332391Y2327479D02*
Y2227500D01*
D39*
X200000Y1450000D02*
D03*
X2300000D02*
D03*
Y200000D02*
D03*
X200000D02*
D03*
D40*
X1415000Y775000D02*
D03*
X1327500Y687500D02*
D03*
X1810000Y116152D02*
D03*
X2327500Y1065000D02*
D03*
X2392500D02*
D03*
X1532500Y1642500D02*
D03*
X1467500D02*
D03*
X1520000Y1455000D02*
D03*
X2205000Y910000D02*
D03*
Y845000D02*
D03*
X1812500Y1380000D02*
D03*
X1915000Y1284967D02*
D03*
X2276635Y1114135D02*
D03*
X217500Y1002500D02*
D03*
X115000D02*
D03*
X320000D02*
D03*
X1902500Y626250D02*
D03*
X2115000Y687500D02*
D03*
X2189235Y781941D02*
D03*
X1005000Y1030000D02*
D03*
X550000Y1647500D02*
D03*
X1060000Y1135000D02*
D03*
X1232500Y1072500D02*
D03*
X2425000Y1127500D02*
D03*
X97500Y782500D02*
D03*
X900000Y637500D02*
D03*
X1732500Y620000D02*
D03*
X1665000Y612500D02*
D03*
X1968003Y606997D02*
D03*
X870000Y2042500D02*
D03*
X1483588Y1273587D02*
D03*
X1650000Y1650000D02*
D03*
X2185000Y427501D02*
D03*
X1570000Y952500D02*
D03*
X1332500Y1055000D02*
D03*
X1265000Y775000D02*
D03*
X1962500Y877500D02*
D03*
X1760000Y875000D02*
D03*
X1350000Y1650000D02*
D03*
X545000Y2242500D02*
D03*
X2088500Y354000D02*
D03*
X1358500Y569000D02*
D03*
X2367500Y877500D02*
D03*
X1852217Y952122D02*
D03*
X2037077Y967903D02*
D03*
X2037828Y1088136D02*
D03*
X1964153Y1237467D02*
D03*
X1752500Y1232499D02*
D03*
X2137662Y622663D02*
D03*
X1940500Y767500D02*
D03*
X2415000Y412500D02*
D03*
X1655000Y1167500D02*
D03*
X1655000Y687500D02*
D03*
X360000Y2072500D02*
D03*
X357500Y1850000D02*
D03*
X812500Y1382500D02*
D03*
X1814500Y767500D02*
D03*
X1152500Y2140000D02*
D03*
X1350000Y1950000D02*
D03*
X1650000D02*
D03*
X1950000D02*
D03*
X1050000Y1650000D02*
D03*
X470000Y797500D02*
D03*
X432500Y715000D02*
D03*
X1170000Y212500D02*
D03*
X1050000Y1212500D02*
D03*
X1232500Y1135000D02*
D03*
X1062500Y2140000D02*
D03*
X580000Y1447500D02*
D03*
X592500Y1115000D02*
D03*
X395000Y1277500D02*
D03*
X672501Y1114999D02*
D03*
X762500Y867500D02*
D03*
X1037500Y770000D02*
D03*
X97500Y715000D02*
D03*
X712500Y77500D02*
D03*
X650000Y1950000D02*
D03*
D41*
X2253752Y1012511D02*
G03*
X2275582Y990680I21830J0D01*
G01*
X2253752Y1012513D02*
G03*
X2231921Y1034343I-21830J0D01*
G01*
X2231921D02*
G03*
X2210091Y1012513I0J-21830D01*
G01*
X2188261Y990680D02*
G03*
X2210091Y1012511I0J21830D01*
G01*
X2030539Y1365759D02*
G03*
X2008708Y1387589I-21830J0D01*
G01*
X1986876Y1409419D02*
G03*
X2008706Y1387589I21830J0D01*
G01*
Y1431250D02*
G03*
X1986876Y1409419I0J-21830D01*
G01*
X2008708Y1431250D02*
G03*
X2030539Y1453080I0J21830D01*
G01*
X1932895Y1538639D02*
G03*
X1911064Y1516809I0J-21830D01*
G01*
X1862873Y1468616D02*
G03*
X1911064Y1516806I0J48191D01*
G01*
X1814682D02*
G03*
X1862873Y1468616I48191J0D01*
G01*
X1814682Y1645714D02*
G03*
X1792852Y1667545I-21830J0D01*
G01*
X1792852D02*
G03*
X1771021Y1645714I0J-21830D01*
G01*
X1722830Y1464088D02*
G03*
X1771021Y1512279I0J48191D01*
G01*
X1674639D02*
G03*
X1722830Y1464088I48191J0D01*
G01*
X1674639Y1516809D02*
G03*
X1652809Y1538639I-21830J0D01*
G01*
X1932895Y1565000D02*
G03*
X1884704Y1516809I0J-48191D01*
G01*
X1862873Y1494976D02*
G03*
X1884704Y1516806I0J21830D01*
G01*
X1841043D02*
G03*
X1862873Y1494976I21830J0D01*
G01*
X1841043Y1645714D02*
G03*
X1792852Y1693905I-48191J0D01*
G01*
X1792852D02*
G03*
X1744661Y1645714I0J-48191D01*
G01*
X1722830Y1490449D02*
G03*
X1744661Y1512279I0J21830D01*
G01*
X1701000D02*
G03*
X1722830Y1490449I21830J0D01*
G01*
X1701000Y1516809D02*
G03*
X1652809Y1565000I-48191J0D01*
G01*
X2335943Y1049704D02*
X2346820Y1038828D01*
X2231921Y1034343D02*
X2231921D01*
X2346820Y1015314D02*
Y1038828D01*
X2322186Y990680D02*
X2346820Y1015314D01*
X2275582Y990680D02*
X2322186D01*
X2253752Y1012511D02*
Y1012513D01*
X2210091Y1012511D02*
Y1012513D01*
X2181429Y990680D02*
X2188261D01*
X2146819Y990681D02*
X2181429Y990680D01*
X2135000Y1002500D02*
X2146819Y990681D01*
X2117500Y1002500D02*
X2135000D01*
X2373180Y1004395D02*
Y1038828D01*
X2387500Y1053148D01*
X2333105Y964319D02*
X2373180Y1004395D01*
X2135000Y952500D02*
X2146820Y964319D01*
X2333105D01*
X2117500Y952500D02*
X2135000D01*
X2030539Y1330055D02*
Y1365759D01*
X2008706Y1387589D02*
X2008708D01*
X1986876Y1409419D02*
Y1409419D01*
X2008706Y1431250D02*
X2008708D01*
X2030539Y1453080D02*
Y1503573D01*
Y1295110D02*
Y1330055D01*
X1995472Y1538639D02*
X2006391Y1527720D01*
X1932895Y1538639D02*
X1995472D01*
X1911064Y1516806D02*
Y1516809D01*
X1862873Y1468616D02*
X1862873D01*
X1814682Y1516806D02*
Y1645714D01*
X1792852Y1667545D02*
X1792852D01*
X1771021Y1512279D02*
Y1645714D01*
X1722830Y1464088D02*
X1722830D01*
X1674639Y1512279D02*
Y1516809D01*
X1562775Y1538639D02*
X1652809D01*
X2006390Y1565000D02*
X2006391Y1565000D01*
X1932895Y1565000D02*
X2006390D01*
X1884704Y1516806D02*
Y1516809D01*
X1862873Y1494976D02*
X1862873D01*
X1841043Y1516806D02*
Y1645714D01*
X1792852Y1693905D02*
X1792852D01*
X1744661Y1512279D02*
Y1645714D01*
X1722830Y1490449D02*
X1722830D01*
X1701000Y1512279D02*
Y1516809D01*
X1562775Y1565000D02*
X1652809D01*
X1562775D02*
Y1565000D01*
X1532852Y1538639D02*
X1562775D01*
X1543771Y1565000D02*
X1562775D01*
X2006391Y1527720D02*
X2030539Y1503573D01*
X2006391Y1565000D02*
X2056900Y1514492D01*
X1513180Y1595591D02*
X1543771Y1565000D01*
X1513180Y1595591D02*
Y1616328D01*
X1486819Y1584672D02*
Y1616328D01*
Y1584672D02*
X1532852Y1538639D01*
X2056900Y1306029D02*
Y1514492D01*
X2177279Y1099968D02*
Y1148369D01*
X2030539Y1295110D02*
X2177279Y1148369D01*
X2056900Y1306029D02*
X2203640Y1159288D01*
Y1089049D02*
Y1159288D01*
X2135000Y1052500D02*
X2146820Y1064319D01*
X2135000Y1102500D02*
X2146819Y1090680D01*
X1532500Y1635647D02*
Y1642500D01*
X1513180Y1616328D02*
X1532500Y1635647D01*
X1467500D02*
Y1642500D01*
Y1635647D02*
X1486819Y1616328D01*
X2178911Y1064319D02*
X2203640Y1089049D01*
X2146819Y1090680D02*
X2167992D01*
X2117500Y1052500D02*
X2135000D01*
X2117500Y1102500D02*
X2135000D01*
X2146820Y1064319D02*
X2178911D01*
X2167992Y1090680D02*
X2177279Y1099968D01*
X2198147Y910000D02*
X2205000D01*
X2117500Y902500D02*
X2135000D01*
X2178828Y890680D02*
X2198147Y910000D01*
X2135000Y902500D02*
X2146819Y890680D01*
X2178828D01*
X2146820Y864320D02*
X2178828D01*
X2135000Y852500D02*
X2146820Y864320D01*
X2178828D02*
X2198147Y845000D01*
X2117500Y852500D02*
X2135000D01*
X2198147Y845000D02*
X2205000D01*
D42*
X2117500Y1102500D02*
D03*
Y1052500D02*
D03*
Y1002500D02*
D03*
Y952500D02*
D03*
Y902500D02*
D03*
Y852500D02*
D03*
Y802500D02*
D03*
Y752500D02*
D03*
X1637500D02*
D03*
Y802500D02*
D03*
Y852500D02*
D03*
Y902500D02*
D03*
Y952500D02*
D03*
Y1002500D02*
D03*
Y1052500D02*
D03*
Y1102500D02*
D03*
D43*
X2052500Y687500D02*
D03*
X2002500D02*
D03*
X1952500D02*
D03*
X1902500D02*
D03*
X1852500D02*
D03*
X1802500D02*
D03*
X1752500D02*
D03*
X1702500D02*
D03*
Y1167500D02*
D03*
X1752500D02*
D03*
X1802500D02*
D03*
X1852500D02*
D03*
X1902500D02*
D03*
X1952500D02*
D03*
X2002500D02*
D03*
X2052500D02*
D03*
D44*
X1877500Y927500D02*
D03*
D45*
X955000Y2192500D02*
D03*
Y2142500D02*
D03*
Y2092499D02*
D03*
Y2042500D02*
D03*
X650000Y2192500D02*
D03*
Y2142500D02*
D03*
Y2092499D02*
D03*
Y2042500D02*
D03*
D46*
X562500Y637500D02*
D03*
X1037500D02*
D03*
X562500Y162500D02*
D03*
X1037500D02*
D03*
D47*
X800000Y400000D02*
D03*
D48*
X1270000Y402500D02*
X1727500D01*
X1757500Y440000D02*
X1772500Y455000D01*
X1757500Y432500D02*
Y440000D01*
X1727500Y402500D02*
X1757500Y432500D01*
X1232500Y440000D02*
X1270000Y402500D01*
X802500D02*
X1195000D01*
X800000Y400000D02*
X802500Y402500D01*
X1195000D02*
X1232500Y440000D01*
X1772500Y455000D02*
X1780000D01*
X1875001Y380001D02*
Y455000D01*
X1707500Y212500D02*
X1875001Y380001D01*
X1332500Y212500D02*
X1707500D01*
D49*
X1407500Y1265000D02*
Y1297500D01*
X1332500Y1350000D02*
X1345000Y1337500D01*
X1367500D01*
X1407500Y1297500D01*
X812500Y1684068D02*
Y2145000D01*
X860000Y2192500D02*
X955000D01*
X812500Y2145000D02*
X860000Y2192500D01*
X725003D02*
X770000Y2147503D01*
X650000Y2192500D02*
X725003D01*
X770000Y1672502D02*
Y2147503D01*
Y1672502D02*
X1200002Y1242500D01*
X1332500Y1350000D02*
Y1355000D01*
X812500Y1684068D02*
X1154068Y1342500D01*
X1200002Y1242500D02*
X1332500D01*
X1154068Y1342500D02*
X1325000D01*
X1332500Y1350000D01*
X1570000Y1102500D02*
X1637500D01*
X1407500Y1265000D02*
X1570000Y1102500D01*
X1332500Y1237500D02*
X1340000Y1230000D01*
X1332500Y1237500D02*
Y1242500D01*
X1340000Y1230000D02*
X1345000D01*
X1522500Y1052500D01*
X1637500D01*
D50*
X1196435Y1842478D02*
X1210718Y1837717D01*
X1220239Y1823435D01*
X1225000Y1799630D01*
Y1785348D01*
X1220239Y1761543D01*
X1210718Y1747261D01*
X1196435Y1742500D01*
X1186913D01*
X1172631Y1747261D01*
X1163109Y1761543D01*
X1158348Y1785348D01*
Y1799630D01*
X1163109Y1823435D01*
X1172631Y1837717D01*
X1186913Y1842478D01*
X1196435D01*
X1135972Y1809152D02*
X1107406Y1742500D01*
X1078841Y1809152D02*
X1107406Y1742500D01*
X1005524Y1842478D02*
X1053133D01*
X1057893Y1799630D01*
X1053133Y1804391D01*
X1038850Y1809152D01*
X1024567D01*
X1010284Y1804391D01*
X1000763Y1794869D01*
X996002Y1780587D01*
Y1771065D01*
X1000763Y1756782D01*
X1010284Y1747261D01*
X1024567Y1742500D01*
X1038850D01*
X1053133Y1747261D01*
X1057893Y1752021D01*
X1062654Y1761543D01*
X2265000Y1857478D02*
Y1757500D01*
Y1843196D02*
X2255479Y1852717D01*
X2245957Y1857478D01*
X2231674D01*
X2222152Y1852717D01*
X2212631Y1843196D01*
X2207870Y1828913D01*
Y1819391D01*
X2212631Y1805109D01*
X2222152Y1795587D01*
X2231674Y1790826D01*
X2245957D01*
X2255479Y1795587D01*
X2265000Y1805109D01*
X2176924Y1890805D02*
X2172163Y1886044D01*
X2167402Y1890805D01*
X2172163Y1895565D01*
X2176924Y1890805D01*
X2172163Y1857478D02*
Y1790826D01*
X2078374Y1867000D02*
X2083135Y1876522D01*
X2092656Y1886044D01*
X2102178Y1890805D01*
X2121222D01*
X2130743Y1886044D01*
X2140265Y1876522D01*
X2145026Y1867000D01*
X2149787Y1852717D01*
Y1828913D01*
X2145026Y1814630D01*
X2140265Y1805109D01*
X2130743Y1795587D01*
X2121222Y1790826D01*
X2102178D01*
X2092656Y1795587D01*
X2083135Y1805109D01*
X2078374Y1814630D01*
X1993154Y1857478D02*
Y1790826D01*
Y1843196D02*
X2002675Y1852717D01*
X2012197Y1857478D01*
X2026480D01*
X2036002Y1852717D01*
X2045523Y1843196D01*
X2050284Y1828913D01*
Y1819391D01*
X2045523Y1805109D01*
X2036002Y1795587D01*
X2026480Y1790826D01*
X2012197D01*
X2002675Y1795587D01*
X1993154Y1805109D01*
X1966493Y1857478D02*
Y1790826D01*
Y1838435D02*
X1952210Y1852717D01*
X1942689Y1857478D01*
X1928406D01*
X1918884Y1852717D01*
X1914123Y1838435D01*
Y1790826D01*
Y1838435D02*
X1899840Y1852717D01*
X1890319Y1857478D01*
X1876036D01*
X1866514Y1852717D01*
X1861753Y1838435D01*
Y1790826D01*
X1825571Y1867000D02*
Y1871761D01*
X1820810Y1881283D01*
X1816049Y1886044D01*
X1806527Y1890805D01*
X1787484D01*
X1777962Y1886044D01*
X1773201Y1881283D01*
X1768440Y1871761D01*
Y1862239D01*
X1773201Y1852717D01*
X1782723Y1838435D01*
X1830332Y1790826D01*
X1763679D01*
X1703216Y1890805D02*
X1712738D01*
X1722259Y1886044D01*
X1727020Y1871761D01*
Y1790826D01*
X1741303Y1857478D02*
X1707977D01*
X1688933D02*
Y1757500D01*
Y1843196D02*
X1679412Y1852717D01*
X1669890Y1857478D01*
X1655607D01*
X1646085Y1852717D01*
X1636564Y1843196D01*
X1631803Y1828913D01*
Y1819391D01*
X1636564Y1805109D01*
X1646085Y1795587D01*
X1655607Y1790826D01*
X1669890D01*
X1679412Y1795587D01*
X1688933Y1805109D01*
X1553248Y1890805D02*
Y1790826D01*
Y1843196D02*
X1562770Y1852717D01*
X1572292Y1857478D01*
X1586574D01*
X1596096Y1852717D01*
X1605618Y1843196D01*
X1610379Y1828913D01*
Y1819391D01*
X1605618Y1805109D01*
X1596096Y1795587D01*
X1586574Y1790826D01*
X1572292D01*
X1562770Y1795587D01*
X1553248Y1805109D01*
X1526587Y1890805D02*
Y1790826D01*
X1496118Y1890805D02*
X1491357Y1886044D01*
X1486596Y1890805D01*
X1491357Y1895565D01*
X1496118Y1890805D01*
X1491357Y1857478D02*
Y1790826D01*
X1468981Y1857478D02*
Y1790826D01*
Y1838435D02*
X1454698Y1852717D01*
X1445176Y1857478D01*
X1430894D01*
X1421372Y1852717D01*
X1416611Y1838435D01*
Y1790826D01*
X1390426Y1890805D02*
Y1790826D01*
X1342817Y1857478D02*
X1390426Y1809870D01*
X1371382Y1828913D02*
X1338056Y1790826D01*
%TF.MD5,553a1a08d111b2ab8a11a0cd99c41211*%
M02*
