%TF.GenerationSoftware,Altium Limited,Altium Designer,20.1.12 (249)*%
G04 Layer_Color=0*
%FSLAX45Y45*%
%MOMM*%
%TF.SameCoordinates,27206DED-D720-4121-B7EB-46A740E941A3*%
%TF.FilePolarity,Positive*%
%TF.FileFunction,Plated,1,4,PTH,Drill*%
%TF.Part,Single*%
G01*
G75*
%TA.AperFunction,ViaDrill,NotFilled*%
%ADD92C,0.15000*%
D92*
X1415000Y775000D02*
D03*
X1327500Y687500D02*
D03*
X1810000Y116152D02*
D03*
X2327500Y1065000D02*
D03*
X2392500D02*
D03*
X1532500Y1642500D02*
D03*
X1467500D02*
D03*
X1520000Y1455000D02*
D03*
X2205000Y910000D02*
D03*
Y845000D02*
D03*
X1812500Y1380000D02*
D03*
X1915000Y1284967D02*
D03*
X2276635Y1114135D02*
D03*
X217500Y1002500D02*
D03*
X115000D02*
D03*
X320000D02*
D03*
X1902500Y626250D02*
D03*
X2115000Y687500D02*
D03*
X2189235Y781941D02*
D03*
X1005000Y1030000D02*
D03*
X550000Y1647500D02*
D03*
X1060000Y1135000D02*
D03*
X1232500Y1072500D02*
D03*
X2425000Y1127500D02*
D03*
X97500Y782500D02*
D03*
X900000Y637500D02*
D03*
X1732500Y620000D02*
D03*
X1665000Y612500D02*
D03*
X1968003Y606997D02*
D03*
X870000Y2042500D02*
D03*
X1483588Y1273587D02*
D03*
X1650000Y1650000D02*
D03*
X2185000Y427501D02*
D03*
X1570000Y952500D02*
D03*
X1332500Y1055000D02*
D03*
X1265000Y775000D02*
D03*
X1962500Y877500D02*
D03*
X1760000Y875000D02*
D03*
X1350000Y1650000D02*
D03*
X545000Y2242500D02*
D03*
X2088500Y354000D02*
D03*
X1358500Y569000D02*
D03*
X2367500Y877500D02*
D03*
X1852217Y952122D02*
D03*
X2037077Y967903D02*
D03*
X2037828Y1088136D02*
D03*
X1964153Y1237467D02*
D03*
X1752500Y1232499D02*
D03*
X2137662Y622663D02*
D03*
X1940500Y767500D02*
D03*
X2415000Y412500D02*
D03*
X1655000Y1167500D02*
D03*
X1655000Y687500D02*
D03*
X360000Y2072500D02*
D03*
X357500Y1850000D02*
D03*
X812500Y1382500D02*
D03*
X1814500Y767500D02*
D03*
X1152500Y2140000D02*
D03*
X1350000Y1950000D02*
D03*
X1650000D02*
D03*
X1950000D02*
D03*
X1050000Y1650000D02*
D03*
X470000Y797500D02*
D03*
X432500Y715000D02*
D03*
X1170000Y212500D02*
D03*
X1050000Y1212500D02*
D03*
X1232500Y1135000D02*
D03*
X1062500Y2140000D02*
D03*
X580000Y1447500D02*
D03*
X592500Y1115000D02*
D03*
X395000Y1277500D02*
D03*
X672501Y1114999D02*
D03*
X762500Y867500D02*
D03*
X1037500Y770000D02*
D03*
X97500Y715000D02*
D03*
X712500Y77500D02*
D03*
X650000Y1950000D02*
D03*
%TF.MD5,5f4c3f8451a9969c956690664e46952c*%
M02*
