%TF.GenerationSoftware,Altium Limited,Altium Designer,20.1.12 (249)*%
G04 Layer_Color=32768*
%FSLAX45Y45*%
%MOMM*%
%TF.SameCoordinates,27206DED-D720-4121-B7EB-46A740E941A3*%
%TF.FilePolarity,Positive*%
%TF.FileFunction,Other,M23_-_RefDes_Outline-B*%
%TF.Part,Single*%
G01*
G75*
%TA.AperFunction,NonConductor*%
%ADD84C,0.10000*%
G36*
X2127500Y1177500D02*
Y1050500D01*
X2000500Y1177500D01*
X2127500D01*
D02*
G37*
D84*
X312500Y1687500D02*
Y1827500D01*
X612500D01*
Y1687500D02*
Y1827500D01*
X312500Y1687500D02*
X612500D01*
X425000Y1232500D02*
X635000D01*
X425000D02*
Y1332500D01*
X635000D01*
Y1232500D02*
Y1332500D01*
X425000Y1432500D02*
X635000D01*
Y1332500D02*
Y1432500D01*
X425000Y1332500D02*
X635000D01*
X425000D02*
Y1432500D01*
X2127500Y677500D02*
Y1177500D01*
X1627500D02*
X2127500D01*
X1627500Y677500D02*
Y1177500D01*
Y677500D02*
X2127500D01*
X2000500Y1177500D02*
X2127500Y1050500D01*
X1282500Y1087500D02*
X1382500D01*
Y1297500D01*
X1282500D02*
X1382500D01*
X1282500Y1087500D02*
Y1297500D01*
Y1510000D02*
X1382500D01*
X1282500Y1300000D02*
Y1510000D01*
Y1300000D02*
X1382500D01*
Y1510000D01*
X2125000Y485000D02*
Y595000D01*
X1935000Y485000D02*
X2125000D01*
X1935000D02*
Y595000D01*
X2125000D01*
X1482500Y535000D02*
X1592500D01*
X1482500D02*
Y725000D01*
X1592500D01*
Y535000D02*
Y725000D01*
X2317500Y855000D02*
X2417500D01*
X2317500Y645000D02*
Y855000D01*
Y645000D02*
X2417500D01*
Y855000D01*
X2207501Y645000D02*
Y835000D01*
Y645000D02*
X2317500D01*
Y835000D01*
X2207501D02*
X2317500D01*
X2130000Y435000D02*
X2240000D01*
X2130000D02*
Y625000D01*
X2240000D01*
Y435000D02*
Y625000D01*
X1892500Y1260000D02*
Y1370000D01*
X1702500Y1260000D02*
X1892500D01*
X1702500D02*
Y1370000D01*
X1892500D01*
X1497500Y1212500D02*
Y1322500D01*
X1687500D01*
Y1212500D02*
Y1322500D01*
X1497500Y1212500D02*
X1687500D01*
X1110000Y1902500D02*
Y2002500D01*
X900000D02*
X1110000D01*
X900000Y1902500D02*
Y2002500D01*
Y1902500D02*
X1110000D01*
X497500Y1810000D02*
X597500D01*
Y2020000D01*
X497500D02*
X597500D01*
X497500Y1810000D02*
Y2020000D01*
X905000Y2237500D02*
Y2337500D01*
X695000D02*
X905000D01*
X695000Y2237500D02*
Y2337500D01*
Y2237500D02*
X905000D01*
X1202500Y2007500D02*
Y2117500D01*
X1012500Y2007500D02*
X1202500D01*
X1012500D02*
Y2117500D01*
X1202500D01*
X600000Y2022500D02*
Y2212500D01*
X490000D02*
X600000D01*
X490000Y2022500D02*
Y2212500D01*
Y2022500D02*
X600000D01*
X465001Y1025000D02*
X805000D01*
X465001Y1205000D02*
X805000D01*
X465001Y1025000D02*
Y1205000D01*
X805000Y1025000D02*
Y1205000D01*
X550000Y777500D02*
X890000D01*
X550000Y957500D02*
X890000D01*
X550000Y777500D02*
Y957500D01*
X890000Y777500D02*
Y957500D01*
X1230000Y902500D02*
Y1002500D01*
Y902500D02*
X1440000D01*
Y1002500D01*
X1230000D02*
X1440000D01*
X1440000Y802500D02*
Y902500D01*
X1230000D02*
X1440000D01*
X1230000Y802500D02*
Y902500D01*
Y802500D02*
X1440000D01*
X1725000Y595000D02*
X1835000D01*
Y405000D02*
Y595000D01*
X1725000Y405000D02*
X1835000D01*
X1725000D02*
Y595000D01*
X1820001D02*
X1930000D01*
Y405000D02*
Y595000D01*
X1820001Y405000D02*
X1930000D01*
X1820001D02*
Y595000D01*
X1177500Y162500D02*
Y262500D01*
Y162500D02*
X1387500D01*
Y262500D01*
X1177500D02*
X1387500D01*
X1302500Y370000D02*
Y670000D01*
X1162500D02*
X1302500D01*
X1162500Y370000D02*
Y670000D01*
Y370000D02*
X1302500D01*
%TF.MD5,7adbb6420e68b61f591d9215be7015bf*%
M02*
