%TF.GenerationSoftware,Altium Limited,Altium Designer,20.1.12 (249)*%
G04 Layer_Color=16711935*
%FSLAX45Y45*%
%MOMM*%
%TF.SameCoordinates,27206DED-D720-4121-B7EB-46A740E941A3*%
%TF.FilePolarity,Positive*%
%TF.FileFunction,Other,Mechanical_21*%
%TF.Part,Single*%
G01*
G75*
%TA.AperFunction,NonConductor*%
%ADD81C,0.09000*%
%ADD82C,0.05000*%
%ADD83C,0.07000*%
%ADD84C,0.10000*%
D81*
X396772Y1733943D02*
X392487Y1725373D01*
X383917Y1716804D01*
X375348Y1712519D01*
X358209D01*
X349639Y1716804D01*
X341069Y1725373D01*
X336784Y1733943D01*
X332500Y1746797D01*
Y1768222D01*
X336784Y1781076D01*
X341069Y1789645D01*
X349639Y1798215D01*
X358209Y1802500D01*
X375348D01*
X383917Y1798215D01*
X392487Y1789645D01*
X396772Y1781076D01*
X426337Y1733943D02*
Y1729658D01*
X430622Y1721089D01*
X434906Y1716804D01*
X443476Y1712519D01*
X460615D01*
X469185Y1716804D01*
X473469Y1721089D01*
X477754Y1729658D01*
Y1738228D01*
X473469Y1746797D01*
X464900Y1759652D01*
X422052Y1802500D01*
X482039D01*
X545026Y1712519D02*
X502178Y1772506D01*
X566450D01*
X545026Y1712519D02*
Y1802500D01*
X1277481Y390000D02*
X1187500D01*
Y441417D01*
X1256057Y455557D02*
X1260342D01*
X1268911Y459842D01*
X1273196Y464127D01*
X1277481Y472697D01*
Y489836D01*
X1273196Y498405D01*
X1268911Y502690D01*
X1260342Y506975D01*
X1251772D01*
X1243202Y502690D01*
X1230348Y494121D01*
X1187500Y451273D01*
Y511260D01*
D82*
X437500Y1257511D02*
Y1307500D01*
Y1257511D02*
X458924D01*
X466065Y1259891D01*
X468446Y1262272D01*
X470826Y1267033D01*
Y1271793D01*
X468446Y1276554D01*
X466065Y1278935D01*
X458924Y1281315D01*
X437500D01*
X454163D02*
X470826Y1307500D01*
X482014Y1267033D02*
X486775Y1264652D01*
X493916Y1257511D01*
Y1307500D01*
X549619Y1274174D02*
X547238Y1281315D01*
X542477Y1286076D01*
X535336Y1288457D01*
X532956D01*
X525814Y1286076D01*
X521054Y1281315D01*
X518673Y1274174D01*
Y1271793D01*
X521054Y1264652D01*
X525814Y1259891D01*
X532956Y1257511D01*
X535336D01*
X542477Y1259891D01*
X547238Y1264652D01*
X549619Y1274174D01*
Y1286076D01*
X547238Y1297978D01*
X542477Y1305120D01*
X535336Y1307500D01*
X530575D01*
X523434Y1305120D01*
X521054Y1300359D01*
X622500Y1407489D02*
Y1357500D01*
Y1407489D02*
X601076D01*
X593935Y1405109D01*
X591554Y1402728D01*
X589174Y1397967D01*
Y1393207D01*
X591554Y1388446D01*
X593935Y1386065D01*
X601076Y1383685D01*
X622500D01*
X605837D02*
X589174Y1357500D01*
X575605Y1395587D02*
Y1397967D01*
X573225Y1402728D01*
X570844Y1405109D01*
X566083Y1407489D01*
X556562D01*
X551801Y1405109D01*
X549420Y1402728D01*
X547040Y1397967D01*
Y1393207D01*
X549420Y1388446D01*
X554181Y1381304D01*
X577986Y1357500D01*
X544660D01*
X519189Y1407489D02*
X526330Y1405109D01*
X531091Y1397967D01*
X533471Y1386065D01*
Y1378924D01*
X531091Y1367022D01*
X526330Y1359880D01*
X519189Y1357500D01*
X514428D01*
X507287Y1359880D01*
X502526Y1367022D01*
X500145Y1378924D01*
Y1386065D01*
X502526Y1397967D01*
X507287Y1405109D01*
X514428Y1407489D01*
X519189D01*
X1307511Y1285000D02*
X1357500D01*
X1307511D02*
Y1263576D01*
X1309891Y1256435D01*
X1312272Y1254054D01*
X1317032Y1251674D01*
X1321793D01*
X1326554Y1254054D01*
X1328935Y1256435D01*
X1331315Y1263576D01*
Y1285000D01*
Y1268337D02*
X1357500Y1251674D01*
X1307511Y1216681D02*
X1340837Y1240486D01*
Y1204779D01*
X1307511Y1216681D02*
X1357500D01*
X1357489Y1312500D02*
X1307500D01*
X1357489D02*
Y1333924D01*
X1355109Y1341065D01*
X1352728Y1343446D01*
X1347968Y1345826D01*
X1343207D01*
X1338446Y1343446D01*
X1336065Y1341065D01*
X1333685Y1333924D01*
Y1312500D01*
Y1329163D02*
X1307500Y1345826D01*
X1357489Y1361775D02*
Y1387960D01*
X1338446Y1373677D01*
Y1380819D01*
X1336065Y1385580D01*
X1333685Y1387960D01*
X1326543Y1390340D01*
X1321783D01*
X1314641Y1387960D01*
X1309881Y1383199D01*
X1307500Y1376058D01*
Y1368916D01*
X1309881Y1361775D01*
X1312261Y1359395D01*
X1317022Y1357014D01*
X2392489Y657500D02*
X2342500D01*
X2392489D02*
Y678924D01*
X2390109Y686065D01*
X2387729Y688446D01*
X2382968Y690826D01*
X2378207D01*
X2373446Y688446D01*
X2371066Y686065D01*
X2368685Y678924D01*
Y657500D01*
Y674163D02*
X2342500Y690826D01*
X2392489Y735340D02*
X2342500Y711536D01*
X2392489Y702014D02*
Y735340D01*
X912500Y1927511D02*
Y1977500D01*
Y1927511D02*
X933924D01*
X941065Y1929891D01*
X943446Y1932272D01*
X945826Y1937032D01*
Y1941793D01*
X943446Y1946554D01*
X941065Y1948935D01*
X933924Y1951315D01*
X912500D01*
X929163D02*
X945826Y1977500D01*
X957014Y1937032D02*
X961775Y1934652D01*
X968917Y1927511D01*
Y1977500D01*
X996054Y1939413D02*
Y1937032D01*
X998434Y1932272D01*
X1000814Y1929891D01*
X1005575Y1927511D01*
X1015097D01*
X1019858Y1929891D01*
X1022238Y1932272D01*
X1024619Y1937032D01*
Y1941793D01*
X1022238Y1946554D01*
X1017478Y1953696D01*
X993673Y1977500D01*
X1026999D01*
X522511Y2007500D02*
X572500D01*
X522511D02*
Y1986076D01*
X524891Y1978935D01*
X527272Y1976554D01*
X532032Y1974174D01*
X536793D01*
X541554Y1976554D01*
X543935Y1978935D01*
X546315Y1986076D01*
Y2007500D01*
Y1990837D02*
X572500Y1974174D01*
X532032Y1962986D02*
X529652Y1958225D01*
X522511Y1951083D01*
X572500D01*
X522511Y1921566D02*
Y1895381D01*
X541554Y1909664D01*
Y1902522D01*
X543935Y1897762D01*
X546315Y1895381D01*
X553457Y1893001D01*
X558217D01*
X565359Y1895381D01*
X570120Y1900142D01*
X572500Y1907283D01*
Y1914425D01*
X570120Y1921566D01*
X567739Y1923946D01*
X562978Y1926327D01*
X707500Y2262511D02*
Y2312500D01*
Y2262511D02*
X728924D01*
X736065Y2264891D01*
X738446Y2267272D01*
X740826Y2272033D01*
Y2276794D01*
X738446Y2281554D01*
X736065Y2283935D01*
X728924Y2286315D01*
X707500D01*
X724163D02*
X740826Y2312500D01*
X752014Y2272033D02*
X756775Y2269652D01*
X763916Y2262511D01*
Y2312500D01*
X812477Y2262511D02*
X788673Y2295837D01*
X824380D01*
X812477Y2262511D02*
Y2312500D01*
X1427500Y977489D02*
Y927500D01*
Y977489D02*
X1406076D01*
X1398935Y975109D01*
X1396554Y972728D01*
X1394174Y967967D01*
Y963206D01*
X1396554Y958445D01*
X1398935Y956065D01*
X1406076Y953685D01*
X1427500D01*
X1410837D02*
X1394174Y927500D01*
X1354420Y977489D02*
X1378225D01*
X1380605Y956065D01*
X1378225Y958445D01*
X1371084Y960826D01*
X1363942D01*
X1356801Y958445D01*
X1352040Y953685D01*
X1349660Y946543D01*
Y941782D01*
X1352040Y934641D01*
X1356801Y929880D01*
X1363942Y927500D01*
X1371084D01*
X1378225Y929880D01*
X1380605Y932261D01*
X1382986Y937021D01*
X1242500Y827511D02*
Y877500D01*
Y827511D02*
X1263924D01*
X1271066Y829891D01*
X1273446Y832272D01*
X1275826Y837032D01*
Y841793D01*
X1273446Y846554D01*
X1271066Y848935D01*
X1263924Y851315D01*
X1242500D01*
X1259163D02*
X1275826Y877500D01*
X1298917Y827511D02*
X1291775Y829891D01*
X1289395Y834652D01*
Y839413D01*
X1291775Y844174D01*
X1296536Y846554D01*
X1306058Y848935D01*
X1313199Y851315D01*
X1317960Y856076D01*
X1320341Y860837D01*
Y867978D01*
X1317960Y872739D01*
X1315580Y875119D01*
X1308438Y877500D01*
X1298917D01*
X1291775Y875119D01*
X1289395Y872739D01*
X1287014Y867978D01*
Y860837D01*
X1289395Y856076D01*
X1294156Y851315D01*
X1301297Y848935D01*
X1310819Y846554D01*
X1315580Y844174D01*
X1317960Y839413D01*
Y834652D01*
X1315580Y829891D01*
X1308438Y827511D01*
X1298917D01*
X1375000Y237489D02*
Y187500D01*
Y237489D02*
X1353576D01*
X1346435Y235109D01*
X1344054Y232728D01*
X1341674Y227968D01*
Y223207D01*
X1344054Y218446D01*
X1346435Y216065D01*
X1353576Y213685D01*
X1375000D01*
X1358337D02*
X1341674Y187500D01*
X1328105Y225587D02*
Y227968D01*
X1325725Y232728D01*
X1323345Y235109D01*
X1318584Y237489D01*
X1309062D01*
X1304301Y235109D01*
X1301920Y232728D01*
X1299540Y227968D01*
Y223207D01*
X1301920Y218446D01*
X1306681Y211304D01*
X1330486Y187500D01*
X1297160D01*
D83*
X2060011Y558322D02*
X2063344Y564987D01*
X2070009Y571652D01*
X2076674Y574985D01*
X2090005D01*
X2096670Y571652D01*
X2103335Y564987D01*
X2106668Y558322D01*
X2110000Y548324D01*
Y531661D01*
X2106668Y521663D01*
X2103335Y514998D01*
X2096670Y508333D01*
X2090005Y505000D01*
X2076674D01*
X2070009Y508333D01*
X2063344Y514998D01*
X2060011Y521663D01*
X1997024Y551657D02*
X2000357Y541659D01*
X2007022Y534994D01*
X2017020Y531661D01*
X2020353D01*
X2030351Y534994D01*
X2037016Y541659D01*
X2040348Y551657D01*
Y554989D01*
X2037016Y564987D01*
X2030351Y571652D01*
X2020353Y574985D01*
X2017020D01*
X2007022Y571652D01*
X2000357Y564987D01*
X1997024Y551657D01*
Y534994D01*
X2000357Y518330D01*
X2007022Y508333D01*
X2017020Y505000D01*
X2023685D01*
X2033683Y508333D01*
X2037016Y514998D01*
X1555822Y599989D02*
X1562488Y596657D01*
X1569153Y589991D01*
X1572486Y583326D01*
Y569996D01*
X1569153Y563330D01*
X1562488Y556665D01*
X1555822Y553333D01*
X1545824Y550000D01*
X1529162D01*
X1519164Y553333D01*
X1512498Y556665D01*
X1505833Y563330D01*
X1502500Y569996D01*
Y583326D01*
X1505833Y589991D01*
X1512498Y596657D01*
X1519164Y599989D01*
X1559155Y619652D02*
X1562488Y626317D01*
X1572486Y636315D01*
X1502500D01*
X1559155Y670974D02*
X1562488Y677639D01*
X1572486Y687637D01*
X1502500D01*
X2244178Y770011D02*
X2237513Y773343D01*
X2230848Y780009D01*
X2227515Y786674D01*
Y800004D01*
X2230848Y806670D01*
X2237513Y813335D01*
X2244178Y816667D01*
X2254176Y820000D01*
X2270839D01*
X2280837Y816667D01*
X2287502Y813335D01*
X2294168Y806670D01*
X2297500Y800004D01*
Y786674D01*
X2294168Y780009D01*
X2287502Y773343D01*
X2280837Y770011D01*
X2244178Y747016D02*
X2240846D01*
X2234180Y743683D01*
X2230848Y740350D01*
X2227515Y733685D01*
Y720355D01*
X2230848Y713689D01*
X2234180Y710357D01*
X2240846Y707024D01*
X2247511D01*
X2254176Y710357D01*
X2264174Y717022D01*
X2297500Y750348D01*
Y703692D01*
X2227515Y681363D02*
Y644704D01*
X2254176Y664700D01*
Y654702D01*
X2257509Y648037D01*
X2260842Y644704D01*
X2270839Y641371D01*
X2277505D01*
X2287502Y644704D01*
X2294168Y651369D01*
X2297500Y661367D01*
Y671365D01*
X2294168Y681363D01*
X2290835Y684695D01*
X2284170Y688028D01*
X2203322Y499989D02*
X2209987Y496657D01*
X2216652Y489991D01*
X2219985Y483326D01*
Y469996D01*
X2216652Y463330D01*
X2209987Y456665D01*
X2203322Y453333D01*
X2193324Y450000D01*
X2176661D01*
X2166663Y453333D01*
X2159998Y456665D01*
X2153333Y463330D01*
X2150000Y469996D01*
Y483326D01*
X2153333Y489991D01*
X2159998Y496657D01*
X2166663Y499989D01*
X2203322Y522984D02*
X2206655D01*
X2213320Y526317D01*
X2216652Y529650D01*
X2219985Y536315D01*
Y549645D01*
X2216652Y556311D01*
X2213320Y559643D01*
X2206655Y562976D01*
X2199990D01*
X2193324Y559643D01*
X2183326Y552978D01*
X2150000Y519652D01*
Y566308D01*
X2219985Y601968D02*
X2216652Y591970D01*
X2206655Y585305D01*
X2189992Y581972D01*
X2179994D01*
X2163330Y585305D01*
X2153333Y591970D01*
X2150000Y601968D01*
Y608633D01*
X2153333Y618631D01*
X2163330Y625296D01*
X2179994Y628629D01*
X2189992D01*
X2206655Y625296D01*
X2216652Y618631D01*
X2219985Y608633D01*
Y601968D01*
X1827510Y1333322D02*
X1830843Y1339987D01*
X1837508Y1346652D01*
X1844174Y1349985D01*
X1857504D01*
X1864169Y1346652D01*
X1870835Y1339987D01*
X1874167Y1333322D01*
X1877500Y1323324D01*
Y1306661D01*
X1874167Y1296663D01*
X1870835Y1289998D01*
X1864169Y1283333D01*
X1857504Y1280000D01*
X1844174D01*
X1837508Y1283333D01*
X1830843Y1289998D01*
X1827510Y1296663D01*
X1807848Y1336655D02*
X1801183Y1339987D01*
X1791185Y1349985D01*
Y1280000D01*
X1723199Y1349985D02*
X1756526Y1303328D01*
X1706536D01*
X1723199Y1349985D02*
Y1280000D01*
X1562490Y1249178D02*
X1559157Y1242513D01*
X1552492Y1235847D01*
X1545826Y1232515D01*
X1532496D01*
X1525831Y1235847D01*
X1519165Y1242513D01*
X1515833Y1249178D01*
X1512500Y1259176D01*
Y1275839D01*
X1515833Y1285837D01*
X1519165Y1292502D01*
X1525831Y1299167D01*
X1532496Y1302500D01*
X1545826D01*
X1552492Y1299167D01*
X1559157Y1292502D01*
X1562490Y1285837D01*
X1628809Y1232515D02*
X1595482Y1302500D01*
X1582152Y1232515D02*
X1628809D01*
X1137511Y2080822D02*
X1140843Y2087487D01*
X1147508Y2094152D01*
X1154174Y2097485D01*
X1167504D01*
X1174170Y2094152D01*
X1180835Y2087487D01*
X1184167Y2080822D01*
X1187500Y2070824D01*
Y2054161D01*
X1184167Y2044163D01*
X1180835Y2037498D01*
X1174170Y2030833D01*
X1167504Y2027500D01*
X1154174D01*
X1147508Y2030833D01*
X1140843Y2037498D01*
X1137511Y2044163D01*
X1114515Y2080822D02*
Y2084155D01*
X1111183Y2090820D01*
X1107850Y2094152D01*
X1101185Y2097485D01*
X1087855D01*
X1081189Y2094152D01*
X1077857Y2090820D01*
X1074524Y2084155D01*
Y2077489D01*
X1077857Y2070824D01*
X1084522Y2060826D01*
X1117848Y2027500D01*
X1071191D01*
X1015536Y2097485D02*
X1048863D01*
X1052195Y2067491D01*
X1048863Y2070824D01*
X1038865Y2074157D01*
X1028867D01*
X1018869Y2070824D01*
X1012204Y2064159D01*
X1008871Y2054161D01*
Y2047496D01*
X1012204Y2037498D01*
X1018869Y2030833D01*
X1028867Y2027500D01*
X1038865D01*
X1048863Y2030833D01*
X1052195Y2034165D01*
X1055528Y2040830D01*
X563322Y2087489D02*
X569987Y2084156D01*
X576652Y2077491D01*
X579985Y2070826D01*
Y2057495D01*
X576652Y2050830D01*
X569987Y2044165D01*
X563322Y2040832D01*
X553324Y2037500D01*
X536661D01*
X526663Y2040832D01*
X519998Y2044165D01*
X513333Y2050830D01*
X510000Y2057495D01*
Y2070826D01*
X513333Y2077491D01*
X519998Y2084156D01*
X526663Y2087489D01*
X563322Y2110484D02*
X566655D01*
X573320Y2113817D01*
X576652Y2117149D01*
X579985Y2123815D01*
Y2137145D01*
X576652Y2143810D01*
X573320Y2147143D01*
X566655Y2150476D01*
X559989D01*
X553324Y2147143D01*
X543326Y2140478D01*
X510000Y2107151D01*
Y2153808D01*
X569987Y2209463D02*
X576652Y2206130D01*
X579985Y2196133D01*
Y2189467D01*
X576652Y2179470D01*
X566655Y2172804D01*
X549992Y2169472D01*
X533328D01*
X519998Y2172804D01*
X513333Y2179470D01*
X510000Y2189467D01*
Y2192800D01*
X513333Y2202798D01*
X519998Y2209463D01*
X529996Y2212796D01*
X533328D01*
X543326Y2209463D01*
X549992Y2202798D01*
X553324Y2192800D01*
Y2189467D01*
X549992Y2179470D01*
X543326Y2172804D01*
X533328Y2169472D01*
X1761678Y530011D02*
X1755013Y533343D01*
X1748348Y540009D01*
X1745015Y546674D01*
Y560004D01*
X1748348Y566670D01*
X1755013Y573335D01*
X1761678Y576667D01*
X1771676Y580000D01*
X1788339D01*
X1798337Y576667D01*
X1805002Y573335D01*
X1811667Y566670D01*
X1815000Y560004D01*
Y546674D01*
X1811667Y540009D01*
X1805002Y533343D01*
X1798337Y530011D01*
X1758345Y510348D02*
X1755013Y503683D01*
X1745015Y493685D01*
X1815000D01*
X1856679Y530011D02*
X1850013Y533343D01*
X1843348Y540009D01*
X1840015Y546674D01*
Y560004D01*
X1843348Y566670D01*
X1850013Y573335D01*
X1856679Y576667D01*
X1866676Y580000D01*
X1883339D01*
X1893337Y576667D01*
X1900003Y573335D01*
X1906668Y566670D01*
X1910000Y560004D01*
Y546674D01*
X1906668Y540009D01*
X1900003Y533343D01*
X1893337Y530011D01*
X1840015Y470357D02*
Y503683D01*
X1870009Y507015D01*
X1866676Y503683D01*
X1863344Y493685D01*
Y483687D01*
X1866676Y473689D01*
X1873342Y467024D01*
X1883339Y463691D01*
X1890005D01*
X1900003Y467024D01*
X1906668Y473689D01*
X1910000Y483687D01*
Y493685D01*
X1906668Y503683D01*
X1903335Y507015D01*
X1896670Y510348D01*
D84*
X667870Y1135939D02*
X671678Y1143557D01*
X679296Y1151174D01*
X686913Y1154983D01*
X702148D01*
X709765Y1151174D01*
X717383Y1143557D01*
X721192Y1135939D01*
X725000Y1124513D01*
Y1105469D01*
X721192Y1094043D01*
X717383Y1086426D01*
X709765Y1078808D01*
X702148Y1075000D01*
X686913D01*
X679296Y1078808D01*
X671678Y1086426D01*
X667870Y1094043D01*
X637781Y1154983D02*
X595885D01*
X618737Y1124513D01*
X607311D01*
X599694Y1120704D01*
X595885Y1116895D01*
X592076Y1105469D01*
Y1097852D01*
X595885Y1086426D01*
X603502Y1078808D01*
X614929Y1075000D01*
X626355D01*
X637781Y1078808D01*
X641590Y1082617D01*
X645398Y1090235D01*
X570367Y1135939D02*
Y1139748D01*
X566558Y1147365D01*
X562749Y1151174D01*
X555132Y1154983D01*
X539897D01*
X532280Y1151174D01*
X528471Y1147365D01*
X524662Y1139748D01*
Y1132130D01*
X528471Y1124513D01*
X536088Y1113087D01*
X574175Y1075000D01*
X520853D01*
X752869Y888439D02*
X756678Y896057D01*
X764295Y903674D01*
X771913Y907483D01*
X787148D01*
X794765Y903674D01*
X802382Y896057D01*
X806191Y888439D01*
X810000Y877013D01*
Y857970D01*
X806191Y846544D01*
X802382Y838926D01*
X794765Y831309D01*
X787148Y827500D01*
X771913D01*
X764295Y831309D01*
X756678Y838926D01*
X752869Y846544D01*
X722780Y907483D02*
X680885D01*
X703737Y877013D01*
X692311D01*
X684693Y873205D01*
X680885Y869396D01*
X677076Y857970D01*
Y850352D01*
X680885Y838926D01*
X688502Y831309D01*
X699928Y827500D01*
X711354D01*
X722780Y831309D01*
X726589Y835117D01*
X730398Y842735D01*
X636323Y907483D02*
X647749Y903674D01*
X655366Y892248D01*
X659175Y873205D01*
Y861778D01*
X655366Y842735D01*
X647749Y831309D01*
X636323Y827500D01*
X628705D01*
X617279Y831309D01*
X609662Y842735D01*
X605853Y861778D01*
Y873205D01*
X609662Y892248D01*
X617279Y903674D01*
X628705Y907483D01*
X636323D01*
%TF.MD5,7813c1b244abce4cc5a66cb6ad2267cb*%
M02*
