%TF.GenerationSoftware,Altium Limited,Altium Designer,20.1.12 (249)*%
G04 Layer_Color=32768*
%FSLAX45Y45*%
%MOMM*%
%TF.SameCoordinates,27206DED-D720-4121-B7EB-46A740E941A3*%
%TF.FilePolarity,Positive*%
%TF.FileFunction,Other,M19_-_RefDes_Outline*%
%TF.Part,Single*%
G01*
G75*
%TA.AperFunction,NonConductor*%
%ADD84C,0.10000*%
D84*
X1162500Y747500D02*
X1302500D01*
X1162500Y447500D02*
Y747500D01*
Y447500D02*
X1302500D01*
Y747500D01*
X1172500Y80000D02*
Y400000D01*
X1492500D01*
Y80000D02*
Y400000D01*
X1172500Y80000D02*
X1492500D01*
X850000Y52500D02*
Y372500D01*
X1010000D01*
X850000Y52500D02*
X1010000D01*
Y372500D01*
X850000Y52500D02*
Y372500D01*
X1010000D01*
Y52500D02*
Y372500D01*
X850000Y52500D02*
X1010000D01*
X2247500Y435000D02*
X2407500D01*
Y755000D01*
X2247500D02*
X2407500D01*
X2247500Y435000D02*
Y755000D01*
X2407500Y435000D02*
Y755000D01*
X2247500Y435000D02*
X2407500D01*
X2247500Y755000D02*
X2407500D01*
X2247500Y435000D02*
Y755000D01*
X907500Y1065000D02*
Y1205000D01*
Y1065000D02*
X1207499D01*
Y1205000D01*
X907500D02*
X1207499D01*
X805000Y1024999D02*
Y1204999D01*
X465001Y1024999D02*
Y1204999D01*
Y1024999D02*
X805000D01*
X465001Y1204999D02*
X805000D01*
X707500Y217500D02*
X847500D01*
Y517500D01*
X707500D02*
X847500D01*
X707500Y217500D02*
Y517500D01*
X1372500Y722500D02*
X1482500D01*
X1372500Y532500D02*
Y722500D01*
Y532500D02*
X1482500D01*
Y722500D01*
X1237500Y1232500D02*
Y1532500D01*
X1057500Y1232500D02*
X1237500D01*
X1057500Y1532500D02*
X1237500D01*
X1057500Y1232500D02*
Y1532500D01*
X1237500Y1232500D02*
Y1532500D01*
X1057500Y1232500D02*
Y1532500D01*
X1010000Y52500D02*
Y352500D01*
X1150000D01*
Y52500D02*
Y352500D01*
X1010000Y52500D02*
X1150000D01*
X937500Y757502D02*
X1067502D01*
X1157500Y847500D01*
Y1057502D01*
X937500Y757502D02*
Y1057502D01*
X1157500D01*
X440000Y1482500D02*
X630000D01*
X440000D02*
Y1592500D01*
X630000D01*
Y1482500D02*
Y1592500D01*
X1935000Y485000D02*
X2125000D01*
X1935000D02*
Y595000D01*
X2125000D01*
Y485000D02*
Y595000D01*
X1392500Y995000D02*
X1492500D01*
X1392500D02*
Y1205000D01*
X1492500D01*
Y995000D02*
Y1205000D01*
X1492500D02*
X1592500D01*
Y995000D02*
Y1205000D01*
X1492500Y995000D02*
X1592500D01*
X1492500D02*
Y1205000D01*
X630000Y1572500D02*
Y1672500D01*
X840000D01*
Y1572500D02*
Y1672500D01*
X630000Y1572500D02*
X840000D01*
X1215000Y802500D02*
X1315000D01*
X1215000D02*
Y1012500D01*
X1315000D01*
Y802500D02*
Y1012500D01*
X1731983Y154324D02*
Y474324D01*
X1891983D01*
X1731983Y154324D02*
X1891983D01*
Y474324D01*
X1731983Y154324D02*
Y474324D01*
X1891983D01*
Y154324D02*
Y474324D01*
X1731983Y154324D02*
X1891983D01*
X1690000Y957500D02*
X2010000D01*
X1690000D02*
Y1117500D01*
X2010000Y957500D02*
Y1117500D01*
X1690000D02*
X2010000D01*
X1690000Y957500D02*
X2010000D01*
X1690000D02*
Y1117500D01*
X2010000D01*
Y957500D02*
Y1117500D01*
X737500Y27500D02*
Y217500D01*
X847500D01*
Y27500D02*
Y217500D01*
X737500Y27500D02*
X847500D01*
X1497500Y1322500D02*
X1687500D01*
Y1212500D02*
Y1322500D01*
X1497500Y1212500D02*
X1687500D01*
X1497500D02*
Y1322500D01*
X2072500Y647500D02*
Y837500D01*
X1962501Y647500D02*
X2072500D01*
X1962501D02*
Y837500D01*
X2072500D01*
X1482500Y535000D02*
Y725000D01*
X1592500D01*
Y535000D02*
Y725000D01*
X1482500Y535000D02*
X1592500D01*
X1702500Y1260000D02*
X1892500D01*
X1702500D02*
Y1370000D01*
X1892500D01*
Y1260000D02*
Y1370000D01*
X1677500Y632500D02*
Y822500D01*
X1787500D01*
Y632500D02*
Y822500D01*
X1677500Y632500D02*
X1787500D01*
X1805000Y485000D02*
Y595000D01*
X1615000D02*
X1805000D01*
X1615000Y485000D02*
Y595000D01*
Y485000D02*
X1805000D01*
X2130000Y435000D02*
Y625000D01*
X2240000D01*
Y435000D02*
Y625000D01*
X2130000Y435000D02*
X2240000D01*
X1822501Y862500D02*
X1932500D01*
X1822501Y672500D02*
Y862500D01*
Y672500D02*
X1932500D01*
Y862500D01*
X637500Y1235000D02*
Y1335000D01*
X427500Y1235000D02*
X637500D01*
X427500D02*
Y1335000D01*
X637500D01*
X352500Y702500D02*
Y802500D01*
X142500Y702500D02*
X352500D01*
X142500D02*
Y802500D01*
X352500D01*
X610000Y95000D02*
Y435000D01*
X430000Y95000D02*
Y435000D01*
X610000D01*
X430000Y95000D02*
X610000D01*
X117500Y677500D02*
X457500D01*
X117500Y497500D02*
X457500D01*
X117500D02*
Y677500D01*
X457500Y497500D02*
Y677500D01*
X1661705Y50759D02*
Y350759D01*
X1521705Y50759D02*
X1661705D01*
X1521705D02*
Y350759D01*
X1661705D01*
X1935000Y485000D02*
X2125000D01*
Y375000D02*
Y485000D01*
X1935000Y375000D02*
X2125000D01*
X1935000D02*
Y485000D01*
X1484000Y1325000D02*
X1674000D01*
X1484000D02*
Y1435000D01*
X1674000D01*
Y1325000D02*
Y1435000D01*
X715000Y727500D02*
X1055000D01*
X715000Y547500D02*
X1055000D01*
X715000D02*
Y727500D01*
X1055000Y547500D02*
Y727500D01*
%TF.MD5,8aacb27151b2e33ce8cd563ef97e5efa*%
M02*
