%TF.GenerationSoftware,Altium Limited,Altium Designer,20.1.12 (249)*%
G04 Layer_Color=2752767*
%FSLAX45Y45*%
%MOMM*%
%TF.SameCoordinates,27206DED-D720-4121-B7EB-46A740E941A3*%
%TF.FilePolarity,Positive*%
%TF.FileFunction,Drawing*%
%TF.Part,Single*%
G01*
G75*
%TA.AperFunction,NonConductor*%
%ADD86C,0.12700*%
%ADD94C,0.16933*%
D86*
X149200Y1399200D02*
Y1500800D01*
X250800D01*
Y1399200D01*
X149200D01*
X2249200D02*
Y1500800D01*
X2350800D01*
Y1399200D01*
X2249200D01*
Y149200D02*
Y250800D01*
X2350800D01*
Y149200D01*
X2249200D01*
X149200D02*
Y250800D01*
X250800D01*
Y149200D01*
X149200D01*
D94*
X1465800Y775000D02*
G03*
X1465800Y775000I-50800J0D01*
G01*
X1378300Y687500D02*
G03*
X1378300Y687500I-50800J0D01*
G01*
X1860800Y116152D02*
G03*
X1860800Y116152I-50800J0D01*
G01*
X2378300Y1065000D02*
G03*
X2378300Y1065000I-50800J0D01*
G01*
X2443300D02*
G03*
X2443300Y1065000I-50800J0D01*
G01*
X1583300Y1642500D02*
G03*
X1583300Y1642500I-50800J0D01*
G01*
X1518300D02*
G03*
X1518300Y1642500I-50800J0D01*
G01*
X1570800Y1455000D02*
G03*
X1570800Y1455000I-50800J0D01*
G01*
X2255800Y910000D02*
G03*
X2255800Y910000I-50800J0D01*
G01*
Y845000D02*
G03*
X2255800Y845000I-50800J0D01*
G01*
X1863300Y1380000D02*
G03*
X1863300Y1380000I-50800J0D01*
G01*
X1965800Y1284967D02*
G03*
X1965800Y1284967I-50800J0D01*
G01*
X2327435Y1114135D02*
G03*
X2327435Y1114135I-50800J0D01*
G01*
X268300Y1002500D02*
G03*
X268300Y1002500I-50800J0D01*
G01*
X165800D02*
G03*
X165800Y1002500I-50800J0D01*
G01*
X370800D02*
G03*
X370800Y1002500I-50800J0D01*
G01*
X1953300Y626250D02*
G03*
X1953300Y626250I-50800J0D01*
G01*
X2165800Y687500D02*
G03*
X2165800Y687500I-50800J0D01*
G01*
X2240035Y781941D02*
G03*
X2240035Y781941I-50800J0D01*
G01*
X1055800Y1030000D02*
G03*
X1055800Y1030000I-50800J0D01*
G01*
X600800Y1647500D02*
G03*
X600800Y1647500I-50800J0D01*
G01*
X1110800Y1135000D02*
G03*
X1110800Y1135000I-50800J0D01*
G01*
X1283300Y1072500D02*
G03*
X1283300Y1072500I-50800J0D01*
G01*
X2475800Y1127500D02*
G03*
X2475800Y1127500I-50800J0D01*
G01*
X148300Y782500D02*
G03*
X148300Y782500I-50800J0D01*
G01*
X950800Y637500D02*
G03*
X950800Y637500I-50800J0D01*
G01*
X1783300Y620000D02*
G03*
X1783300Y620000I-50800J0D01*
G01*
X1715800Y612500D02*
G03*
X1715800Y612500I-50800J0D01*
G01*
X2018803Y606997D02*
G03*
X2018803Y606997I-50800J0D01*
G01*
X920800Y2042500D02*
G03*
X920800Y2042500I-50800J0D01*
G01*
X1534388Y1273587D02*
G03*
X1534388Y1273587I-50800J0D01*
G01*
X1700800Y1650000D02*
G03*
X1700800Y1650000I-50800J0D01*
G01*
X2235800Y427501D02*
G03*
X2235800Y427501I-50800J0D01*
G01*
X1620800Y952500D02*
G03*
X1620800Y952500I-50800J0D01*
G01*
X1383300Y1055000D02*
G03*
X1383300Y1055000I-50800J0D01*
G01*
X1315800Y775000D02*
G03*
X1315800Y775000I-50800J0D01*
G01*
X2013300Y877500D02*
G03*
X2013300Y877500I-50800J0D01*
G01*
X1810800Y875000D02*
G03*
X1810800Y875000I-50800J0D01*
G01*
X1400800Y1650000D02*
G03*
X1400800Y1650000I-50800J0D01*
G01*
X595800Y2242500D02*
G03*
X595800Y2242500I-50800J0D01*
G01*
X2139300Y354000D02*
G03*
X2139300Y354000I-50800J0D01*
G01*
X1409300Y569000D02*
G03*
X1409300Y569000I-50800J0D01*
G01*
X2418300Y877500D02*
G03*
X2418300Y877500I-50800J0D01*
G01*
X1903017Y952122D02*
G03*
X1903017Y952122I-50800J0D01*
G01*
X2087877Y967903D02*
G03*
X2087877Y967903I-50800J0D01*
G01*
X2088628Y1088136D02*
G03*
X2088628Y1088136I-50800J0D01*
G01*
X2014953Y1237467D02*
G03*
X2014953Y1237467I-50800J0D01*
G01*
X1803300Y1232499D02*
G03*
X1803300Y1232499I-50800J0D01*
G01*
X2188462Y622663D02*
G03*
X2188462Y622663I-50800J0D01*
G01*
X1991300Y767500D02*
G03*
X1991300Y767500I-50800J0D01*
G01*
X2465800Y412500D02*
G03*
X2465800Y412500I-50800J0D01*
G01*
X1705800Y1167500D02*
G03*
X1705800Y1167500I-50800J0D01*
G01*
X1705800Y687500D02*
G03*
X1705800Y687500I-50800J0D01*
G01*
X410800Y2072500D02*
G03*
X410800Y2072500I-50800J0D01*
G01*
X408300Y1850000D02*
G03*
X408300Y1850000I-50800J0D01*
G01*
X863300Y1382500D02*
G03*
X863300Y1382500I-50800J0D01*
G01*
X1865300Y767500D02*
G03*
X1865300Y767500I-50800J0D01*
G01*
X1203300Y2140000D02*
G03*
X1203300Y2140000I-50800J0D01*
G01*
X1400800Y1950000D02*
G03*
X1400800Y1950000I-50800J0D01*
G01*
X1700800D02*
G03*
X1700800Y1950000I-50800J0D01*
G01*
X2000800D02*
G03*
X2000800Y1950000I-50800J0D01*
G01*
X1100800Y1650000D02*
G03*
X1100800Y1650000I-50800J0D01*
G01*
X520800Y797500D02*
G03*
X520800Y797500I-50800J0D01*
G01*
X483300Y715000D02*
G03*
X483300Y715000I-50800J0D01*
G01*
X1220800Y212500D02*
G03*
X1220800Y212500I-50800J0D01*
G01*
X1100800Y1212500D02*
G03*
X1100800Y1212500I-50800J0D01*
G01*
X1283300Y1135000D02*
G03*
X1283300Y1135000I-50800J0D01*
G01*
X1113300Y2140000D02*
G03*
X1113300Y2140000I-50800J0D01*
G01*
X630800Y1447500D02*
G03*
X630800Y1447500I-50800J0D01*
G01*
X643300Y1115000D02*
G03*
X643300Y1115000I-50800J0D01*
G01*
X445800Y1277500D02*
G03*
X445800Y1277500I-50800J0D01*
G01*
X723301Y1114999D02*
G03*
X723301Y1114999I-50800J0D01*
G01*
X813300Y867500D02*
G03*
X813300Y867500I-50800J0D01*
G01*
X1088300Y770000D02*
G03*
X1088300Y770000I-50800J0D01*
G01*
X148300Y715000D02*
G03*
X148300Y715000I-50800J0D01*
G01*
X763300Y77500D02*
G03*
X763300Y77500I-50800J0D01*
G01*
X700800Y1950000D02*
G03*
X700800Y1950000I-50800J0D01*
G01*
%TF.MD5,1209e59d6c6fe0efbaa23e253f7e0618*%
M02*
