%TF.GenerationSoftware,Altium Limited,Altium Designer,20.1.12 (249)*%
G04 Layer_Color=128*
%FSLAX45Y45*%
%MOMM*%
%TF.SameCoordinates,27206DED-D720-4121-B7EB-46A740E941A3*%
%TF.FilePolarity,Positive*%
%TF.FileFunction,Paste,Bot*%
%TF.Part,Single*%
G01*
G75*
%TA.AperFunction,SMDPad,CuDef*%
G04:AMPARAMS|DCode=12|XSize=1mm|YSize=1mm|CornerRadius=0.1mm|HoleSize=0mm|Usage=FLASHONLY|Rotation=0.000|XOffset=0mm|YOffset=0mm|HoleType=Round|Shape=RoundedRectangle|*
%AMROUNDEDRECTD12*
21,1,1.00000,0.80000,0,0,0.0*
21,1,0.80000,1.00000,0,0,0.0*
1,1,0.20000,0.40000,-0.40000*
1,1,0.20000,-0.40000,-0.40000*
1,1,0.20000,-0.40000,0.40000*
1,1,0.20000,0.40000,0.40000*
%
%ADD12ROUNDEDRECTD12*%
G04:AMPARAMS|DCode=16|XSize=0.9mm|YSize=1mm|CornerRadius=0.09mm|HoleSize=0mm|Usage=FLASHONLY|Rotation=0.000|XOffset=0mm|YOffset=0mm|HoleType=Round|Shape=RoundedRectangle|*
%AMROUNDEDRECTD16*
21,1,0.90000,0.82000,0,0,0.0*
21,1,0.72000,1.00000,0,0,0.0*
1,1,0.18000,0.36000,-0.41000*
1,1,0.18000,-0.36000,-0.41000*
1,1,0.18000,-0.36000,0.41000*
1,1,0.18000,0.36000,0.41000*
%
%ADD16ROUNDEDRECTD16*%
G04:AMPARAMS|DCode=17|XSize=1.8mm|YSize=1.3mm|CornerRadius=0.13mm|HoleSize=0mm|Usage=FLASHONLY|Rotation=270.000|XOffset=0mm|YOffset=0mm|HoleType=Round|Shape=RoundedRectangle|*
%AMROUNDEDRECTD17*
21,1,1.80000,1.04000,0,0,270.0*
21,1,1.54000,1.30000,0,0,270.0*
1,1,0.26000,-0.52000,-0.77000*
1,1,0.26000,-0.52000,0.77000*
1,1,0.26000,0.52000,0.77000*
1,1,0.26000,0.52000,-0.77000*
%
%ADD17ROUNDEDRECTD17*%
%ADD23C,0.63500*%
G04:AMPARAMS|DCode=27|XSize=0.5mm|YSize=0.65mm|CornerRadius=0.05mm|HoleSize=0mm|Usage=FLASHONLY|Rotation=180.000|XOffset=0mm|YOffset=0mm|HoleType=Round|Shape=RoundedRectangle|*
%AMROUNDEDRECTD27*
21,1,0.50000,0.55000,0,0,180.0*
21,1,0.40000,0.65000,0,0,180.0*
1,1,0.10000,-0.20000,0.27500*
1,1,0.10000,0.20000,0.27500*
1,1,0.10000,0.20000,-0.27500*
1,1,0.10000,-0.20000,-0.27500*
%
%ADD27ROUNDEDRECTD27*%
G04:AMPARAMS|DCode=29|XSize=0.6mm|YSize=0.5mm|CornerRadius=0.05mm|HoleSize=0mm|Usage=FLASHONLY|Rotation=270.000|XOffset=0mm|YOffset=0mm|HoleType=Round|Shape=RoundedRectangle|*
%AMROUNDEDRECTD29*
21,1,0.60000,0.40000,0,0,270.0*
21,1,0.50000,0.50000,0,0,270.0*
1,1,0.10000,-0.20000,-0.25000*
1,1,0.10000,-0.20000,0.25000*
1,1,0.10000,0.20000,0.25000*
1,1,0.10000,0.20000,-0.25000*
%
%ADD29ROUNDEDRECTD29*%
G04:AMPARAMS|DCode=30|XSize=0.6mm|YSize=0.5mm|CornerRadius=0.05mm|HoleSize=0mm|Usage=FLASHONLY|Rotation=180.000|XOffset=0mm|YOffset=0mm|HoleType=Round|Shape=RoundedRectangle|*
%AMROUNDEDRECTD30*
21,1,0.60000,0.40000,0,0,180.0*
21,1,0.50000,0.50000,0,0,180.0*
1,1,0.10000,-0.25000,0.20000*
1,1,0.10000,0.25000,0.20000*
1,1,0.10000,0.25000,-0.20000*
1,1,0.10000,-0.25000,-0.20000*
%
%ADD30ROUNDEDRECTD30*%
G04:AMPARAMS|DCode=32|XSize=0.5mm|YSize=0.65mm|CornerRadius=0.05mm|HoleSize=0mm|Usage=FLASHONLY|Rotation=90.000|XOffset=0mm|YOffset=0mm|HoleType=Round|Shape=RoundedRectangle|*
%AMROUNDEDRECTD32*
21,1,0.50000,0.55000,0,0,90.0*
21,1,0.40000,0.65000,0,0,90.0*
1,1,0.10000,0.27500,0.20000*
1,1,0.10000,0.27500,-0.20000*
1,1,0.10000,-0.27500,-0.20000*
1,1,0.10000,-0.27500,0.20000*
%
%ADD32ROUNDEDRECTD32*%
G04:AMPARAMS|DCode=42|XSize=0.6mm|YSize=0.25mm|CornerRadius=0.025mm|HoleSize=0mm|Usage=FLASHONLY|Rotation=180.000|XOffset=0mm|YOffset=0mm|HoleType=Round|Shape=RoundedRectangle|*
%AMROUNDEDRECTD42*
21,1,0.60000,0.20000,0,0,180.0*
21,1,0.55000,0.25000,0,0,180.0*
1,1,0.05000,-0.27500,0.10000*
1,1,0.05000,0.27500,0.10000*
1,1,0.05000,0.27500,-0.10000*
1,1,0.05000,-0.27500,-0.10000*
%
%ADD42ROUNDEDRECTD42*%
G04:AMPARAMS|DCode=43|XSize=0.6mm|YSize=0.25mm|CornerRadius=0.025mm|HoleSize=0mm|Usage=FLASHONLY|Rotation=90.000|XOffset=0mm|YOffset=0mm|HoleType=Round|Shape=RoundedRectangle|*
%AMROUNDEDRECTD43*
21,1,0.60000,0.20000,0,0,90.0*
21,1,0.55000,0.25000,0,0,90.0*
1,1,0.05000,0.10000,0.27500*
1,1,0.05000,0.10000,-0.27500*
1,1,0.05000,-0.10000,-0.27500*
1,1,0.05000,-0.10000,0.27500*
%
%ADD43ROUNDEDRECTD43*%
G04:AMPARAMS|DCode=44|XSize=3.7mm|YSize=3.7mm|CornerRadius=0.0925mm|HoleSize=0mm|Usage=FLASHONLY|Rotation=180.000|XOffset=0mm|YOffset=0mm|HoleType=Round|Shape=RoundedRectangle|*
%AMROUNDEDRECTD44*
21,1,3.70000,3.51500,0,0,180.0*
21,1,3.51500,3.70000,0,0,180.0*
1,1,0.18500,-1.75750,1.75750*
1,1,0.18500,1.75750,1.75750*
1,1,0.18500,1.75750,-1.75750*
1,1,0.18500,-1.75750,-1.75750*
%
%ADD44ROUNDEDRECTD44*%
%ADD45O,0.65000X0.30000*%
%ADD46R,1.90500X1.90500*%
%ADD47C,1.52000*%
G36*
X1717500Y917500D02*
X1867500D01*
Y767500D01*
X1717500D01*
Y917500D01*
D02*
G37*
G36*
Y1087500D02*
X1867500D01*
Y937500D01*
X1717500D01*
Y1087500D01*
D02*
G37*
G36*
X1887500Y917500D02*
X2037500D01*
Y767500D01*
X1887500D01*
Y917500D01*
D02*
G37*
G36*
Y1087500D02*
X2037500D01*
Y937500D01*
X1887500D01*
Y1087500D01*
D02*
G37*
D12*
X1232500Y600000D02*
D03*
Y440000D02*
D03*
D16*
X547500Y1757500D02*
D03*
X377500D02*
D03*
D17*
X780000Y1115000D02*
D03*
X490001D02*
D03*
X865000Y867500D02*
D03*
X575000D02*
D03*
D23*
X1475000Y867500D02*
D03*
Y960000D02*
D03*
X1512500Y790000D02*
D03*
D27*
X2075000Y540000D02*
D03*
X1985000D02*
D03*
X1842500Y1315000D02*
D03*
X1752500D02*
D03*
X1547500Y1267500D02*
D03*
X1637500D02*
D03*
X1152500Y2062500D02*
D03*
X1062500D02*
D03*
D29*
X1332500Y1242500D02*
D03*
Y1142500D02*
D03*
X1332500Y1355000D02*
D03*
Y1455000D02*
D03*
X2367500Y700000D02*
D03*
Y800000D02*
D03*
X547500Y1965000D02*
D03*
Y1865000D02*
D03*
D30*
X580000Y1282500D02*
D03*
X480000D02*
D03*
X480000Y1382500D02*
D03*
X580000D02*
D03*
X955000Y1952500D02*
D03*
X1055000D02*
D03*
X750000Y2287500D02*
D03*
X850000D02*
D03*
X1385000Y952500D02*
D03*
X1285000D02*
D03*
X1285000Y852500D02*
D03*
X1385000D02*
D03*
X1332500Y212500D02*
D03*
X1232500D02*
D03*
D32*
X1537500Y585000D02*
D03*
Y675000D02*
D03*
X2262500Y695000D02*
D03*
Y785000D02*
D03*
X2185000Y485000D02*
D03*
Y575000D02*
D03*
X545000Y2162500D02*
D03*
Y2072500D02*
D03*
X1780000Y545000D02*
D03*
Y455000D02*
D03*
X1875001Y545000D02*
D03*
Y455000D02*
D03*
D42*
X2117500Y1102500D02*
D03*
Y1052500D02*
D03*
Y1002500D02*
D03*
Y952500D02*
D03*
Y902500D02*
D03*
Y852500D02*
D03*
Y802500D02*
D03*
Y752500D02*
D03*
X1637500D02*
D03*
Y802500D02*
D03*
Y852500D02*
D03*
Y902500D02*
D03*
Y952500D02*
D03*
Y1002500D02*
D03*
Y1052500D02*
D03*
Y1102500D02*
D03*
D43*
X2052500Y687500D02*
D03*
X2002500D02*
D03*
X1952500D02*
D03*
X1902500D02*
D03*
X1852500D02*
D03*
X1802500D02*
D03*
X1752500D02*
D03*
X1702500D02*
D03*
Y1167500D02*
D03*
X1752500D02*
D03*
X1802500D02*
D03*
X1852500D02*
D03*
X1902500D02*
D03*
X1952500D02*
D03*
X2002500D02*
D03*
X2052500D02*
D03*
D44*
X1877500Y927500D02*
D03*
D45*
X955000Y2192500D02*
D03*
Y2142500D02*
D03*
Y2092499D02*
D03*
Y2042500D02*
D03*
X650000Y2192500D02*
D03*
Y2142500D02*
D03*
Y2092499D02*
D03*
Y2042500D02*
D03*
D46*
X562500Y637500D02*
D03*
X1037500D02*
D03*
X562500Y162500D02*
D03*
X1037500D02*
D03*
D47*
X800000Y400000D02*
D03*
%TF.MD5,f1b63dec29b2c88cb163086374ab2f8c*%
M02*
