%TF.GenerationSoftware,Altium Limited,Altium Designer,20.1.12 (249)*%
G04 Layer_Physical_Order=1*
G04 Layer_Color=255*
%FSLAX45Y45*%
%MOMM*%
%TF.SameCoordinates,27206DED-D720-4121-B7EB-46A740E941A3*%
%TF.FilePolarity,Positive*%
%TF.FileFunction,Copper,L1,Top,Signal*%
%TF.Part,Single*%
G01*
G75*
%TA.AperFunction,Conductor*%
%ADD10C,0.13014*%
%ADD11C,0.30000*%
%TA.AperFunction,SMDPad,CuDef*%
G04:AMPARAMS|DCode=12|XSize=1mm|YSize=1mm|CornerRadius=0.1mm|HoleSize=0mm|Usage=FLASHONLY|Rotation=0.000|XOffset=0mm|YOffset=0mm|HoleType=Round|Shape=RoundedRectangle|*
%AMROUNDEDRECTD12*
21,1,1.00000,0.80000,0,0,0.0*
21,1,0.80000,1.00000,0,0,0.0*
1,1,0.20000,0.40000,-0.40000*
1,1,0.20000,-0.40000,-0.40000*
1,1,0.20000,-0.40000,0.40000*
1,1,0.20000,0.40000,0.40000*
%
%ADD12ROUNDEDRECTD12*%
G04:AMPARAMS|DCode=13|XSize=3.4mm|YSize=1.2mm|CornerRadius=0.12mm|HoleSize=0mm|Usage=FLASHONLY|Rotation=180.000|XOffset=0mm|YOffset=0mm|HoleType=Round|Shape=RoundedRectangle|*
%AMROUNDEDRECTD13*
21,1,3.40000,0.96000,0,0,180.0*
21,1,3.16000,1.20000,0,0,180.0*
1,1,0.24000,-1.58000,0.48000*
1,1,0.24000,1.58000,0.48000*
1,1,0.24000,1.58000,-0.48000*
1,1,0.24000,-1.58000,-0.48000*
%
%ADD13ROUNDEDRECTD13*%
G04:AMPARAMS|DCode=14|XSize=1.1mm|YSize=1.4mm|CornerRadius=0.11mm|HoleSize=0mm|Usage=FLASHONLY|Rotation=90.000|XOffset=0mm|YOffset=0mm|HoleType=Round|Shape=RoundedRectangle|*
%AMROUNDEDRECTD14*
21,1,1.10000,1.18000,0,0,90.0*
21,1,0.88000,1.40000,0,0,90.0*
1,1,0.22000,0.59000,0.44000*
1,1,0.22000,0.59000,-0.44000*
1,1,0.22000,-0.59000,-0.44000*
1,1,0.22000,-0.59000,0.44000*
%
%ADD14ROUNDEDRECTD14*%
G04:AMPARAMS|DCode=15|XSize=1.3mm|YSize=1.5mm|CornerRadius=0.13mm|HoleSize=0mm|Usage=FLASHONLY|Rotation=90.000|XOffset=0mm|YOffset=0mm|HoleType=Round|Shape=RoundedRectangle|*
%AMROUNDEDRECTD15*
21,1,1.30000,1.24000,0,0,90.0*
21,1,1.04000,1.50000,0,0,90.0*
1,1,0.26000,0.62000,0.52000*
1,1,0.26000,0.62000,-0.52000*
1,1,0.26000,-0.62000,-0.52000*
1,1,0.26000,-0.62000,0.52000*
%
%ADD15ROUNDEDRECTD15*%
G04:AMPARAMS|DCode=16|XSize=0.9mm|YSize=1mm|CornerRadius=0.09mm|HoleSize=0mm|Usage=FLASHONLY|Rotation=0.000|XOffset=0mm|YOffset=0mm|HoleType=Round|Shape=RoundedRectangle|*
%AMROUNDEDRECTD16*
21,1,0.90000,0.82000,0,0,0.0*
21,1,0.72000,1.00000,0,0,0.0*
1,1,0.18000,0.36000,-0.41000*
1,1,0.18000,-0.36000,-0.41000*
1,1,0.18000,-0.36000,0.41000*
1,1,0.18000,0.36000,0.41000*
%
%ADD16ROUNDEDRECTD16*%
G04:AMPARAMS|DCode=17|XSize=1.8mm|YSize=1.3mm|CornerRadius=0.13mm|HoleSize=0mm|Usage=FLASHONLY|Rotation=270.000|XOffset=0mm|YOffset=0mm|HoleType=Round|Shape=RoundedRectangle|*
%AMROUNDEDRECTD17*
21,1,1.80000,1.04000,0,0,270.0*
21,1,1.54000,1.30000,0,0,270.0*
1,1,0.26000,-0.52000,-0.77000*
1,1,0.26000,-0.52000,0.77000*
1,1,0.26000,0.52000,0.77000*
1,1,0.26000,0.52000,-0.77000*
%
%ADD17ROUNDEDRECTD17*%
%ADD18R,0.60000X2.00000*%
%ADD19R,0.70000X4.20000*%
G04:AMPARAMS|DCode=20|XSize=0.7mm|YSize=0.85mm|CornerRadius=0.07mm|HoleSize=0mm|Usage=FLASHONLY|Rotation=0.000|XOffset=0mm|YOffset=0mm|HoleType=Round|Shape=RoundedRectangle|*
%AMROUNDEDRECTD20*
21,1,0.70000,0.71000,0,0,0.0*
21,1,0.56000,0.85000,0,0,0.0*
1,1,0.14000,0.28000,-0.35500*
1,1,0.14000,-0.28000,-0.35500*
1,1,0.14000,-0.28000,0.35500*
1,1,0.14000,0.28000,0.35500*
%
%ADD20ROUNDEDRECTD20*%
G04:AMPARAMS|DCode=21|XSize=0.8mm|YSize=1.4mm|CornerRadius=0.04mm|HoleSize=0mm|Usage=FLASHONLY|Rotation=270.000|XOffset=0mm|YOffset=0mm|HoleType=Round|Shape=RoundedRectangle|*
%AMROUNDEDRECTD21*
21,1,0.80000,1.32000,0,0,270.0*
21,1,0.72000,1.40000,0,0,270.0*
1,1,0.08000,-0.66000,-0.36000*
1,1,0.08000,-0.66000,0.36000*
1,1,0.08000,0.66000,0.36000*
1,1,0.08000,0.66000,-0.36000*
%
%ADD21ROUNDEDRECTD21*%
G04:AMPARAMS|DCode=22|XSize=1mm|YSize=0.9mm|CornerRadius=0.09mm|HoleSize=0mm|Usage=FLASHONLY|Rotation=180.000|XOffset=0mm|YOffset=0mm|HoleType=Round|Shape=RoundedRectangle|*
%AMROUNDEDRECTD22*
21,1,1.00000,0.72000,0,0,180.0*
21,1,0.82000,0.90000,0,0,180.0*
1,1,0.18000,-0.41000,0.36000*
1,1,0.18000,0.41000,0.36000*
1,1,0.18000,0.41000,-0.36000*
1,1,0.18000,-0.41000,-0.36000*
%
%ADD22ROUNDEDRECTD22*%
%ADD23C,0.63500*%
G04:AMPARAMS|DCode=24|XSize=0.65mm|YSize=0.3mm|CornerRadius=0.045mm|HoleSize=0mm|Usage=FLASHONLY|Rotation=90.000|XOffset=0mm|YOffset=0mm|HoleType=Round|Shape=RoundedRectangle|*
%AMROUNDEDRECTD24*
21,1,0.65000,0.21000,0,0,90.0*
21,1,0.56000,0.30000,0,0,90.0*
1,1,0.09000,0.10500,0.28000*
1,1,0.09000,0.10500,-0.28000*
1,1,0.09000,-0.10500,-0.28000*
1,1,0.09000,-0.10500,0.28000*
%
%ADD24ROUNDEDRECTD24*%
G04:AMPARAMS|DCode=25|XSize=0.7mm|YSize=2.9mm|CornerRadius=0.07mm|HoleSize=0mm|Usage=FLASHONLY|Rotation=90.000|XOffset=0mm|YOffset=0mm|HoleType=Round|Shape=RoundedRectangle|*
%AMROUNDEDRECTD25*
21,1,0.70000,2.76000,0,0,90.0*
21,1,0.56000,2.90000,0,0,90.0*
1,1,0.14000,1.38000,0.28000*
1,1,0.14000,1.38000,-0.28000*
1,1,0.14000,-1.38000,-0.28000*
1,1,0.14000,-1.38000,0.28000*
%
%ADD25ROUNDEDRECTD25*%
G04:AMPARAMS|DCode=26|XSize=0.7mm|YSize=0.9mm|CornerRadius=0.0875mm|HoleSize=0mm|Usage=FLASHONLY|Rotation=90.000|XOffset=0mm|YOffset=0mm|HoleType=Round|Shape=RoundedRectangle|*
%AMROUNDEDRECTD26*
21,1,0.70000,0.72500,0,0,90.0*
21,1,0.52500,0.90000,0,0,90.0*
1,1,0.17500,0.36250,0.26250*
1,1,0.17500,0.36250,-0.26250*
1,1,0.17500,-0.36250,-0.26250*
1,1,0.17500,-0.36250,0.26250*
%
%ADD26ROUNDEDRECTD26*%
G04:AMPARAMS|DCode=27|XSize=0.5mm|YSize=0.65mm|CornerRadius=0.05mm|HoleSize=0mm|Usage=FLASHONLY|Rotation=180.000|XOffset=0mm|YOffset=0mm|HoleType=Round|Shape=RoundedRectangle|*
%AMROUNDEDRECTD27*
21,1,0.50000,0.55000,0,0,180.0*
21,1,0.40000,0.65000,0,0,180.0*
1,1,0.10000,-0.20000,0.27500*
1,1,0.10000,0.20000,0.27500*
1,1,0.10000,0.20000,-0.27500*
1,1,0.10000,-0.20000,-0.27500*
%
%ADD27ROUNDEDRECTD27*%
G04:AMPARAMS|DCode=28|XSize=0.6mm|YSize=1.1mm|CornerRadius=0.06mm|HoleSize=0mm|Usage=FLASHONLY|Rotation=90.000|XOffset=0mm|YOffset=0mm|HoleType=Round|Shape=RoundedRectangle|*
%AMROUNDEDRECTD28*
21,1,0.60000,0.98000,0,0,90.0*
21,1,0.48000,1.10000,0,0,90.0*
1,1,0.12000,0.49000,0.24000*
1,1,0.12000,0.49000,-0.24000*
1,1,0.12000,-0.49000,-0.24000*
1,1,0.12000,-0.49000,0.24000*
%
%ADD28ROUNDEDRECTD28*%
G04:AMPARAMS|DCode=29|XSize=0.6mm|YSize=0.5mm|CornerRadius=0.05mm|HoleSize=0mm|Usage=FLASHONLY|Rotation=270.000|XOffset=0mm|YOffset=0mm|HoleType=Round|Shape=RoundedRectangle|*
%AMROUNDEDRECTD29*
21,1,0.60000,0.40000,0,0,270.0*
21,1,0.50000,0.50000,0,0,270.0*
1,1,0.10000,-0.20000,-0.25000*
1,1,0.10000,-0.20000,0.25000*
1,1,0.10000,0.20000,0.25000*
1,1,0.10000,0.20000,-0.25000*
%
%ADD29ROUNDEDRECTD29*%
G04:AMPARAMS|DCode=30|XSize=0.6mm|YSize=0.5mm|CornerRadius=0.05mm|HoleSize=0mm|Usage=FLASHONLY|Rotation=180.000|XOffset=0mm|YOffset=0mm|HoleType=Round|Shape=RoundedRectangle|*
%AMROUNDEDRECTD30*
21,1,0.60000,0.40000,0,0,180.0*
21,1,0.50000,0.50000,0,0,180.0*
1,1,0.10000,-0.25000,0.20000*
1,1,0.10000,0.25000,0.20000*
1,1,0.10000,0.25000,-0.20000*
1,1,0.10000,-0.25000,-0.20000*
%
%ADD30ROUNDEDRECTD30*%
G04:AMPARAMS|DCode=31|XSize=1.3mm|YSize=1.5mm|CornerRadius=0.13mm|HoleSize=0mm|Usage=FLASHONLY|Rotation=180.000|XOffset=0mm|YOffset=0mm|HoleType=Round|Shape=RoundedRectangle|*
%AMROUNDEDRECTD31*
21,1,1.30000,1.24000,0,0,180.0*
21,1,1.04000,1.50000,0,0,180.0*
1,1,0.26000,-0.52000,0.62000*
1,1,0.26000,0.52000,0.62000*
1,1,0.26000,0.52000,-0.62000*
1,1,0.26000,-0.52000,-0.62000*
%
%ADD31ROUNDEDRECTD31*%
G04:AMPARAMS|DCode=32|XSize=0.5mm|YSize=0.65mm|CornerRadius=0.05mm|HoleSize=0mm|Usage=FLASHONLY|Rotation=90.000|XOffset=0mm|YOffset=0mm|HoleType=Round|Shape=RoundedRectangle|*
%AMROUNDEDRECTD32*
21,1,0.50000,0.55000,0,0,90.0*
21,1,0.40000,0.65000,0,0,90.0*
1,1,0.10000,0.27500,0.20000*
1,1,0.10000,0.27500,-0.20000*
1,1,0.10000,-0.27500,-0.20000*
1,1,0.10000,-0.27500,0.20000*
%
%ADD32ROUNDEDRECTD32*%
G04:AMPARAMS|DCode=33|XSize=1.8mm|YSize=1.3mm|CornerRadius=0.13mm|HoleSize=0mm|Usage=FLASHONLY|Rotation=180.000|XOffset=0mm|YOffset=0mm|HoleType=Round|Shape=RoundedRectangle|*
%AMROUNDEDRECTD33*
21,1,1.80000,1.04000,0,0,180.0*
21,1,1.54000,1.30000,0,0,180.0*
1,1,0.26000,-0.77000,0.52000*
1,1,0.26000,0.77000,0.52000*
1,1,0.26000,0.77000,-0.52000*
1,1,0.26000,-0.77000,-0.52000*
%
%ADD33ROUNDEDRECTD33*%
G04:AMPARAMS|DCode=34|XSize=0.7mm|YSize=0.85mm|CornerRadius=0.07mm|HoleSize=0mm|Usage=FLASHONLY|Rotation=90.000|XOffset=0mm|YOffset=0mm|HoleType=Round|Shape=RoundedRectangle|*
%AMROUNDEDRECTD34*
21,1,0.70000,0.71000,0,0,90.0*
21,1,0.56000,0.85000,0,0,90.0*
1,1,0.14000,0.35500,0.28000*
1,1,0.14000,0.35500,-0.28000*
1,1,0.14000,-0.35500,-0.28000*
1,1,0.14000,-0.35500,0.28000*
%
%ADD34ROUNDEDRECTD34*%
%TA.AperFunction,Conductor*%
%ADD35C,0.20000*%
%ADD36C,0.50000*%
%ADD37C,0.80000*%
%TA.AperFunction,NonConductor*%
%ADD38C,0.20000*%
%TA.AperFunction,WasherPad*%
%ADD39C,2.20000*%
%TA.AperFunction,ViaPad*%
%ADD40C,0.50000*%
G36*
X2343467Y2343295D02*
X2370588Y2332061D01*
X2394996Y2315753D01*
X2415752Y2294997D01*
X2432061Y2270588D01*
X2443295Y2243467D01*
X2444050Y2239673D01*
X2435993Y2229855D01*
X2275057D01*
Y1793565D01*
X2267526D01*
Y1685000D01*
X2449022D01*
Y1602859D01*
X2436322Y1596852D01*
X2411652Y1617098D01*
X2376907Y1635670D01*
X2339207Y1647106D01*
X2300000Y1650967D01*
X2260793Y1647106D01*
X2248706Y1643439D01*
X2239022Y1651656D01*
X2241003Y1666699D01*
Y1667180D01*
X2241003Y1667182D01*
X2237342Y1694986D01*
X2226610Y1720895D01*
X2209538Y1743144D01*
X2209537Y1743145D01*
X2202007Y1750676D01*
X2179758Y1767748D01*
X2153849Y1778480D01*
X2139947Y1780310D01*
X2126045Y1782140D01*
X2126043Y1782140D01*
X2125562D01*
X2117700Y1781105D01*
X2105000Y1792243D01*
Y2240000D01*
X1995000D01*
Y1925400D01*
X1894600D01*
Y1920000D01*
X1812700D01*
X1800001Y1920000D01*
Y1920000D01*
X1799999D01*
Y1920000D01*
X1705400D01*
Y1925400D01*
X1594600D01*
Y1920000D01*
X1405400D01*
Y1925400D01*
X1294600D01*
Y1920000D01*
X1212700D01*
X1200001Y1920000D01*
Y1920000D01*
X1199999D01*
Y1920000D01*
X1105400D01*
Y1925400D01*
X994600D01*
Y1920000D01*
X912700D01*
X900001Y1920000D01*
Y1920000D01*
X899999D01*
Y1920000D01*
X812700D01*
X800001Y1920000D01*
Y1920000D01*
X799999D01*
Y1920000D01*
X780588D01*
Y1949829D01*
X839510Y2008752D01*
X852442Y2000111D01*
X870000Y1996618D01*
X887558Y2000111D01*
X902443Y2010056D01*
X912389Y2024942D01*
X915882Y2042500D01*
X912389Y2060058D01*
X902443Y2074943D01*
X887558Y2084889D01*
X870000Y2088381D01*
X852442Y2084889D01*
X837557Y2074943D01*
X836317Y2073087D01*
X830000D01*
X818295Y2070759D01*
X808371Y2064128D01*
X728371Y1984128D01*
X721741Y1974205D01*
X719412Y1962500D01*
X719412Y1962498D01*
Y1928980D01*
X710432Y1920000D01*
X700000Y1920000D01*
D01*
X700000D01*
X693548Y1928156D01*
X691995Y1930401D01*
X692440Y1932700D01*
X695882Y1950000D01*
X692389Y1967558D01*
X682443Y1982443D01*
X667558Y1992389D01*
X650000Y1995881D01*
X632442Y1992389D01*
X617557Y1982443D01*
X607611Y1967558D01*
X604118Y1950000D01*
X607560Y1932700D01*
X608005Y1930401D01*
X606452Y1928156D01*
X600000Y1920000D01*
X600000D01*
X599999Y1920000D01*
X580588D01*
Y2067330D01*
X622670Y2109412D01*
X1028817D01*
X1030057Y2107557D01*
X1044942Y2097611D01*
X1062500Y2094118D01*
X1080058Y2097611D01*
X1094943Y2107557D01*
X1104889Y2122442D01*
X1108382Y2140000D01*
X1104889Y2157558D01*
X1094943Y2172443D01*
X1080058Y2182389D01*
X1062500Y2185882D01*
X1044942Y2182389D01*
X1030057Y2172443D01*
X1028817Y2170588D01*
X610001D01*
X610000Y2170588D01*
X598295Y2168259D01*
X588371Y2161629D01*
X528371Y2101629D01*
X521741Y2091705D01*
X519412Y2080000D01*
X519412Y2079999D01*
Y1920000D01*
X505000D01*
Y2200247D01*
X517700Y2206620D01*
X527442Y2200111D01*
X545000Y2196618D01*
X562558Y2200111D01*
X577443Y2210057D01*
X587389Y2224942D01*
X590881Y2242500D01*
X587389Y2260058D01*
X577443Y2274943D01*
X562558Y2284889D01*
X545000Y2288382D01*
X527442Y2284889D01*
X512557Y2274943D01*
X502611Y2260058D01*
X499118Y2242500D01*
X497067Y2240000D01*
X395000D01*
Y1780000D01*
X452068D01*
X456928Y1768267D01*
X393081Y1704420D01*
X388660Y1697804D01*
X387108Y1690000D01*
Y1551157D01*
X374408Y1547976D01*
X367099Y1561651D01*
X342106Y1592106D01*
X311652Y1617098D01*
X276907Y1635670D01*
X239207Y1647106D01*
X232500Y1647767D01*
Y1877964D01*
X225000D01*
Y2238856D01*
X68541D01*
X60056Y2251557D01*
X67939Y2270588D01*
X84247Y2294996D01*
X105003Y2315752D01*
X129412Y2332061D01*
X156533Y2343295D01*
X185322Y2349022D01*
X1280000D01*
Y2187500D01*
X1383804D01*
Y2349022D01*
X2314677D01*
X2343467Y2343295D01*
D02*
G37*
G36*
X994600Y1674600D02*
X1058261D01*
X1074038Y1654038D01*
X1079717Y1648359D01*
Y1647428D01*
X1079717Y1647426D01*
X1081547Y1633524D01*
X1083377Y1619622D01*
X1094109Y1593713D01*
X1111181Y1571464D01*
X1147942Y1534703D01*
X1143082Y1522970D01*
X1134569D01*
X1132500Y1523382D01*
X1038051D01*
X1034145Y1525991D01*
X1024000Y1528009D01*
X926000D01*
X915588Y1538887D01*
Y1539830D01*
X971628Y1595871D01*
X971629Y1595871D01*
X978259Y1605795D01*
X980588Y1617500D01*
X980588Y1617501D01*
Y1680000D01*
X994600D01*
Y1674600D01*
D02*
G37*
G36*
X600000Y1772500D02*
Y1680000D01*
X699999D01*
X700000Y1679999D01*
X700000D01*
X700001D01*
X735006Y1644994D01*
X734510Y1642500D01*
Y1602500D01*
X736451Y1592745D01*
X741976Y1584476D01*
X750246Y1578950D01*
X760000Y1577010D01*
X787232D01*
X833370Y1530872D01*
X833371Y1530871D01*
X843294Y1524241D01*
X854412Y1522029D01*
Y1421891D01*
X841712Y1417102D01*
X830058Y1424889D01*
X812500Y1428381D01*
X778051D01*
X774145Y1430991D01*
X764000Y1433009D01*
X666000D01*
X660476Y1431910D01*
X625881Y1466505D01*
Y1537500D01*
X625489Y1539470D01*
Y1565000D01*
X623549Y1574755D01*
X618024Y1583024D01*
X609754Y1588550D01*
X600000Y1590490D01*
X560000D01*
X550246Y1588550D01*
X541976Y1583024D01*
X536451Y1574755D01*
X534510Y1565000D01*
Y1539470D01*
X534118Y1537500D01*
Y1447500D01*
X537611Y1429942D01*
X547557Y1415057D01*
X612557Y1350057D01*
X627442Y1340111D01*
X628579Y1339885D01*
X634050Y1327728D01*
X620638Y1326289D01*
X617254Y1328550D01*
X607500Y1330490D01*
X557500D01*
X547746Y1328550D01*
X539476Y1323024D01*
X533951Y1314755D01*
X532010Y1305000D01*
Y1265000D01*
X533951Y1255246D01*
X539476Y1246976D01*
X547746Y1241451D01*
X557500Y1239511D01*
X607500D01*
X617254Y1241451D01*
X625524Y1246976D01*
X628845Y1251946D01*
X636267Y1252772D01*
X642076Y1252506D01*
X647255Y1244755D01*
X655855Y1239009D01*
X666000Y1236991D01*
X719939D01*
X721190Y1224291D01*
X715125Y1223084D01*
X704209Y1215791D01*
X696915Y1204875D01*
X694354Y1191999D01*
Y1160881D01*
X672501D01*
X654943Y1157388D01*
X640058Y1147442D01*
X630112Y1132557D01*
X626619Y1114999D01*
X630112Y1097441D01*
X640058Y1082556D01*
X654943Y1072610D01*
X672501Y1069118D01*
X694354D01*
Y1037999D01*
X696915Y1025123D01*
X704209Y1014208D01*
X706465Y1012700D01*
X702613Y1000000D01*
X417500D01*
X400000Y1017500D01*
Y1090000D01*
X367500Y1122500D01*
X318040D01*
X310774Y1134485D01*
X311078Y1134941D01*
X312980Y1144500D01*
Y1177380D01*
X312983Y1177395D01*
Y1202225D01*
X350734Y1239976D01*
X362557Y1245057D01*
X377442Y1235111D01*
X395000Y1231619D01*
X412558Y1235111D01*
X427443Y1245057D01*
X437389Y1259942D01*
X440882Y1277500D01*
X437389Y1295058D01*
X427443Y1309943D01*
X412558Y1319889D01*
X395000Y1323382D01*
X390434Y1322473D01*
X384178Y1334178D01*
X407500Y1357500D01*
Y1690000D01*
X490000Y1772500D01*
X600000Y1772500D01*
D02*
G37*
G36*
X1274622Y1428378D02*
X1302425Y1424717D01*
X1449586D01*
X1458270Y1412017D01*
X1457471Y1408000D01*
Y1352000D01*
X1459567Y1341465D01*
X1465534Y1332534D01*
X1474465Y1326566D01*
X1485000Y1324471D01*
X1495769D01*
X1502144Y1311771D01*
X1498864Y1306861D01*
X1496505Y1295000D01*
Y1277500D01*
X1547500D01*
Y1257500D01*
X1496505D01*
Y1240000D01*
X1498864Y1228138D01*
X1505583Y1218083D01*
X1514820Y1211911D01*
X1515230Y1208480D01*
X1513854Y1198770D01*
X1512746Y1198549D01*
X1504476Y1193024D01*
X1502803Y1190520D01*
X1501472Y1190103D01*
X1488262Y1191162D01*
X1484417Y1196917D01*
X1474362Y1203636D01*
X1462500Y1205995D01*
X1452501D01*
Y1150000D01*
X1442501D01*
Y1140000D01*
X1391505D01*
Y1125000D01*
X1393864Y1113138D01*
X1399376Y1104889D01*
X1404476Y1093023D01*
X1398951Y1084754D01*
X1397011Y1074999D01*
Y1061142D01*
X1385106Y1055629D01*
X1377156Y1061162D01*
X1374889Y1072558D01*
X1364943Y1087443D01*
X1350058Y1097389D01*
X1332500Y1100881D01*
X1314942Y1097389D01*
X1300057Y1087443D01*
X1290460Y1073081D01*
X1287727Y1073089D01*
X1277826Y1075292D01*
X1274889Y1090058D01*
X1265740Y1103750D01*
X1274889Y1117442D01*
X1278381Y1135000D01*
X1274889Y1152558D01*
X1264943Y1167443D01*
X1250058Y1177389D01*
X1232500Y1180881D01*
X1208676D01*
Y1242030D01*
X1213500D01*
X1222864Y1243892D01*
X1230803Y1249197D01*
X1236108Y1257136D01*
X1237970Y1266500D01*
Y1338500D01*
X1236108Y1347864D01*
X1230803Y1355803D01*
X1222864Y1361107D01*
X1213500Y1362970D01*
X1151046D01*
X1147500Y1363675D01*
X1143954Y1362970D01*
X1081500D01*
X1072136Y1361107D01*
X1064197Y1355803D01*
X1058893Y1347864D01*
X1057030Y1338500D01*
Y1333382D01*
X1038051D01*
X1034145Y1335991D01*
X1024000Y1338009D01*
X926000D01*
X915588Y1348887D01*
Y1416113D01*
X926000Y1426991D01*
X1024000D01*
X1034145Y1429009D01*
X1038051Y1431618D01*
X1057030D01*
Y1426500D01*
X1058893Y1417136D01*
X1064197Y1409197D01*
X1072136Y1403893D01*
X1081500Y1402030D01*
X1213500D01*
X1222864Y1403893D01*
X1230803Y1409197D01*
X1236108Y1417136D01*
X1237970Y1426500D01*
Y1431345D01*
X1243841Y1435589D01*
X1250670Y1438299D01*
X1274622Y1428378D01*
D02*
G37*
G36*
X1802390Y1264375D02*
X1810638Y1258864D01*
X1822500Y1256504D01*
X1862500D01*
X1871793Y1258353D01*
X1979760Y1150386D01*
X1974900Y1138652D01*
X1955000D01*
Y1047500D01*
X2036152D01*
Y1077399D01*
X2047886Y1082259D01*
X2117609Y1012537D01*
X2116778Y999864D01*
X2115849Y999151D01*
X2095813Y973039D01*
X2083217Y942631D01*
X2078921Y910000D01*
X2083200Y877500D01*
X2078921Y845000D01*
X2080674Y831689D01*
X2068469Y827095D01*
X2066918Y829417D01*
X2056862Y836136D01*
X2045000Y838495D01*
X2027500D01*
Y787499D01*
X2017500D01*
Y777499D01*
X1959005D01*
Y767500D01*
X1961364Y755638D01*
X1966876Y747390D01*
X1971976Y735523D01*
X1966451Y727254D01*
X1964511Y717500D01*
Y714432D01*
X1954486Y707733D01*
X1942770Y696018D01*
X1941887Y694696D01*
X1929923Y699651D01*
X1930490Y702500D01*
Y742500D01*
X1928550Y752254D01*
X1923024Y760523D01*
X1928125Y772390D01*
X1933637Y780638D01*
X1935996Y792500D01*
Y802499D01*
X1877500D01*
X1819005D01*
Y792500D01*
X1821364Y780638D01*
X1826876Y772390D01*
X1831977Y760523D01*
X1826451Y752254D01*
X1824511Y742500D01*
Y702500D01*
X1826451Y692746D01*
X1831977Y684476D01*
X1840246Y678951D01*
X1850000Y677010D01*
X1866173D01*
Y652879D01*
X1860111Y643808D01*
X1856619Y626250D01*
X1860111Y608692D01*
X1870057Y593807D01*
X1884942Y583861D01*
X1902500Y580368D01*
X1920058Y583861D01*
X1926476Y588149D01*
X1934872Y575583D01*
X1935328Y574483D01*
X1939314Y569288D01*
Y550000D01*
X1939510Y549014D01*
Y512500D01*
X1941451Y502746D01*
X1944469Y498229D01*
X1939581Y486341D01*
X1938843Y485529D01*
X1936000D01*
X1925465Y483433D01*
X1916534Y477466D01*
X1916044Y477326D01*
X1902073Y478683D01*
X1897774Y485116D01*
X1886859Y492409D01*
X1873983Y494970D01*
X1807466D01*
X1799529Y507671D01*
X1800490Y512500D01*
Y567500D01*
X1798550Y577254D01*
X1793024Y585524D01*
X1790686Y587086D01*
Y594426D01*
X1787969Y608083D01*
X1780234Y619660D01*
X1778006Y621888D01*
X1774889Y637558D01*
X1772661Y640893D01*
X1778024Y644476D01*
X1783550Y652745D01*
X1785490Y662500D01*
Y702500D01*
X1783550Y712254D01*
X1778024Y720523D01*
X1783125Y732390D01*
X1788637Y740638D01*
X1790996Y752500D01*
Y762500D01*
X1732500D01*
X1674005D01*
Y752500D01*
X1676176Y741583D01*
X1673319Y737239D01*
X1667615Y730872D01*
X1655000Y733381D01*
X1637442Y729889D01*
X1627410Y723185D01*
X1550000D01*
X1536447Y720490D01*
X1510000D01*
X1500246Y718549D01*
X1495729Y715531D01*
X1483841Y720419D01*
X1483029Y721157D01*
Y721500D01*
X1480934Y732035D01*
X1474966Y740966D01*
X1466035Y746933D01*
X1465688Y747002D01*
X1463506Y749747D01*
X1458186Y761444D01*
X1460882Y775000D01*
X1457390Y792558D01*
X1447444Y807443D01*
X1432558Y817389D01*
X1415000Y820881D01*
X1412812Y820446D01*
X1403088Y830170D01*
Y915984D01*
X1415788Y921245D01*
X1477266Y859766D01*
X1488844Y852031D01*
X1502500Y849314D01*
X1592500D01*
X1606156Y852031D01*
X1617734Y859766D01*
X1680234Y922267D01*
X1687401Y932993D01*
X1687970Y933844D01*
X1689814Y943115D01*
X1690124Y944415D01*
X1690124Y944415D01*
X1703000Y941854D01*
X1807000D01*
X1819876Y944415D01*
X1830792Y951709D01*
X1838085Y962624D01*
X1840646Y975500D01*
Y1099500D01*
X1838085Y1112376D01*
X1830792Y1123292D01*
X1819876Y1130585D01*
X1807000Y1133146D01*
X1785588D01*
Y1201021D01*
X1794889Y1214941D01*
X1798382Y1232499D01*
X1794889Y1250057D01*
X1791404Y1255274D01*
X1799874Y1265457D01*
X1802390Y1264375D01*
D02*
G37*
G36*
X725120Y906660D02*
X728291Y897300D01*
X720111Y885058D01*
X716619Y867500D01*
X720111Y849942D01*
X730057Y835057D01*
X744942Y825111D01*
X762500Y821619D01*
X780058Y825111D01*
X794943Y835057D01*
X804889Y849942D01*
X806500Y858039D01*
X820280Y862219D01*
X830000Y852499D01*
X829999Y402499D01*
X785588Y358088D01*
X737500D01*
X725795Y355759D01*
X715871Y349129D01*
X711442Y342499D01*
X341626Y342500D01*
X311652Y367099D01*
X276907Y385670D01*
X239207Y397106D01*
X200000Y400968D01*
X160793Y397106D01*
X123093Y385670D01*
X88349Y367099D01*
X63678Y346852D01*
X50978Y352859D01*
Y724608D01*
X63424D01*
X65393Y725000D01*
X67403D01*
X69259Y725769D01*
X71228Y726160D01*
X72897Y727276D01*
X74754Y728045D01*
X76174Y729465D01*
X77844Y730581D01*
X78907Y732173D01*
X87899Y738181D01*
X88773Y738354D01*
X97500Y736619D01*
X106227Y738354D01*
X108435Y737915D01*
X108737Y737790D01*
X111380Y736377D01*
X112388Y736278D01*
X113322Y735891D01*
X116316D01*
X119298Y735597D01*
X120267Y735891D01*
X121279D01*
X124047Y737038D01*
X126912Y737907D01*
X139613Y744696D01*
X141928Y746596D01*
X144419Y748260D01*
X144981Y749102D01*
X145763Y749743D01*
X147175Y752386D01*
X148839Y754876D01*
X149037Y755868D01*
X149514Y756760D01*
X149808Y759743D01*
X150392Y762680D01*
Y814520D01*
X168000D01*
X177559Y816421D01*
X185664Y821836D01*
X191079Y829940D01*
X192980Y839500D01*
Y895500D01*
X192622Y897300D01*
X201889Y910000D01*
X233111D01*
X242378Y897300D01*
X242020Y895500D01*
Y839500D01*
X243921Y829940D01*
X246912Y825464D01*
Y779217D01*
X246912Y779216D01*
X246912Y779213D01*
Y767501D01*
X246912Y767500D01*
X247010Y767006D01*
Y732500D01*
X248951Y722746D01*
X254476Y714476D01*
X262746Y708951D01*
X272500Y707011D01*
X322500D01*
X332254Y708951D01*
X340524Y714476D01*
X346049Y722746D01*
X347990Y732500D01*
Y772500D01*
X346049Y782254D01*
X340524Y790524D01*
X332254Y796049D01*
X322500Y797990D01*
X316226D01*
X312222Y807367D01*
X322460Y815423D01*
X327000Y814520D01*
X348000D01*
X357559Y816421D01*
X365663Y821836D01*
X371079Y829940D01*
X372465Y836912D01*
X388199D01*
X392690Y830190D01*
X409808Y818752D01*
X430000Y814736D01*
X450192Y818752D01*
X467310Y830190D01*
X478747Y847308D01*
X482764Y867500D01*
X478747Y887692D01*
X472327Y897300D01*
X479116Y910000D01*
X722665D01*
X725120Y906660D01*
D02*
G37*
G36*
X63921Y1134941D02*
X69336Y1126836D01*
X77441Y1121421D01*
X87000Y1119520D01*
X108000D01*
X117559Y1121421D01*
X125663Y1126836D01*
X129337D01*
X137441Y1121421D01*
X147000Y1119520D01*
X168000D01*
X177559Y1121421D01*
X185663Y1126836D01*
X189337D01*
X197441Y1121421D01*
X207000Y1119520D01*
X228000D01*
X237559Y1121421D01*
X245663Y1126836D01*
X249337D01*
X257440Y1121421D01*
X267000Y1119520D01*
X288000D01*
X295139Y1120940D01*
X300602Y1111928D01*
X302258Y1110120D01*
X303621Y1108081D01*
X304920Y1107212D01*
X305975Y1106060D01*
X308197Y1105023D01*
X310236Y1103660D01*
X311768Y1103355D01*
X313185Y1102694D01*
X315636Y1102586D01*
X318040Y1102108D01*
X359054D01*
X379608Y1081553D01*
Y1075000D01*
Y1017500D01*
X381160Y1009696D01*
X385581Y1003081D01*
X385581Y1003080D01*
X400268Y988394D01*
D01*
X403081Y985581D01*
X409696Y981160D01*
X417500Y979608D01*
X702613D01*
X703605Y979806D01*
X704612Y979706D01*
X707480Y980576D01*
X710416Y981160D01*
X711257Y981722D01*
X712226Y982016D01*
X714542Y983917D01*
X717032Y985581D01*
X717594Y986422D01*
X718376Y987064D01*
X719788Y989705D01*
X721452Y992196D01*
X721650Y993189D01*
X722127Y994081D01*
X723824Y999678D01*
X728001Y998847D01*
X770001D01*
Y1115000D01*
X790001D01*
Y998847D01*
X832000D01*
X846983Y1001827D01*
X859685Y1010314D01*
X866207Y1020075D01*
X880317Y1023926D01*
X921912Y982330D01*
Y963063D01*
X916250D01*
X905032Y960832D01*
X895522Y954478D01*
X889168Y944968D01*
X886937Y933750D01*
Y881250D01*
X889168Y870033D01*
X895522Y860523D01*
X905032Y854168D01*
X916250Y851937D01*
X988750D01*
X999968Y854168D01*
X1009478Y860523D01*
X1015832Y870033D01*
X1018063Y881250D01*
Y933750D01*
X1015832Y944968D01*
X1009478Y954478D01*
X999968Y960832D01*
X988750Y963063D01*
X983088D01*
Y995000D01*
X980759Y1006706D01*
X974129Y1016629D01*
X974128Y1016629D01*
X944532Y1046226D01*
X949792Y1058926D01*
X962500D01*
Y1135000D01*
X982500D01*
Y1058926D01*
X1008500D01*
X1021922Y1061596D01*
X1033301Y1069199D01*
X1040904Y1080578D01*
X1043265Y1092447D01*
X1060000Y1089118D01*
X1077903D01*
X1079182Y1082685D01*
X1085592Y1073092D01*
X1095185Y1066682D01*
X1106500Y1064432D01*
X1142134D01*
X1145057Y1060057D01*
X1164350Y1040763D01*
X1164113Y1037752D01*
X1160147Y1028063D01*
X1106250D01*
X1095033Y1025832D01*
X1085523Y1019478D01*
X1079168Y1009968D01*
X1076937Y998750D01*
Y946250D01*
X1079168Y935033D01*
X1085523Y925523D01*
X1095033Y919168D01*
X1106250Y916937D01*
X1178750D01*
X1189968Y919168D01*
X1199478Y925523D01*
X1205832Y935033D01*
X1206811Y939952D01*
X1219511Y938701D01*
Y932500D01*
X1221451Y922746D01*
X1225904Y916081D01*
X1224073Y909326D01*
X1220721Y903381D01*
X1147500D01*
X1129942Y899889D01*
X1127210Y898063D01*
X1106250D01*
X1095033Y895832D01*
X1085523Y889478D01*
X1079168Y879968D01*
X1076937Y868750D01*
Y816250D01*
X1079168Y805032D01*
X1085523Y795522D01*
X1095033Y789168D01*
X1106250Y786937D01*
X1178750D01*
X1189968Y789168D01*
X1199478Y795522D01*
X1205832Y805032D01*
X1206419Y807982D01*
X1219119Y806731D01*
Y775000D01*
X1221946Y760788D01*
X1214750Y748087D01*
X1192500D01*
X1180795Y745759D01*
X1170871Y739129D01*
X1164241Y729205D01*
X1161912Y717500D01*
Y637500D01*
X1164241Y625795D01*
X1170871Y615871D01*
X1180795Y609241D01*
X1192500Y606912D01*
X1272500D01*
X1284205Y609241D01*
X1294129Y615871D01*
X1300759Y625795D01*
X1303088Y637500D01*
Y641618D01*
X1327500D01*
X1345058Y645111D01*
X1359271Y654608D01*
X1363441Y653731D01*
X1371201Y650791D01*
X1372018Y650268D01*
X1374067Y639965D01*
X1376243Y636707D01*
X1378983Y627500D01*
X1376243Y618292D01*
X1374067Y615035D01*
X1374036Y614881D01*
X1358500D01*
X1340942Y611389D01*
X1326057Y601443D01*
X1316111Y586558D01*
X1313167Y571756D01*
X1302162Y569494D01*
X1300553Y569514D01*
X1294129Y579129D01*
X1284205Y585759D01*
X1272500Y588087D01*
X1192500D01*
X1180795Y585759D01*
X1170871Y579129D01*
X1164241Y569205D01*
X1161912Y557500D01*
Y477500D01*
X1164241Y465795D01*
X1166753Y462035D01*
X1162021Y448161D01*
X1161951Y448101D01*
X1151429Y441070D01*
X1144357Y430486D01*
X1141873Y418000D01*
Y385055D01*
X1134290D01*
X1116732Y381563D01*
X1101847Y371617D01*
X1083298Y353068D01*
X1039000D01*
X1027685Y350817D01*
X1011349Y353850D01*
X1001095Y360701D01*
X989000Y363107D01*
X871000D01*
X858905Y360701D01*
X850447Y355050D01*
X839129Y349129D01*
X829717Y355417D01*
X829170Y355900D01*
X825737Y369398D01*
X844419Y388080D01*
X848839Y394696D01*
X850391Y402499D01*
X850392Y852498D01*
X850392Y852499D01*
X848840Y860303D01*
X844419Y866919D01*
X844418Y866919D01*
X834699Y876638D01*
X832208Y878303D01*
X829893Y880203D01*
X828925Y880497D01*
X828084Y881059D01*
X825146Y881643D01*
X822279Y882513D01*
X821272Y882414D01*
X820280Y882611D01*
X817342Y882026D01*
X814361Y881733D01*
X800581Y877553D01*
X797940Y876142D01*
X795171Y874994D01*
X794455Y874279D01*
X793563Y873802D01*
X791663Y871487D01*
X789545Y869368D01*
X789157Y868433D01*
X788516Y867652D01*
X787646Y864785D01*
X786500Y862018D01*
X785681Y857899D01*
X780242Y849759D01*
X772101Y844320D01*
X762500Y842410D01*
X752899Y844320D01*
X744759Y849759D01*
X739320Y857899D01*
X737410Y867500D01*
X739320Y877101D01*
X745246Y885971D01*
X745758Y887207D01*
X746574Y888269D01*
X747268Y890853D01*
X748291Y893322D01*
Y894660D01*
X748638Y895954D01*
X748291Y898605D01*
Y901278D01*
X747779Y902515D01*
X747605Y903842D01*
X744434Y913202D01*
X742874Y915908D01*
X741551Y918737D01*
X739096Y922077D01*
X737948Y923126D01*
X737084Y924420D01*
X735039Y925786D01*
X733224Y927446D01*
X731762Y927976D01*
X730469Y928840D01*
X728057Y929320D01*
X725744Y930158D01*
X724190Y930089D01*
X722665Y930392D01*
X479116D01*
X476177Y929808D01*
X473196Y929514D01*
X472305Y929037D01*
X471312Y928840D01*
X468820Y927175D01*
X466179Y925763D01*
X465538Y924982D01*
X464697Y924420D01*
X463500Y922629D01*
X459816Y918658D01*
X450192Y916247D01*
X430000Y920264D01*
X409808Y916247D01*
X392690Y904810D01*
X388199Y898088D01*
X372465D01*
X371079Y905059D01*
X365663Y913164D01*
X357559Y918579D01*
X348000Y920480D01*
X327000D01*
X317441Y918579D01*
X309337Y913164D01*
X305663D01*
X297559Y918579D01*
X288000Y920480D01*
X267000D01*
X257441Y918579D01*
X247530Y924419D01*
X245513Y925767D01*
X243730Y927409D01*
X242236Y927956D01*
X240915Y928840D01*
X242351Y940000D01*
X145000Y940000D01*
X130000Y925000D01*
Y762680D01*
X117300Y755891D01*
X115058Y757389D01*
X97500Y760882D01*
X79942Y757389D01*
X65057Y747443D01*
X63424Y745000D01*
X50978D01*
Y1065684D01*
Y1074999D01*
Y1134912D01*
X63678Y1136163D01*
X63921Y1134941D01*
D02*
G37*
G36*
X2449022Y941683D02*
Y352859D01*
X2436322Y346852D01*
X2411652Y367099D01*
X2376907Y385670D01*
X2342367Y396148D01*
X2344251Y408848D01*
X2389500D01*
X2404483Y411828D01*
X2417185Y420315D01*
X2425672Y433017D01*
X2428652Y448000D01*
Y490001D01*
X2327500D01*
Y500001D01*
X2317500D01*
Y591152D01*
X2293986D01*
X2287198Y603852D01*
X2287376Y604118D01*
X2287500D01*
X2288684Y604354D01*
X2389500D01*
X2402376Y606915D01*
X2413292Y614208D01*
X2420585Y625124D01*
X2423147Y638000D01*
Y742000D01*
X2420585Y754876D01*
X2413292Y765791D01*
X2402376Y773085D01*
X2389500Y775646D01*
X2337699D01*
X2333617Y787672D01*
X2334932Y788681D01*
X2357617Y811367D01*
X2357618Y811368D01*
X2374176Y832947D01*
X2385058Y835111D01*
X2399944Y845057D01*
X2409890Y859942D01*
X2413382Y877500D01*
X2409890Y895058D01*
X2399944Y909944D01*
X2389083Y917201D01*
Y920612D01*
X2389083Y920614D01*
X2388782Y922898D01*
Y935661D01*
X2392500Y938921D01*
X2425132Y943217D01*
X2438462Y948739D01*
X2449022Y941683D01*
D02*
G37*
G36*
X1637442Y645111D02*
X1655000Y641618D01*
X1672558Y645111D01*
X1682233Y651575D01*
X1686976Y644476D01*
X1692339Y640893D01*
X1690111Y637558D01*
X1686618Y620000D01*
X1688457Y610757D01*
X1687914Y608830D01*
X1678636Y598496D01*
X1675001D01*
Y540000D01*
Y481504D01*
X1685000D01*
X1696862Y483864D01*
X1705110Y489375D01*
X1705173Y489402D01*
X1717329Y483859D01*
X1719106Y474511D01*
X1718898Y474200D01*
X1716337Y461324D01*
Y357324D01*
X1718898Y344448D01*
X1726191Y333532D01*
X1737107Y326239D01*
X1749983Y323678D01*
X1873983D01*
X1886859Y326239D01*
X1897774Y333532D01*
X1905068Y344448D01*
X1907629Y357324D01*
Y374372D01*
X1908364Y375046D01*
X1920329Y379998D01*
X1925465Y376566D01*
X1936000Y374471D01*
X2007000D01*
X2017535Y376566D01*
X2020793Y378743D01*
X2030000Y381482D01*
X2039208Y378743D01*
X2042465Y376566D01*
X2042619Y376536D01*
Y354000D01*
X2046111Y336442D01*
X2056057Y321557D01*
X2070942Y311611D01*
X2088500Y308118D01*
X2106058Y311611D01*
X2120943Y321557D01*
X2130889Y336442D01*
X2134382Y354000D01*
Y376536D01*
X2134535Y376566D01*
X2143466Y382534D01*
X2149434Y391465D01*
X2151529Y402000D01*
Y429105D01*
X2157500Y434004D01*
X2175000D01*
Y485000D01*
X2195000D01*
Y434004D01*
X2212500D01*
X2216043Y434709D01*
X2227337Y433270D01*
X2233305Y427065D01*
X2237815Y420315D01*
X2250517Y411828D01*
X2260511Y409840D01*
X2260793Y397106D01*
X2223093Y385670D01*
X2188348Y367099D01*
X2157894Y342106D01*
X2132901Y311652D01*
X2114330Y276907D01*
X2102894Y239207D01*
X2099032Y200000D01*
X2102894Y160793D01*
X2114330Y123093D01*
X2132901Y88349D01*
X2153148Y63678D01*
X2147141Y50978D01*
X1662253D01*
X1656373Y63678D01*
X1659964Y69054D01*
X1662293Y80759D01*
Y160759D01*
X1659964Y172464D01*
X1653334Y182388D01*
X1643410Y189018D01*
X1631705Y191347D01*
X1551705D01*
X1540000Y189018D01*
X1530076Y182388D01*
X1529021Y180807D01*
X1513746D01*
X1513571Y181071D01*
X1502986Y188143D01*
X1490500Y190627D01*
X1174500D01*
X1162014Y188143D01*
X1151430Y181071D01*
X1134853Y179122D01*
X1132315Y180818D01*
X1121000Y183068D01*
X1039000D01*
X1038363Y182941D01*
X1023940Y192427D01*
X1023288Y195702D01*
X1015243Y207743D01*
X1013822Y208692D01*
X1014358Y221709D01*
X1027685Y224183D01*
X1039000Y221932D01*
X1121000D01*
X1132315Y224183D01*
X1141908Y230592D01*
X1148317Y240185D01*
X1150568Y251500D01*
Y286088D01*
X1160988Y291340D01*
X1162798Y291701D01*
X1174500Y289373D01*
X1490500D01*
X1502986Y291857D01*
X1508418Y295486D01*
X1521118Y289105D01*
Y240759D01*
X1523446Y229054D01*
X1530076Y219130D01*
X1540000Y212500D01*
X1551705Y210171D01*
X1631705D01*
X1643410Y212500D01*
X1653334Y219130D01*
X1659964Y229054D01*
X1662293Y240759D01*
Y320759D01*
X1659964Y332464D01*
X1653334Y342388D01*
X1643410Y349018D01*
X1637587Y350177D01*
Y425795D01*
X1634094Y443353D01*
X1624148Y458238D01*
X1567443Y514943D01*
X1557923Y521305D01*
X1561775Y534005D01*
X1565000D01*
X1576862Y536364D01*
X1586918Y543083D01*
X1593637Y553139D01*
X1595996Y565000D01*
Y574999D01*
X1537501D01*
Y594999D01*
X1595996D01*
Y605000D01*
X1593637Y616862D01*
X1588125Y625110D01*
X1583024Y636976D01*
X1588550Y645246D01*
X1589856Y651814D01*
X1627410D01*
X1637442Y645111D01*
D02*
G37*
G36*
X706912Y322108D02*
Y247500D01*
X709241Y235795D01*
X715871Y225871D01*
X725795Y219241D01*
X737500Y216912D01*
X743345D01*
X746100Y204212D01*
X741451Y197254D01*
X739510Y187500D01*
Y147500D01*
X741451Y137745D01*
X746976Y129476D01*
X741875Y117610D01*
X736364Y109361D01*
X734004Y97500D01*
Y87499D01*
X792500D01*
Y67499D01*
X734004D01*
Y57500D01*
X728652Y50978D01*
X645715D01*
X635292Y63679D01*
X636152Y68000D01*
Y110000D01*
X519999D01*
Y120000D01*
X509999D01*
Y211152D01*
X443000D01*
X428017Y208172D01*
X415315Y199685D01*
X414843Y198978D01*
X402100Y200087D01*
X400876Y200935D01*
X397106Y239207D01*
X385670Y276907D01*
X368298Y309408D01*
X372853Y322108D01*
X706912Y322108D01*
D02*
G37*
G36*
X2447500Y1810000D02*
X2295057D01*
Y2209855D01*
X2447500D01*
Y1810000D01*
D02*
G37*
G36*
X205000Y1895000D02*
X54221D01*
Y2218856D01*
X205000D01*
Y1895000D01*
D02*
G37*
%LPC*%
G36*
X1432501Y1205995D02*
X1422500D01*
X1410639Y1203636D01*
X1400583Y1196917D01*
X1393864Y1186861D01*
X1391505Y1174999D01*
Y1160000D01*
X1432501D01*
Y1205995D01*
D02*
G37*
G36*
X1935000Y1138652D02*
X1893000D01*
X1878017Y1135672D01*
X1865315Y1127185D01*
X1856828Y1114483D01*
X1853848Y1099500D01*
Y1047500D01*
X1935000D01*
Y1138652D01*
D02*
G37*
G36*
X2036152Y1027500D02*
X1955000D01*
Y936348D01*
X1997000D01*
X2011983Y939328D01*
X2024685Y947815D01*
X2033172Y960517D01*
X2036152Y975500D01*
Y1027500D01*
D02*
G37*
G36*
X1935000D02*
X1853848D01*
Y975500D01*
X1856828Y960517D01*
X1865315Y947815D01*
X1878017Y939328D01*
X1893000Y936348D01*
X1935000D01*
Y1027500D01*
D02*
G37*
G36*
X1905001Y863495D02*
X1887500D01*
Y822499D01*
X1935996D01*
Y832500D01*
X1933637Y844361D01*
X1926918Y854417D01*
X1916862Y861136D01*
X1905001Y863495D01*
D02*
G37*
G36*
X1867500D02*
X1850000D01*
X1838139Y861136D01*
X1828083Y854417D01*
X1821364Y844361D01*
X1819005Y832500D01*
Y822499D01*
X1867500D01*
Y863495D01*
D02*
G37*
G36*
X2007500Y838495D02*
X1990000D01*
X1978139Y836136D01*
X1968083Y829417D01*
X1961364Y819361D01*
X1959005Y807500D01*
Y797499D01*
X2007500D01*
Y838495D01*
D02*
G37*
G36*
X1760000Y823495D02*
X1742500D01*
Y782500D01*
X1790996D01*
Y792500D01*
X1788637Y804361D01*
X1781917Y814417D01*
X1771862Y821136D01*
X1760000Y823495D01*
D02*
G37*
G36*
X1722500D02*
X1705000D01*
X1693139Y821136D01*
X1683083Y814417D01*
X1676364Y804361D01*
X1674005Y792500D01*
Y782500D01*
X1722500D01*
Y823495D01*
D02*
G37*
G36*
X432500Y760881D02*
X414942Y757389D01*
X400057Y747443D01*
X390111Y732558D01*
X386618Y715000D01*
Y698146D01*
X380500D01*
X367624Y695585D01*
X356708Y688291D01*
X349415Y677376D01*
X346854Y664500D01*
Y510500D01*
X349415Y497624D01*
X356708Y486708D01*
X367624Y479415D01*
X380500Y476854D01*
X484500D01*
X497376Y479415D01*
X508292Y486708D01*
X515585Y497624D01*
X518146Y510500D01*
Y664500D01*
X515585Y677376D01*
X508292Y688291D01*
X497376Y695585D01*
X484500Y698146D01*
X478382D01*
Y715000D01*
X474889Y732558D01*
X464943Y747443D01*
X450058Y757389D01*
X432500Y760881D01*
D02*
G37*
G36*
X1082000Y753652D02*
X1040000D01*
Y647499D01*
X1121152D01*
Y714500D01*
X1118172Y729483D01*
X1109685Y742185D01*
X1096983Y750672D01*
X1082000Y753652D01*
D02*
G37*
G36*
X1020000D02*
X978000D01*
X963017Y750672D01*
X950315Y742185D01*
X941828Y729483D01*
X938848Y714500D01*
Y647499D01*
X1020000D01*
Y753652D01*
D02*
G37*
G36*
X1121152Y627499D02*
X1040000D01*
Y521348D01*
X1082000D01*
X1096983Y524328D01*
X1109685Y532815D01*
X1118172Y545517D01*
X1121152Y560500D01*
Y627499D01*
D02*
G37*
G36*
X1020000D02*
X938848D01*
Y560500D01*
X941828Y545517D01*
X950315Y532815D01*
X963017Y524328D01*
X978000Y521348D01*
X1020000D01*
Y627499D01*
D02*
G37*
G36*
X2389500Y591152D02*
X2337500D01*
Y510001D01*
X2428652D01*
Y552000D01*
X2425672Y566983D01*
X2417185Y579685D01*
X2404483Y588172D01*
X2389500Y591152D01*
D02*
G37*
G36*
X1655001Y598496D02*
X1645001D01*
X1633139Y596136D01*
X1623083Y589417D01*
X1616364Y579362D01*
X1614005Y567500D01*
Y550000D01*
X1655001D01*
Y598496D01*
D02*
G37*
G36*
Y530000D02*
X1614005D01*
Y512500D01*
X1616364Y500638D01*
X1623083Y490583D01*
X1633139Y483864D01*
X1645001Y481504D01*
X1655001D01*
Y530000D01*
D02*
G37*
G36*
X1873983Y310476D02*
X1821984D01*
Y229324D01*
X1913135D01*
Y271324D01*
X1910155Y286307D01*
X1901668Y299009D01*
X1888966Y307496D01*
X1873983Y310476D01*
D02*
G37*
G36*
X1801984D02*
X1749983D01*
X1735000Y307496D01*
X1722298Y299009D01*
X1713811Y286307D01*
X1710831Y271324D01*
Y229324D01*
X1801984D01*
Y310476D01*
D02*
G37*
G36*
X1913135Y209324D02*
X1821984D01*
Y128172D01*
X1873983D01*
X1888966Y131152D01*
X1901668Y139639D01*
X1910155Y152341D01*
X1913135Y167324D01*
Y209324D01*
D02*
G37*
G36*
X1801984D02*
X1710831D01*
Y167324D01*
X1713811Y152341D01*
X1722298Y139639D01*
X1735000Y131152D01*
X1749983Y128172D01*
X1801984D01*
Y209324D01*
D02*
G37*
G36*
X597000Y211152D02*
X529999D01*
Y130000D01*
X636152D01*
Y172000D01*
X633172Y186983D01*
X624685Y199685D01*
X611983Y208172D01*
X597000Y211152D01*
D02*
G37*
G36*
X2375092Y2199855D02*
X2369128D01*
X2365938Y2199717D01*
X2363026Y2199439D01*
X2360114Y2199162D01*
X2357479Y2198885D01*
X2354982Y2198469D01*
X2352625Y2198053D01*
X2350544Y2197775D01*
X2348742Y2197359D01*
X2347077Y2196943D01*
X2345552Y2196527D01*
X2344442Y2196250D01*
X2343472Y2195972D01*
X2342778Y2195695D01*
X2342362Y2195556D01*
X2342223D01*
X2337786Y2193892D01*
X2333764Y2191950D01*
X2330158Y2189870D01*
X2328632Y2188899D01*
X2327246Y2187929D01*
X2325859Y2186958D01*
X2324749Y2186126D01*
X2323778Y2185294D01*
X2322946Y2184739D01*
X2322253Y2184184D01*
X2321837Y2183768D01*
X2321559Y2183491D01*
X2321421Y2183352D01*
X2318508Y2180162D01*
X2316012Y2176973D01*
X2313932Y2173783D01*
X2312406Y2170732D01*
X2311158Y2168097D01*
X2310603Y2166987D01*
X2310326Y2166016D01*
X2310049Y2165184D01*
X2309771Y2164630D01*
X2309633Y2164214D01*
Y2164075D01*
X2309217Y2162411D01*
X2308801Y2160608D01*
X2308246Y2156725D01*
X2307691Y2152703D01*
X2307414Y2148820D01*
X2307275Y2147017D01*
Y2143827D01*
X2307136Y2142440D01*
Y2199855D01*
D01*
Y2092653D01*
X2435142D01*
Y2143827D01*
X2435003Y2146323D01*
X2434864Y2148681D01*
X2434726Y2150761D01*
X2434587Y2152842D01*
X2434310Y2154783D01*
X2434032Y2156447D01*
X2433755Y2157973D01*
X2433616Y2159360D01*
X2433339Y2160608D01*
X2433061Y2161717D01*
X2432923Y2162549D01*
X2432784Y2163243D01*
X2432645Y2163659D01*
X2432507Y2163936D01*
Y2164075D01*
X2430981Y2168097D01*
X2429317Y2171703D01*
X2427653Y2174754D01*
X2425989Y2177389D01*
X2425295Y2178498D01*
X2424602Y2179469D01*
X2423908Y2180162D01*
X2423354Y2180856D01*
X2422937Y2181410D01*
X2422521Y2181826D01*
X2422383Y2181965D01*
X2422244Y2182104D01*
X2418777Y2185294D01*
X2415033Y2188067D01*
X2411288Y2190425D01*
X2407682Y2192366D01*
X2406018Y2193199D01*
X2404493Y2193892D01*
X2403106Y2194447D01*
X2401996Y2195001D01*
X2401025Y2195279D01*
X2400193Y2195556D01*
X2399777Y2195834D01*
X2399639D01*
X2395201Y2197220D01*
X2390624Y2198191D01*
X2386048Y2198885D01*
X2381748Y2199301D01*
X2379807Y2199578D01*
X2378004Y2199717D01*
X2376478D01*
X2375092Y2199855D01*
D02*
G37*
G36*
X2435142Y2065332D02*
X2307136D01*
Y1963815D01*
X2435142D01*
Y1987669D01*
X2351099D01*
X2435142Y2039537D01*
Y2065332D01*
D02*
G37*
G36*
X2417806Y1939684D02*
X2366632D01*
Y1884072D01*
X2388266D01*
Y1913612D01*
X2404631D01*
X2406295Y1911254D01*
X2407682Y1908896D01*
X2408930Y1906539D01*
X2410040Y1904320D01*
X2411011Y1902378D01*
X2411704Y1900853D01*
X2411981Y1900298D01*
X2412120Y1899882D01*
X2412259Y1899605D01*
Y1899466D01*
X2413368Y1896415D01*
X2414062Y1893502D01*
X2414616Y1890867D01*
X2415033Y1888371D01*
X2415310Y1886291D01*
Y1885320D01*
X2415449Y1884627D01*
Y1883240D01*
X2415310Y1880189D01*
X2414894Y1877415D01*
X2414339Y1874780D01*
X2413646Y1872145D01*
X2412814Y1869787D01*
X2411843Y1867707D01*
X2410872Y1865627D01*
X2409763Y1863824D01*
X2408653Y1862299D01*
X2407682Y1860773D01*
X2406711Y1859664D01*
X2405879Y1858554D01*
X2405186Y1857861D01*
X2404493Y1857167D01*
X2404215Y1856890D01*
X2404076Y1856751D01*
X2401858Y1854948D01*
X2399361Y1853423D01*
X2396726Y1852036D01*
X2393953Y1850926D01*
X2391040Y1849956D01*
X2388266Y1849124D01*
X2385354Y1848430D01*
X2382719Y1847875D01*
X2380084Y1847459D01*
X2377588Y1847182D01*
X2375508Y1846905D01*
X2373566Y1846766D01*
X2372040D01*
X2370792Y1846627D01*
X2370099D01*
X2369822D01*
X2365938Y1846766D01*
X2362333Y1847043D01*
X2359004Y1847598D01*
X2355953Y1848153D01*
X2353041Y1848985D01*
X2350406Y1849817D01*
X2348048Y1850649D01*
X2345968Y1851620D01*
X2344026Y1852591D01*
X2342501Y1853423D01*
X2341114Y1854255D01*
X2340004Y1855087D01*
X2339034Y1855642D01*
X2338479Y1856196D01*
X2338063Y1856474D01*
X2337924Y1856612D01*
X2335983Y1858554D01*
X2334318Y1860634D01*
X2332932Y1862853D01*
X2331683Y1865072D01*
X2330574Y1867291D01*
X2329742Y1869510D01*
X2329048Y1871729D01*
X2328494Y1873809D01*
X2328078Y1875751D01*
X2327662Y1877692D01*
X2327384Y1879357D01*
X2327246Y1880744D01*
X2327107Y1881853D01*
Y1883517D01*
X2327384Y1887539D01*
X2327939Y1891145D01*
X2328910Y1894335D01*
X2329881Y1896970D01*
X2330435Y1898079D01*
X2330851Y1899188D01*
X2331406Y1900021D01*
X2331822Y1900714D01*
X2332099Y1901407D01*
X2332377Y1901823D01*
X2332654Y1901962D01*
Y1902101D01*
X2334873Y1904736D01*
X2337231Y1906816D01*
X2339727Y1908619D01*
X2342085Y1910006D01*
X2344165Y1911115D01*
X2345136Y1911531D01*
X2345968Y1911809D01*
X2346523Y1912086D01*
X2347077Y1912225D01*
X2347355Y1912363D01*
X2347493D01*
X2342639Y1938020D01*
X2339450Y1937188D01*
X2336399Y1936217D01*
X2333486Y1934969D01*
X2330851Y1933721D01*
X2328494Y1932334D01*
X2326136Y1930808D01*
X2324056Y1929422D01*
X2322253Y1927896D01*
X2320589Y1926509D01*
X2319063Y1925122D01*
X2317954Y1923874D01*
X2316844Y1922903D01*
X2316012Y1921933D01*
X2315457Y1921239D01*
X2315180Y1920823D01*
X2315041Y1920684D01*
X2313238Y1918050D01*
X2311713Y1915276D01*
X2310465Y1912363D01*
X2309217Y1909312D01*
X2308246Y1906123D01*
X2307552Y1903072D01*
X2306859Y1900021D01*
X2306304Y1897108D01*
X2305888Y1894335D01*
X2305611Y1891838D01*
X2305333Y1889481D01*
X2305195Y1887400D01*
X2305056Y1885875D01*
Y1939684D01*
D01*
Y1820000D01*
D01*
Y1880189D01*
X2305333Y1876999D01*
X2305611Y1873948D01*
X2306027Y1871036D01*
X2306582Y1868262D01*
X2307136Y1865766D01*
X2307691Y1863408D01*
X2308246Y1861328D01*
X2308801Y1859386D01*
X2309355Y1857722D01*
X2309910Y1856335D01*
X2310465Y1855087D01*
X2310881Y1854116D01*
X2311158Y1853423D01*
X2311297Y1853007D01*
X2311436Y1852868D01*
X2313100Y1849956D01*
X2314903Y1847182D01*
X2316706Y1844547D01*
X2318647Y1842189D01*
X2320727Y1839970D01*
X2322669Y1838029D01*
X2324611Y1836087D01*
X2326552Y1834562D01*
X2328355Y1833036D01*
X2330019Y1831788D01*
X2331545Y1830817D01*
X2332793Y1829846D01*
X2333902Y1829153D01*
X2334734Y1828737D01*
X2335289Y1828460D01*
X2335428Y1828321D01*
X2338340Y1826795D01*
X2341391Y1825547D01*
X2344442Y1824438D01*
X2347493Y1823467D01*
X2350544Y1822774D01*
X2353457Y1822080D01*
X2356369Y1821525D01*
X2359004Y1821109D01*
X2361500Y1820693D01*
X2363719Y1820416D01*
X2365800Y1820277D01*
X2367603Y1820139D01*
X2368989Y1820000D01*
X2305056D01*
X2437499D01*
X2370931D01*
X2374398Y1820139D01*
X2377727Y1820277D01*
X2380916Y1820693D01*
X2384106Y1821109D01*
X2387018Y1821803D01*
X2389792Y1822358D01*
X2392427Y1823051D01*
X2394923Y1823744D01*
X2397142Y1824438D01*
X2399084Y1825131D01*
X2400887Y1825825D01*
X2402274Y1826379D01*
X2403522Y1826795D01*
X2404354Y1827211D01*
X2404909Y1827350D01*
X2405047Y1827489D01*
X2407960Y1829014D01*
X2410595Y1830540D01*
X2413091Y1832343D01*
X2415449Y1834146D01*
X2417529Y1835949D01*
X2419609Y1837890D01*
X2421412Y1839693D01*
X2422937Y1841496D01*
X2424463Y1843160D01*
X2425711Y1844686D01*
X2426682Y1846211D01*
X2427653Y1847321D01*
X2428346Y1848430D01*
X2428762Y1849124D01*
X2429040Y1849678D01*
X2429178Y1849817D01*
X2430704Y1852729D01*
X2431952Y1855642D01*
X2433061Y1858554D01*
X2434032Y1861605D01*
X2434726Y1864656D01*
X2435419Y1867569D01*
X2435974Y1870342D01*
X2436390Y1872977D01*
X2436806Y1875474D01*
X2437083Y1877692D01*
X2437222Y1879773D01*
X2437361Y1881576D01*
X2437499Y1882962D01*
Y1884904D01*
X2437361Y1887816D01*
X2437222Y1890729D01*
X2436529Y1896415D01*
X2436112Y1899188D01*
X2435558Y1901685D01*
X2435003Y1904181D01*
X2434448Y1906400D01*
X2433894Y1908480D01*
X2433477Y1910422D01*
X2432923Y1912086D01*
X2432507Y1913473D01*
X2432091Y1914582D01*
X2431813Y1915415D01*
X2431536Y1915969D01*
Y1916108D01*
X2430426Y1918882D01*
X2429178Y1921517D01*
X2428069Y1924013D01*
X2426821Y1926232D01*
X2425711Y1928451D01*
X2424602Y1930392D01*
X2423492Y1932057D01*
X2422383Y1933721D01*
X2421412Y1935108D01*
X2420580Y1936356D01*
X2419748Y1937327D01*
X2419054Y1938159D01*
X2418500Y1938852D01*
X2418084Y1939268D01*
X2417945Y1939546D01*
X2417806Y1939684D01*
D02*
G37*
%LPD*%
G36*
X2376478Y2173089D02*
X2378836Y2172951D01*
X2381194Y2172812D01*
X2383274Y2172673D01*
X2385077Y2172396D01*
X2386880Y2172119D01*
X2388544Y2171980D01*
X2389931Y2171703D01*
X2391179Y2171425D01*
X2392150Y2171148D01*
X2393120Y2171009D01*
X2393814Y2170870D01*
X2394230Y2170732D01*
X2394507Y2170593D01*
X2394646D01*
X2397697Y2169484D01*
X2400193Y2168374D01*
X2402274Y2167265D01*
X2404076Y2166155D01*
X2405325Y2165323D01*
X2406295Y2164491D01*
X2406850Y2163936D01*
X2406989Y2163798D01*
X2408237Y2162133D01*
X2409346Y2160469D01*
X2410317Y2158666D01*
X2411149Y2157002D01*
X2411704Y2155615D01*
X2412120Y2154506D01*
X2412259Y2153674D01*
X2412398Y2153535D01*
Y2153396D01*
X2412536Y2152425D01*
X2412814Y2151316D01*
X2413091Y2148958D01*
X2413230Y2146323D01*
X2413368Y2143688D01*
X2413507Y2141469D01*
Y2118448D01*
X2328771D01*
Y2135367D01*
X2328910Y2137725D01*
Y2139944D01*
X2329048Y2141885D01*
X2329187Y2143688D01*
X2329326Y2145214D01*
Y2146462D01*
X2329464Y2147710D01*
X2329603Y2148681D01*
X2329742Y2149513D01*
X2329881Y2150068D01*
Y2150623D01*
X2330019Y2150900D01*
Y2151177D01*
X2330713Y2153812D01*
X2331683Y2156170D01*
X2332654Y2158250D01*
X2333625Y2159914D01*
X2334596Y2161301D01*
X2335428Y2162411D01*
X2335983Y2162965D01*
X2336121Y2163243D01*
X2337924Y2164907D01*
X2339866Y2166433D01*
X2341946Y2167681D01*
X2343888Y2168651D01*
X2345691Y2169484D01*
X2347216Y2170177D01*
X2347632Y2170316D01*
X2348048Y2170454D01*
X2348326Y2170593D01*
X2348464D01*
X2349990Y2171009D01*
X2351654Y2171425D01*
X2355398Y2172119D01*
X2359143Y2172535D01*
X2362749Y2172951D01*
X2364552D01*
X2366077Y2173089D01*
X2367464D01*
X2368712Y2173228D01*
X2369822D01*
X2370515D01*
X2371070D01*
X2371208D01*
X2373843D01*
X2376478Y2173089D01*
D02*
G37*
G36*
X2307136Y1988778D02*
Y2041478D01*
X2393120D01*
X2307136Y1988778D01*
D02*
G37*
%LPC*%
G36*
X195000Y2208856D02*
X64221D01*
X154504D01*
X152424Y2208717D01*
X150344Y2208579D01*
X146461Y2207885D01*
X143132Y2206776D01*
X140220Y2205528D01*
X138972Y2204973D01*
X137862Y2204280D01*
X136892Y2203725D01*
X136059Y2203309D01*
X135505Y2202754D01*
X135089Y2202477D01*
X134811Y2202338D01*
X134673Y2202199D01*
X133147Y2200951D01*
X131760Y2199564D01*
X129541Y2196791D01*
X127600Y2193878D01*
X126213Y2190966D01*
X125242Y2188608D01*
X124826Y2187499D01*
X124549Y2186528D01*
X124271Y2185835D01*
X124133Y2185280D01*
X123994Y2184864D01*
Y2184725D01*
X122052Y2187915D01*
X119972Y2190827D01*
X117753Y2193324D01*
X115534Y2195404D01*
X113315Y2197207D01*
X111096Y2198732D01*
X108877Y2199842D01*
X106797Y2200812D01*
X104856Y2201645D01*
X102914Y2202199D01*
X101250Y2202615D01*
X99863Y2202893D01*
X98753Y2203031D01*
X97783Y2203170D01*
X97228D01*
X97089D01*
X94870Y2203031D01*
X92790Y2202754D01*
X90710Y2202338D01*
X88768Y2201783D01*
X85162Y2200258D01*
X82111Y2198594D01*
X80725Y2197761D01*
X79476Y2196929D01*
X78367Y2196097D01*
X77535Y2195404D01*
X76841Y2194849D01*
X76287Y2194433D01*
X76009Y2194156D01*
X75871Y2194017D01*
X73790Y2191937D01*
X71987Y2189718D01*
X70462Y2187360D01*
X69075Y2184864D01*
X67966Y2182506D01*
X66995Y2180149D01*
X66301Y2177791D01*
X65608Y2175433D01*
X65192Y2173353D01*
X64776Y2171411D01*
X64637Y2169609D01*
X64360Y2168083D01*
Y2166835D01*
X64221Y2165864D01*
Y2165032D01*
X64360Y2161149D01*
X64776Y2157543D01*
X65469Y2154215D01*
X66163Y2151441D01*
X66579Y2150193D01*
X66995Y2149083D01*
X67272Y2148113D01*
X67550Y2147280D01*
X67827Y2146587D01*
X68104Y2146171D01*
X68243Y2145894D01*
Y2145755D01*
X69907Y2142704D01*
X71710Y2140069D01*
X73513Y2137850D01*
X75316Y2136047D01*
X76841Y2134522D01*
X78228Y2133412D01*
X79060Y2132857D01*
X79199Y2132580D01*
X79338D01*
X82111Y2130916D01*
X85162Y2129529D01*
X88213Y2128281D01*
X91264Y2127310D01*
X93899Y2126478D01*
X95009Y2126200D01*
X95980Y2125923D01*
X96812Y2125784D01*
X97367Y2125646D01*
X97783Y2125507D01*
X97921D01*
X101666Y2148113D01*
X98753Y2148667D01*
X96118Y2149361D01*
X94038Y2150193D01*
X92235Y2151164D01*
X90848Y2152134D01*
X89878Y2152828D01*
X89184Y2153383D01*
X89046Y2153521D01*
X87520Y2155324D01*
X86411Y2157127D01*
X85717Y2158930D01*
X85162Y2160594D01*
X84885Y2162120D01*
X84608Y2163229D01*
Y2164339D01*
X84746Y2166696D01*
X85162Y2168776D01*
X85856Y2170441D01*
X86549Y2171966D01*
X87243Y2173214D01*
X87936Y2174046D01*
X88352Y2174601D01*
X88491Y2174740D01*
X90016Y2175988D01*
X91681Y2176959D01*
X93483Y2177652D01*
X95009Y2178207D01*
X96534Y2178484D01*
X97644Y2178623D01*
X98476D01*
X98615D01*
X98753D01*
X101527Y2178346D01*
X103885Y2177791D01*
X105965Y2176959D01*
X107768Y2175988D01*
X109155Y2174879D01*
X110126Y2174046D01*
X110680Y2173492D01*
X110958Y2173214D01*
X112344Y2170995D01*
X113454Y2168638D01*
X114286Y2166141D01*
X114702Y2163645D01*
X114979Y2161426D01*
Y2160455D01*
X115118Y2159623D01*
Y2157959D01*
X135089Y2155324D01*
X134395Y2157682D01*
X133979Y2159901D01*
X133563Y2161704D01*
X133424Y2163368D01*
X133286Y2164755D01*
X133147Y2165725D01*
Y2166558D01*
X133424Y2169193D01*
X133979Y2171550D01*
X134950Y2173630D01*
X135921Y2175433D01*
X136892Y2176820D01*
X137862Y2177930D01*
X138417Y2178484D01*
X138694Y2178762D01*
X140913Y2180426D01*
X143271Y2181674D01*
X145767Y2182506D01*
X148125Y2183200D01*
X150205Y2183477D01*
X151037Y2183616D01*
X151869D01*
X152563Y2183754D01*
X152979D01*
X153256D01*
X153395D01*
X156862Y2183477D01*
X159913Y2182922D01*
X162548Y2182090D01*
X164767Y2181119D01*
X166570Y2180149D01*
X167818Y2179316D01*
X168650Y2178762D01*
X168928Y2178484D01*
X170869Y2176404D01*
X172256Y2174185D01*
X173227Y2172105D01*
X173920Y2170025D01*
X174336Y2168222D01*
X174475Y2166835D01*
X174614Y2166280D01*
Y2165587D01*
X174475Y2163090D01*
X173920Y2160733D01*
X173088Y2158653D01*
X172256Y2156850D01*
X171424Y2155463D01*
X170592Y2154353D01*
X170037Y2153799D01*
X169898Y2153521D01*
X167957Y2151857D01*
X165599Y2150470D01*
X163380Y2149361D01*
X161023Y2148667D01*
X159081Y2147974D01*
X157417Y2147696D01*
X156723Y2147558D01*
X156307Y2147419D01*
X156030D01*
X155891D01*
X158804Y2123704D01*
X161716Y2124120D01*
X164628Y2124814D01*
X167263Y2125646D01*
X169760Y2126478D01*
X172117Y2127587D01*
X174198Y2128697D01*
X176139Y2129806D01*
X177942Y2130916D01*
X179606Y2132164D01*
X180993Y2133135D01*
X182241Y2134244D01*
X183212Y2135076D01*
X184044Y2135770D01*
X184599Y2136324D01*
X184876Y2136740D01*
X185015Y2136879D01*
X186818Y2139098D01*
X188343Y2141456D01*
X189591Y2143813D01*
X190840Y2146310D01*
X191810Y2148667D01*
X192504Y2151025D01*
X193197Y2153383D01*
X193752Y2155601D01*
X194168Y2157682D01*
X194445Y2159623D01*
X194723Y2161426D01*
X194861Y2162813D01*
Y2164061D01*
X195000Y2164893D01*
Y2165725D01*
X194861Y2169054D01*
X194445Y2172382D01*
X193891Y2175433D01*
X193197Y2178346D01*
X192226Y2180981D01*
X191256Y2183616D01*
X190146Y2185973D01*
X189037Y2188054D01*
X188066Y2189995D01*
X186956Y2191659D01*
X185986Y2193046D01*
X185015Y2194294D01*
X184321Y2195265D01*
X183767Y2195959D01*
X183351Y2196375D01*
X183212Y2196513D01*
X180854Y2198732D01*
X178497Y2200535D01*
X176139Y2202199D01*
X173643Y2203586D01*
X171285Y2204834D01*
X168928Y2205805D01*
X166570Y2206637D01*
X164351Y2207331D01*
X162271Y2207885D01*
X160468Y2208163D01*
X158804Y2208440D01*
X157278Y2208717D01*
X156169D01*
X155198Y2208856D01*
X195000D01*
D02*
G37*
G36*
X192642Y2116909D02*
Y2071143D01*
X64637Y2116909D01*
Y1997779D01*
X192642Y2043406D01*
Y2116909D01*
D02*
G37*
G36*
X195000Y1990151D02*
X64221D01*
Y1904999D01*
D01*
Y1946327D01*
X64360Y1942444D01*
X64776Y1938838D01*
X65469Y1935510D01*
X66163Y1932736D01*
X66579Y1931488D01*
X66995Y1930379D01*
X67272Y1929408D01*
X67550Y1928576D01*
X67827Y1927882D01*
X68104Y1927466D01*
X68243Y1927189D01*
Y1927050D01*
X69907Y1923999D01*
X71710Y1921364D01*
X73513Y1919145D01*
X75316Y1917342D01*
X76841Y1915817D01*
X78228Y1914707D01*
X79060Y1914153D01*
X79199Y1913875D01*
X79338D01*
X82111Y1912211D01*
X85162Y1910824D01*
X88213Y1909576D01*
X91264Y1908605D01*
X93899Y1907773D01*
X95009Y1907496D01*
X95980Y1907218D01*
X96812Y1907080D01*
X97367Y1906941D01*
X97783Y1906802D01*
X97921D01*
X101666Y1929408D01*
X98753Y1929963D01*
X96118Y1930656D01*
X94038Y1931488D01*
X92235Y1932459D01*
X90848Y1933430D01*
X89878Y1934123D01*
X89184Y1934678D01*
X89046Y1934817D01*
X87520Y1936619D01*
X86411Y1938422D01*
X85717Y1940225D01*
X85162Y1941889D01*
X84885Y1943415D01*
X84608Y1944524D01*
Y1945634D01*
X84746Y1947992D01*
X85162Y1950072D01*
X85856Y1951736D01*
X86549Y1953262D01*
X87243Y1954510D01*
X87936Y1955342D01*
X88352Y1955897D01*
X88491Y1956035D01*
X90016Y1957283D01*
X91681Y1958254D01*
X93483Y1958948D01*
X95009Y1959502D01*
X96534Y1959780D01*
X97644Y1959918D01*
X98476D01*
X98615D01*
X98753D01*
X101527Y1959641D01*
X103885Y1959086D01*
X105965Y1958254D01*
X107768Y1957283D01*
X109155Y1956174D01*
X110126Y1955342D01*
X110680Y1954787D01*
X110958Y1954510D01*
X112344Y1952291D01*
X113454Y1949933D01*
X114286Y1947437D01*
X114702Y1944940D01*
X114979Y1942722D01*
Y1941751D01*
X115118Y1940919D01*
Y1939254D01*
X135089Y1936619D01*
X134395Y1938977D01*
X133979Y1941196D01*
X133563Y1942999D01*
X133424Y1944663D01*
X133286Y1946050D01*
X133147Y1947021D01*
Y1947853D01*
X133424Y1950488D01*
X133979Y1952845D01*
X134950Y1954926D01*
X135921Y1956729D01*
X136892Y1958115D01*
X137862Y1959225D01*
X138417Y1959780D01*
X138694Y1960057D01*
X140913Y1961721D01*
X143271Y1962969D01*
X145767Y1963802D01*
X148125Y1964495D01*
X150205Y1964772D01*
X151037Y1964911D01*
X151869D01*
X152563Y1965050D01*
X152979D01*
X153256D01*
X153395D01*
X156862Y1964772D01*
X159913Y1964218D01*
X162548Y1963385D01*
X164767Y1962415D01*
X166570Y1961444D01*
X167818Y1960612D01*
X168650Y1960057D01*
X168928Y1959780D01*
X170869Y1957699D01*
X172256Y1955480D01*
X173227Y1953400D01*
X173920Y1951320D01*
X174336Y1949517D01*
X174475Y1948130D01*
X174614Y1947575D01*
Y1946882D01*
X174475Y1944386D01*
X173920Y1942028D01*
X173088Y1939948D01*
X172256Y1938145D01*
X171424Y1936758D01*
X170592Y1935649D01*
X170037Y1935094D01*
X169898Y1934817D01*
X167957Y1933152D01*
X165599Y1931766D01*
X163380Y1930656D01*
X161023Y1929963D01*
X159081Y1929269D01*
X157417Y1928992D01*
X156723Y1928853D01*
X156307Y1928714D01*
X156030D01*
X155891D01*
X158804Y1904999D01*
X161716Y1905416D01*
X164628Y1906109D01*
X167263Y1906941D01*
X169760Y1907773D01*
X172117Y1908883D01*
X174198Y1909992D01*
X176139Y1911102D01*
X177942Y1912211D01*
X179606Y1913459D01*
X180993Y1914430D01*
X182241Y1915539D01*
X183212Y1916372D01*
X184044Y1917065D01*
X184599Y1917620D01*
X184876Y1918036D01*
X185015Y1918174D01*
X186818Y1920393D01*
X188343Y1922751D01*
X189591Y1925109D01*
X190840Y1927605D01*
X191810Y1929963D01*
X192504Y1932320D01*
X193197Y1934678D01*
X193752Y1936897D01*
X194168Y1938977D01*
X194445Y1940919D01*
X194723Y1942722D01*
X194861Y1944108D01*
Y1945357D01*
X195000Y1946189D01*
Y1947021D01*
X194861Y1950349D01*
X194445Y1953678D01*
X193891Y1956729D01*
X193197Y1959641D01*
X192226Y1962276D01*
X191256Y1964911D01*
X190146Y1967269D01*
X189037Y1969349D01*
X188066Y1971290D01*
X186956Y1972955D01*
X185986Y1974341D01*
X185015Y1975590D01*
X184321Y1976560D01*
X183767Y1977254D01*
X183351Y1977670D01*
X183212Y1977809D01*
X180854Y1980028D01*
X178497Y1981830D01*
X176139Y1983495D01*
X173643Y1984881D01*
X171285Y1986130D01*
X168928Y1987100D01*
X166570Y1987933D01*
X164351Y1988626D01*
X162271Y1989181D01*
X160468Y1989458D01*
X158804Y1989735D01*
X157278Y1990013D01*
X156169D01*
X155198Y1990151D01*
X195000D01*
D02*
G37*
%LPD*%
G36*
X159358Y2058107D02*
X64637Y2025655D01*
Y2089449D01*
X159358Y2058107D01*
D02*
G37*
G36*
X152424Y1990013D02*
X150344Y1989874D01*
X146461Y1989181D01*
X143132Y1988071D01*
X140220Y1986823D01*
X138972Y1986268D01*
X137862Y1985575D01*
X136892Y1985020D01*
X136059Y1984604D01*
X135505Y1984049D01*
X135089Y1983772D01*
X134811Y1983633D01*
X134673Y1983495D01*
X133147Y1982246D01*
X131760Y1980860D01*
X129541Y1978086D01*
X127600Y1975174D01*
X126213Y1972261D01*
X125242Y1969904D01*
X124826Y1968794D01*
X124549Y1967823D01*
X124271Y1967130D01*
X124133Y1966575D01*
X123994Y1966159D01*
Y1966020D01*
X122052Y1969210D01*
X119972Y1972123D01*
X117753Y1974619D01*
X115534Y1976699D01*
X113315Y1978502D01*
X111096Y1980028D01*
X108877Y1981137D01*
X106797Y1982108D01*
X104856Y1982940D01*
X102914Y1983495D01*
X101250Y1983911D01*
X99863Y1984188D01*
X98753Y1984327D01*
X97783Y1984465D01*
X97228D01*
X97089D01*
X94870Y1984327D01*
X92790Y1984049D01*
X90710Y1983633D01*
X88768Y1983079D01*
X85162Y1981553D01*
X82111Y1979889D01*
X80725Y1979057D01*
X79476Y1978225D01*
X78367Y1977393D01*
X77535Y1976699D01*
X76841Y1976144D01*
X76287Y1975728D01*
X76009Y1975451D01*
X75871Y1975312D01*
X73790Y1973232D01*
X71987Y1971013D01*
X70462Y1968655D01*
X69075Y1966159D01*
X67966Y1963802D01*
X66995Y1961444D01*
X66301Y1959086D01*
X65608Y1956729D01*
X65192Y1954648D01*
X64776Y1952707D01*
X64637Y1950904D01*
X64360Y1949378D01*
Y1948130D01*
X64221Y1947159D01*
Y1990151D01*
X154504D01*
X152424Y1990013D01*
D02*
G37*
D10*
X1819057Y1615943D02*
G03*
X1818979Y1616021I-9130J-9052D01*
G01*
X1898290Y1536711D02*
G03*
X1898264Y1536735I-9047J-9136D01*
G01*
X1898290Y1536711D02*
G03*
X1928793Y1536710I15252J15163D01*
G01*
X1928818Y1536735D02*
G03*
X1928793Y1536710I9022J-9160D01*
G01*
X2062992Y1670910D02*
G03*
X2062961Y1670879I9130J-9053D01*
G01*
X2125562Y1674714D02*
G03*
X2062992Y1670910I-29141J-37156D01*
G01*
X2129772Y1604129D02*
G03*
X2133577Y1666699I-33352J33428D01*
G01*
X2129741Y1604099D02*
G03*
X2129772Y1604129I-9022J9161D01*
G01*
X1995573Y1469930D02*
G03*
X1995598Y1469955I-9136J9047D01*
G01*
X1995573Y1469930D02*
G03*
X1995573Y1439427I15163J-15252D01*
G01*
X1995598Y1439402D02*
G03*
X1995573Y1439427I-9161J-9022D01*
G01*
X2044167Y1390833D02*
G03*
X2044088Y1390911I-9130J-9052D01*
G01*
X1800796Y1597839D02*
G03*
X1800874Y1597761I9130J9052D01*
G01*
X1880082Y1518553D02*
G03*
X1880083Y1518551I9160J9022D01*
G01*
D02*
G03*
X1946999Y1518551I33458J33322D01*
G01*
D02*
G03*
X1947000Y1518553I-9159J9023D01*
G01*
X2081144Y1652696D02*
G03*
X2081155Y1652707I-9022J9161D01*
G01*
X2081179Y1652732D02*
G03*
X2081155Y1652707I15241J-15174D01*
G01*
X2111570Y1652824D02*
G03*
X2081213Y1652766I-15149J-15266D01*
G01*
X2111628D02*
G03*
X2111570Y1652824I-15207J-15208D01*
G01*
X2111686Y1652707D02*
G03*
X2111628Y1652766I-15266J-15149D01*
G01*
Y1622350D02*
G03*
X2111686Y1652707I-15207J15208D01*
G01*
X2111570Y1622292D02*
G03*
X2111595Y1622317I-15149J15266D01*
G01*
X2111570Y1622292D02*
G03*
X2111559Y1622281I9150J-9033D01*
G01*
X1977415Y1488137D02*
G03*
X1977414Y1488136I9022J-9160D01*
G01*
D02*
G03*
X1977414Y1421221I33322J-33458D01*
G01*
D02*
G03*
X1977415Y1421220I9023J9159D01*
G01*
X2025906Y1372729D02*
G03*
X2025984Y1372651I9130J9052D01*
G01*
X1658396Y1510637D02*
G03*
X1636889Y1532143I-21507J0D01*
G01*
X1658396Y1510634D02*
G03*
X1701410Y1510634I21507J0D01*
G01*
X1722917Y1532143D02*
G03*
X1701410Y1510637I0J-21507D01*
G01*
X1812857Y1622143D02*
Y1637206D01*
Y1622143D02*
X1818979Y1616021D01*
X1819057Y1615943D02*
X1898264Y1536735D01*
X1928818D02*
X2062961Y1670879D01*
X2125562Y1674714D02*
X2126045D01*
X2133577Y1667182D01*
Y1666699D02*
Y1667182D01*
X1995598Y1469955D02*
X2129741Y1604099D01*
X1995598Y1439402D02*
X2044088Y1390911D01*
X2044166Y1390833D02*
X2057820Y1377180D01*
X1787143Y1611492D02*
X1800796Y1597839D01*
X1800874Y1597761D02*
X1880082Y1518553D01*
X1947000D02*
X2081144Y1652696D01*
X2081179Y1652732D02*
X2081213Y1652766D01*
X2081213D02*
X2081213D01*
X2111628Y1622350D02*
Y1622350D01*
X2111595Y1622317D02*
X2111628Y1622350D01*
X1977415Y1488137D02*
X2111559Y1622281D01*
X1977415Y1421219D02*
X2025906Y1372729D01*
X2025984Y1372651D02*
X2039637Y1358998D01*
X2057820Y1377180D02*
X2224925Y1210075D01*
X1812857Y1637206D02*
Y1698883D01*
X1787143Y1611492D02*
Y1698883D01*
X2039637Y1358998D02*
X2214274Y1184361D01*
X2224925Y1210075D02*
X2283818D01*
X2347143Y1091116D02*
Y1110385D01*
X2273167Y1184361D02*
X2347143Y1110385D01*
X2327500Y1071474D02*
X2347143Y1091116D01*
X2214274Y1184361D02*
X2273167D01*
X2327500Y1065000D02*
Y1071474D01*
X1779519Y1706507D02*
X1787143Y1698883D01*
X1750000Y1730000D02*
Y1800000D01*
X1773493Y1706507D02*
X1779519D01*
X1750000Y1730000D02*
X1773493Y1706507D01*
X2372857Y1091116D02*
X2392500Y1071473D01*
Y1065000D02*
Y1071473D01*
X2283818Y1210075D02*
X2372857Y1121036D01*
Y1091116D02*
Y1121036D01*
X1850000Y1730000D02*
Y1800000D01*
X1826507Y1706507D02*
X1850000Y1730000D01*
X1820480Y1706507D02*
X1826507D01*
X1812857Y1698883D02*
X1820480Y1706507D01*
X1760576Y1557857D02*
X2281356Y1037077D01*
X1313076Y1557857D02*
X1760576D01*
X2255642Y910264D02*
Y1026426D01*
X2281356Y920915D02*
Y1037077D01*
X1729425Y1532143D02*
X1749925D01*
X2255642Y1026426D01*
X1582500Y1532143D02*
X1636889D01*
X1658396Y1510634D02*
Y1510637D01*
X1701410Y1510634D02*
Y1510637D01*
X1722917Y1532143D02*
X1729425D01*
X1302425D02*
X1582500D01*
X1212857Y1658077D02*
X1313076Y1557857D01*
X1550000Y1730000D02*
Y1800000D01*
X1532500Y1642500D02*
Y1648974D01*
X1526507Y1706507D02*
X1550000Y1730000D01*
X1520481Y1706507D02*
X1526507D01*
X1512857Y1698883D02*
X1520481Y1706507D01*
X1512857Y1668616D02*
X1532500Y1648974D01*
X1512857Y1668616D02*
Y1698883D01*
X1473493Y1706507D02*
X1479520D01*
X1487143Y1698883D01*
Y1668616D02*
Y1698883D01*
X1467500Y1648973D02*
X1487143Y1668616D01*
X1450000Y1730000D02*
X1473493Y1706507D01*
X1450000Y1730000D02*
Y1800000D01*
X1467500Y1642500D02*
Y1648973D01*
X1187143Y1647426D02*
X1302425Y1532143D01*
X1173493Y1706507D02*
X1179519D01*
X1150000Y1730000D02*
X1173493Y1706507D01*
X1226507D02*
X1250000Y1730000D01*
X1220480Y1706507D02*
X1226507D01*
X2255943Y897980D02*
Y909963D01*
X2255642Y910264D02*
X2255943Y909963D01*
X2205000Y910000D02*
X2211474D01*
X2248319Y890357D02*
X2255943Y897980D01*
X2211474Y910000D02*
X2231117Y890357D01*
X2248319D01*
X2281356Y920915D02*
X2281657Y920614D01*
Y887329D02*
Y920614D01*
X2258970Y864643D02*
X2281657Y887329D01*
X2231117Y864643D02*
X2258970D01*
X2211474Y845000D02*
X2231117Y864643D01*
X2205000Y845000D02*
X2211474D01*
X1187143Y1647426D02*
Y1698883D01*
X1212857Y1658077D02*
Y1698883D01*
X1220480Y1706507D01*
X1150000Y1730000D02*
Y1800000D01*
X1179519Y1706507D02*
X1187143Y1698883D01*
X1250000Y1730000D02*
Y1800000D01*
D11*
X1961894Y608105D02*
G03*
X1971170Y585712I31669J-0D01*
G01*
X1537500Y585000D02*
X1542357Y589857D01*
X1590854D01*
X1613496Y612500D01*
X1665000D01*
X1755000Y460155D02*
X1801983Y413172D01*
X1732500Y620000D02*
Y682500D01*
Y616927D02*
Y620000D01*
X1971830Y585052D02*
Y603170D01*
X1968003Y608105D02*
Y670784D01*
X1971830Y585052D02*
X1975000Y581882D01*
X1968003Y606997D02*
X1971830Y603170D01*
X1975000Y550000D02*
Y581882D01*
X1968003Y670784D02*
X1979719Y682500D01*
X2002500D01*
X2017500Y697500D01*
X1975000Y550000D02*
X1985000Y540000D01*
X580000Y1537500D02*
Y1540000D01*
X1665000Y540000D02*
Y612500D01*
X1755000Y460155D02*
Y540000D01*
Y594426D01*
X1732500Y682500D02*
X1732500Y682500D01*
X1732500Y616927D02*
X1755000Y594426D01*
X1655000Y947501D02*
Y1167500D01*
X1592500Y885000D02*
X1655000Y947501D01*
X1502500Y885000D02*
X1592500D01*
X1332500Y1055000D02*
X1502500Y885000D01*
X1542500Y1150000D02*
X1629383D01*
X1646883Y1167500D01*
X1655000D01*
X1985000Y443500D02*
Y540000D01*
X1971500Y430000D02*
X1985000Y443500D01*
X1637500Y1267500D02*
Y1380000D01*
X1637500Y1267500D02*
X1637500Y1267500D01*
X1637500Y1193118D02*
Y1267500D01*
Y1193118D02*
X1655000Y1175618D01*
Y1167500D02*
Y1175618D01*
X1537500Y675000D02*
X1550000Y687500D01*
X1655000D01*
X1427500Y686000D02*
X1438500Y675000D01*
X1537500D01*
D12*
X1232500Y677500D02*
D03*
Y517500D02*
D03*
X777500Y287500D02*
D03*
Y447500D02*
D03*
X1591705Y120759D02*
D03*
Y280759D02*
D03*
D13*
X1332500Y370000D02*
D03*
Y110000D02*
D03*
D14*
X930000Y287500D02*
D03*
Y137500D02*
D03*
D15*
X2327500Y500000D02*
D03*
Y690000D02*
D03*
X1811983Y409324D02*
D03*
Y219324D02*
D03*
D16*
X972500Y1135000D02*
D03*
X1142500D02*
D03*
D17*
X490001Y1114999D02*
D03*
X780000D02*
D03*
X432500Y587500D02*
D03*
X142500D02*
D03*
X1030000Y637500D02*
D03*
X740000D02*
D03*
D18*
X550000Y1800000D02*
D03*
X650000D02*
D03*
X750000D02*
D03*
X850000D02*
D03*
X950000D02*
D03*
X1050000D02*
D03*
X1150000D02*
D03*
X1250000D02*
D03*
X1350000D02*
D03*
X1450000D02*
D03*
X1550000D02*
D03*
X1650000D02*
D03*
X1750000D02*
D03*
X1850000D02*
D03*
X1950000D02*
D03*
D19*
X450000Y2010000D02*
D03*
X2050000D02*
D03*
D20*
X1427500Y569000D02*
D03*
Y686000D02*
D03*
D21*
X1147500Y1302500D02*
D03*
Y1462500D02*
D03*
D22*
X1080000Y287500D02*
D03*
Y117500D02*
D03*
D23*
X430000Y867500D02*
D03*
X870000Y1627500D02*
D03*
D24*
X97500Y867500D02*
D03*
X157500D02*
D03*
X215000D02*
D03*
X277500D02*
D03*
X337500D02*
D03*
Y1172500D02*
D03*
X277500D02*
D03*
X217500D02*
D03*
X157500D02*
D03*
X97500D02*
D03*
D25*
X217500Y1002500D02*
D03*
D26*
X1142500Y842500D02*
D03*
Y972500D02*
D03*
X952500Y907500D02*
D03*
D27*
X490000Y1537500D02*
D03*
X580000D02*
D03*
X1985000Y540000D02*
D03*
X2075000D02*
D03*
X1637500Y1267500D02*
D03*
X1547500D02*
D03*
X1752500Y1315000D02*
D03*
X1842500D02*
D03*
X1755000Y540000D02*
D03*
X1665000D02*
D03*
D28*
X715000Y1477500D02*
D03*
Y1382500D02*
D03*
Y1287500D02*
D03*
X975000D02*
D03*
Y1477500D02*
D03*
D29*
X1442500Y1149999D02*
D03*
Y1049999D02*
D03*
X1542500Y1050000D02*
D03*
Y1150000D02*
D03*
X1265000Y957500D02*
D03*
Y857500D02*
D03*
D30*
X785000Y1622500D02*
D03*
X685000D02*
D03*
X482500Y1285000D02*
D03*
X582500D02*
D03*
X197500Y752500D02*
D03*
X297500D02*
D03*
D31*
X1755000Y1037500D02*
D03*
X1945000D02*
D03*
D32*
X792500Y167500D02*
D03*
Y77500D02*
D03*
X2017500Y697500D02*
D03*
Y787500D02*
D03*
X1537500Y675000D02*
D03*
Y585000D02*
D03*
X1732500Y772500D02*
D03*
Y682500D02*
D03*
X2185000Y575000D02*
D03*
Y485000D02*
D03*
X1877500Y812500D02*
D03*
Y722500D02*
D03*
D33*
X520000Y120000D02*
D03*
Y410000D02*
D03*
D34*
X1971500Y430000D02*
D03*
X2088500D02*
D03*
X1637500Y1380000D02*
D03*
X1520500D02*
D03*
D35*
X1372500Y817500D02*
X1415000Y775000D01*
X1537500Y585000D02*
X1537815Y584686D01*
X1810000Y116152D02*
Y186307D01*
X1779483Y216824D02*
X1810000Y186307D01*
X1827500Y1330000D02*
Y1356882D01*
X1812500Y1371882D02*
X1827500Y1356882D01*
X1812500Y1371882D02*
Y1380000D01*
X1877500Y722500D02*
X1881760D01*
X1896760Y707500D01*
Y631990D02*
Y707500D01*
Y631990D02*
X1902500Y626250D01*
X2075000Y647500D02*
X2115000Y687500D01*
X1950000Y1750000D02*
X1970000Y1730000D01*
X1950000Y1750000D02*
Y1800000D01*
X1916760Y773240D02*
X1951814D01*
X1442500Y1226413D02*
X1486631Y1270544D01*
X2185000Y485000D02*
X2312500D01*
X2185000D02*
Y485000D01*
X1350000Y1650000D02*
Y1800000D01*
X1520000Y1380500D02*
X1520500Y1380000D01*
X550000Y1647500D02*
X622500D01*
X490001Y1587501D02*
X550000Y1647500D01*
Y1800000D01*
X622500Y1647500D02*
X639002Y1630999D01*
X1142500Y1135000D02*
X1177500Y1100000D01*
Y1092500D02*
Y1100000D01*
X1142500Y1135000D02*
X1142500Y1135000D01*
X1950000Y1800000D02*
X1950000Y1800000D01*
X1350000D02*
Y1950000D01*
X900000Y637500D02*
X1030000D01*
X830000Y2042500D02*
X870000D01*
X1650000Y1650000D02*
Y1800000D01*
Y1950000D01*
X1542500Y980000D02*
X1570000Y952500D01*
X1345000Y957500D02*
X1372500Y930000D01*
Y817500D02*
Y930000D01*
X1827500Y1330000D02*
X1842500Y1315000D01*
X1265000Y957500D02*
X1345000D01*
X582500Y1285000D02*
X712500D01*
X715000Y1287500D01*
X1442500Y1049999D02*
X1542500D01*
X1542500Y1050000D01*
X1442500Y1149999D02*
Y1226413D01*
X1486631Y1270544D02*
X1544457D01*
X1547500Y1267500D01*
X1945000Y1037500D02*
X1995636Y1088136D01*
X2037828D01*
X1755000Y1037500D02*
Y1230000D01*
X1752500Y1232499D02*
X1755000Y1230000D01*
X1752500Y1232499D02*
Y1315000D01*
X1542500Y980000D02*
Y1050000D01*
X2075000Y540000D02*
Y647500D01*
X1966074Y787500D02*
X2017500D01*
X1951814Y773240D02*
X1966074Y787500D01*
X1877500Y812500D02*
X1885001D01*
X1900001Y797500D01*
Y790000D02*
Y797500D01*
Y790000D02*
X1916760Y773240D01*
X1732500Y772500D02*
X1809501D01*
X1814500Y767500D01*
X2312500Y485000D02*
X2327500Y500000D01*
X2390648Y441068D02*
Y445228D01*
X2335877Y500000D02*
X2390648Y445228D01*
X1717500Y1000000D02*
X1755000Y1037500D01*
X490001Y1537500D02*
Y1587501D01*
Y1285000D02*
Y1537500D01*
X1950000Y1800000D02*
Y1950000D01*
X1050000Y1650000D02*
Y1800000D01*
X777500Y287500D02*
X792500Y272500D01*
X550000Y1800000D02*
Y2080000D01*
X610000Y2140000D01*
X1062500D01*
X850000Y1659271D02*
Y1800000D01*
Y1659271D02*
X870000Y1639271D01*
Y1627500D02*
Y1639271D01*
X785000Y1622500D02*
X790000D01*
X805000Y1607500D01*
Y1602500D02*
Y1607500D01*
Y1602500D02*
X855000Y1552500D01*
X885000D01*
X676501Y1630999D02*
X685000Y1622500D01*
X639002Y1630999D02*
X676501D01*
X685000Y1622500D02*
X690000D01*
X705000Y1487500D02*
X715000Y1477500D01*
X690000Y1622500D02*
X705000Y1607500D01*
Y1595784D02*
Y1607500D01*
Y1595784D02*
X705000Y1595784D01*
Y1487500D02*
Y1595784D01*
X490001Y1117729D02*
Y1285000D01*
X750000Y1800000D02*
Y1962500D01*
X830000Y2042500D01*
X885000Y1062500D02*
X952500Y995000D01*
X885000Y1552500D02*
X950000Y1617500D01*
X885000Y1062500D02*
Y1552500D01*
X952500Y907500D02*
Y995000D01*
X1142500Y972500D02*
X1250000D01*
X1265000Y957500D01*
Y957500D02*
Y957500D01*
X950000Y1617500D02*
Y1800000D01*
X1132500Y1477500D02*
X1147500Y1462500D01*
X490001Y1114999D02*
Y1117729D01*
Y1114999D02*
X490001Y1115000D01*
X592500D01*
X435229Y1172500D02*
X490001Y1117729D01*
X780000Y1114999D02*
X812500Y1147499D01*
X345000Y1277500D02*
X395000D01*
X282395Y1214895D02*
X345000Y1277500D01*
X277500Y1172500D02*
X282395Y1177395D01*
Y1214895D01*
X337500Y1172500D02*
X435229D01*
X740000Y485000D02*
Y637500D01*
Y485000D02*
X777500Y447500D01*
X520000Y402500D02*
X565000Y447500D01*
X777500D01*
X207501Y425000D02*
X497500D01*
X142500Y587500D02*
X153286Y576714D01*
Y479215D02*
Y576714D01*
Y479215D02*
X207501Y425000D01*
X497500D02*
X520000Y402500D01*
X99000Y631000D02*
X142500Y587500D01*
X99000Y631000D02*
Y713500D01*
X97500Y715000D02*
X99000Y713500D01*
X337500Y867500D02*
X430000D01*
X277500Y779216D02*
Y867500D01*
Y779216D02*
X277500Y779216D01*
Y767500D02*
Y779216D01*
Y767500D02*
X292500Y752500D01*
X297500D01*
X197500D02*
X200000D01*
X215000Y767500D01*
Y867500D01*
X142500Y587500D02*
Y697500D01*
X177500Y732500D01*
Y737500D01*
X192500Y752500D01*
X197500D01*
X97500Y867500D02*
X157500D01*
X1080000Y287500D02*
X1085000Y292500D01*
X650000Y1800000D02*
Y1950000D01*
D36*
X1242500Y687500D02*
X1327500D01*
X1232500Y677500D02*
X1242500Y687500D01*
X1232500Y517500D02*
X1257500Y492500D01*
X1276790D01*
X1286790Y482500D01*
X1535000D01*
X1591705Y425795D01*
Y280759D02*
Y425795D01*
X1085000Y292500D02*
X1090000D01*
X1105000Y307500D01*
X1134290Y339174D02*
X1316674D01*
X1105000Y307500D02*
Y309884D01*
X1134290Y339174D01*
X1316674D02*
X1332500Y355000D01*
X1345380Y107880D02*
X1578826D01*
X1332500Y95000D02*
X1345380Y107880D01*
X1578826D02*
X1591705Y120759D01*
X1520000Y1380500D02*
Y1455000D01*
X2337500Y500000D02*
X2377500Y460000D01*
X2415000Y412500D02*
Y412500D01*
X2327500Y500000D02*
X2337500D01*
X2377500Y450000D02*
Y460000D01*
Y450000D02*
X2415000Y412500D01*
X2137662Y620785D02*
X2177500Y580947D01*
Y575000D02*
X2185000D01*
X2137662Y620785D02*
Y622663D01*
X2177500Y575000D02*
Y580947D01*
X2187500Y582499D02*
X2255001Y650000D01*
X2287500D01*
X2327500Y690000D01*
X1147500Y857500D02*
X1265000D01*
X1132500Y842500D02*
X1147500Y857500D01*
X1265000Y775000D02*
Y857500D01*
X812500Y1147499D02*
Y1382500D01*
X580000Y1447500D02*
Y1537500D01*
X520000Y112500D02*
X677500D01*
X2185000Y427501D02*
Y485000D01*
X580000Y1447500D02*
X645000Y1382500D01*
X715000D01*
X972500Y1135000D02*
Y1140000D01*
X992500Y1160000D01*
X996612D01*
X1034112Y1197500D01*
X1035000D01*
X1050000Y1212500D01*
X1085083Y122583D02*
X1300084D01*
X1080000Y117500D02*
X1085083Y122583D01*
X1177500Y1092500D02*
X1197500Y1072500D01*
X1232500D01*
X1060000Y1135000D02*
X1142500D01*
X975000Y1287500D02*
X1132500D01*
X1147500Y1302500D01*
X1142500Y1135000D02*
X1147500Y1140000D01*
X1142500Y1135000D02*
X1232500D01*
X97500Y782500D02*
Y867500D01*
X2088500Y354000D02*
Y430000D01*
X1358500Y569000D02*
X1427500D01*
X432500Y587500D02*
Y715000D01*
X777500Y287500D02*
X930000D01*
X792500Y167500D02*
Y272500D01*
X715000Y1382500D02*
X812500D01*
X975000Y1477500D02*
X1132500D01*
X672501Y1114999D02*
X780000D01*
X677500Y112500D02*
X712500Y77500D01*
X792500D02*
X858284D01*
X870617Y89833D01*
Y92576D01*
X915541Y137500D01*
X930000D01*
X712500Y77500D02*
X792500D01*
X930000Y287500D02*
X1080000D01*
D37*
X1147500Y1140000D02*
Y1302500D01*
D38*
X1320000Y2308435D02*
X1329522Y2313196D01*
X1343805Y2327479D01*
Y2227500D01*
X2330378Y1725000D02*
X2324665Y1736426D01*
X2307525Y1753565D01*
X2427500D01*
X95378Y1670000D02*
X89664Y1681426D01*
X72525Y1698566D01*
X192499D01*
X72525Y1826538D02*
Y1769408D01*
X123943Y1763694D01*
X118230Y1769408D01*
X112517Y1786547D01*
Y1803686D01*
X118230Y1820825D01*
X129656Y1832251D01*
X146795Y1837964D01*
X158221D01*
X175360Y1832251D01*
X186787Y1820825D01*
X192499Y1803686D01*
Y1786547D01*
X186787Y1769408D01*
X181073Y1763694D01*
X169647Y1757981D01*
D39*
X200000Y1450000D02*
D03*
X2300000D02*
D03*
Y200000D02*
D03*
X200000D02*
D03*
D40*
X1415000Y775000D02*
D03*
X1327500Y687500D02*
D03*
X1810000Y116152D02*
D03*
X2327500Y1065000D02*
D03*
X2392500D02*
D03*
X1532500Y1642500D02*
D03*
X1467500D02*
D03*
X1520000Y1455000D02*
D03*
X2205000Y910000D02*
D03*
Y845000D02*
D03*
X1812500Y1380000D02*
D03*
X1915000Y1284967D02*
D03*
X2276635Y1114135D02*
D03*
X217500Y1002500D02*
D03*
X115000D02*
D03*
X320000D02*
D03*
X1902500Y626250D02*
D03*
X2115000Y687500D02*
D03*
X2189235Y781941D02*
D03*
X1005000Y1030000D02*
D03*
X550000Y1647500D02*
D03*
X1060000Y1135000D02*
D03*
X1232500Y1072500D02*
D03*
X2425000Y1127500D02*
D03*
X97500Y782500D02*
D03*
X900000Y637500D02*
D03*
X1732500Y620000D02*
D03*
X1665000Y612500D02*
D03*
X1968003Y606997D02*
D03*
X870000Y2042500D02*
D03*
X1483588Y1273587D02*
D03*
X1650000Y1650000D02*
D03*
X2185000Y427501D02*
D03*
X1570000Y952500D02*
D03*
X1332500Y1055000D02*
D03*
X1265000Y775000D02*
D03*
X1962500Y877500D02*
D03*
X1760000Y875000D02*
D03*
X1350000Y1650000D02*
D03*
X545000Y2242500D02*
D03*
X2088500Y354000D02*
D03*
X1358500Y569000D02*
D03*
X2367500Y877500D02*
D03*
X1852217Y952122D02*
D03*
X2037077Y967903D02*
D03*
X2037828Y1088136D02*
D03*
X1964153Y1237467D02*
D03*
X1752500Y1232499D02*
D03*
X2137662Y622663D02*
D03*
X1940500Y767500D02*
D03*
X2415000Y412500D02*
D03*
X1655000Y1167500D02*
D03*
X1655000Y687500D02*
D03*
X360000Y2072500D02*
D03*
X357500Y1850000D02*
D03*
X812500Y1382500D02*
D03*
X1814500Y767500D02*
D03*
X1152500Y2140000D02*
D03*
X1350000Y1950000D02*
D03*
X1650000D02*
D03*
X1950000D02*
D03*
X1050000Y1650000D02*
D03*
X470000Y797500D02*
D03*
X432500Y715000D02*
D03*
X1170000Y212500D02*
D03*
X1050000Y1212500D02*
D03*
X1232500Y1135000D02*
D03*
X1062500Y2140000D02*
D03*
X580000Y1447500D02*
D03*
X592500Y1115000D02*
D03*
X395000Y1277500D02*
D03*
X672501Y1114999D02*
D03*
X762500Y867500D02*
D03*
X1037500Y770000D02*
D03*
X97500Y715000D02*
D03*
X712500Y77500D02*
D03*
X650000Y1950000D02*
D03*
%TF.MD5,2cec0962177c1f4ec553de970a09940c*%
M02*
