%TF.GenerationSoftware,Altium Limited,Altium Designer,20.1.12 (249)*%
G04 Layer_Color=8388736*
%FSLAX45Y45*%
%MOMM*%
%TF.SameCoordinates,27206DED-D720-4121-B7EB-46A740E941A3*%
%TF.FilePolarity,Negative*%
%TF.FileFunction,Soldermask,Top*%
%TF.Part,Single*%
G01*
G75*
%TA.AperFunction,SMDPad,CuDef*%
G04:AMPARAMS|DCode=51|XSize=1.02mm|YSize=1.12mm|CornerRadius=0.15mm|HoleSize=0mm|Usage=FLASHONLY|Rotation=0.000|XOffset=0mm|YOffset=0mm|HoleType=Round|Shape=RoundedRectangle|*
%AMROUNDEDRECTD51*
21,1,1.02000,0.82000,0,0,0.0*
21,1,0.72000,1.12000,0,0,0.0*
1,1,0.30000,0.36000,-0.41000*
1,1,0.30000,-0.36000,-0.41000*
1,1,0.30000,-0.36000,0.41000*
1,1,0.30000,0.36000,0.41000*
%
%ADD51ROUNDEDRECTD51*%
G04:AMPARAMS|DCode=52|XSize=0.7mm|YSize=0.6mm|CornerRadius=0.1mm|HoleSize=0mm|Usage=FLASHONLY|Rotation=0.000|XOffset=0mm|YOffset=0mm|HoleType=Round|Shape=RoundedRectangle|*
%AMROUNDEDRECTD52*
21,1,0.70000,0.40000,0,0,0.0*
21,1,0.50000,0.60000,0,0,0.0*
1,1,0.20000,0.25000,-0.20000*
1,1,0.20000,-0.25000,-0.20000*
1,1,0.20000,-0.25000,0.20000*
1,1,0.20000,0.25000,0.20000*
%
%ADD52ROUNDEDRECTD52*%
%ADD59C,0.75500*%
G04:AMPARAMS|DCode=60|XSize=0.7mm|YSize=0.6mm|CornerRadius=0.1mm|HoleSize=0mm|Usage=FLASHONLY|Rotation=270.000|XOffset=0mm|YOffset=0mm|HoleType=Round|Shape=RoundedRectangle|*
%AMROUNDEDRECTD60*
21,1,0.70000,0.40000,0,0,270.0*
21,1,0.50000,0.60000,0,0,270.0*
1,1,0.20000,-0.20000,-0.25000*
1,1,0.20000,-0.20000,0.25000*
1,1,0.20000,0.20000,0.25000*
1,1,0.20000,0.20000,-0.25000*
%
%ADD60ROUNDEDRECTD60*%
G04:AMPARAMS|DCode=61|XSize=0.62mm|YSize=0.77mm|CornerRadius=0.11mm|HoleSize=0mm|Usage=FLASHONLY|Rotation=180.000|XOffset=0mm|YOffset=0mm|HoleType=Round|Shape=RoundedRectangle|*
%AMROUNDEDRECTD61*
21,1,0.62000,0.55000,0,0,180.0*
21,1,0.40000,0.77000,0,0,180.0*
1,1,0.22000,-0.20000,0.27500*
1,1,0.22000,0.20000,0.27500*
1,1,0.22000,0.20000,-0.27500*
1,1,0.22000,-0.20000,-0.27500*
%
%ADD61ROUNDEDRECTD61*%
G04:AMPARAMS|DCode=62|XSize=0.62mm|YSize=0.77mm|CornerRadius=0.11mm|HoleSize=0mm|Usage=FLASHONLY|Rotation=90.000|XOffset=0mm|YOffset=0mm|HoleType=Round|Shape=RoundedRectangle|*
%AMROUNDEDRECTD62*
21,1,0.62000,0.55000,0,0,90.0*
21,1,0.40000,0.77000,0,0,90.0*
1,1,0.22000,0.27500,0.20000*
1,1,0.22000,0.27500,-0.20000*
1,1,0.22000,-0.27500,-0.20000*
1,1,0.22000,-0.27500,0.20000*
%
%ADD62ROUNDEDRECTD62*%
G04:AMPARAMS|DCode=63|XSize=1.92mm|YSize=1.42mm|CornerRadius=0.19mm|HoleSize=0mm|Usage=FLASHONLY|Rotation=90.000|XOffset=0mm|YOffset=0mm|HoleType=Round|Shape=RoundedRectangle|*
%AMROUNDEDRECTD63*
21,1,1.92000,1.04000,0,0,90.0*
21,1,1.54000,1.42000,0,0,90.0*
1,1,0.38000,0.52000,0.77000*
1,1,0.38000,0.52000,-0.77000*
1,1,0.38000,-0.52000,-0.77000*
1,1,0.38000,-0.52000,0.77000*
%
%ADD63ROUNDEDRECTD63*%
G04:AMPARAMS|DCode=64|XSize=1.12mm|YSize=1.12mm|CornerRadius=0.16mm|HoleSize=0mm|Usage=FLASHONLY|Rotation=0.000|XOffset=0mm|YOffset=0mm|HoleType=Round|Shape=RoundedRectangle|*
%AMROUNDEDRECTD64*
21,1,1.12000,0.80000,0,0,0.0*
21,1,0.80000,1.12000,0,0,0.0*
1,1,0.32000,0.40000,-0.40000*
1,1,0.32000,-0.40000,-0.40000*
1,1,0.32000,-0.40000,0.40000*
1,1,0.32000,0.40000,0.40000*
%
%ADD64ROUNDEDRECTD64*%
%TA.AperFunction,WasherPad*%
%ADD65C,3.80000*%
%TA.AperFunction,SMDPad,CuDef*%
G04:AMPARAMS|DCode=66|XSize=3.52mm|YSize=1.32mm|CornerRadius=0.18mm|HoleSize=0mm|Usage=FLASHONLY|Rotation=180.000|XOffset=0mm|YOffset=0mm|HoleType=Round|Shape=RoundedRectangle|*
%AMROUNDEDRECTD66*
21,1,3.52000,0.96000,0,0,180.0*
21,1,3.16000,1.32000,0,0,180.0*
1,1,0.36000,-1.58000,0.48000*
1,1,0.36000,1.58000,0.48000*
1,1,0.36000,1.58000,-0.48000*
1,1,0.36000,-1.58000,-0.48000*
%
%ADD66ROUNDEDRECTD66*%
G04:AMPARAMS|DCode=67|XSize=1.22mm|YSize=1.52mm|CornerRadius=0.17mm|HoleSize=0mm|Usage=FLASHONLY|Rotation=90.000|XOffset=0mm|YOffset=0mm|HoleType=Round|Shape=RoundedRectangle|*
%AMROUNDEDRECTD67*
21,1,1.22000,1.18000,0,0,90.0*
21,1,0.88000,1.52000,0,0,90.0*
1,1,0.34000,0.59000,0.44000*
1,1,0.34000,0.59000,-0.44000*
1,1,0.34000,-0.59000,-0.44000*
1,1,0.34000,-0.59000,0.44000*
%
%ADD67ROUNDEDRECTD67*%
G04:AMPARAMS|DCode=68|XSize=1.42mm|YSize=1.62mm|CornerRadius=0.19mm|HoleSize=0mm|Usage=FLASHONLY|Rotation=90.000|XOffset=0mm|YOffset=0mm|HoleType=Round|Shape=RoundedRectangle|*
%AMROUNDEDRECTD68*
21,1,1.42000,1.24000,0,0,90.0*
21,1,1.04000,1.62000,0,0,90.0*
1,1,0.38000,0.62000,0.52000*
1,1,0.38000,0.62000,-0.52000*
1,1,0.38000,-0.62000,-0.52000*
1,1,0.38000,-0.62000,0.52000*
%
%ADD68ROUNDEDRECTD68*%
%ADD69R,0.72000X2.12000*%
%ADD70R,0.82000X4.32000*%
G04:AMPARAMS|DCode=71|XSize=0.82mm|YSize=0.97mm|CornerRadius=0.13mm|HoleSize=0mm|Usage=FLASHONLY|Rotation=0.000|XOffset=0mm|YOffset=0mm|HoleType=Round|Shape=RoundedRectangle|*
%AMROUNDEDRECTD71*
21,1,0.82000,0.71000,0,0,0.0*
21,1,0.56000,0.97000,0,0,0.0*
1,1,0.26000,0.28000,-0.35500*
1,1,0.26000,-0.28000,-0.35500*
1,1,0.26000,-0.28000,0.35500*
1,1,0.26000,0.28000,0.35500*
%
%ADD71ROUNDEDRECTD71*%
G04:AMPARAMS|DCode=72|XSize=0.92mm|YSize=1.52mm|CornerRadius=0.1mm|HoleSize=0mm|Usage=FLASHONLY|Rotation=270.000|XOffset=0mm|YOffset=0mm|HoleType=Round|Shape=RoundedRectangle|*
%AMROUNDEDRECTD72*
21,1,0.92000,1.32000,0,0,270.0*
21,1,0.72000,1.52000,0,0,270.0*
1,1,0.20000,-0.66000,-0.36000*
1,1,0.20000,-0.66000,0.36000*
1,1,0.20000,0.66000,0.36000*
1,1,0.20000,0.66000,-0.36000*
%
%ADD72ROUNDEDRECTD72*%
G04:AMPARAMS|DCode=73|XSize=1.12mm|YSize=1.02mm|CornerRadius=0.15mm|HoleSize=0mm|Usage=FLASHONLY|Rotation=180.000|XOffset=0mm|YOffset=0mm|HoleType=Round|Shape=RoundedRectangle|*
%AMROUNDEDRECTD73*
21,1,1.12000,0.72000,0,0,180.0*
21,1,0.82000,1.02000,0,0,180.0*
1,1,0.30000,-0.41000,0.36000*
1,1,0.30000,0.41000,0.36000*
1,1,0.30000,0.41000,-0.36000*
1,1,0.30000,-0.41000,-0.36000*
%
%ADD73ROUNDEDRECTD73*%
G04:AMPARAMS|DCode=74|XSize=0.77mm|YSize=0.42mm|CornerRadius=0.105mm|HoleSize=0mm|Usage=FLASHONLY|Rotation=90.000|XOffset=0mm|YOffset=0mm|HoleType=Round|Shape=RoundedRectangle|*
%AMROUNDEDRECTD74*
21,1,0.77000,0.21000,0,0,90.0*
21,1,0.56000,0.42000,0,0,90.0*
1,1,0.21000,0.10500,0.28000*
1,1,0.21000,0.10500,-0.28000*
1,1,0.21000,-0.10500,-0.28000*
1,1,0.21000,-0.10500,0.28000*
%
%ADD74ROUNDEDRECTD74*%
G04:AMPARAMS|DCode=75|XSize=0.82mm|YSize=3.02mm|CornerRadius=0.13mm|HoleSize=0mm|Usage=FLASHONLY|Rotation=90.000|XOffset=0mm|YOffset=0mm|HoleType=Round|Shape=RoundedRectangle|*
%AMROUNDEDRECTD75*
21,1,0.82000,2.76000,0,0,90.0*
21,1,0.56000,3.02000,0,0,90.0*
1,1,0.26000,1.38000,0.28000*
1,1,0.26000,1.38000,-0.28000*
1,1,0.26000,-1.38000,-0.28000*
1,1,0.26000,-1.38000,0.28000*
%
%ADD75ROUNDEDRECTD75*%
G04:AMPARAMS|DCode=76|XSize=0.82mm|YSize=1.02mm|CornerRadius=0.1475mm|HoleSize=0mm|Usage=FLASHONLY|Rotation=90.000|XOffset=0mm|YOffset=0mm|HoleType=Round|Shape=RoundedRectangle|*
%AMROUNDEDRECTD76*
21,1,0.82000,0.72500,0,0,90.0*
21,1,0.52500,1.02000,0,0,90.0*
1,1,0.29500,0.36250,0.26250*
1,1,0.29500,0.36250,-0.26250*
1,1,0.29500,-0.36250,-0.26250*
1,1,0.29500,-0.36250,0.26250*
%
%ADD76ROUNDEDRECTD76*%
G04:AMPARAMS|DCode=77|XSize=0.72mm|YSize=1.22mm|CornerRadius=0.12mm|HoleSize=0mm|Usage=FLASHONLY|Rotation=90.000|XOffset=0mm|YOffset=0mm|HoleType=Round|Shape=RoundedRectangle|*
%AMROUNDEDRECTD77*
21,1,0.72000,0.98000,0,0,90.0*
21,1,0.48000,1.22000,0,0,90.0*
1,1,0.24000,0.49000,0.24000*
1,1,0.24000,0.49000,-0.24000*
1,1,0.24000,-0.49000,-0.24000*
1,1,0.24000,-0.49000,0.24000*
%
%ADD77ROUNDEDRECTD77*%
G04:AMPARAMS|DCode=78|XSize=1.42mm|YSize=1.62mm|CornerRadius=0.19mm|HoleSize=0mm|Usage=FLASHONLY|Rotation=180.000|XOffset=0mm|YOffset=0mm|HoleType=Round|Shape=RoundedRectangle|*
%AMROUNDEDRECTD78*
21,1,1.42000,1.24000,0,0,180.0*
21,1,1.04000,1.62000,0,0,180.0*
1,1,0.38000,-0.52000,0.62000*
1,1,0.38000,0.52000,0.62000*
1,1,0.38000,0.52000,-0.62000*
1,1,0.38000,-0.52000,-0.62000*
%
%ADD78ROUNDEDRECTD78*%
G04:AMPARAMS|DCode=79|XSize=1.92mm|YSize=1.42mm|CornerRadius=0.19mm|HoleSize=0mm|Usage=FLASHONLY|Rotation=180.000|XOffset=0mm|YOffset=0mm|HoleType=Round|Shape=RoundedRectangle|*
%AMROUNDEDRECTD79*
21,1,1.92000,1.04000,0,0,180.0*
21,1,1.54000,1.42000,0,0,180.0*
1,1,0.38000,-0.77000,0.52000*
1,1,0.38000,0.77000,0.52000*
1,1,0.38000,0.77000,-0.52000*
1,1,0.38000,-0.77000,-0.52000*
%
%ADD79ROUNDEDRECTD79*%
G04:AMPARAMS|DCode=80|XSize=0.82mm|YSize=0.97mm|CornerRadius=0.13mm|HoleSize=0mm|Usage=FLASHONLY|Rotation=90.000|XOffset=0mm|YOffset=0mm|HoleType=Round|Shape=RoundedRectangle|*
%AMROUNDEDRECTD80*
21,1,0.82000,0.71000,0,0,90.0*
21,1,0.56000,0.97000,0,0,90.0*
1,1,0.26000,0.35500,0.28000*
1,1,0.26000,0.35500,-0.28000*
1,1,0.26000,-0.35500,-0.28000*
1,1,0.26000,-0.35500,0.28000*
%
%ADD80ROUNDEDRECTD80*%
D51*
X972500Y1135000D02*
D03*
X1142500D02*
D03*
D52*
X785000Y1622500D02*
D03*
X685000D02*
D03*
X482500Y1285000D02*
D03*
X582500D02*
D03*
X197500Y752500D02*
D03*
X297500D02*
D03*
D59*
X430000Y867500D02*
D03*
X870000Y1627500D02*
D03*
D60*
X1442500Y1149999D02*
D03*
Y1049999D02*
D03*
X1542500Y1050000D02*
D03*
Y1150000D02*
D03*
X1265000Y957500D02*
D03*
Y857500D02*
D03*
D61*
X490000Y1537500D02*
D03*
X580000D02*
D03*
X1985000Y540000D02*
D03*
X2075000D02*
D03*
X1637500Y1267500D02*
D03*
X1547500D02*
D03*
X1752500Y1315000D02*
D03*
X1842500D02*
D03*
X1755000Y540000D02*
D03*
X1665000D02*
D03*
D62*
X792500Y167500D02*
D03*
Y77500D02*
D03*
X2017500Y697500D02*
D03*
Y787500D02*
D03*
X1537500Y675000D02*
D03*
Y585000D02*
D03*
X1732500Y772500D02*
D03*
Y682500D02*
D03*
X2185000Y575000D02*
D03*
Y485000D02*
D03*
X1877500Y812500D02*
D03*
Y722500D02*
D03*
D63*
X490001Y1114999D02*
D03*
X780000D02*
D03*
X432500Y587500D02*
D03*
X142500D02*
D03*
X1030000Y637500D02*
D03*
X740000D02*
D03*
D64*
X1232500Y677500D02*
D03*
Y517500D02*
D03*
X777500Y287500D02*
D03*
Y447500D02*
D03*
X1591705Y120759D02*
D03*
Y280759D02*
D03*
D65*
X200000Y1450000D02*
D03*
X2300000D02*
D03*
Y200000D02*
D03*
X200000D02*
D03*
D66*
X1332500Y370000D02*
D03*
Y110000D02*
D03*
D67*
X930000Y287500D02*
D03*
Y137500D02*
D03*
D68*
X2327500Y500000D02*
D03*
Y690000D02*
D03*
X1811983Y409324D02*
D03*
Y219324D02*
D03*
D69*
X550000Y1800000D02*
D03*
X650000D02*
D03*
X750000D02*
D03*
X850000D02*
D03*
X950000D02*
D03*
X1050000D02*
D03*
X1150000D02*
D03*
X1250000D02*
D03*
X1350000D02*
D03*
X1450000D02*
D03*
X1550000D02*
D03*
X1650000D02*
D03*
X1750000D02*
D03*
X1850000D02*
D03*
X1950000D02*
D03*
D70*
X450000Y2010000D02*
D03*
X2050000D02*
D03*
D71*
X1427500Y569000D02*
D03*
Y686000D02*
D03*
D72*
X1147500Y1302500D02*
D03*
Y1462500D02*
D03*
D73*
X1080000Y287500D02*
D03*
Y117500D02*
D03*
D74*
X97500Y867500D02*
D03*
X157500D02*
D03*
X215000D02*
D03*
X277500D02*
D03*
X337500D02*
D03*
Y1172500D02*
D03*
X277500D02*
D03*
X217500D02*
D03*
X157500D02*
D03*
X97500D02*
D03*
D75*
X217500Y1002500D02*
D03*
D76*
X1142500Y842500D02*
D03*
Y972500D02*
D03*
X952500Y907500D02*
D03*
D77*
X715000Y1477500D02*
D03*
Y1382500D02*
D03*
Y1287500D02*
D03*
X975000D02*
D03*
Y1477500D02*
D03*
D78*
X1755000Y1037500D02*
D03*
X1945000D02*
D03*
D79*
X520000Y120000D02*
D03*
Y410000D02*
D03*
D80*
X1971500Y430000D02*
D03*
X2088500D02*
D03*
X1637500Y1380000D02*
D03*
X1520500D02*
D03*
%TF.MD5,e10a97a3c8229b6c2bf9926c46ebe481*%
M02*
