%TF.GenerationSoftware,Altium Limited,Altium Designer,20.1.12 (249)*%
G04 Layer_Color=32896*
%FSLAX45Y45*%
%MOMM*%
%TF.SameCoordinates,27206DED-D720-4121-B7EB-46A740E941A3*%
%TF.FilePolarity,Positive*%
%TF.FileFunction,Other,M12_-_Assy_Value*%
%TF.Part,Single*%
G01*
G75*
%TA.AperFunction,NonConductor*%
%ADD81C,0.09000*%
%ADD82C,0.05000*%
%ADD83C,0.07000*%
%ADD84C,0.10000*%
D81*
X1260342Y427500D02*
X1264626Y418930D01*
X1277481Y406076D01*
X1187500D01*
X1277481Y361514D02*
X1187500D01*
X1247487Y318666D02*
X1204639Y361514D01*
X1221778Y344375D02*
X1187500Y314381D01*
X1277481Y248824D02*
Y291672D01*
X1238918Y295957D01*
X1243202Y291672D01*
X1247487Y278818D01*
Y265963D01*
X1243202Y253109D01*
X1234633Y244539D01*
X1221778Y240254D01*
X1213209D01*
X1200354Y244539D01*
X1191785Y253109D01*
X1187500Y265963D01*
Y278818D01*
X1191785Y291672D01*
X1196070Y295957D01*
X1204639Y300241D01*
X1277481Y123708D02*
X1273196Y136562D01*
X1260342Y145132D01*
X1238918Y149417D01*
X1226063D01*
X1204639Y145132D01*
X1191785Y136562D01*
X1187500Y123708D01*
Y115138D01*
X1191785Y102284D01*
X1204639Y93714D01*
X1226063Y89429D01*
X1238918D01*
X1260342Y93714D01*
X1273196Y102284D01*
X1277481Y115138D01*
Y123708D01*
X1196070Y65006D02*
X1191785Y69291D01*
X1187500Y65006D01*
X1191785Y60721D01*
X1196070Y65006D01*
X1277481Y-10406D02*
Y32441D01*
X1238918Y36726D01*
X1243202Y32441D01*
X1247487Y19587D01*
Y6733D01*
X1243202Y-6122D01*
X1234633Y-14691D01*
X1221778Y-18976D01*
X1213209D01*
X1200354Y-14691D01*
X1191785Y-6122D01*
X1187500Y6733D01*
Y19587D01*
X1191785Y32441D01*
X1196070Y36726D01*
X1204639Y41011D01*
X1187500Y-107672D02*
X1277481Y-73393D01*
X1187500Y-39115D01*
X1217494Y-51969D02*
Y-94817D01*
X1277481Y-225075D02*
X1273196Y-212221D01*
X1260342Y-203651D01*
X1238918Y-199366D01*
X1226063D01*
X1204639Y-203651D01*
X1191785Y-212221D01*
X1187500Y-225075D01*
Y-233644D01*
X1191785Y-246499D01*
X1204639Y-255069D01*
X1226063Y-259353D01*
X1238918D01*
X1260342Y-255069D01*
X1273196Y-246499D01*
X1277481Y-233644D01*
Y-225075D01*
X1196070Y-283777D02*
X1191785Y-279492D01*
X1187500Y-283777D01*
X1191785Y-288062D01*
X1196070Y-283777D01*
X1277481Y-359189D02*
Y-316341D01*
X1238918Y-312056D01*
X1243202Y-316341D01*
X1247487Y-329195D01*
Y-342050D01*
X1243202Y-354904D01*
X1234633Y-363474D01*
X1221778Y-367759D01*
X1213209D01*
X1200354Y-363474D01*
X1191785Y-354904D01*
X1187500Y-342050D01*
Y-329195D01*
X1191785Y-316341D01*
X1196070Y-312056D01*
X1204639Y-307772D01*
X1277481Y-387897D02*
X1187500D01*
X1277481D02*
Y-426461D01*
X1273196Y-439315D01*
X1268911Y-443600D01*
X1260342Y-447885D01*
X1251772D01*
X1243202Y-443600D01*
X1238918Y-439315D01*
X1234633Y-426461D01*
Y-387897D01*
Y-417891D02*
X1187500Y-447885D01*
X1231784Y1158557D02*
Y1162841D01*
X1236069Y1171411D01*
X1240354Y1175696D01*
X1248924Y1179981D01*
X1266063D01*
X1274632Y1175696D01*
X1278917Y1171411D01*
X1283202Y1162841D01*
Y1154272D01*
X1278917Y1145702D01*
X1270348Y1132848D01*
X1227500Y1090000D01*
X1287487D01*
X1311910Y1158557D02*
Y1162841D01*
X1316195Y1171411D01*
X1320480Y1175696D01*
X1329049Y1179981D01*
X1346189D01*
X1354758Y1175696D01*
X1359043Y1171411D01*
X1363328Y1162841D01*
Y1154272D01*
X1359043Y1145702D01*
X1350474Y1132848D01*
X1307626Y1090000D01*
X1367613D01*
X1387751Y1149987D02*
Y1107139D01*
X1392036Y1094285D01*
X1400606Y1090000D01*
X1413460D01*
X1422030Y1094285D01*
X1434884Y1107139D01*
Y1149987D02*
Y1090000D01*
X749658Y537500D02*
X745374Y546070D01*
X732519Y558924D01*
X822500D01*
X732519Y603486D02*
X822500D01*
X762513Y646334D02*
X805361Y603486D01*
X788222Y620625D02*
X822500Y650618D01*
X732519Y761166D02*
X736804Y748312D01*
X749658Y739742D01*
X771083Y735458D01*
X783937D01*
X805361Y739742D01*
X818215Y748312D01*
X822500Y761166D01*
Y769736D01*
X818215Y782590D01*
X805361Y791160D01*
X783937Y795445D01*
X771083D01*
X749658Y791160D01*
X736804Y782590D01*
X732519Y769736D01*
Y761166D01*
X813930Y819868D02*
X818215Y815583D01*
X822500Y819868D01*
X818215Y824153D01*
X813930Y819868D01*
X732519Y886711D02*
X792506Y843863D01*
Y908135D01*
X732519Y886711D02*
X822500D01*
Y992546D02*
X732519Y958267D01*
X822500Y923989D01*
X792506Y936843D02*
Y979691D01*
X732519Y1109949D02*
X736804Y1097095D01*
X749658Y1088525D01*
X771083Y1084240D01*
X783937D01*
X805361Y1088525D01*
X818215Y1097095D01*
X822500Y1109949D01*
Y1118518D01*
X818215Y1131373D01*
X805361Y1139943D01*
X783937Y1144227D01*
X771083D01*
X749658Y1139943D01*
X736804Y1131373D01*
X732519Y1118518D01*
Y1109949D01*
X813930Y1168651D02*
X818215Y1164366D01*
X822500Y1168651D01*
X818215Y1172936D01*
X813930Y1168651D01*
X732519Y1244063D02*
Y1201215D01*
X771083Y1196930D01*
X766798Y1201215D01*
X762513Y1214069D01*
Y1226924D01*
X766798Y1239778D01*
X775367Y1248348D01*
X788222Y1252633D01*
X796791D01*
X809646Y1248348D01*
X818215Y1239778D01*
X822500Y1226924D01*
Y1214069D01*
X818215Y1201215D01*
X813930Y1196930D01*
X805361Y1192646D01*
X732519Y1272771D02*
X822500D01*
X732519D02*
Y1311335D01*
X736804Y1324189D01*
X741089Y1328474D01*
X749658Y1332759D01*
X758228D01*
X766798Y1328474D01*
X771083Y1324189D01*
X775367Y1311335D01*
Y1272771D01*
Y1302765D02*
X822500Y1332759D01*
X1035019Y405348D02*
X1095006Y362500D01*
Y426772D01*
X1035019Y405348D02*
X1125000D01*
X1035019Y442626D02*
X1125000D01*
X1065013Y485474D02*
X1107861Y442626D01*
X1090722Y459765D02*
X1125000Y489758D01*
X1035019Y529607D02*
X1039304Y516753D01*
X1052158Y508183D01*
X1073583Y503898D01*
X1086437D01*
X1107861Y508183D01*
X1120715Y516753D01*
X1125000Y529607D01*
Y538177D01*
X1120715Y551031D01*
X1107861Y559601D01*
X1086437Y563886D01*
X1073583D01*
X1052158Y559601D01*
X1039304Y551031D01*
X1035019Y538177D01*
Y529607D01*
X1056443Y588309D02*
X1052158D01*
X1043589Y592594D01*
X1039304Y596879D01*
X1035019Y605448D01*
Y622588D01*
X1039304Y631157D01*
X1043589Y635442D01*
X1052158Y639727D01*
X1060728D01*
X1069298Y635442D01*
X1082152Y626872D01*
X1125000Y584024D01*
Y644011D01*
X1619547Y30759D02*
X1623832Y22189D01*
X1636686Y9335D01*
X1546705D01*
X1636686Y-35227D02*
X1546705D01*
X1606692Y-78075D02*
X1563844Y-35227D01*
X1580984Y-52366D02*
X1546705Y-82359D01*
X1636686Y-147917D02*
Y-105069D01*
X1598123Y-100784D01*
X1602408Y-105069D01*
X1606692Y-117923D01*
Y-130778D01*
X1602408Y-143632D01*
X1593838Y-152202D01*
X1580984Y-156487D01*
X1572414D01*
X1559560Y-152202D01*
X1550990Y-143632D01*
X1546705Y-130778D01*
Y-117923D01*
X1550990Y-105069D01*
X1555275Y-100784D01*
X1563844Y-96499D01*
X1636686Y-273033D02*
X1632401Y-260179D01*
X1619547Y-251609D01*
X1598123Y-247324D01*
X1585269D01*
X1563844Y-251609D01*
X1550990Y-260179D01*
X1546705Y-273033D01*
Y-281603D01*
X1550990Y-294457D01*
X1563844Y-303027D01*
X1585269Y-307312D01*
X1598123D01*
X1619547Y-303027D01*
X1632401Y-294457D01*
X1636686Y-281603D01*
Y-273033D01*
X1555275Y-331735D02*
X1550990Y-327450D01*
X1546705Y-331735D01*
X1550990Y-336020D01*
X1555275Y-331735D01*
X1636686Y-407147D02*
Y-364299D01*
X1598123Y-360015D01*
X1602408Y-364299D01*
X1606692Y-377154D01*
Y-390008D01*
X1602408Y-402863D01*
X1593838Y-411432D01*
X1580984Y-415717D01*
X1572414D01*
X1559560Y-411432D01*
X1550990Y-402863D01*
X1546705Y-390008D01*
Y-377154D01*
X1550990Y-364299D01*
X1555275Y-360015D01*
X1563844Y-355730D01*
X1546705Y-504413D02*
X1636686Y-470134D01*
X1546705Y-435856D01*
X1576699Y-448710D02*
Y-491558D01*
X1636686Y-621816D02*
X1632401Y-608961D01*
X1619547Y-600392D01*
X1598123Y-596107D01*
X1585269D01*
X1563844Y-600392D01*
X1550990Y-608961D01*
X1546705Y-621816D01*
Y-630385D01*
X1550990Y-643240D01*
X1563844Y-651809D01*
X1585269Y-656094D01*
X1598123D01*
X1619547Y-651809D01*
X1632401Y-643240D01*
X1636686Y-630385D01*
Y-621816D01*
X1555275Y-680518D02*
X1550990Y-676233D01*
X1546705Y-680518D01*
X1550990Y-684803D01*
X1555275Y-680518D01*
X1636686Y-755930D02*
Y-713082D01*
X1598123Y-708797D01*
X1602408Y-713082D01*
X1606692Y-725936D01*
Y-738791D01*
X1602408Y-751645D01*
X1593838Y-760215D01*
X1580984Y-764500D01*
X1572414D01*
X1559560Y-760215D01*
X1550990Y-751645D01*
X1546705Y-738791D01*
Y-725936D01*
X1550990Y-713082D01*
X1555275Y-708797D01*
X1563844Y-704512D01*
X1636686Y-784638D02*
X1546705D01*
X1636686D02*
Y-823202D01*
X1632401Y-836056D01*
X1628116Y-840341D01*
X1619547Y-844625D01*
X1610977D01*
X1602408Y-840341D01*
X1598123Y-836056D01*
X1593838Y-823202D01*
Y-784638D01*
Y-814632D02*
X1546705Y-844625D01*
D82*
X1287489Y1147500D02*
X1237500D01*
X1287489D02*
Y1126076D01*
X1285108Y1118935D01*
X1282728Y1116554D01*
X1277967Y1114174D01*
X1273206D01*
X1268445Y1116554D01*
X1266065Y1118935D01*
X1263685Y1126076D01*
Y1147500D02*
Y1126076D01*
X1261304Y1118935D01*
X1258924Y1116554D01*
X1254163Y1114174D01*
X1247021D01*
X1242261Y1116554D01*
X1239880Y1118935D01*
X1237500Y1126076D01*
Y1147500D01*
X1280347Y1069660D02*
X1285108Y1074420D01*
X1287489Y1081562D01*
Y1091083D01*
X1285108Y1098225D01*
X1280347Y1102986D01*
X1275587D01*
X1270826Y1100605D01*
X1268445Y1098225D01*
X1266065Y1093464D01*
X1261304Y1079181D01*
X1258924Y1074420D01*
X1256543Y1072040D01*
X1251782Y1069660D01*
X1244641D01*
X1239880Y1074420D01*
X1237500Y1081562D01*
Y1091083D01*
X1239880Y1098225D01*
X1244641Y1102986D01*
X1280347Y1025145D02*
X1285108Y1029906D01*
X1287489Y1037047D01*
Y1046569D01*
X1285108Y1053710D01*
X1280347Y1058471D01*
X1275587D01*
X1270826Y1056091D01*
X1268445Y1053710D01*
X1266065Y1048950D01*
X1261304Y1034667D01*
X1258924Y1029906D01*
X1256543Y1027526D01*
X1251782Y1025145D01*
X1244641D01*
X1239880Y1029906D01*
X1237500Y1037047D01*
Y1046569D01*
X1239880Y1053710D01*
X1244641Y1058471D01*
X1277967Y1013957D02*
X1280347Y1009196D01*
X1287489Y1002055D01*
X1237500D01*
X1287489Y972537D02*
Y946353D01*
X1268445Y960635D01*
Y953494D01*
X1266065Y948733D01*
X1263685Y946353D01*
X1256543Y943972D01*
X1251782D01*
X1244641Y946353D01*
X1239880Y951113D01*
X1237500Y958255D01*
Y965396D01*
X1239880Y972537D01*
X1242261Y974918D01*
X1247021Y977298D01*
X1287489Y920882D02*
X1285108Y928023D01*
X1280347Y930404D01*
X1275587D01*
X1270826Y928023D01*
X1268445Y923262D01*
X1266065Y913741D01*
X1263685Y906599D01*
X1258924Y901838D01*
X1254163Y899458D01*
X1247021D01*
X1242261Y901838D01*
X1239880Y904219D01*
X1237500Y911360D01*
Y920882D01*
X1239880Y928023D01*
X1242261Y930404D01*
X1247021Y932784D01*
X1254163D01*
X1258924Y930404D01*
X1263685Y925643D01*
X1266065Y918501D01*
X1268445Y908980D01*
X1270826Y904219D01*
X1275587Y901838D01*
X1280347D01*
X1285108Y904219D01*
X1287489Y911360D01*
Y920882D01*
X1261304Y888270D02*
Y866846D01*
X1263685Y859704D01*
X1266065Y857324D01*
X1270826Y854944D01*
X1277967D01*
X1282728Y857324D01*
X1285108Y859704D01*
X1287489Y866846D01*
Y888270D01*
X1237500D01*
X1287489Y843755D02*
X1237500Y831853D01*
X1287489Y819951D02*
X1237500Y831853D01*
X1287489Y819951D02*
X1237500Y808049D01*
X1287489Y796147D02*
X1237500Y808049D01*
X1460467Y975000D02*
X1462848Y970239D01*
X1469989Y963097D01*
X1420000D01*
X1469989Y924058D02*
X1467609Y931200D01*
X1460467Y935960D01*
X1448565Y938341D01*
X1441424D01*
X1429522Y935960D01*
X1422380Y931200D01*
X1420000Y924058D01*
Y919297D01*
X1422380Y912156D01*
X1429522Y907395D01*
X1441424Y905015D01*
X1448565D01*
X1460467Y907395D01*
X1467609Y912156D01*
X1469989Y919297D01*
Y924058D01*
Y893827D02*
X1420000D01*
X1453326Y870022D02*
X1429522Y893827D01*
X1439043Y884305D02*
X1420000Y867642D01*
X1515011Y1258326D02*
X1565000Y1234522D01*
X1515011Y1225000D02*
Y1258326D01*
Y1298079D02*
Y1274275D01*
X1536435Y1271895D01*
X1534055Y1274275D01*
X1531674Y1281416D01*
Y1288557D01*
X1534055Y1295699D01*
X1538816Y1300460D01*
X1545957Y1302840D01*
X1550718D01*
X1557859Y1300460D01*
X1562620Y1295699D01*
X1565000Y1288557D01*
Y1281416D01*
X1562620Y1274275D01*
X1560239Y1271895D01*
X1555479Y1269514D01*
X1515011Y1314028D02*
X1565000D01*
X1531674Y1337833D02*
X1555479Y1314028D01*
X1545957Y1323550D02*
X1565000Y1340213D01*
X586196Y1595011D02*
X610000Y1628337D01*
X574293D01*
X586196Y1595011D02*
Y1645000D01*
X565486Y1595011D02*
Y1645000D01*
X541681Y1611674D02*
X565486Y1635478D01*
X555964Y1625957D02*
X539301Y1645000D01*
X498119Y1595011D02*
X521924Y1645000D01*
X531445Y1595011D02*
X498119D01*
X1292489Y758696D02*
X1259163Y782500D01*
Y746794D01*
X1292489Y758696D02*
X1242500D01*
X1292489Y737986D02*
X1242500D01*
X1275826Y714181D02*
X1252022Y737986D01*
X1261543Y728464D02*
X1242500Y711801D01*
X1292489Y670619D02*
X1242500Y694424D01*
X1292489Y703946D02*
Y670619D01*
X671783Y1312489D02*
X664641Y1310109D01*
X659880Y1302967D01*
X657500Y1291065D01*
Y1283924D01*
X659880Y1272022D01*
X664641Y1264880D01*
X671783Y1262500D01*
X676543D01*
X683685Y1264880D01*
X688445Y1272022D01*
X690826Y1283924D01*
Y1291065D01*
X688445Y1302967D01*
X683685Y1310109D01*
X676543Y1312489D01*
X671783D01*
X702014D02*
Y1262500D01*
Y1312489D02*
X723438D01*
X730579Y1310109D01*
X732960Y1307728D01*
X735340Y1302967D01*
Y1298206D01*
X732960Y1293445D01*
X730579Y1291065D01*
X723438Y1288685D01*
X702014D01*
X718677D02*
X735340Y1262500D01*
X386783Y779989D02*
X379641Y777609D01*
X374880Y770467D01*
X372500Y758565D01*
Y751424D01*
X374880Y739522D01*
X379641Y732380D01*
X386783Y730000D01*
X391543D01*
X398685Y732380D01*
X403445Y739522D01*
X405826Y751424D01*
Y758565D01*
X403445Y770467D01*
X398685Y777609D01*
X391543Y779989D01*
X386783D01*
X417014D02*
Y730000D01*
Y779989D02*
X438438D01*
X445579Y777609D01*
X447960Y775228D01*
X450340Y770467D01*
Y765706D01*
X447960Y760945D01*
X445579Y758565D01*
X438438Y756185D01*
X417014D01*
X433677D02*
X450340Y730000D01*
D83*
X1310845Y367500D02*
X1307513Y374165D01*
X1297515Y384163D01*
X1367500D01*
X1297515Y438818D02*
X1300848Y428821D01*
X1310845Y422155D01*
X1327508Y418823D01*
X1337506D01*
X1354170Y422155D01*
X1364167Y428821D01*
X1367500Y438818D01*
Y445484D01*
X1364167Y455481D01*
X1354170Y462147D01*
X1337506Y465479D01*
X1327508D01*
X1310845Y462147D01*
X1300848Y455481D01*
X1297515Y445484D01*
Y438818D01*
X1320843Y481143D02*
X1354170D01*
X1364167Y484476D01*
X1367500Y491141D01*
Y501138D01*
X1364167Y507804D01*
X1354170Y517802D01*
X1320843D02*
X1367500D01*
X1449155Y500000D02*
X1452488Y493335D01*
X1462486Y483337D01*
X1392500D01*
X1462486Y448677D02*
X1392500D01*
X1439157Y415351D02*
X1405831Y448677D01*
X1419161Y435347D02*
X1392500Y412018D01*
X1462486Y326037D02*
X1459153Y336035D01*
X1449155Y342700D01*
X1432492Y346033D01*
X1422494D01*
X1405831Y342700D01*
X1395833Y336035D01*
X1392500Y326037D01*
Y319371D01*
X1395833Y309374D01*
X1405831Y302709D01*
X1422494Y299376D01*
X1432492D01*
X1449155Y302709D01*
X1459153Y309374D01*
X1462486Y319371D01*
Y326037D01*
X1399166Y280380D02*
X1395833Y283712D01*
X1392500Y280380D01*
X1395833Y277047D01*
X1399166Y280380D01*
X1462486Y255052D02*
Y218393D01*
X1435824Y238389D01*
Y228391D01*
X1432492Y221725D01*
X1429159Y218393D01*
X1419161Y215060D01*
X1412496D01*
X1402498Y218393D01*
X1395833Y225058D01*
X1392500Y235056D01*
Y245054D01*
X1395833Y255052D01*
X1399166Y258384D01*
X1405831Y261717D01*
X1462486Y159405D02*
Y192732D01*
X1432492Y196064D01*
X1435824Y192732D01*
X1439157Y182734D01*
Y172736D01*
X1435824Y162738D01*
X1429159Y156073D01*
X1419161Y152740D01*
X1412496D01*
X1402498Y156073D01*
X1395833Y162738D01*
X1392500Y172736D01*
Y182734D01*
X1395833Y192732D01*
X1399166Y196064D01*
X1405831Y199397D01*
X1392500Y83755D02*
X1462486Y110416D01*
X1392500Y137077D01*
X1415829Y127079D02*
Y93753D01*
X1462486Y-7559D02*
X1459153Y2439D01*
X1449155Y9104D01*
X1432492Y12437D01*
X1422494D01*
X1405831Y9104D01*
X1395833Y2439D01*
X1392500Y-7559D01*
Y-14225D01*
X1395833Y-24222D01*
X1405831Y-30887D01*
X1422494Y-34220D01*
X1432492D01*
X1449155Y-30887D01*
X1459153Y-24222D01*
X1462486Y-14225D01*
Y-7559D01*
X1399166Y-53216D02*
X1395833Y-49884D01*
X1392500Y-53216D01*
X1395833Y-56549D01*
X1399166Y-53216D01*
X1462486Y-105205D02*
X1415829Y-71879D01*
Y-121868D01*
X1462486Y-105205D02*
X1392500D01*
X1439157Y-177523D02*
X1429159Y-174191D01*
X1422494Y-167525D01*
X1419161Y-157527D01*
Y-154195D01*
X1422494Y-144197D01*
X1429159Y-137532D01*
X1439157Y-134199D01*
X1442490D01*
X1452488Y-137532D01*
X1459153Y-144197D01*
X1462486Y-154195D01*
Y-157527D01*
X1459153Y-167525D01*
X1452488Y-174191D01*
X1439157Y-177523D01*
X1422494D01*
X1405831Y-174191D01*
X1395833Y-167525D01*
X1392500Y-157527D01*
Y-150862D01*
X1395833Y-140864D01*
X1402498Y-137532D01*
X1462486Y-196519D02*
X1392500D01*
X1462486D02*
Y-226513D01*
X1459153Y-236511D01*
X1455820Y-239843D01*
X1449155Y-243176D01*
X1442490D01*
X1435824Y-239843D01*
X1432492Y-236511D01*
X1429159Y-226513D01*
Y-196519D01*
Y-219848D02*
X1392500Y-243176D01*
X374173Y1502515D02*
X407500Y1549172D01*
X357510D01*
X374173Y1502515D02*
Y1572500D01*
X345180Y1525843D02*
Y1559170D01*
X341847Y1569167D01*
X335182Y1572500D01*
X325184D01*
X318519Y1569167D01*
X308521Y1559170D01*
Y1525843D02*
Y1572500D01*
X243535Y1502515D02*
X276861Y1572500D01*
X290191Y1502515D02*
X243535D01*
X1899167Y521678D02*
Y518345D01*
X1895835Y511680D01*
X1892502Y508347D01*
X1885837Y505015D01*
X1872506D01*
X1865841Y508347D01*
X1862508Y511680D01*
X1859176Y518345D01*
Y525010D01*
X1862508Y531676D01*
X1869174Y541674D01*
X1902500Y575000D01*
X1855843D01*
X1836847Y521678D02*
Y518345D01*
X1833514Y511680D01*
X1830182Y508347D01*
X1823517Y505015D01*
X1810186D01*
X1803521Y508347D01*
X1800188Y511680D01*
X1796856Y518345D01*
Y525010D01*
X1800188Y531676D01*
X1806853Y541674D01*
X1840180Y575000D01*
X1793523D01*
X1777860Y528343D02*
Y575000D01*
Y541674D02*
X1767862Y531676D01*
X1761196Y528343D01*
X1751198D01*
X1744533Y531676D01*
X1741201Y541674D01*
Y575000D01*
X770845Y250000D02*
X767513Y256665D01*
X757515Y266663D01*
X827500D01*
X757515Y321318D02*
X760848Y311320D01*
X770845Y304655D01*
X787508Y301322D01*
X797506D01*
X814170Y304655D01*
X824167Y311320D01*
X827500Y321318D01*
Y327984D01*
X824167Y337981D01*
X814170Y344647D01*
X797506Y347979D01*
X787508D01*
X770845Y344647D01*
X760848Y337981D01*
X757515Y327984D01*
Y321318D01*
Y383638D02*
X760848Y373641D01*
X770845Y366975D01*
X787508Y363643D01*
X797506D01*
X814170Y366975D01*
X824167Y373641D01*
X827500Y383638D01*
Y390304D01*
X824167Y400301D01*
X814170Y406967D01*
X797506Y410299D01*
X787508D01*
X770845Y406967D01*
X760848Y400301D01*
X757515Y390304D01*
Y383638D01*
X780843Y425963D02*
X827500D01*
X794174D02*
X784176Y435961D01*
X780843Y442626D01*
Y452624D01*
X784176Y459289D01*
X794174Y462622D01*
X827500D01*
X1720000Y1289155D02*
X1726666Y1292487D01*
X1736664Y1302485D01*
Y1232500D01*
X1771323Y1279157D02*
Y1245830D01*
X1774656Y1235833D01*
X1781321Y1232500D01*
X1791318D01*
X1797984Y1235833D01*
X1807982Y1245830D01*
Y1279157D02*
Y1232500D01*
X2039155Y615000D02*
X2042488Y608334D01*
X2052486Y598336D01*
X1982500D01*
X2029157Y563677D02*
X1995831D01*
X1985833Y560344D01*
X1982500Y553679D01*
Y543681D01*
X1985833Y537016D01*
X1995831Y527018D01*
X2029157D02*
X1982500D01*
X1515846Y757500D02*
X1512513Y764165D01*
X1502515Y774163D01*
X1572500D01*
X1525844Y808823D02*
X1559170D01*
X1569168Y812155D01*
X1572500Y818821D01*
Y828818D01*
X1569168Y835484D01*
X1559170Y845481D01*
X1525844D02*
X1572500D01*
X1670000Y1293345D02*
X1663335Y1290013D01*
X1653337Y1280015D01*
Y1350000D01*
X1598682Y1280015D02*
X1608680Y1283347D01*
X1615345Y1293345D01*
X1618677Y1310008D01*
Y1320006D01*
X1615345Y1336669D01*
X1608680Y1346667D01*
X1598682Y1350000D01*
X1592016D01*
X1582019Y1346667D01*
X1575353Y1336669D01*
X1572021Y1320006D01*
Y1310008D01*
X1575353Y1293345D01*
X1582019Y1283347D01*
X1592016Y1280015D01*
X1598682D01*
X1536362D02*
X1546359Y1283347D01*
X1553025Y1293345D01*
X1556357Y1310008D01*
Y1320006D01*
X1553025Y1336669D01*
X1546359Y1346667D01*
X1536362Y1350000D01*
X1529696D01*
X1519699Y1346667D01*
X1513033Y1336669D01*
X1509701Y1320006D01*
Y1310008D01*
X1513033Y1293345D01*
X1519699Y1283347D01*
X1529696Y1280015D01*
X1536362D01*
X1494037Y1303343D02*
Y1350000D01*
Y1316674D02*
X1484039Y1306676D01*
X1477374Y1303343D01*
X1467376D01*
X1460711Y1306676D01*
X1457378Y1316674D01*
Y1350000D01*
X1710845Y855000D02*
X1707513Y861665D01*
X1697515Y871663D01*
X1767500D01*
X1697515Y926318D02*
X1700848Y916320D01*
X1710845Y909655D01*
X1727509Y906322D01*
X1737507D01*
X1754170Y909655D01*
X1764167Y916320D01*
X1767500Y926318D01*
Y932983D01*
X1764167Y942981D01*
X1754170Y949646D01*
X1737507Y952979D01*
X1727509D01*
X1710845Y949646D01*
X1700848Y942981D01*
X1697515Y932983D01*
Y926318D01*
Y988638D02*
X1700848Y978640D01*
X1710845Y971975D01*
X1727509Y968642D01*
X1737507D01*
X1754170Y971975D01*
X1764167Y978640D01*
X1767500Y988638D01*
Y995304D01*
X1764167Y1005301D01*
X1754170Y1011966D01*
X1737507Y1015299D01*
X1727509D01*
X1710845Y1011966D01*
X1700848Y1005301D01*
X1697515Y995304D01*
Y988638D01*
X1720843Y1030963D02*
X1767500D01*
X1734174D02*
X1724176Y1040961D01*
X1720843Y1047626D01*
Y1057624D01*
X1724176Y1064289D01*
X1734174Y1067621D01*
X1767500D01*
X1582500Y518345D02*
X1575835Y515013D01*
X1565837Y505015D01*
Y575000D01*
X1511182Y505015D02*
X1521180Y508347D01*
X1527845Y518345D01*
X1531178Y535008D01*
Y545006D01*
X1527845Y561669D01*
X1521180Y571667D01*
X1511182Y575000D01*
X1504517D01*
X1494519Y571667D01*
X1487854Y561669D01*
X1484521Y545006D01*
Y535008D01*
X1487854Y518345D01*
X1494519Y508347D01*
X1504517Y505015D01*
X1511182D01*
X1468858Y528343D02*
Y575000D01*
Y541674D02*
X1458860Y531676D01*
X1452194Y528343D01*
X1442197D01*
X1435531Y531676D01*
X1432199Y541674D01*
Y575000D01*
X2163345Y657500D02*
X2160013Y664165D01*
X2150015Y674163D01*
X2220000D01*
X2150015Y728818D02*
X2153347Y718821D01*
X2163345Y712155D01*
X2180008Y708823D01*
X2190006D01*
X2206669Y712155D01*
X2216667Y718821D01*
X2220000Y728818D01*
Y735484D01*
X2216667Y745481D01*
X2206669Y752147D01*
X2190006Y755479D01*
X2180008D01*
X2163345Y752147D01*
X2153347Y745481D01*
X2150015Y735484D01*
Y728818D01*
Y791138D02*
X2153347Y781141D01*
X2163345Y774475D01*
X2180008Y771143D01*
X2190006D01*
X2206669Y774475D01*
X2216667Y781141D01*
X2220000Y791138D01*
Y797804D01*
X2216667Y807802D01*
X2206669Y814467D01*
X2190006Y817799D01*
X2180008D01*
X2163345Y814467D01*
X2153347Y807802D01*
X2150015Y797804D01*
Y791138D01*
X2173343Y833463D02*
X2220000D01*
X2186674D02*
X2176676Y843461D01*
X2173343Y850126D01*
Y860124D01*
X2176676Y866789D01*
X2186674Y870122D01*
X2220000D01*
X1899155Y640000D02*
X1902488Y633335D01*
X1912486Y623337D01*
X1842501D01*
X1912486Y568682D02*
X1909153Y578679D01*
X1899155Y585345D01*
X1882492Y588677D01*
X1872494D01*
X1855831Y585345D01*
X1845833Y578679D01*
X1842501Y568682D01*
Y562016D01*
X1845833Y552018D01*
X1855831Y545353D01*
X1872494Y542021D01*
X1882492D01*
X1899155Y545353D01*
X1909153Y552018D01*
X1912486Y562016D01*
Y568682D01*
Y506361D02*
X1909153Y516359D01*
X1899155Y523024D01*
X1882492Y526357D01*
X1872494D01*
X1855831Y523024D01*
X1845833Y516359D01*
X1842501Y506361D01*
Y499696D01*
X1845833Y489698D01*
X1855831Y483033D01*
X1872494Y479700D01*
X1882492D01*
X1899155Y483033D01*
X1909153Y489698D01*
X1912486Y499696D01*
Y506361D01*
X1889157Y464037D02*
X1842501D01*
X1875827D02*
X1885825Y454039D01*
X1889157Y447374D01*
Y437376D01*
X1885825Y430711D01*
X1875827Y427378D01*
X1842501D01*
X2157500Y451655D02*
X2164166Y454987D01*
X2174164Y464985D01*
Y395000D01*
X2208823Y464985D02*
Y395000D01*
X2242149Y441657D02*
X2208823Y408330D01*
X2222153Y421661D02*
X2245482Y395000D01*
X2331463Y464985D02*
X2321466Y461652D01*
X2314800Y451655D01*
X2311468Y434992D01*
Y424994D01*
X2314800Y408330D01*
X2321466Y398333D01*
X2331463Y395000D01*
X2338129D01*
X2348126Y398333D01*
X2354792Y408330D01*
X2358124Y424994D01*
Y434992D01*
X2354792Y451655D01*
X2348126Y461652D01*
X2338129Y464985D01*
X2331463D01*
X2377120Y401665D02*
X2373788Y398333D01*
X2377120Y395000D01*
X2380453Y398333D01*
X2377120Y401665D01*
X2402448Y464985D02*
X2439107D01*
X2419111Y438324D01*
X2429109D01*
X2435775Y434992D01*
X2439107Y431659D01*
X2442440Y421661D01*
Y414996D01*
X2439107Y404998D01*
X2432442Y398333D01*
X2422444Y395000D01*
X2412446D01*
X2402448Y398333D01*
X2399116Y401665D01*
X2395783Y408330D01*
X2498095Y464985D02*
X2464769D01*
X2461436Y434992D01*
X2464769Y438324D01*
X2474766Y441657D01*
X2484764D01*
X2494762Y438324D01*
X2501427Y431659D01*
X2504760Y421661D01*
Y414996D01*
X2501427Y404998D01*
X2494762Y398333D01*
X2484764Y395000D01*
X2474766D01*
X2464769Y398333D01*
X2461436Y401665D01*
X2458103Y408330D01*
X2573745Y395000D02*
X2547085Y464985D01*
X2520423Y395000D01*
X2530421Y418328D02*
X2563747D01*
X2665059Y464985D02*
X2655061Y461652D01*
X2648396Y451655D01*
X2645064Y434992D01*
Y424994D01*
X2648396Y408330D01*
X2655061Y398333D01*
X2665059Y395000D01*
X2671725D01*
X2681722Y398333D01*
X2688388Y408330D01*
X2691720Y424994D01*
Y434992D01*
X2688388Y451655D01*
X2681722Y461652D01*
X2671725Y464985D01*
X2665059D01*
X2710716Y401665D02*
X2707384Y398333D01*
X2710716Y395000D01*
X2714049Y398333D01*
X2710716Y401665D01*
X2762705Y464985D02*
X2729379Y418328D01*
X2779369D01*
X2762705Y464985D02*
Y395000D01*
X2835023Y441657D02*
X2831691Y431659D01*
X2825026Y424994D01*
X2815028Y421661D01*
X2811695D01*
X2801697Y424994D01*
X2795032Y431659D01*
X2791699Y441657D01*
Y444989D01*
X2795032Y454987D01*
X2801697Y461652D01*
X2811695Y464985D01*
X2815028D01*
X2825026Y461652D01*
X2831691Y454987D01*
X2835023Y441657D01*
Y424994D01*
X2831691Y408330D01*
X2825026Y398333D01*
X2815028Y395000D01*
X2808362D01*
X2798364Y398333D01*
X2795032Y404998D01*
X2854019Y464985D02*
Y395000D01*
Y464985D02*
X2884013D01*
X2894011Y461652D01*
X2897343Y458320D01*
X2900676Y451655D01*
Y444989D01*
X2897343Y438324D01*
X2894011Y434992D01*
X2884013Y431659D01*
X2854019D01*
X2877348D02*
X2900676Y395000D01*
X1451500Y1358345D02*
X1444835Y1355013D01*
X1434837Y1345015D01*
Y1415000D01*
X1400178Y1345015D02*
Y1415000D01*
X1366851Y1368343D02*
X1400178Y1401669D01*
X1386847Y1388339D02*
X1363519Y1415000D01*
X1277537Y1345015D02*
X1287535Y1348347D01*
X1294200Y1358345D01*
X1297533Y1375008D01*
Y1385006D01*
X1294200Y1401669D01*
X1287535Y1411667D01*
X1277537Y1415000D01*
X1270872D01*
X1260874Y1411667D01*
X1254209Y1401669D01*
X1250876Y1385006D01*
Y1375008D01*
X1254209Y1358345D01*
X1260874Y1348347D01*
X1270872Y1345015D01*
X1277537D01*
X1231880Y1408334D02*
X1235213Y1411667D01*
X1231880Y1415000D01*
X1228548Y1411667D01*
X1231880Y1408334D01*
X1206552Y1345015D02*
X1169894D01*
X1189889Y1371676D01*
X1179891D01*
X1173226Y1375008D01*
X1169894Y1378341D01*
X1166561Y1388339D01*
Y1395004D01*
X1169894Y1405002D01*
X1176559Y1411667D01*
X1186556Y1415000D01*
X1196554D01*
X1206552Y1411667D01*
X1209885Y1408334D01*
X1213218Y1401669D01*
X1110906Y1345015D02*
X1144232D01*
X1147565Y1375008D01*
X1144232Y1371676D01*
X1134234Y1368343D01*
X1124236D01*
X1114239Y1371676D01*
X1107573Y1378341D01*
X1104241Y1388339D01*
Y1395004D01*
X1107573Y1405002D01*
X1114239Y1411667D01*
X1124236Y1415000D01*
X1134234D01*
X1144232Y1411667D01*
X1147565Y1408334D01*
X1150897Y1401669D01*
X1035255Y1415000D02*
X1061916Y1345015D01*
X1088577Y1415000D01*
X1078579Y1391671D02*
X1045253D01*
X943941Y1345015D02*
X953939Y1348347D01*
X960604Y1358345D01*
X963937Y1375008D01*
Y1385006D01*
X960604Y1401669D01*
X953939Y1411667D01*
X943941Y1415000D01*
X937276D01*
X927278Y1411667D01*
X920613Y1401669D01*
X917280Y1385006D01*
Y1375008D01*
X920613Y1358345D01*
X927278Y1348347D01*
X937276Y1345015D01*
X943941D01*
X898284Y1408334D02*
X901617Y1411667D01*
X898284Y1415000D01*
X894952Y1411667D01*
X898284Y1408334D01*
X846295Y1345015D02*
X879622Y1391671D01*
X829632D01*
X846295Y1345015D02*
Y1415000D01*
X773977Y1368343D02*
X777310Y1378341D01*
X783975Y1385006D01*
X793973Y1388339D01*
X797306D01*
X807303Y1385006D01*
X813969Y1378341D01*
X817301Y1368343D01*
Y1365010D01*
X813969Y1355013D01*
X807303Y1348347D01*
X797306Y1345015D01*
X793973D01*
X783975Y1348347D01*
X777310Y1355013D01*
X773977Y1368343D01*
Y1385006D01*
X777310Y1401669D01*
X783975Y1411667D01*
X793973Y1415000D01*
X800638D01*
X810636Y1411667D01*
X813969Y1405002D01*
X754981Y1345015D02*
Y1415000D01*
Y1345015D02*
X724988D01*
X714990Y1348347D01*
X711657Y1351680D01*
X708324Y1358345D01*
Y1365010D01*
X711657Y1371676D01*
X714990Y1375008D01*
X724988Y1378341D01*
X754981D01*
X731653D02*
X708324Y1415000D01*
D84*
X880021Y440109D02*
X946673Y392500D01*
Y463913D01*
X880021Y440109D02*
X980000D01*
X913347Y481528D02*
X960956D01*
X975239Y486289D01*
X980000Y495811D01*
Y510094D01*
X975239Y519615D01*
X960956Y533898D01*
X913347D02*
X980000D01*
X880021Y626735D02*
X980000Y579127D01*
X880021Y560083D02*
Y626735D01*
X2296565Y775000D02*
X2291804Y784521D01*
X2277521Y798804D01*
X2377500D01*
X2277521Y876883D02*
X2282282Y862600D01*
X2296565Y853078D01*
X2320370Y848317D01*
X2334652D01*
X2358457Y853078D01*
X2372739Y862600D01*
X2377500Y876883D01*
Y886404D01*
X2372739Y900687D01*
X2358457Y910209D01*
X2334652Y914970D01*
X2320370D01*
X2296565Y910209D01*
X2282282Y900687D01*
X2277521Y886404D01*
Y876883D01*
X2310848Y937346D02*
X2358457D01*
X2372739Y942107D01*
X2377500Y951629D01*
Y965911D01*
X2372739Y975433D01*
X2358457Y989716D01*
X2310848D02*
X2377500D01*
X371913Y1085016D02*
X410000Y1138338D01*
X352870D01*
X371913Y1085016D02*
Y1164999D01*
X285456Y1085016D02*
X323543Y1164999D01*
X338778Y1085016D02*
X285456D01*
X267555Y1111677D02*
Y1149765D01*
X263746Y1161191D01*
X256129Y1164999D01*
X244702D01*
X237085Y1161191D01*
X225659Y1149765D01*
Y1111677D02*
Y1164999D01*
X1173674Y1197739D02*
X1178435D01*
X1187957Y1192978D01*
X1192718Y1188217D01*
X1197479Y1178696D01*
Y1159652D01*
X1192718Y1150130D01*
X1187957Y1145369D01*
X1178435Y1140609D01*
X1168914D01*
X1159392Y1145369D01*
X1145109Y1154891D01*
X1097500Y1202500D01*
Y1135848D01*
X1164153Y1113471D02*
X1116544D01*
X1102261Y1108711D01*
X1097500Y1099189D01*
Y1084906D01*
X1102261Y1075384D01*
X1116544Y1061102D01*
X1164153D02*
X1097500D01*
X1173674Y1030156D02*
X1178435D01*
X1187957Y1025395D01*
X1192718Y1020634D01*
X1197479Y1011113D01*
Y992069D01*
X1192718Y982547D01*
X1187957Y977786D01*
X1178435Y973025D01*
X1168914D01*
X1159392Y977786D01*
X1145109Y987308D01*
X1097500Y1034917D01*
Y968265D01*
X-84979Y950000D02*
X15000D01*
Y1007130D01*
X-84979Y1018080D02*
X15000D01*
X-84979D02*
X15000Y1056167D01*
X-84979Y1094254D02*
X15000Y1056167D01*
X-84979Y1094254D02*
X15000D01*
X-84979Y1189472D02*
X15000Y1122820D01*
X-84979D02*
Y1189472D01*
X15000Y1122820D02*
Y1189472D01*
X-84979Y1211848D02*
X15000D01*
X-84979D02*
X15000Y1249935D01*
X-84979Y1288022D02*
X15000Y1249935D01*
X-84979Y1288022D02*
X15000D01*
X-61174Y1321349D02*
X-65935D01*
X-75457Y1326109D01*
X-80218Y1330870D01*
X-84979Y1340392D01*
Y1359436D01*
X-80218Y1368957D01*
X-75457Y1373718D01*
X-65935Y1378479D01*
X-56413D01*
X-46891Y1373718D01*
X-32609Y1364197D01*
X15000Y1316588D01*
Y1383240D01*
X-84979Y1415138D02*
Y1467508D01*
X-46891Y1438943D01*
Y1453225D01*
X-42131Y1462747D01*
X-37370Y1467508D01*
X-23087Y1472269D01*
X-13565D01*
X717Y1467508D01*
X10239Y1457986D01*
X15000Y1443703D01*
Y1429421D01*
X10239Y1415138D01*
X5478Y1410377D01*
X-4044Y1405616D01*
X-70696Y1551775D02*
X-80218Y1547014D01*
X-84979Y1532732D01*
Y1523210D01*
X-80218Y1508927D01*
X-65935Y1499406D01*
X-42131Y1494645D01*
X-18326D01*
X717Y1499406D01*
X10239Y1508927D01*
X15000Y1523210D01*
Y1527971D01*
X10239Y1542254D01*
X717Y1551775D01*
X-13565Y1556536D01*
X-18326D01*
X-32609Y1551775D01*
X-42131Y1542254D01*
X-46891Y1527971D01*
Y1523210D01*
X-42131Y1508927D01*
X-32609Y1499406D01*
X-18326Y1494645D01*
X-84979Y1607002D02*
X-80218Y1592719D01*
X-65935Y1583197D01*
X-42131Y1578436D01*
X-27848D01*
X-4044Y1583197D01*
X10239Y1592719D01*
X15000Y1607002D01*
Y1616523D01*
X10239Y1630806D01*
X-4044Y1640328D01*
X-27848Y1645089D01*
X-42131D01*
X-65935Y1640328D01*
X-80218Y1630806D01*
X-84979Y1616523D01*
Y1607002D01*
X-65935Y1667465D02*
X-70696Y1676986D01*
X-84979Y1691269D01*
X15000D01*
X-70696Y1807435D02*
X-80218Y1797913D01*
X-84979Y1783630D01*
Y1764587D01*
X-80218Y1750304D01*
X-70696Y1740782D01*
X-61174D01*
X-51652Y1745543D01*
X-46891Y1750304D01*
X-42131Y1759826D01*
X-32609Y1788391D01*
X-27848Y1797913D01*
X-23087Y1802674D01*
X-13565Y1807435D01*
X717D01*
X10239Y1797913D01*
X15000Y1783630D01*
Y1764587D01*
X10239Y1750304D01*
X717Y1740782D01*
X-84979Y1829811D02*
X15000D01*
X-84979Y1850759D02*
X15000D01*
Y1907890D01*
X1781048Y494324D02*
X1776287Y503846D01*
X1762004Y518128D01*
X1861983D01*
X1762004Y596207D02*
X1766765Y581924D01*
X1781048Y572402D01*
X1804852Y567641D01*
X1819135D01*
X1842939Y572402D01*
X1857222Y581924D01*
X1861983Y596207D01*
Y605729D01*
X1857222Y620011D01*
X1842939Y629533D01*
X1819135Y634294D01*
X1804852D01*
X1781048Y629533D01*
X1766765Y620011D01*
X1762004Y605729D01*
Y596207D01*
X1795330Y656670D02*
X1842939D01*
X1857222Y661431D01*
X1861983Y670953D01*
Y685235D01*
X1857222Y694757D01*
X1842939Y709040D01*
X1795330D02*
X1861983D01*
X1670000Y1006565D02*
X1660479Y1001804D01*
X1646196Y987521D01*
Y1087500D01*
X1568117Y987521D02*
X1582400Y992282D01*
X1591922Y1006565D01*
X1596683Y1030369D01*
Y1044652D01*
X1591922Y1068456D01*
X1582400Y1082739D01*
X1568117Y1087500D01*
X1558596D01*
X1544313Y1082739D01*
X1534791Y1068456D01*
X1530030Y1044652D01*
Y1030369D01*
X1534791Y1006565D01*
X1544313Y992282D01*
X1558596Y987521D01*
X1568117D01*
X1507654Y1020848D02*
Y1068456D01*
X1502893Y1082739D01*
X1493371Y1087500D01*
X1479089D01*
X1469567Y1082739D01*
X1455284Y1068456D01*
Y1020848D02*
Y1087500D01*
X505252Y490000D02*
X501443Y497617D01*
X490017Y509044D01*
X570000D01*
X490017Y571507D02*
X493826Y560080D01*
X505252Y552463D01*
X524295Y548654D01*
X535722D01*
X554765Y552463D01*
X566191Y560080D01*
X570000Y571507D01*
Y579124D01*
X566191Y590550D01*
X554765Y598167D01*
X535722Y601976D01*
X524295D01*
X505252Y598167D01*
X493826Y590550D01*
X490017Y579124D01*
Y571507D01*
X516678Y619877D02*
X554765D01*
X566191Y623686D01*
X570000Y631303D01*
Y642729D01*
X566191Y650347D01*
X554765Y661773D01*
X516678D02*
X570000D01*
X62500Y572752D02*
X54883Y568943D01*
X43456Y557517D01*
Y637500D01*
X-19007Y557517D02*
X-7580Y561326D01*
X37Y572752D01*
X3846Y591795D01*
Y603222D01*
X37Y622265D01*
X-7580Y633691D01*
X-19007Y637500D01*
X-26624D01*
X-38050Y633691D01*
X-45667Y622265D01*
X-49476Y603222D01*
Y591795D01*
X-45667Y572752D01*
X-38050Y561326D01*
X-26624Y557517D01*
X-19007D01*
X-67377Y584178D02*
Y622265D01*
X-71186Y633691D01*
X-78803Y637500D01*
X-90229D01*
X-97847Y633691D01*
X-109273Y622265D01*
Y584178D02*
Y637500D01*
X660000Y622752D02*
X652382Y618943D01*
X640956Y607517D01*
Y687500D01*
X578493Y607517D02*
X589920Y611326D01*
X597537Y622752D01*
X601346Y641796D01*
Y653222D01*
X597537Y672265D01*
X589920Y683691D01*
X578493Y687500D01*
X570876D01*
X559450Y683691D01*
X551833Y672265D01*
X548024Y653222D01*
Y641796D01*
X551833Y622752D01*
X559450Y611326D01*
X570876Y607517D01*
X578493D01*
X530123Y634178D02*
Y672265D01*
X526314Y683691D01*
X518697Y687500D01*
X507271D01*
X499653Y683691D01*
X488227Y672265D01*
Y634178D02*
Y687500D01*
%TF.MD5,27881b2d0fe72a2647bca2c7eff94b07*%
M02*
